  0
SECTION
  2
HEADER
  9
$ACADVER
  1
AC1014
  9
$HANDSEED
  5
FFFF
  9
$MEASUREMENT
 70
     1
  0
ENDSEC
  0
SECTION
  2
TABLES
  0
TABLE
  2
VPORT
  5
8
330
0
100
AcDbSymbolTable
 70
     4
  0
VPORT
  5
2E
330
8
100
AcDbSymbolTableRecord
100
AcDbViewportTableRecord
  2
*ACTIVE
 70
     0
 10
0.0
 20
0.0
 11
1.0
 21
1.0
 12
210.0
 22
148.5
 13
0.0
 23
0.0
 14
10.0
 24
10.0
 15
10.0
 25
10.0
 16
0.0
 26
0.0
 36
1.0
 17
0.0
 27
0.0
 37
0.0
 40
341.0
 41
1.24
 42
50.0
 43
0.0
 44
0.0
 50
0.0
 51
0.0
 71
     0
 72
   100
 73
     1
 74
     3
 75
     0
 76
     0
 77
     0
 78
     0
  0
ENDTAB
  0
TABLE
  2
LTYPE
  5
5
330
0
100
AcDbSymbolTable
 70
     1
  0
LTYPE
  5
14
330
5
100
AcDbSymbolTableRecord
100
AcDbLinetypeTableRecord
  2
BYBLOCK
 70
     0
  3

 72
    65
 73
     0
 40
0.0
  0
LTYPE
  5
15
330
5
100
AcDbSymbolTableRecord
100
AcDbLinetypeTableRecord
  2
BYLAYER
 70
     0
  3

 72
    65
 73
     0
 40
0.0
  0
LTYPE
  5
16
330
5
100
AcDbSymbolTableRecord
100
AcDbLinetypeTableRecord
  2
CONTINUOUS
 70
     0
  3
Solid line
 72
    65
 73
     0
 40
0.0
  0
ENDTAB
  0
TABLE
  2
LAYER
  5
2
100
AcDbSymbolTable
 70
1
  0
LAYER
  5
50
100
AcDbSymbolTableRecord
100
AcDbLayerTableRecord
  2
0
 70
0
  6
CONTINUOUS
  0
ENDTAB
  0
TABLE
  2
STYLE
  5
3
330
0
100
AcDbSymbolTable
 70
     1
  0
STYLE
  5
11
330
3
100
AcDbSymbolTableRecord
100
AcDbTextStyleTableRecord
  2
STANDARD
 70
     0
 40
0.0
 41
1.0
 50
0.0
 71
     0
 42
2.5
  3
txt
  4

  0
ENDTAB
  0
TABLE
  2
VIEW
  5
6
330
0
100
AcDbSymbolTable
 70
     0
  0
ENDTAB
  0
TABLE
  2
UCS
  5
7
330
0
100
AcDbSymbolTable
 70
     0
  0
ENDTAB
  0
TABLE
  2
APPID
  5
9
330
0
100
AcDbSymbolTable
 70
     2
  0
APPID
  5
12
330
9
100
AcDbSymbolTableRecord
100
AcDbRegAppTableRecord
  2
ACAD
 70
     0
  0
ENDTAB
  0
TABLE
  2
DIMSTYLE
  5
A
330
0
100
AcDbSymbolTable
 70
     1
  0
DIMSTYLE
105
27
330
A
100
AcDbSymbolTableRecord
100
AcDbDimStyleTableRecord
  2
ISO-25
 70
     0
  3

  4

  5

  6

  7

 40
1.0
 41
2.5
 42
0.625
 43
3.75
 44
1.25
 45
0.0
 46
0.0
 47
0.0
 48
0.0
140
2.5
141
2.5
142
0.0
143
0.03937007874016
144
1.0
145
0.0
146
1.0
147
0.625
 71
     0
 72
     0
 73
     0
 74
     0
 75
     0
 76
     0
 77
     1
 78
     8
170
     0
171
     3
172
     1
173
     0
174
     0
175
     0
176
     0
177
     0
178
     0
270
     2
271
     2
272
     2
273
     2
274
     3
340
11
275
     0
280
     0
281
     0
282
     0
283
     0
284
     8
285
     0
286
     0
287
     3
288
     0
  0
ENDTAB
  0
TABLE
  2
BLOCK_RECORD
  5
1
330
0
100
AcDbSymbolTable
 70
     1
  0
BLOCK_RECORD
  5
1F
330
1
100
AcDbSymbolTableRecord
100
AcDbBlockTableRecord
  2
*MODEL_SPACE
  0
BLOCK_RECORD
  5
1B
330
1
100
AcDbSymbolTableRecord
100
AcDbBlockTableRecord
  2
*PAPER_SPACE
  0
ENDTAB
  0
ENDSEC
  0
SECTION
  2
BLOCKS
  0
BLOCK
  5
20
330
1F
100
AcDbEntity
  8
0
100
AcDbBlockBegin
  2
*MODEL_SPACE
 70
     0
 10
0.0
 20
0.0
 30
0.0
  3
*MODEL_SPACE
  1

  0
ENDBLK
  5
21
330
1F
100
AcDbEntity
  8
0
100
AcDbBlockEnd
  0
BLOCK
  5
1C
330
1B
100
AcDbEntity
 67
     1
  8
0
100
AcDbBlockBegin
  2
*PAPER_SPACE
  1

  0
ENDBLK
  5
1D
330
1B
100
AcDbEntity
 67
     1
  8
0
100
AcDbBlockEnd
  0
ENDSEC
  0
SECTION
  2
ENTITIES
  0
SPLINE
  5
100
100
AcDbEntity
  8
0
 62
7
100
AcDbSpline
 70
8
 71
3
 72
8
 73
4
 74
0
 40
0
 40
0
 40
0
 40
0
 40
1
 40
1
 40
1
 40
1
 10
2470689.774624
 20
4901017.217475
 30
0.0
 10
2453567.523287
 20
4901017.217475
 30
0.0
 10
2438131.239078
 20
4890703.022118
 30
0.0
 10
2431578.837167
 20
4874884.124558
 30
0.0
  0
SPLINE
  5
101
100
AcDbEntity
  8
0
 62
7
100
AcDbSpline
 70
8
 71
3
 72
8
 73
4
 74
0
 40
0
 40
0
 40
0
 40
0
 40
1
 40
1
 40
1
 40
1
 10
2431578.837167
 20
4874884.124558
 30
0.0
 10
2425026.435256
 20
4859065.226997
 30
0.0
 10
2428648.299017
 20
4840856.888277
 30
0.0
 10
2440755.559046
 20
4828749.628248
 30
0.0
  0
SPLINE
  5
102
100
AcDbEntity
  8
0
 62
7
100
AcDbSpline
 70
8
 71
3
 72
8
 73
4
 74
0
 40
0
 40
0
 40
0
 40
0
 40
1
 40
1
 40
1
 40
1
 10
2440755.559046
 20
4828749.628248
 30
0.0
 10
2452862.819075
 20
4816642.368219
 30
0.0
 10
2471071.157795
 20
4813020.504458
 30
0.0
 10
2486890.055356
 20
4819572.906369
 30
0.0
  0
SPLINE
  5
103
100
AcDbEntity
  8
0
 62
7
100
AcDbSpline
 70
8
 71
3
 72
8
 73
4
 74
0
 40
0
 40
0
 40
0
 40
0
 40
1
 40
1
 40
1
 40
1
 10
2486890.055356
 20
4819572.906369
 30
0.0
 10
2502708.952916
 20
4826125.308280
 30
0.0
 10
2513023.148273
 20
4841561.592489
 30
0.0
 10
2513023.148273
 20
4858683.843826
 30
0.0
  0
SPLINE
  5
104
100
AcDbEntity
  8
0
 62
7
100
AcDbSpline
 70
8
 71
3
 72
8
 73
4
 74
0
 40
0
 40
0
 40
0
 40
0
 40
1
 40
1
 40
1
 40
1
 10
2513023.148273
 20
4858683.843826
 30
0.0
 10
2513023.148273
 20
4869911.352588
 30
0.0
 10
2508563.037784
 20
4880679.011822
 30
0.0
 10
2500623.990202
 20
4888618.059404
 30
0.0
  0
SPLINE
  5
105
100
AcDbEntity
  8
0
 62
7
100
AcDbSpline
 70
8
 71
3
 72
8
 73
4
 74
0
 40
0
 40
0
 40
0
 40
0
 40
1
 40
1
 40
1
 40
1
 10
2500623.990202
 20
4888618.059404
 30
0.0
 10
2492684.942620
 20
4896557.106986
 30
0.0
 10
2481917.283386
 20
4901017.217475
 30
0.0
 10
2470689.774624
 20
4901017.217475
 30
0.0
  0
LINE
  5
106
100
AcDbEntity
  8
0
 62
7
100
AcDbLine
 10
2470689.774624
 20
4901017.217475
 30
0.0
 11
2470689.774624
 21
4901017.217475
 31
0.0
  0
SPLINE
  5
107
100
AcDbEntity
  8
0
 62
7
100
AcDbSpline
 70
8
 71
3
 72
8
 73
4
 74
0
 40
0
 40
0
 40
0
 40
0
 40
1
 40
1
 40
1
 40
1
 10
5326869.366368
 20
4901017.217475
 30
0.0
 10
5309747.115032
 20
4901017.217475
 30
0.0
 10
5294310.830823
 20
4890703.022118
 30
0.0
 10
5287758.428911
 20
4874884.124558
 30
0.0
  0
SPLINE
  5
108
100
AcDbEntity
  8
0
 62
7
100
AcDbSpline
 70
8
 71
3
 72
8
 73
4
 74
0
 40
0
 40
0
 40
0
 40
0
 40
1
 40
1
 40
1
 40
1
 10
5287758.428911
 20
4874884.124558
 30
0.0
 10
5281206.027000
 20
4859065.226997
 30
0.0
 10
5284827.890761
 20
4840856.888277
 30
0.0
 10
5296935.150790
 20
4828749.628248
 30
0.0
  0
SPLINE
  5
109
100
AcDbEntity
  8
0
 62
7
100
AcDbSpline
 70
8
 71
3
 72
8
 73
4
 74
0
 40
0
 40
0
 40
0
 40
0
 40
1
 40
1
 40
1
 40
1
 10
5296935.150790
 20
4828749.628248
 30
0.0
 10
5309042.410820
 20
4816642.368219
 30
0.0
 10
5327250.749540
 20
4813020.504458
 30
0.0
 10
5343069.647100
 20
4819572.906369
 30
0.0
  0
SPLINE
  5
10a
100
AcDbEntity
  8
0
 62
7
100
AcDbSpline
 70
8
 71
3
 72
8
 73
4
 74
0
 40
0
 40
0
 40
0
 40
0
 40
1
 40
1
 40
1
 40
1
 10
5343069.647100
 20
4819572.906369
 30
0.0
 10
5358888.544661
 20
4826125.308280
 30
0.0
 10
5369202.740018
 20
4841561.592489
 30
0.0
 10
5369202.740018
 20
4858683.843826
 30
0.0
  0
SPLINE
  5
10b
100
AcDbEntity
  8
0
 62
7
100
AcDbSpline
 70
8
 71
3
 72
8
 73
4
 74
0
 40
0
 40
0
 40
0
 40
0
 40
1
 40
1
 40
1
 40
1
 10
5369202.740018
 20
4858683.843826
 30
0.0
 10
5369202.740018
 20
4869911.352588
 30
0.0
 10
5364742.629528
 20
4880679.011822
 30
0.0
 10
5356803.581946
 20
4888618.059404
 30
0.0
  0
SPLINE
  5
10c
100
AcDbEntity
  8
0
 62
7
100
AcDbSpline
 70
8
 71
3
 72
8
 73
4
 74
0
 40
0
 40
0
 40
0
 40
0
 40
1
 40
1
 40
1
 40
1
 10
5356803.581946
 20
4888618.059404
 30
0.0
 10
5348864.534365
 20
4896557.106986
 30
0.0
 10
5338096.875131
 20
4901017.217475
 30
0.0
 10
5326869.366368
 20
4901017.217475
 30
0.0
  0
LINE
  5
10d
100
AcDbEntity
  8
0
 62
7
100
AcDbLine
 10
5326869.366368
 20
4901017.217475
 30
0.0
 11
5326869.366368
 21
4901017.217475
 31
0.0
  0
SPLINE
  5
10e
100
AcDbEntity
  8
0
 62
7
100
AcDbSpline
 70
8
 71
3
 72
8
 73
4
 74
0
 40
0
 40
0
 40
0
 40
0
 40
1
 40
1
 40
1
 40
1
 10
2470689.774624
 20
1519804.520717
 30
0.0
 10
2453567.523287
 20
1519804.520717
 30
0.0
 10
2438131.239078
 20
1509490.325359
 30
0.0
 10
2431578.837167
 20
1493671.427799
 30
0.0
  0
SPLINE
  5
10f
100
AcDbEntity
  8
0
 62
7
100
AcDbSpline
 70
8
 71
3
 72
8
 73
4
 74
0
 40
0
 40
0
 40
0
 40
0
 40
1
 40
1
 40
1
 40
1
 10
2431578.837167
 20
1493671.427799
 30
0.0
 10
2425026.435256
 20
1477852.530238
 30
0.0
 10
2428648.299017
 20
1459644.191518
 30
0.0
 10
2440755.559046
 20
1447536.931489
 30
0.0
  0
SPLINE
  5
110
100
AcDbEntity
  8
0
 62
7
100
AcDbSpline
 70
8
 71
3
 72
8
 73
4
 74
0
 40
0
 40
0
 40
0
 40
0
 40
1
 40
1
 40
1
 40
1
 10
2440755.559046
 20
1447536.931489
 30
0.0
 10
2452862.819075
 20
1435429.671460
 30
0.0
 10
2471071.157795
 20
1431807.807699
 30
0.0
 10
2486890.055356
 20
1438360.209610
 30
0.0
  0
SPLINE
  5
111
100
AcDbEntity
  8
0
 62
7
100
AcDbSpline
 70
8
 71
3
 72
8
 73
4
 74
0
 40
0
 40
0
 40
0
 40
0
 40
1
 40
1
 40
1
 40
1
 10
2486890.055356
 20
1438360.209610
 30
0.0
 10
2502708.952916
 20
1444912.611522
 30
0.0
 10
2513023.148273
 20
1460348.895731
 30
0.0
 10
2513023.148273
 20
1477471.147067
 30
0.0
  0
SPLINE
  5
112
100
AcDbEntity
  8
0
 62
7
100
AcDbSpline
 70
8
 71
3
 72
8
 73
4
 74
0
 40
0
 40
0
 40
0
 40
0
 40
1
 40
1
 40
1
 40
1
 10
2513023.148273
 20
1477471.147067
 30
0.0
 10
2513023.148273
 20
1488698.655830
 30
0.0
 10
2508563.037784
 20
1499466.315063
 30
0.0
 10
2500623.990202
 20
1507405.362645
 30
0.0
  0
SPLINE
  5
113
100
AcDbEntity
  8
0
 62
7
100
AcDbSpline
 70
8
 71
3
 72
8
 73
4
 74
0
 40
0
 40
0
 40
0
 40
0
 40
1
 40
1
 40
1
 40
1
 10
2500623.990202
 20
1507405.362645
 30
0.0
 10
2492684.942620
 20
1515344.410227
 30
0.0
 10
2481917.283386
 20
1519804.520717
 30
0.0
 10
2470689.774624
 20
1519804.520717
 30
0.0
  0
LINE
  5
114
100
AcDbEntity
  8
0
 62
7
100
AcDbLine
 10
2470689.774624
 20
1519804.520717
 30
0.0
 11
2470689.774624
 21
1519804.520717
 31
0.0
  0
SPLINE
  5
115
100
AcDbEntity
  8
0
 62
7
100
AcDbSpline
 70
8
 71
3
 72
8
 73
4
 74
0
 40
0
 40
0
 40
0
 40
0
 40
1
 40
1
 40
1
 40
1
 10
5499609.093520
 20
4860583.207715
 30
0.0
 10
5499609.093520
 20
4954382.844376
 30
0.0
 10
5423086.942662
 20
5030422.680986
 30
0.0
 10
5328691.599584
 20
5030423.419566
 30
0.0
  0
LINE
  5
116
100
AcDbEntity
  8
0
 62
7
100
AcDbLine
 10
2294882.193961
 20
4860583.207715
 30
0.0
 11
2294882.193961
 21
1485008.863439
 31
0.0
  0
LINE
  5
117
100
AcDbEntity
  8
0
 62
7
100
AcDbLine
 10
5499610.439338
 20
1485008.863439
 30
0.0
 11
5499610.439338
 21
4860583.207715
 31
0.0
  0
SPLINE
  5
118
100
AcDbEntity
  8
0
 62
7
100
AcDbSpline
 70
8
 71
3
 72
8
 73
4
 74
0
 40
0
 40
0
 40
0
 40
0
 40
1
 40
1
 40
1
 40
1
 10
2294882.193961
 20
1485008.863439
 30
0.0
 10
2294882.937223
 20
1391209.010456
 30
0.0
 10
2371405.472930
 20
1315169.390161
 30
0.0
 10
2465801.033714
 20
1315168.651588
 30
0.0
  0
LINE
  5
119
100
AcDbEntity
  8
0
 62
7
100
AcDbLine
 10
5328691.599584
 20
5030423.419566
 30
0.0
 11
2465801.033714
 21
5030423.419566
 31
0.0
  0
SPLINE
  5
11a
100
AcDbEntity
  8
0
 62
7
100
AcDbSpline
 70
8
 71
3
 72
8
 73
4
 74
0
 40
0
 40
0
 40
0
 40
0
 40
1
 40
1
 40
1
 40
1
 10
5328691.599584
 20
1315168.651588
 30
0.0
 10
5374022.094311
 20
1315168.651588
 30
0.0
 10
5417495.969991
 20
1333062.479676
 30
0.0
 10
5449549.470207
 20
1364913.697921
 30
0.0
  0
SPLINE
  5
11b
100
AcDbEntity
  8
0
 62
7
100
AcDbSpline
 70
8
 71
3
 72
8
 73
4
 74
0
 40
0
 40
0
 40
0
 40
0
 40
1
 40
1
 40
1
 40
1
 10
5449549.470207
 20
1364913.697921
 30
0.0
 10
5481602.970422
 20
1396764.916167
 30
0.0
 10
5499610.439338
 20
1439964.438619
 30
0.0
 10
5499610.439338
 20
1485008.863439
 30
0.0
  0
LINE
  5
11c
100
AcDbEntity
  8
0
 62
7
100
AcDbLine
 10
2465801.033714
 20
1315168.651588
 30
0.0
 11
5328691.599584
 21
1315168.651588
 31
0.0
  0
SPLINE
  5
11d
100
AcDbEntity
  8
0
 62
7
100
AcDbSpline
 70
8
 71
3
 72
8
 73
4
 74
0
 40
0
 40
0
 40
0
 40
0
 40
1
 40
1
 40
1
 40
1
 10
2465801.033714
 20
5030424.756890
 30
0.0
 10
2371404.947362
 20
5030424.018310
 30
0.0
 10
2294882.193961
 20
4954383.582960
 30
0.0
 10
2294882.193961
 20
4860583.207720
 30
0.0
  0
SPLINE
  5
11e
100
AcDbEntity
  8
0
 62
7
100
AcDbSpline
 70
8
 71
3
 72
8
 73
4
 74
0
 40
0
 40
0
 40
0
 40
0
 40
1
 40
1
 40
1
 40
1
 10
5290469.800182
 20
4667345.057259
 30
0.0
 10
5290469.800182
 20
4750519.221324
 30
0.0
 10
5224007.132985
 20
4817945.387040
 30
0.0
 10
5142020.855788
 20
4817946.041955
 30
0.0
  0
LINE
  5
11f
100
AcDbEntity
  8
0
 62
7
100
AcDbLine
 10
2507031.344839
 20
4667345.057259
 30
0.0
 11
2507031.344839
 21
1674150.367854
 31
0.0
  0
LINE
  5
120
100
AcDbEntity
  8
0
 62
7
100
AcDbLine
 10
5290470.969081
 20
1674150.367854
 30
0.0
 11
5290470.969081
 21
4667345.057259
 31
0.0
  0
SPLINE
  5
121
100
AcDbEntity
  8
0
 62
7
100
AcDbSpline
 70
8
 71
3
 72
8
 73
4
 74
0
 40
0
 40
0
 40
0
 40
0
 40
1
 40
1
 40
1
 40
1
 10
2507031.344839
 20
1674150.367854
 30
0.0
 10
2507031.990393
 20
1590976.011972
 30
0.0
 10
2573494.991848
 20
1523550.038067
 30
0.0
 10
2655481.458132
 20
1523549.383159
 30
0.0
  0
LINE
  5
122
100
AcDbEntity
  8
0
 62
7
100
AcDbLine
 10
5142020.855788
 20
4817946.041955
 30
0.0
 11
2655481.458132
 21
4817946.041955
 31
0.0
  0
SPLINE
  5
123
100
AcDbEntity
  8
0
 62
7
100
AcDbSpline
 70
8
 71
3
 72
8
 73
4
 74
0
 40
0
 40
0
 40
0
 40
0
 40
1
 40
1
 40
1
 40
1
 10
5142020.855788
 20
1523549.383159
 30
0.0
 10
5181392.273752
 20
1523549.383159
 30
0.0
 10
5219151.140938
 20
1539416.227062
 30
0.0
 10
5246990.937565
 20
1567659.390323
 30
0.0
  0
SPLINE
  5
124
100
AcDbEntity
  8
0
 62
7
100
AcDbSpline
 70
8
 71
3
 72
8
 73
4
 74
0
 40
0
 40
0
 40
0
 40
0
 40
1
 40
1
 40
1
 40
1
 10
5246990.937565
 20
1567659.390323
 30
0.0
 10
5274830.734192
 20
1595902.553583
 30
0.0
 10
5290470.969081
 20
1634208.503327
 30
0.0
 10
5290470.969081
 20
1674150.367854
 30
0.0
  0
LINE
  5
125
100
AcDbEntity
  8
0
 62
7
100
AcDbLine
 10
2655481.458132
 20
1523549.383159
 30
0.0
 11
5142020.855788
 21
1523549.383159
 31
0.0
  0
SPLINE
  5
126
100
AcDbEntity
  8
0
 62
7
100
AcDbSpline
 70
8
 71
3
 72
8
 73
4
 74
0
 40
0
 40
0
 40
0
 40
0
 40
1
 40
1
 40
1
 40
1
 10
2655481.458132
 20
4817947.227789
 30
0.0
 10
2573494.535371
 20
4817946.572875
 30
0.0
 10
2507031.344839
 20
4750519.876242
 30
0.0
 10
2507031.344839
 20
4667345.057264
 30
0.0
  0
SPLINE
  5
127
100
AcDbEntity
  8
0
 62
7
100
AcDbSpline
 70
8
 71
3
 72
8
 73
4
 74
0
 40
0
 40
0
 40
0
 40
0
 40
1
 40
1
 40
1
 40
1
 10
5326869.366368
 20
1519804.520717
 30
0.0
 10
5309747.115032
 20
1519804.520717
 30
0.0
 10
5294310.830823
 20
1509490.325359
 30
0.0
 10
5287758.428911
 20
1493671.427799
 30
0.0
  0
SPLINE
  5
128
100
AcDbEntity
  8
0
 62
7
100
AcDbSpline
 70
8
 71
3
 72
8
 73
4
 74
0
 40
0
 40
0
 40
0
 40
0
 40
1
 40
1
 40
1
 40
1
 10
5287758.428911
 20
1493671.427799
 30
0.0
 10
5281206.027000
 20
1477852.530238
 30
0.0
 10
5284827.890761
 20
1459644.191518
 30
0.0
 10
5296935.150790
 20
1447536.931489
 30
0.0
  0
SPLINE
  5
129
100
AcDbEntity
  8
0
 62
7
100
AcDbSpline
 70
8
 71
3
 72
8
 73
4
 74
0
 40
0
 40
0
 40
0
 40
0
 40
1
 40
1
 40
1
 40
1
 10
5296935.150790
 20
1447536.931489
 30
0.0
 10
5309042.410820
 20
1435429.671460
 30
0.0
 10
5327250.749540
 20
1431807.807699
 30
0.0
 10
5343069.647100
 20
1438360.209610
 30
0.0
  0
SPLINE
  5
12a
100
AcDbEntity
  8
0
 62
7
100
AcDbSpline
 70
8
 71
3
 72
8
 73
4
 74
0
 40
0
 40
0
 40
0
 40
0
 40
1
 40
1
 40
1
 40
1
 10
5343069.647100
 20
1438360.209610
 30
0.0
 10
5358888.544661
 20
1444912.611522
 30
0.0
 10
5369202.740018
 20
1460348.895731
 30
0.0
 10
5369202.740018
 20
1477471.147067
 30
0.0
  0
SPLINE
  5
12b
100
AcDbEntity
  8
0
 62
7
100
AcDbSpline
 70
8
 71
3
 72
8
 73
4
 74
0
 40
0
 40
0
 40
0
 40
0
 40
1
 40
1
 40
1
 40
1
 10
5369202.740018
 20
1477471.147067
 30
0.0
 10
5369202.740018
 20
1488698.655830
 30
0.0
 10
5364742.629528
 20
1499466.315063
 30
0.0
 10
5356803.581946
 20
1507405.362645
 30
0.0
  0
SPLINE
  5
12c
100
AcDbEntity
  8
0
 62
7
100
AcDbSpline
 70
8
 71
3
 72
8
 73
4
 74
0
 40
0
 40
0
 40
0
 40
0
 40
1
 40
1
 40
1
 40
1
 10
5356803.581946
 20
1507405.362645
 30
0.0
 10
5348864.534365
 20
1515344.410227
 30
0.0
 10
5338096.875131
 20
1519804.520717
 30
0.0
 10
5326869.366368
 20
1519804.520717
 30
0.0
  0
LINE
  5
12d
100
AcDbEntity
  8
0
 62
7
100
AcDbLine
 10
5326869.366368
 20
1519804.520717
 30
0.0
 11
5326869.366368
 21
1519804.520717
 31
0.0
  0
ENDSEC
  0
SECTION
  2
OBJECTS
  0
DICTIONARY
  5
C
330
0
100
AcDbDictionary
  3
ACAD_GROUP
350
D
  3
ACAD_MLINESTYLE
350
17
  0
DICTIONARY
  5
D
330
C
100
AcDbDictionary
  0
DICTIONARY
  5
1A
330
C
100
AcDbDictionary
  0
DICTIONARY
  5
17
330
C
100
AcDbDictionary
  3
STANDARD
350
18
  0
DICTIONARY
  5
19
330
C
100
AcDbDictionary
  0
ENDSEC
  0
EOF
