  0
SECTION
  2
HEADER
  9
$ACADVER
  1
AC1014
  9
$HANDSEED
  5
FFFF
  9
$MEASUREMENT
 70
     1
  0
ENDSEC
  0
SECTION
  2
TABLES
  0
TABLE
  2
VPORT
  5
8
330
0
100
AcDbSymbolTable
 70
     4
  0
VPORT
  5
2E
330
8
100
AcDbSymbolTableRecord
100
AcDbViewportTableRecord
  2
*ACTIVE
 70
     0
 10
0.0
 20
0.0
 11
1.0
 21
1.0
 12
210.0
 22
148.5
 13
0.0
 23
0.0
 14
10.0
 24
10.0
 15
10.0
 25
10.0
 16
0.0
 26
0.0
 36
1.0
 17
0.0
 27
0.0
 37
0.0
 40
341.0
 41
1.24
 42
50.0
 43
0.0
 44
0.0
 50
0.0
 51
0.0
 71
     0
 72
   100
 73
     1
 74
     3
 75
     0
 76
     0
 77
     0
 78
     0
  0
ENDTAB
  0
TABLE
  2
LTYPE
  5
5
330
0
100
AcDbSymbolTable
 70
     1
  0
LTYPE
  5
14
330
5
100
AcDbSymbolTableRecord
100
AcDbLinetypeTableRecord
  2
BYBLOCK
 70
     0
  3

 72
    65
 73
     0
 40
0.0
  0
LTYPE
  5
15
330
5
100
AcDbSymbolTableRecord
100
AcDbLinetypeTableRecord
  2
BYLAYER
 70
     0
  3

 72
    65
 73
     0
 40
0.0
  0
LTYPE
  5
16
330
5
100
AcDbSymbolTableRecord
100
AcDbLinetypeTableRecord
  2
CONTINUOUS
 70
     0
  3
Solid line
 72
    65
 73
     0
 40
0.0
  0
ENDTAB
  0
TABLE
  2
LAYER
  5
2
100
AcDbSymbolTable
 70
1
  0
LAYER
  5
50
100
AcDbSymbolTableRecord
100
AcDbLayerTableRecord
  2
0
 70
0
  6
CONTINUOUS
  0
ENDTAB
  0
TABLE
  2
STYLE
  5
3
330
0
100
AcDbSymbolTable
 70
     1
  0
STYLE
  5
11
330
3
100
AcDbSymbolTableRecord
100
AcDbTextStyleTableRecord
  2
STANDARD
 70
     0
 40
0.0
 41
1.0
 50
0.0
 71
     0
 42
2.5
  3
txt
  4

  0
ENDTAB
  0
TABLE
  2
VIEW
  5
6
330
0
100
AcDbSymbolTable
 70
     0
  0
ENDTAB
  0
TABLE
  2
UCS
  5
7
330
0
100
AcDbSymbolTable
 70
     0
  0
ENDTAB
  0
TABLE
  2
APPID
  5
9
330
0
100
AcDbSymbolTable
 70
     2
  0
APPID
  5
12
330
9
100
AcDbSymbolTableRecord
100
AcDbRegAppTableRecord
  2
ACAD
 70
     0
  0
ENDTAB
  0
TABLE
  2
DIMSTYLE
  5
A
330
0
100
AcDbSymbolTable
 70
     1
  0
DIMSTYLE
105
27
330
A
100
AcDbSymbolTableRecord
100
AcDbDimStyleTableRecord
  2
ISO-25
 70
     0
  3

  4

  5

  6

  7

 40
1.0
 41
2.5
 42
0.625
 43
3.75
 44
1.25
 45
0.0
 46
0.0
 47
0.0
 48
0.0
140
2.5
141
2.5
142
0.0
143
0.03937007874016
144
1.0
145
0.0
146
1.0
147
0.625
 71
     0
 72
     0
 73
     0
 74
     0
 75
     0
 76
     0
 77
     1
 78
     8
170
     0
171
     3
172
     1
173
     0
174
     0
175
     0
176
     0
177
     0
178
     0
270
     2
271
     2
272
     2
273
     2
274
     3
340
11
275
     0
280
     0
281
     0
282
     0
283
     0
284
     8
285
     0
286
     0
287
     3
288
     0
  0
ENDTAB
  0
TABLE
  2
BLOCK_RECORD
  5
1
330
0
100
AcDbSymbolTable
 70
     1
  0
BLOCK_RECORD
  5
1F
330
1
100
AcDbSymbolTableRecord
100
AcDbBlockTableRecord
  2
*MODEL_SPACE
  0
BLOCK_RECORD
  5
1B
330
1
100
AcDbSymbolTableRecord
100
AcDbBlockTableRecord
  2
*PAPER_SPACE
  0
ENDTAB
  0
ENDSEC
  0
SECTION
  2
BLOCKS
  0
BLOCK
  5
20
330
1F
100
AcDbEntity
  8
0
100
AcDbBlockBegin
  2
*MODEL_SPACE
 70
     0
 10
0.0
 20
0.0
 30
0.0
  3
*MODEL_SPACE
  1

  0
ENDBLK
  5
21
330
1F
100
AcDbEntity
  8
0
100
AcDbBlockEnd
  0
BLOCK
  5
1C
330
1B
100
AcDbEntity
 67
     1
  8
0
100
AcDbBlockBegin
  2
*PAPER_SPACE
  1

  0
ENDBLK
  5
1D
330
1B
100
AcDbEntity
 67
     1
  8
0
100
AcDbBlockEnd
  0
ENDSEC
  0
SECTION
  2
ENTITIES
  0
SPLINE
  5
100
100
AcDbEntity
  8
0
 62
7
100
AcDbSpline
 70
8
 71
3
 72
8
 73
4
 74
0
 40
0
 40
0
 40
0
 40
0
 40
1
 40
1
 40
1
 40
1
 10
2471603.540494
 20
4901619.303882
 30
0.0
 10
2454481.289157
 20
4901619.303882
 30
0.0
 10
2439045.004949
 20
4891305.108525
 30
0.0
 10
2432492.603037
 20
4875486.210964
 30
0.0
  0
SPLINE
  5
101
100
AcDbEntity
  8
0
 62
7
100
AcDbSpline
 70
8
 71
3
 72
8
 73
4
 74
0
 40
0
 40
0
 40
0
 40
0
 40
1
 40
1
 40
1
 40
1
 10
2432492.603037
 20
4875486.210964
 30
0.0
 10
2425940.201126
 20
4859667.313404
 30
0.0
 10
2429562.064887
 20
4841458.974684
 30
0.0
 10
2441669.324916
 20
4829351.714655
 30
0.0
  0
SPLINE
  5
102
100
AcDbEntity
  8
0
 62
7
100
AcDbSpline
 70
8
 71
3
 72
8
 73
4
 74
0
 40
0
 40
0
 40
0
 40
0
 40
1
 40
1
 40
1
 40
1
 10
2441669.324916
 20
4829351.714655
 30
0.0
 10
2453776.584945
 20
4817244.454625
 30
0.0
 10
2471984.923665
 20
4813622.590864
 30
0.0
 10
2487803.821226
 20
4820174.992776
 30
0.0
  0
SPLINE
  5
103
100
AcDbEntity
  8
0
 62
7
100
AcDbSpline
 70
8
 71
3
 72
8
 73
4
 74
0
 40
0
 40
0
 40
0
 40
0
 40
1
 40
1
 40
1
 40
1
 10
2487803.821226
 20
4820174.992776
 30
0.0
 10
2503622.718786
 20
4826727.394687
 30
0.0
 10
2513936.914144
 20
4842163.678896
 30
0.0
 10
2513936.914144
 20
4859285.930233
 30
0.0
  0
SPLINE
  5
104
100
AcDbEntity
  8
0
 62
7
100
AcDbSpline
 70
8
 71
3
 72
8
 73
4
 74
0
 40
0
 40
0
 40
0
 40
0
 40
1
 40
1
 40
1
 40
1
 10
2513936.914144
 20
4859285.930233
 30
0.0
 10
2513936.914144
 20
4870513.438995
 30
0.0
 10
2509476.803654
 20
4881281.098229
 30
0.0
 10
2501537.756072
 20
4889220.145811
 30
0.0
  0
SPLINE
  5
105
100
AcDbEntity
  8
0
 62
7
100
AcDbSpline
 70
8
 71
3
 72
8
 73
4
 74
0
 40
0
 40
0
 40
0
 40
0
 40
1
 40
1
 40
1
 40
1
 10
2501537.756072
 20
4889220.145811
 30
0.0
 10
2493598.708490
 20
4897159.193392
 30
0.0
 10
2482831.049256
 20
4901619.303882
 30
0.0
 10
2471603.540494
 20
4901619.303882
 30
0.0
  0
LINE
  5
106
100
AcDbEntity
  8
0
 62
7
100
AcDbLine
 10
2471603.540494
 20
4901619.303882
 30
0.0
 11
2471603.540494
 21
4901619.303882
 31
0.0
  0
SPLINE
  5
107
100
AcDbEntity
  8
0
 62
7
100
AcDbSpline
 70
8
 71
3
 72
8
 73
4
 74
0
 40
0
 40
0
 40
0
 40
0
 40
1
 40
1
 40
1
 40
1
 10
5327783.343905
 20
4901619.303882
 30
0.0
 10
5310661.092569
 20
4901619.303882
 30
0.0
 10
5295224.808360
 20
4891305.108525
 30
0.0
 10
5288672.406449
 20
4875486.210964
 30
0.0
  0
SPLINE
  5
108
100
AcDbEntity
  8
0
 62
7
100
AcDbSpline
 70
8
 71
3
 72
8
 73
4
 74
0
 40
0
 40
0
 40
0
 40
0
 40
1
 40
1
 40
1
 40
1
 10
5288672.406449
 20
4875486.210964
 30
0.0
 10
5282120.004537
 20
4859667.313404
 30
0.0
 10
5285741.868298
 20
4841458.974684
 30
0.0
 10
5297849.128327
 20
4829351.714655
 30
0.0
  0
SPLINE
  5
109
100
AcDbEntity
  8
0
 62
7
100
AcDbSpline
 70
8
 71
3
 72
8
 73
4
 74
0
 40
0
 40
0
 40
0
 40
0
 40
1
 40
1
 40
1
 40
1
 10
5297849.128327
 20
4829351.714655
 30
0.0
 10
5309956.388357
 20
4817244.454625
 30
0.0
 10
5328164.727077
 20
4813622.590864
 30
0.0
 10
5343983.624637
 20
4820174.992776
 30
0.0
  0
SPLINE
  5
10a
100
AcDbEntity
  8
0
 62
7
100
AcDbSpline
 70
8
 71
3
 72
8
 73
4
 74
0
 40
0
 40
0
 40
0
 40
0
 40
1
 40
1
 40
1
 40
1
 10
5343983.624637
 20
4820174.992776
 30
0.0
 10
5359802.522198
 20
4826727.394687
 30
0.0
 10
5370116.717555
 20
4842163.678896
 30
0.0
 10
5370116.717555
 20
4859285.930233
 30
0.0
  0
SPLINE
  5
10b
100
AcDbEntity
  8
0
 62
7
100
AcDbSpline
 70
8
 71
3
 72
8
 73
4
 74
0
 40
0
 40
0
 40
0
 40
0
 40
1
 40
1
 40
1
 40
1
 10
5370116.717555
 20
4859285.930233
 30
0.0
 10
5370116.717555
 20
4870513.438995
 30
0.0
 10
5365656.607065
 20
4881281.098229
 30
0.0
 10
5357717.559483
 20
4889220.145811
 30
0.0
  0
SPLINE
  5
10c
100
AcDbEntity
  8
0
 62
7
100
AcDbSpline
 70
8
 71
3
 72
8
 73
4
 74
0
 40
0
 40
0
 40
0
 40
0
 40
1
 40
1
 40
1
 40
1
 10
5357717.559483
 20
4889220.145811
 30
0.0
 10
5349778.511902
 20
4897159.193392
 30
0.0
 10
5339010.852668
 20
4901619.303882
 30
0.0
 10
5327783.343905
 20
4901619.303882
 30
0.0
  0
LINE
  5
10d
100
AcDbEntity
  8
0
 62
7
100
AcDbLine
 10
5327783.343905
 20
4901619.303882
 30
0.0
 11
5327783.343905
 21
4901619.303882
 31
0.0
  0
SPLINE
  5
10e
100
AcDbEntity
  8
0
 62
7
100
AcDbSpline
 70
8
 71
3
 72
8
 73
4
 74
0
 40
0
 40
0
 40
0
 40
0
 40
1
 40
1
 40
1
 40
1
 10
2471603.540494
 20
1520406.501290
 30
0.0
 10
2454481.289157
 20
1520406.501290
 30
0.0
 10
2439045.004949
 20
1510092.305933
 30
0.0
 10
2432492.603037
 20
1494273.408372
 30
0.0
  0
SPLINE
  5
10f
100
AcDbEntity
  8
0
 62
7
100
AcDbSpline
 70
8
 71
3
 72
8
 73
4
 74
0
 40
0
 40
0
 40
0
 40
0
 40
1
 40
1
 40
1
 40
1
 10
2432492.603037
 20
1494273.408372
 30
0.0
 10
2425940.201126
 20
1478454.510812
 30
0.0
 10
2429562.064887
 20
1460246.172092
 30
0.0
 10
2441669.324916
 20
1448138.912062
 30
0.0
  0
SPLINE
  5
110
100
AcDbEntity
  8
0
 62
7
100
AcDbSpline
 70
8
 71
3
 72
8
 73
4
 74
0
 40
0
 40
0
 40
0
 40
0
 40
1
 40
1
 40
1
 40
1
 10
2441669.324916
 20
1448138.912062
 30
0.0
 10
2453776.584945
 20
1436031.652033
 30
0.0
 10
2471984.923665
 20
1432409.788272
 30
0.0
 10
2487803.821226
 20
1438962.190184
 30
0.0
  0
SPLINE
  5
111
100
AcDbEntity
  8
0
 62
7
100
AcDbSpline
 70
8
 71
3
 72
8
 73
4
 74
0
 40
0
 40
0
 40
0
 40
0
 40
1
 40
1
 40
1
 40
1
 10
2487803.821226
 20
1438962.190184
 30
0.0
 10
2503622.718786
 20
1445514.592095
 30
0.0
 10
2513936.914144
 20
1460950.876304
 30
0.0
 10
2513936.914144
 20
1478073.127640
 30
0.0
  0
SPLINE
  5
112
100
AcDbEntity
  8
0
 62
7
100
AcDbSpline
 70
8
 71
3
 72
8
 73
4
 74
0
 40
0
 40
0
 40
0
 40
0
 40
1
 40
1
 40
1
 40
1
 10
2513936.914144
 20
1478073.127640
 30
0.0
 10
2513936.914144
 20
1489300.636403
 30
0.0
 10
2509476.803654
 20
1500068.295637
 30
0.0
 10
2501537.756072
 20
1508007.343218
 30
0.0
  0
SPLINE
  5
113
100
AcDbEntity
  8
0
 62
7
100
AcDbSpline
 70
8
 71
3
 72
8
 73
4
 74
0
 40
0
 40
0
 40
0
 40
0
 40
1
 40
1
 40
1
 40
1
 10
2501537.756072
 20
1508007.343218
 30
0.0
 10
2493598.708490
 20
1515946.390800
 30
0.0
 10
2482831.049256
 20
1520406.501290
 30
0.0
 10
2471603.540494
 20
1520406.501290
 30
0.0
  0
LINE
  5
114
100
AcDbEntity
  8
0
 62
7
100
AcDbLine
 10
2471603.540494
 20
1520406.501290
 30
0.0
 11
2471603.540494
 21
1520406.501290
 31
0.0
  0
SPLINE
  5
115
100
AcDbEntity
  8
0
 62
7
100
AcDbSpline
 70
8
 71
3
 72
8
 73
4
 74
0
 40
0
 40
0
 40
0
 40
0
 40
1
 40
1
 40
1
 40
1
 10
5327783.343905
 20
1520406.501290
 30
0.0
 10
5310661.092569
 20
1520406.501290
 30
0.0
 10
5295224.808360
 20
1510092.305933
 30
0.0
 10
5288672.406449
 20
1494273.408372
 30
0.0
  0
SPLINE
  5
116
100
AcDbEntity
  8
0
 62
7
100
AcDbSpline
 70
8
 71
3
 72
8
 73
4
 74
0
 40
0
 40
0
 40
0
 40
0
 40
1
 40
1
 40
1
 40
1
 10
5288672.406449
 20
1494273.408372
 30
0.0
 10
5282120.004537
 20
1478454.510812
 30
0.0
 10
5285741.868298
 20
1460246.172092
 30
0.0
 10
5297849.128327
 20
1448138.912062
 30
0.0
  0
SPLINE
  5
117
100
AcDbEntity
  8
0
 62
7
100
AcDbSpline
 70
8
 71
3
 72
8
 73
4
 74
0
 40
0
 40
0
 40
0
 40
0
 40
1
 40
1
 40
1
 40
1
 10
5297849.128327
 20
1448138.912062
 30
0.0
 10
5309956.388357
 20
1436031.652033
 30
0.0
 10
5328164.727077
 20
1432409.788272
 30
0.0
 10
5343983.624637
 20
1438962.190184
 30
0.0
  0
SPLINE
  5
118
100
AcDbEntity
  8
0
 62
7
100
AcDbSpline
 70
8
 71
3
 72
8
 73
4
 74
0
 40
0
 40
0
 40
0
 40
0
 40
1
 40
1
 40
1
 40
1
 10
5343983.624637
 20
1438962.190184
 30
0.0
 10
5359802.522198
 20
1445514.592095
 30
0.0
 10
5370116.717555
 20
1460950.876304
 30
0.0
 10
5370116.717555
 20
1478073.127640
 30
0.0
  0
SPLINE
  5
119
100
AcDbEntity
  8
0
 62
7
100
AcDbSpline
 70
8
 71
3
 72
8
 73
4
 74
0
 40
0
 40
0
 40
0
 40
0
 40
1
 40
1
 40
1
 40
1
 10
5370116.717555
 20
1478073.127640
 30
0.0
 10
5370116.717555
 20
1489300.636403
 30
0.0
 10
5365656.607065
 20
1500068.295637
 30
0.0
 10
5357717.559483
 20
1508007.343218
 30
0.0
  0
SPLINE
  5
11a
100
AcDbEntity
  8
0
 62
7
100
AcDbSpline
 70
8
 71
3
 72
8
 73
4
 74
0
 40
0
 40
0
 40
0
 40
0
 40
1
 40
1
 40
1
 40
1
 10
5357717.559483
 20
1508007.343218
 30
0.0
 10
5349778.511902
 20
1515946.390800
 30
0.0
 10
5339010.852668
 20
1520406.501290
 30
0.0
 10
5327783.343905
 20
1520406.501290
 30
0.0
  0
LINE
  5
11b
100
AcDbEntity
  8
0
 62
7
100
AcDbLine
 10
5327783.343905
 20
1520406.501290
 30
0.0
 11
5327783.343905
 21
1520406.501290
 31
0.0
  0
SPLINE
  5
11c
100
AcDbEntity
  8
0
 62
1
100
AcDbSpline
 70
8
 71
3
 72
8
 73
4
 74
0
 40
0
 40
0
 40
0
 40
0
 40
1
 40
1
 40
1
 40
1
 10
2471891.407435
 20
4901853.672022
 30
0.0
 10
2454769.156098
 20
4901853.672022
 30
0.0
 10
2439332.871889
 20
4891539.476665
 30
0.0
 10
2432780.469978
 20
4875720.579104
 30
0.0
  0
SPLINE
  5
11d
100
AcDbEntity
  8
0
 62
1
100
AcDbSpline
 70
8
 71
3
 72
8
 73
4
 74
0
 40
0
 40
0
 40
0
 40
0
 40
1
 40
1
 40
1
 40
1
 10
2432780.469978
 20
4875720.579104
 30
0.0
 10
2426228.068067
 20
4859901.681544
 30
0.0
 10
2429849.931828
 20
4841693.342824
 30
0.0
 10
2441957.191857
 20
4829586.082795
 30
0.0
  0
SPLINE
  5
11e
100
AcDbEntity
  8
0
 62
1
100
AcDbSpline
 70
8
 71
3
 72
8
 73
4
 74
0
 40
0
 40
0
 40
0
 40
0
 40
1
 40
1
 40
1
 40
1
 10
2441957.191857
 20
4829586.082795
 30
0.0
 10
2454064.451886
 20
4817478.822765
 30
0.0
 10
2472272.790606
 20
4813856.959004
 30
0.0
 10
2488091.688167
 20
4820409.360916
 30
0.0
  0
SPLINE
  5
11f
100
AcDbEntity
  8
0
 62
1
100
AcDbSpline
 70
8
 71
3
 72
8
 73
4
 74
0
 40
0
 40
0
 40
0
 40
0
 40
1
 40
1
 40
1
 40
1
 10
2488091.688167
 20
4820409.360916
 30
0.0
 10
2503910.585727
 20
4826961.762827
 30
0.0
 10
2514224.781084
 20
4842398.047036
 30
0.0
 10
2514224.781084
 20
4859520.298373
 30
0.0
  0
SPLINE
  5
120
100
AcDbEntity
  8
0
 62
1
100
AcDbSpline
 70
8
 71
3
 72
8
 73
4
 74
0
 40
0
 40
0
 40
0
 40
0
 40
1
 40
1
 40
1
 40
1
 10
2514224.781084
 20
4859520.298373
 30
0.0
 10
2514224.781084
 20
4870747.807135
 30
0.0
 10
2509764.670595
 20
4881515.466369
 30
0.0
 10
2501825.623013
 20
4889454.513951
 30
0.0
  0
SPLINE
  5
121
100
AcDbEntity
  8
0
 62
1
100
AcDbSpline
 70
8
 71
3
 72
8
 73
4
 74
0
 40
0
 40
0
 40
0
 40
0
 40
1
 40
1
 40
1
 40
1
 10
2501825.623013
 20
4889454.513951
 30
0.0
 10
2493886.575431
 20
4897393.561532
 30
0.0
 10
2483118.916197
 20
4901853.672022
 30
0.0
 10
2471891.407435
 20
4901853.672022
 30
0.0
  0
LINE
  5
122
100
AcDbEntity
  8
0
 62
1
100
AcDbLine
 10
2471891.407435
 20
4901853.672022
 30
0.0
 11
2471891.407435
 21
4901853.672022
 31
0.0
  0
SPLINE
  5
123
100
AcDbEntity
  8
0
 62
1
100
AcDbSpline
 70
8
 71
3
 72
8
 73
4
 74
0
 40
0
 40
0
 40
0
 40
0
 40
1
 40
1
 40
1
 40
1
 10
5328071.210846
 20
4901853.672022
 30
0.0
 10
5310948.959510
 20
4901853.672022
 30
0.0
 10
5295512.675301
 20
4891539.476665
 30
0.0
 10
5288960.273389
 20
4875720.579104
 30
0.0
  0
SPLINE
  5
124
100
AcDbEntity
  8
0
 62
1
100
AcDbSpline
 70
8
 71
3
 72
8
 73
4
 74
0
 40
0
 40
0
 40
0
 40
0
 40
1
 40
1
 40
1
 40
1
 10
5288960.273389
 20
4875720.579104
 30
0.0
 10
5282407.871478
 20
4859901.681544
 30
0.0
 10
5286029.735239
 20
4841693.342824
 30
0.0
 10
5298136.995268
 20
4829586.082795
 30
0.0
  0
SPLINE
  5
125
100
AcDbEntity
  8
0
 62
1
100
AcDbSpline
 70
8
 71
3
 72
8
 73
4
 74
0
 40
0
 40
0
 40
0
 40
0
 40
1
 40
1
 40
1
 40
1
 10
5298136.995268
 20
4829586.082795
 30
0.0
 10
5310244.255298
 20
4817478.822765
 30
0.0
 10
5328452.594018
 20
4813856.959004
 30
0.0
 10
5344271.491578
 20
4820409.360916
 30
0.0
  0
SPLINE
  5
126
100
AcDbEntity
  8
0
 62
1
100
AcDbSpline
 70
8
 71
3
 72
8
 73
4
 74
0
 40
0
 40
0
 40
0
 40
0
 40
1
 40
1
 40
1
 40
1
 10
5344271.491578
 20
4820409.360916
 30
0.0
 10
5360090.389138
 20
4826961.762827
 30
0.0
 10
5370404.584496
 20
4842398.047036
 30
0.0
 10
5370404.584496
 20
4859520.298373
 30
0.0
  0
SPLINE
  5
127
100
AcDbEntity
  8
0
 62
1
100
AcDbSpline
 70
8
 71
3
 72
8
 73
4
 74
0
 40
0
 40
0
 40
0
 40
0
 40
1
 40
1
 40
1
 40
1
 10
5370404.584496
 20
4859520.298373
 30
0.0
 10
5370404.584496
 20
4870747.807135
 30
0.0
 10
5365944.474006
 20
4881515.466369
 30
0.0
 10
5358005.426424
 20
4889454.513951
 30
0.0
  0
SPLINE
  5
128
100
AcDbEntity
  8
0
 62
1
100
AcDbSpline
 70
8
 71
3
 72
8
 73
4
 74
0
 40
0
 40
0
 40
0
 40
0
 40
1
 40
1
 40
1
 40
1
 10
5358005.426424
 20
4889454.513951
 30
0.0
 10
5350066.378843
 20
4897393.561532
 30
0.0
 10
5339298.719609
 20
4901853.672022
 30
0.0
 10
5328071.210846
 20
4901853.672022
 30
0.0
  0
LINE
  5
129
100
AcDbEntity
  8
0
 62
1
100
AcDbLine
 10
5328071.210846
 20
4901853.672022
 30
0.0
 11
5328071.210846
 21
4901853.672022
 31
0.0
  0
SPLINE
  5
12a
100
AcDbEntity
  8
0
 62
1
100
AcDbSpline
 70
8
 71
3
 72
8
 73
4
 74
0
 40
0
 40
0
 40
0
 40
0
 40
1
 40
1
 40
1
 40
1
 10
2471891.407435
 20
1520641.028180
 30
0.0
 10
2454769.156098
 20
1520641.028180
 30
0.0
 10
2439332.871889
 20
1510326.832823
 30
0.0
 10
2432780.469978
 20
1494507.935262
 30
0.0
  0
SPLINE
  5
12b
100
AcDbEntity
  8
0
 62
1
100
AcDbSpline
 70
8
 71
3
 72
8
 73
4
 74
0
 40
0
 40
0
 40
0
 40
0
 40
1
 40
1
 40
1
 40
1
 10
2432780.469978
 20
1494507.935262
 30
0.0
 10
2426228.068067
 20
1478689.037702
 30
0.0
 10
2429849.931828
 20
1460480.698982
 30
0.0
 10
2441957.191857
 20
1448373.438952
 30
0.0
  0
SPLINE
  5
12c
100
AcDbEntity
  8
0
 62
1
100
AcDbSpline
 70
8
 71
3
 72
8
 73
4
 74
0
 40
0
 40
0
 40
0
 40
0
 40
1
 40
1
 40
1
 40
1
 10
2441957.191857
 20
1448373.438952
 30
0.0
 10
2454064.451886
 20
1436266.178923
 30
0.0
 10
2472272.790606
 20
1432644.315162
 30
0.0
 10
2488091.688167
 20
1439196.717074
 30
0.0
  0
SPLINE
  5
12d
100
AcDbEntity
  8
0
 62
1
100
AcDbSpline
 70
8
 71
3
 72
8
 73
4
 74
0
 40
0
 40
0
 40
0
 40
0
 40
1
 40
1
 40
1
 40
1
 10
2488091.688167
 20
1439196.717074
 30
0.0
 10
2503910.585727
 20
1445749.118985
 30
0.0
 10
2514224.781084
 20
1461185.403194
 30
0.0
 10
2514224.781084
 20
1478307.654530
 30
0.0
  0
SPLINE
  5
12e
100
AcDbEntity
  8
0
 62
1
100
AcDbSpline
 70
8
 71
3
 72
8
 73
4
 74
0
 40
0
 40
0
 40
0
 40
0
 40
1
 40
1
 40
1
 40
1
 10
2514224.781084
 20
1478307.654530
 30
0.0
 10
2514224.781084
 20
1489535.163293
 30
0.0
 10
2509764.670595
 20
1500302.822527
 30
0.0
 10
2501825.623013
 20
1508241.870108
 30
0.0
  0
SPLINE
  5
12f
100
AcDbEntity
  8
0
 62
1
100
AcDbSpline
 70
8
 71
3
 72
8
 73
4
 74
0
 40
0
 40
0
 40
0
 40
0
 40
1
 40
1
 40
1
 40
1
 10
2501825.623013
 20
1508241.870108
 30
0.0
 10
2493886.575431
 20
1516180.917690
 30
0.0
 10
2483118.916197
 20
1520641.028180
 30
0.0
 10
2471891.407435
 20
1520641.028180
 30
0.0
  0
LINE
  5
130
100
AcDbEntity
  8
0
 62
1
100
AcDbLine
 10
2471891.407435
 20
1520641.028180
 30
0.0
 11
2471891.407435
 21
1520641.028180
 31
0.0
  0
SPLINE
  5
131
100
AcDbEntity
  8
0
 62
1
100
AcDbSpline
 70
8
 71
3
 72
8
 73
4
 74
0
 40
0
 40
0
 40
0
 40
0
 40
1
 40
1
 40
1
 40
1
 10
5469559.425676
 20
4840013.005934
 30
0.0
 10
5469559.425676
 20
4932689.058625
 30
0.0
 10
5394507.000178
 20
5007818.047980
 30
0.0
 10
5301924.664550
 20
5007818.777713
 30
0.0
  0
LINE
  5
132
100
AcDbEntity
  8
0
 62
1
100
AcDbLine
 10
2326384.225098
 20
4840013.005934
 30
0.0
 11
2326384.225098
 21
4595240.355402
 31
0.0
  0
LINE
  5
133
100
AcDbEntity
  8
0
 62
1
100
AcDbLine
 10
2326384.225098
 20
4435511.300041
 30
0.0
 11
2326384.225098
 21
1504873.159710
 31
0.0
  0
LINE
  5
134
100
AcDbEntity
  8
0
 62
1
100
AcDbLine
 10
5469560.745645
 20
1504873.159710
 30
0.0
 11
5469560.745645
 21
4840013.005934
 31
0.0
  0
SPLINE
  5
135
100
AcDbEntity
  8
0
 62
1
100
AcDbSpline
 70
8
 71
3
 72
8
 73
4
 74
0
 40
0
 40
0
 40
0
 40
0
 40
1
 40
1
 40
1
 40
1
 10
2326384.225098
 20
1504873.159710
 30
0.0
 10
2326384.954084
 20
1412196.893289
 30
0.0
 10
2401437.757041
 20
1337068.117658
 30
0.0
 10
2494020.306194
 20
1337067.387932
 30
0.0
  0
LINE
  5
136
100
AcDbEntity
  8
0
 62
1
100
AcDbLine
 10
5301924.664550
 20
5007818.777713
 30
0.0
 11
2494020.306194
 21
5007818.777713
 31
0.0
  0
SPLINE
  5
137
100
AcDbEntity
  8
0
 62
1
100
AcDbSpline
 70
8
 71
3
 72
8
 73
4
 74
0
 40
0
 40
0
 40
0
 40
0
 40
1
 40
1
 40
1
 40
1
 10
5301924.664550
 20
1337067.387932
 30
0.0
 10
5346384.517548
 20
1337067.387932
 30
0.0
 10
5389023.410718
 20
1354746.873842
 30
0.0
 10
5420461.274264
 20
1386216.560564
 30
0.0
  0
SPLINE
  5
138
100
AcDbEntity
  8
0
 62
1
100
AcDbSpline
 70
8
 71
3
 72
8
 73
4
 74
0
 40
0
 40
0
 40
0
 40
0
 40
1
 40
1
 40
1
 40
1
 10
5420461.274264
 20
1386216.560564
 30
0.0
 10
5451899.137810
 20
1417686.247286
 30
0.0
 10
5469560.745645
 20
1460368.301944
 30
0.0
 10
5469560.745645
 20
1504873.159710
 30
0.0
  0
LINE
  5
139
100
AcDbEntity
  8
0
 62
1
100
AcDbLine
 10
2494020.306194
 20
1337067.387932
 30
0.0
 11
5301924.664550
 21
1337067.387932
 31
0.0
  0
SPLINE
  5
13a
100
AcDbEntity
  8
0
 62
1
100
AcDbSpline
 70
8
 71
3
 72
8
 73
4
 74
0
 40
0
 40
0
 40
0
 40
0
 40
1
 40
1
 40
1
 40
1
 10
2494020.306194
 20
5007820.099018
 30
0.0
 10
2401437.241567
 20
5007819.369285
 30
0.0
 10
2326384.225098
 20
4932689.788362
 30
0.0
 10
2326384.225098
 20
4840013.005940
 30
0.0
  0
SPLINE
  5
13b
100
AcDbEntity
  8
0
 62
1
100
AcDbSpline
 70
8
 71
3
 72
8
 73
4
 74
0
 40
0
 40
0
 40
0
 40
0
 40
1
 40
1
 40
1
 40
1
 10
5358444.952725
 20
4685962.439486
 30
0.0
 10
5358444.952725
 20
4770417.186785
 30
0.0
 10
5288765.949653
 20
4838881.473152
 30
0.0
 10
5202812.100650
 20
4838882.138150
 30
0.0
  0
LINE
  5
13c
100
AcDbEntity
  8
0
 62
1
100
AcDbLine
 10
2440307.224301
 20
4685962.439486
 30
0.0
 11
2440307.224301
 21
4595240.191292
 31
0.0
  0
LINE
  5
13d
100
AcDbEntity
  8
0
 62
1
100
AcDbLine
 10
2440307.224301
 20
4435511.134978
 30
0.0
 11
2440307.224301
 21
1646683.308129
 31
0.0
  0
LINE
  5
13e
100
AcDbEntity
  8
0
 62
1
100
AcDbLine
 10
5358446.178190
 20
1646683.308129
 30
0.0
 11
5358446.178190
 21
4685962.439486
 31
0.0
  0
SPLINE
  5
13f
100
AcDbEntity
  8
0
 62
1
100
AcDbSpline
 70
8
 71
3
 72
8
 73
4
 74
0
 40
0
 40
0
 40
0
 40
0
 40
1
 40
1
 40
1
 40
1
 10
2440307.224301
 20
1646683.308129
 30
0.0
 10
2440307.901095
 20
1562228.366060
 30
0.0
 10
2509987.254600
 20
1493764.274456
 30
0.0
 10
2595941.301842
 20
1493763.609465
 30
0.0
  0
LINE
  5
140
100
AcDbEntity
  8
0
 62
1
100
AcDbLine
 10
5202812.100650
 20
4838882.138150
 30
0.0
 11
2595941.301842
 21
4838882.138150
 31
0.0
  0
SPLINE
  5
141
100
AcDbEntity
  8
0
 62
1
100
AcDbSpline
 70
8
 71
3
 72
8
 73
4
 74
0
 40
0
 40
0
 40
0
 40
0
 40
1
 40
1
 40
1
 40
1
 10
5202812.100650
 20
1493763.609465
 30
0.0
 10
5244088.824394
 20
1493763.609465
 30
0.0
 10
5283674.960997
 20
1509874.745746
 30
0.0
 10
5312862.012262
 20
1538552.752226
 30
0.0
  0
SPLINE
  5
142
100
AcDbEntity
  8
0
 62
1
100
AcDbSpline
 70
8
 71
3
 72
8
 73
4
 74
0
 40
0
 40
0
 40
0
 40
0
 40
1
 40
1
 40
1
 40
1
 10
5312862.012262
 20
1538552.752226
 30
0.0
 10
5342049.063527
 20
1567230.758707
 30
0.0
 10
5358446.178190
 20
1606126.482422
 30
0.0
 10
5358446.178190
 20
1646683.308129
 30
0.0
  0
LINE
  5
143
100
AcDbEntity
  8
0
 62
1
100
AcDbLine
 10
2595941.301842
 20
1493763.609465
 30
0.0
 11
5202812.100650
 21
1493763.609465
 31
0.0
  0
SPLINE
  5
144
100
AcDbEntity
  8
0
 62
1
100
AcDbSpline
 70
8
 71
3
 72
8
 73
4
 74
0
 40
0
 40
0
 40
0
 40
0
 40
1
 40
1
 40
1
 40
1
 10
2595941.301842
 20
4838883.342242
 30
0.0
 10
2509986.776032
 20
4838882.677244
 30
0.0
 10
2440307.224301
 20
4770417.851787
 30
0.0
 10
2440307.224301
 20
4685962.439491
 30
0.0
  0
SPLINE
  5
145
100
AcDbEntity
  8
0
 62
1
100
AcDbSpline
 70
8
 71
3
 72
8
 73
4
 74
0
 40
0
 40
0
 40
0
 40
0
 40
1
 40
1
 40
1
 40
1
 10
5328071.210846
 20
1520641.028180
 30
0.0
 10
5310948.959510
 20
1520641.028180
 30
0.0
 10
5295512.675301
 20
1510326.832823
 30
0.0
 10
5288960.273389
 20
1494507.935262
 30
0.0
  0
SPLINE
  5
146
100
AcDbEntity
  8
0
 62
1
100
AcDbSpline
 70
8
 71
3
 72
8
 73
4
 74
0
 40
0
 40
0
 40
0
 40
0
 40
1
 40
1
 40
1
 40
1
 10
5288960.273389
 20
1494507.935262
 30
0.0
 10
5282407.871478
 20
1478689.037702
 30
0.0
 10
5286029.735239
 20
1460480.698982
 30
0.0
 10
5298136.995268
 20
1448373.438952
 30
0.0
  0
SPLINE
  5
147
100
AcDbEntity
  8
0
 62
1
100
AcDbSpline
 70
8
 71
3
 72
8
 73
4
 74
0
 40
0
 40
0
 40
0
 40
0
 40
1
 40
1
 40
1
 40
1
 10
5298136.995268
 20
1448373.438952
 30
0.0
 10
5310244.255298
 20
1436266.178923
 30
0.0
 10
5328452.594018
 20
1432644.315162
 30
0.0
 10
5344271.491578
 20
1439196.717074
 30
0.0
  0
SPLINE
  5
148
100
AcDbEntity
  8
0
 62
1
100
AcDbSpline
 70
8
 71
3
 72
8
 73
4
 74
0
 40
0
 40
0
 40
0
 40
0
 40
1
 40
1
 40
1
 40
1
 10
5344271.491578
 20
1439196.717074
 30
0.0
 10
5360090.389138
 20
1445749.118985
 30
0.0
 10
5370404.584496
 20
1461185.403194
 30
0.0
 10
5370404.584496
 20
1478307.654530
 30
0.0
  0
SPLINE
  5
149
100
AcDbEntity
  8
0
 62
1
100
AcDbSpline
 70
8
 71
3
 72
8
 73
4
 74
0
 40
0
 40
0
 40
0
 40
0
 40
1
 40
1
 40
1
 40
1
 10
5370404.584496
 20
1478307.654530
 30
0.0
 10
5370404.584496
 20
1489535.163293
 30
0.0
 10
5365944.474006
 20
1500302.822527
 30
0.0
 10
5358005.426424
 20
1508241.870108
 30
0.0
  0
SPLINE
  5
14a
100
AcDbEntity
  8
0
 62
1
100
AcDbSpline
 70
8
 71
3
 72
8
 73
4
 74
0
 40
0
 40
0
 40
0
 40
0
 40
1
 40
1
 40
1
 40
1
 10
5358005.426424
 20
1508241.870108
 30
0.0
 10
5350066.378843
 20
1516180.917690
 30
0.0
 10
5339298.719609
 20
1520641.028180
 30
0.0
 10
5328071.210846
 20
1520641.028180
 30
0.0
  0
LINE
  5
14b
100
AcDbEntity
  8
0
 62
1
100
AcDbLine
 10
5328071.210846
 20
1520641.028180
 30
0.0
 11
5328071.210846
 21
1520641.028180
 31
0.0
  0
ENDSEC
  0
SECTION
  2
OBJECTS
  0
DICTIONARY
  5
C
330
0
100
AcDbDictionary
  3
ACAD_GROUP
350
D
  3
ACAD_MLINESTYLE
350
17
  0
DICTIONARY
  5
D
330
C
100
AcDbDictionary
  0
DICTIONARY
  5
1A
330
C
100
AcDbDictionary
  0
DICTIONARY
  5
17
330
C
100
AcDbDictionary
  3
STANDARD
350
18
  0
DICTIONARY
  5
19
330
C
100
AcDbDictionary
  0
ENDSEC
  0
EOF
