  0
SECTION
  2
HEADER
  9
$ACADVER
  1
AC1014
  9
$HANDSEED
  5
FFFF
  9
$MEASUREMENT
 70
     1
  0
ENDSEC
  0
SECTION
  2
TABLES
  0
TABLE
  2
VPORT
  5
8
330
0
100
AcDbSymbolTable
 70
     4
  0
VPORT
  5
2E
330
8
100
AcDbSymbolTableRecord
100
AcDbViewportTableRecord
  2
*ACTIVE
 70
     0
 10
0.0
 20
0.0
 11
1.0
 21
1.0
 12
210.0
 22
148.5
 13
0.0
 23
0.0
 14
10.0
 24
10.0
 15
10.0
 25
10.0
 16
0.0
 26
0.0
 36
1.0
 17
0.0
 27
0.0
 37
0.0
 40
341.0
 41
1.24
 42
50.0
 43
0.0
 44
0.0
 50
0.0
 51
0.0
 71
     0
 72
   100
 73
     1
 74
     3
 75
     0
 76
     0
 77
     0
 78
     0
  0
ENDTAB
  0
TABLE
  2
LTYPE
  5
5
330
0
100
AcDbSymbolTable
 70
     1
  0
LTYPE
  5
14
330
5
100
AcDbSymbolTableRecord
100
AcDbLinetypeTableRecord
  2
BYBLOCK
 70
     0
  3

 72
    65
 73
     0
 40
0.0
  0
LTYPE
  5
15
330
5
100
AcDbSymbolTableRecord
100
AcDbLinetypeTableRecord
  2
BYLAYER
 70
     0
  3

 72
    65
 73
     0
 40
0.0
  0
LTYPE
  5
16
330
5
100
AcDbSymbolTableRecord
100
AcDbLinetypeTableRecord
  2
CONTINUOUS
 70
     0
  3
Solid line
 72
    65
 73
     0
 40
0.0
  0
ENDTAB
  0
TABLE
  2
LAYER
  5
2
100
AcDbSymbolTable
 70
1
  0
LAYER
  5
50
100
AcDbSymbolTableRecord
100
AcDbLayerTableRecord
  2
0
 70
0
  6
CONTINUOUS
  0
ENDTAB
  0
TABLE
  2
STYLE
  5
3
330
0
100
AcDbSymbolTable
 70
     1
  0
STYLE
  5
11
330
3
100
AcDbSymbolTableRecord
100
AcDbTextStyleTableRecord
  2
STANDARD
 70
     0
 40
0.0
 41
1.0
 50
0.0
 71
     0
 42
2.5
  3
txt
  4

  0
ENDTAB
  0
TABLE
  2
VIEW
  5
6
330
0
100
AcDbSymbolTable
 70
     0
  0
ENDTAB
  0
TABLE
  2
UCS
  5
7
330
0
100
AcDbSymbolTable
 70
     0
  0
ENDTAB
  0
TABLE
  2
APPID
  5
9
330
0
100
AcDbSymbolTable
 70
     2
  0
APPID
  5
12
330
9
100
AcDbSymbolTableRecord
100
AcDbRegAppTableRecord
  2
ACAD
 70
     0
  0
ENDTAB
  0
TABLE
  2
DIMSTYLE
  5
A
330
0
100
AcDbSymbolTable
 70
     1
  0
DIMSTYLE
105
27
330
A
100
AcDbSymbolTableRecord
100
AcDbDimStyleTableRecord
  2
ISO-25
 70
     0
  3

  4

  5

  6

  7

 40
1.0
 41
2.5
 42
0.625
 43
3.75
 44
1.25
 45
0.0
 46
0.0
 47
0.0
 48
0.0
140
2.5
141
2.5
142
0.0
143
0.03937007874016
144
1.0
145
0.0
146
1.0
147
0.625
 71
     0
 72
     0
 73
     0
 74
     0
 75
     0
 76
     0
 77
     1
 78
     8
170
     0
171
     3
172
     1
173
     0
174
     0
175
     0
176
     0
177
     0
178
     0
270
     2
271
     2
272
     2
273
     2
274
     3
340
11
275
     0
280
     0
281
     0
282
     0
283
     0
284
     8
285
     0
286
     0
287
     3
288
     0
  0
ENDTAB
  0
TABLE
  2
BLOCK_RECORD
  5
1
330
0
100
AcDbSymbolTable
 70
     1
  0
BLOCK_RECORD
  5
1F
330
1
100
AcDbSymbolTableRecord
100
AcDbBlockTableRecord
  2
*MODEL_SPACE
  0
BLOCK_RECORD
  5
1B
330
1
100
AcDbSymbolTableRecord
100
AcDbBlockTableRecord
  2
*PAPER_SPACE
  0
ENDTAB
  0
ENDSEC
  0
SECTION
  2
BLOCKS
  0
BLOCK
  5
20
330
1F
100
AcDbEntity
  8
0
100
AcDbBlockBegin
  2
*MODEL_SPACE
 70
     0
 10
0.0
 20
0.0
 30
0.0
  3
*MODEL_SPACE
  1

  0
ENDBLK
  5
21
330
1F
100
AcDbEntity
  8
0
100
AcDbBlockEnd
  0
BLOCK
  5
1C
330
1B
100
AcDbEntity
 67
     1
  8
0
100
AcDbBlockBegin
  2
*PAPER_SPACE
  1

  0
ENDBLK
  5
1D
330
1B
100
AcDbEntity
 67
     1
  8
0
100
AcDbBlockEnd
  0
ENDSEC
  0
SECTION
  2
ENTITIES
  0
SPLINE
  5
100
100
AcDbEntity
  8
0
 62
7
100
AcDbSpline
 70
8
 71
3
 72
8
 73
4
 74
0
 40
0
 40
0
 40
0
 40
0
 40
1
 40
1
 40
1
 40
1
 10
24716035.404941
 20
49016193.038821
 30
0.0
 10
24544812.891575
 20
49016193.038821
 30
0.0
 10
24390450.049485
 20
48913051.085249
 30
0.0
 10
24324926.030372
 20
48754862.109645
 30
0.0
  0
SPLINE
  5
101
100
AcDbEntity
  8
0
 62
7
100
AcDbSpline
 70
8
 71
3
 72
8
 73
4
 74
0
 40
0
 40
0
 40
0
 40
0
 40
1
 40
1
 40
1
 40
1
 10
24324926.030372
 20
48754862.109645
 30
0.0
 10
24259402.011259
 20
48596673.134040
 30
0.0
 10
24295620.648868
 20
48414589.746840
 30
0.0
 10
24416693.249161
 20
48293517.146547
 30
0.0
  0
SPLINE
  5
102
100
AcDbEntity
  8
0
 62
7
100
AcDbSpline
 70
8
 71
3
 72
8
 73
4
 74
0
 40
0
 40
0
 40
0
 40
0
 40
1
 40
1
 40
1
 40
1
 10
24416693.249161
 20
48293517.146547
 30
0.0
 10
24537765.849454
 20
48172444.546254
 30
0.0
 10
24719849.236654
 20
48136225.908645
 30
0.0
 10
24878038.212259
 20
48201749.927758
 30
0.0
  0
SPLINE
  5
103
100
AcDbEntity
  8
0
 62
7
100
AcDbSpline
 70
8
 71
3
 72
8
 73
4
 74
0
 40
0
 40
0
 40
0
 40
0
 40
1
 40
1
 40
1
 40
1
 10
24878038.212259
 20
48201749.927758
 30
0.0
 10
25036227.187863
 20
48267273.946871
 30
0.0
 10
25139369.141435
 20
48421636.788961
 30
0.0
 10
25139369.141435
 20
48592859.302327
 30
0.0
  0
SPLINE
  5
104
100
AcDbEntity
  8
0
 62
7
100
AcDbSpline
 70
8
 71
3
 72
8
 73
4
 74
0
 40
0
 40
0
 40
0
 40
0
 40
1
 40
1
 40
1
 40
1
 10
25139369.141435
 20
48592859.302327
 30
0.0
 10
25139369.141435
 20
48705134.389951
 30
0.0
 10
25094768.036538
 20
48812810.982290
 30
0.0
 10
25015377.560721
 20
48892201.458107
 30
0.0
  0
SPLINE
  5
105
100
AcDbEntity
  8
0
 62
7
100
AcDbSpline
 70
8
 71
3
 72
8
 73
4
 74
0
 40
0
 40
0
 40
0
 40
0
 40
1
 40
1
 40
1
 40
1
 10
25015377.560721
 20
48892201.458107
 30
0.0
 10
24935987.084904
 20
48971591.933924
 30
0.0
 10
24828310.492565
 20
49016193.038821
 30
0.0
 10
24716035.404941
 20
49016193.038821
 30
0.0
  0
SPLINE
  5
106
100
AcDbEntity
  8
0
 62
7
100
AcDbSpline
 70
8
 71
3
 72
8
 73
4
 74
0
 40
0
 40
0
 40
0
 40
0
 40
1
 40
1
 40
1
 40
1
 10
53277833.439054
 20
49016193.038821
 30
0.0
 10
53106610.925688
 20
49016193.038821
 30
0.0
 10
52952248.083599
 20
48913051.085249
 30
0.0
 10
52886724.064485
 20
48754862.109645
 30
0.0
  0
SPLINE
  5
107
100
AcDbEntity
  8
0
 62
7
100
AcDbSpline
 70
8
 71
3
 72
8
 73
4
 74
0
 40
0
 40
0
 40
0
 40
0
 40
1
 40
1
 40
1
 40
1
 10
52886724.064485
 20
48754862.109645
 30
0.0
 10
52821200.045372
 20
48596673.134040
 30
0.0
 10
52857418.682981
 20
48414589.746840
 30
0.0
 10
52978491.283274
 20
48293517.146547
 30
0.0
  0
SPLINE
  5
108
100
AcDbEntity
  8
0
 62
7
100
AcDbSpline
 70
8
 71
3
 72
8
 73
4
 74
0
 40
0
 40
0
 40
0
 40
0
 40
1
 40
1
 40
1
 40
1
 10
52978491.283274
 20
48293517.146547
 30
0.0
 10
53099563.883567
 20
48172444.546254
 30
0.0
 10
53281647.270768
 20
48136225.908645
 30
0.0
 10
53439836.246372
 20
48201749.927758
 30
0.0
  0
SPLINE
  5
109
100
AcDbEntity
  8
0
 62
7
100
AcDbSpline
 70
8
 71
3
 72
8
 73
4
 74
0
 40
0
 40
0
 40
0
 40
0
 40
1
 40
1
 40
1
 40
1
 10
53439836.246372
 20
48201749.927758
 30
0.0
 10
53598025.221976
 20
48267273.946871
 30
0.0
 10
53701167.175549
 20
48421636.788961
 30
0.0
 10
53701167.175549
 20
48592859.302327
 30
0.0
  0
SPLINE
  5
10a
100
AcDbEntity
  8
0
 62
7
100
AcDbSpline
 70
8
 71
3
 72
8
 73
4
 74
0
 40
0
 40
0
 40
0
 40
0
 40
1
 40
1
 40
1
 40
1
 10
53701167.175549
 20
48592859.302327
 30
0.0
 10
53701167.175549
 20
48705134.389951
 30
0.0
 10
53656566.070651
 20
48812810.982290
 30
0.0
 10
53577175.594834
 20
48892201.458107
 30
0.0
  0
SPLINE
  5
10b
100
AcDbEntity
  8
0
 62
7
100
AcDbSpline
 70
8
 71
3
 72
8
 73
4
 74
0
 40
0
 40
0
 40
0
 40
0
 40
1
 40
1
 40
1
 40
1
 10
53577175.594834
 20
48892201.458107
 30
0.0
 10
53497785.119017
 20
48971591.933924
 30
0.0
 10
53390108.526678
 20
49016193.038821
 30
0.0
 10
53277833.439054
 20
49016193.038821
 30
0.0
  0
LWPOLYLINE
  5
10c
100
AcDbEntity
  8
0
 62
7
100
AcDbPolyline
 90
1
 70
1
 10
24716035.404941
 20
49016193.038821
 30
0.0
  0
SPLINE
  5
10d
100
AcDbEntity
  8
0
 62
7
100
AcDbSpline
 70
8
 71
3
 72
8
 73
4
 74
0
 40
0
 40
0
 40
0
 40
0
 40
1
 40
1
 40
1
 40
1
 10
24716035.404941
 20
15204065.012899
 30
0.0
 10
24544812.891575
 20
15204065.012899
 30
0.0
 10
24390450.049485
 20
15100923.059326
 30
0.0
 10
24324926.030372
 20
14942734.083722
 30
0.0
  0
SPLINE
  5
10e
100
AcDbEntity
  8
0
 62
7
100
AcDbSpline
 70
8
 71
3
 72
8
 73
4
 74
0
 40
0
 40
0
 40
0
 40
0
 40
1
 40
1
 40
1
 40
1
 10
24324926.030372
 20
14942734.083722
 30
0.0
 10
24259402.011259
 20
14784545.108118
 30
0.0
 10
24295620.648868
 20
14602461.720917
 30
0.0
 10
24416693.249161
 20
14481389.120624
 30
0.0
  0
SPLINE
  5
10f
100
AcDbEntity
  8
0
 62
7
100
AcDbSpline
 70
8
 71
3
 72
8
 73
4
 74
0
 40
0
 40
0
 40
0
 40
0
 40
1
 40
1
 40
1
 40
1
 10
24416693.249161
 20
14481389.120624
 30
0.0
 10
24537765.849454
 20
14360316.520331
 30
0.0
 10
24719849.236654
 20
14324097.882722
 30
0.0
 10
24878038.212259
 20
14389621.901836
 30
0.0
  0
SPLINE
  5
110
100
AcDbEntity
  8
0
 62
7
100
AcDbSpline
 70
8
 71
3
 72
8
 73
4
 74
0
 40
0
 40
0
 40
0
 40
0
 40
1
 40
1
 40
1
 40
1
 10
24878038.212259
 20
14389621.901836
 30
0.0
 10
25036227.187863
 20
14455145.920949
 30
0.0
 10
25139369.141435
 20
14609508.763038
 30
0.0
 10
25139369.141435
 20
14780731.276404
 30
0.0
  0
SPLINE
  5
111
100
AcDbEntity
  8
0
 62
7
100
AcDbSpline
 70
8
 71
3
 72
8
 73
4
 74
0
 40
0
 40
0
 40
0
 40
0
 40
1
 40
1
 40
1
 40
1
 10
25139369.141435
 20
14780731.276404
 30
0.0
 10
25139369.141435
 20
14893006.364028
 30
0.0
 10
25094768.036538
 20
15000682.956368
 30
0.0
 10
25015377.560721
 20
15080073.432185
 30
0.0
  0
SPLINE
  5
112
100
AcDbEntity
  8
0
 62
7
100
AcDbSpline
 70
8
 71
3
 72
8
 73
4
 74
0
 40
0
 40
0
 40
0
 40
0
 40
1
 40
1
 40
1
 40
1
 10
25015377.560721
 20
15080073.432185
 30
0.0
 10
24935987.084904
 20
15159463.908002
 30
0.0
 10
24828310.492565
 20
15204065.012899
 30
0.0
 10
24716035.404941
 20
15204065.012899
 30
0.0
  0
LWPOLYLINE
  5
113
100
AcDbEntity
  8
0
 62
7
100
AcDbPolyline
 90
1
 70
1
 10
53277833.439054
 20
49016193.038821
 30
0.0
  0
SPLINE
  5
114
100
AcDbEntity
  8
0
 62
7
100
AcDbSpline
 70
8
 71
3
 72
8
 73
4
 74
0
 40
0
 40
0
 40
0
 40
0
 40
1
 40
1
 40
1
 40
1
 10
55005229.652238
 20
48611851.353711
 30
0.0
 10
55005229.652238
 20
49549847.720326
 30
0.0
 10
54240008.143656
 20
50310246.086425
 30
0.0
 10
53296054.712880
 20
50310253.472223
 30
0.0
  0
LWPOLYLINE
  5
115
100
AcDbEntity
  8
0
 62
7
100
AcDbPolyline
 90
1
 70
1
 10
24716035.404941
 20
15204065.012899
 30
0.0
  0
LWPOLYLINE
  5
116
100
AcDbEntity
  8
0
 62
7
100
AcDbPolyline
 90
2
 70
0
 10
22957960.656646
 20
48611851.353711
 30
0.0
 10
22957960.656646
 20
14856107.910960
 30
0.0
  0
SPLINE
  5
117
100
AcDbEntity
  8
0
 62
7
100
AcDbSpline
 70
8
 71
3
 72
8
 73
4
 74
0
 40
0
 40
0
 40
0
 40
0
 40
1
 40
1
 40
1
 40
1
 10
22957960.656646
 20
14856107.910960
 30
0.0
 10
22957968.089264
 20
13918109.381128
 30
0.0
 10
23723193.446338
 20
13157713.178176
 30
0.0
 10
24667149.054180
 20
13157705.792448
 30
0.0
  0
LWPOLYLINE
  5
118
100
AcDbEntity
  8
0
 62
7
100
AcDbPolyline
 90
2
 70
0
 10
55005243.110414
 20
14856107.910960
 30
0.0
 10
55005243.110414
 20
48611851.353711
 30
0.0
  0
SPLINE
  5
119
100
AcDbEntity
  8
0
 62
7
100
AcDbSpline
 70
8
 71
3
 72
8
 73
4
 74
0
 40
0
 40
0
 40
0
 40
0
 40
1
 40
1
 40
1
 40
1
 10
53296054.712880
 20
13157705.792448
 30
0.0
 10
53749359.660149
 20
13157705.792448
 30
0.0
 10
54184098.416943
 20
13336644.073324
 30
0.0
 10
54504633.419102
 20
13655156.255779
 30
0.0
  0
SPLINE
  5
11a
100
AcDbEntity
  8
0
 62
7
100
AcDbSpline
 70
8
 71
3
 72
8
 73
4
 74
0
 40
0
 40
0
 40
0
 40
0
 40
1
 40
1
 40
1
 40
1
 10
54504633.419102
 20
13655156.255779
 30
0.0
 10
54825168.421261
 20
13973668.438233
 30
0.0
 10
55005243.110414
 20
14405663.662752
 30
0.0
 10
55005243.110414
 20
14856107.910960
 30
0.0
  0
LWPOLYLINE
  5
11b
100
AcDbEntity
  8
0
 62
7
100
AcDbPolyline
 90
2
 70
0
 10
53296054.712880
 20
50310253.472223
 30
0.0
 10
24667149.054180
 20
50310253.472223
 30
0.0
  0
SPLINE
  5
11c
100
AcDbEntity
  8
0
 62
7
100
AcDbSpline
 70
8
 71
3
 72
8
 73
4
 74
0
 40
0
 40
0
 40
0
 40
0
 40
1
 40
1
 40
1
 40
1
 10
24667149.054180
 20
50310266.845468
 30
0.0
 10
23723188.190658
 20
50310259.459670
 30
0.0
 10
22957960.656646
 20
49549855.106165
 30
0.0
 10
22957960.656646
 20
48611851.353764
 30
0.0
  0
SPLINE
  5
11d
100
AcDbEntity
  8
0
 62
7
100
AcDbSpline
 70
8
 71
3
 72
8
 73
4
 74
0
 40
0
 40
0
 40
0
 40
0
 40
1
 40
1
 40
1
 40
1
 10
52749326.939813
 20
46493603.620256
 30
0.0
 10
52749326.939813
 20
47313819.919006
 30
0.0
 10
52094050.125160
 20
47978738.415085
 30
0.0
 10
51285721.046111
 20
47978744.873482
 30
0.0
  0
LWPOLYLINE
  5
11e
100
AcDbEntity
  8
0
 62
7
100
AcDbPolyline
 90
2
 70
0
 10
24667149.054180
 20
13157705.792448
 30
0.0
 10
53296054.712880
 20
13157705.792448
 30
0.0
  0
LWPOLYLINE
  5
11f
100
AcDbEntity
  8
0
 62
7
100
AcDbPolyline
 90
2
 70
0
 10
25306511.872199
 20
46493603.620256
 30
0.0
 10
25306511.872199
 20
16976420.042988
 30
0.0
  0
SPLINE
  5
120
100
AcDbEntity
  8
0
 62
7
100
AcDbSpline
 70
8
 71
3
 72
8
 73
4
 74
0
 40
0
 40
0
 40
0
 40
0
 40
1
 40
1
 40
1
 40
1
 10
25306511.872199
 20
16976420.042988
 30
0.0
 10
25306518.236922
 20
16156201.852646
 30
0.0
 10
25961798.347128
 20
15491285.248097
 30
0.0
 10
26770129.290448
 20
15491278.789762
 30
0.0
  0
LWPOLYLINE
  5
121
100
AcDbEntity
  8
0
 62
7
100
AcDbPolyline
 90
2
 70
0
 10
52749338.464360
 20
16976420.042988
 30
0.0
 10
52749338.464360
 20
46493603.620256
 30
0.0
  0
SPLINE
  5
122
100
AcDbEntity
  8
0
 62
7
100
AcDbSpline
 70
8
 71
3
 72
8
 73
4
 74
0
 40
0
 40
0
 40
0
 40
0
 40
1
 40
1
 40
1
 40
1
 10
51285721.046111
 20
15491278.789762
 30
0.0
 10
51673896.520247
 20
15491278.789762
 30
0.0
 10
52046173.337566
 20
15647748.579698
 30
0.0
 10
52320654.847618
 20
15926266.591812
 30
0.0
  0
SPLINE
  5
123
100
AcDbEntity
  8
0
 62
7
100
AcDbSpline
 70
8
 71
3
 72
8
 73
4
 74
0
 40
0
 40
0
 40
0
 40
0
 40
1
 40
1
 40
1
 40
1
 10
52320654.847618
 20
15926266.591812
 30
0.0
 10
52595136.357669
 20
16204784.603926
 30
0.0
 10
52749338.464360
 20
16582536.092891
 30
0.0
 10
52749338.464360
 20
16976420.042988
 30
0.0
  0
LWPOLYLINE
  5
124
100
AcDbEntity
  8
0
 62
7
100
AcDbPolyline
 90
2
 70
0
 10
51285721.046111
 20
47978744.873482
 30
0.0
 10
26770129.290448
 20
47978744.873482
 30
0.0
  0
SPLINE
  5
125
100
AcDbEntity
  8
0
 62
7
100
AcDbSpline
 70
8
 71
3
 72
8
 73
4
 74
0
 40
0
 40
0
 40
0
 40
0
 40
1
 40
1
 40
1
 40
1
 10
26770129.290448
 20
47978756.567507
 30
0.0
 10
25961793.846568
 20
47978750.109111
 30
0.0
 10
25306511.872199
 20
47313826.377438
 30
0.0
 10
25306511.872199
 20
46493603.620302
 30
0.0
  0
SPLINE
  5
126
100
AcDbEntity
  8
0
 62
7
100
AcDbSpline
 70
8
 71
3
 72
8
 73
4
 74
0
 40
0
 40
0
 40
0
 40
0
 40
1
 40
1
 40
1
 40
1
 10
53277833.439054
 20
15204065.012899
 30
0.0
 10
53106610.925688
 20
15204065.012899
 30
0.0
 10
52952248.083599
 20
15100923.059326
 30
0.0
 10
52886724.064485
 20
14942734.083722
 30
0.0
  0
SPLINE
  5
127
100
AcDbEntity
  8
0
 62
7
100
AcDbSpline
 70
8
 71
3
 72
8
 73
4
 74
0
 40
0
 40
0
 40
0
 40
0
 40
1
 40
1
 40
1
 40
1
 10
52886724.064485
 20
14942734.083722
 30
0.0
 10
52821200.045372
 20
14784545.108118
 30
0.0
 10
52857418.682981
 20
14602461.720917
 30
0.0
 10
52978491.283274
 20
14481389.120624
 30
0.0
  0
SPLINE
  5
128
100
AcDbEntity
  8
0
 62
7
100
AcDbSpline
 70
8
 71
3
 72
8
 73
4
 74
0
 40
0
 40
0
 40
0
 40
0
 40
1
 40
1
 40
1
 40
1
 10
52978491.283274
 20
14481389.120624
 30
0.0
 10
53099563.883567
 20
14360316.520331
 30
0.0
 10
53281647.270768
 20
14324097.882722
 30
0.0
 10
53439836.246372
 20
14389621.901836
 30
0.0
  0
SPLINE
  5
129
100
AcDbEntity
  8
0
 62
7
100
AcDbSpline
 70
8
 71
3
 72
8
 73
4
 74
0
 40
0
 40
0
 40
0
 40
0
 40
1
 40
1
 40
1
 40
1
 10
53439836.246372
 20
14389621.901836
 30
0.0
 10
53598025.221976
 20
14455145.920949
 30
0.0
 10
53701167.175549
 20
14609508.763038
 30
0.0
 10
53701167.175549
 20
14780731.276404
 30
0.0
  0
SPLINE
  5
12a
100
AcDbEntity
  8
0
 62
7
100
AcDbSpline
 70
8
 71
3
 72
8
 73
4
 74
0
 40
0
 40
0
 40
0
 40
0
 40
1
 40
1
 40
1
 40
1
 10
53701167.175549
 20
14780731.276404
 30
0.0
 10
53701167.175549
 20
14893006.364028
 30
0.0
 10
53656566.070651
 20
15000682.956368
 30
0.0
 10
53577175.594834
 20
15080073.432185
 30
0.0
  0
SPLINE
  5
12b
100
AcDbEntity
  8
0
 62
7
100
AcDbSpline
 70
8
 71
3
 72
8
 73
4
 74
0
 40
0
 40
0
 40
0
 40
0
 40
1
 40
1
 40
1
 40
1
 10
53577175.594834
 20
15080073.432185
 30
0.0
 10
53497785.119017
 20
15159463.908002
 30
0.0
 10
53390108.526678
 20
15204065.012899
 30
0.0
 10
53277833.439054
 20
15204065.012899
 30
0.0
  0
LWPOLYLINE
  5
12c
100
AcDbEntity
  8
0
 62
7
100
AcDbPolyline
 90
2
 70
0
 10
26770129.290448
 20
15491278.789762
 30
0.0
 10
51285721.046111
 20
15491278.789762
 30
0.0
  0
LWPOLYLINE
  5
12d
100
AcDbEntity
  8
0
 62
7
100
AcDbPolyline
 90
1
 70
1
 10
53277833.439054
 20
15204065.012899
 30
0.0
  0
ENDSEC
  0
SECTION
  2
OBJECTS
  0
DICTIONARY
  5
C
330
0
100
AcDbDictionary
  3
ACAD_GROUP
350
D
  3
ACAD_MLINESTYLE
350
17
  0
DICTIONARY
  5
D
330
C
100
AcDbDictionary
  0
DICTIONARY
  5
1A
330
C
100
AcDbDictionary
  0
DICTIONARY
  5
17
330
C
100
AcDbDictionary
  3
STANDARD
350
18
  0
DICTIONARY
  5
19
330
C
100
AcDbDictionary
  0
ENDSEC
  0
EOF
