999
"DXF R12 Output" (www.mydxf.blogspot.com)
 0 
SECTION
 2 
HEADER
 9 
$ACADVER
 1 
AC1009
 9 
$EXTMIN
 10 
 0 
 20 
 0 
 9 
$EXTMAX
 10 
 8.5 
 20 
 11 
 0 
ENDSEC
 0 
SECTION
 2 
ENTITIES
0
LINE
8
Layer 1
10
206.728000
20
182.947000
11
206.599265
21
184.225339
0
LINE
8
Layer 1
10
206.599265
20
184.225339
11
206.230048
21
185.415989
0
LINE
8
Layer 1
10
206.230048
20
185.415989
11
205.645829
21
186.493444
0
LINE
8
Layer 1
10
205.645829
20
186.493444
11
204.872088
21
187.432196
0
LINE
8
Layer 1
10
204.872088
20
187.432196
11
203.934305
21
188.206739
0
LINE
8
Layer 1
10
203.934305
20
188.206739
11
202.857961
21
188.791567
0
LINE
8
Layer 1
10
202.857961
20
188.791567
11
201.668536
21
189.161173
0
LINE
8
Layer 1
10
201.668536
20
189.161173
11
200.391510
21
189.290050
0
LINE
8
Layer 1
10
87.917600
20
182.947000
11
87.932792
21
173.685210
0
LINE
8
Layer 1
10
87.917600
20
167.639310
11
87.917600
21
56.878400
0
LINE
8
Layer 1
10
206.728000
20
56.878400
11
206.728000
21
182.947000
0
LINE
8
Layer 1
10
87.917600
20
56.878400
11
88.046344
21
55.600059
0
LINE
8
Layer 1
10
88.046344
20
55.600059
11
88.415570
21
54.409407
0
LINE
8
Layer 1
10
88.415570
20
54.409407
11
88.999797
21
53.331953
0
LINE
8
Layer 1
10
88.999797
20
53.331953
11
89.773544
21
52.393201
0
LINE
8
Layer 1
10
89.773544
20
52.393201
11
90.711333
21
51.618658
0
LINE
8
Layer 1
10
90.711333
20
51.618658
11
91.787681
21
51.033832
0
LINE
8
Layer 1
10
91.787681
20
51.033832
11
92.977111
21
50.664227
0
LINE
8
Layer 1
10
92.977111
20
50.664227
11
94.254140
21
50.535350
0
LINE
8
Layer 1
10
200.391000
20
189.290000
11
94.254100
21
189.290000
0
LINE
8
Layer 1
10
200.391000
20
50.535400
11
201.632970
21
50.658406
0
LINE
8
Layer 1
10
201.632970
20
50.658406
11
202.815889
21
51.018236
0
LINE
8
Layer 1
10
202.815889
20
51.018236
11
203.906516
21
51.601107
0
LINE
8
Layer 1
10
203.906516
20
51.601107
11
204.871610
21
52.393236
0
LINE
8
Layer 1
10
204.871610
20
52.393236
11
205.662927
21
53.359323
0
LINE
8
Layer 1
10
205.662927
20
53.359323
11
206.245200
21
54.451070
0
LINE
8
Layer 1
10
206.245200
20
54.451070
11
206.604660
21
55.635204
0
LINE
8
Layer 1
10
206.604660
20
55.635204
11
206.727540
21
56.878450
0
LINE
8
Layer 1
10
94.254100
20
50.535400
11
200.391000
21
50.535400
0
LINE
8
Layer 1
10
94.254100
20
189.290000
11
92.977064
21
189.161122
0
LINE
8
Layer 1
10
92.977064
20
189.161122
11
91.787629
21
188.791513
0
LINE
8
Layer 1
10
91.787629
20
188.791513
11
90.711277
21
188.206681
0
LINE
8
Layer 1
10
90.711277
20
188.206681
11
89.773487
21
187.432131
0
LINE
8
Layer 1
10
89.773487
20
187.432131
11
88.999739
21
186.493372
0
LINE
8
Layer 1
10
88.999739
20
186.493372
11
88.415516
21
185.415909
0
LINE
8
Layer 1
10
88.415516
20
185.415909
11
88.046296
21
184.225249
0
LINE
8
Layer 1
10
88.046296
20
184.225249
11
87.917560
21
182.946900
 0 
ENDSEC
 0 
EOF