  0
SECTION
  2
HEADER
  9
$ACADVER
  1
AC1014
  9
$HANDSEED
  5
FFFF
  9
$MEASUREMENT
 70
     1
  0
ENDSEC
  0
SECTION
  2
TABLES
  0
TABLE
  2
VPORT
  5
8
330
0
100
AcDbSymbolTable
 70
     4
  0
VPORT
  5
2E
330
8
100
AcDbSymbolTableRecord
100
AcDbViewportTableRecord
  2
*ACTIVE
 70
     0
 10
0.0
 20
0.0
 11
1.0
 21
1.0
 12
210.0
 22
148.5
 13
0.0
 23
0.0
 14
10.0
 24
10.0
 15
10.0
 25
10.0
 16
0.0
 26
0.0
 36
1.0
 17
0.0
 27
0.0
 37
0.0
 40
341.0
 41
1.24
 42
50.0
 43
0.0
 44
0.0
 50
0.0
 51
0.0
 71
     0
 72
   100
 73
     1
 74
     3
 75
     0
 76
     0
 77
     0
 78
     0
  0
ENDTAB
  0
TABLE
  2
LTYPE
  5
5
330
0
100
AcDbSymbolTable
 70
     1
  0
LTYPE
  5
14
330
5
100
AcDbSymbolTableRecord
100
AcDbLinetypeTableRecord
  2
BYBLOCK
 70
     0
  3

 72
    65
 73
     0
 40
0.0
  0
LTYPE
  5
15
330
5
100
AcDbSymbolTableRecord
100
AcDbLinetypeTableRecord
  2
BYLAYER
 70
     0
  3

 72
    65
 73
     0
 40
0.0
  0
LTYPE
  5
16
330
5
100
AcDbSymbolTableRecord
100
AcDbLinetypeTableRecord
  2
CONTINUOUS
 70
     0
  3
Solid line
 72
    65
 73
     0
 40
0.0
  0
ENDTAB
  0
TABLE
  2
LAYER
  5
2
100
AcDbSymbolTable
 70
1
  0
LAYER
  5
50
100
AcDbSymbolTableRecord
100
AcDbLayerTableRecord
  2
0
 70
0
  6
CONTINUOUS
  0
ENDTAB
  0
TABLE
  2
STYLE
  5
3
330
0
100
AcDbSymbolTable
 70
     1
  0
STYLE
  5
11
330
3
100
AcDbSymbolTableRecord
100
AcDbTextStyleTableRecord
  2
STANDARD
 70
     0
 40
0.0
 41
1.0
 50
0.0
 71
     0
 42
2.5
  3
txt
  4

  0
ENDTAB
  0
TABLE
  2
VIEW
  5
6
330
0
100
AcDbSymbolTable
 70
     0
  0
ENDTAB
  0
TABLE
  2
UCS
  5
7
330
0
100
AcDbSymbolTable
 70
     0
  0
ENDTAB
  0
TABLE
  2
APPID
  5
9
330
0
100
AcDbSymbolTable
 70
     2
  0
APPID
  5
12
330
9
100
AcDbSymbolTableRecord
100
AcDbRegAppTableRecord
  2
ACAD
 70
     0
  0
ENDTAB
  0
TABLE
  2
DIMSTYLE
  5
A
330
0
100
AcDbSymbolTable
 70
     1
  0
DIMSTYLE
105
27
330
A
100
AcDbSymbolTableRecord
100
AcDbDimStyleTableRecord
  2
ISO-25
 70
     0
  3

  4

  5

  6

  7

 40
1.0
 41
2.5
 42
0.625
 43
3.75
 44
1.25
 45
0.0
 46
0.0
 47
0.0
 48
0.0
140
2.5
141
2.5
142
0.0
143
0.03937007874016
144
1.0
145
0.0
146
1.0
147
0.625
 71
     0
 72
     0
 73
     0
 74
     0
 75
     0
 76
     0
 77
     1
 78
     8
170
     0
171
     3
172
     1
173
     0
174
     0
175
     0
176
     0
177
     0
178
     0
270
     2
271
     2
272
     2
273
     2
274
     3
340
11
275
     0
280
     0
281
     0
282
     0
283
     0
284
     8
285
     0
286
     0
287
     3
288
     0
  0
ENDTAB
  0
TABLE
  2
BLOCK_RECORD
  5
1
330
0
100
AcDbSymbolTable
 70
     1
  0
BLOCK_RECORD
  5
1F
330
1
100
AcDbSymbolTableRecord
100
AcDbBlockTableRecord
  2
*MODEL_SPACE
  0
BLOCK_RECORD
  5
1B
330
1
100
AcDbSymbolTableRecord
100
AcDbBlockTableRecord
  2
*PAPER_SPACE
  0
ENDTAB
  0
ENDSEC
  0
SECTION
  2
BLOCKS
  0
BLOCK
  5
20
330
1F
100
AcDbEntity
  8
0
100
AcDbBlockBegin
  2
*MODEL_SPACE
 70
     0
 10
0.0
 20
0.0
 30
0.0
  3
*MODEL_SPACE
  1

  0
ENDBLK
  5
21
330
1F
100
AcDbEntity
  8
0
100
AcDbBlockEnd
  0
BLOCK
  5
1C
330
1B
100
AcDbEntity
 67
     1
  8
0
100
AcDbBlockBegin
  2
*PAPER_SPACE
  1

  0
ENDBLK
  5
1D
330
1B
100
AcDbEntity
 67
     1
  8
0
100
AcDbBlockEnd
  0
ENDSEC
  0
SECTION
  2
ENTITIES
  0
SPLINE
  5
100
100
AcDbEntity
  8
0
 62
3
100
AcDbSpline
 70
8
 71
3
 72
8
 73
4
 74
0
 40
0
 40
0
 40
0
 40
0
 40
1
 40
1
 40
1
 40
1
 10
2566989.944669
 20
4976346.492548
 30
0.0
 10
2549867.693332
 20
4976346.492548
 30
0.0
 10
2534431.409123
 20
4966032.297191
 30
0.0
 10
2527879.007212
 20
4950213.399631
 30
0.0
  0
SPLINE
  5
101
100
AcDbEntity
  8
0
 62
3
100
AcDbSpline
 70
8
 71
3
 72
8
 73
4
 74
0
 40
0
 40
0
 40
0
 40
0
 40
1
 40
1
 40
1
 40
1
 10
2527879.007212
 20
4950213.399631
 30
0.0
 10
2521326.605300
 20
4934394.502070
 30
0.0
 10
2524948.469061
 20
4916186.163350
 30
0.0
 10
2537055.729090
 20
4904078.903321
 30
0.0
  0
SPLINE
  5
102
100
AcDbEntity
  8
0
 62
3
100
AcDbSpline
 70
8
 71
3
 72
8
 73
4
 74
0
 40
0
 40
0
 40
0
 40
0
 40
1
 40
1
 40
1
 40
1
 10
2537055.729090
 20
4904078.903321
 30
0.0
 10
2549162.989120
 20
4891971.643292
 30
0.0
 10
2567371.327840
 20
4888349.779531
 30
0.0
 10
2583190.225400
 20
4894902.181442
 30
0.0
  0
SPLINE
  5
103
100
AcDbEntity
  8
0
 62
3
100
AcDbSpline
 70
8
 71
3
 72
8
 73
4
 74
0
 40
0
 40
0
 40
0
 40
0
 40
1
 40
1
 40
1
 40
1
 10
2583190.225400
 20
4894902.181442
 30
0.0
 10
2599009.122961
 20
4901454.583353
 30
0.0
 10
2609323.318318
 20
4916890.867562
 30
0.0
 10
2609323.318318
 20
4934013.118899
 30
0.0
  0
SPLINE
  5
104
100
AcDbEntity
  8
0
 62
3
100
AcDbSpline
 70
8
 71
3
 72
8
 73
4
 74
0
 40
0
 40
0
 40
0
 40
0
 40
1
 40
1
 40
1
 40
1
 10
2609323.318318
 20
4934013.118899
 30
0.0
 10
2609323.318318
 20
4945240.627661
 30
0.0
 10
2604863.207828
 20
4956008.286895
 30
0.0
 10
2596924.160247
 20
4963947.334477
 30
0.0
  0
SPLINE
  5
105
100
AcDbEntity
  8
0
 62
3
100
AcDbSpline
 70
8
 71
3
 72
8
 73
4
 74
0
 40
0
 40
0
 40
0
 40
0
 40
1
 40
1
 40
1
 40
1
 10
2596924.160247
 20
4963947.334477
 30
0.0
 10
2588985.112665
 20
4971886.382059
 30
0.0
 10
2578217.453431
 20
4976346.492548
 30
0.0
 10
2566989.944669
 20
4976346.492548
 30
0.0
  0
LINE
  5
106
100
AcDbEntity
  8
0
 62
3
100
AcDbLine
 10
2566989.944669
 20
4976346.492548
 30
0.0
 11
2566989.944669
 21
4976346.492548
 31
0.0
  0
SPLINE
  5
107
100
AcDbEntity
  8
0
 62
3
100
AcDbSpline
 70
8
 71
3
 72
8
 73
4
 74
0
 40
0
 40
0
 40
0
 40
0
 40
1
 40
1
 40
1
 40
1
 10
5198538.707486
 20
4976478.572674
 30
0.0
 10
5181416.456150
 20
4976478.572674
 30
0.0
 10
5165980.171941
 20
4966164.377317
 30
0.0
 10
5159427.770029
 20
4950345.479757
 30
0.0
  0
SPLINE
  5
108
100
AcDbEntity
  8
0
 62
3
100
AcDbSpline
 70
8
 71
3
 72
8
 73
4
 74
0
 40
0
 40
0
 40
0
 40
0
 40
1
 40
1
 40
1
 40
1
 10
5159427.770029
 20
4950345.479757
 30
0.0
 10
5152875.368118
 20
4934526.582196
 30
0.0
 10
5156497.231879
 20
4916318.243476
 30
0.0
 10
5168604.491908
 20
4904210.983447
 30
0.0
  0
SPLINE
  5
109
100
AcDbEntity
  8
0
 62
3
100
AcDbSpline
 70
8
 71
3
 72
8
 73
4
 74
0
 40
0
 40
0
 40
0
 40
0
 40
1
 40
1
 40
1
 40
1
 10
5168604.491908
 20
4904210.983447
 30
0.0
 10
5180711.751937
 20
4892103.723417
 30
0.0
 10
5198920.090658
 20
4888481.859657
 30
0.0
 10
5214738.988218
 20
4895034.261568
 30
0.0
  0
SPLINE
  5
10a
100
AcDbEntity
  8
0
 62
3
100
AcDbSpline
 70
8
 71
3
 72
8
 73
4
 74
0
 40
0
 40
0
 40
0
 40
0
 40
1
 40
1
 40
1
 40
1
 10
5214738.988218
 20
4895034.261568
 30
0.0
 10
5230557.885778
 20
4901586.663479
 30
0.0
 10
5240872.081136
 20
4917022.947688
 30
0.0
 10
5240872.081136
 20
4934145.199025
 30
0.0
  0
SPLINE
  5
10b
100
AcDbEntity
  8
0
 62
3
100
AcDbSpline
 70
8
 71
3
 72
8
 73
4
 74
0
 40
0
 40
0
 40
0
 40
0
 40
1
 40
1
 40
1
 40
1
 10
5240872.081136
 20
4934145.199025
 30
0.0
 10
5240872.081136
 20
4945372.707787
 30
0.0
 10
5236411.970646
 20
4956140.367021
 30
0.0
 10
5228472.923064
 20
4964079.414603
 30
0.0
  0
SPLINE
  5
10c
100
AcDbEntity
  8
0
 62
3
100
AcDbSpline
 70
8
 71
3
 72
8
 73
4
 74
0
 40
0
 40
0
 40
0
 40
0
 40
1
 40
1
 40
1
 40
1
 10
5228472.923064
 20
4964079.414603
 30
0.0
 10
5220533.875482
 20
4972018.462185
 30
0.0
 10
5209766.216249
 20
4976478.572674
 30
0.0
 10
5198538.707486
 20
4976478.572674
 30
0.0
  0
LINE
  5
10d
100
AcDbEntity
  8
0
 62
3
100
AcDbLine
 10
5198538.707486
 20
4976478.572674
 30
0.0
 11
5198538.707486
 21
4976478.572674
 31
0.0
  0
SPLINE
  5
10e
100
AcDbEntity
  8
0
 62
3
100
AcDbSpline
 70
8
 71
3
 72
8
 73
4
 74
0
 40
0
 40
0
 40
0
 40
0
 40
1
 40
1
 40
1
 40
1
 10
2566973.646320
 20
1436577.531456
 30
0.0
 10
2543593.569644
 20
1436577.531456
 30
0.0
 10
2524640.272670
 20
1417624.234482
 30
0.0
 10
2524640.272670
 20
1394244.157806
 30
0.0
  0
SPLINE
  5
10f
100
AcDbEntity
  8
0
 62
3
100
AcDbSpline
 70
8
 71
3
 72
8
 73
4
 74
0
 40
0
 40
0
 40
0
 40
0
 40
1
 40
1
 40
1
 40
1
 10
2524640.272670
 20
1394244.157806
 30
0.0
 10
2524640.272670
 20
1370864.081131
 30
0.0
 10
2543593.569644
 20
1351910.784157
 30
0.0
 10
2566973.646320
 20
1351910.784157
 30
0.0
  0
SPLINE
  5
110
100
AcDbEntity
  8
0
 62
3
100
AcDbSpline
 70
8
 71
3
 72
8
 73
4
 74
0
 40
0
 40
0
 40
0
 40
0
 40
1
 40
1
 40
1
 40
1
 10
2566973.646320
 20
1351910.784157
 30
0.0
 10
2590353.722995
 20
1351910.784157
 30
0.0
 10
2609307.019969
 20
1370864.081131
 30
0.0
 10
2609307.019969
 20
1394244.157806
 30
0.0
  0
SPLINE
  5
111
100
AcDbEntity
  8
0
 62
3
100
AcDbSpline
 70
8
 71
3
 72
8
 73
4
 74
0
 40
0
 40
0
 40
0
 40
0
 40
1
 40
1
 40
1
 40
1
 10
2609307.019969
 20
1394244.157806
 30
0.0
 10
2609307.019969
 20
1405471.666568
 30
0.0
 10
2604846.909479
 20
1416239.325802
 30
0.0
 10
2596907.861898
 20
1424178.373384
 30
0.0
  0
SPLINE
  5
112
100
AcDbEntity
  8
0
 62
3
100
AcDbSpline
 70
8
 71
3
 72
8
 73
4
 74
0
 40
0
 40
0
 40
0
 40
0
 40
1
 40
1
 40
1
 40
1
 10
2596907.861898
 20
1424178.373384
 30
0.0
 10
2588968.814316
 20
1432117.420966
 30
0.0
 10
2578201.155082
 20
1436577.531456
 30
0.0
 10
2566973.646320
 20
1436577.531456
 30
0.0
  0
LINE
  5
113
100
AcDbEntity
  8
0
 62
3
100
AcDbLine
 10
2566973.646320
 20
1436577.531456
 30
0.0
 11
2566973.646320
 21
1436577.531456
 31
0.0
  0
SPLINE
  5
114
100
AcDbEntity
  8
0
 62
3
100
AcDbSpline
 70
8
 71
3
 72
8
 73
4
 74
0
 40
0
 40
0
 40
0
 40
0
 40
1
 40
1
 40
1
 40
1
 10
5198413.824034
 20
1436614.784824
 30
0.0
 10
5181291.572697
 20
1436614.784824
 30
0.0
 10
5165855.288488
 20
1426300.589467
 30
0.0
 10
5159302.886577
 20
1410481.691907
 30
0.0
  0
SPLINE
  5
115
100
AcDbEntity
  8
0
 62
3
100
AcDbSpline
 70
8
 71
3
 72
8
 73
4
 74
0
 40
0
 40
0
 40
0
 40
0
 40
1
 40
1
 40
1
 40
1
 10
5159302.886577
 20
1410481.691907
 30
0.0
 10
5152750.484666
 20
1394662.794346
 30
0.0
 10
5156372.348427
 20
1376454.455626
 30
0.0
 10
5168479.608456
 20
1364347.195597
 30
0.0
  0
SPLINE
  5
116
100
AcDbEntity
  8
0
 62
3
100
AcDbSpline
 70
8
 71
3
 72
8
 73
4
 74
0
 40
0
 40
0
 40
0
 40
0
 40
1
 40
1
 40
1
 40
1
 10
5168479.608456
 20
1364347.195597
 30
0.0
 10
5180586.868485
 20
1352239.935568
 30
0.0
 10
5198795.207205
 20
1348618.071807
 30
0.0
 10
5214614.104766
 20
1355170.473718
 30
0.0
  0
SPLINE
  5
117
100
AcDbEntity
  8
0
 62
3
100
AcDbSpline
 70
8
 71
3
 72
8
 73
4
 74
0
 40
0
 40
0
 40
0
 40
0
 40
1
 40
1
 40
1
 40
1
 10
5214614.104766
 20
1355170.473718
 30
0.0
 10
5230433.002326
 20
1361722.875629
 30
0.0
 10
5240747.197683
 20
1377159.159838
 30
0.0
 10
5240747.197683
 20
1394281.411175
 30
0.0
  0
SPLINE
  5
118
100
AcDbEntity
  8
0
 62
3
100
AcDbSpline
 70
8
 71
3
 72
8
 73
4
 74
0
 40
0
 40
0
 40
0
 40
0
 40
1
 40
1
 40
1
 40
1
 10
5240747.197683
 20
1394281.411175
 30
0.0
 10
5240747.197683
 20
1405508.919937
 30
0.0
 10
5236287.087194
 20
1416276.579171
 30
0.0
 10
5228348.039612
 20
1424215.626753
 30
0.0
  0
SPLINE
  5
119
100
AcDbEntity
  8
0
 62
3
100
AcDbSpline
 70
8
 71
3
 72
8
 73
4
 74
0
 40
0
 40
0
 40
0
 40
0
 40
1
 40
1
 40
1
 40
1
 10
5228348.039612
 20
1424215.626753
 30
0.0
 10
5220408.992030
 20
1432154.674335
 30
0.0
 10
5209641.332796
 20
1436614.784824
 30
0.0
 10
5198413.824034
 20
1436614.784824
 30
0.0
  0
LINE
  5
11a
100
AcDbEntity
  8
0
 62
3
100
AcDbLine
 10
5198413.824034
 20
1436614.784824
 30
0.0
 11
5198413.824034
 21
1436614.784824
 31
0.0
  0
SPLINE
  5
11b
100
AcDbEntity
  8
0
 62
1
100
AcDbSpline
 70
8
 71
3
 72
8
 73
4
 74
0
 40
0
 40
0
 40
0
 40
0
 40
1
 40
1
 40
1
 40
1
 10
5409764.805842
 20
4880171.452733
 30
0.0
 10
5409764.805842
 20
4975376.845209
 30
0.0
 10
5338201.389048
 20
5052556.275172
 30
0.0
 10
5249922.985941
 20
5052557.024821
 30
0.0
  0
LINE
  5
11c
100
AcDbEntity
  8
0
 62
1
100
AcDbLine
 10
2412708.342433
 20
4880171.452733
 30
0.0
 11
2412708.342433
 21
4607646.314547
 31
0.0
  0
LINE
  5
11d
100
AcDbEntity
  8
0
 62
1
100
AcDbLine
 10
2412708.342433
 20
4447263.311881
 30
0.0
 11
2412708.342433
 21
1454008.071752
 31
0.0
  0
LINE
  5
11e
100
AcDbEntity
  8
0
 62
1
100
AcDbLine
 10
5409766.064449
 20
1454008.071752
 30
0.0
 11
5409766.064449
 21
4880171.452733
 31
0.0
  0
SPLINE
  5
11f
100
AcDbEntity
  8
0
 62
1
100
AcDbSpline
 70
8
 71
3
 72
8
 73
4
 74
0
 40
0
 40
0
 40
0
 40
0
 40
1
 40
1
 40
1
 40
1
 10
2412708.342433
 20
1454008.071752
 30
0.0
 10
2412709.037530
 20
1358802.459712
 30
0.0
 10
2484272.814235
 20
1281623.249306
 30
0.0
 10
2572551.420940
 20
1281622.499664
 30
0.0
  0
LINE
  5
120
100
AcDbEntity
  8
0
 62
1
100
AcDbLine
 10
5249922.985941
 20
5052557.024821
 30
0.0
 11
2572551.420940
 21
5052557.024821
 31
0.0
  0
SPLINE
  5
121
100
AcDbEntity
  8
0
 62
1
100
AcDbSpline
 70
8
 71
3
 72
8
 73
4
 74
0
 40
0
 40
0
 40
0
 40
0
 40
1
 40
1
 40
1
 40
1
 10
5249922.985941
 20
1281622.499664
 30
0.0
 10
5292316.006148
 20
1281622.499664
 30
0.0
 10
5332972.718617
 20
1299784.498864
 30
0.0
 10
5362949.110680
 20
1332113.064750
 30
0.0
  0
SPLINE
  5
122
100
AcDbEntity
  8
0
 62
1
100
AcDbSpline
 70
8
 71
3
 72
8
 73
4
 74
0
 40
0
 40
0
 40
0
 40
0
 40
1
 40
1
 40
1
 40
1
 10
5362949.110680
 20
1332113.064750
 30
0.0
 10
5392925.502743
 20
1364441.630636
 30
0.0
 10
5409766.064449
 20
1408288.575424
 30
0.0
 10
5409766.064449
 20
1454008.071752
 30
0.0
  0
LINE
  5
123
100
AcDbEntity
  8
0
 62
1
100
AcDbLine
 10
2572551.420940
 20
1281622.499664
 30
0.0
 11
5249922.985941
 21
1281622.499664
 31
0.0
  0
SPLINE
  5
124
100
AcDbEntity
  8
0
 62
1
100
AcDbSpline
 70
8
 71
3
 72
8
 73
4
 74
0
 40
0
 40
0
 40
0
 40
0
 40
1
 40
1
 40
1
 40
1
 10
2572551.420940
 20
5052558.382188
 30
0.0
 10
2484272.322724
 20
5052557.632539
 30
0.0
 10
2412708.342433
 20
4975377.594862
 30
0.0
 10
2412708.342433
 20
4880171.452739
 30
0.0
  0
ENDSEC
  0
SECTION
  2
OBJECTS
  0
DICTIONARY
  5
C
330
0
100
AcDbDictionary
  3
ACAD_GROUP
350
D
  3
ACAD_MLINESTYLE
350
17
  0
DICTIONARY
  5
D
330
C
100
AcDbDictionary
  0
DICTIONARY
  5
1A
330
C
100
AcDbDictionary
  0
DICTIONARY
  5
17
330
C
100
AcDbDictionary
  3
STANDARD
350
18
  0
DICTIONARY
  5
19
330
C
100
AcDbDictionary
  0
ENDSEC
  0
EOF
