  0
SECTION
  2
HEADER
  9
$ACADVER
  1
AC1014
  9
$HANDSEED
  5
FFFF
  9
$MEASUREMENT
 70
     1
  0
ENDSEC
  0
SECTION
  2
TABLES
  0
TABLE
  2
VPORT
  5
8
330
0
100
AcDbSymbolTable
 70
     4
  0
VPORT
  5
2E
330
8
100
AcDbSymbolTableRecord
100
AcDbViewportTableRecord
  2
*ACTIVE
 70
     0
 10
0.0
 20
0.0
 11
1.0
 21
1.0
 12
210.0
 22
148.5
 13
0.0
 23
0.0
 14
10.0
 24
10.0
 15
10.0
 25
10.0
 16
0.0
 26
0.0
 36
1.0
 17
0.0
 27
0.0
 37
0.0
 40
341.0
 41
1.24
 42
50.0
 43
0.0
 44
0.0
 50
0.0
 51
0.0
 71
     0
 72
   100
 73
     1
 74
     3
 75
     0
 76
     0
 77
     0
 78
     0
  0
ENDTAB
  0
TABLE
  2
LTYPE
  5
5
330
0
100
AcDbSymbolTable
 70
     1
  0
LTYPE
  5
14
330
5
100
AcDbSymbolTableRecord
100
AcDbLinetypeTableRecord
  2
BYBLOCK
 70
     0
  3

 72
    65
 73
     0
 40
0.0
  0
LTYPE
  5
15
330
5
100
AcDbSymbolTableRecord
100
AcDbLinetypeTableRecord
  2
BYLAYER
 70
     0
  3

 72
    65
 73
     0
 40
0.0
  0
LTYPE
  5
16
330
5
100
AcDbSymbolTableRecord
100
AcDbLinetypeTableRecord
  2
CONTINUOUS
 70
     0
  3
Solid line
 72
    65
 73
     0
 40
0.0
  0
ENDTAB
  0
TABLE
  2
LAYER
  5
2
100
AcDbSymbolTable
 70
1
  0
LAYER
  5
50
100
AcDbSymbolTableRecord
100
AcDbLayerTableRecord
  2
0
 70
0
  6
CONTINUOUS
  0
ENDTAB
  0
TABLE
  2
STYLE
  5
3
330
0
100
AcDbSymbolTable
 70
     1
  0
STYLE
  5
11
330
3
100
AcDbSymbolTableRecord
100
AcDbTextStyleTableRecord
  2
STANDARD
 70
     0
 40
0.0
 41
1.0
 50
0.0
 71
     0
 42
2.5
  3
txt
  4

  0
ENDTAB
  0
TABLE
  2
VIEW
  5
6
330
0
100
AcDbSymbolTable
 70
     0
  0
ENDTAB
  0
TABLE
  2
UCS
  5
7
330
0
100
AcDbSymbolTable
 70
     0
  0
ENDTAB
  0
TABLE
  2
APPID
  5
9
330
0
100
AcDbSymbolTable
 70
     2
  0
APPID
  5
12
330
9
100
AcDbSymbolTableRecord
100
AcDbRegAppTableRecord
  2
ACAD
 70
     0
  0
ENDTAB
  0
TABLE
  2
DIMSTYLE
  5
A
330
0
100
AcDbSymbolTable
 70
     1
  0
DIMSTYLE
105
27
330
A
100
AcDbSymbolTableRecord
100
AcDbDimStyleTableRecord
  2
ISO-25
 70
     0
  3

  4

  5

  6

  7

 40
1.0
 41
2.5
 42
0.625
 43
3.75
 44
1.25
 45
0.0
 46
0.0
 47
0.0
 48
0.0
140
2.5
141
2.5
142
0.0
143
0.03937007874016
144
1.0
145
0.0
146
1.0
147
0.625
 71
     0
 72
     0
 73
     0
 74
     0
 75
     0
 76
     0
 77
     1
 78
     8
170
     0
171
     3
172
     1
173
     0
174
     0
175
     0
176
     0
177
     0
178
     0
270
     2
271
     2
272
     2
273
     2
274
     3
340
11
275
     0
280
     0
281
     0
282
     0
283
     0
284
     8
285
     0
286
     0
287
     3
288
     0
  0
ENDTAB
  0
TABLE
  2
BLOCK_RECORD
  5
1
330
0
100
AcDbSymbolTable
 70
     1
  0
BLOCK_RECORD
  5
1F
330
1
100
AcDbSymbolTableRecord
100
AcDbBlockTableRecord
  2
*MODEL_SPACE
  0
BLOCK_RECORD
  5
1B
330
1
100
AcDbSymbolTableRecord
100
AcDbBlockTableRecord
  2
*PAPER_SPACE
  0
ENDTAB
  0
ENDSEC
  0
SECTION
  2
BLOCKS
  0
BLOCK
  5
20
330
1F
100
AcDbEntity
  8
0
100
AcDbBlockBegin
  2
*MODEL_SPACE
 70
     0
 10
0.0
 20
0.0
 30
0.0
  3
*MODEL_SPACE
  1

  0
ENDBLK
  5
21
330
1F
100
AcDbEntity
  8
0
100
AcDbBlockEnd
  0
BLOCK
  5
1C
330
1B
100
AcDbEntity
 67
     1
  8
0
100
AcDbBlockBegin
  2
*PAPER_SPACE
  1

  0
ENDBLK
  5
1D
330
1B
100
AcDbEntity
 67
     1
  8
0
100
AcDbBlockEnd
  0
ENDSEC
  0
SECTION
  2
ENTITIES
  0
SPLINE
  5
100
100
AcDbEntity
  8
0
 62
7
100
AcDbSpline
 70
8
 71
3
 72
8
 73
4
 74
0
 40
0
 40
0
 40
0
 40
0
 40
1
 40
1
 40
1
 40
1
 10
2471603.540494
 20
4901619.303882
 30
0.0
 10
2454481.289157
 20
4901619.303882
 30
0.0
 10
2439045.004949
 20
4891305.108525
 30
0.0
 10
2432492.603037
 20
4875486.210964
 30
0.0
  0
SPLINE
  5
101
100
AcDbEntity
  8
0
 62
7
100
AcDbSpline
 70
8
 71
3
 72
8
 73
4
 74
0
 40
0
 40
0
 40
0
 40
0
 40
1
 40
1
 40
1
 40
1
 10
2432492.603037
 20
4875486.210964
 30
0.0
 10
2425940.201126
 20
4859667.313404
 30
0.0
 10
2429562.064887
 20
4841458.974684
 30
0.0
 10
2441669.324916
 20
4829351.714655
 30
0.0
  0
SPLINE
  5
102
100
AcDbEntity
  8
0
 62
7
100
AcDbSpline
 70
8
 71
3
 72
8
 73
4
 74
0
 40
0
 40
0
 40
0
 40
0
 40
1
 40
1
 40
1
 40
1
 10
2441669.324916
 20
4829351.714655
 30
0.0
 10
2453776.584945
 20
4817244.454625
 30
0.0
 10
2471984.923665
 20
4813622.590864
 30
0.0
 10
2487803.821226
 20
4820174.992776
 30
0.0
  0
SPLINE
  5
103
100
AcDbEntity
  8
0
 62
7
100
AcDbSpline
 70
8
 71
3
 72
8
 73
4
 74
0
 40
0
 40
0
 40
0
 40
0
 40
1
 40
1
 40
1
 40
1
 10
2487803.821226
 20
4820174.992776
 30
0.0
 10
2503622.718786
 20
4826727.394687
 30
0.0
 10
2513936.914144
 20
4842163.678896
 30
0.0
 10
2513936.914144
 20
4859285.930233
 30
0.0
  0
SPLINE
  5
104
100
AcDbEntity
  8
0
 62
7
100
AcDbSpline
 70
8
 71
3
 72
8
 73
4
 74
0
 40
0
 40
0
 40
0
 40
0
 40
1
 40
1
 40
1
 40
1
 10
2513936.914144
 20
4859285.930233
 30
0.0
 10
2513936.914144
 20
4870513.438995
 30
0.0
 10
2509476.803654
 20
4881281.098229
 30
0.0
 10
2501537.756072
 20
4889220.145811
 30
0.0
  0
SPLINE
  5
105
100
AcDbEntity
  8
0
 62
7
100
AcDbSpline
 70
8
 71
3
 72
8
 73
4
 74
0
 40
0
 40
0
 40
0
 40
0
 40
1
 40
1
 40
1
 40
1
 10
2501537.756072
 20
4889220.145811
 30
0.0
 10
2493598.708490
 20
4897159.193392
 30
0.0
 10
2482831.049256
 20
4901619.303882
 30
0.0
 10
2471603.540494
 20
4901619.303882
 30
0.0
  0
SPLINE
  5
106
100
AcDbEntity
  8
0
 62
7
100
AcDbSpline
 70
8
 71
3
 72
8
 73
4
 74
0
 40
0
 40
0
 40
0
 40
0
 40
1
 40
1
 40
1
 40
1
 10
5327783.343905
 20
4901619.303882
 30
0.0
 10
5310661.092569
 20
4901619.303882
 30
0.0
 10
5295224.808360
 20
4891305.108525
 30
0.0
 10
5288672.406449
 20
4875486.210964
 30
0.0
  0
SPLINE
  5
107
100
AcDbEntity
  8
0
 62
7
100
AcDbSpline
 70
8
 71
3
 72
8
 73
4
 74
0
 40
0
 40
0
 40
0
 40
0
 40
1
 40
1
 40
1
 40
1
 10
5288672.406449
 20
4875486.210964
 30
0.0
 10
5282120.004537
 20
4859667.313404
 30
0.0
 10
5285741.868298
 20
4841458.974684
 30
0.0
 10
5297849.128327
 20
4829351.714655
 30
0.0
  0
SPLINE
  5
108
100
AcDbEntity
  8
0
 62
7
100
AcDbSpline
 70
8
 71
3
 72
8
 73
4
 74
0
 40
0
 40
0
 40
0
 40
0
 40
1
 40
1
 40
1
 40
1
 10
5297849.128327
 20
4829351.714655
 30
0.0
 10
5309956.388357
 20
4817244.454625
 30
0.0
 10
5328164.727077
 20
4813622.590864
 30
0.0
 10
5343983.624637
 20
4820174.992776
 30
0.0
  0
SPLINE
  5
109
100
AcDbEntity
  8
0
 62
7
100
AcDbSpline
 70
8
 71
3
 72
8
 73
4
 74
0
 40
0
 40
0
 40
0
 40
0
 40
1
 40
1
 40
1
 40
1
 10
5343983.624637
 20
4820174.992776
 30
0.0
 10
5359802.522198
 20
4826727.394687
 30
0.0
 10
5370116.717555
 20
4842163.678896
 30
0.0
 10
5370116.717555
 20
4859285.930233
 30
0.0
  0
SPLINE
  5
10a
100
AcDbEntity
  8
0
 62
7
100
AcDbSpline
 70
8
 71
3
 72
8
 73
4
 74
0
 40
0
 40
0
 40
0
 40
0
 40
1
 40
1
 40
1
 40
1
 10
5370116.717555
 20
4859285.930233
 30
0.0
 10
5370116.717555
 20
4870513.438995
 30
0.0
 10
5365656.607065
 20
4881281.098229
 30
0.0
 10
5357717.559483
 20
4889220.145811
 30
0.0
  0
SPLINE
  5
10b
100
AcDbEntity
  8
0
 62
7
100
AcDbSpline
 70
8
 71
3
 72
8
 73
4
 74
0
 40
0
 40
0
 40
0
 40
0
 40
1
 40
1
 40
1
 40
1
 10
5357717.559483
 20
4889220.145811
 30
0.0
 10
5349778.511902
 20
4897159.193392
 30
0.0
 10
5339010.852668
 20
4901619.303882
 30
0.0
 10
5327783.343905
 20
4901619.303882
 30
0.0
  0
LWPOLYLINE
  5
10c
100
AcDbEntity
  8
0
 62
7
100
AcDbPolyline
 90
1
 70
1
 10
2471603.540494
 20
4901619.303882
 30
0.0
  0
SPLINE
  5
10d
100
AcDbEntity
  8
0
 62
7
100
AcDbSpline
 70
8
 71
3
 72
8
 73
4
 74
0
 40
0
 40
0
 40
0
 40
0
 40
1
 40
1
 40
1
 40
1
 10
2471603.540494
 20
1520406.501290
 30
0.0
 10
2454481.289157
 20
1520406.501290
 30
0.0
 10
2439045.004949
 20
1510092.305933
 30
0.0
 10
2432492.603037
 20
1494273.408372
 30
0.0
  0
SPLINE
  5
10e
100
AcDbEntity
  8
0
 62
7
100
AcDbSpline
 70
8
 71
3
 72
8
 73
4
 74
0
 40
0
 40
0
 40
0
 40
0
 40
1
 40
1
 40
1
 40
1
 10
2432492.603037
 20
1494273.408372
 30
0.0
 10
2425940.201126
 20
1478454.510812
 30
0.0
 10
2429562.064887
 20
1460246.172092
 30
0.0
 10
2441669.324916
 20
1448138.912062
 30
0.0
  0
SPLINE
  5
10f
100
AcDbEntity
  8
0
 62
7
100
AcDbSpline
 70
8
 71
3
 72
8
 73
4
 74
0
 40
0
 40
0
 40
0
 40
0
 40
1
 40
1
 40
1
 40
1
 10
2441669.324916
 20
1448138.912062
 30
0.0
 10
2453776.584945
 20
1436031.652033
 30
0.0
 10
2471984.923665
 20
1432409.788272
 30
0.0
 10
2487803.821226
 20
1438962.190184
 30
0.0
  0
SPLINE
  5
110
100
AcDbEntity
  8
0
 62
7
100
AcDbSpline
 70
8
 71
3
 72
8
 73
4
 74
0
 40
0
 40
0
 40
0
 40
0
 40
1
 40
1
 40
1
 40
1
 10
2487803.821226
 20
1438962.190184
 30
0.0
 10
2503622.718786
 20
1445514.592095
 30
0.0
 10
2513936.914144
 20
1460950.876304
 30
0.0
 10
2513936.914144
 20
1478073.127640
 30
0.0
  0
SPLINE
  5
111
100
AcDbEntity
  8
0
 62
7
100
AcDbSpline
 70
8
 71
3
 72
8
 73
4
 74
0
 40
0
 40
0
 40
0
 40
0
 40
1
 40
1
 40
1
 40
1
 10
2513936.914144
 20
1478073.127640
 30
0.0
 10
2513936.914144
 20
1489300.636403
 30
0.0
 10
2509476.803654
 20
1500068.295637
 30
0.0
 10
2501537.756072
 20
1508007.343218
 30
0.0
  0
SPLINE
  5
112
100
AcDbEntity
  8
0
 62
7
100
AcDbSpline
 70
8
 71
3
 72
8
 73
4
 74
0
 40
0
 40
0
 40
0
 40
0
 40
1
 40
1
 40
1
 40
1
 10
2501537.756072
 20
1508007.343218
 30
0.0
 10
2493598.708490
 20
1515946.390800
 30
0.0
 10
2482831.049256
 20
1520406.501290
 30
0.0
 10
2471603.540494
 20
1520406.501290
 30
0.0
  0
LWPOLYLINE
  5
113
100
AcDbEntity
  8
0
 62
7
100
AcDbPolyline
 90
1
 70
1
 10
5327783.343905
 20
4901619.303882
 30
0.0
  0
SPLINE
  5
114
100
AcDbEntity
  8
0
 62
7
100
AcDbSpline
 70
8
 71
3
 72
8
 73
4
 74
0
 40
0
 40
0
 40
0
 40
0
 40
1
 40
1
 40
1
 40
1
 10
5609642.710661
 20
4959617.707660
 30
0.0
 10
5609642.710661
 20
5058980.054624
 30
0.0
 10
5527925.108112
 20
5139529.371202
 30
0.0
 10
5427120.817569
 20
5139530.153583
 30
0.0
  0
LWPOLYLINE
  5
115
100
AcDbEntity
  8
0
 62
7
100
AcDbPolyline
 90
1
 70
1
 10
2471603.540494
 20
1520406.501290
 30
0.0
  0
LWPOLYLINE
  5
116
100
AcDbEntity
  8
0
 62
7
100
AcDbPolyline
 90
2
 70
0
 10
2187331.705026
 20
4959617.707660
 30
0.0
 10
2187331.705026
 20
1383857.703284
 30
0.0
  0
SPLINE
  5
117
100
AcDbEntity
  8
0
 62
7
100
AcDbSpline
 70
8
 71
3
 72
8
 73
4
 74
0
 40
0
 40
0
 40
0
 40
0
 40
1
 40
1
 40
1
 40
1
 10
2187331.705026
 20
1383857.703284
 30
0.0
 10
2187332.498751
 20
1284495.127170
 30
0.0
 10
2269050.512279
 20
1203946.039735
 30
0.0
 10
2369855.035310
 20
1203945.257362
 30
0.0
  0
LWPOLYLINE
  5
118
100
AcDbEntity
  8
0
 62
7
100
AcDbPolyline
 90
2
 70
0
 10
5609644.147853
 20
1383857.703284
 30
0.0
 10
5609644.147853
 20
4959617.707660
 30
0.0
  0
SPLINE
  5
119
100
AcDbEntity
  8
0
 62
7
100
AcDbSpline
 70
8
 71
3
 72
8
 73
4
 74
0
 40
0
 40
0
 40
0
 40
0
 40
1
 40
1
 40
1
 40
1
 10
5427120.817569
 20
1203945.257362
 30
0.0
 10
5475529.014541
 20
1203945.257362
 30
0.0
 10
5521954.537794
 20
1222900.264207
 30
0.0
 10
5556184.302138
 20
1256640.392753
 30
0.0
  0
SPLINE
  5
11a
100
AcDbEntity
  8
0
 62
7
100
AcDbSpline
 70
8
 71
3
 72
8
 73
4
 74
0
 40
0
 40
0
 40
0
 40
0
 40
1
 40
1
 40
1
 40
1
 10
5556184.302138
 20
1256640.392753
 30
0.0
 10
5590414.066481
 20
1290380.521299
 30
0.0
 10
5609644.147853
 20
1336141.955898
 30
0.0
 10
5609644.147853
 20
1383857.703284
 30
0.0
  0
LWPOLYLINE
  5
11b
100
AcDbEntity
  8
0
 62
7
100
AcDbPolyline
 90
2
 70
0
 10
5427120.817569
 20
5139530.153583
 30
0.0
 10
2369855.035310
 20
5139530.153583
 30
0.0
  0
SPLINE
  5
11c
100
AcDbEntity
  8
0
 62
7
100
AcDbSpline
 70
8
 71
3
 72
8
 73
4
 74
0
 40
0
 40
0
 40
0
 40
0
 40
1
 40
1
 40
1
 40
1
 10
2369855.035310
 20
5139531.570216
 30
0.0
 10
2269049.951028
 20
5139530.787836
 30
0.0
 10
2187331.705026
 20
5058980.837010
 30
0.0
 10
2187331.705026
 20
4959617.707666
 30
0.0
  0
SPLINE
  5
11d
100
AcDbEntity
  8
0
 62
7
100
AcDbSpline
 70
8
 71
3
 72
8
 73
4
 74
0
 40
0
 40
0
 40
0
 40
0
 40
1
 40
1
 40
1
 40
1
 10
5290299.065095
 20
4667173.945655
 30
0.0
 10
5290299.065095
 20
4750374.183475
 30
0.0
 10
5223840.234122
 20
4817821.486203
 30
0.0
 10
5141858.689172
 20
4817822.141323
 30
0.0
  0
LWPOLYLINE
  5
11e
100
AcDbEntity
  8
0
 62
7
100
AcDbPolyline
 90
2
 70
0
 10
2369855.035310
 20
1203945.257362
 30
0.0
 10
5427120.817569
 20
1203945.257362
 30
0.0
  0
LWPOLYLINE
  5
11f
100
AcDbEntity
  8
0
 62
7
100
AcDbPolyline
 90
2
 70
0
 10
2507021.269798
 20
4667173.945655
 30
0.0
 10
2507021.269798
 20
1673040.938144
 30
0.0
  0
SPLINE
  5
120
100
AcDbEntity
  8
0
 62
7
100
AcDbSpline
 70
8
 71
3
 72
8
 73
4
 74
0
 40
0
 40
0
 40
0
 40
0
 40
1
 40
1
 40
1
 40
1
 10
2507021.269798
 20
1673040.938144
 30
0.0
 10
2507021.915315
 20
1589840.508447
 30
0.0
 10
2573481.080526
 20
1522393.397590
 30
0.0
 10
2655462.814552
 20
1522392.742476
 30
0.0
  0
LWPOLYLINE
  5
121
100
AcDbEntity
  8
0
 62
7
100
AcDbPolyline
 90
2
 70
0
 10
5290300.233926
 20
1673040.938144
 30
0.0
 10
5290300.233926
 20
4667173.945655
 30
0.0
  0
SPLINE
  5
122
100
AcDbEntity
  8
0
 62
7
100
AcDbSpline
 70
8
 71
3
 72
8
 73
4
 74
0
 40
0
 40
0
 40
0
 40
0
 40
1
 40
1
 40
1
 40
1
 10
5141858.689172
 20
1522392.742476
 30
0.0
 10
5181227.834618
 20
1522392.742476
 30
0.0
 10
5218984.522363
 20
1538264.560378
 30
0.0
 10
5246822.712077
 20
1566516.577414
 30
0.0
  0
SPLINE
  5
123
100
AcDbEntity
  8
0
 62
7
100
AcDbSpline
 70
8
 71
3
 72
8
 73
4
 74
0
 40
0
 40
0
 40
0
 40
0
 40
1
 40
1
 40
1
 40
1
 10
5246822.712077
 20
1566516.577414
 30
0.0
 10
5274660.901791
 20
1594768.594449
 30
0.0
 10
5290300.233926
 20
1633086.552488
 30
0.0
 10
5290300.233926
 20
1673040.938144
 30
0.0
  0
LWPOLYLINE
  5
124
100
AcDbEntity
  8
0
 62
7
100
AcDbPolyline
 90
2
 70
0
 10
5141858.689172
 20
4817822.141323
 30
0.0
 10
2655462.814552
 20
4817822.141323
 30
0.0
  0
SPLINE
  5
125
100
AcDbEntity
  8
0
 62
7
100
AcDbSpline
 70
8
 71
3
 72
8
 73
4
 74
0
 40
0
 40
0
 40
0
 40
0
 40
1
 40
1
 40
1
 40
1
 10
2655462.814552
 20
4817823.327529
 30
0.0
 10
2573480.624074
 20
4817822.672409
 30
0.0
 10
2507021.269798
 20
4750374.838598
 30
0.0
 10
2507021.269798
 20
4667173.945660
 30
0.0
  0
SPLINE
  5
126
100
AcDbEntity
  8
0
 62
7
100
AcDbSpline
 70
8
 71
3
 72
8
 73
4
 74
0
 40
0
 40
0
 40
0
 40
0
 40
1
 40
1
 40
1
 40
1
 10
5327783.343905
 20
1520406.501290
 30
0.0
 10
5310661.092569
 20
1520406.501290
 30
0.0
 10
5295224.808360
 20
1510092.305933
 30
0.0
 10
5288672.406449
 20
1494273.408372
 30
0.0
  0
SPLINE
  5
127
100
AcDbEntity
  8
0
 62
7
100
AcDbSpline
 70
8
 71
3
 72
8
 73
4
 74
0
 40
0
 40
0
 40
0
 40
0
 40
1
 40
1
 40
1
 40
1
 10
5288672.406449
 20
1494273.408372
 30
0.0
 10
5282120.004537
 20
1478454.510812
 30
0.0
 10
5285741.868298
 20
1460246.172092
 30
0.0
 10
5297849.128327
 20
1448138.912062
 30
0.0
  0
SPLINE
  5
128
100
AcDbEntity
  8
0
 62
7
100
AcDbSpline
 70
8
 71
3
 72
8
 73
4
 74
0
 40
0
 40
0
 40
0
 40
0
 40
1
 40
1
 40
1
 40
1
 10
5297849.128327
 20
1448138.912062
 30
0.0
 10
5309956.388357
 20
1436031.652033
 30
0.0
 10
5328164.727077
 20
1432409.788272
 30
0.0
 10
5343983.624637
 20
1438962.190184
 30
0.0
  0
SPLINE
  5
129
100
AcDbEntity
  8
0
 62
7
100
AcDbSpline
 70
8
 71
3
 72
8
 73
4
 74
0
 40
0
 40
0
 40
0
 40
0
 40
1
 40
1
 40
1
 40
1
 10
5343983.624637
 20
1438962.190184
 30
0.0
 10
5359802.522198
 20
1445514.592095
 30
0.0
 10
5370116.717555
 20
1460950.876304
 30
0.0
 10
5370116.717555
 20
1478073.127640
 30
0.0
  0
SPLINE
  5
12a
100
AcDbEntity
  8
0
 62
7
100
AcDbSpline
 70
8
 71
3
 72
8
 73
4
 74
0
 40
0
 40
0
 40
0
 40
0
 40
1
 40
1
 40
1
 40
1
 10
5370116.717555
 20
1478073.127640
 30
0.0
 10
5370116.717555
 20
1489300.636403
 30
0.0
 10
5365656.607065
 20
1500068.295637
 30
0.0
 10
5357717.559483
 20
1508007.343218
 30
0.0
  0
SPLINE
  5
12b
100
AcDbEntity
  8
0
 62
7
100
AcDbSpline
 70
8
 71
3
 72
8
 73
4
 74
0
 40
0
 40
0
 40
0
 40
0
 40
1
 40
1
 40
1
 40
1
 10
5357717.559483
 20
1508007.343218
 30
0.0
 10
5349778.511902
 20
1515946.390800
 30
0.0
 10
5339010.852668
 20
1520406.501290
 30
0.0
 10
5327783.343905
 20
1520406.501290
 30
0.0
  0
LWPOLYLINE
  5
12c
100
AcDbEntity
  8
0
 62
7
100
AcDbPolyline
 90
2
 70
0
 10
2655462.814552
 20
1522392.742476
 30
0.0
 10
5141858.689172
 20
1522392.742476
 30
0.0
  0
LWPOLYLINE
  5
12d
100
AcDbEntity
  8
0
 62
7
100
AcDbPolyline
 90
1
 70
1
 10
5327783.343905
 20
1520406.501290
 30
0.0
  0
ENDSEC
  0
SECTION
  2
OBJECTS
  0
DICTIONARY
  5
C
330
0
100
AcDbDictionary
  3
ACAD_GROUP
350
D
  3
ACAD_MLINESTYLE
350
17
  0
DICTIONARY
  5
D
330
C
100
AcDbDictionary
  0
DICTIONARY
  5
1A
330
C
100
AcDbDictionary
  0
DICTIONARY
  5
17
330
C
100
AcDbDictionary
  3
STANDARD
350
18
  0
DICTIONARY
  5
19
330
C
100
AcDbDictionary
  0
ENDSEC
  0
EOF
