  0
SECTION
  2
HEADER
  9
$ACADVER
  1
AC1014
  9
$HANDSEED
  5
FFFF
  9
$MEASUREMENT
 70
     1
  0
ENDSEC
  0
SECTION
  2
TABLES
  0
TABLE
  2
VPORT
  5
8
330
0
100
AcDbSymbolTable
 70
     4
  0
VPORT
  5
2E
330
8
100
AcDbSymbolTableRecord
100
AcDbViewportTableRecord
  2
*ACTIVE
 70
     0
 10
0.0
 20
0.0
 11
1.0
 21
1.0
 12
210.0
 22
148.5
 13
0.0
 23
0.0
 14
10.0
 24
10.0
 15
10.0
 25
10.0
 16
0.0
 26
0.0
 36
1.0
 17
0.0
 27
0.0
 37
0.0
 40
341.0
 41
1.24
 42
50.0
 43
0.0
 44
0.0
 50
0.0
 51
0.0
 71
     0
 72
   100
 73
     1
 74
     3
 75
     0
 76
     0
 77
     0
 78
     0
  0
ENDTAB
  0
TABLE
  2
LTYPE
  5
5
330
0
100
AcDbSymbolTable
 70
     1
  0
LTYPE
  5
14
330
5
100
AcDbSymbolTableRecord
100
AcDbLinetypeTableRecord
  2
BYBLOCK
 70
     0
  3

 72
    65
 73
     0
 40
0.0
  0
LTYPE
  5
15
330
5
100
AcDbSymbolTableRecord
100
AcDbLinetypeTableRecord
  2
BYLAYER
 70
     0
  3

 72
    65
 73
     0
 40
0.0
  0
LTYPE
  5
16
330
5
100
AcDbSymbolTableRecord
100
AcDbLinetypeTableRecord
  2
CONTINUOUS
 70
     0
  3
Solid line
 72
    65
 73
     0
 40
0.0
  0
ENDTAB
  0
TABLE
  2
LAYER
  5
2
100
AcDbSymbolTable
 70
1
  0
LAYER
  5
50
100
AcDbSymbolTableRecord
100
AcDbLayerTableRecord
  2
0
 70
0
  6
CONTINUOUS
  0
ENDTAB
  0
TABLE
  2
STYLE
  5
3
330
0
100
AcDbSymbolTable
 70
     1
  0
STYLE
  5
11
330
3
100
AcDbSymbolTableRecord
100
AcDbTextStyleTableRecord
  2
STANDARD
 70
     0
 40
0.0
 41
1.0
 50
0.0
 71
     0
 42
2.5
  3
txt
  4

  0
ENDTAB
  0
TABLE
  2
VIEW
  5
6
330
0
100
AcDbSymbolTable
 70
     0
  0
ENDTAB
  0
TABLE
  2
UCS
  5
7
330
0
100
AcDbSymbolTable
 70
     0
  0
ENDTAB
  0
TABLE
  2
APPID
  5
9
330
0
100
AcDbSymbolTable
 70
     2
  0
APPID
  5
12
330
9
100
AcDbSymbolTableRecord
100
AcDbRegAppTableRecord
  2
ACAD
 70
     0
  0
ENDTAB
  0
TABLE
  2
DIMSTYLE
  5
A
330
0
100
AcDbSymbolTable
 70
     1
  0
DIMSTYLE
105
27
330
A
100
AcDbSymbolTableRecord
100
AcDbDimStyleTableRecord
  2
ISO-25
 70
     0
  3

  4

  5

  6

  7

 40
1.0
 41
2.5
 42
0.625
 43
3.75
 44
1.25
 45
0.0
 46
0.0
 47
0.0
 48
0.0
140
2.5
141
2.5
142
0.0
143
0.03937007874016
144
1.0
145
0.0
146
1.0
147
0.625
 71
     0
 72
     0
 73
     0
 74
     0
 75
     0
 76
     0
 77
     1
 78
     8
170
     0
171
     3
172
     1
173
     0
174
     0
175
     0
176
     0
177
     0
178
     0
270
     2
271
     2
272
     2
273
     2
274
     3
340
11
275
     0
280
     0
281
     0
282
     0
283
     0
284
     8
285
     0
286
     0
287
     3
288
     0
  0
ENDTAB
  0
TABLE
  2
BLOCK_RECORD
  5
1
330
0
100
AcDbSymbolTable
 70
     1
  0
BLOCK_RECORD
  5
1F
330
1
100
AcDbSymbolTableRecord
100
AcDbBlockTableRecord
  2
*MODEL_SPACE
  0
BLOCK_RECORD
  5
1B
330
1
100
AcDbSymbolTableRecord
100
AcDbBlockTableRecord
  2
*PAPER_SPACE
  0
ENDTAB
  0
ENDSEC
  0
SECTION
  2
BLOCKS
  0
BLOCK
  5
20
330
1F
100
AcDbEntity
  8
0
100
AcDbBlockBegin
  2
*MODEL_SPACE
 70
     0
 10
0.0
 20
0.0
 30
0.0
  3
*MODEL_SPACE
  1

  0
ENDBLK
  5
21
330
1F
100
AcDbEntity
  8
0
100
AcDbBlockEnd
  0
BLOCK
  5
1C
330
1B
100
AcDbEntity
 67
     1
  8
0
100
AcDbBlockBegin
  2
*PAPER_SPACE
  1

  0
ENDBLK
  5
1D
330
1B
100
AcDbEntity
 67
     1
  8
0
100
AcDbBlockEnd
  0
ENDSEC
  0
SECTION
  2
ENTITIES
  0
SPLINE
  5
100
100
AcDbEntity
  8
0
 62
7
100
AcDbSpline
 70
8
 71
3
 72
8
 73
4
 74
0
 40
0
 40
0
 40
0
 40
0
 40
1
 40
1
 40
1
 40
1
 10
3210056.380008
 20
3699635.893134
 30
0.0
 10
3210056.380008
 20
3696127.296645
 30
0.0
 10
3211450.164536
 20
3692762.403135
 30
0.0
 10
3213931.116906
 20
3690281.450765
 30
0.0
  0
SPLINE
  5
101
100
AcDbEntity
  8
0
 62
7
100
AcDbSpline
 70
8
 71
3
 72
8
 73
4
 74
0
 40
0
 40
0
 40
0
 40
0
 40
1
 40
1
 40
1
 40
1
 10
3213931.116906
 20
3690281.450765
 30
0.0
 10
3216412.069275
 20
3687800.498396
 30
0.0
 10
3219776.962786
 20
3686406.713868
 30
0.0
 10
3223285.559274
 20
3686406.713868
 30
0.0
  0
SPLINE
  5
102
100
AcDbEntity
  8
0
 62
7
100
AcDbSpline
 70
8
 71
3
 72
8
 73
4
 74
0
 40
0
 40
0
 40
0
 40
0
 40
1
 40
1
 40
1
 40
1
 10
2706024.649995
 20
2187540.570801
 30
0.0
 10
2706024.649995
 20
2184031.974312
 30
0.0
 10
2707418.434523
 20
2180667.080802
 30
0.0
 10
2709899.386892
 20
2178186.128432
 30
0.0
  0
SPLINE
  5
103
100
AcDbEntity
  8
0
 62
7
100
AcDbSpline
 70
8
 71
3
 72
8
 73
4
 74
0
 40
0
 40
0
 40
0
 40
0
 40
1
 40
1
 40
1
 40
1
 10
2709899.386892
 20
2178186.128432
 30
0.0
 10
2712380.339261
 20
2175705.176063
 30
0.0
 10
2715745.232772
 20
2174311.391535
 30
0.0
 10
2719253.829260
 20
2174311.391535
 30
0.0
  0
LWPOLYLINE
  5
104
100
AcDbEntity
  8
0
 62
7
100
AcDbPolyline
 90
2
 70
0
 10
3714088.110022
 20
3035531.094008
 30
0.0
 10
3714088.110022
 20
2691572.300814
 30
0.0
  0
LWPOLYLINE
  5
105
100
AcDbEntity
  8
0
 62
7
100
AcDbPolyline
 90
2
 70
0
 10
2719253.829260
 20
3686406.713868
 30
0.0
 10
3063212.490162
 20
3686406.713868
 30
0.0
  0
LWPOLYLINE
  5
106
100
AcDbEntity
  8
0
 62
7
100
AcDbPolyline
 90
2
 70
0
 10
4722151.570050
 20
4043594.554035
 30
0.0
 10
4722151.570050
 20
3699635.893134
 30
0.0
  0
SPLINE
  5
107
100
AcDbEntity
  8
0
 62
7
100
AcDbSpline
 70
8
 71
3
 72
8
 73
4
 74
0
 40
0
 40
0
 40
0
 40
0
 40
1
 40
1
 40
1
 40
1
 10
4218119.840036
 20
1935524.705794
 30
0.0
 10
4218119.840036
 20
1932016.109305
 30
0.0
 10
4219513.624564
 20
1928651.215795
 30
0.0
 10
4221994.576933
 20
1926170.263426
 30
0.0
  0
SPLINE
  5
108
100
AcDbEntity
  8
0
 62
7
100
AcDbSpline
 70
8
 71
3
 72
8
 73
4
 74
0
 40
0
 40
0
 40
0
 40
0
 40
1
 40
1
 40
1
 40
1
 10
4221994.576933
 20
1926170.263426
 30
0.0
 10
4224475.529303
 20
1923689.311056
 30
0.0
 10
4227840.422813
 20
1922295.526528
 30
0.0
 10
4231349.019301
 20
1922295.526528
 30
0.0
  0
SPLINE
  5
109
100
AcDbEntity
  8
0
 62
7
100
AcDbSpline
 70
8
 71
3
 72
8
 73
4
 74
0
 40
0
 40
0
 40
0
 40
0
 40
1
 40
1
 40
1
 40
1
 10
4588536.859469
 20
3287546.959015
 30
0.0
 10
4588536.859469
 20
3291055.555503
 30
0.0
 10
4587143.074941
 20
3294420.449014
 30
0.0
 10
4584662.122571
 20
3296901.401383
 30
0.0
  0
SPLINE
  5
10a
100
AcDbEntity
  8
0
 62
7
100
AcDbSpline
 70
8
 71
3
 72
8
 73
4
 74
0
 40
0
 40
0
 40
0
 40
0
 40
1
 40
1
 40
1
 40
1
 10
4584662.122571
 20
3296901.401383
 30
0.0
 10
4582181.170202
 20
3299382.353752
 30
0.0
 10
4578816.276691
 20
3300776.138280
 30
0.0
 10
4575307.680203
 20
3300776.138280
 30
0.0
  0
SPLINE
  5
10b
100
AcDbEntity
  8
0
 62
7
100
AcDbSpline
 70
8
 71
3
 72
8
 73
4
 74
0
 40
0
 40
0
 40
0
 40
0
 40
1
 40
1
 40
1
 40
1
 10
5079339.410217
 20
2174311.391535
 30
0.0
 10
5082848.006705
 20
2174311.391535
 30
0.0
 10
5086212.900216
 20
2175705.176063
 30
0.0
 10
5088693.852585
 20
2178186.128432
 30
0.0
  0
SPLINE
  5
10c
100
AcDbEntity
  8
0
 62
7
100
AcDbSpline
 70
8
 71
3
 72
8
 73
4
 74
0
 40
0
 40
0
 40
0
 40
0
 40
1
 40
1
 40
1
 40
1
 10
5088693.852585
 20
2178186.128432
 30
0.0
 10
5091174.804954
 20
2180667.080802
 30
0.0
 10
5092568.589482
 20
2184031.974312
 30
0.0
 10
5092568.589482
 20
2187540.570801
 30
0.0
  0
LWPOLYLINE
  5
10d
100
AcDbEntity
  8
0
 62
7
100
AcDbPolyline
 90
2
 70
0
 10
3311233.143031
 20
4634071.033041
 30
0.0
 10
3311233.143031
 20
4260240.885358
 30
0.0
  0
LWPOLYLINE
  5
10e
100
AcDbEntity
  8
0
 62
7
100
AcDbPolyline
 90
2
 70
0
 10
2706024.649995
 20
4043594.554035
 30
0.0
 10
2706024.649995
 20
3699635.893134
 30
0.0
  0
SPLINE
  5
10f
100
AcDbEntity
  8
0
 62
7
100
AcDbSpline
 70
8
 71
3
 72
8
 73
4
 74
0
 40
0
 40
0
 40
0
 40
0
 40
1
 40
1
 40
1
 40
1
 10
2471603.540494
 20
4901619.303882
 30
0.0
 10
2454481.289157
 20
4901619.303882
 30
0.0
 10
2439045.004949
 20
4891305.108525
 30
0.0
 10
2432492.603037
 20
4875486.210964
 30
0.0
  0
SPLINE
  5
110
100
AcDbEntity
  8
0
 62
7
100
AcDbSpline
 70
8
 71
3
 72
8
 73
4
 74
0
 40
0
 40
0
 40
0
 40
0
 40
1
 40
1
 40
1
 40
1
 10
2432492.603037
 20
4875486.210964
 30
0.0
 10
2425940.201126
 20
4859667.313404
 30
0.0
 10
2429562.064887
 20
4841458.974684
 30
0.0
 10
2441669.324916
 20
4829351.714655
 30
0.0
  0
SPLINE
  5
111
100
AcDbEntity
  8
0
 62
7
100
AcDbSpline
 70
8
 71
3
 72
8
 73
4
 74
0
 40
0
 40
0
 40
0
 40
0
 40
1
 40
1
 40
1
 40
1
 10
2441669.324916
 20
4829351.714655
 30
0.0
 10
2453776.584945
 20
4817244.454625
 30
0.0
 10
2471984.923665
 20
4813622.590864
 30
0.0
 10
2487803.821226
 20
4820174.992776
 30
0.0
  0
SPLINE
  5
112
100
AcDbEntity
  8
0
 62
7
100
AcDbSpline
 70
8
 71
3
 72
8
 73
4
 74
0
 40
0
 40
0
 40
0
 40
0
 40
1
 40
1
 40
1
 40
1
 10
2487803.821226
 20
4820174.992776
 30
0.0
 10
2503622.718786
 20
4826727.394687
 30
0.0
 10
2513936.914144
 20
4842163.678896
 30
0.0
 10
2513936.914144
 20
4859285.930233
 30
0.0
  0
SPLINE
  5
113
100
AcDbEntity
  8
0
 62
7
100
AcDbSpline
 70
8
 71
3
 72
8
 73
4
 74
0
 40
0
 40
0
 40
0
 40
0
 40
1
 40
1
 40
1
 40
1
 10
2513936.914144
 20
4859285.930233
 30
0.0
 10
2513936.914144
 20
4870513.438995
 30
0.0
 10
2509476.803654
 20
4881281.098229
 30
0.0
 10
2501537.756072
 20
4889220.145811
 30
0.0
  0
SPLINE
  5
114
100
AcDbEntity
  8
0
 62
7
100
AcDbSpline
 70
8
 71
3
 72
8
 73
4
 74
0
 40
0
 40
0
 40
0
 40
0
 40
1
 40
1
 40
1
 40
1
 10
2501537.756072
 20
4889220.145811
 30
0.0
 10
2493598.708490
 20
4897159.193392
 30
0.0
 10
2482831.049256
 20
4901619.303882
 30
0.0
 10
2471603.540494
 20
4901619.303882
 30
0.0
  0
LWPOLYLINE
  5
115
100
AcDbEntity
  8
0
 62
7
100
AcDbPolyline
 90
2
 70
0
 10
5092568.589482
 20
3035531.094008
 30
0.0
 10
5092568.589482
 20
2691572.300814
 30
0.0
  0
SPLINE
  5
116
100
AcDbEntity
  8
0
 62
7
100
AcDbSpline
 70
8
 71
3
 72
8
 73
4
 74
0
 40
0
 40
0
 40
0
 40
0
 40
1
 40
1
 40
1
 40
1
 10
4735380.749315
 20
2040696.680954
 30
0.0
 10
4731872.152827
 20
2040696.680954
 30
0.0
 10
4728507.259316
 20
2039302.896426
 30
0.0
 10
4726026.306947
 20
2036821.944057
 30
0.0
  0
SPLINE
  5
117
100
AcDbEntity
  8
0
 62
7
100
AcDbSpline
 70
8
 71
3
 72
8
 73
4
 74
0
 40
0
 40
0
 40
0
 40
0
 40
1
 40
1
 40
1
 40
1
 10
4726026.306947
 20
2036821.944057
 30
0.0
 10
4723545.354578
 20
2034340.991687
 30
0.0
 10
4722151.570050
 20
2030976.098177
 30
0.0
 10
4722151.570050
 20
2027467.501689
 30
0.0
  0
SPLINE
  5
118
100
AcDbEntity
  8
0
 62
7
100
AcDbSpline
 70
8
 71
3
 72
8
 73
4
 74
0
 40
0
 40
0
 40
0
 40
0
 40
1
 40
1
 40
1
 40
1
 10
3714088.110022
 20
3195604.163120
 30
0.0
 10
3714088.110022
 20
3192095.566632
 30
0.0
 10
3715481.894550
 20
3188730.673121
 30
0.0
 10
3717962.846919
 20
3186249.720752
 30
0.0
  0
SPLINE
  5
119
100
AcDbEntity
  8
0
 62
7
100
AcDbSpline
 70
8
 71
3
 72
8
 73
4
 74
0
 40
0
 40
0
 40
0
 40
0
 40
1
 40
1
 40
1
 40
1
 10
3717962.846919
 20
3186249.720752
 30
0.0
 10
3720443.799289
 20
3183768.768382
 30
0.0
 10
3723808.692799
 20
3182374.983854
 30
0.0
 10
3727317.289288
 20
3182374.983854
 30
0.0
  0
LWPOLYLINE
  5
11a
100
AcDbEntity
  8
0
 62
7
100
AcDbPolyline
 90
1
 70
1
 10
2471603.540494
 20
4901619.303882
 30
0.0
  0
SPLINE
  5
11b
100
AcDbEntity
  8
0
 62
7
100
AcDbSpline
 70
8
 71
3
 72
8
 73
4
 74
0
 40
0
 40
0
 40
0
 40
0
 40
1
 40
1
 40
1
 40
1
 10
4178432.302240
 20
2892311.866988
 30
0.0
 10
4174923.705751
 20
2892311.866988
 30
0.0
 10
4171558.812241
 20
2890918.082460
 30
0.0
 10
4169077.859871
 20
2888437.130091
 30
0.0
  0
SPLINE
  5
11c
100
AcDbEntity
  8
0
 62
7
100
AcDbSpline
 70
8
 71
3
 72
8
 73
4
 74
0
 40
0
 40
0
 40
0
 40
0
 40
1
 40
1
 40
1
 40
1
 10
4169077.859871
 20
2888437.130091
 30
0.0
 10
4166596.907502
 20
2885956.177722
 30
0.0
 10
4165203.122974
 20
2882591.284211
 30
0.0
 10
4165203.122974
 20
2879082.687723
 30
0.0
  0
SPLINE
  5
11d
100
AcDbEntity
  8
0
 62
7
100
AcDbSpline
 70
8
 71
3
 72
8
 73
4
 74
0
 40
0
 40
0
 40
0
 40
0
 40
1
 40
1
 40
1
 40
1
 10
4562078.500938
 20
2879082.687723
 30
0.0
 10
4562078.500938
 20
2882591.284211
 30
0.0
 10
4560684.716410
 20
2885956.177722
 30
0.0
 10
4558203.764040
 20
2888437.130091
 30
0.0
  0
SPLINE
  5
11e
100
AcDbEntity
  8
0
 62
7
100
AcDbSpline
 70
8
 71
3
 72
8
 73
4
 74
0
 40
0
 40
0
 40
0
 40
0
 40
1
 40
1
 40
1
 40
1
 10
4558203.764040
 20
2888437.130091
 30
0.0
 10
4555722.811671
 20
2890918.082460
 30
0.0
 10
4552357.918160
 20
2892311.866988
 30
0.0
 10
4548849.321672
 20
2892311.866988
 30
0.0
  0
LWPOLYLINE
  5
11f
100
AcDbEntity
  8
0
 62
7
100
AcDbPolyline
 90
2
 70
0
 10
2706146.358444
 20
4605173.213854
 30
0.0
 10
2908854.426493
 20
4605173.213854
 30
0.0
  0
SPLINE
  5
120
100
AcDbEntity
  8
0
 62
7
100
AcDbSpline
 70
8
 71
3
 72
8
 73
4
 74
0
 40
0
 40
0
 40
0
 40
0
 40
1
 40
1
 40
1
 40
1
 10
4165203.122974
 20
2343988.844794
 30
0.0
 10
4165203.122974
 20
2340480.248306
 30
0.0
 10
4166596.907502
 20
2337115.354795
 30
0.0
 10
4169077.859871
 20
2334634.402426
 30
0.0
  0
SPLINE
  5
121
100
AcDbEntity
  8
0
 62
7
100
AcDbSpline
 70
8
 71
3
 72
8
 73
4
 74
0
 40
0
 40
0
 40
0
 40
0
 40
1
 40
1
 40
1
 40
1
 10
4169077.859871
 20
2334634.402426
 30
0.0
 10
4171558.812241
 20
2332153.450056
 30
0.0
 10
4174923.705751
 20
2330759.665528
 30
0.0
 10
4178432.302240
 20
2330759.665528
 30
0.0
  0
SPLINE
  5
122
100
AcDbEntity
  8
0
 62
7
100
AcDbSpline
 70
8
 71
3
 72
8
 73
4
 74
0
 40
0
 40
0
 40
0
 40
0
 40
1
 40
1
 40
1
 40
1
 10
3580473.399441
 20
3539562.824022
 30
0.0
 10
3580473.399441
 20
3543071.420510
 30
0.0
 10
3579079.614913
 20
3546436.314020
 30
0.0
 10
3576598.662544
 20
3548917.266390
 30
0.0
  0
SPLINE
  5
123
100
AcDbEntity
  8
0
 62
7
100
AcDbSpline
 70
8
 71
3
 72
8
 73
4
 74
0
 40
0
 40
0
 40
0
 40
0
 40
1
 40
1
 40
1
 40
1
 10
3576598.662544
 20
3548917.266390
 30
0.0
 10
3574117.710174
 20
3551398.218759
 30
0.0
 10
3570752.816664
 20
3552792.003287
 30
0.0
 10
3567244.220176
 20
3552792.003287
 30
0.0
  0
LWPOLYLINE
  5
124
100
AcDbEntity
  8
0
 62
7
100
AcDbPolyline
 90
2
 70
0
 10
4735380.749315
 20
3552792.003287
 30
0.0
 10
5079339.410217
 20
3552792.003287
 30
0.0
  0
SPLINE
  5
125
100
AcDbEntity
  8
0
 62
7
100
AcDbSpline
 70
8
 71
3
 72
8
 73
4
 74
0
 40
0
 40
0
 40
0
 40
0
 40
1
 40
1
 40
1
 40
1
 10
4218119.840036
 20
3699635.893134
 30
0.0
 10
4218119.840036
 20
3696127.296645
 30
0.0
 10
4219513.624564
 20
3692762.403135
 30
0.0
 10
4221994.576933
 20
3690281.450765
 30
0.0
  0
SPLINE
  5
126
100
AcDbEntity
  8
0
 62
7
100
AcDbSpline
 70
8
 71
3
 72
8
 73
4
 74
0
 40
0
 40
0
 40
0
 40
0
 40
1
 40
1
 40
1
 40
1
 10
4221994.576933
 20
3690281.450765
 30
0.0
 10
4224475.529303
 20
3687800.498396
 30
0.0
 10
4227840.422813
 20
3686406.713868
 30
0.0
 10
4231349.019301
 20
3686406.713868
 30
0.0
  0
LWPOLYLINE
  5
127
100
AcDbEntity
  8
0
 62
7
100
AcDbPolyline
 90
2
 70
0
 10
4548849.321672
 20
2707103.357272
 30
0.0
 10
4178432.302240
 20
2707103.357272
 30
0.0
  0
SPLINE
  5
128
100
AcDbEntity
  8
0
 62
7
100
AcDbSpline
 70
8
 71
3
 72
8
 73
4
 74
0
 40
0
 40
0
 40
0
 40
0
 40
1
 40
1
 40
1
 40
1
 10
3727317.289288
 20
3552792.003287
 30
0.0
 10
3723808.692799
 20
3552792.003287
 30
0.0
 10
3720443.799289
 20
3551398.218759
 30
0.0
 10
3717962.846919
 20
3548917.266390
 30
0.0
  0
SPLINE
  5
129
100
AcDbEntity
  8
0
 62
7
100
AcDbSpline
 70
8
 71
3
 72
8
 73
4
 74
0
 40
0
 40
0
 40
0
 40
0
 40
1
 40
1
 40
1
 40
1
 10
3717962.846919
 20
3548917.266390
 30
0.0
 10
3715481.894550
 20
3546436.314020
 30
0.0
 10
3714088.110022
 20
3543071.420510
 30
0.0
 10
3714088.110022
 20
3539562.824022
 30
0.0
  0
LWPOLYLINE
  5
12a
100
AcDbEntity
  8
0
 62
7
100
AcDbPolyline
 90
2
 70
0
 10
5126170.704817
 20
4532169.310995
 30
0.0
 10
5126170.704817
 20
4106766.530864
 30
0.0
  0
SPLINE
  5
12b
100
AcDbEntity
  8
0
 62
7
100
AcDbSpline
 70
8
 71
3
 72
8
 73
4
 74
0
 40
0
 40
0
 40
0
 40
0
 40
1
 40
1
 40
1
 40
1
 10
4218119.840036
 20
2943588.298113
 30
0.0
 10
4218119.840036
 20
2940079.701625
 30
0.0
 10
4219513.624564
 20
2936714.808114
 30
0.0
 10
4221994.576933
 20
2934233.855745
 30
0.0
  0
SPLINE
  5
12c
100
AcDbEntity
  8
0
 62
7
100
AcDbSpline
 70
8
 71
3
 72
8
 73
4
 74
0
 40
0
 40
0
 40
0
 40
0
 40
1
 40
1
 40
1
 40
1
 10
4221994.576933
 20
2934233.855745
 30
0.0
 10
4224475.529303
 20
2931752.903376
 30
0.0
 10
4227840.422813
 20
2930359.118848
 30
0.0
 10
4231349.019301
 20
2930359.118848
 30
0.0
  0
SPLINE
  5
12d
100
AcDbEntity
  8
0
 62
7
100
AcDbSpline
 70
8
 71
3
 72
8
 73
4
 74
0
 40
0
 40
0
 40
0
 40
0
 40
1
 40
1
 40
1
 40
1
 10
4575307.680203
 20
3686406.713868
 30
0.0
 10
4578816.276691
 20
3686406.713868
 30
0.0
 10
4582181.170202
 20
3687800.498396
 30
0.0
 10
4584662.122571
 20
3690281.450765
 30
0.0
  0
SPLINE
  5
12e
100
AcDbEntity
  8
0
 62
7
100
AcDbSpline
 70
8
 71
3
 72
8
 73
4
 74
0
 40
0
 40
0
 40
0
 40
0
 40
1
 40
1
 40
1
 40
1
 10
4584662.122571
 20
3690281.450765
 30
0.0
 10
4587143.074941
 20
3692762.403135
 30
0.0
 10
4588536.859469
 20
3696127.296645
 30
0.0
 10
4588536.859469
 20
3699635.893134
 30
0.0
  0
LWPOLYLINE
  5
12f
100
AcDbEntity
  8
0
 62
7
100
AcDbPolyline
 90
2
 70
0
 10
3328457.534434
 20
2027467.501689
 30
0.0
 10
3328457.534434
 20
1683508.840787
 30
0.0
  0
SPLINE
  5
130
100
AcDbEntity
  8
0
 62
7
100
AcDbSpline
 70
8
 71
3
 72
8
 73
4
 74
0
 40
0
 40
0
 40
0
 40
0
 40
1
 40
1
 40
1
 40
1
 10
3580473.399441
 20
4043594.554035
 30
0.0
 10
3580473.399441
 20
4047103.150524
 30
0.0
 10
3579079.614913
 20
4050468.044034
 30
0.0
 10
3576598.662544
 20
4052948.996404
 30
0.0
  0
SPLINE
  5
131
100
AcDbEntity
  8
0
 62
7
100
AcDbSpline
 70
8
 71
3
 72
8
 73
4
 74
0
 40
0
 40
0
 40
0
 40
0
 40
1
 40
1
 40
1
 40
1
 10
3576598.662544
 20
4052948.996404
 30
0.0
 10
3574117.710174
 20
4055429.948773
 30
0.0
 10
3570752.816664
 20
4056823.733301
 30
0.0
 10
3567244.220176
 20
4056823.733301
 30
0.0
  0
SPLINE
  5
132
100
AcDbEntity
  8
0
 62
7
100
AcDbSpline
 70
8
 71
3
 72
8
 73
4
 74
0
 40
0
 40
0
 40
0
 40
0
 40
1
 40
1
 40
1
 40
1
 10
4575307.680203
 20
1922295.526528
 30
0.0
 10
4578816.276691
 20
1922295.526528
 30
0.0
 10
4582181.170202
 20
1923689.311056
 30
0.0
 10
4584662.122571
 20
1926170.263426
 30
0.0
  0
SPLINE
  5
133
100
AcDbEntity
  8
0
 62
7
100
AcDbSpline
 70
8
 71
3
 72
8
 73
4
 74
0
 40
0
 40
0
 40
0
 40
0
 40
1
 40
1
 40
1
 40
1
 10
4584662.122571
 20
1926170.263426
 30
0.0
 10
4587143.074941
 20
1928651.215795
 30
0.0
 10
4588536.859469
 20
1932016.109305
 30
0.0
 10
4588536.859469
 20
1935524.705794
 30
0.0
  0
LWPOLYLINE
  5
134
100
AcDbEntity
  8
0
 62
7
100
AcDbPolyline
 90
2
 70
0
 10
2971269.694267
 20
2040696.680954
 30
0.0
 10
3315228.355169
 20
2040696.680954
 30
0.0
  0
LWPOLYLINE
  5
135
100
AcDbEntity
  8
0
 62
7
100
AcDbPolyline
 90
2
 70
0
 10
3223285.559274
 20
2174311.391535
 30
0.0
 10
3567244.220176
 20
2174311.391535
 30
0.0
  0
SPLINE
  5
136
100
AcDbEntity
  8
0
 62
7
100
AcDbSpline
 70
8
 71
3
 72
8
 73
4
 74
0
 40
0
 40
0
 40
0
 40
0
 40
1
 40
1
 40
1
 40
1
 10
5079339.410217
 20
3686406.713868
 30
0.0
 10
5082848.006705
 20
3686406.713868
 30
0.0
 10
5086212.900216
 20
3687800.498396
 30
0.0
 10
5088693.852585
 20
3690281.450765
 30
0.0
  0
SPLINE
  5
137
100
AcDbEntity
  8
0
 62
7
100
AcDbSpline
 70
8
 71
3
 72
8
 73
4
 74
0
 40
0
 40
0
 40
0
 40
0
 40
1
 40
1
 40
1
 40
1
 10
5088693.852585
 20
3690281.450765
 30
0.0
 10
5091174.804954
 20
3692762.403135
 30
0.0
 10
5092568.589482
 20
3696127.296645
 30
0.0
 10
5092568.589482
 20
3699635.893134
 30
0.0
  0
LWPOLYLINE
  5
138
100
AcDbEntity
  8
0
 62
7
100
AcDbPolyline
 90
2
 70
0
 10
4690015.247778
 20
4532169.310995
 30
0.0
 10
5126170.704817
 20
4532169.310995
 30
0.0
  0
SPLINE
  5
139
100
AcDbEntity
  8
0
 62
7
100
AcDbSpline
 70
8
 71
3
 72
8
 73
4
 74
0
 40
0
 40
0
 40
0
 40
0
 40
1
 40
1
 40
1
 40
1
 10
3223285.559274
 20
2544728.410968
 30
0.0
 10
3219776.962786
 20
2544728.410968
 30
0.0
 10
3216412.069275
 20
2543334.626440
 30
0.0
 10
3213931.116906
 20
2540853.674070
 30
0.0
  0
SPLINE
  5
13a
100
AcDbEntity
  8
0
 62
7
100
AcDbSpline
 70
8
 71
3
 72
8
 73
4
 74
0
 40
0
 40
0
 40
0
 40
0
 40
1
 40
1
 40
1
 40
1
 10
3213931.116906
 20
2540853.674070
 30
0.0
 10
3211450.164536
 20
2538372.721701
 30
0.0
 10
3210056.380008
 20
2535007.828191
 30
0.0
 10
3210056.380008
 20
2531499.231702
 30
0.0
  0
SPLINE
  5
13b
100
AcDbEntity
  8
0
 62
7
100
AcDbSpline
 70
8
 71
3
 72
8
 73
4
 74
0
 40
0
 40
0
 40
0
 40
0
 40
1
 40
1
 40
1
 40
1
 10
4548849.321672
 20
3338823.257848
 30
0.0
 10
4552357.918160
 20
3338823.257848
 30
0.0
 10
4555722.811671
 20
3340217.042376
 30
0.0
 10
4558203.764040
 20
3342697.994745
 30
0.0
  0
SPLINE
  5
13c
100
AcDbEntity
  8
0
 62
7
100
AcDbSpline
 70
8
 71
3
 72
8
 73
4
 74
0
 40
0
 40
0
 40
0
 40
0
 40
1
 40
1
 40
1
 40
1
 10
4558203.764040
 20
3342697.994745
 30
0.0
 10
4560684.716410
 20
3345178.947114
 30
0.0
 10
4562078.500938
 20
3348543.840625
 30
0.0
 10
4562078.500938
 20
3352052.437113
 30
0.0
  0
SPLINE
  5
13d
100
AcDbEntity
  8
0
 62
7
100
AcDbSpline
 70
8
 71
3
 72
8
 73
4
 74
0
 40
0
 40
0
 40
0
 40
0
 40
1
 40
1
 40
1
 40
1
 10
3727317.289288
 20
2544728.410968
 30
0.0
 10
3723808.692799
 20
2544728.410968
 30
0.0
 10
3720443.799289
 20
2543334.626440
 30
0.0
 10
3717962.846919
 20
2540853.674070
 30
0.0
  0
SPLINE
  5
13e
100
AcDbEntity
  8
0
 62
7
100
AcDbSpline
 70
8
 71
3
 72
8
 73
4
 74
0
 40
0
 40
0
 40
0
 40
0
 40
1
 40
1
 40
1
 40
1
 10
3717962.846919
 20
2540853.674070
 30
0.0
 10
3715481.894550
 20
2538372.721701
 30
0.0
 10
3714088.110022
 20
2535007.828191
 30
0.0
 10
3714088.110022
 20
2531499.231702
 30
0.0
  0
LWPOLYLINE
  5
13f
100
AcDbEntity
  8
0
 62
7
100
AcDbPolyline
 90
2
 70
0
 10
2719253.829260
 20
2174311.391535
 30
0.0
 10
3063212.490162
 20
2174311.391535
 30
0.0
  0
LWPOLYLINE
  5
140
100
AcDbEntity
  8
0
 62
7
100
AcDbPolyline
 90
2
 70
0
 10
2748014.064983
 20
1617362.944460
 30
0.0
 10
2906764.216169
 20
1617362.944460
 30
0.0
  0
LWPOLYLINE
  5
141
100
AcDbEntity
  8
0
 62
7
100
AcDbPolyline
 90
2
 70
0
 10
4548849.321672
 20
3524031.767564
 30
0.0
 10
4178432.302240
 20
3524031.767564
 30
0.0
  0
LWPOLYLINE
  5
142
100
AcDbEntity
  8
0
 62
7
100
AcDbPolyline
 90
2
 70
0
 10
2958040.515002
 20
2027467.501689
 30
0.0
 10
2958040.515002
 20
1683508.840787
 30
0.0
  0
LWPOLYLINE
  5
143
100
AcDbEntity
  8
0
 62
7
100
AcDbPolyline
 90
2
 70
0
 10
4735380.749315
 20
1670279.661521
 30
0.0
 10
5079339.410217
 20
1670279.661521
 30
0.0
  0
SPLINE
  5
144
100
AcDbEntity
  8
0
 62
7
100
AcDbSpline
 70
8
 71
3
 72
8
 73
4
 74
0
 40
0
 40
0
 40
0
 40
0
 40
1
 40
1
 40
1
 40
1
 10
4084505.129455
 20
3539562.824022
 30
0.0
 10
4084505.129455
 20
3543071.420510
 30
0.0
 10
4083111.344927
 20
3546436.314020
 30
0.0
 10
4080630.392558
 20
3548917.266390
 30
0.0
  0
SPLINE
  5
145
100
AcDbEntity
  8
0
 62
7
100
AcDbSpline
 70
8
 71
3
 72
8
 73
4
 74
0
 40
0
 40
0
 40
0
 40
0
 40
1
 40
1
 40
1
 40
1
 10
4080630.392558
 20
3548917.266390
 30
0.0
 10
4078149.440188
 20
3551398.218759
 30
0.0
 10
4074784.546678
 20
3552792.003287
 30
0.0
 10
4071275.950189
 20
3552792.003287
 30
0.0
  0
SPLINE
  5
146
100
AcDbEntity
  8
0
 62
7
100
AcDbSpline
 70
8
 71
3
 72
8
 73
4
 74
0
 40
0
 40
0
 40
0
 40
0
 40
1
 40
1
 40
1
 40
1
 10
3727317.289288
 20
2040696.680954
 30
0.0
 10
3723808.692799
 20
2040696.680954
 30
0.0
 10
3720443.799289
 20
2039302.896426
 30
0.0
 10
3717962.846919
 20
2036821.944057
 30
0.0
  0
SPLINE
  5
147
100
AcDbEntity
  8
0
 62
7
100
AcDbSpline
 70
8
 71
3
 72
8
 73
4
 74
0
 40
0
 40
0
 40
0
 40
0
 40
1
 40
1
 40
1
 40
1
 10
3717962.846919
 20
2036821.944057
 30
0.0
 10
3715481.894550
 20
2034340.991687
 30
0.0
 10
3714088.110022
 20
2030976.098177
 30
0.0
 10
3714088.110022
 20
2027467.501689
 30
0.0
  0
SPLINE
  5
148
100
AcDbEntity
  8
0
 62
7
100
AcDbSpline
 70
8
 71
3
 72
8
 73
4
 74
0
 40
0
 40
0
 40
0
 40
0
 40
1
 40
1
 40
1
 40
1
 10
2734784.885718
 20
1630592.123725
 30
0.0
 10
2734784.885718
 20
1627083.527237
 30
0.0
 10
2736178.670246
 20
1623718.633726
 30
0.0
 10
2738659.622615
 20
1621237.681357
 30
0.0
  0
SPLINE
  5
149
100
AcDbEntity
  8
0
 62
7
100
AcDbSpline
 70
8
 71
3
 72
8
 73
4
 74
0
 40
0
 40
0
 40
0
 40
0
 40
1
 40
1
 40
1
 40
1
 10
2738659.622615
 20
1621237.681357
 30
0.0
 10
2741140.574984
 20
1618756.728988
 30
0.0
 10
2744505.468495
 20
1617362.944460
 30
0.0
 10
2748014.064983
 20
1617362.944460
 30
0.0
  0
LWPOLYLINE
  5
14a
100
AcDbEntity
  8
0
 62
7
100
AcDbPolyline
 90
2
 70
0
 10
5092568.589482
 20
2027467.501689
 30
0.0
 10
5092568.589482
 20
1683508.840787
 30
0.0
  0
LWPOLYLINE
  5
14b
100
AcDbEntity
  8
0
 62
7
100
AcDbPolyline
 90
2
 70
0
 10
4562078.500938
 20
2502738.995979
 30
0.0
 10
4562078.500938
 20
2343988.844794
 30
0.0
  0
SPLINE
  5
14c
100
AcDbEntity
  8
0
 62
7
100
AcDbSpline
 70
8
 71
3
 72
8
 73
4
 74
0
 40
0
 40
0
 40
0
 40
0
 40
1
 40
1
 40
1
 40
1
 10
3076441.669427
 20
3035531.094008
 30
0.0
 10
3076441.669427
 20
3039039.690496
 30
0.0
 10
3075047.884899
 20
3042404.584007
 30
0.0
 10
3072566.932530
 20
3044885.536376
 30
0.0
  0
SPLINE
  5
14d
100
AcDbEntity
  8
0
 62
7
100
AcDbSpline
 70
8
 71
3
 72
8
 73
4
 74
0
 40
0
 40
0
 40
0
 40
0
 40
1
 40
1
 40
1
 40
1
 10
3072566.932530
 20
3044885.536376
 30
0.0
 10
3070085.980161
 20
3047366.488745
 30
0.0
 10
3066721.086650
 20
3048760.273273
 30
0.0
 10
3063212.490162
 20
3048760.273273
 30
0.0
  0
LWPOLYLINE
  5
14e
100
AcDbEntity
  8
0
 62
7
100
AcDbPolyline
 90
2
 70
0
 10
4575307.680203
 20
3300776.138280
 30
0.0
 10
4231349.019301
 20
3300776.138280
 30
0.0
  0
LWPOLYLINE
  5
14f
100
AcDbEntity
  8
0
 62
7
100
AcDbPolyline
 90
2
 70
0
 10
3210056.380008
 20
3539562.824022
 30
0.0
 10
3210056.380008
 20
3195604.163120
 30
0.0
  0
LWPOLYLINE
  5
150
100
AcDbEntity
  8
0
 62
7
100
AcDbPolyline
 90
2
 70
0
 10
3210056.380008
 20
4043594.554035
 30
0.0
 10
3210056.380008
 20
3699635.893134
 30
0.0
  0
SPLINE
  5
151
100
AcDbEntity
  8
0
 62
7
100
AcDbSpline
 70
8
 71
3
 72
8
 73
4
 74
0
 40
0
 40
0
 40
0
 40
0
 40
1
 40
1
 40
1
 40
1
 10
4231349.019301
 20
3300776.138280
 30
0.0
 10
4227840.422813
 20
3300776.138280
 30
0.0
 10
4224475.529303
 20
3299382.353752
 30
0.0
 10
4221994.576933
 20
3296901.401383
 30
0.0
  0
SPLINE
  5
152
100
AcDbEntity
  8
0
 62
7
100
AcDbSpline
 70
8
 71
3
 72
8
 73
4
 74
0
 40
0
 40
0
 40
0
 40
0
 40
1
 40
1
 40
1
 40
1
 10
4221994.576933
 20
3296901.401383
 30
0.0
 10
4219513.624564
 20
3294420.449014
 30
0.0
 10
4218119.840036
 20
3291055.555503
 30
0.0
 10
4218119.840036
 20
3287546.959015
 30
0.0
  0
SPLINE
  5
153
100
AcDbEntity
  8
0
 62
7
100
AcDbSpline
 70
8
 71
3
 72
8
 73
4
 74
0
 40
0
 40
0
 40
0
 40
0
 40
1
 40
1
 40
1
 40
1
 10
2719253.829260
 20
2544728.410968
 30
0.0
 10
2715745.232772
 20
2544728.410968
 30
0.0
 10
2712380.339261
 20
2543334.626440
 30
0.0
 10
2709899.386892
 20
2540853.674070
 30
0.0
  0
SPLINE
  5
154
100
AcDbEntity
  8
0
 62
7
100
AcDbSpline
 70
8
 71
3
 72
8
 73
4
 74
0
 40
0
 40
0
 40
0
 40
0
 40
1
 40
1
 40
1
 40
1
 10
2709899.386892
 20
2540853.674070
 30
0.0
 10
2707418.434523
 20
2538372.721701
 30
0.0
 10
2706024.649995
 20
2535007.828191
 30
0.0
 10
2706024.649995
 20
2531499.231702
 30
0.0
  0
LWPOLYLINE
  5
155
100
AcDbEntity
  8
0
 62
7
100
AcDbPolyline
 90
2
 70
0
 10
3210056.380008
 20
2531499.231702
 30
0.0
 10
3210056.380008
 20
2187540.570801
 30
0.0
  0
SPLINE
  5
156
100
AcDbEntity
  8
0
 62
7
100
AcDbSpline
 70
8
 71
3
 72
8
 73
4
 74
0
 40
0
 40
0
 40
0
 40
0
 40
1
 40
1
 40
1
 40
1
 10
4178432.302240
 20
1884248.406961
 30
0.0
 10
4174923.705751
 20
1884248.406961
 30
0.0
 10
4171558.812241
 20
1882854.622433
 30
0.0
 10
4169077.859871
 20
1880373.670063
 30
0.0
  0
SPLINE
  5
157
100
AcDbEntity
  8
0
 62
7
100
AcDbSpline
 70
8
 71
3
 72
8
 73
4
 74
0
 40
0
 40
0
 40
0
 40
0
 40
1
 40
1
 40
1
 40
1
 10
4169077.859871
 20
1880373.670063
 30
0.0
 10
4166596.907502
 20
1877892.717694
 30
0.0
 10
4165203.122974
 20
1874527.824184
 30
0.0
 10
4165203.122974
 20
1871019.227695
 30
0.0
  0
LWPOLYLINE
  5
158
100
AcDbEntity
  8
0
 62
7
100
AcDbPolyline
 90
2
 70
0
 10
2706146.358444
 20
4605173.213854
 30
0.0
 10
2706146.358444
 20
4403137.188112
 30
0.0
  0
SPLINE
  5
159
100
AcDbEntity
  8
0
 62
7
100
AcDbSpline
 70
8
 71
3
 72
8
 73
4
 74
0
 40
0
 40
0
 40
0
 40
0
 40
1
 40
1
 40
1
 40
1
 10
5092568.589482
 20
2027467.501689
 30
0.0
 10
5092568.589482
 20
2030976.098177
 30
0.0
 10
5091174.804954
 20
2034340.991687
 30
0.0
 10
5088693.852585
 20
2036821.944057
 30
0.0
  0
SPLINE
  5
15a
100
AcDbEntity
  8
0
 62
7
100
AcDbSpline
 70
8
 71
3
 72
8
 73
4
 74
0
 40
0
 40
0
 40
0
 40
0
 40
1
 40
1
 40
1
 40
1
 10
5088693.852585
 20
2036821.944057
 30
0.0
 10
5086212.900216
 20
2039302.896426
 30
0.0
 10
5082848.006705
 20
2040696.680954
 30
0.0
 10
5079339.410217
 20
2040696.680954
 30
0.0
  0
LWPOLYLINE
  5
15b
100
AcDbEntity
  8
0
 62
7
100
AcDbPolyline
 90
2
 70
0
 10
3223285.559274
 20
3048760.273273
 30
0.0
 10
3567244.220176
 20
3048760.273273
 30
0.0
  0
LWPOLYLINE
  5
15c
100
AcDbEntity
  8
0
 62
7
100
AcDbPolyline
 90
2
 70
0
 10
4548849.321672
 20
2892311.866988
 30
0.0
 10
4178432.302240
 20
2892311.866988
 30
0.0
  0
LWPOLYLINE
  5
15d
100
AcDbEntity
  8
0
 62
7
100
AcDbPolyline
 90
2
 70
0
 10
2919993.395434
 20
2001009.143158
 30
0.0
 10
2919993.395434
 20
1630592.123725
 30
0.0
  0
SPLINE
  5
15e
100
AcDbEntity
  8
0
 62
7
100
AcDbSpline
 70
8
 71
3
 72
8
 73
4
 74
0
 40
0
 40
0
 40
0
 40
0
 40
1
 40
1
 40
1
 40
1
 10
3714088.110022
 20
2691572.300814
 30
0.0
 10
3714088.110022
 20
2688063.704326
 30
0.0
 10
3715481.894550
 20
2684698.810815
 30
0.0
 10
3717962.846919
 20
2682217.858446
 30
0.0
  0
SPLINE
  5
15f
100
AcDbEntity
  8
0
 62
7
100
AcDbSpline
 70
8
 71
3
 72
8
 73
4
 74
0
 40
0
 40
0
 40
0
 40
0
 40
1
 40
1
 40
1
 40
1
 10
3717962.846919
 20
2682217.858446
 30
0.0
 10
3720443.799289
 20
2679736.906077
 30
0.0
 10
3723808.692799
 20
2678343.121549
 30
0.0
 10
3727317.289288
 20
2678343.121549
 30
0.0
  0
LWPOLYLINE
  5
160
100
AcDbEntity
  8
0
 62
7
100
AcDbPolyline
 90
2
 70
0
 10
4084505.129455
 20
2027467.501689
 30
0.0
 10
4084505.129455
 20
1683508.840787
 30
0.0
  0
SPLINE
  5
161
100
AcDbEntity
  8
0
 62
7
100
AcDbSpline
 70
8
 71
3
 72
8
 73
4
 74
0
 40
0
 40
0
 40
0
 40
0
 40
1
 40
1
 40
1
 40
1
 10
4084505.129455
 20
4043594.554035
 30
0.0
 10
4084505.129455
 20
4047103.150524
 30
0.0
 10
4083111.344927
 20
4050468.044034
 30
0.0
 10
4080630.392558
 20
4052948.996404
 30
0.0
  0
SPLINE
  5
162
100
AcDbEntity
  8
0
 62
7
100
AcDbSpline
 70
8
 71
3
 72
8
 73
4
 74
0
 40
0
 40
0
 40
0
 40
0
 40
1
 40
1
 40
1
 40
1
 10
4080630.392558
 20
4052948.996404
 30
0.0
 10
4078149.440188
 20
4055429.948773
 30
0.0
 10
4074784.546678
 20
4056823.733301
 30
0.0
 10
4071275.950189
 20
4056823.733301
 30
0.0
  0
SPLINE
  5
163
100
AcDbEntity
  8
0
 62
7
100
AcDbSpline
 70
8
 71
3
 72
8
 73
4
 74
0
 40
0
 40
0
 40
0
 40
0
 40
1
 40
1
 40
1
 40
1
 10
4722151.570050
 20
3699635.893134
 30
0.0
 10
4722151.570050
 20
3696127.296645
 30
0.0
 10
4723545.354578
 20
3692762.403135
 30
0.0
 10
4726026.306947
 20
3690281.450765
 30
0.0
  0
SPLINE
  5
164
100
AcDbEntity
  8
0
 62
7
100
AcDbSpline
 70
8
 71
3
 72
8
 73
4
 74
0
 40
0
 40
0
 40
0
 40
0
 40
1
 40
1
 40
1
 40
1
 10
4726026.306947
 20
3690281.450765
 30
0.0
 10
4728507.259316
 20
3687800.498396
 30
0.0
 10
4731872.152827
 20
3686406.713868
 30
0.0
 10
4735380.749315
 20
3686406.713868
 30
0.0
  0
SPLINE
  5
165
100
AcDbEntity
  8
0
 62
7
100
AcDbSpline
 70
8
 71
3
 72
8
 73
4
 74
0
 40
0
 40
0
 40
0
 40
0
 40
1
 40
1
 40
1
 40
1
 10
4071275.950189
 20
1670279.661521
 30
0.0
 10
4074784.546678
 20
1670279.661521
 30
0.0
 10
4078149.440188
 20
1671673.446049
 30
0.0
 10
4080630.392558
 20
1674154.398419
 30
0.0
  0
SPLINE
  5
166
100
AcDbEntity
  8
0
 62
7
100
AcDbSpline
 70
8
 71
3
 72
8
 73
4
 74
0
 40
0
 40
0
 40
0
 40
0
 40
1
 40
1
 40
1
 40
1
 10
4080630.392558
 20
1674154.398419
 30
0.0
 10
4083111.344927
 20
1676635.350788
 30
0.0
 10
4084505.129455
 20
1680000.244299
 30
0.0
 10
4084505.129455
 20
1683508.840787
 30
0.0
  0
LWPOLYLINE
  5
167
100
AcDbEntity
  8
0
 62
7
100
AcDbPolyline
 90
2
 70
0
 10
4084505.129455
 20
4043594.554035
 30
0.0
 10
4084505.129455
 20
3699635.893134
 30
0.0
  0
SPLINE
  5
168
100
AcDbEntity
  8
0
 62
7
100
AcDbSpline
 70
8
 71
3
 72
8
 73
4
 74
0
 40
0
 40
0
 40
0
 40
0
 40
1
 40
1
 40
1
 40
1
 10
4548849.321672
 20
2707103.357272
 30
0.0
 10
4552357.918160
 20
2707103.357272
 30
0.0
 10
4555722.811671
 20
2708497.141800
 30
0.0
 10
4558203.764040
 20
2710978.094169
 30
0.0
  0
SPLINE
  5
169
100
AcDbEntity
  8
0
 62
7
100
AcDbSpline
 70
8
 71
3
 72
8
 73
4
 74
0
 40
0
 40
0
 40
0
 40
0
 40
1
 40
1
 40
1
 40
1
 10
4558203.764040
 20
2710978.094169
 30
0.0
 10
4560684.716410
 20
2713459.046539
 30
0.0
 10
4562078.500938
 20
2716823.940049
 30
0.0
 10
4562078.500938
 20
2720332.536537
 30
0.0
  0
SPLINE
  5
16a
100
AcDbEntity
  8
0
 62
7
100
AcDbSpline
 70
8
 71
3
 72
8
 73
4
 74
0
 40
0
 40
0
 40
0
 40
0
 40
1
 40
1
 40
1
 40
1
 10
3063212.490162
 20
3686406.713868
 30
0.0
 10
3066721.086650
 20
3686406.713868
 30
0.0
 10
3070085.980161
 20
3687800.498396
 30
0.0
 10
3072566.932530
 20
3690281.450765
 30
0.0
  0
SPLINE
  5
16b
100
AcDbEntity
  8
0
 62
7
100
AcDbSpline
 70
8
 71
3
 72
8
 73
4
 74
0
 40
0
 40
0
 40
0
 40
0
 40
1
 40
1
 40
1
 40
1
 10
3072566.932530
 20
3690281.450765
 30
0.0
 10
3075047.884899
 20
3692762.403135
 30
0.0
 10
3076441.669427
 20
3696127.296645
 30
0.0
 10
3076441.669427
 20
3699635.893134
 30
0.0
  0
SPLINE
  5
16c
100
AcDbEntity
  8
0
 62
7
100
AcDbSpline
 70
8
 71
3
 72
8
 73
4
 74
0
 40
0
 40
0
 40
0
 40
0
 40
1
 40
1
 40
1
 40
1
 10
2971269.694267
 20
2040696.680954
 30
0.0
 10
2967761.097779
 20
2040696.680954
 30
0.0
 10
2964396.204268
 20
2039302.896426
 30
0.0
 10
2961915.251899
 20
2036821.944057
 30
0.0
  0
SPLINE
  5
16d
100
AcDbEntity
  8
0
 62
7
100
AcDbSpline
 70
8
 71
3
 72
8
 73
4
 74
0
 40
0
 40
0
 40
0
 40
0
 40
1
 40
1
 40
1
 40
1
 10
2961915.251899
 20
2036821.944057
 30
0.0
 10
2959434.299530
 20
2034340.991687
 30
0.0
 10
2958040.515002
 20
2030976.098177
 30
0.0
 10
2958040.515002
 20
2027467.501689
 30
0.0
  0
SPLINE
  5
16e
100
AcDbEntity
  8
0
 62
7
100
AcDbSpline
 70
8
 71
3
 72
8
 73
4
 74
0
 40
0
 40
0
 40
0
 40
0
 40
1
 40
1
 40
1
 40
1
 10
5327783.343905
 20
4901619.303882
 30
0.0
 10
5310661.092569
 20
4901619.303882
 30
0.0
 10
5295224.808360
 20
4891305.108525
 30
0.0
 10
5288672.406449
 20
4875486.210964
 30
0.0
  0
SPLINE
  5
16f
100
AcDbEntity
  8
0
 62
7
100
AcDbSpline
 70
8
 71
3
 72
8
 73
4
 74
0
 40
0
 40
0
 40
0
 40
0
 40
1
 40
1
 40
1
 40
1
 10
5288672.406449
 20
4875486.210964
 30
0.0
 10
5282120.004537
 20
4859667.313404
 30
0.0
 10
5285741.868298
 20
4841458.974684
 30
0.0
 10
5297849.128327
 20
4829351.714655
 30
0.0
  0
SPLINE
  5
170
100
AcDbEntity
  8
0
 62
7
100
AcDbSpline
 70
8
 71
3
 72
8
 73
4
 74
0
 40
0
 40
0
 40
0
 40
0
 40
1
 40
1
 40
1
 40
1
 10
5297849.128327
 20
4829351.714655
 30
0.0
 10
5309956.388357
 20
4817244.454625
 30
0.0
 10
5328164.727077
 20
4813622.590864
 30
0.0
 10
5343983.624637
 20
4820174.992776
 30
0.0
  0
SPLINE
  5
171
100
AcDbEntity
  8
0
 62
7
100
AcDbSpline
 70
8
 71
3
 72
8
 73
4
 74
0
 40
0
 40
0
 40
0
 40
0
 40
1
 40
1
 40
1
 40
1
 10
5343983.624637
 20
4820174.992776
 30
0.0
 10
5359802.522198
 20
4826727.394687
 30
0.0
 10
5370116.717555
 20
4842163.678896
 30
0.0
 10
5370116.717555
 20
4859285.930233
 30
0.0
  0
SPLINE
  5
172
100
AcDbEntity
  8
0
 62
7
100
AcDbSpline
 70
8
 71
3
 72
8
 73
4
 74
0
 40
0
 40
0
 40
0
 40
0
 40
1
 40
1
 40
1
 40
1
 10
5370116.717555
 20
4859285.930233
 30
0.0
 10
5370116.717555
 20
4870513.438995
 30
0.0
 10
5365656.607065
 20
4881281.098229
 30
0.0
 10
5357717.559483
 20
4889220.145811
 30
0.0
  0
SPLINE
  5
173
100
AcDbEntity
  8
0
 62
7
100
AcDbSpline
 70
8
 71
3
 72
8
 73
4
 74
0
 40
0
 40
0
 40
0
 40
0
 40
1
 40
1
 40
1
 40
1
 10
5357717.559483
 20
4889220.145811
 30
0.0
 10
5349778.511902
 20
4897159.193392
 30
0.0
 10
5339010.852668
 20
4901619.303882
 30
0.0
 10
5327783.343905
 20
4901619.303882
 30
0.0
  0
LWPOLYLINE
  5
174
100
AcDbEntity
  8
0
 62
7
100
AcDbPolyline
 90
2
 70
0
 10
3223285.559274
 20
3182374.983854
 30
0.0
 10
3567244.220176
 20
3182374.983854
 30
0.0
  0
LWPOLYLINE
  5
175
100
AcDbEntity
  8
0
 62
7
100
AcDbPolyline
 90
1
 70
1
 10
5327783.343905
 20
4901619.303882
 30
0.0
  0
SPLINE
  5
176
100
AcDbEntity
  8
0
 62
7
100
AcDbSpline
 70
8
 71
3
 72
8
 73
4
 74
0
 40
0
 40
0
 40
0
 40
0
 40
1
 40
1
 40
1
 40
1
 10
5092568.589482
 20
4043594.554035
 30
0.0
 10
5092568.589482
 20
4047103.150524
 30
0.0
 10
5091174.804954
 20
4050468.044034
 30
0.0
 10
5088693.852585
 20
4052948.996404
 30
0.0
  0
SPLINE
  5
177
100
AcDbEntity
  8
0
 62
7
100
AcDbSpline
 70
8
 71
3
 72
8
 73
4
 74
0
 40
0
 40
0
 40
0
 40
0
 40
1
 40
1
 40
1
 40
1
 10
5088693.852585
 20
4052948.996404
 30
0.0
 10
5086212.900216
 20
4055429.948773
 30
0.0
 10
5082848.006705
 20
4056823.733301
 30
0.0
 10
5079339.410217
 20
4056823.733301
 30
0.0
  0
LWPOLYLINE
  5
178
100
AcDbEntity
  8
0
 62
7
100
AcDbPolyline
 90
2
 70
0
 10
3727317.289288
 20
2174311.391535
 30
0.0
 10
4071275.950189
 20
2174311.391535
 30
0.0
  0
SPLINE
  5
179
100
AcDbEntity
  8
0
 62
7
100
AcDbSpline
 70
8
 71
3
 72
8
 73
4
 74
0
 40
0
 40
0
 40
0
 40
0
 40
1
 40
1
 40
1
 40
1
 10
3567244.220176
 20
2174311.391535
 30
0.0
 10
3570752.816664
 20
2174311.391535
 30
0.0
 10
3574117.710174
 20
2175705.176063
 30
0.0
 10
3576598.662544
 20
2178186.128432
 30
0.0
  0
SPLINE
  5
17a
100
AcDbEntity
  8
0
 62
7
100
AcDbSpline
 70
8
 71
3
 72
8
 73
4
 74
0
 40
0
 40
0
 40
0
 40
0
 40
1
 40
1
 40
1
 40
1
 10
3576598.662544
 20
2178186.128432
 30
0.0
 10
3579079.614913
 20
2180667.080802
 30
0.0
 10
3580473.399441
 20
2184031.974312
 30
0.0
 10
3580473.399441
 20
2187540.570801
 30
0.0
  0
LWPOLYLINE
  5
17b
100
AcDbEntity
  8
0
 62
7
100
AcDbPolyline
 90
2
 70
0
 10
3379733.833267
 20
1617362.944460
 30
0.0
 10
3538483.984453
 20
1617362.944460
 30
0.0
  0
SPLINE
  5
17c
100
AcDbEntity
  8
0
 62
7
100
AcDbSpline
 70
8
 71
3
 72
8
 73
4
 74
0
 40
0
 40
0
 40
0
 40
0
 40
1
 40
1
 40
1
 40
1
 10
4231349.019301
 20
2292712.545961
 30
0.0
 10
4227840.422813
 20
2292712.545961
 30
0.0
 10
4224475.529303
 20
2291318.761433
 30
0.0
 10
4221994.576933
 20
2288837.809064
 30
0.0
  0
SPLINE
  5
17d
100
AcDbEntity
  8
0
 62
7
100
AcDbSpline
 70
8
 71
3
 72
8
 73
4
 74
0
 40
0
 40
0
 40
0
 40
0
 40
1
 40
1
 40
1
 40
1
 10
4221994.576933
 20
2288837.809064
 30
0.0
 10
4219513.624564
 20
2286356.856694
 30
0.0
 10
4218119.840036
 20
2282991.963184
 30
0.0
 10
4218119.840036
 20
2279483.366695
 30
0.0
  0
SPLINE
  5
17e
100
AcDbEntity
  8
0
 62
7
100
AcDbSpline
 70
8
 71
3
 72
8
 73
4
 74
0
 40
0
 40
0
 40
0
 40
0
 40
1
 40
1
 40
1
 40
1
 10
3076441.669427
 20
4043594.554035
 30
0.0
 10
3076441.669427
 20
4047103.150524
 30
0.0
 10
3075047.884899
 20
4050468.044034
 30
0.0
 10
3072566.932530
 20
4052948.996404
 30
0.0
  0
SPLINE
  5
17f
100
AcDbEntity
  8
0
 62
7
100
AcDbSpline
 70
8
 71
3
 72
8
 73
4
 74
0
 40
0
 40
0
 40
0
 40
0
 40
1
 40
1
 40
1
 40
1
 10
3072566.932530
 20
4052948.996404
 30
0.0
 10
3070085.980161
 20
4055429.948773
 30
0.0
 10
3066721.086650
 20
4056823.733301
 30
0.0
 10
3063212.490162
 20
4056823.733301
 30
0.0
  0
LWPOLYLINE
  5
180
100
AcDbEntity
  8
0
 62
7
100
AcDbPolyline
 90
2
 70
0
 10
2748014.064983
 20
2014238.322423
 30
0.0
 10
2906764.216169
 20
2014238.322423
 30
0.0
  0
LWPOLYLINE
  5
181
100
AcDbEntity
  8
0
 62
7
100
AcDbPolyline
 90
2
 70
0
 10
2719253.829260
 20
2544728.410968
 30
0.0
 10
3063212.490162
 20
2544728.410968
 30
0.0
  0
SPLINE
  5
182
100
AcDbEntity
  8
0
 62
7
100
AcDbSpline
 70
8
 71
3
 72
8
 73
4
 74
0
 40
0
 40
0
 40
0
 40
0
 40
1
 40
1
 40
1
 40
1
 10
4735380.749315
 20
4056823.733301
 30
0.0
 10
4731872.152827
 20
4056823.733301
 30
0.0
 10
4728507.259316
 20
4055429.948773
 30
0.0
 10
4726026.306947
 20
4052948.996404
 30
0.0
  0
SPLINE
  5
183
100
AcDbEntity
  8
0
 62
7
100
AcDbSpline
 70
8
 71
3
 72
8
 73
4
 74
0
 40
0
 40
0
 40
0
 40
0
 40
1
 40
1
 40
1
 40
1
 10
4726026.306947
 20
4052948.996404
 30
0.0
 10
4723545.354578
 20
4050468.044034
 30
0.0
 10
4722151.570050
 20
4047103.150524
 30
0.0
 10
4722151.570050
 20
4043594.554035
 30
0.0
  0
LWPOLYLINE
  5
184
100
AcDbEntity
  8
0
 62
7
100
AcDbPolyline
 90
2
 70
0
 10
4218119.840036
 20
3287546.959015
 30
0.0
 10
4218119.840036
 20
2943588.298113
 30
0.0
  0
LWPOLYLINE
  5
185
100
AcDbEntity
  8
0
 62
7
100
AcDbPolyline
 90
2
 70
0
 10
4735380.749315
 20
2678343.121549
 30
0.0
 10
5079339.410217
 20
2678343.121549
 30
0.0
  0
LWPOLYLINE
  5
186
100
AcDbEntity
  8
0
 62
7
100
AcDbPolyline
 90
2
 70
0
 10
2719253.829260
 20
2678343.121549
 30
0.0
 10
3063212.490162
 20
2678343.121549
 30
0.0
  0
LWPOLYLINE
  5
187
100
AcDbEntity
  8
0
 62
7
100
AcDbPolyline
 90
2
 70
0
 10
4722151.570050
 20
3035531.094008
 30
0.0
 10
4722151.570050
 20
2691572.300814
 30
0.0
  0
SPLINE
  5
188
100
AcDbEntity
  8
0
 62
7
100
AcDbSpline
 70
8
 71
3
 72
8
 73
4
 74
0
 40
0
 40
0
 40
0
 40
0
 40
1
 40
1
 40
1
 40
1
 10
2706024.649995
 20
3699635.893134
 30
0.0
 10
2706024.649995
 20
3696127.296645
 30
0.0
 10
2707418.434523
 20
3692762.403135
 30
0.0
 10
2709899.386892
 20
3690281.450765
 30
0.0
  0
SPLINE
  5
189
100
AcDbEntity
  8
0
 62
7
100
AcDbSpline
 70
8
 71
3
 72
8
 73
4
 74
0
 40
0
 40
0
 40
0
 40
0
 40
1
 40
1
 40
1
 40
1
 10
2709899.386892
 20
3690281.450765
 30
0.0
 10
2712380.339261
 20
3687800.498396
 30
0.0
 10
2715745.232772
 20
3686406.713868
 30
0.0
 10
2719253.829260
 20
3686406.713868
 30
0.0
  0
LWPOLYLINE
  5
18a
100
AcDbEntity
  8
0
 62
7
100
AcDbPolyline
 90
2
 70
0
 10
4165203.122974
 20
1871019.227695
 30
0.0
 10
4165203.122974
 20
1712269.076510
 30
0.0
  0
SPLINE
  5
18b
100
AcDbEntity
  8
0
 62
7
100
AcDbSpline
 70
8
 71
3
 72
8
 73
4
 74
0
 40
0
 40
0
 40
0
 40
0
 40
1
 40
1
 40
1
 40
1
 10
4588536.859469
 20
2279483.366695
 30
0.0
 10
4588536.859469
 20
2282991.963184
 30
0.0
 10
4587143.074941
 20
2286356.856694
 30
0.0
 10
4584662.122571
 20
2288837.809064
 30
0.0
  0
SPLINE
  5
18c
100
AcDbEntity
  8
0
 62
7
100
AcDbSpline
 70
8
 71
3
 72
8
 73
4
 74
0
 40
0
 40
0
 40
0
 40
0
 40
1
 40
1
 40
1
 40
1
 10
4584662.122571
 20
2288837.809064
 30
0.0
 10
4582181.170202
 20
2291318.761433
 30
0.0
 10
4578816.276691
 20
2292712.545961
 30
0.0
 10
4575307.680203
 20
2292712.545961
 30
0.0
  0
SPLINE
  5
18d
100
AcDbEntity
  8
0
 62
7
100
AcDbSpline
 70
8
 71
3
 72
8
 73
4
 74
0
 40
0
 40
0
 40
0
 40
0
 40
1
 40
1
 40
1
 40
1
 10
4071275.950189
 20
3686406.713868
 30
0.0
 10
4074784.546678
 20
3686406.713868
 30
0.0
 10
4078149.440188
 20
3687800.498396
 30
0.0
 10
4080630.392558
 20
3690281.450765
 30
0.0
  0
SPLINE
  5
18e
100
AcDbEntity
  8
0
 62
7
100
AcDbSpline
 70
8
 71
3
 72
8
 73
4
 74
0
 40
0
 40
0
 40
0
 40
0
 40
1
 40
1
 40
1
 40
1
 10
4080630.392558
 20
3690281.450765
 30
0.0
 10
4083111.344927
 20
3692762.403135
 30
0.0
 10
4084505.129455
 20
3696127.296645
 30
0.0
 10
4084505.129455
 20
3699635.893134
 30
0.0
  0
LWPOLYLINE
  5
18f
100
AcDbEntity
  8
0
 62
7
100
AcDbPolyline
 90
2
 70
0
 10
4575307.680203
 20
2292712.545961
 30
0.0
 10
4231349.019301
 20
2292712.545961
 30
0.0
  0
LWPOLYLINE
  5
190
100
AcDbEntity
  8
0
 62
7
100
AcDbPolyline
 90
2
 70
0
 10
4562078.500938
 20
2879082.687723
 30
0.0
 10
4562078.500938
 20
2720332.536537
 30
0.0
  0
LWPOLYLINE
  5
191
100
AcDbEntity
  8
0
 62
7
100
AcDbPolyline
 90
2
 70
0
 10
3727317.289288
 20
2040696.680954
 30
0.0
 10
4071275.950189
 20
2040696.680954
 30
0.0
  0
LWPOLYLINE
  5
192
100
AcDbEntity
  8
0
 62
7
100
AcDbPolyline
 90
2
 70
0
 10
4588536.859469
 20
3287546.959015
 30
0.0
 10
4588536.859469
 20
2943588.298113
 30
0.0
  0
LWPOLYLINE
  5
193
100
AcDbEntity
  8
0
 62
7
100
AcDbPolyline
 90
2
 70
0
 10
4562078.500938
 20
3510802.588299
 30
0.0
 10
4562078.500938
 20
3352052.437113
 30
0.0
  0
LWPOLYLINE
  5
194
100
AcDbEntity
  8
0
 62
7
100
AcDbPolyline
 90
2
 70
0
 10
3210056.380008
 20
3035531.094008
 30
0.0
 10
3210056.380008
 20
2691572.300814
 30
0.0
  0
SPLINE
  5
195
100
AcDbEntity
  8
0
 62
7
100
AcDbSpline
 70
8
 71
3
 72
8
 73
4
 74
0
 40
0
 40
0
 40
0
 40
0
 40
1
 40
1
 40
1
 40
1
 10
3379733.833267
 20
2014238.322423
 30
0.0
 10
3376225.236779
 20
2014238.322423
 30
0.0
 10
3372860.343268
 20
2012844.537895
 30
0.0
 10
3370379.390899
 20
2010363.585526
 30
0.0
  0
SPLINE
  5
196
100
AcDbEntity
  8
0
 62
7
100
AcDbSpline
 70
8
 71
3
 72
8
 73
4
 74
0
 40
0
 40
0
 40
0
 40
0
 40
1
 40
1
 40
1
 40
1
 10
3370379.390899
 20
2010363.585526
 30
0.0
 10
3367898.438530
 20
2007882.633157
 30
0.0
 10
3366504.654002
 20
2004517.739646
 30
0.0
 10
3366504.654002
 20
2001009.143158
 30
0.0
  0
LWPOLYLINE
  5
197
100
AcDbEntity
  8
0
 62
7
100
AcDbPolyline
 90
2
 70
0
 10
4231349.019301
 20
3686406.713868
 30
0.0
 10
4575307.680203
 20
3686406.713868
 30
0.0
  0
SPLINE
  5
198
100
AcDbEntity
  8
0
 62
7
100
AcDbSpline
 70
8
 71
3
 72
8
 73
4
 74
0
 40
0
 40
0
 40
0
 40
0
 40
1
 40
1
 40
1
 40
1
 10
3210056.380008
 20
2187540.570801
 30
0.0
 10
3210056.380008
 20
2184031.974312
 30
0.0
 10
3211450.164536
 20
2180667.080802
 30
0.0
 10
3213931.116906
 20
2178186.128432
 30
0.0
  0
SPLINE
  5
199
100
AcDbEntity
  8
0
 62
7
100
AcDbSpline
 70
8
 71
3
 72
8
 73
4
 74
0
 40
0
 40
0
 40
0
 40
0
 40
1
 40
1
 40
1
 40
1
 10
3213931.116906
 20
2178186.128432
 30
0.0
 10
3216412.069275
 20
2175705.176063
 30
0.0
 10
3219776.962786
 20
2174311.391535
 30
0.0
 10
3223285.559274
 20
2174311.391535
 30
0.0
  0
LWPOLYLINE
  5
19a
100
AcDbEntity
  8
0
 62
7
100
AcDbPolyline
 90
2
 70
0
 10
4231349.019301
 20
4056823.733301
 30
0.0
 10
4575307.680203
 20
4056823.733301
 30
0.0
  0
SPLINE
  5
19b
100
AcDbEntity
  8
0
 62
7
100
AcDbSpline
 70
8
 71
3
 72
8
 73
4
 74
0
 40
0
 40
0
 40
0
 40
0
 40
1
 40
1
 40
1
 40
1
 10
4722151.570050
 20
2187540.570801
 30
0.0
 10
4722151.570050
 20
2184031.974312
 30
0.0
 10
4723545.354578
 20
2180667.080802
 30
0.0
 10
4726026.306947
 20
2178186.128432
 30
0.0
  0
SPLINE
  5
19c
100
AcDbEntity
  8
0
 62
7
100
AcDbSpline
 70
8
 71
3
 72
8
 73
4
 74
0
 40
0
 40
0
 40
0
 40
0
 40
1
 40
1
 40
1
 40
1
 10
4726026.306947
 20
2178186.128432
 30
0.0
 10
4728507.259316
 20
2175705.176063
 30
0.0
 10
4731872.152827
 20
2174311.391535
 30
0.0
 10
4735380.749315
 20
2174311.391535
 30
0.0
  0
SPLINE
  5
19d
100
AcDbEntity
  8
0
 62
7
100
AcDbSpline
 70
8
 71
3
 72
8
 73
4
 74
0
 40
0
 40
0
 40
0
 40
0
 40
1
 40
1
 40
1
 40
1
 10
3727317.289288
 20
3048760.273273
 30
0.0
 10
3723808.692799
 20
3048760.273273
 30
0.0
 10
3720443.799289
 20
3047366.488745
 30
0.0
 10
3717962.846919
 20
3044885.536376
 30
0.0
  0
SPLINE
  5
19e
100
AcDbEntity
  8
0
 62
7
100
AcDbSpline
 70
8
 71
3
 72
8
 73
4
 74
0
 40
0
 40
0
 40
0
 40
0
 40
1
 40
1
 40
1
 40
1
 10
3717962.846919
 20
3044885.536376
 30
0.0
 10
3715481.894550
 20
3042404.584007
 30
0.0
 10
3714088.110022
 20
3039039.690496
 30
0.0
 10
3714088.110022
 20
3035531.094008
 30
0.0
  0
LWPOLYLINE
  5
19f
100
AcDbEntity
  8
0
 62
7
100
AcDbPolyline
 90
2
 70
0
 10
4432623.044318
 20
4593997.203210
 30
0.0
 10
4403725.225130
 20
4593997.203210
 30
0.0
  0
LWPOLYLINE
  5
1a0
100
AcDbEntity
  8
0
 62
7
100
AcDbPolyline
 90
2
 70
0
 10
4698079.755458
 20
4773432.499095
 30
0.0
 10
4698079.755458
 20
4593997.203210
 30
0.0
  0
SPLINE
  5
1a1
100
AcDbEntity
  8
0
 62
7
100
AcDbSpline
 70
8
 71
3
 72
8
 73
4
 74
0
 40
0
 40
0
 40
0
 40
0
 40
1
 40
1
 40
1
 40
1
 10
4165203.122974
 20
2720332.536537
 30
0.0
 10
4165203.122974
 20
2716823.940049
 30
0.0
 10
4166596.907502
 20
2713459.046539
 30
0.0
 10
4169077.859871
 20
2710978.094169
 30
0.0
  0
SPLINE
  5
1a2
100
AcDbEntity
  8
0
 62
7
100
AcDbSpline
 70
8
 71
3
 72
8
 73
4
 74
0
 40
0
 40
0
 40
0
 40
0
 40
1
 40
1
 40
1
 40
1
 10
4169077.859871
 20
2710978.094169
 30
0.0
 10
4171558.812241
 20
2708497.141800
 30
0.0
 10
4174923.705751
 20
2707103.357272
 30
0.0
 10
4178432.302240
 20
2707103.357272
 30
0.0
  0
SPLINE
  5
1a3
100
AcDbEntity
  8
0
 62
7
100
AcDbSpline
 70
8
 71
3
 72
8
 73
4
 74
0
 40
0
 40
0
 40
0
 40
0
 40
1
 40
1
 40
1
 40
1
 10
4178432.302240
 20
2515968.175245
 30
0.0
 10
4174923.705751
 20
2515968.175245
 30
0.0
 10
4171558.812241
 20
2514574.390717
 30
0.0
 10
4169077.859871
 20
2512093.438347
 30
0.0
  0
SPLINE
  5
1a4
100
AcDbEntity
  8
0
 62
7
100
AcDbSpline
 70
8
 71
3
 72
8
 73
4
 74
0
 40
0
 40
0
 40
0
 40
0
 40
1
 40
1
 40
1
 40
1
 10
4169077.859871
 20
2512093.438347
 30
0.0
 10
4166596.907502
 20
2509612.485978
 30
0.0
 10
4165203.122974
 20
2506247.592467
 30
0.0
 10
4165203.122974
 20
2502738.995979
 30
0.0
  0
LWPOLYLINE
  5
1a5
100
AcDbEntity
  8
0
 62
7
100
AcDbPolyline
 90
2
 70
0
 10
3551713.163718
 20
2001009.143158
 30
0.0
 10
3551713.163718
 20
1630592.123725
 30
0.0
  0
SPLINE
  5
1a6
100
AcDbEntity
  8
0
 62
7
100
AcDbSpline
 70
8
 71
3
 72
8
 73
4
 74
0
 40
0
 40
0
 40
0
 40
0
 40
1
 40
1
 40
1
 40
1
 10
4084505.129455
 20
2531499.231702
 30
0.0
 10
4084505.129455
 20
2535007.828191
 30
0.0
 10
4083111.344927
 20
2538372.721701
 30
0.0
 10
4080630.392558
 20
2540853.674070
 30
0.0
  0
SPLINE
  5
1a7
100
AcDbEntity
  8
0
 62
7
100
AcDbSpline
 70
8
 71
3
 72
8
 73
4
 74
0
 40
0
 40
0
 40
0
 40
0
 40
1
 40
1
 40
1
 40
1
 10
4080630.392558
 20
2540853.674070
 30
0.0
 10
4078149.440188
 20
2543334.626440
 30
0.0
 10
4074784.546678
 20
2544728.410968
 30
0.0
 10
4071275.950189
 20
2544728.410968
 30
0.0
  0
LWPOLYLINE
  5
1a8
100
AcDbEntity
  8
0
 62
7
100
AcDbPolyline
 90
2
 70
0
 10
5092568.589482
 20
2531499.231702
 30
0.0
 10
5092568.589482
 20
2187540.570801
 30
0.0
  0
LWPOLYLINE
  5
1a9
100
AcDbEntity
  8
0
 62
7
100
AcDbPolyline
 90
2
 70
0
 10
3366504.654002
 20
2001009.143158
 30
0.0
 10
3366504.654002
 20
1630592.123725
 30
0.0
  0
SPLINE
  5
1aa
100
AcDbEntity
  8
0
 62
7
100
AcDbSpline
 70
8
 71
3
 72
8
 73
4
 74
0
 40
0
 40
0
 40
0
 40
0
 40
1
 40
1
 40
1
 40
1
 10
4548849.321672
 20
2330759.665528
 30
0.0
 10
4552357.918160
 20
2330759.665528
 30
0.0
 10
4555722.811671
 20
2332153.450056
 30
0.0
 10
4558203.764040
 20
2334634.402426
 30
0.0
  0
SPLINE
  5
1ab
100
AcDbEntity
  8
0
 62
7
100
AcDbSpline
 70
8
 71
3
 72
8
 73
4
 74
0
 40
0
 40
0
 40
0
 40
0
 40
1
 40
1
 40
1
 40
1
 10
4558203.764040
 20
2334634.402426
 30
0.0
 10
4560684.716410
 20
2337115.354795
 30
0.0
 10
4562078.500938
 20
2340480.248306
 30
0.0
 10
4562078.500938
 20
2343988.844794
 30
0.0
  0
LWPOLYLINE
  5
1ac
100
AcDbEntity
  8
0
 62
7
100
AcDbPolyline
 90
2
 70
0
 10
3076441.669427
 20
4043594.554035
 30
0.0
 10
3076441.669427
 20
3699635.893134
 30
0.0
  0
LWPOLYLINE
  5
1ad
100
AcDbEntity
  8
0
 62
7
100
AcDbPolyline
 90
2
 70
0
 10
5092568.589482
 20
3539562.824022
 30
0.0
 10
5092568.589482
 20
3195604.163120
 30
0.0
  0
LWPOLYLINE
  5
1ae
100
AcDbEntity
  8
0
 62
7
100
AcDbPolyline
 90
2
 70
0
 10
3580473.399441
 20
4043594.554035
 30
0.0
 10
3580473.399441
 20
3699635.893134
 30
0.0
  0
LWPOLYLINE
  5
1af
100
AcDbEntity
  8
0
 62
7
100
AcDbPolyline
 90
2
 70
0
 10
4548849.321672
 20
1884248.406961
 30
0.0
 10
4178432.302240
 20
1884248.406961
 30
0.0
  0
LWPOLYLINE
  5
1b0
100
AcDbEntity
  8
0
 62
7
100
AcDbPolyline
 90
2
 70
0
 10
3223285.559274
 20
2678343.121549
 30
0.0
 10
3567244.220176
 20
2678343.121549
 30
0.0
  0
SPLINE
  5
1b1
100
AcDbEntity
  8
0
 62
7
100
AcDbSpline
 70
8
 71
3
 72
8
 73
4
 74
0
 40
0
 40
0
 40
0
 40
0
 40
1
 40
1
 40
1
 40
1
 10
3727317.289288
 20
4056823.733301
 30
0.0
 10
3723808.692799
 20
4056823.733301
 30
0.0
 10
3720443.799289
 20
4055429.948773
 30
0.0
 10
3717962.846919
 20
4052948.996404
 30
0.0
  0
SPLINE
  5
1b2
100
AcDbEntity
  8
0
 62
7
100
AcDbSpline
 70
8
 71
3
 72
8
 73
4
 74
0
 40
0
 40
0
 40
0
 40
0
 40
1
 40
1
 40
1
 40
1
 10
3717962.846919
 20
4052948.996404
 30
0.0
 10
3715481.894550
 20
4050468.044034
 30
0.0
 10
3714088.110022
 20
4047103.150524
 30
0.0
 10
3714088.110022
 20
4043594.554035
 30
0.0
  0
LWPOLYLINE
  5
1b3
100
AcDbEntity
  8
0
 62
7
100
AcDbPolyline
 90
2
 70
0
 10
4575307.680203
 20
2930359.118848
 30
0.0
 10
4231349.019301
 20
2930359.118848
 30
0.0
  0
LWPOLYLINE
  5
1b4
100
AcDbEntity
  8
0
 62
7
100
AcDbPolyline
 90
2
 70
0
 10
3727317.289288
 20
3048760.273273
 30
0.0
 10
4071275.950189
 20
3048760.273273
 30
0.0
  0
SPLINE
  5
1b5
100
AcDbEntity
  8
0
 62
7
100
AcDbSpline
 70
8
 71
3
 72
8
 73
4
 74
0
 40
0
 40
0
 40
0
 40
0
 40
1
 40
1
 40
1
 40
1
 10
4231349.019301
 20
4056823.733301
 30
0.0
 10
4227840.422813
 20
4056823.733301
 30
0.0
 10
4224475.529303
 20
4055429.948773
 30
0.0
 10
4221994.576933
 20
4052948.996404
 30
0.0
  0
SPLINE
  5
1b6
100
AcDbEntity
  8
0
 62
7
100
AcDbSpline
 70
8
 71
3
 72
8
 73
4
 74
0
 40
0
 40
0
 40
0
 40
0
 40
1
 40
1
 40
1
 40
1
 10
4221994.576933
 20
4052948.996404
 30
0.0
 10
4219513.624564
 20
4050468.044034
 30
0.0
 10
4218119.840036
 20
4047103.150524
 30
0.0
 10
4218119.840036
 20
4043594.554035
 30
0.0
  0
LWPOLYLINE
  5
1b7
100
AcDbEntity
  8
0
 62
7
100
AcDbPolyline
 90
2
 70
0
 10
3379733.833267
 20
2014238.322423
 30
0.0
 10
3538483.984453
 20
2014238.322423
 30
0.0
  0
SPLINE
  5
1b8
100
AcDbEntity
  8
0
 62
7
100
AcDbSpline
 70
8
 71
3
 72
8
 73
4
 74
0
 40
0
 40
0
 40
0
 40
0
 40
1
 40
1
 40
1
 40
1
 10
4562078.500938
 20
2502738.995979
 30
0.0
 10
4562078.500938
 20
2506247.592467
 30
0.0
 10
4560684.716410
 20
2509612.485978
 30
0.0
 10
4558203.764040
 20
2512093.438347
 30
0.0
  0
SPLINE
  5
1b9
100
AcDbEntity
  8
0
 62
7
100
AcDbSpline
 70
8
 71
3
 72
8
 73
4
 74
0
 40
0
 40
0
 40
0
 40
0
 40
1
 40
1
 40
1
 40
1
 10
4558203.764040
 20
2512093.438347
 30
0.0
 10
4555722.811671
 20
2514574.390717
 30
0.0
 10
4552357.918160
 20
2515968.175245
 30
0.0
 10
4548849.321672
 20
2515968.175245
 30
0.0
  0
LWPOLYLINE
  5
1ba
100
AcDbEntity
  8
0
 62
7
100
AcDbPolyline
 90
2
 70
0
 10
4218119.840036
 20
4043594.554035
 30
0.0
 10
4218119.840036
 20
3699635.893134
 30
0.0
  0
LWPOLYLINE
  5
1bb
100
AcDbEntity
  8
0
 62
7
100
AcDbPolyline
 90
2
 70
0
 10
4735380.749315
 20
3048760.273273
 30
0.0
 10
5079339.410217
 20
3048760.273273
 30
0.0
  0
SPLINE
  5
1bc
100
AcDbEntity
  8
0
 62
7
100
AcDbSpline
 70
8
 71
3
 72
8
 73
4
 74
0
 40
0
 40
0
 40
0
 40
0
 40
1
 40
1
 40
1
 40
1
 10
2719253.829260
 20
4056823.733301
 30
0.0
 10
2715745.232772
 20
4056823.733301
 30
0.0
 10
2712380.339261
 20
4055429.948773
 30
0.0
 10
2709899.386892
 20
4052948.996404
 30
0.0
  0
SPLINE
  5
1bd
100
AcDbEntity
  8
0
 62
7
100
AcDbSpline
 70
8
 71
3
 72
8
 73
4
 74
0
 40
0
 40
0
 40
0
 40
0
 40
1
 40
1
 40
1
 40
1
 10
2709899.386892
 20
4052948.996404
 30
0.0
 10
2707418.434523
 20
4050468.044034
 30
0.0
 10
2706024.649995
 20
4047103.150524
 30
0.0
 10
2706024.649995
 20
4043594.554035
 30
0.0
  0
LWPOLYLINE
  5
1be
100
AcDbEntity
  8
0
 62
7
100
AcDbPolyline
 90
2
 70
0
 10
3714088.110022
 20
4043594.554035
 30
0.0
 10
3714088.110022
 20
3699635.893134
 30
0.0
  0
LWPOLYLINE
  5
1bf
100
AcDbEntity
  8
0
 62
7
100
AcDbPolyline
 90
2
 70
0
 10
3727317.289288
 20
2544728.410968
 30
0.0
 10
4071275.950189
 20
2544728.410968
 30
0.0
  0
SPLINE
  5
1c0
100
AcDbEntity
  8
0
 62
7
100
AcDbSpline
 70
8
 71
3
 72
8
 73
4
 74
0
 40
0
 40
0
 40
0
 40
0
 40
1
 40
1
 40
1
 40
1
 10
3076441.669427
 20
3539562.824022
 30
0.0
 10
3076441.669427
 20
3543071.420510
 30
0.0
 10
3075047.884899
 20
3546436.314020
 30
0.0
 10
3072566.932530
 20
3548917.266390
 30
0.0
  0
SPLINE
  5
1c1
100
AcDbEntity
  8
0
 62
7
100
AcDbSpline
 70
8
 71
3
 72
8
 73
4
 74
0
 40
0
 40
0
 40
0
 40
0
 40
1
 40
1
 40
1
 40
1
 10
3072566.932530
 20
3548917.266390
 30
0.0
 10
3070085.980161
 20
3551398.218759
 30
0.0
 10
3066721.086650
 20
3552792.003287
 30
0.0
 10
3063212.490162
 20
3552792.003287
 30
0.0
  0
LWPOLYLINE
  5
1c2
100
AcDbEntity
  8
0
 62
7
100
AcDbPolyline
 90
2
 70
0
 10
5092568.589482
 20
4043594.554035
 30
0.0
 10
5092568.589482
 20
3699635.893134
 30
0.0
  0
SPLINE
  5
1c3
100
AcDbEntity
  8
0
 62
7
100
AcDbSpline
 70
8
 71
3
 72
8
 73
4
 74
0
 40
0
 40
0
 40
0
 40
0
 40
1
 40
1
 40
1
 40
1
 10
3076441.669427
 20
2531499.231702
 30
0.0
 10
3076441.669427
 20
2535007.828191
 30
0.0
 10
3075047.884899
 20
2538372.721701
 30
0.0
 10
3072566.932530
 20
2540853.674070
 30
0.0
  0
SPLINE
  5
1c4
100
AcDbEntity
  8
0
 62
7
100
AcDbSpline
 70
8
 71
3
 72
8
 73
4
 74
0
 40
0
 40
0
 40
0
 40
0
 40
1
 40
1
 40
1
 40
1
 10
3072566.932530
 20
2540853.674070
 30
0.0
 10
3070085.980161
 20
2543334.626440
 30
0.0
 10
3066721.086650
 20
2544728.410968
 30
0.0
 10
3063212.490162
 20
2544728.410968
 30
0.0
  0
SPLINE
  5
1c5
100
AcDbEntity
  8
0
 62
7
100
AcDbSpline
 70
8
 71
3
 72
8
 73
4
 74
0
 40
0
 40
0
 40
0
 40
0
 40
1
 40
1
 40
1
 40
1
 10
4588536.859469
 20
4043594.554035
 30
0.0
 10
4588536.859469
 20
4047103.150524
 30
0.0
 10
4587143.074941
 20
4050468.044034
 30
0.0
 10
4584662.122571
 20
4052948.996404
 30
0.0
  0
SPLINE
  5
1c6
100
AcDbEntity
  8
0
 62
7
100
AcDbSpline
 70
8
 71
3
 72
8
 73
4
 74
0
 40
0
 40
0
 40
0
 40
0
 40
1
 40
1
 40
1
 40
1
 10
4584662.122571
 20
4052948.996404
 30
0.0
 10
4582181.170202
 20
4055429.948773
 30
0.0
 10
4578816.276691
 20
4056823.733301
 30
0.0
 10
4575307.680203
 20
4056823.733301
 30
0.0
  0
SPLINE
  5
1c7
100
AcDbEntity
  8
0
 62
7
100
AcDbSpline
 70
8
 71
3
 72
8
 73
4
 74
0
 40
0
 40
0
 40
0
 40
0
 40
1
 40
1
 40
1
 40
1
 10
3328457.534434
 20
2027467.501689
 30
0.0
 10
3328457.534434
 20
2030976.098177
 30
0.0
 10
3327063.749906
 20
2034340.991687
 30
0.0
 10
3324582.797537
 20
2036821.944057
 30
0.0
  0
SPLINE
  5
1c8
100
AcDbEntity
  8
0
 62
7
100
AcDbSpline
 70
8
 71
3
 72
8
 73
4
 74
0
 40
0
 40
0
 40
0
 40
0
 40
1
 40
1
 40
1
 40
1
 10
3324582.797537
 20
2036821.944057
 30
0.0
 10
3322101.845168
 20
2039302.896426
 30
0.0
 10
3318736.951657
 20
2040696.680954
 30
0.0
 10
3315228.355169
 20
2040696.680954
 30
0.0
  0
LWPOLYLINE
  5
1c9
100
AcDbEntity
  8
0
 62
7
100
AcDbPolyline
 90
2
 70
0
 10
3076441.669427
 20
3539562.824022
 30
0.0
 10
3076441.669427
 20
3195604.163120
 30
0.0
  0
LWPOLYLINE
  5
1ca
100
AcDbEntity
  8
0
 62
7
100
AcDbPolyline
 90
2
 70
0
 10
3223285.559274
 20
2544728.410968
 30
0.0
 10
3567244.220176
 20
2544728.410968
 30
0.0
  0
SPLINE
  5
1cb
100
AcDbEntity
  8
0
 62
7
100
AcDbSpline
 70
8
 71
3
 72
8
 73
4
 74
0
 40
0
 40
0
 40
0
 40
0
 40
1
 40
1
 40
1
 40
1
 10
4178432.302240
 20
3524031.767564
 30
0.0
 10
4174923.705751
 20
3524031.767564
 30
0.0
 10
4171558.812241
 20
3522637.983036
 30
0.0
 10
4169077.859871
 20
3520157.030667
 30
0.0
  0
SPLINE
  5
1cc
100
AcDbEntity
  8
0
 62
7
100
AcDbSpline
 70
8
 71
3
 72
8
 73
4
 74
0
 40
0
 40
0
 40
0
 40
0
 40
1
 40
1
 40
1
 40
1
 10
4169077.859871
 20
3520157.030667
 30
0.0
 10
4166596.907502
 20
3517676.078297
 30
0.0
 10
4165203.122974
 20
3514311.184787
 30
0.0
 10
4165203.122974
 20
3510802.588299
 30
0.0
  0
SPLINE
  5
1cd
100
AcDbEntity
  8
0
 62
7
100
AcDbSpline
 70
8
 71
3
 72
8
 73
4
 74
0
 40
0
 40
0
 40
0
 40
0
 40
1
 40
1
 40
1
 40
1
 10
5079339.410217
 20
2678343.121549
 30
0.0
 10
5082848.006705
 20
2678343.121549
 30
0.0
 10
5086212.900216
 20
2679736.906077
 30
0.0
 10
5088693.852585
 20
2682217.858446
 30
0.0
  0
SPLINE
  5
1ce
100
AcDbEntity
  8
0
 62
7
100
AcDbSpline
 70
8
 71
3
 72
8
 73
4
 74
0
 40
0
 40
0
 40
0
 40
0
 40
1
 40
1
 40
1
 40
1
 10
5088693.852585
 20
2682217.858446
 30
0.0
 10
5091174.804954
 20
2684698.810815
 30
0.0
 10
5092568.589482
 20
2688063.704326
 30
0.0
 10
5092568.589482
 20
2691572.300814
 30
0.0
  0
LWPOLYLINE
  5
1cf
100
AcDbEntity
  8
0
 62
7
100
AcDbPolyline
 90
2
 70
0
 10
4690015.247778
 20
4532169.310995
 30
0.0
 10
4690015.247778
 20
4106766.530864
 30
0.0
  0
SPLINE
  5
1d0
100
AcDbEntity
  8
0
 62
7
100
AcDbSpline
 70
8
 71
3
 72
8
 73
4
 74
0
 40
0
 40
0
 40
0
 40
0
 40
1
 40
1
 40
1
 40
1
 10
4084505.129455
 20
3035531.094008
 30
0.0
 10
4084505.129455
 20
3039039.690496
 30
0.0
 10
4083111.344927
 20
3042404.584007
 30
0.0
 10
4080630.392558
 20
3044885.536376
 30
0.0
  0
SPLINE
  5
1d1
100
AcDbEntity
  8
0
 62
7
100
AcDbSpline
 70
8
 71
3
 72
8
 73
4
 74
0
 40
0
 40
0
 40
0
 40
0
 40
1
 40
1
 40
1
 40
1
 10
4080630.392558
 20
3044885.536376
 30
0.0
 10
4078149.440188
 20
3047366.488745
 30
0.0
 10
4074784.546678
 20
3048760.273273
 30
0.0
 10
4071275.950189
 20
3048760.273273
 30
0.0
  0
SPLINE
  5
1d2
100
AcDbEntity
  8
0
 62
7
100
AcDbSpline
 70
8
 71
3
 72
8
 73
4
 74
0
 40
0
 40
0
 40
0
 40
0
 40
1
 40
1
 40
1
 40
1
 10
4722151.570050
 20
2691572.300814
 30
0.0
 10
4722151.570050
 20
2688063.704326
 30
0.0
 10
4723545.354578
 20
2684698.810815
 30
0.0
 10
4726026.306947
 20
2682217.858446
 30
0.0
  0
SPLINE
  5
1d3
100
AcDbEntity
  8
0
 62
7
100
AcDbSpline
 70
8
 71
3
 72
8
 73
4
 74
0
 40
0
 40
0
 40
0
 40
0
 40
1
 40
1
 40
1
 40
1
 10
4726026.306947
 20
2682217.858446
 30
0.0
 10
4728507.259316
 20
2679736.906077
 30
0.0
 10
4731872.152827
 20
2678343.121549
 30
0.0
 10
4735380.749315
 20
2678343.121549
 30
0.0
  0
LWPOLYLINE
  5
1d4
100
AcDbEntity
  8
0
 62
7
100
AcDbPolyline
 90
2
 70
0
 10
4735380.749315
 20
4056823.733301
 30
0.0
 10
5079339.410217
 20
4056823.733301
 30
0.0
  0
LWPOLYLINE
  5
1d5
100
AcDbEntity
  8
0
 62
7
100
AcDbPolyline
 90
2
 70
0
 10
4084505.129455
 20
3035531.094008
 30
0.0
 10
4084505.129455
 20
2691572.300814
 30
0.0
  0
LWPOLYLINE
  5
1d6
100
AcDbEntity
  8
0
 62
7
100
AcDbPolyline
 90
2
 70
0
 10
4562078.500938
 20
1871019.227695
 30
0.0
 10
4562078.500938
 20
1712269.076510
 30
0.0
  0
SPLINE
  5
1d7
100
AcDbEntity
  8
0
 62
7
100
AcDbSpline
 70
8
 71
3
 72
8
 73
4
 74
0
 40
0
 40
0
 40
0
 40
0
 40
1
 40
1
 40
1
 40
1
 10
3714088.110022
 20
2187540.570801
 30
0.0
 10
3714088.110022
 20
2184031.974312
 30
0.0
 10
3715481.894550
 20
2180667.080802
 30
0.0
 10
3717962.846919
 20
2178186.128432
 30
0.0
  0
SPLINE
  5
1d8
100
AcDbEntity
  8
0
 62
7
100
AcDbSpline
 70
8
 71
3
 72
8
 73
4
 74
0
 40
0
 40
0
 40
0
 40
0
 40
1
 40
1
 40
1
 40
1
 10
3717962.846919
 20
2178186.128432
 30
0.0
 10
3720443.799289
 20
2175705.176063
 30
0.0
 10
3723808.692799
 20
2174311.391535
 30
0.0
 10
3727317.289288
 20
2174311.391535
 30
0.0
  0
SPLINE
  5
1d9
100
AcDbEntity
  8
0
 62
7
100
AcDbSpline
 70
8
 71
3
 72
8
 73
4
 74
0
 40
0
 40
0
 40
0
 40
0
 40
1
 40
1
 40
1
 40
1
 10
5079339.410217
 20
1670279.661521
 30
0.0
 10
5082848.006705
 20
1670279.661521
 30
0.0
 10
5086212.900216
 20
1671673.446049
 30
0.0
 10
5088693.852585
 20
1674154.398419
 30
0.0
  0
SPLINE
  5
1da
100
AcDbEntity
  8
0
 62
7
100
AcDbSpline
 70
8
 71
3
 72
8
 73
4
 74
0
 40
0
 40
0
 40
0
 40
0
 40
1
 40
1
 40
1
 40
1
 10
5088693.852585
 20
1674154.398419
 30
0.0
 10
5091174.804954
 20
1676635.350788
 30
0.0
 10
5092568.589482
 20
1680000.244299
 30
0.0
 10
5092568.589482
 20
1683508.840787
 30
0.0
  0
SPLINE
  5
1db
100
AcDbEntity
  8
0
 62
7
100
AcDbSpline
 70
8
 71
3
 72
8
 73
4
 74
0
 40
0
 40
0
 40
0
 40
0
 40
1
 40
1
 40
1
 40
1
 10
3551713.163718
 20
2001009.143158
 30
0.0
 10
3551713.163718
 20
2004517.739646
 30
0.0
 10
3550319.379190
 20
2007882.633157
 30
0.0
 10
3547838.426821
 20
2010363.585526
 30
0.0
  0
SPLINE
  5
1dc
100
AcDbEntity
  8
0
 62
7
100
AcDbSpline
 70
8
 71
3
 72
8
 73
4
 74
0
 40
0
 40
0
 40
0
 40
0
 40
1
 40
1
 40
1
 40
1
 10
3547838.426821
 20
2010363.585526
 30
0.0
 10
3545357.474451
 20
2012844.537895
 30
0.0
 10
3541992.580941
 20
2014238.322423
 30
0.0
 10
3538483.984453
 20
2014238.322423
 30
0.0
  0
LWPOLYLINE
  5
1dd
100
AcDbEntity
  8
0
 62
7
100
AcDbPolyline
 90
2
 70
0
 10
5126170.704817
 20
4106766.530864
 30
0.0
 10
4690015.247778
 20
4106766.530864
 30
0.0
  0
SPLINE
  5
1de
100
AcDbEntity
  8
0
 62
7
100
AcDbSpline
 70
8
 71
3
 72
8
 73
4
 74
0
 40
0
 40
0
 40
0
 40
0
 40
1
 40
1
 40
1
 40
1
 10
4562078.500938
 20
1871019.227695
 30
0.0
 10
4562078.500938
 20
1874527.824184
 30
0.0
 10
4560684.716410
 20
1877892.717694
 30
0.0
 10
4558203.764040
 20
1880373.670063
 30
0.0
  0
SPLINE
  5
1df
100
AcDbEntity
  8
0
 62
7
100
AcDbSpline
 70
8
 71
3
 72
8
 73
4
 74
0
 40
0
 40
0
 40
0
 40
0
 40
1
 40
1
 40
1
 40
1
 10
4558203.764040
 20
1880373.670063
 30
0.0
 10
4555722.811671
 20
1882854.622433
 30
0.0
 10
4552357.918160
 20
1884248.406961
 30
0.0
 10
4548849.321672
 20
1884248.406961
 30
0.0
  0
SPLINE
  5
1e0
100
AcDbEntity
  8
0
 62
7
100
AcDbSpline
 70
8
 71
3
 72
8
 73
4
 74
0
 40
0
 40
0
 40
0
 40
0
 40
1
 40
1
 40
1
 40
1
 10
2919993.395434
 20
2001009.143158
 30
0.0
 10
2919993.395434
 20
2004517.739646
 30
0.0
 10
2918599.610906
 20
2007882.633157
 30
0.0
 10
2916118.658537
 20
2010363.585526
 30
0.0
  0
SPLINE
  5
1e1
100
AcDbEntity
  8
0
 62
7
100
AcDbSpline
 70
8
 71
3
 72
8
 73
4
 74
0
 40
0
 40
0
 40
0
 40
0
 40
1
 40
1
 40
1
 40
1
 10
2916118.658537
 20
2010363.585526
 30
0.0
 10
2913637.706167
 20
2012844.537895
 30
0.0
 10
2910272.812657
 20
2014238.322423
 30
0.0
 10
2906764.216169
 20
2014238.322423
 30
0.0
  0
SPLINE
  5
1e2
100
AcDbEntity
  8
0
 62
7
100
AcDbSpline
 70
8
 71
3
 72
8
 73
4
 74
0
 40
0
 40
0
 40
0
 40
0
 40
1
 40
1
 40
1
 40
1
 10
4575307.680203
 20
2930359.118848
 30
0.0
 10
4578816.276691
 20
2930359.118848
 30
0.0
 10
4582181.170202
 20
2931752.903376
 30
0.0
 10
4584662.122571
 20
2934233.855745
 30
0.0
  0
SPLINE
  5
1e3
100
AcDbEntity
  8
0
 62
7
100
AcDbSpline
 70
8
 71
3
 72
8
 73
4
 74
0
 40
0
 40
0
 40
0
 40
0
 40
1
 40
1
 40
1
 40
1
 10
4584662.122571
 20
2934233.855745
 30
0.0
 10
4587143.074941
 20
2936714.808114
 30
0.0
 10
4588536.859469
 20
2940079.701625
 30
0.0
 10
4588536.859469
 20
2943588.298113
 30
0.0
  0
LWPOLYLINE
  5
1e4
100
AcDbEntity
  8
0
 62
7
100
AcDbPolyline
 90
2
 70
0
 10
4432623.044318
 20
4773432.499095
 30
0.0
 10
4698079.755458
 20
4773432.499095
 30
0.0
  0
SPLINE
  5
1e5
100
AcDbEntity
  8
0
 62
7
100
AcDbSpline
 70
8
 71
3
 72
8
 73
4
 74
0
 40
0
 40
0
 40
0
 40
0
 40
1
 40
1
 40
1
 40
1
 10
5092568.589482
 20
2531499.231702
 30
0.0
 10
5092568.589482
 20
2535007.828191
 30
0.0
 10
5091174.804954
 20
2538372.721701
 30
0.0
 10
5088693.852585
 20
2540853.674070
 30
0.0
  0
SPLINE
  5
1e6
100
AcDbEntity
  8
0
 62
7
100
AcDbSpline
 70
8
 71
3
 72
8
 73
4
 74
0
 40
0
 40
0
 40
0
 40
0
 40
1
 40
1
 40
1
 40
1
 10
5088693.852585
 20
2540853.674070
 30
0.0
 10
5086212.900216
 20
2543334.626440
 30
0.0
 10
5082848.006705
 20
2544728.410968
 30
0.0
 10
5079339.410217
 20
2544728.410968
 30
0.0
  0
LWPOLYLINE
  5
1e7
100
AcDbEntity
  8
0
 62
7
100
AcDbPolyline
 90
2
 70
0
 10
4373657.946496
 20
4260240.885358
 30
0.0
 10
4373657.946496
 20
4634071.033041
 30
0.0
  0
SPLINE
  5
1e8
100
AcDbEntity
  8
0
 62
7
100
AcDbSpline
 70
8
 71
3
 72
8
 73
4
 74
0
 40
0
 40
0
 40
0
 40
0
 40
1
 40
1
 40
1
 40
1
 10
3063212.490162
 20
2174311.391535
 30
0.0
 10
3066721.086650
 20
2174311.391535
 30
0.0
 10
3070085.980161
 20
2175705.176063
 30
0.0
 10
3072566.932530
 20
2178186.128432
 30
0.0
  0
SPLINE
  5
1e9
100
AcDbEntity
  8
0
 62
7
100
AcDbSpline
 70
8
 71
3
 72
8
 73
4
 74
0
 40
0
 40
0
 40
0
 40
0
 40
1
 40
1
 40
1
 40
1
 10
3072566.932530
 20
2178186.128432
 30
0.0
 10
3075047.884899
 20
2180667.080802
 30
0.0
 10
3076441.669427
 20
2184031.974312
 30
0.0
 10
3076441.669427
 20
2187540.570801
 30
0.0
  0
LWPOLYLINE
  5
1ea
100
AcDbEntity
  8
0
 62
7
100
AcDbPolyline
 90
2
 70
0
 10
4575307.680203
 20
1922295.526528
 30
0.0
 10
4231349.019301
 20
1922295.526528
 30
0.0
  0
LWPOLYLINE
  5
1eb
100
AcDbEntity
  8
0
 62
7
100
AcDbPolyline
 90
2
 70
0
 10
3223285.559274
 20
3686406.713868
 30
0.0
 10
3567244.220176
 20
3686406.713868
 30
0.0
  0
LWPOLYLINE
  5
1ec
100
AcDbEntity
  8
0
 62
7
100
AcDbPolyline
 90
2
 70
0
 10
4218119.840036
 20
2279483.366695
 30
0.0
 10
4218119.840036
 20
1935524.705794
 30
0.0
  0
SPLINE
  5
1ed
100
AcDbEntity
  8
0
 62
7
100
AcDbSpline
 70
8
 71
3
 72
8
 73
4
 74
0
 40
0
 40
0
 40
0
 40
0
 40
1
 40
1
 40
1
 40
1
 10
5092568.589482
 20
3539562.824022
 30
0.0
 10
5092568.589482
 20
3543071.420510
 30
0.0
 10
5091174.804954
 20
3546436.314020
 30
0.0
 10
5088693.852585
 20
3548917.266390
 30
0.0
  0
SPLINE
  5
1ee
100
AcDbEntity
  8
0
 62
7
100
AcDbSpline
 70
8
 71
3
 72
8
 73
4
 74
0
 40
0
 40
0
 40
0
 40
0
 40
1
 40
1
 40
1
 40
1
 10
5088693.852585
 20
3548917.266390
 30
0.0
 10
5086212.900216
 20
3551398.218759
 30
0.0
 10
5082848.006705
 20
3552792.003287
 30
0.0
 10
5079339.410217
 20
3552792.003287
 30
0.0
  0
LWPOLYLINE
  5
1ef
100
AcDbEntity
  8
0
 62
7
100
AcDbPolyline
 90
2
 70
0
 10
3580473.399441
 20
3035531.094008
 30
0.0
 10
3580473.399441
 20
2691572.300814
 30
0.0
  0
LWPOLYLINE
  5
1f0
100
AcDbEntity
  8
0
 62
7
100
AcDbPolyline
 90
2
 70
0
 10
3727317.289288
 20
3182374.983854
 30
0.0
 10
4071275.950189
 20
3182374.983854
 30
0.0
  0
SPLINE
  5
1f1
100
AcDbEntity
  8
0
 62
7
100
AcDbSpline
 70
8
 71
3
 72
8
 73
4
 74
0
 40
0
 40
0
 40
0
 40
0
 40
1
 40
1
 40
1
 40
1
 10
5092568.589482
 20
3035531.094008
 30
0.0
 10
5092568.589482
 20
3039039.690496
 30
0.0
 10
5091174.804954
 20
3042404.584007
 30
0.0
 10
5088693.852585
 20
3044885.536376
 30
0.0
  0
SPLINE
  5
1f2
100
AcDbEntity
  8
0
 62
7
100
AcDbSpline
 70
8
 71
3
 72
8
 73
4
 74
0
 40
0
 40
0
 40
0
 40
0
 40
1
 40
1
 40
1
 40
1
 10
5088693.852585
 20
3044885.536376
 30
0.0
 10
5086212.900216
 20
3047366.488745
 30
0.0
 10
5082848.006705
 20
3048760.273273
 30
0.0
 10
5079339.410217
 20
3048760.273273
 30
0.0
  0
SPLINE
  5
1f3
100
AcDbEntity
  8
0
 62
7
100
AcDbSpline
 70
8
 71
3
 72
8
 73
4
 74
0
 40
0
 40
0
 40
0
 40
0
 40
1
 40
1
 40
1
 40
1
 10
3210056.380008
 20
2691572.300814
 30
0.0
 10
3210056.380008
 20
2688063.704326
 30
0.0
 10
3211450.164536
 20
2684698.810815
 30
0.0
 10
3213931.116906
 20
2682217.858446
 30
0.0
  0
SPLINE
  5
1f4
100
AcDbEntity
  8
0
 62
7
100
AcDbSpline
 70
8
 71
3
 72
8
 73
4
 74
0
 40
0
 40
0
 40
0
 40
0
 40
1
 40
1
 40
1
 40
1
 10
3213931.116906
 20
2682217.858446
 30
0.0
 10
3216412.069275
 20
2679736.906077
 30
0.0
 10
3219776.962786
 20
2678343.121549
 30
0.0
 10
3223285.559274
 20
2678343.121549
 30
0.0
  0
SPLINE
  5
1f5
100
AcDbEntity
  8
0
 62
7
100
AcDbSpline
 70
8
 71
3
 72
8
 73
4
 74
0
 40
0
 40
0
 40
0
 40
0
 40
1
 40
1
 40
1
 40
1
 10
2748014.064983
 20
2014238.322423
 30
0.0
 10
2744505.468495
 20
2014238.322423
 30
0.0
 10
2741140.574984
 20
2012844.537895
 30
0.0
 10
2738659.622615
 20
2010363.585526
 30
0.0
  0
SPLINE
  5
1f6
100
AcDbEntity
  8
0
 62
7
100
AcDbSpline
 70
8
 71
3
 72
8
 73
4
 74
0
 40
0
 40
0
 40
0
 40
0
 40
1
 40
1
 40
1
 40
1
 10
2738659.622615
 20
2010363.585526
 30
0.0
 10
2736178.670246
 20
2007882.633157
 30
0.0
 10
2734784.885718
 20
2004517.739646
 30
0.0
 10
2734784.885718
 20
2001009.143158
 30
0.0
  0
LWPOLYLINE
  5
1f7
100
AcDbEntity
  8
0
 62
7
100
AcDbPolyline
 90
2
 70
0
 10
4722151.570050
 20
2027467.501689
 30
0.0
 10
4722151.570050
 20
1683508.840787
 30
0.0
  0
LWPOLYLINE
  5
1f8
100
AcDbEntity
  8
0
 62
7
100
AcDbPolyline
 90
2
 70
0
 10
4548849.321672
 20
3338823.257848
 30
0.0
 10
4178432.302240
 20
3338823.257848
 30
0.0
  0
SPLINE
  5
1f9
100
AcDbEntity
  8
0
 62
7
100
AcDbSpline
 70
8
 71
3
 72
8
 73
4
 74
0
 40
0
 40
0
 40
0
 40
0
 40
1
 40
1
 40
1
 40
1
 10
3567244.220176
 20
3182374.983854
 30
0.0
 10
3570752.816664
 20
3182374.983854
 30
0.0
 10
3574117.710174
 20
3183768.768382
 30
0.0
 10
3576598.662544
 20
3186249.720752
 30
0.0
  0
SPLINE
  5
1fa
100
AcDbEntity
  8
0
 62
7
100
AcDbSpline
 70
8
 71
3
 72
8
 73
4
 74
0
 40
0
 40
0
 40
0
 40
0
 40
1
 40
1
 40
1
 40
1
 10
3576598.662544
 20
3186249.720752
 30
0.0
 10
3579079.614913
 20
3188730.673121
 30
0.0
 10
3580473.399441
 20
3192095.566632
 30
0.0
 10
3580473.399441
 20
3195604.163120
 30
0.0
  0
LWPOLYLINE
  5
1fb
100
AcDbEntity
  8
0
 62
7
100
AcDbPolyline
 90
2
 70
0
 10
3223285.559274
 20
4056823.733301
 30
0.0
 10
3567244.220176
 20
4056823.733301
 30
0.0
  0
SPLINE
  5
1fc
100
AcDbEntity
  8
0
 62
7
100
AcDbSpline
 70
8
 71
3
 72
8
 73
4
 74
0
 40
0
 40
0
 40
0
 40
0
 40
1
 40
1
 40
1
 40
1
 10
4071275.950189
 20
2174311.391535
 30
0.0
 10
4074784.546678
 20
2174311.391535
 30
0.0
 10
4078149.440188
 20
2175705.176063
 30
0.0
 10
4080630.392558
 20
2178186.128432
 30
0.0
  0
SPLINE
  5
1fd
100
AcDbEntity
  8
0
 62
7
100
AcDbSpline
 70
8
 71
3
 72
8
 73
4
 74
0
 40
0
 40
0
 40
0
 40
0
 40
1
 40
1
 40
1
 40
1
 10
4080630.392558
 20
2178186.128432
 30
0.0
 10
4083111.344927
 20
2180667.080802
 30
0.0
 10
4084505.129455
 20
2184031.974312
 30
0.0
 10
4084505.129455
 20
2187540.570801
 30
0.0
  0
LWPOLYLINE
  5
1fe
100
AcDbEntity
  8
0
 62
7
100
AcDbPolyline
 90
2
 70
0
 10
3580473.399441
 20
2531499.231702
 30
0.0
 10
3580473.399441
 20
2187540.570801
 30
0.0
  0
LWPOLYLINE
  5
1ff
100
AcDbEntity
  8
0
 62
7
100
AcDbPolyline
 90
2
 70
0
 10
2719253.829260
 20
3552792.003287
 30
0.0
 10
3063212.490162
 20
3552792.003287
 30
0.0
  0
SPLINE
  5
200
100
AcDbEntity
  8
0
 62
7
100
AcDbSpline
 70
8
 71
3
 72
8
 73
4
 74
0
 40
0
 40
0
 40
0
 40
0
 40
1
 40
1
 40
1
 40
1
 10
4735380.749315
 20
3048760.273273
 30
0.0
 10
4731872.152827
 20
3048760.273273
 30
0.0
 10
4728507.259316
 20
3047366.488745
 30
0.0
 10
4726026.306947
 20
3044885.536376
 30
0.0
  0
SPLINE
  5
201
100
AcDbEntity
  8
0
 62
7
100
AcDbSpline
 70
8
 71
3
 72
8
 73
4
 74
0
 40
0
 40
0
 40
0
 40
0
 40
1
 40
1
 40
1
 40
1
 10
4726026.306947
 20
3044885.536376
 30
0.0
 10
4723545.354578
 20
3042404.584007
 30
0.0
 10
4722151.570050
 20
3039039.690496
 30
0.0
 10
4722151.570050
 20
3035531.094008
 30
0.0
  0
LWPOLYLINE
  5
202
100
AcDbEntity
  8
0
 62
7
100
AcDbPolyline
 90
2
 70
0
 10
2706024.649995
 20
3539562.824022
 30
0.0
 10
2706024.649995
 20
3195604.163120
 30
0.0
  0
LWPOLYLINE
  5
203
100
AcDbEntity
  8
0
 62
7
100
AcDbPolyline
 90
2
 70
0
 10
4722151.570050
 20
3539562.824022
 30
0.0
 10
4722151.570050
 20
3195604.163120
 30
0.0
  0
LWPOLYLINE
  5
204
100
AcDbEntity
  8
0
 62
7
100
AcDbPolyline
 90
2
 70
0
 10
4548849.321672
 20
2330759.665528
 30
0.0
 10
4178432.302240
 20
2330759.665528
 30
0.0
  0
LWPOLYLINE
  5
205
100
AcDbEntity
  8
0
 62
7
100
AcDbPolyline
 90
2
 70
0
 10
2719253.829260
 20
4056823.733301
 30
0.0
 10
3063212.490162
 20
4056823.733301
 30
0.0
  0
LWPOLYLINE
  5
206
100
AcDbEntity
  8
0
 62
7
100
AcDbPolyline
 90
2
 70
0
 10
3727317.289288
 20
3686406.713868
 30
0.0
 10
4071275.950189
 20
3686406.713868
 30
0.0
  0
LWPOLYLINE
  5
207
100
AcDbEntity
  8
0
 62
7
100
AcDbPolyline
 90
2
 70
0
 10
2719253.829260
 20
3048760.273273
 30
0.0
 10
3063212.490162
 20
3048760.273273
 30
0.0
  0
SPLINE
  5
208
100
AcDbEntity
  8
0
 62
7
100
AcDbSpline
 70
8
 71
3
 72
8
 73
4
 74
0
 40
0
 40
0
 40
0
 40
0
 40
1
 40
1
 40
1
 40
1
 10
3063212.490162
 20
3182374.983854
 30
0.0
 10
3066721.086650
 20
3182374.983854
 30
0.0
 10
3070085.980161
 20
3183768.768382
 30
0.0
 10
3072566.932530
 20
3186249.720752
 30
0.0
  0
SPLINE
  5
209
100
AcDbEntity
  8
0
 62
7
100
AcDbSpline
 70
8
 71
3
 72
8
 73
4
 74
0
 40
0
 40
0
 40
0
 40
0
 40
1
 40
1
 40
1
 40
1
 10
3072566.932530
 20
3186249.720752
 30
0.0
 10
3075047.884899
 20
3188730.673121
 30
0.0
 10
3076441.669427
 20
3192095.566632
 30
0.0
 10
3076441.669427
 20
3195604.163120
 30
0.0
  0
LWPOLYLINE
  5
20a
100
AcDbEntity
  8
0
 62
7
100
AcDbPolyline
 90
2
 70
0
 10
4373657.946496
 20
4260240.885358
 30
0.0
 10
3311656.476767
 20
4260240.885358
 30
0.0
  0
LWPOLYLINE
  5
20b
100
AcDbEntity
  8
0
 62
7
100
AcDbPolyline
 90
2
 70
0
 10
4373234.612759
 20
4634071.033041
 30
0.0
 10
3311233.143031
 20
4634071.033041
 30
0.0
  0
LWPOLYLINE
  5
20c
100
AcDbEntity
  8
0
 62
7
100
AcDbPolyline
 90
2
 70
0
 10
4548849.321672
 20
2515968.175245
 30
0.0
 10
4178432.302240
 20
2515968.175245
 30
0.0
  0
SPLINE
  5
20d
100
AcDbEntity
  8
0
 62
7
100
AcDbSpline
 70
8
 71
3
 72
8
 73
4
 74
0
 40
0
 40
0
 40
0
 40
0
 40
1
 40
1
 40
1
 40
1
 10
2719253.829260
 20
3552792.003287
 30
0.0
 10
2715745.232772
 20
3552792.003287
 30
0.0
 10
2712380.339261
 20
3551398.218759
 30
0.0
 10
2709899.386892
 20
3548917.266390
 30
0.0
  0
SPLINE
  5
20e
100
AcDbEntity
  8
0
 62
7
100
AcDbSpline
 70
8
 71
3
 72
8
 73
4
 74
0
 40
0
 40
0
 40
0
 40
0
 40
1
 40
1
 40
1
 40
1
 10
2709899.386892
 20
3548917.266390
 30
0.0
 10
2707418.434523
 20
3546436.314020
 30
0.0
 10
2706024.649995
 20
3543071.420510
 30
0.0
 10
2706024.649995
 20
3539562.824022
 30
0.0
  0
SPLINE
  5
20f
100
AcDbEntity
  8
0
 62
7
100
AcDbSpline
 70
8
 71
3
 72
8
 73
4
 74
0
 40
0
 40
0
 40
0
 40
0
 40
1
 40
1
 40
1
 40
1
 10
3567244.220176
 20
3686406.713868
 30
0.0
 10
3570752.816664
 20
3686406.713868
 30
0.0
 10
3574117.710174
 20
3687800.498396
 30
0.0
 10
3576598.662544
 20
3690281.450765
 30
0.0
  0
SPLINE
  5
210
100
AcDbEntity
  8
0
 62
7
100
AcDbSpline
 70
8
 71
3
 72
8
 73
4
 74
0
 40
0
 40
0
 40
0
 40
0
 40
1
 40
1
 40
1
 40
1
 10
3576598.662544
 20
3690281.450765
 30
0.0
 10
3579079.614913
 20
3692762.403135
 30
0.0
 10
3580473.399441
 20
3696127.296645
 30
0.0
 10
3580473.399441
 20
3699635.893134
 30
0.0
  0
SPLINE
  5
211
100
AcDbEntity
  8
0
 62
7
100
AcDbSpline
 70
8
 71
3
 72
8
 73
4
 74
0
 40
0
 40
0
 40
0
 40
0
 40
1
 40
1
 40
1
 40
1
 10
4722151.570050
 20
1683508.840787
 30
0.0
 10
4722151.570050
 20
1680000.244299
 30
0.0
 10
4723545.354578
 20
1676635.350788
 30
0.0
 10
4726026.306947
 20
1674154.398419
 30
0.0
  0
SPLINE
  5
212
100
AcDbEntity
  8
0
 62
7
100
AcDbSpline
 70
8
 71
3
 72
8
 73
4
 74
0
 40
0
 40
0
 40
0
 40
0
 40
1
 40
1
 40
1
 40
1
 10
4726026.306947
 20
1674154.398419
 30
0.0
 10
4728507.259316
 20
1671673.446049
 30
0.0
 10
4731872.152827
 20
1670279.661521
 30
0.0
 10
4735380.749315
 20
1670279.661521
 30
0.0
  0
LWPOLYLINE
  5
213
100
AcDbEntity
  8
0
 62
7
100
AcDbPolyline
 90
2
 70
0
 10
4084505.129455
 20
2531499.231702
 30
0.0
 10
4084505.129455
 20
2187540.570801
 30
0.0
  0
SPLINE
  5
214
100
AcDbEntity
  8
0
 62
7
100
AcDbSpline
 70
8
 71
3
 72
8
 73
4
 74
0
 40
0
 40
0
 40
0
 40
0
 40
1
 40
1
 40
1
 40
1
 10
3567244.220176
 20
2678343.121549
 30
0.0
 10
3570752.816664
 20
2678343.121549
 30
0.0
 10
3574117.710174
 20
2679736.906077
 30
0.0
 10
3576598.662544
 20
2682217.858446
 30
0.0
  0
SPLINE
  5
215
100
AcDbEntity
  8
0
 62
7
100
AcDbSpline
 70
8
 71
3
 72
8
 73
4
 74
0
 40
0
 40
0
 40
0
 40
0
 40
1
 40
1
 40
1
 40
1
 10
3576598.662544
 20
2682217.858446
 30
0.0
 10
3579079.614913
 20
2684698.810815
 30
0.0
 10
3580473.399441
 20
2688063.704326
 30
0.0
 10
3580473.399441
 20
2691572.300814
 30
0.0
  0
SPLINE
  5
216
100
AcDbEntity
  8
0
 62
7
100
AcDbSpline
 70
8
 71
3
 72
8
 73
4
 74
0
 40
0
 40
0
 40
0
 40
0
 40
1
 40
1
 40
1
 40
1
 10
2719253.829260
 20
3048760.273273
 30
0.0
 10
2715745.232772
 20
3048760.273273
 30
0.0
 10
2712380.339261
 20
3047366.488745
 30
0.0
 10
2709899.386892
 20
3044885.536376
 30
0.0
  0
SPLINE
  5
217
100
AcDbEntity
  8
0
 62
7
100
AcDbSpline
 70
8
 71
3
 72
8
 73
4
 74
0
 40
0
 40
0
 40
0
 40
0
 40
1
 40
1
 40
1
 40
1
 10
2709899.386892
 20
3044885.536376
 30
0.0
 10
2707418.434523
 20
3042404.584007
 30
0.0
 10
2706024.649995
 20
3039039.690496
 30
0.0
 10
2706024.649995
 20
3035531.094008
 30
0.0
  0
SPLINE
  5
218
100
AcDbEntity
  8
0
 62
7
100
AcDbSpline
 70
8
 71
3
 72
8
 73
4
 74
0
 40
0
 40
0
 40
0
 40
0
 40
1
 40
1
 40
1
 40
1
 10
3580473.399441
 20
2531499.231702
 30
0.0
 10
3580473.399441
 20
2535007.828191
 30
0.0
 10
3579079.614913
 20
2538372.721701
 30
0.0
 10
3576598.662544
 20
2540853.674070
 30
0.0
  0
SPLINE
  5
219
100
AcDbEntity
  8
0
 62
7
100
AcDbSpline
 70
8
 71
3
 72
8
 73
4
 74
0
 40
0
 40
0
 40
0
 40
0
 40
1
 40
1
 40
1
 40
1
 10
3576598.662544
 20
2540853.674070
 30
0.0
 10
3574117.710174
 20
2543334.626440
 30
0.0
 10
3570752.816664
 20
2544728.410968
 30
0.0
 10
3567244.220176
 20
2544728.410968
 30
0.0
  0
SPLINE
  5
21a
100
AcDbEntity
  8
0
 62
7
100
AcDbSpline
 70
8
 71
3
 72
8
 73
4
 74
0
 40
0
 40
0
 40
0
 40
0
 40
1
 40
1
 40
1
 40
1
 10
5079339.410217
 20
3182374.983854
 30
0.0
 10
5082848.006705
 20
3182374.983854
 30
0.0
 10
5086212.900216
 20
3183768.768382
 30
0.0
 10
5088693.852585
 20
3186249.720752
 30
0.0
  0
SPLINE
  5
21b
100
AcDbEntity
  8
0
 62
7
100
AcDbSpline
 70
8
 71
3
 72
8
 73
4
 74
0
 40
0
 40
0
 40
0
 40
0
 40
1
 40
1
 40
1
 40
1
 10
5088693.852585
 20
3186249.720752
 30
0.0
 10
5091174.804954
 20
3188730.673121
 30
0.0
 10
5092568.589482
 20
3192095.566632
 30
0.0
 10
5092568.589482
 20
3195604.163120
 30
0.0
  0
SPLINE
  5
21c
100
AcDbEntity
  8
0
 62
7
100
AcDbSpline
 70
8
 71
3
 72
8
 73
4
 74
0
 40
0
 40
0
 40
0
 40
0
 40
1
 40
1
 40
1
 40
1
 10
4165203.122974
 20
1712269.076510
 30
0.0
 10
4165203.122974
 20
1708760.480022
 30
0.0
 10
4166596.907502
 20
1705395.586511
 30
0.0
 10
4169077.859871
 20
1702914.634142
 30
0.0
  0
SPLINE
  5
21d
100
AcDbEntity
  8
0
 62
7
100
AcDbSpline
 70
8
 71
3
 72
8
 73
4
 74
0
 40
0
 40
0
 40
0
 40
0
 40
1
 40
1
 40
1
 40
1
 10
4169077.859871
 20
1702914.634142
 30
0.0
 10
4171558.812241
 20
1700433.681772
 30
0.0
 10
4174923.705751
 20
1699039.897244
 30
0.0
 10
4178432.302240
 20
1699039.897244
 30
0.0
  0
SPLINE
  5
21e
100
AcDbEntity
  8
0
 62
7
100
AcDbSpline
 70
8
 71
3
 72
8
 73
4
 74
0
 40
0
 40
0
 40
0
 40
0
 40
1
 40
1
 40
1
 40
1
 10
3210056.380008
 20
3195604.163120
 30
0.0
 10
3210056.380008
 20
3192095.566632
 30
0.0
 10
3211450.164536
 20
3188730.673121
 30
0.0
 10
3213931.116906
 20
3186249.720752
 30
0.0
  0
SPLINE
  5
21f
100
AcDbEntity
  8
0
 62
7
100
AcDbSpline
 70
8
 71
3
 72
8
 73
4
 74
0
 40
0
 40
0
 40
0
 40
0
 40
1
 40
1
 40
1
 40
1
 10
3213931.116906
 20
3186249.720752
 30
0.0
 10
3216412.069275
 20
3183768.768382
 30
0.0
 10
3219776.962786
 20
3182374.983854
 30
0.0
 10
3223285.559274
 20
3182374.983854
 30
0.0
  0
LWPOLYLINE
  5
220
100
AcDbEntity
  8
0
 62
7
100
AcDbPolyline
 90
2
 70
0
 10
2971269.694267
 20
1670279.661521
 30
0.0
 10
3315228.355169
 20
1670279.661521
 30
0.0
  0
LWPOLYLINE
  5
221
100
AcDbEntity
  8
0
 62
7
100
AcDbPolyline
 90
2
 70
0
 10
3727317.289288
 20
1670279.661521
 30
0.0
 10
4071275.950189
 20
1670279.661521
 30
0.0
  0
SPLINE
  5
222
100
AcDbEntity
  8
0
 62
7
100
AcDbSpline
 70
8
 71
3
 72
8
 73
4
 74
0
 40
0
 40
0
 40
0
 40
0
 40
1
 40
1
 40
1
 40
1
 10
3714088.110022
 20
3699635.893134
 30
0.0
 10
3714088.110022
 20
3696127.296645
 30
0.0
 10
3715481.894550
 20
3692762.403135
 30
0.0
 10
3717962.846919
 20
3690281.450765
 30
0.0
  0
SPLINE
  5
223
100
AcDbEntity
  8
0
 62
7
100
AcDbSpline
 70
8
 71
3
 72
8
 73
4
 74
0
 40
0
 40
0
 40
0
 40
0
 40
1
 40
1
 40
1
 40
1
 10
3717962.846919
 20
3690281.450765
 30
0.0
 10
3720443.799289
 20
3687800.498396
 30
0.0
 10
3723808.692799
 20
3686406.713868
 30
0.0
 10
3727317.289288
 20
3686406.713868
 30
0.0
  0
LWPOLYLINE
  5
224
100
AcDbEntity
  8
0
 62
7
100
AcDbPolyline
 90
2
 70
0
 10
4735380.749315
 20
2544728.410968
 30
0.0
 10
5079339.410217
 20
2544728.410968
 30
0.0
  0
LWPOLYLINE
  5
225
100
AcDbEntity
  8
0
 62
7
100
AcDbPolyline
 90
2
 70
0
 10
2706024.649995
 20
2531499.231702
 30
0.0
 10
2706024.649995
 20
2187540.570801
 30
0.0
  0
SPLINE
  5
226
100
AcDbEntity
  8
0
 62
7
100
AcDbSpline
 70
8
 71
3
 72
8
 73
4
 74
0
 40
0
 40
0
 40
0
 40
0
 40
1
 40
1
 40
1
 40
1
 10
4735380.749315
 20
3552792.003287
 30
0.0
 10
4731872.152827
 20
3552792.003287
 30
0.0
 10
4728507.259316
 20
3551398.218759
 30
0.0
 10
4726026.306947
 20
3548917.266390
 30
0.0
  0
SPLINE
  5
227
100
AcDbEntity
  8
0
 62
7
100
AcDbSpline
 70
8
 71
3
 72
8
 73
4
 74
0
 40
0
 40
0
 40
0
 40
0
 40
1
 40
1
 40
1
 40
1
 10
4726026.306947
 20
3548917.266390
 30
0.0
 10
4723545.354578
 20
3546436.314020
 30
0.0
 10
4722151.570050
 20
3543071.420510
 30
0.0
 10
4722151.570050
 20
3539562.824022
 30
0.0
  0
LWPOLYLINE
  5
228
100
AcDbEntity
  8
0
 62
7
100
AcDbPolyline
 90
2
 70
0
 10
4722151.570050
 20
2531499.231702
 30
0.0
 10
4722151.570050
 20
2187540.570801
 30
0.0
  0
LWPOLYLINE
  5
229
100
AcDbEntity
  8
0
 62
7
100
AcDbPolyline
 90
2
 70
0
 10
4588536.859469
 20
4043594.554035
 30
0.0
 10
4588536.859469
 20
3699635.893134
 30
0.0
  0
LWPOLYLINE
  5
22a
100
AcDbEntity
  8
0
 62
7
100
AcDbPolyline
 90
2
 70
0
 10
3076441.669427
 20
2531499.231702
 30
0.0
 10
3076441.669427
 20
2187540.570801
 30
0.0
  0
SPLINE
  5
22b
100
AcDbEntity
  8
0
 62
7
100
AcDbSpline
 70
8
 71
3
 72
8
 73
4
 74
0
 40
0
 40
0
 40
0
 40
0
 40
1
 40
1
 40
1
 40
1
 10
2471603.540494
 20
1520406.501290
 30
0.0
 10
2454481.289157
 20
1520406.501290
 30
0.0
 10
2439045.004949
 20
1510092.305933
 30
0.0
 10
2432492.603037
 20
1494273.408372
 30
0.0
  0
SPLINE
  5
22c
100
AcDbEntity
  8
0
 62
7
100
AcDbSpline
 70
8
 71
3
 72
8
 73
4
 74
0
 40
0
 40
0
 40
0
 40
0
 40
1
 40
1
 40
1
 40
1
 10
2432492.603037
 20
1494273.408372
 30
0.0
 10
2425940.201126
 20
1478454.510812
 30
0.0
 10
2429562.064887
 20
1460246.172092
 30
0.0
 10
2441669.324916
 20
1448138.912062
 30
0.0
  0
SPLINE
  5
22d
100
AcDbEntity
  8
0
 62
7
100
AcDbSpline
 70
8
 71
3
 72
8
 73
4
 74
0
 40
0
 40
0
 40
0
 40
0
 40
1
 40
1
 40
1
 40
1
 10
2441669.324916
 20
1448138.912062
 30
0.0
 10
2453776.584945
 20
1436031.652033
 30
0.0
 10
2471984.923665
 20
1432409.788272
 30
0.0
 10
2487803.821226
 20
1438962.190184
 30
0.0
  0
SPLINE
  5
22e
100
AcDbEntity
  8
0
 62
7
100
AcDbSpline
 70
8
 71
3
 72
8
 73
4
 74
0
 40
0
 40
0
 40
0
 40
0
 40
1
 40
1
 40
1
 40
1
 10
2487803.821226
 20
1438962.190184
 30
0.0
 10
2503622.718786
 20
1445514.592095
 30
0.0
 10
2513936.914144
 20
1460950.876304
 30
0.0
 10
2513936.914144
 20
1478073.127640
 30
0.0
  0
SPLINE
  5
22f
100
AcDbEntity
  8
0
 62
7
100
AcDbSpline
 70
8
 71
3
 72
8
 73
4
 74
0
 40
0
 40
0
 40
0
 40
0
 40
1
 40
1
 40
1
 40
1
 10
2513936.914144
 20
1478073.127640
 30
0.0
 10
2513936.914144
 20
1489300.636403
 30
0.0
 10
2509476.803654
 20
1500068.295637
 30
0.0
 10
2501537.756072
 20
1508007.343218
 30
0.0
  0
SPLINE
  5
230
100
AcDbEntity
  8
0
 62
7
100
AcDbSpline
 70
8
 71
3
 72
8
 73
4
 74
0
 40
0
 40
0
 40
0
 40
0
 40
1
 40
1
 40
1
 40
1
 10
2501537.756072
 20
1508007.343218
 30
0.0
 10
2493598.708490
 20
1515946.390800
 30
0.0
 10
2482831.049256
 20
1520406.501290
 30
0.0
 10
2471603.540494
 20
1520406.501290
 30
0.0
  0
LWPOLYLINE
  5
231
100
AcDbEntity
  8
0
 62
7
100
AcDbPolyline
 90
2
 70
0
 10
4165203.122974
 20
2879082.687723
 30
0.0
 10
4165203.122974
 20
2720332.536537
 30
0.0
  0
SPLINE
  5
232
100
AcDbEntity
  8
0
 62
7
100
AcDbSpline
 70
8
 71
3
 72
8
 73
4
 74
0
 40
0
 40
0
 40
0
 40
0
 40
1
 40
1
 40
1
 40
1
 10
4562078.500938
 20
3510802.588299
 30
0.0
 10
4562078.500938
 20
3514311.184787
 30
0.0
 10
4560684.716410
 20
3517676.078297
 30
0.0
 10
4558203.764040
 20
3520157.030667
 30
0.0
  0
SPLINE
  5
233
100
AcDbEntity
  8
0
 62
7
100
AcDbSpline
 70
8
 71
3
 72
8
 73
4
 74
0
 40
0
 40
0
 40
0
 40
0
 40
1
 40
1
 40
1
 40
1
 10
4558203.764040
 20
3520157.030667
 30
0.0
 10
4555722.811671
 20
3522637.983036
 30
0.0
 10
4552357.918160
 20
3524031.767564
 30
0.0
 10
4548849.321672
 20
3524031.767564
 30
0.0
  0
SPLINE
  5
234
100
AcDbEntity
  8
0
 62
7
100
AcDbSpline
 70
8
 71
3
 72
8
 73
4
 74
0
 40
0
 40
0
 40
0
 40
0
 40
1
 40
1
 40
1
 40
1
 10
2906764.216169
 20
1617362.944460
 30
0.0
 10
2910272.812657
 20
1617362.944460
 30
0.0
 10
2913637.706167
 20
1618756.728988
 30
0.0
 10
2916118.658537
 20
1621237.681357
 30
0.0
  0
SPLINE
  5
235
100
AcDbEntity
  8
0
 62
7
100
AcDbSpline
 70
8
 71
3
 72
8
 73
4
 74
0
 40
0
 40
0
 40
0
 40
0
 40
1
 40
1
 40
1
 40
1
 10
2916118.658537
 20
1621237.681357
 30
0.0
 10
2918599.610906
 20
1623718.633726
 30
0.0
 10
2919993.395434
 20
1627083.527237
 30
0.0
 10
2919993.395434
 20
1630592.123725
 30
0.0
  0
LWPOLYLINE
  5
236
100
AcDbEntity
  8
0
 62
7
100
AcDbPolyline
 90
1
 70
1
 10
2471603.540494
 20
1520406.501290
 30
0.0
  0
SPLINE
  5
237
100
AcDbEntity
  8
0
 62
7
100
AcDbSpline
 70
8
 71
3
 72
8
 73
4
 74
0
 40
0
 40
0
 40
0
 40
0
 40
1
 40
1
 40
1
 40
1
 10
3315228.355169
 20
1670279.661521
 30
0.0
 10
3318736.951657
 20
1670279.661521
 30
0.0
 10
3322101.845168
 20
1671673.446049
 30
0.0
 10
3324582.797537
 20
1674154.398419
 30
0.0
  0
SPLINE
  5
238
100
AcDbEntity
  8
0
 62
7
100
AcDbSpline
 70
8
 71
3
 72
8
 73
4
 74
0
 40
0
 40
0
 40
0
 40
0
 40
1
 40
1
 40
1
 40
1
 10
3324582.797537
 20
1674154.398419
 30
0.0
 10
3327063.749906
 20
1676635.350788
 30
0.0
 10
3328457.534434
 20
1680000.244299
 30
0.0
 10
3328457.534434
 20
1683508.840787
 30
0.0
  0
SPLINE
  5
239
100
AcDbEntity
  8
0
 62
7
100
AcDbSpline
 70
8
 71
3
 72
8
 73
4
 74
0
 40
0
 40
0
 40
0
 40
0
 40
1
 40
1
 40
1
 40
1
 10
4165203.122974
 20
3352052.437113
 30
0.0
 10
4165203.122974
 20
3348543.840625
 30
0.0
 10
4166596.907502
 20
3345178.947114
 30
0.0
 10
4169077.859871
 20
3342697.994745
 30
0.0
  0
SPLINE
  5
23a
100
AcDbEntity
  8
0
 62
7
100
AcDbSpline
 70
8
 71
3
 72
8
 73
4
 74
0
 40
0
 40
0
 40
0
 40
0
 40
1
 40
1
 40
1
 40
1
 10
4169077.859871
 20
3342697.994745
 30
0.0
 10
4171558.812241
 20
3340217.042376
 30
0.0
 10
4174923.705751
 20
3338823.257848
 30
0.0
 10
4178432.302240
 20
3338823.257848
 30
0.0
  0
LWPOLYLINE
  5
23b
100
AcDbEntity
  8
0
 62
7
100
AcDbPolyline
 90
2
 70
0
 10
4735380.749315
 20
3182374.983854
 30
0.0
 10
5079339.410217
 20
3182374.983854
 30
0.0
  0
LWPOLYLINE
  5
23c
100
AcDbEntity
  8
0
 62
7
100
AcDbPolyline
 90
2
 70
0
 10
3580473.399441
 20
3539562.824022
 30
0.0
 10
3580473.399441
 20
3195604.163120
 30
0.0
  0
LWPOLYLINE
  5
23d
100
AcDbEntity
  8
0
 62
7
100
AcDbPolyline
 90
2
 70
0
 10
3727317.289288
 20
2678343.121549
 30
0.0
 10
4071275.950189
 20
2678343.121549
 30
0.0
  0
LWPOLYLINE
  5
23e
100
AcDbEntity
  8
0
 62
7
100
AcDbPolyline
 90
2
 70
0
 10
4165203.122974
 20
3510802.588299
 30
0.0
 10
4165203.122974
 20
3352052.437113
 30
0.0
  0
LWPOLYLINE
  5
23f
100
AcDbEntity
  8
0
 62
7
100
AcDbPolyline
 90
2
 70
0
 10
4165203.122974
 20
2502738.995979
 30
0.0
 10
4165203.122974
 20
2343988.844794
 30
0.0
  0
SPLINE
  5
240
100
AcDbEntity
  8
0
 62
7
100
AcDbSpline
 70
8
 71
3
 72
8
 73
4
 74
0
 40
0
 40
0
 40
0
 40
0
 40
1
 40
1
 40
1
 40
1
 10
2958040.515002
 20
1683508.840787
 30
0.0
 10
2958040.515002
 20
1680000.244299
 30
0.0
 10
2959434.299530
 20
1676635.350788
 30
0.0
 10
2961915.251899
 20
1674154.398419
 30
0.0
  0
SPLINE
  5
241
100
AcDbEntity
  8
0
 62
7
100
AcDbSpline
 70
8
 71
3
 72
8
 73
4
 74
0
 40
0
 40
0
 40
0
 40
0
 40
1
 40
1
 40
1
 40
1
 10
2961915.251899
 20
1674154.398419
 30
0.0
 10
2964396.204268
 20
1671673.446049
 30
0.0
 10
2967761.097779
 20
1670279.661521
 30
0.0
 10
2971269.694267
 20
1670279.661521
 30
0.0
  0
SPLINE
  5
242
100
AcDbEntity
  8
0
 62
7
100
AcDbSpline
 70
8
 71
3
 72
8
 73
4
 74
0
 40
0
 40
0
 40
0
 40
0
 40
1
 40
1
 40
1
 40
1
 10
3366504.654002
 20
1630592.123725
 30
0.0
 10
3366504.654002
 20
1627083.527237
 30
0.0
 10
3367898.438530
 20
1623718.633726
 30
0.0
 10
3370379.390899
 20
1621237.681357
 30
0.0
  0
SPLINE
  5
243
100
AcDbEntity
  8
0
 62
7
100
AcDbSpline
 70
8
 71
3
 72
8
 73
4
 74
0
 40
0
 40
0
 40
0
 40
0
 40
1
 40
1
 40
1
 40
1
 10
3370379.390899
 20
1621237.681357
 30
0.0
 10
3372860.343268
 20
1618756.728988
 30
0.0
 10
3376225.236779
 20
1617362.944460
 30
0.0
 10
3379733.833267
 20
1617362.944460
 30
0.0
  0
SPLINE
  5
244
100
AcDbEntity
  8
0
 62
7
100
AcDbSpline
 70
8
 71
3
 72
8
 73
4
 74
0
 40
0
 40
0
 40
0
 40
0
 40
1
 40
1
 40
1
 40
1
 10
4071275.950189
 20
2678343.121549
 30
0.0
 10
4074784.546678
 20
2678343.121549
 30
0.0
 10
4078149.440188
 20
2679736.906077
 30
0.0
 10
4080630.392558
 20
2682217.858446
 30
0.0
  0
SPLINE
  5
245
100
AcDbEntity
  8
0
 62
7
100
AcDbSpline
 70
8
 71
3
 72
8
 73
4
 74
0
 40
0
 40
0
 40
0
 40
0
 40
1
 40
1
 40
1
 40
1
 10
4080630.392558
 20
2682217.858446
 30
0.0
 10
4083111.344927
 20
2684698.810815
 30
0.0
 10
4084505.129455
 20
2688063.704326
 30
0.0
 10
4084505.129455
 20
2691572.300814
 30
0.0
  0
SPLINE
  5
246
100
AcDbEntity
  8
0
 62
7
100
AcDbSpline
 70
8
 71
3
 72
8
 73
4
 74
0
 40
0
 40
0
 40
0
 40
0
 40
1
 40
1
 40
1
 40
1
 10
3063212.490162
 20
2678343.121549
 30
0.0
 10
3066721.086650
 20
2678343.121549
 30
0.0
 10
3070085.980161
 20
2679736.906077
 30
0.0
 10
3072566.932530
 20
2682217.858446
 30
0.0
  0
SPLINE
  5
247
100
AcDbEntity
  8
0
 62
7
100
AcDbSpline
 70
8
 71
3
 72
8
 73
4
 74
0
 40
0
 40
0
 40
0
 40
0
 40
1
 40
1
 40
1
 40
1
 10
3072566.932530
 20
2682217.858446
 30
0.0
 10
3075047.884899
 20
2684698.810815
 30
0.0
 10
3076441.669427
 20
2688063.704326
 30
0.0
 10
3076441.669427
 20
2691572.300814
 30
0.0
  0
SPLINE
  5
248
100
AcDbEntity
  8
0
 62
7
100
AcDbSpline
 70
8
 71
3
 72
8
 73
4
 74
0
 40
0
 40
0
 40
0
 40
0
 40
1
 40
1
 40
1
 40
1
 10
3223285.559274
 20
3048760.273273
 30
0.0
 10
3219776.962786
 20
3048760.273273
 30
0.0
 10
3216412.069275
 20
3047366.488745
 30
0.0
 10
3213931.116906
 20
3044885.536376
 30
0.0
  0
SPLINE
  5
249
100
AcDbEntity
  8
0
 62
7
100
AcDbSpline
 70
8
 71
3
 72
8
 73
4
 74
0
 40
0
 40
0
 40
0
 40
0
 40
1
 40
1
 40
1
 40
1
 10
3213931.116906
 20
3044885.536376
 30
0.0
 10
3211450.164536
 20
3042404.584007
 30
0.0
 10
3210056.380008
 20
3039039.690496
 30
0.0
 10
3210056.380008
 20
3035531.094008
 30
0.0
  0
SPLINE
  5
24a
100
AcDbEntity
  8
0
 62
7
100
AcDbSpline
 70
8
 71
3
 72
8
 73
4
 74
0
 40
0
 40
0
 40
0
 40
0
 40
1
 40
1
 40
1
 40
1
 10
5740320.732570
 20
5081621.269875
 30
0.0
 10
5740320.732570
 20
5187855.582227
 30
0.0
 10
5652302.695192
 20
5273975.742615
 30
0.0
 10
5543726.384383
 20
5273976.579106
 30
0.0
  0
LWPOLYLINE
  5
24b
100
AcDbEntity
  8
0
 62
7
100
AcDbPolyline
 90
2
 70
0
 10
2706024.649995
 20
3035531.094008
 30
0.0
 10
2706024.649995
 20
2691572.300814
 30
0.0
  0
LWPOLYLINE
  5
24c
100
AcDbEntity
  8
0
 62
7
100
AcDbPolyline
 90
2
 70
0
 10
2054149.227080
 20
5081621.269875
 30
0.0
 10
2054149.227080
 20
1258559.347450
 30
0.0
  0
SPLINE
  5
24d
100
AcDbEntity
  8
0
 62
7
100
AcDbSpline
 70
8
 71
3
 72
8
 73
4
 74
0
 40
0
 40
0
 40
0
 40
0
 40
1
 40
1
 40
1
 40
1
 10
2054149.227080
 20
1258559.347450
 30
0.0
 10
2054150.082001
 20
1152324.790099
 30
0.0
 10
2142168.562045
 20
1066204.874701
 30
0.0
 10
2250745.123266
 20
1066204.038219
 30
0.0
  0
LWPOLYLINE
  5
24e
100
AcDbEntity
  8
0
 62
7
100
AcDbPolyline
 90
2
 70
0
 10
5740322.280569
 20
1258559.347450
 30
0.0
 10
5740322.280569
 20
5081621.269875
 30
0.0
  0
SPLINE
  5
24f
100
AcDbEntity
  8
0
 62
7
100
AcDbSpline
 70
8
 71
3
 72
8
 73
4
 74
0
 40
0
 40
0
 40
0
 40
0
 40
1
 40
1
 40
1
 40
1
 10
5543726.384383
 20
1066204.038219
 30
0.0
 10
5595866.857886
 20
1066204.038219
 30
0.0
 10
5645871.793341
 20
1086469.985827
 30
0.0
 10
5682740.675730
 20
1122543.603895
 30
0.0
  0
SPLINE
  5
250
100
AcDbEntity
  8
0
 62
7
100
AcDbSpline
 70
8
 71
3
 72
8
 73
4
 74
0
 40
0
 40
0
 40
0
 40
0
 40
1
 40
1
 40
1
 40
1
 10
5682740.675730
 20
1122543.603895
 30
0.0
 10
5719609.558118
 20
1158617.221964
 30
0.0
 10
5740322.280569
 20
1207543.547533
 30
0.0
 10
5740322.280569
 20
1258559.347450
 30
0.0
  0
LWPOLYLINE
  5
251
100
AcDbEntity
  8
0
 62
7
100
AcDbPolyline
 90
2
 70
0
 10
5543726.384383
 20
5273976.579106
 30
0.0
 10
2250745.123266
 20
5273976.579106
 30
0.0
  0
SPLINE
  5
252
100
AcDbEntity
  8
0
 62
7
100
AcDbSpline
 70
8
 71
3
 72
8
 73
4
 74
0
 40
0
 40
0
 40
0
 40
0
 40
1
 40
1
 40
1
 40
1
 10
2250745.123266
 20
5273978.093715
 30
0.0
 10
2142167.957521
 20
5273977.257224
 30
0.0
 10
2054149.227080
 20
5187856.418722
 30
0.0
 10
2054149.227080
 20
5081621.269881
 30
0.0
  0
SPLINE
  5
253
100
AcDbEntity
  8
0
 62
7
100
AcDbSpline
 70
8
 71
3
 72
8
 73
4
 74
0
 40
0
 40
0
 40
0
 40
0
 40
1
 40
1
 40
1
 40
1
 10
4722151.570050
 20
3195604.163120
 30
0.0
 10
4722151.570050
 20
3192095.566632
 30
0.0
 10
4723545.354578
 20
3188730.673121
 30
0.0
 10
4726026.306947
 20
3186249.720752
 30
0.0
  0
SPLINE
  5
254
100
AcDbEntity
  8
0
 62
7
100
AcDbSpline
 70
8
 71
3
 72
8
 73
4
 74
0
 40
0
 40
0
 40
0
 40
0
 40
1
 40
1
 40
1
 40
1
 10
4726026.306947
 20
3186249.720752
 30
0.0
 10
4728507.259316
 20
3183768.768382
 30
0.0
 10
4731872.152827
 20
3182374.983854
 30
0.0
 10
4735380.749315
 20
3182374.983854
 30
0.0
  0
LWPOLYLINE
  5
255
100
AcDbEntity
  8
0
 62
7
100
AcDbPolyline
 90
2
 70
0
 10
2250745.123266
 20
1066204.038219
 30
0.0
 10
5543726.384383
 20
1066204.038219
 30
0.0
  0
LWPOLYLINE
  5
256
100
AcDbEntity
  8
0
 62
7
100
AcDbPolyline
 90
2
 70
0
 10
2909103.135063
 20
4402713.854375
 30
0.0
 10
2706146.358444
 20
4402713.854375
 30
0.0
  0
LWPOLYLINE
  5
257
100
AcDbEntity
  8
0
 62
7
100
AcDbPolyline
 90
2
 70
0
 10
3727317.289288
 20
3552792.003287
 30
0.0
 10
4071275.950189
 20
3552792.003287
 30
0.0
  0
LWPOLYLINE
  5
258
100
AcDbEntity
  8
0
 62
7
100
AcDbPolyline
 90
2
 70
0
 10
4548849.321672
 20
1699039.897244
 30
0.0
 10
4178432.302240
 20
1699039.897244
 30
0.0
  0
LWPOLYLINE
  5
259
100
AcDbEntity
  8
0
 62
7
100
AcDbPolyline
 90
2
 70
0
 10
4403725.225130
 20
4593997.203210
 30
0.0
 10
4698079.755458
 20
4593997.203210
 30
0.0
  0
SPLINE
  5
25a
100
AcDbEntity
  8
0
 62
7
100
AcDbSpline
 70
8
 71
3
 72
8
 73
4
 74
0
 40
0
 40
0
 40
0
 40
0
 40
1
 40
1
 40
1
 40
1
 10
4084505.129455
 20
2027467.501689
 30
0.0
 10
4084505.129455
 20
2030976.098177
 30
0.0
 10
4083111.344927
 20
2034340.991687
 30
0.0
 10
4080630.392558
 20
2036821.944057
 30
0.0
  0
SPLINE
  5
25b
100
AcDbEntity
  8
0
 62
7
100
AcDbSpline
 70
8
 71
3
 72
8
 73
4
 74
0
 40
0
 40
0
 40
0
 40
0
 40
1
 40
1
 40
1
 40
1
 10
4080630.392558
 20
2036821.944057
 30
0.0
 10
4078149.440188
 20
2039302.896426
 30
0.0
 10
4074784.546678
 20
2040696.680954
 30
0.0
 10
4071275.950189
 20
2040696.680954
 30
0.0
  0
LWPOLYLINE
  5
25c
100
AcDbEntity
  8
0
 62
7
100
AcDbPolyline
 90
2
 70
0
 10
2734784.885718
 20
2001009.143158
 30
0.0
 10
2734784.885718
 20
1630592.123725
 30
0.0
  0
SPLINE
  5
25d
100
AcDbEntity
  8
0
 62
7
100
AcDbSpline
 70
8
 71
3
 72
8
 73
4
 74
0
 40
0
 40
0
 40
0
 40
0
 40
1
 40
1
 40
1
 40
1
 10
2706024.649995
 20
2691572.300814
 30
0.0
 10
2706024.649995
 20
2688063.704326
 30
0.0
 10
2707418.434523
 20
2684698.810815
 30
0.0
 10
2709899.386892
 20
2682217.858446
 30
0.0
  0
SPLINE
  5
25e
100
AcDbEntity
  8
0
 62
7
100
AcDbSpline
 70
8
 71
3
 72
8
 73
4
 74
0
 40
0
 40
0
 40
0
 40
0
 40
1
 40
1
 40
1
 40
1
 10
2709899.386892
 20
2682217.858446
 30
0.0
 10
2712380.339261
 20
2679736.906077
 30
0.0
 10
2715745.232772
 20
2678343.121549
 30
0.0
 10
2719253.829260
 20
2678343.121549
 30
0.0
  0
LWPOLYLINE
  5
25f
100
AcDbEntity
  8
0
 62
7
100
AcDbPolyline
 90
2
 70
0
 10
4403725.225130
 20
4773432.499095
 30
0.0
 10
4403725.225130
 20
4593997.203210
 30
0.0
  0
LWPOLYLINE
  5
260
100
AcDbEntity
  8
0
 62
7
100
AcDbPolyline
 90
2
 70
0
 10
3714088.110022
 20
2531499.231702
 30
0.0
 10
3714088.110022
 20
2187540.570801
 30
0.0
  0
LWPOLYLINE
  5
261
100
AcDbEntity
  8
0
 62
7
100
AcDbPolyline
 90
2
 70
0
 10
4735380.749315
 20
3686406.713868
 30
0.0
 10
5079339.410217
 20
3686406.713868
 30
0.0
  0
SPLINE
  5
262
100
AcDbEntity
  8
0
 62
7
100
AcDbSpline
 70
8
 71
3
 72
8
 73
4
 74
0
 40
0
 40
0
 40
0
 40
0
 40
1
 40
1
 40
1
 40
1
 10
3714088.110022
 20
1683508.840787
 30
0.0
 10
3714088.110022
 20
1680000.244299
 30
0.0
 10
3715481.894550
 20
1676635.350788
 30
0.0
 10
3717962.846919
 20
1674154.398419
 30
0.0
  0
SPLINE
  5
263
100
AcDbEntity
  8
0
 62
7
100
AcDbSpline
 70
8
 71
3
 72
8
 73
4
 74
0
 40
0
 40
0
 40
0
 40
0
 40
1
 40
1
 40
1
 40
1
 10
3717962.846919
 20
1674154.398419
 30
0.0
 10
3720443.799289
 20
1671673.446049
 30
0.0
 10
3723808.692799
 20
1670279.661521
 30
0.0
 10
3727317.289288
 20
1670279.661521
 30
0.0
  0
SPLINE
  5
264
100
AcDbEntity
  8
0
 62
7
100
AcDbSpline
 70
8
 71
3
 72
8
 73
4
 74
0
 40
0
 40
0
 40
0
 40
0
 40
1
 40
1
 40
1
 40
1
 10
4548849.321672
 20
1699039.897244
 30
0.0
 10
4552357.918160
 20
1699039.897244
 30
0.0
 10
4555722.811671
 20
1700433.681772
 30
0.0
 10
4558203.764040
 20
1702914.634142
 30
0.0
  0
SPLINE
  5
265
100
AcDbEntity
  8
0
 62
7
100
AcDbSpline
 70
8
 71
3
 72
8
 73
4
 74
0
 40
0
 40
0
 40
0
 40
0
 40
1
 40
1
 40
1
 40
1
 10
4558203.764040
 20
1702914.634142
 30
0.0
 10
4560684.716410
 20
1705395.586511
 30
0.0
 10
4562078.500938
 20
1708760.480022
 30
0.0
 10
4562078.500938
 20
1712269.076510
 30
0.0
  0
LWPOLYLINE
  5
266
100
AcDbEntity
  8
0
 62
7
100
AcDbPolyline
 90
2
 70
0
 10
4588536.859469
 20
2279483.366695
 30
0.0
 10
4588536.859469
 20
1935524.705794
 30
0.0
  0
LWPOLYLINE
  5
267
100
AcDbEntity
  8
0
 62
7
100
AcDbPolyline
 90
2
 70
0
 10
3076441.669427
 20
3035531.094008
 30
0.0
 10
3076441.669427
 20
2691572.300814
 30
0.0
  0
SPLINE
  5
268
100
AcDbEntity
  8
0
 62
7
100
AcDbSpline
 70
8
 71
3
 72
8
 73
4
 74
0
 40
0
 40
0
 40
0
 40
0
 40
1
 40
1
 40
1
 40
1
 10
3538483.984453
 20
1617362.944460
 30
0.0
 10
3541992.580941
 20
1617362.944460
 30
0.0
 10
3545357.474451
 20
1618756.728988
 30
0.0
 10
3547838.426821
 20
1621237.681357
 30
0.0
  0
SPLINE
  5
269
100
AcDbEntity
  8
0
 62
7
100
AcDbSpline
 70
8
 71
3
 72
8
 73
4
 74
0
 40
0
 40
0
 40
0
 40
0
 40
1
 40
1
 40
1
 40
1
 10
3547838.426821
 20
1621237.681357
 30
0.0
 10
3550319.379190
 20
1623718.633726
 30
0.0
 10
3551713.163718
 20
1627083.527237
 30
0.0
 10
3551713.163718
 20
1630592.123725
 30
0.0
  0
SPLINE
  5
26a
100
AcDbEntity
  8
0
 62
7
100
AcDbSpline
 70
8
 71
3
 72
8
 73
4
 74
0
 40
0
 40
0
 40
0
 40
0
 40
1
 40
1
 40
1
 40
1
 10
4735380.749315
 20
2544728.410968
 30
0.0
 10
4731872.152827
 20
2544728.410968
 30
0.0
 10
4728507.259316
 20
2543334.626440
 30
0.0
 10
4726026.306947
 20
2540853.674070
 30
0.0
  0
SPLINE
  5
26b
100
AcDbEntity
  8
0
 62
7
100
AcDbSpline
 70
8
 71
3
 72
8
 73
4
 74
0
 40
0
 40
0
 40
0
 40
0
 40
1
 40
1
 40
1
 40
1
 10
4726026.306947
 20
2540853.674070
 30
0.0
 10
4723545.354578
 20
2538372.721701
 30
0.0
 10
4722151.570050
 20
2535007.828191
 30
0.0
 10
4722151.570050
 20
2531499.231702
 30
0.0
  0
SPLINE
  5
26c
100
AcDbEntity
  8
0
 62
7
100
AcDbSpline
 70
8
 71
3
 72
8
 73
4
 74
0
 40
0
 40
0
 40
0
 40
0
 40
1
 40
1
 40
1
 40
1
 10
3580473.399441
 20
3035531.094008
 30
0.0
 10
3580473.399441
 20
3039039.690496
 30
0.0
 10
3579079.614913
 20
3042404.584007
 30
0.0
 10
3576598.662544
 20
3044885.536376
 30
0.0
  0
SPLINE
  5
26d
100
AcDbEntity
  8
0
 62
7
100
AcDbSpline
 70
8
 71
3
 72
8
 73
4
 74
0
 40
0
 40
0
 40
0
 40
0
 40
1
 40
1
 40
1
 40
1
 10
3576598.662544
 20
3044885.536376
 30
0.0
 10
3574117.710174
 20
3047366.488745
 30
0.0
 10
3570752.816664
 20
3048760.273273
 30
0.0
 10
3567244.220176
 20
3048760.273273
 30
0.0
  0
LWPOLYLINE
  5
26e
100
AcDbEntity
  8
0
 62
7
100
AcDbPolyline
 90
2
 70
0
 10
3727317.289288
 20
4056823.733301
 30
0.0
 10
4071275.950189
 20
4056823.733301
 30
0.0
  0
LWPOLYLINE
  5
26f
100
AcDbEntity
  8
0
 62
7
100
AcDbPolyline
 90
2
 70
0
 10
2908854.426493
 20
4605173.213854
 30
0.0
 10
2909103.135063
 20
4402713.854375
 30
0.0
  0
LWPOLYLINE
  5
270
100
AcDbEntity
  8
0
 62
7
100
AcDbPolyline
 90
2
 70
0
 10
3714088.110022
 20
3539562.824022
 30
0.0
 10
3714088.110022
 20
3195604.163120
 30
0.0
  0
SPLINE
  5
271
100
AcDbEntity
  8
0
 62
7
100
AcDbSpline
 70
8
 71
3
 72
8
 73
4
 74
0
 40
0
 40
0
 40
0
 40
0
 40
1
 40
1
 40
1
 40
1
 10
3223285.559274
 20
4056823.733301
 30
0.0
 10
3219776.962786
 20
4056823.733301
 30
0.0
 10
3216412.069275
 20
4055429.948773
 30
0.0
 10
3213931.116906
 20
4052948.996404
 30
0.0
  0
SPLINE
  5
272
100
AcDbEntity
  8
0
 62
7
100
AcDbSpline
 70
8
 71
3
 72
8
 73
4
 74
0
 40
0
 40
0
 40
0
 40
0
 40
1
 40
1
 40
1
 40
1
 10
3213931.116906
 20
4052948.996404
 30
0.0
 10
3211450.164536
 20
4050468.044034
 30
0.0
 10
3210056.380008
 20
4047103.150524
 30
0.0
 10
3210056.380008
 20
4043594.554035
 30
0.0
  0
LWPOLYLINE
  5
273
100
AcDbEntity
  8
0
 62
7
100
AcDbPolyline
 90
2
 70
0
 10
3714088.110022
 20
2027467.501689
 30
0.0
 10
3714088.110022
 20
1683508.840787
 30
0.0
  0
SPLINE
  5
274
100
AcDbEntity
  8
0
 62
7
100
AcDbSpline
 70
8
 71
3
 72
8
 73
4
 74
0
 40
0
 40
0
 40
0
 40
0
 40
1
 40
1
 40
1
 40
1
 10
3223285.559274
 20
3552792.003287
 30
0.0
 10
3219776.962786
 20
3552792.003287
 30
0.0
 10
3216412.069275
 20
3551398.218759
 30
0.0
 10
3213931.116906
 20
3548917.266390
 30
0.0
  0
SPLINE
  5
275
100
AcDbEntity
  8
0
 62
7
100
AcDbSpline
 70
8
 71
3
 72
8
 73
4
 74
0
 40
0
 40
0
 40
0
 40
0
 40
1
 40
1
 40
1
 40
1
 10
3213931.116906
 20
3548917.266390
 30
0.0
 10
3211450.164536
 20
3546436.314020
 30
0.0
 10
3210056.380008
 20
3543071.420510
 30
0.0
 10
3210056.380008
 20
3539562.824022
 30
0.0
  0
LWPOLYLINE
  5
276
100
AcDbEntity
  8
0
 62
7
100
AcDbPolyline
 90
2
 70
0
 10
4084505.129455
 20
3539562.824022
 30
0.0
 10
4084505.129455
 20
3195604.163120
 30
0.0
  0
LWPOLYLINE
  5
277
100
AcDbEntity
  8
0
 62
7
100
AcDbPolyline
 90
2
 70
0
 10
4432623.044318
 20
4773432.499095
 30
0.0
 10
4403725.225130
 20
4773432.499095
 30
0.0
  0
LWPOLYLINE
  5
278
100
AcDbEntity
  8
0
 62
7
100
AcDbPolyline
 90
2
 70
0
 10
4735380.749315
 20
2174311.391535
 30
0.0
 10
5079339.410217
 20
2174311.391535
 30
0.0
  0
SPLINE
  5
279
100
AcDbEntity
  8
0
 62
7
100
AcDbSpline
 70
8
 71
3
 72
8
 73
4
 74
0
 40
0
 40
0
 40
0
 40
0
 40
1
 40
1
 40
1
 40
1
 10
2706024.649995
 20
3195604.163120
 30
0.0
 10
2706024.649995
 20
3192095.566632
 30
0.0
 10
2707418.434523
 20
3188730.673121
 30
0.0
 10
2709899.386892
 20
3186249.720752
 30
0.0
  0
SPLINE
  5
27a
100
AcDbEntity
  8
0
 62
7
100
AcDbSpline
 70
8
 71
3
 72
8
 73
4
 74
0
 40
0
 40
0
 40
0
 40
0
 40
1
 40
1
 40
1
 40
1
 10
2709899.386892
 20
3186249.720752
 30
0.0
 10
2712380.339261
 20
3183768.768382
 30
0.0
 10
2715745.232772
 20
3182374.983854
 30
0.0
 10
2719253.829260
 20
3182374.983854
 30
0.0
  0
SPLINE
  5
27b
100
AcDbEntity
  8
0
 62
7
100
AcDbSpline
 70
8
 71
3
 72
8
 73
4
 74
0
 40
0
 40
0
 40
0
 40
0
 40
1
 40
1
 40
1
 40
1
 10
5327783.343905
 20
1520406.501290
 30
0.0
 10
5310661.092569
 20
1520406.501290
 30
0.0
 10
5295224.808360
 20
1510092.305933
 30
0.0
 10
5288672.406449
 20
1494273.408372
 30
0.0
  0
SPLINE
  5
27c
100
AcDbEntity
  8
0
 62
7
100
AcDbSpline
 70
8
 71
3
 72
8
 73
4
 74
0
 40
0
 40
0
 40
0
 40
0
 40
1
 40
1
 40
1
 40
1
 10
5288672.406449
 20
1494273.408372
 30
0.0
 10
5282120.004537
 20
1478454.510812
 30
0.0
 10
5285741.868298
 20
1460246.172092
 30
0.0
 10
5297849.128327
 20
1448138.912062
 30
0.0
  0
SPLINE
  5
27d
100
AcDbEntity
  8
0
 62
7
100
AcDbSpline
 70
8
 71
3
 72
8
 73
4
 74
0
 40
0
 40
0
 40
0
 40
0
 40
1
 40
1
 40
1
 40
1
 10
5297849.128327
 20
1448138.912062
 30
0.0
 10
5309956.388357
 20
1436031.652033
 30
0.0
 10
5328164.727077
 20
1432409.788272
 30
0.0
 10
5343983.624637
 20
1438962.190184
 30
0.0
  0
SPLINE
  5
27e
100
AcDbEntity
  8
0
 62
7
100
AcDbSpline
 70
8
 71
3
 72
8
 73
4
 74
0
 40
0
 40
0
 40
0
 40
0
 40
1
 40
1
 40
1
 40
1
 10
5343983.624637
 20
1438962.190184
 30
0.0
 10
5359802.522198
 20
1445514.592095
 30
0.0
 10
5370116.717555
 20
1460950.876304
 30
0.0
 10
5370116.717555
 20
1478073.127640
 30
0.0
  0
SPLINE
  5
27f
100
AcDbEntity
  8
0
 62
7
100
AcDbSpline
 70
8
 71
3
 72
8
 73
4
 74
0
 40
0
 40
0
 40
0
 40
0
 40
1
 40
1
 40
1
 40
1
 10
5370116.717555
 20
1478073.127640
 30
0.0
 10
5370116.717555
 20
1489300.636403
 30
0.0
 10
5365656.607065
 20
1500068.295637
 30
0.0
 10
5357717.559483
 20
1508007.343218
 30
0.0
  0
SPLINE
  5
280
100
AcDbEntity
  8
0
 62
7
100
AcDbSpline
 70
8
 71
3
 72
8
 73
4
 74
0
 40
0
 40
0
 40
0
 40
0
 40
1
 40
1
 40
1
 40
1
 10
5357717.559483
 20
1508007.343218
 30
0.0
 10
5349778.511902
 20
1515946.390800
 30
0.0
 10
5339010.852668
 20
1520406.501290
 30
0.0
 10
5327783.343905
 20
1520406.501290
 30
0.0
  0
LWPOLYLINE
  5
281
100
AcDbEntity
  8
0
 62
7
100
AcDbPolyline
 90
2
 70
0
 10
4735380.749315
 20
2040696.680954
 30
0.0
 10
5079339.410217
 20
2040696.680954
 30
0.0
  0
SPLINE
  5
282
100
AcDbEntity
  8
0
 62
7
100
AcDbSpline
 70
8
 71
3
 72
8
 73
4
 74
0
 40
0
 40
0
 40
0
 40
0
 40
1
 40
1
 40
1
 40
1
 10
4071275.950189
 20
3182374.983854
 30
0.0
 10
4074784.546678
 20
3182374.983854
 30
0.0
 10
4078149.440188
 20
3183768.768382
 30
0.0
 10
4080630.392558
 20
3186249.720752
 30
0.0
  0
SPLINE
  5
283
100
AcDbEntity
  8
0
 62
7
100
AcDbSpline
 70
8
 71
3
 72
8
 73
4
 74
0
 40
0
 40
0
 40
0
 40
0
 40
1
 40
1
 40
1
 40
1
 10
4080630.392558
 20
3186249.720752
 30
0.0
 10
4083111.344927
 20
3188730.673121
 30
0.0
 10
4084505.129455
 20
3192095.566632
 30
0.0
 10
4084505.129455
 20
3195604.163120
 30
0.0
  0
LWPOLYLINE
  5
284
100
AcDbEntity
  8
0
 62
7
100
AcDbPolyline
 90
1
 70
1
 10
5327783.343905
 20
1520406.501290
 30
0.0
  0
LWPOLYLINE
  5
285
100
AcDbEntity
  8
0
 62
7
100
AcDbPolyline
 90
2
 70
0
 10
3223285.559274
 20
3552792.003287
 30
0.0
 10
3567244.220176
 20
3552792.003287
 30
0.0
  0
LWPOLYLINE
  5
286
100
AcDbEntity
  8
0
 62
7
100
AcDbPolyline
 90
2
 70
0
 10
2719253.829260
 20
3182374.983854
 30
0.0
 10
3063212.490162
 20
3182374.983854
 30
0.0
  0
ENDSEC
  0
SECTION
  2
OBJECTS
  0
DICTIONARY
  5
C
330
0
100
AcDbDictionary
  3
ACAD_GROUP
350
D
  3
ACAD_MLINESTYLE
350
17
  0
DICTIONARY
  5
D
330
C
100
AcDbDictionary
  0
DICTIONARY
  5
1A
330
C
100
AcDbDictionary
  0
DICTIONARY
  5
17
330
C
100
AcDbDictionary
  3
STANDARD
350
18
  0
DICTIONARY
  5
19
330
C
100
AcDbDictionary
  0
ENDSEC
  0
EOF
