  0
SECTION
  2
HEADER
  9
$ACADVER
  1
AC1014
  9
$HANDSEED
  5
FFFF
  9
$MEASUREMENT
 70
     1
  0
ENDSEC
  0
SECTION
  2
TABLES
  0
TABLE
  2
VPORT
  5
8
330
0
100
AcDbSymbolTable
 70
     4
  0
VPORT
  5
2E
330
8
100
AcDbSymbolTableRecord
100
AcDbViewportTableRecord
  2
*ACTIVE
 70
     0
 10
0.0
 20
0.0
 11
1.0
 21
1.0
 12
210.0
 22
148.5
 13
0.0
 23
0.0
 14
10.0
 24
10.0
 15
10.0
 25
10.0
 16
0.0
 26
0.0
 36
1.0
 17
0.0
 27
0.0
 37
0.0
 40
341.0
 41
1.24
 42
50.0
 43
0.0
 44
0.0
 50
0.0
 51
0.0
 71
     0
 72
   100
 73
     1
 74
     3
 75
     0
 76
     0
 77
     0
 78
     0
  0
ENDTAB
  0
TABLE
  2
LTYPE
  5
5
330
0
100
AcDbSymbolTable
 70
     1
  0
LTYPE
  5
14
330
5
100
AcDbSymbolTableRecord
100
AcDbLinetypeTableRecord
  2
BYBLOCK
 70
     0
  3

 72
    65
 73
     0
 40
0.0
  0
LTYPE
  5
15
330
5
100
AcDbSymbolTableRecord
100
AcDbLinetypeTableRecord
  2
BYLAYER
 70
     0
  3

 72
    65
 73
     0
 40
0.0
  0
LTYPE
  5
16
330
5
100
AcDbSymbolTableRecord
100
AcDbLinetypeTableRecord
  2
CONTINUOUS
 70
     0
  3
Solid line
 72
    65
 73
     0
 40
0.0
  0
ENDTAB
  0
TABLE
  2
LAYER
  5
2
100
AcDbSymbolTable
 70
4
  0
LAYER
  5
50
100
AcDbSymbolTableRecord
100
AcDbLayerTableRecord
  2
0
 70
0
  6
CONTINUOUS
  0
LAYER
  5
51
100
AcDbSymbolTableRecord
100
AcDbLayerTableRecord
  2
cutting
 70
0
  6
CONTINUOUS
  0
LAYER
  5
52
100
AcDbSymbolTableRecord
100
AcDbLayerTableRecord
  2
ignore
 70
0
  6
CONTINUOUS
  0
LAYER
  5
53
100
AcDbSymbolTableRecord
100
AcDbLayerTableRecord
  2
line_engraving
 70
0
  6
CONTINUOUS
  0
ENDTAB
  0
TABLE
  2
STYLE
  5
3
330
0
100
AcDbSymbolTable
 70
     1
  0
STYLE
  5
11
330
3
100
AcDbSymbolTableRecord
100
AcDbTextStyleTableRecord
  2
STANDARD
 70
     0
 40
0.0
 41
1.0
 50
0.0
 71
     0
 42
2.5
  3
txt
  4

  0
ENDTAB
  0
TABLE
  2
VIEW
  5
6
330
0
100
AcDbSymbolTable
 70
     0
  0
ENDTAB
  0
TABLE
  2
UCS
  5
7
330
0
100
AcDbSymbolTable
 70
     0
  0
ENDTAB
  0
TABLE
  2
APPID
  5
9
330
0
100
AcDbSymbolTable
 70
     2
  0
APPID
  5
12
330
9
100
AcDbSymbolTableRecord
100
AcDbRegAppTableRecord
  2
ACAD
 70
     0
  0
ENDTAB
  0
TABLE
  2
DIMSTYLE
  5
A
330
0
100
AcDbSymbolTable
 70
     1
  0
DIMSTYLE
105
27
330
A
100
AcDbSymbolTableRecord
100
AcDbDimStyleTableRecord
  2
ISO-25
 70
     0
  3

  4

  5

  6

  7

 40
1.0
 41
2.5
 42
0.625
 43
3.75
 44
1.25
 45
0.0
 46
0.0
 47
0.0
 48
0.0
140
2.5
141
2.5
142
0.0
143
0.03937007874016
144
1.0
145
0.0
146
1.0
147
0.625
 71
     0
 72
     0
 73
     0
 74
     0
 75
     0
 76
     0
 77
     1
 78
     8
170
     0
171
     3
172
     1
173
     0
174
     0
175
     0
176
     0
177
     0
178
     0
270
     2
271
     2
272
     2
273
     2
274
     3
340
11
275
     0
280
     0
281
     0
282
     0
283
     0
284
     8
285
     0
286
     0
287
     3
288
     0
  0
ENDTAB
  0
TABLE
  2
BLOCK_RECORD
  5
1
330
0
100
AcDbSymbolTable
 70
     1
  0
BLOCK_RECORD
  5
1F
330
1
100
AcDbSymbolTableRecord
100
AcDbBlockTableRecord
  2
*MODEL_SPACE
  0
BLOCK_RECORD
  5
1B
330
1
100
AcDbSymbolTableRecord
100
AcDbBlockTableRecord
  2
*PAPER_SPACE
  0
ENDTAB
  0
ENDSEC
  0
SECTION
  2
BLOCKS
  0
BLOCK
  5
20
330
1F
100
AcDbEntity
  8
0
100
AcDbBlockBegin
  2
*MODEL_SPACE
 70
     0
 10
0.0
 20
0.0
 30
0.0
  3
*MODEL_SPACE
  1

  0
ENDBLK
  5
21
330
1F
100
AcDbEntity
  8
0
100
AcDbBlockEnd
  0
BLOCK
  5
1C
330
1B
100
AcDbEntity
 67
     1
  8
0
100
AcDbBlockBegin
  2
*PAPER_SPACE
  1

  0
ENDBLK
  5
1D
330
1B
100
AcDbEntity
 67
     1
  8
0
100
AcDbBlockEnd
  0
ENDSEC
  0
SECTION
  2
ENTITIES
  0
SPLINE
  5
100
100
AcDbEntity
  8
cutting
 62
5
100
AcDbSpline
 70
8
 71
3
 72
8
 73
4
 74
0
 40
0
 40
0
 40
0
 40
0
 40
1
 40
1
 40
1
 40
1
 10
26929195.604307
 20
46431934.252707
 30
0.0
 10
26929195.604307
 20
46316740.709940
 30
0.0
 10
26883435.148595
 20
46206265.195169
 30
0.0
 10
26801981.015837
 20
46124811.062410
 30
0.0
  0
SPLINE
  5
101
100
AcDbEntity
  8
cutting
 62
5
100
AcDbSpline
 70
8
 71
3
 72
8
 73
4
 74
0
 40
0
 40
0
 40
0
 40
0
 40
1
 40
1
 40
1
 40
1
 10
26801981.015837
 20
46124811.062410
 30
0.0
 10
26720526.883078
 20
46043356.929652
 30
0.0
 10
26610051.372249
 20
45997596.477882
 30
0.0
 10
26494857.836500
 20
45997596.484900
 30
0.0
  0
SPLINE
  5
102
100
AcDbEntity
  8
cutting
 62
5
100
AcDbSpline
 70
8
 71
3
 72
8
 73
4
 74
0
 40
0
 40
0
 40
0
 40
0
 40
1
 40
1
 40
1
 40
1
 10
26494857.836500
 20
45997596.484900
 30
0.0
 10
26254979.921997
 20
45997596.762538
 30
0.0
 10
26060520.597859
 20
46192056.323591
 30
0.0
 10
26060520.597859
 20
46431934.252707
 30
0.0
  0
SPLINE
  5
103
100
AcDbEntity
  8
cutting
 62
5
100
AcDbSpline
 70
8
 71
3
 72
8
 73
4
 74
0
 40
0
 40
0
 40
0
 40
0
 40
1
 40
1
 40
1
 40
1
 10
26060520.597859
 20
46431934.252707
 30
0.0
 10
26060520.597859
 20
46671812.181823
 30
0.0
 10
26254979.921997
 20
46866271.742876
 30
0.0
 10
26494857.836500
 20
46866272.020515
 30
0.0
  0
SPLINE
  5
104
100
AcDbEntity
  8
cutting
 62
5
100
AcDbSpline
 70
8
 71
3
 72
8
 73
4
 74
0
 40
0
 40
0
 40
0
 40
0
 40
1
 40
1
 40
1
 40
1
 10
26494857.836500
 20
46866272.020515
 30
0.0
 10
26610051.372249
 20
46866272.027532
 30
0.0
 10
26720526.883078
 20
46820511.575762
 30
0.0
 10
26801981.015837
 20
46739057.443004
 30
0.0
  0
SPLINE
  5
105
100
AcDbEntity
  8
cutting
 62
5
100
AcDbSpline
 70
8
 71
3
 72
8
 73
4
 74
0
 40
0
 40
0
 40
0
 40
0
 40
1
 40
1
 40
1
 40
1
 10
26801981.015837
 20
46739057.443004
 30
0.0
 10
26883435.148595
 20
46657603.310245
 30
0.0
 10
26929195.604307
 20
46547127.795474
 30
0.0
 10
26929195.604307
 20
46431934.252707
 30
0.0
  0
SPLINE
  5
106
100
AcDbEntity
  8
cutting
 62
5
100
AcDbSpline
 70
8
 71
3
 72
8
 73
4
 74
0
 40
0
 40
0
 40
0
 40
0
 40
1
 40
1
 40
1
 40
1
 10
53243316.393682
 20
46431826.302604
 30
0.0
 10
53243316.400548
 20
46316632.766383
 30
0.0
 10
53197555.948711
 20
46206157.255701
 30
0.0
 10
53116101.815969
 20
46124703.123066
 30
0.0
  0
SPLINE
  5
107
100
AcDbEntity
  8
cutting
 62
5
100
AcDbSpline
 70
8
 71
3
 72
8
 73
4
 74
0
 40
0
 40
0
 40
0
 40
0
 40
1
 40
1
 40
1
 40
1
 10
53116101.815969
 20
46124703.123066
 30
0.0
 10
53034647.683227
 20
46043248.990430
 30
0.0
 10
52924172.168543
 20
45997488.534797
 30
0.0
 10
52808978.625874
 20
45997488.534797
 30
0.0
  0
SPLINE
  5
108
100
AcDbEntity
  8
cutting
 62
5
100
AcDbSpline
 70
8
 71
3
 72
8
 73
4
 74
0
 40
0
 40
0
 40
0
 40
0
 40
1
 40
1
 40
1
 40
1
 10
52808978.625874
 20
45997488.534797
 30
0.0
 10
52693785.083206
 20
45997488.534797
 30
0.0
 10
52583309.568521
 20
46043248.990430
 30
0.0
 10
52501855.435779
 20
46124703.123066
 30
0.0
  0
SPLINE
  5
109
100
AcDbEntity
  8
cutting
 62
5
100
AcDbSpline
 70
8
 71
3
 72
8
 73
4
 74
0
 40
0
 40
0
 40
0
 40
0
 40
1
 40
1
 40
1
 40
1
 10
52501855.435779
 20
46124703.123066
 30
0.0
 10
52420401.303037
 20
46206157.255701
 30
0.0
 10
52374640.851201
 20
46316632.766383
 30
0.0
 10
52374640.858067
 20
46431826.302034
 30
0.0
  0
SPLINE
  5
10a
100
AcDbEntity
  8
cutting
 62
5
100
AcDbSpline
 70
8
 71
3
 72
8
 73
4
 74
0
 40
0
 40
0
 40
0
 40
0
 40
1
 40
1
 40
1
 40
1
 10
52374640.858067
 20
46431826.302034
 30
0.0
 10
52374640.851201
 20
46547019.838825
 30
0.0
 10
52420401.303037
 20
46657495.349508
 30
0.0
 10
52501855.435779
 20
46738949.482143
 30
0.0
  0
SPLINE
  5
10b
100
AcDbEntity
  8
cutting
 62
5
100
AcDbSpline
 70
8
 71
3
 72
8
 73
4
 74
0
 40
0
 40
0
 40
0
 40
0
 40
1
 40
1
 40
1
 40
1
 10
52501855.435779
 20
46738949.482143
 30
0.0
 10
52583309.568521
 20
46820403.614778
 30
0.0
 10
52693785.083206
 20
46866164.070412
 30
0.0
 10
52808978.625874
 20
46866164.070412
 30
0.0
  0
SPLINE
  5
10c
100
AcDbEntity
  8
cutting
 62
5
100
AcDbSpline
 70
8
 71
3
 72
8
 73
4
 74
0
 40
0
 40
0
 40
0
 40
0
 40
1
 40
1
 40
1
 40
1
 10
52808978.625874
 20
46866164.070412
 30
0.0
 10
52924172.168543
 20
46866164.070412
 30
0.0
 10
53034647.683227
 20
46820403.614778
 30
0.0
 10
53116101.815969
 20
46738949.482143
 30
0.0
  0
SPLINE
  5
10d
100
AcDbEntity
  8
cutting
 62
5
100
AcDbSpline
 70
8
 71
3
 72
8
 73
4
 74
0
 40
0
 40
0
 40
0
 40
0
 40
1
 40
1
 40
1
 40
1
 10
53116101.815969
 20
46738949.482143
 30
0.0
 10
53197555.948711
 20
46657495.349508
 30
0.0
 10
53243316.400548
 20
46547019.838825
 30
0.0
 10
53243316.393682
 20
46431826.303174
 30
0.0
  0
LWPOLYLINE
  5
10e
100
AcDbEntity
  8
cutting
 62
5
100
AcDbPolyline
 90
1
 70
1
 10
26929195.604307
 20
46431934.252707
 30
0.0
  0
SPLINE
  5
10f
100
AcDbEntity
  8
cutting
 62
5
100
AcDbSpline
 70
8
 71
3
 72
8
 73
4
 74
0
 40
0
 40
0
 40
0
 40
0
 40
1
 40
1
 40
1
 40
1
 10
53243371.956235
 20
11038739.387725
 30
0.0
 10
53243371.956235
 20
10923545.844958
 30
0.0
 10
53197611.500523
 20
10813070.330187
 30
0.0
 10
53116157.367764
 20
10731616.197428
 30
0.0
  0
SPLINE
  5
110
100
AcDbEntity
  8
cutting
 62
5
100
AcDbSpline
 70
8
 71
3
 72
8
 73
4
 74
0
 40
0
 40
0
 40
0
 40
0
 40
1
 40
1
 40
1
 40
1
 10
53116157.367764
 20
10731616.197428
 30
0.0
 10
53034703.235006
 20
10650162.064670
 30
0.0
 10
52924227.724177
 20
10604401.612900
 30
0.0
 10
52809034.188427
 20
10604401.619917
 30
0.0
  0
SPLINE
  5
111
100
AcDbEntity
  8
cutting
 62
5
100
AcDbSpline
 70
8
 71
3
 72
8
 73
4
 74
0
 40
0
 40
0
 40
0
 40
0
 40
1
 40
1
 40
1
 40
1
 10
52809034.188427
 20
10604401.619917
 30
0.0
 10
52693840.652678
 20
10604401.612900
 30
0.0
 10
52583365.141849
 20
10650162.064670
 30
0.0
 10
52501911.009090
 20
10731616.197428
 30
0.0
  0
SPLINE
  5
112
100
AcDbEntity
  8
cutting
 62
5
100
AcDbSpline
 70
8
 71
3
 72
8
 73
4
 74
0
 40
0
 40
0
 40
0
 40
0
 40
1
 40
1
 40
1
 40
1
 10
52501911.009090
 20
10731616.197428
 30
0.0
 10
52420456.876332
 20
10813070.330187
 30
0.0
 10
52374696.420620
 20
10923545.844958
 30
0.0
 10
52374696.420620
 20
11038739.387725
 30
0.0
  0
SPLINE
  5
113
100
AcDbEntity
  8
cutting
 62
5
100
AcDbSpline
 70
8
 71
3
 72
8
 73
4
 74
0
 40
0
 40
0
 40
0
 40
0
 40
1
 40
1
 40
1
 40
1
 10
52374696.420620
 20
11038739.387725
 30
0.0
 10
52374696.420620
 20
11153932.930492
 30
0.0
 10
52420456.876332
 20
11264408.445263
 30
0.0
 10
52501911.009090
 20
11345862.578021
 30
0.0
  0
SPLINE
  5
114
100
AcDbEntity
  8
cutting
 62
5
100
AcDbSpline
 70
8
 71
3
 72
8
 73
4
 74
0
 40
0
 40
0
 40
0
 40
0
 40
1
 40
1
 40
1
 40
1
 10
52501911.009090
 20
11345862.578021
 30
0.0
 10
52583365.141849
 20
11427316.710780
 30
0.0
 10
52693840.652678
 20
11473077.162549
 30
0.0
 10
52809034.188427
 20
11473077.155532
 30
0.0
  0
SPLINE
  5
115
100
AcDbEntity
  8
cutting
 62
5
100
AcDbSpline
 70
8
 71
3
 72
8
 73
4
 74
0
 40
0
 40
0
 40
0
 40
0
 40
1
 40
1
 40
1
 40
1
 10
52809034.188427
 20
11473077.155532
 30
0.0
 10
52924227.724177
 20
11473077.162549
 30
0.0
 10
53034703.235006
 20
11427316.710780
 30
0.0
 10
53116157.367764
 20
11345862.578021
 30
0.0
  0
SPLINE
  5
116
100
AcDbEntity
  8
cutting
 62
5
100
AcDbSpline
 70
8
 71
3
 72
8
 73
4
 74
0
 40
0
 40
0
 40
0
 40
0
 40
1
 40
1
 40
1
 40
1
 10
53116157.367764
 20
11345862.578021
 30
0.0
 10
53197611.500523
 20
11264408.445263
 30
0.0
 10
53243371.956235
 20
11153932.930492
 30
0.0
 10
53243371.956235
 20
11038739.387725
 30
0.0
  0
LWPOLYLINE
  5
117
100
AcDbEntity
  8
cutting
 62
5
100
AcDbPolyline
 90
2
 70
0
 10
53243316.393682
 20
46431826.303174
 30
0.0
 10
53243316.393682
 20
46431826.302604
 30
0.0
  0
SPLINE
  5
118
100
AcDbEntity
  8
cutting
 62
5
100
AcDbSpline
 70
8
 71
3
 72
8
 73
4
 74
0
 40
0
 40
0
 40
0
 40
0
 40
1
 40
1
 40
1
 40
1
 10
26929208.833486
 20
11038744.679396
 30
0.0
 10
26929208.833486
 20
10923551.136630
 30
0.0
 10
26883448.377774
 20
10813075.621858
 30
0.0
 10
26801994.245016
 20
10731621.489100
 30
0.0
  0
SPLINE
  5
119
100
AcDbEntity
  8
cutting
 62
5
100
AcDbSpline
 70
8
 71
3
 72
8
 73
4
 74
0
 40
0
 40
0
 40
0
 40
0
 40
1
 40
1
 40
1
 40
1
 10
26801994.245016
 20
10731621.489100
 30
0.0
 10
26720540.112258
 20
10650167.356341
 30
0.0
 10
26610064.601428
 20
10604406.904572
 30
0.0
 10
26494871.065679
 20
10604406.911589
 30
0.0
  0
SPLINE
  5
11a
100
AcDbEntity
  8
cutting
 62
5
100
AcDbSpline
 70
8
 71
3
 72
8
 73
4
 74
0
 40
0
 40
0
 40
0
 40
0
 40
1
 40
1
 40
1
 40
1
 10
26494871.065679
 20
10604406.911589
 30
0.0
 10
26379677.529929
 20
10604406.904572
 30
0.0
 10
26269202.019100
 20
10650167.356341
 30
0.0
 10
26187747.886342
 20
10731621.489100
 30
0.0
  0
SPLINE
  5
11b
100
AcDbEntity
  8
cutting
 62
5
100
AcDbSpline
 70
8
 71
3
 72
8
 73
4
 74
0
 40
0
 40
0
 40
0
 40
0
 40
1
 40
1
 40
1
 40
1
 10
26187747.886342
 20
10731621.489100
 30
0.0
 10
26106293.753583
 20
10813075.621858
 30
0.0
 10
26060533.297871
 20
10923551.136630
 30
0.0
 10
26060533.297871
 20
11038744.679396
 30
0.0
  0
SPLINE
  5
11c
100
AcDbEntity
  8
cutting
 62
5
100
AcDbSpline
 70
8
 71
3
 72
8
 73
4
 74
0
 40
0
 40
0
 40
0
 40
0
 40
1
 40
1
 40
1
 40
1
 10
26060533.297871
 20
11038744.679396
 30
0.0
 10
26060533.297871
 20
11153938.222163
 30
0.0
 10
26106293.753583
 20
11264413.736935
 30
0.0
 10
26187747.886342
 20
11345867.869693
 30
0.0
  0
SPLINE
  5
11d
100
AcDbEntity
  8
cutting
 62
5
100
AcDbSpline
 70
8
 71
3
 72
8
 73
4
 74
0
 40
0
 40
0
 40
0
 40
0
 40
1
 40
1
 40
1
 40
1
 10
26187747.886342
 20
11345867.869693
 30
0.0
 10
26269202.019100
 20
11427322.002451
 30
0.0
 10
26379677.529929
 20
11473082.454221
 30
0.0
 10
26494871.065679
 20
11473082.447204
 30
0.0
  0
SPLINE
  5
11e
100
AcDbEntity
  8
cutting
 62
5
100
AcDbSpline
 70
8
 71
3
 72
8
 73
4
 74
0
 40
0
 40
0
 40
0
 40
0
 40
1
 40
1
 40
1
 40
1
 10
26494871.065679
 20
11473082.447204
 30
0.0
 10
26610064.601428
 20
11473082.454221
 30
0.0
 10
26720540.112258
 20
11427322.002451
 30
0.0
 10
26801994.245016
 20
11345867.869693
 30
0.0
  0
SPLINE
  5
11f
100
AcDbEntity
  8
cutting
 62
5
100
AcDbSpline
 70
8
 71
3
 72
8
 73
4
 74
0
 40
0
 40
0
 40
0
 40
0
 40
1
 40
1
 40
1
 40
1
 10
26801994.245016
 20
11345867.869693
 30
0.0
 10
26883448.377774
 20
11264413.736935
 30
0.0
 10
26929208.833486
 20
11153938.222163
 30
0.0
 10
26929208.833486
 20
11038744.679396
 30
0.0
  0
LWPOLYLINE
  5
120
100
AcDbEntity
  8
cutting
 62
5
100
AcDbPolyline
 90
1
 70
1
 10
53243371.956235
 20
11038739.387725
 30
0.0
  0
LWPOLYLINE
  5
121
100
AcDbEntity
  8
cutting
 62
5
100
AcDbPolyline
 90
1
 70
1
 10
26929208.833486
 20
11038744.679396
 30
0.0
  0
LWPOLYLINE
  5
122
100
AcDbEntity
  8
cutting
 62
5
100
AcDbPolyline
 90
4
 70
1
 10
27893581.606072
 20
43263560.635312
 30
0.0
 10
29923107.038887
 20
43263560.635312
 30
0.0
 10
29923107.038887
 20
41234036.260831
 30
0.0
 10
27893581.606072
 20
41234036.260831
 30
0.0
  0
LWPOLYLINE
  5
123
100
AcDbEntity
  8
cutting
 62
5
100
AcDbPolyline
 90
4
 70
1
 10
33932654.315706
 20
43560565.234830
 30
0.0
 10
44575280.326192
 20
43560565.234830
 30
0.0
 10
44575280.326192
 20
39773770.084732
 30
0.0
 10
33932654.315706
 20
39773770.084732
 30
0.0
  0
LWPOLYLINE
  5
124
100
AcDbEntity
  8
cutting
 62
5
100
AcDbPolyline
 90
4
 70
1
 10
44872283.338209
 20
44946581.054800
 30
0.0
 10
47817569.601481
 20
44946581.054800
 30
0.0
 10
47817569.601481
 20
43115059.129303
 30
0.0
 10
44872283.338209
 20
43115059.129303
 30
0.0
  0
LWPOLYLINE
  5
125
100
AcDbEntity
  8
cutting
 62
5
100
AcDbPolyline
 90
4
 70
1
 10
48114816.030397
 20
42179354.252770
 30
0.0
 10
51740680.066815
 20
42179354.252770
 30
0.0
 10
51740680.066815
 20
38553492.862187
 30
0.0
 10
48114816.030397
 20
38553492.862187
 30
0.0
  0
LWPOLYLINE
  5
126
100
AcDbEntity
  8
cutting
 62
5
100
AcDbPolyline
 90
2
 70
0
 10
54832228.136046
 20
49381104.338427
 30
0.0
 10
54967681.702545
 20
49375620.579038
 30
0.0
  0
LWPOLYLINE
  5
127
100
AcDbEntity
  8
cutting
 62
5
100
AcDbPolyline
 90
2
 70
0
 10
24946789.333032
 20
49381104.338427
 30
0.0
 10
54832228.136046
 20
49381104.338427
 30
0.0
  0
LWPOLYLINE
  5
128
100
AcDbEntity
  8
cutting
 62
5
100
AcDbPolyline
 90
1
 70
1
 10
24946789.333032
 20
49381104.338427
 30
0.0
  0
LWPOLYLINE
  5
129
100
AcDbEntity
  8
cutting
 62
5
100
AcDbPolyline
 90
2
 70
0
 10
24811337.618619
 20
49375620.579038
 30
0.0
 10
24946789.333032
 20
49381104.338427
 30
0.0
  0
LWPOLYLINE
  5
12a
100
AcDbEntity
  8
cutting
 62
5
100
AcDbPolyline
 90
2
 70
0
 10
24676480.952688
 20
49359952.468284
 30
0.0
 10
24811337.618619
 20
49375620.579038
 30
0.0
  0
LWPOLYLINE
  5
12b
100
AcDbEntity
  8
cutting
 62
5
100
AcDbPolyline
 90
2
 70
0
 10
24543333.761302
 20
49333316.574167
 30
0.0
 10
24676480.952688
 20
49359952.468284
 30
0.0
  0
LWPOLYLINE
  5
12c
100
AcDbEntity
  8
cutting
 62
5
100
AcDbPolyline
 90
2
 70
0
 10
24412640.053503
 20
49296496.328685
 30
0.0
 10
24543333.761302
 20
49333316.574167
 30
0.0
  0
LWPOLYLINE
  5
12d
100
AcDbEntity
  8
cutting
 62
5
100
AcDbPolyline
 90
2
 70
0
 10
24284548.525265
 20
49248708.564424
 30
0.0
 10
24412640.053503
 20
49296496.328685
 30
0.0
  0
LWPOLYLINE
  5
12e
100
AcDbEntity
  8
cutting
 62
5
100
AcDbPolyline
 90
2
 70
0
 10
24160322.563209
 20
49191519.880794
 30
0.0
 10
24284548.525265
 20
49248708.564424
 30
0.0
  0
LWPOLYLINE
  5
12f
100
AcDbEntity
  8
cutting
 62
5
100
AcDbPolyline
 90
2
 70
0
 10
24040631.563805
 20
49124930.277794
 30
0.0
 10
24160322.563209
 20
49191519.880794
 30
0.0
  0
LWPOLYLINE
  5
130
100
AcDbEntity
  8
cutting
 62
5
100
AcDbPolyline
 90
2
 70
0
 10
23925698.306431
 20
49048940.020008
 30
0.0
 10
24040631.563805
 20
49124930.277794
 30
0.0
  0
LWPOLYLINE
  5
131
100
AcDbEntity
  8
cutting
 62
5
100
AcDbPolyline
 90
2
 70
0
 10
23816712.623472
 20
48964332.010265
 30
0.0
 10
23925698.306431
 20
49048940.020008
 30
0.0
  0
LWPOLYLINE
  5
132
100
AcDbEntity
  8
cutting
 62
5
100
AcDbPolyline
 90
2
 70
0
 10
23714120.338269
 20
48871106.777732
 30
0.0
 10
23816712.623472
 20
48964332.010265
 30
0.0
  0
LWPOLYLINE
  5
133
100
AcDbEntity
  8
cutting
 62
5
100
AcDbPolyline
 90
2
 70
0
 10
23618293.190758
 20
48770047.225238
 30
0.0
 10
23714120.338269
 20
48871106.777732
 30
0.0
  0
LWPOLYLINE
  5
134
100
AcDbEntity
  8
cutting
 62
5
100
AcDbPolyline
 90
2
 70
0
 10
23529825.700256
 20
48661937.313947
 30
0.0
 10
23618293.190758
 20
48770047.225238
 30
0.0
  0
LWPOLYLINE
  5
135
100
AcDbEntity
  8
cutting
 62
5
100
AcDbPolyline
 90
2
 70
0
 10
23449461.875805
 20
48546776.514690
 30
0.0
 10
23529825.700256
 20
48661937.313947
 30
0.0
  0
LWPOLYLINE
  5
136
100
AcDbEntity
  8
cutting
 62
5
100
AcDbPolyline
 90
2
 70
0
 10
23377201.188238
 20
48426131.956044
 30
0.0
 10
23449461.875805
 20
48546776.514690
 30
0.0
  0
LWPOLYLINE
  5
137
100
AcDbEntity
  8
cutting
 62
5
100
AcDbPolyline
 90
2
 70
0
 10
23313861.465416
 20
48300003.373426
 30
0.0
 10
23377201.188238
 20
48426131.956044
 30
0.0
  0
LWPOLYLINE
  5
138
100
AcDbEntity
  8
cutting
 62
5
100
AcDbPolyline
 90
2
 70
0
 10
23259666.015887
 20
48169174.463415
 30
0.0
 10
23313861.465416
 20
48300003.373426
 30
0.0
  0
LWPOLYLINE
  5
139
100
AcDbEntity
  8
cutting
 62
5
100
AcDbPolyline
 90
2
 70
0
 10
23214911.967015
 20
48034428.658007
 30
0.0
 10
23259666.015887
 20
48169174.463415
 30
0.0
  0
LWPOLYLINE
  5
13a
100
AcDbEntity
  8
cutting
 62
5
100
AcDbPolyline
 90
2
 70
0
 10
23179822.362764
 20
47896549.124614
 30
0.0
 10
23214911.967015
 20
48034428.658007
 30
0.0
  0
LWPOLYLINE
  5
13b
100
AcDbEntity
  8
cutting
 62
5
100
AcDbPolyline
 90
2
 70
0
 10
23154620.511680
 20
47755535.863237
 30
0.0
 10
23179822.362764
 20
47896549.124614
 30
0.0
  0
LWPOLYLINE
  5
13c
100
AcDbEntity
  8
cutting
 62
5
100
AcDbPolyline
 90
2
 70
0
 10
23139454.580570
 20
47613739.434447
 30
0.0
 10
23154620.511680
 20
47755535.863237
 30
0.0
  0
LWPOLYLINE
  5
13d
100
AcDbEntity
  8
cutting
 62
5
100
AcDbPolyline
 90
2
 70
0
 10
23134399.446589
 20
47471159.309078
 30
0.0
 10
23139454.580570
 20
47613739.434447
 30
0.0
  0
LWPOLYLINE
  5
13e
100
AcDbEntity
  8
cutting
 62
5
100
AcDbPolyline
 90
2
 70
0
 10
23134399.446589
 20
10102671.767096
 30
0.0
 10
23134399.446589
 20
47471159.309078
 30
0.0
  0
LWPOLYLINE
  5
13f
100
AcDbEntity
  8
cutting
 62
5
100
AcDbPolyline
 90
2
 70
0
 10
23139454.580570
 20
9960090.318808
 30
0.0
 10
23134399.446589
 20
10102671.767096
 30
0.0
  0
LWPOLYLINE
  5
140
100
AcDbEntity
  8
cutting
 62
5
100
AcDbPolyline
 90
2
 70
0
 10
23154620.511680
 20
9818294.683770
 30
0.0
 10
23139454.580570
 20
9960090.318808
 30
0.0
  0
LWPOLYLINE
  5
141
100
AcDbEntity
  8
cutting
 62
5
100
AcDbPolyline
 90
2
 70
0
 10
23179822.362764
 20
9678065.383556
 30
0.0
 10
23154620.511680
 20
9818294.683770
 30
0.0
  0
LWPOLYLINE
  5
142
100
AcDbEntity
  8
cutting
 62
5
100
AcDbPolyline
 90
2
 70
0
 10
23214911.967015
 20
9539402.418167
 30
0.0
 10
23179822.362764
 20
9678065.383556
 30
0.0
  0
LWPOLYLINE
  5
143
100
AcDbEntity
  8
cutting
 62
5
100
AcDbPolyline
 90
2
 70
0
 10
23259666.015887
 20
9404655.289841
 30
0.0
 10
23214911.967015
 20
9539402.418167
 30
0.0
  0
LWPOLYLINE
  5
144
100
AcDbEntity
  8
cutting
 62
5
100
AcDbPolyline
 90
2
 70
0
 10
23313861.465416
 20
9273826.644413
 30
0.0
 10
23259666.015887
 20
9404655.289841
 30
0.0
  0
LWPOLYLINE
  5
145
100
AcDbEntity
  8
cutting
 62
5
100
AcDbPolyline
 90
2
 70
0
 10
23377201.188238
 20
9147699.649296
 30
0.0
 10
23313861.465416
 20
9273826.644413
 30
0.0
  0
LWPOLYLINE
  5
146
100
AcDbEntity
  8
cutting
 62
5
100
AcDbPolyline
 90
2
 70
0
 10
23449461.875805
 20
9027054.826067
 30
0.0
 10
23377201.188238
 20
9147699.649296
 30
0.0
  0
LWPOLYLINE
  5
147
100
AcDbEntity
  8
cutting
 62
5
100
AcDbPolyline
 90
2
 70
0
 10
23529825.700256
 20
8911892.174725
 30
0.0
 10
23449461.875805
 20
9027054.826067
 30
0.0
  0
LWPOLYLINE
  5
148
100
AcDbEntity
  8
cutting
 62
5
100
AcDbPolyline
 90
2
 70
0
 10
23618293.190758
 20
8803783.321768
 30
0.0
 10
23529825.700256
 20
8911892.174725
 30
0.0
  0
LWPOLYLINE
  5
149
100
AcDbEntity
  8
cutting
 62
5
100
AcDbPolyline
 90
2
 70
0
 10
23714120.338269
 20
8702722.975523
 30
0.0
 10
23618293.190758
 20
8803783.321768
 30
0.0
  0
LWPOLYLINE
  5
14a
100
AcDbEntity
  8
cutting
 62
5
100
AcDbPolyline
 90
2
 70
0
 10
23816712.623472
 20
8609496.949240
 30
0.0
 10
23714120.338269
 20
8702722.975523
 30
0.0
  0
LWPOLYLINE
  5
14b
100
AcDbEntity
  8
cutting
 62
5
100
AcDbPolyline
 90
2
 70
0
 10
23925698.306431
 20
8524891.056166
 30
0.0
 10
23816712.623472
 20
8609496.949240
 30
0.0
  0
LWPOLYLINE
  5
14c
100
AcDbEntity
  8
cutting
 62
5
100
AcDbPolyline
 90
2
 70
0
 10
24040631.563805
 20
8448900.004629
 30
0.0
 10
23925698.306431
 20
8524891.056166
 30
0.0
  0
LWPOLYLINE
  5
14d
100
AcDbEntity
  8
cutting
 62
5
100
AcDbPolyline
 90
2
 70
0
 10
24160322.563209
 20
8382309.607878
 30
0.0
 10
24040631.563805
 20
8448900.004629
 30
0.0
  0
LWPOLYLINE
  5
14e
100
AcDbEntity
  8
cutting
 62
5
100
AcDbPolyline
 90
2
 70
0
 10
24284548.525265
 20
8325122.511750
 30
0.0
 10
24160322.563209
 20
8382309.607878
 30
0.0
  0
LWPOLYLINE
  5
14f
100
AcDbEntity
  8
cutting
 62
5
100
AcDbPolyline
 90
2
 70
0
 10
24412640.053503
 20
8278116.591984
 30
0.0
 10
24284548.525265
 20
8325122.511750
 30
0.0
  0
LWPOLYLINE
  5
150
100
AcDbEntity
  8
cutting
 62
5
100
AcDbPolyline
 90
2
 70
0
 10
24543333.761302
 20
8240513.972839
 30
0.0
 10
24412640.053503
 20
8278116.591984
 30
0.0
  0
LWPOLYLINE
  5
151
100
AcDbEntity
  8
cutting
 62
5
100
AcDbPolyline
 90
2
 70
0
 10
24676480.952688
 20
8213878.343306
 30
0.0
 10
24543333.761302
 20
8240513.972839
 30
0.0
  0
LWPOLYLINE
  5
152
100
AcDbEntity
  8
cutting
 62
5
100
AcDbPolyline
 90
2
 70
0
 10
24811337.618619
 20
8198209.703384
 30
0.0
 10
24676480.952688
 20
8213878.343306
 30
0.0
  0
LWPOLYLINE
  5
153
100
AcDbEntity
  8
cutting
 62
5
100
AcDbPolyline
 90
2
 70
0
 10
24946789.333032
 20
8192724.885661
 30
0.0
 10
24811337.618619
 20
8198209.703384
 30
0.0
  0
LWPOLYLINE
  5
154
100
AcDbEntity
  8
cutting
 62
5
100
AcDbPolyline
 90
2
 70
0
 10
54832228.136046
 20
8192724.885661
 30
0.0
 10
24946789.333032
 20
8192724.885661
 30
0.0
  0
LWPOLYLINE
  5
155
100
AcDbEntity
  8
cutting
 62
5
100
AcDbPolyline
 90
2
 70
0
 10
54967681.702545
 20
8198209.703384
 30
0.0
 10
54832228.136046
 20
8192724.885661
 30
0.0
  0
LWPOLYLINE
  5
156
100
AcDbEntity
  8
cutting
 62
5
100
AcDbPolyline
 90
2
 70
0
 10
55102537.310141
 20
8213878.343306
 30
0.0
 10
54967681.702545
 20
8198209.703384
 30
0.0
  0
LWPOLYLINE
  5
157
100
AcDbEntity
  8
cutting
 62
5
100
AcDbPolyline
 90
2
 70
0
 10
55235683.707776
 20
8240513.972839
 30
0.0
 10
55102537.310141
 20
8213878.343306
 30
0.0
  0
LWPOLYLINE
  5
158
100
AcDbEntity
  8
cutting
 62
5
100
AcDbPolyline
 90
2
 70
0
 10
55366377.415575
 20
8278116.591984
 30
0.0
 10
55235683.707776
 20
8240513.972839
 30
0.0
  0
LWPOLYLINE
  5
159
100
AcDbEntity
  8
cutting
 62
5
100
AcDbPolyline
 90
2
 70
0
 10
55494470.266731
 20
8325122.511750
 30
0.0
 10
55366377.415575
 20
8278116.591984
 30
0.0
  0
LWPOLYLINE
  5
15a
100
AcDbEntity
  8
cutting
 62
5
100
AcDbPolyline
 90
2
 70
0
 10
55618694.905870
 20
8382309.607878
 30
0.0
 10
55494470.266731
 20
8325122.511750
 30
0.0
  0
LWPOLYLINE
  5
15b
100
AcDbEntity
  8
cutting
 62
5
100
AcDbPolyline
 90
2
 70
0
 10
55738387.228192
 20
8448900.004629
 30
0.0
 10
55618694.905870
 20
8382309.607878
 30
0.0
  0
LWPOLYLINE
  5
15c
100
AcDbEntity
  8
cutting
 62
5
100
AcDbPolyline
 90
2
 70
0
 10
55853319.691814
 20
8524891.056166
 30
0.0
 10
55738387.228192
 20
8448900.004629
 30
0.0
  0
LWPOLYLINE
  5
15d
100
AcDbEntity
  8
cutting
 62
5
100
AcDbPolyline
 90
2
 70
0
 10
55962306.962275
 20
8609496.949240
 30
0.0
 10
55853319.691814
 20
8524891.056166
 30
0.0
  0
LWPOLYLINE
  5
15e
100
AcDbEntity
  8
cutting
 62
5
100
AcDbPolyline
 90
2
 70
0
 10
56064899.247478
 20
8702722.975523
 30
0.0
 10
55962306.962275
 20
8609496.949240
 30
0.0
  0
LWPOLYLINE
  5
15f
100
AcDbEntity
  8
cutting
 62
5
100
AcDbPolyline
 90
2
 70
0
 10
56160726.130405
 20
8803783.321768
 30
0.0
 10
56064899.247478
 20
8702722.975523
 30
0.0
  0
LWPOLYLINE
  5
160
100
AcDbEntity
  8
cutting
 62
5
100
AcDbPolyline
 90
2
 70
0
 10
56249192.297989
 20
8911892.174725
 30
0.0
 10
56160726.130405
 20
8803783.321768
 30
0.0
  0
LWPOLYLINE
  5
161
100
AcDbEntity
  8
cutting
 62
5
100
AcDbPolyline
 90
2
 70
0
 10
56329556.916191
 20
9027054.826067
 30
0.0
 10
56249192.297989
 20
8911892.174725
 30
0.0
  0
LWPOLYLINE
  5
162
100
AcDbEntity
  8
cutting
 62
5
100
AcDbPolyline
 90
2
 70
0
 10
56401743.255771
 20
9147699.649296
 30
0.0
 10
56329556.916191
 20
9027054.826067
 30
0.0
  0
LWPOLYLINE
  5
163
100
AcDbEntity
  8
cutting
 62
5
100
AcDbPolyline
 90
2
 70
0
 10
56465007.836854
 20
9273826.644413
 30
0.0
 10
56401743.255771
 20
9147699.649296
 30
0.0
  0
LWPOLYLINE
  5
164
100
AcDbEntity
  8
cutting
 62
5
100
AcDbPolyline
 90
2
 70
0
 10
56519202.492633
 20
9404655.289841
 30
0.0
 10
56465007.836854
 20
9273826.644413
 30
0.0
  0
LWPOLYLINE
  5
165
100
AcDbEntity
  8
cutting
 62
5
100
AcDbPolyline
 90
2
 70
0
 10
56564181.702136
 20
9539402.418167
 30
0.0
 10
56519202.492633
 20
9404655.289841
 30
0.0
  0
LWPOLYLINE
  5
166
100
AcDbEntity
  8
cutting
 62
5
100
AcDbPolyline
 90
2
 70
0
 10
56599344.860623
 20
9678065.383556
 30
0.0
 10
56564181.702136
 20
9539402.418167
 30
0.0
  0
LWPOLYLINE
  5
167
100
AcDbEntity
  8
cutting
 62
5
100
AcDbPolyline
 90
2
 70
0
 10
56624324.196912
 20
9818294.683770
 30
0.0
 10
56599344.860623
 20
9678065.383556
 30
0.0
  0
LWPOLYLINE
  5
168
100
AcDbEntity
  8
cutting
 62
5
100
AcDbPolyline
 90
2
 70
0
 10
56639490.128022
 20
9960090.318808
 30
0.0
 10
56624324.196912
 20
9818294.683770
 30
0.0
  0
LWPOLYLINE
  5
169
100
AcDbEntity
  8
cutting
 62
5
100
AcDbPolyline
 90
2
 70
0
 10
56644543.674502
 20
10102671.767096
 30
0.0
 10
56639490.128022
 20
9960090.318808
 30
0.0
  0
LWPOLYLINE
  5
16a
100
AcDbEntity
  8
cutting
 62
5
100
AcDbPolyline
 90
2
 70
0
 10
56644543.674502
 20
47471159.309078
 30
0.0
 10
56644543.674502
 20
10102671.767096
 30
0.0
  0
LWPOLYLINE
  5
16b
100
AcDbEntity
  8
cutting
 62
5
100
AcDbPolyline
 90
1
 70
1
 10
56644543.674502
 20
47471159.309078
 30
0.0
  0
LWPOLYLINE
  5
16c
100
AcDbEntity
  8
cutting
 62
5
100
AcDbPolyline
 90
2
 70
0
 10
56639490.128022
 20
47613739.434447
 30
0.0
 10
56644543.674502
 20
47471159.309078
 30
0.0
  0
LWPOLYLINE
  5
16d
100
AcDbEntity
  8
cutting
 62
5
100
AcDbPolyline
 90
2
 70
0
 10
56624324.196912
 20
47755535.863237
 30
0.0
 10
56639490.128022
 20
47613739.434447
 30
0.0
  0
LWPOLYLINE
  5
16e
100
AcDbEntity
  8
cutting
 62
5
100
AcDbPolyline
 90
2
 70
0
 10
56599048.527008
 20
47896549.124614
 30
0.0
 10
56624324.196912
 20
47755535.863237
 30
0.0
  0
LWPOLYLINE
  5
16f
100
AcDbEntity
  8
cutting
 62
5
100
AcDbPolyline
 90
2
 70
0
 10
56564181.702136
 20
48034428.658007
 30
0.0
 10
56599048.527008
 20
47896549.124614
 30
0.0
  0
LWPOLYLINE
  5
170
100
AcDbEntity
  8
cutting
 62
5
100
AcDbPolyline
 90
2
 70
0
 10
56519202.492633
 20
48169174.463415
 30
0.0
 10
56564181.702136
 20
48034428.658007
 30
0.0
  0
LWPOLYLINE
  5
171
100
AcDbEntity
  8
cutting
 62
5
100
AcDbPolyline
 90
2
 70
0
 10
56465007.836854
 20
48300003.373426
 30
0.0
 10
56519202.492633
 20
48169174.463415
 30
0.0
  0
LWPOLYLINE
  5
172
100
AcDbEntity
  8
cutting
 62
5
100
AcDbPolyline
 90
2
 70
0
 10
56401743.255771
 20
48426131.956044
 30
0.0
 10
56465007.836854
 20
48300003.373426
 30
0.0
  0
LWPOLYLINE
  5
173
100
AcDbEntity
  8
cutting
 62
5
100
AcDbPolyline
 90
2
 70
0
 10
56329556.916191
 20
48546776.514690
 30
0.0
 10
56401743.255771
 20
48426131.956044
 30
0.0
  0
LWPOLYLINE
  5
174
100
AcDbEntity
  8
cutting
 62
5
100
AcDbPolyline
 90
2
 70
0
 10
56249192.297989
 20
48661937.313947
 30
0.0
 10
56329556.916191
 20
48546776.514690
 30
0.0
  0
LWPOLYLINE
  5
175
100
AcDbEntity
  8
cutting
 62
5
100
AcDbPolyline
 90
2
 70
0
 10
56160726.130405
 20
48770047.225238
 30
0.0
 10
56249192.297989
 20
48661937.313947
 30
0.0
  0
LWPOLYLINE
  5
176
100
AcDbEntity
  8
cutting
 62
5
100
AcDbPolyline
 90
2
 70
0
 10
56064899.247478
 20
48871106.777732
 30
0.0
 10
56160726.130405
 20
48770047.225238
 30
0.0
  0
LWPOLYLINE
  5
177
100
AcDbEntity
  8
cutting
 62
5
100
AcDbPolyline
 90
2
 70
0
 10
55962306.962275
 20
48964332.010265
 30
0.0
 10
56064899.247478
 20
48871106.777732
 30
0.0
  0
LWPOLYLINE
  5
178
100
AcDbEntity
  8
cutting
 62
5
100
AcDbPolyline
 90
2
 70
0
 10
55853319.691814
 20
49048940.020008
 30
0.0
 10
55962306.962275
 20
48964332.010265
 30
0.0
  0
LWPOLYLINE
  5
179
100
AcDbEntity
  8
cutting
 62
5
100
AcDbPolyline
 90
2
 70
0
 10
55738387.228192
 20
49124930.277794
 30
0.0
 10
55853319.691814
 20
49048940.020008
 30
0.0
  0
LWPOLYLINE
  5
17a
100
AcDbEntity
  8
cutting
 62
5
100
AcDbPolyline
 90
2
 70
0
 10
55618694.905870
 20
49191519.880794
 30
0.0
 10
55738387.228192
 20
49124930.277794
 30
0.0
  0
LWPOLYLINE
  5
17b
100
AcDbEntity
  8
cutting
 62
5
100
AcDbPolyline
 90
2
 70
0
 10
55494470.266731
 20
49248708.564424
 30
0.0
 10
55618694.905870
 20
49191519.880794
 30
0.0
  0
LWPOLYLINE
  5
17c
100
AcDbEntity
  8
cutting
 62
5
100
AcDbPolyline
 90
2
 70
0
 10
55366377.415575
 20
49296496.328685
 30
0.0
 10
55494470.266731
 20
49248708.564424
 30
0.0
  0
LWPOLYLINE
  5
17d
100
AcDbEntity
  8
cutting
 62
5
100
AcDbPolyline
 90
2
 70
0
 10
55235683.707776
 20
49333316.574167
 30
0.0
 10
55366377.415575
 20
49296496.328685
 30
0.0
  0
LWPOLYLINE
  5
17e
100
AcDbEntity
  8
cutting
 62
5
100
AcDbPolyline
 90
2
 70
0
 10
55102537.310141
 20
49359952.468284
 30
0.0
 10
55235683.707776
 20
49333316.574167
 30
0.0
  0
SPLINE
  5
17f
100
AcDbEntity
  8
cutting
 62
5
100
AcDbSpline
 70
8
 71
3
 72
8
 73
4
 74
0
 40
0
 40
0
 40
0
 40
0
 40
1
 40
1
 40
1
 40
1
 10
31476310.580578
 20
34058307.970788
 30
0.0
 10
31511396.635638
 20
34058307.975700
 30
0.0
 10
31545045.648084
 20
34072245.895197
 30
0.0
 10
31569855.185924
 20
34097055.532275
 30
0.0
  0
SPLINE
  5
180
100
AcDbEntity
  8
cutting
 62
5
100
AcDbSpline
 70
8
 71
3
 72
8
 73
4
 74
0
 40
0
 40
0
 40
0
 40
0
 40
1
 40
1
 40
1
 40
1
 10
31569855.185924
 20
34097055.532275
 30
0.0
 10
31594664.723763
 20
34121865.169353
 30
0.0
 10
31608602.508664
 20
34155514.237550
 30
0.0
 10
31608602.373232
 20
34190600.292611
 30
0.0
  0
SPLINE
  5
181
100
AcDbEntity
  8
cutting
 62
5
100
AcDbSpline
 70
8
 71
3
 72
8
 73
4
 74
0
 40
0
 40
0
 40
0
 40
0
 40
1
 40
1
 40
1
 40
1
 10
27904432.178905
 20
34190600.292610
 30
0.0
 10
27904432.043473
 20
34155514.237550
 30
0.0
 10
27918369.828374
 20
34121865.169353
 30
0.0
 10
27943179.366214
 20
34097055.532275
 30
0.0
  0
SPLINE
  5
182
100
AcDbEntity
  8
cutting
 62
5
100
AcDbSpline
 70
8
 71
3
 72
8
 73
4
 74
0
 40
0
 40
0
 40
0
 40
0
 40
1
 40
1
 40
1
 40
1
 10
27943179.366214
 20
34097055.532275
 30
0.0
 10
27967988.904053
 20
34072245.895197
 30
0.0
 10
28001637.916499
 20
34058307.975700
 30
0.0
 10
28036723.971560
 20
34058307.970788
 30
0.0
  0
SPLINE
  5
183
100
AcDbEntity
  8
cutting
 62
5
100
AcDbSpline
 70
8
 71
3
 72
8
 73
4
 74
0
 40
0
 40
0
 40
0
 40
0
 40
1
 40
1
 40
1
 40
1
 10
31608602.373232
 20
37630187.166211
 30
0.0
 10
31608602.216881
 20
37703249.798256
 30
0.0
 10
31549373.212627
 20
37762478.684054
 30
0.0
 10
31476310.580578
 20
37762478.694282
 30
0.0
  0
SPLINE
  5
184
100
AcDbEntity
  8
cutting
 62
5
100
AcDbSpline
 70
8
 71
3
 72
8
 73
4
 74
0
 40
0
 40
0
 40
0
 40
0
 40
1
 40
1
 40
1
 40
1
 10
28036723.971560
 20
37762478.694282
 30
0.0
 10
27963661.339510
 20
37762478.684054
 30
0.0
 10
27904432.335257
 20
37703249.798256
 30
0.0
 10
27904432.178905
 20
37630187.166207
 30
0.0
  0
LWPOLYLINE
  5
185
100
AcDbEntity
  8
cutting
 62
5
100
AcDbPolyline
 90
2
 70
0
 10
54967681.702545
 20
49375620.579038
 30
0.0
 10
55102537.310141
 20
49359952.468284
 30
0.0
  0
LWPOLYLINE
  5
186
100
AcDbEntity
  8
cutting
 62
5
100
AcDbPolyline
 90
2
 70
0
 10
31608602.373232
 20
37630379.518478
 30
0.0
 10
31608602.373232
 20
34190362.961134
 30
0.0
  0
LWPOLYLINE
  5
187
100
AcDbEntity
  8
cutting
 62
5
100
AcDbPolyline
 90
2
 70
0
 10
27904432.178905
 20
37630379.518478
 30
0.0
 10
27904432.178905
 20
34190362.961134
 30
0.0
  0
LWPOLYLINE
  5
188
100
AcDbEntity
  8
cutting
 62
5
100
AcDbPolyline
 90
2
 70
0
 10
28036726.617396
 20
34058054.764297
 30
0.0
 10
31476307.934742
 20
34058054.764297
 30
0.0
  0
SPLINE
  5
189
100
AcDbEntity
  8
cutting
 62
5
100
AcDbSpline
 70
8
 71
3
 72
8
 73
4
 74
0
 40
0
 40
0
 40
0
 40
0
 40
1
 40
1
 40
1
 40
1
 10
36516627.880715
 20
34058307.970788
 30
0.0
 10
36551713.935776
 20
34058307.975700
 30
0.0
 10
36585362.948222
 20
34072245.895197
 30
0.0
 10
36610172.486061
 20
34097055.532275
 30
0.0
  0
SPLINE
  5
18a
100
AcDbEntity
  8
cutting
 62
5
100
AcDbSpline
 70
8
 71
3
 72
8
 73
4
 74
0
 40
0
 40
0
 40
0
 40
0
 40
1
 40
1
 40
1
 40
1
 10
36610172.486061
 20
34097055.532275
 30
0.0
 10
36634982.023901
 20
34121865.169353
 30
0.0
 10
36648919.808802
 20
34155514.237550
 30
0.0
 10
36648919.673370
 20
34190600.292611
 30
0.0
  0
SPLINE
  5
18b
100
AcDbEntity
  8
cutting
 62
5
100
AcDbSpline
 70
8
 71
3
 72
8
 73
4
 74
0
 40
0
 40
0
 40
0
 40
0
 40
1
 40
1
 40
1
 40
1
 10
32944749.479043
 20
34190600.292610
 30
0.0
 10
32944749.343611
 20
34155514.237550
 30
0.0
 10
32958687.128512
 20
34121865.169353
 30
0.0
 10
32983496.666351
 20
34097055.532275
 30
0.0
  0
SPLINE
  5
18c
100
AcDbEntity
  8
cutting
 62
5
100
AcDbSpline
 70
8
 71
3
 72
8
 73
4
 74
0
 40
0
 40
0
 40
0
 40
0
 40
1
 40
1
 40
1
 40
1
 10
32983496.666351
 20
34097055.532275
 30
0.0
 10
33008306.204191
 20
34072245.895197
 30
0.0
 10
33041955.216636
 20
34058307.975700
 30
0.0
 10
33077041.271697
 20
34058307.970788
 30
0.0
  0
SPLINE
  5
18d
100
AcDbEntity
  8
cutting
 62
5
100
AcDbSpline
 70
8
 71
3
 72
8
 73
4
 74
0
 40
0
 40
0
 40
0
 40
0
 40
1
 40
1
 40
1
 40
1
 10
36648919.673370
 20
37630187.166211
 30
0.0
 10
36648919.517018
 20
37703249.798256
 30
0.0
 10
36589690.512765
 20
37762478.684054
 30
0.0
 10
36516627.880715
 20
37762478.694282
 30
0.0
  0
SPLINE
  5
18e
100
AcDbEntity
  8
cutting
 62
5
100
AcDbSpline
 70
8
 71
3
 72
8
 73
4
 74
0
 40
0
 40
0
 40
0
 40
0
 40
1
 40
1
 40
1
 40
1
 10
33077041.271697
 20
37762478.694282
 30
0.0
 10
33003978.639648
 20
37762478.684054
 30
0.0
 10
32944749.635394
 20
37703249.798256
 30
0.0
 10
32944749.479043
 20
37630187.166207
 30
0.0
  0
LWPOLYLINE
  5
18f
100
AcDbEntity
  8
cutting
 62
5
100
AcDbPolyline
 90
2
 70
0
 10
28036726.617396
 20
37762687.979898
 30
0.0
 10
31476307.934742
 20
37762687.979898
 30
0.0
  0
LWPOLYLINE
  5
190
100
AcDbEntity
  8
cutting
 62
5
100
AcDbPolyline
 90
2
 70
0
 10
36648940.840057
 20
37630379.518478
 30
0.0
 10
36648940.840057
 20
34190362.961134
 30
0.0
  0
LWPOLYLINE
  5
191
100
AcDbEntity
  8
cutting
 62
5
100
AcDbPolyline
 90
2
 70
0
 10
32944749.479043
 20
37630379.518478
 30
0.0
 10
32944749.479043
 20
34190362.961134
 30
0.0
  0
LWPOLYLINE
  5
192
100
AcDbEntity
  8
cutting
 62
5
100
AcDbPolyline
 90
2
 70
0
 10
33077043.917533
 20
34058054.764297
 30
0.0
 10
36516633.172387
 20
34058054.764297
 30
0.0
  0
SPLINE
  5
193
100
AcDbEntity
  8
cutting
 62
5
100
AcDbSpline
 70
8
 71
3
 72
8
 73
4
 74
0
 40
0
 40
0
 40
0
 40
0
 40
1
 40
1
 40
1
 40
1
 10
41556945.180853
 20
34058307.970788
 30
0.0
 10
41592031.235914
 20
34058307.975700
 30
0.0
 10
41625680.248360
 20
34072245.895197
 30
0.0
 10
41650489.786199
 20
34097055.532275
 30
0.0
  0
SPLINE
  5
194
100
AcDbEntity
  8
cutting
 62
5
100
AcDbSpline
 70
8
 71
3
 72
8
 73
4
 74
0
 40
0
 40
0
 40
0
 40
0
 40
1
 40
1
 40
1
 40
1
 10
41650489.786199
 20
34097055.532275
 30
0.0
 10
41675299.324039
 20
34121865.169353
 30
0.0
 10
41689237.108940
 20
34155514.237550
 30
0.0
 10
41689236.973507
 20
34190600.292611
 30
0.0
  0
SPLINE
  5
195
100
AcDbEntity
  8
cutting
 62
5
100
AcDbSpline
 70
8
 71
3
 72
8
 73
4
 74
0
 40
0
 40
0
 40
0
 40
0
 40
1
 40
1
 40
1
 40
1
 10
37985066.779180
 20
34190600.292610
 30
0.0
 10
37985066.643748
 20
34155514.237550
 30
0.0
 10
37999004.428649
 20
34121865.169353
 30
0.0
 10
38023813.966489
 20
34097055.532275
 30
0.0
  0
SPLINE
  5
196
100
AcDbEntity
  8
cutting
 62
5
100
AcDbSpline
 70
8
 71
3
 72
8
 73
4
 74
0
 40
0
 40
0
 40
0
 40
0
 40
1
 40
1
 40
1
 40
1
 10
38023813.966489
 20
34097055.532275
 30
0.0
 10
38048623.504328
 20
34072245.895197
 30
0.0
 10
38082272.516774
 20
34058307.975700
 30
0.0
 10
38117358.571835
 20
34058307.970788
 30
0.0
  0
SPLINE
  5
197
100
AcDbEntity
  8
cutting
 62
5
100
AcDbSpline
 70
8
 71
3
 72
8
 73
4
 74
0
 40
0
 40
0
 40
0
 40
0
 40
1
 40
1
 40
1
 40
1
 10
41689236.973507
 20
37630187.166211
 30
0.0
 10
41689236.817156
 20
37703249.798256
 30
0.0
 10
41630007.812902
 20
37762478.684054
 30
0.0
 10
41556945.180853
 20
37762478.694282
 30
0.0
  0
SPLINE
  5
198
100
AcDbEntity
  8
cutting
 62
5
100
AcDbSpline
 70
8
 71
3
 72
8
 73
4
 74
0
 40
0
 40
0
 40
0
 40
0
 40
1
 40
1
 40
1
 40
1
 10
38117358.571835
 20
37762478.694282
 30
0.0
 10
38044295.939785
 20
37762478.684054
 30
0.0
 10
37985066.935532
 20
37703249.798256
 30
0.0
 10
37985066.779180
 20
37630187.166207
 30
0.0
  0
LWPOLYLINE
  5
199
100
AcDbEntity
  8
cutting
 62
5
100
AcDbPolyline
 90
2
 70
0
 10
33077043.917533
 20
37762687.979898
 30
0.0
 10
36516633.172387
 20
37762687.979898
 30
0.0
  0
LWPOLYLINE
  5
19a
100
AcDbEntity
  8
cutting
 62
5
100
AcDbPolyline
 90
2
 70
0
 10
41689258.140194
 20
37630379.518478
 30
0.0
 10
41689258.140194
 20
34190362.961134
 30
0.0
  0
LWPOLYLINE
  5
19b
100
AcDbEntity
  8
cutting
 62
5
100
AcDbPolyline
 90
2
 70
0
 10
37985045.612494
 20
37630379.518478
 30
0.0
 10
37985045.612494
 20
34190362.961134
 30
0.0
  0
LWPOLYLINE
  5
19c
100
AcDbEntity
  8
cutting
 62
5
100
AcDbPolyline
 90
2
 70
0
 10
38117353.280163
 20
34058054.764297
 30
0.0
 10
41556950.472524
 20
34058054.764297
 30
0.0
  0
SPLINE
  5
19d
100
AcDbEntity
  8
cutting
 62
5
100
AcDbSpline
 70
8
 71
3
 72
8
 73
4
 74
0
 40
0
 40
0
 40
0
 40
0
 40
1
 40
1
 40
1
 40
1
 10
46597262.480990
 20
34058307.970788
 30
0.0
 10
46632348.536051
 20
34058307.975700
 30
0.0
 10
46665997.548497
 20
34072245.895197
 30
0.0
 10
46690807.086337
 20
34097055.532275
 30
0.0
  0
SPLINE
  5
19e
100
AcDbEntity
  8
cutting
 62
5
100
AcDbSpline
 70
8
 71
3
 72
8
 73
4
 74
0
 40
0
 40
0
 40
0
 40
0
 40
1
 40
1
 40
1
 40
1
 10
46690807.086337
 20
34097055.532275
 30
0.0
 10
46715616.624176
 20
34121865.169353
 30
0.0
 10
46729554.409077
 20
34155514.237550
 30
0.0
 10
46729554.273645
 20
34190600.292611
 30
0.0
  0
SPLINE
  5
19f
100
AcDbEntity
  8
cutting
 62
5
100
AcDbSpline
 70
8
 71
3
 72
8
 73
4
 74
0
 40
0
 40
0
 40
0
 40
0
 40
1
 40
1
 40
1
 40
1
 10
43025384.079318
 20
34190600.292610
 30
0.0
 10
43025383.943886
 20
34155514.237550
 30
0.0
 10
43039321.728787
 20
34121865.169353
 30
0.0
 10
43064131.266626
 20
34097055.532275
 30
0.0
  0
SPLINE
  5
1a0
100
AcDbEntity
  8
cutting
 62
5
100
AcDbSpline
 70
8
 71
3
 72
8
 73
4
 74
0
 40
0
 40
0
 40
0
 40
0
 40
1
 40
1
 40
1
 40
1
 10
43064131.266626
 20
34097055.532275
 30
0.0
 10
43088940.804466
 20
34072245.895197
 30
0.0
 10
43122589.816912
 20
34058307.975700
 30
0.0
 10
43157675.871973
 20
34058307.970788
 30
0.0
  0
SPLINE
  5
1a1
100
AcDbEntity
  8
cutting
 62
5
100
AcDbSpline
 70
8
 71
3
 72
8
 73
4
 74
0
 40
0
 40
0
 40
0
 40
0
 40
1
 40
1
 40
1
 40
1
 10
46729554.273645
 20
37630187.166211
 30
0.0
 10
46729554.117293
 20
37703249.798256
 30
0.0
 10
46670325.113040
 20
37762478.684054
 30
0.0
 10
46597262.480990
 20
37762478.694282
 30
0.0
  0
SPLINE
  5
1a2
100
AcDbEntity
  8
cutting
 62
5
100
AcDbSpline
 70
8
 71
3
 72
8
 73
4
 74
0
 40
0
 40
0
 40
0
 40
0
 40
1
 40
1
 40
1
 40
1
 10
43157675.871973
 20
37762478.694282
 30
0.0
 10
43084613.239923
 20
37762478.684054
 30
0.0
 10
43025384.235670
 20
37703249.798256
 30
0.0
 10
43025384.079318
 20
37630187.166207
 30
0.0
  0
LWPOLYLINE
  5
1a3
100
AcDbEntity
  8
cutting
 62
5
100
AcDbPolyline
 90
2
 70
0
 10
38117353.280163
 20
37762687.979898
 30
0.0
 10
41556950.472524
 20
37762687.979898
 30
0.0
  0
LWPOLYLINE
  5
1a4
100
AcDbEntity
  8
cutting
 62
5
100
AcDbPolyline
 90
2
 70
0
 10
46729575.440332
 20
37630379.518478
 30
0.0
 10
46729575.440332
 20
34190362.961134
 30
0.0
  0
LWPOLYLINE
  5
1a5
100
AcDbEntity
  8
cutting
 62
5
100
AcDbPolyline
 90
2
 70
0
 10
43025362.912631
 20
37630379.518478
 30
0.0
 10
43025362.912631
 20
34190362.961134
 30
0.0
  0
LWPOLYLINE
  5
1a6
100
AcDbEntity
  8
cutting
 62
5
100
AcDbPolyline
 90
2
 70
0
 10
43157670.580301
 20
34058054.764297
 30
0.0
 10
46597267.772662
 20
34058054.764297
 30
0.0
  0
SPLINE
  5
1a7
100
AcDbEntity
  8
cutting
 62
5
100
AcDbSpline
 70
8
 71
3
 72
8
 73
4
 74
0
 40
0
 40
0
 40
0
 40
0
 40
1
 40
1
 40
1
 40
1
 10
51637579.781128
 20
34058307.970788
 30
0.0
 10
51672665.836189
 20
34058307.975700
 30
0.0
 10
51706314.848635
 20
34072245.895197
 30
0.0
 10
51731124.386474
 20
34097055.532275
 30
0.0
  0
SPLINE
  5
1a8
100
AcDbEntity
  8
cutting
 62
5
100
AcDbSpline
 70
8
 71
3
 72
8
 73
4
 74
0
 40
0
 40
0
 40
0
 40
0
 40
1
 40
1
 40
1
 40
1
 10
51731124.386474
 20
34097055.532275
 30
0.0
 10
51755933.924314
 20
34121865.169353
 30
0.0
 10
51769871.709215
 20
34155514.237550
 30
0.0
 10
51769871.573783
 20
34190600.292611
 30
0.0
  0
SPLINE
  5
1a9
100
AcDbEntity
  8
cutting
 62
5
100
AcDbSpline
 70
8
 71
3
 72
8
 73
4
 74
0
 40
0
 40
0
 40
0
 40
0
 40
1
 40
1
 40
1
 40
1
 10
48065701.379456
 20
34190600.292610
 30
0.0
 10
48065701.244023
 20
34155514.237550
 30
0.0
 10
48079639.028924
 20
34121865.169353
 30
0.0
 10
48104448.566764
 20
34097055.532275
 30
0.0
  0
SPLINE
  5
1aa
100
AcDbEntity
  8
cutting
 62
5
100
AcDbSpline
 70
8
 71
3
 72
8
 73
4
 74
0
 40
0
 40
0
 40
0
 40
0
 40
1
 40
1
 40
1
 40
1
 10
48104448.566764
 20
34097055.532275
 30
0.0
 10
48129258.104603
 20
34072245.895197
 30
0.0
 10
48162907.117049
 20
34058307.975700
 30
0.0
 10
48197993.172110
 20
34058307.970788
 30
0.0
  0
SPLINE
  5
1ab
100
AcDbEntity
  8
cutting
 62
5
100
AcDbSpline
 70
8
 71
3
 72
8
 73
4
 74
0
 40
0
 40
0
 40
0
 40
0
 40
1
 40
1
 40
1
 40
1
 10
51769871.573783
 20
37630187.166211
 30
0.0
 10
51769871.417431
 20
37703249.798256
 30
0.0
 10
51710642.413178
 20
37762478.684054
 30
0.0
 10
51637579.781128
 20
37762478.694282
 30
0.0
  0
SPLINE
  5
1ac
100
AcDbEntity
  8
cutting
 62
5
100
AcDbSpline
 70
8
 71
3
 72
8
 73
4
 74
0
 40
0
 40
0
 40
0
 40
0
 40
1
 40
1
 40
1
 40
1
 10
48197993.172110
 20
37762478.694282
 30
0.0
 10
48124930.540061
 20
37762478.684054
 30
0.0
 10
48065701.535807
 20
37703249.798256
 30
0.0
 10
48065701.379456
 20
37630187.166207
 30
0.0
  0
LWPOLYLINE
  5
1ad
100
AcDbEntity
  8
cutting
 62
5
100
AcDbPolyline
 90
2
 70
0
 10
43157670.580301
 20
37762687.979898
 30
0.0
 10
46597267.772662
 20
37762687.979898
 30
0.0
  0
LWPOLYLINE
  5
1ae
100
AcDbEntity
  8
cutting
 62
5
100
AcDbPolyline
 90
2
 70
0
 10
51769892.740469
 20
37630379.518478
 30
0.0
 10
51769892.740469
 20
34190362.961134
 30
0.0
  0
LWPOLYLINE
  5
1af
100
AcDbEntity
  8
cutting
 62
5
100
AcDbPolyline
 90
2
 70
0
 10
48065680.212769
 20
37630379.518478
 30
0.0
 10
48065680.212769
 20
34190362.961134
 30
0.0
  0
LWPOLYLINE
  5
1b0
100
AcDbEntity
  8
cutting
 62
5
100
AcDbPolyline
 90
2
 70
0
 10
48197987.880439
 20
34058054.764297
 30
0.0
 10
51637585.072800
 20
34058054.764297
 30
0.0
  0
SPLINE
  5
1b1
100
AcDbEntity
  8
cutting
 62
5
100
AcDbSpline
 70
8
 71
3
 72
8
 73
4
 74
0
 40
0
 40
0
 40
0
 40
0
 40
1
 40
1
 40
1
 40
1
 10
31476310.580578
 20
29017990.406067
 30
0.0
 10
31511396.681481
 20
29017990.410979
 30
0.0
 10
31545045.734024
 20
29031928.366796
 30
0.0
 10
31569855.279469
 20
29056738.061098
 30
0.0
  0
SPLINE
  5
1b2
100
AcDbEntity
  8
cutting
 62
5
100
AcDbSpline
 70
8
 71
3
 72
8
 73
4
 74
0
 40
0
 40
0
 40
0
 40
0
 40
1
 40
1
 40
1
 40
1
 10
31569855.279469
 20
29056738.061098
 30
0.0
 10
31594664.824914
 20
29081547.755401
 30
0.0
 10
31608602.578837
 20
29115196.891571
 30
0.0
 10
31608602.373232
 20
29150282.992473
 30
0.0
  0
SPLINE
  5
1b3
100
AcDbEntity
  8
cutting
 62
5
100
AcDbSpline
 70
8
 71
3
 72
8
 73
4
 74
0
 40
0
 40
0
 40
0
 40
0
 40
1
 40
1
 40
1
 40
1
 10
27904432.178905
 20
29150282.992472
 30
0.0
 10
27904431.973301
 20
29115196.891571
 30
0.0
 10
27918369.727223
 20
29081547.755401
 30
0.0
 10
27943179.272669
 20
29056738.061098
 30
0.0
  0
SPLINE
  5
1b4
100
AcDbEntity
  8
cutting
 62
5
100
AcDbSpline
 70
8
 71
3
 72
8
 73
4
 74
0
 40
0
 40
0
 40
0
 40
0
 40
1
 40
1
 40
1
 40
1
 10
27943179.272669
 20
29056738.061098
 30
0.0
 10
27967988.818114
 20
29031928.366796
 30
0.0
 10
28001637.870657
 20
29017990.410979
 30
0.0
 10
28036723.971560
 20
29017990.406067
 30
0.0
  0
SPLINE
  5
1b5
100
AcDbEntity
  8
cutting
 62
5
100
AcDbSpline
 70
8
 71
3
 72
8
 73
4
 74
0
 40
0
 40
0
 40
0
 40
0
 40
1
 40
1
 40
1
 40
1
 10
31608602.373232
 20
32589869.601490
 30
0.0
 10
31608602.216881
 20
32662932.233535
 30
0.0
 10
31549373.212627
 20
32722161.119333
 30
0.0
 10
31476310.580578
 20
32722161.129561
 30
0.0
  0
SPLINE
  5
1b6
100
AcDbEntity
  8
cutting
 62
5
100
AcDbSpline
 70
8
 71
3
 72
8
 73
4
 74
0
 40
0
 40
0
 40
0
 40
0
 40
1
 40
1
 40
1
 40
1
 10
28036723.971560
 20
32722161.129561
 30
0.0
 10
27963661.339510
 20
32722161.119333
 30
0.0
 10
27904432.335257
 20
32662932.233535
 30
0.0
 10
27904432.178905
 20
32589869.601486
 30
0.0
  0
LWPOLYLINE
  5
1b7
100
AcDbEntity
  8
cutting
 62
5
100
AcDbPolyline
 90
2
 70
0
 10
48197987.880439
 20
37762687.979898
 30
0.0
 10
51637585.072800
 20
37762687.979898
 30
0.0
  0
LWPOLYLINE
  5
1b8
100
AcDbEntity
  8
cutting
 62
5
100
AcDbPolyline
 90
2
 70
0
 10
31608602.373232
 20
32590062.218340
 30
0.0
 10
31608602.373232
 20
29150045.660996
 30
0.0
  0
LWPOLYLINE
  5
1b9
100
AcDbEntity
  8
cutting
 62
5
100
AcDbPolyline
 90
2
 70
0
 10
27904432.178905
 20
32590062.218340
 30
0.0
 10
27904432.178905
 20
29150045.660996
 30
0.0
  0
LWPOLYLINE
  5
1ba
100
AcDbEntity
  8
cutting
 62
5
100
AcDbPolyline
 90
2
 70
0
 10
28036726.617396
 20
29017736.405825
 30
0.0
 10
31476307.934742
 20
29017736.405825
 30
0.0
  0
SPLINE
  5
1bb
100
AcDbEntity
  8
cutting
 62
5
100
AcDbSpline
 70
8
 71
3
 72
8
 73
4
 74
0
 40
0
 40
0
 40
0
 40
0
 40
1
 40
1
 40
1
 40
1
 10
36516627.880715
 20
29017990.406067
 30
0.0
 10
36551713.981618
 20
29017990.410979
 30
0.0
 10
36585363.034161
 20
29031928.366796
 30
0.0
 10
36610172.579606
 20
29056738.061098
 30
0.0
  0
SPLINE
  5
1bc
100
AcDbEntity
  8
cutting
 62
5
100
AcDbSpline
 70
8
 71
3
 72
8
 73
4
 74
0
 40
0
 40
0
 40
0
 40
0
 40
1
 40
1
 40
1
 40
1
 10
36610172.579606
 20
29056738.061098
 30
0.0
 10
36634982.125052
 20
29081547.755401
 30
0.0
 10
36648919.878974
 20
29115196.891571
 30
0.0
 10
36648919.673370
 20
29150282.992473
 30
0.0
  0
SPLINE
  5
1bd
100
AcDbEntity
  8
cutting
 62
5
100
AcDbSpline
 70
8
 71
3
 72
8
 73
4
 74
0
 40
0
 40
0
 40
0
 40
0
 40
1
 40
1
 40
1
 40
1
 10
32944749.479043
 20
29150282.992472
 30
0.0
 10
32944749.273438
 20
29115196.891571
 30
0.0
 10
32958687.027361
 20
29081547.755401
 30
0.0
 10
32983496.572806
 20
29056738.061098
 30
0.0
  0
SPLINE
  5
1be
100
AcDbEntity
  8
cutting
 62
5
100
AcDbSpline
 70
8
 71
3
 72
8
 73
4
 74
0
 40
0
 40
0
 40
0
 40
0
 40
1
 40
1
 40
1
 40
1
 10
32983496.572806
 20
29056738.061098
 30
0.0
 10
33008306.118251
 20
29031928.366796
 30
0.0
 10
33041955.170794
 20
29017990.410979
 30
0.0
 10
33077041.271697
 20
29017990.406067
 30
0.0
  0
SPLINE
  5
1bf
100
AcDbEntity
  8
cutting
 62
5
100
AcDbSpline
 70
8
 71
3
 72
8
 73
4
 74
0
 40
0
 40
0
 40
0
 40
0
 40
1
 40
1
 40
1
 40
1
 10
36648919.673370
 20
32589869.601490
 30
0.0
 10
36648919.517018
 20
32662932.233535
 30
0.0
 10
36589690.512765
 20
32722161.119333
 30
0.0
 10
36516627.880715
 20
32722161.129561
 30
0.0
  0
SPLINE
  5
1c0
100
AcDbEntity
  8
cutting
 62
5
100
AcDbSpline
 70
8
 71
3
 72
8
 73
4
 74
0
 40
0
 40
0
 40
0
 40
0
 40
1
 40
1
 40
1
 40
1
 10
33077041.271697
 20
32722161.129561
 30
0.0
 10
33003978.639648
 20
32722161.119333
 30
0.0
 10
32944749.635394
 20
32662932.233535
 30
0.0
 10
32944749.479043
 20
32589869.601486
 30
0.0
  0
LWPOLYLINE
  5
1c1
100
AcDbEntity
  8
cutting
 62
5
100
AcDbPolyline
 90
2
 70
0
 10
28036726.617396
 20
32722370.415177
 30
0.0
 10
31476307.934742
 20
32722370.415177
 30
0.0
  0
LWPOLYLINE
  5
1c2
100
AcDbEntity
  8
cutting
 62
5
100
AcDbPolyline
 90
2
 70
0
 10
36648940.840057
 20
32590062.218340
 30
0.0
 10
36648940.840057
 20
29150045.660996
 30
0.0
  0
LWPOLYLINE
  5
1c3
100
AcDbEntity
  8
cutting
 62
5
100
AcDbPolyline
 90
2
 70
0
 10
32944749.479043
 20
32590062.218340
 30
0.0
 10
32944749.479043
 20
29150045.660996
 30
0.0
  0
LWPOLYLINE
  5
1c4
100
AcDbEntity
  8
cutting
 62
5
100
AcDbPolyline
 90
2
 70
0
 10
33077043.917533
 20
29017736.405825
 30
0.0
 10
36516633.172387
 20
29017736.405825
 30
0.0
  0
SPLINE
  5
1c5
100
AcDbEntity
  8
cutting
 62
5
100
AcDbSpline
 70
8
 71
3
 72
8
 73
4
 74
0
 40
0
 40
0
 40
0
 40
0
 40
1
 40
1
 40
1
 40
1
 10
41556945.180853
 20
29017990.406067
 30
0.0
 10
41592031.281756
 20
29017990.410979
 30
0.0
 10
41625680.334299
 20
29031928.366796
 30
0.0
 10
41650489.879744
 20
29056738.061098
 30
0.0
  0
SPLINE
  5
1c6
100
AcDbEntity
  8
cutting
 62
5
100
AcDbSpline
 70
8
 71
3
 72
8
 73
4
 74
0
 40
0
 40
0
 40
0
 40
0
 40
1
 40
1
 40
1
 40
1
 10
41650489.879744
 20
29056738.061098
 30
0.0
 10
41675299.425189
 20
29081547.755401
 30
0.0
 10
41689237.179112
 20
29115196.891571
 30
0.0
 10
41689236.973507
 20
29150282.992473
 30
0.0
  0
SPLINE
  5
1c7
100
AcDbEntity
  8
cutting
 62
5
100
AcDbSpline
 70
8
 71
3
 72
8
 73
4
 74
0
 40
0
 40
0
 40
0
 40
0
 40
1
 40
1
 40
1
 40
1
 10
37985066.779180
 20
29150282.992472
 30
0.0
 10
37985066.573576
 20
29115196.891571
 30
0.0
 10
37999004.327499
 20
29081547.755401
 30
0.0
 10
38023813.872944
 20
29056738.061098
 30
0.0
  0
SPLINE
  5
1c8
100
AcDbEntity
  8
cutting
 62
5
100
AcDbSpline
 70
8
 71
3
 72
8
 73
4
 74
0
 40
0
 40
0
 40
0
 40
0
 40
1
 40
1
 40
1
 40
1
 10
38023813.872944
 20
29056738.061098
 30
0.0
 10
38048623.418389
 20
29031928.366796
 30
0.0
 10
38082272.470932
 20
29017990.410979
 30
0.0
 10
38117358.571835
 20
29017990.406067
 30
0.0
  0
SPLINE
  5
1c9
100
AcDbEntity
  8
cutting
 62
5
100
AcDbSpline
 70
8
 71
3
 72
8
 73
4
 74
0
 40
0
 40
0
 40
0
 40
0
 40
1
 40
1
 40
1
 40
1
 10
41689236.973507
 20
32589869.601490
 30
0.0
 10
41689236.817156
 20
32662932.233535
 30
0.0
 10
41630007.812902
 20
32722161.119333
 30
0.0
 10
41556945.180853
 20
32722161.129561
 30
0.0
  0
SPLINE
  5
1ca
100
AcDbEntity
  8
cutting
 62
5
100
AcDbSpline
 70
8
 71
3
 72
8
 73
4
 74
0
 40
0
 40
0
 40
0
 40
0
 40
1
 40
1
 40
1
 40
1
 10
38117358.571835
 20
32722161.129561
 30
0.0
 10
38044295.939785
 20
32722161.119333
 30
0.0
 10
37985066.935532
 20
32662932.233535
 30
0.0
 10
37985066.779180
 20
32589869.601486
 30
0.0
  0
LWPOLYLINE
  5
1cb
100
AcDbEntity
  8
cutting
 62
5
100
AcDbPolyline
 90
2
 70
0
 10
33077043.917533
 20
32722370.415177
 30
0.0
 10
36516633.172387
 20
32722370.415177
 30
0.0
  0
LWPOLYLINE
  5
1cc
100
AcDbEntity
  8
cutting
 62
5
100
AcDbPolyline
 90
2
 70
0
 10
41689258.140194
 20
32590062.218340
 30
0.0
 10
41689258.140194
 20
29150045.660996
 30
0.0
  0
LWPOLYLINE
  5
1cd
100
AcDbEntity
  8
cutting
 62
5
100
AcDbPolyline
 90
2
 70
0
 10
37985045.612494
 20
32590062.218340
 30
0.0
 10
37985045.612494
 20
29150045.660996
 30
0.0
  0
LWPOLYLINE
  5
1ce
100
AcDbEntity
  8
cutting
 62
5
100
AcDbPolyline
 90
2
 70
0
 10
38117353.280163
 20
29017736.405825
 30
0.0
 10
41556950.472524
 20
29017736.405825
 30
0.0
  0
SPLINE
  5
1cf
100
AcDbEntity
  8
cutting
 62
5
100
AcDbSpline
 70
8
 71
3
 72
8
 73
4
 74
0
 40
0
 40
0
 40
0
 40
0
 40
1
 40
1
 40
1
 40
1
 10
43025384.079318
 20
26630123.548653
 30
0.0
 10
43025384.089531
 20
26557060.813296
 30
0.0
 10
43084613.136588
 20
26497831.766227
 30
0.0
 10
43157675.871973
 20
26497831.755998
 30
0.0
  0
SPLINE
  5
1d0
100
AcDbEntity
  8
cutting
 62
5
100
AcDbSpline
 70
8
 71
3
 72
8
 73
4
 74
0
 40
0
 40
0
 40
0
 40
0
 40
1
 40
1
 40
1
 40
1
 10
43157675.871973
 20
30202002.479492
 30
0.0
 10
43084613.239923
 20
30202002.469264
 30
0.0
 10
43025384.235670
 20
30142773.583466
 30
0.0
 10
43025384.079318
 20
30069710.951417
 30
0.0
  0
SPLINE
  5
1d1
100
AcDbEntity
  8
cutting
 62
5
100
AcDbSpline
 70
8
 71
3
 72
8
 73
4
 74
0
 40
0
 40
0
 40
0
 40
0
 40
1
 40
1
 40
1
 40
1
 10
46597262.480990
 20
26497831.755998
 30
0.0
 10
46670325.216375
 20
26497831.766227
 30
0.0
 10
46729554.263432
 20
26557060.813296
 30
0.0
 10
46729554.273645
 20
26630123.548681
 30
0.0
  0
SPLINE
  5
1d2
100
AcDbEntity
  8
cutting
 62
5
100
AcDbSpline
 70
8
 71
3
 72
8
 73
4
 74
0
 40
0
 40
0
 40
0
 40
0
 40
1
 40
1
 40
1
 40
1
 10
46729554.273645
 20
30069710.951421
 30
0.0
 10
46729554.117293
 20
30142773.583466
 30
0.0
 10
46670325.113040
 20
30202002.469264
 30
0.0
 10
46597262.480990
 20
30202002.479492
 30
0.0
  0
LWPOLYLINE
  5
1d3
100
AcDbEntity
  8
cutting
 62
5
100
AcDbPolyline
 90
2
 70
0
 10
38117353.280163
 20
32722370.415177
 30
0.0
 10
41556950.472524
 20
32722370.415177
 30
0.0
  0
LWPOLYLINE
  5
1d4
100
AcDbEntity
  8
cutting
 62
5
100
AcDbPolyline
 90
2
 70
0
 10
46597267.772662
 20
26497577.755756
 30
0.0
 10
43157670.580301
 20
26497577.755756
 30
0.0
  0
LWPOLYLINE
  5
1d5
100
AcDbEntity
  8
cutting
 62
5
100
AcDbPolyline
 90
2
 70
0
 10
46597267.772662
 20
30202211.765108
 30
0.0
 10
43157670.580301
 20
30202211.765108
 30
0.0
  0
LWPOLYLINE
  5
1d6
100
AcDbEntity
  8
cutting
 62
5
100
AcDbPolyline
 90
2
 70
0
 10
43025362.912631
 20
30069903.568272
 30
0.0
 10
43025362.912631
 20
26629888.069262
 30
0.0
  0
SPLINE
  5
1d7
100
AcDbEntity
  8
cutting
 62
5
100
AcDbSpline
 70
8
 71
3
 72
8
 73
4
 74
0
 40
0
 40
0
 40
0
 40
0
 40
1
 40
1
 40
1
 40
1
 10
42496216.908700
 20
30714765.203238
 30
0.0
 10
42496217.065051
 20
30641702.571193
 30
0.0
 10
42555446.069305
 20
30582473.685395
 30
0.0
 10
42628508.701354
 20
30582473.675167
 30
0.0
  0
SPLINE
  5
1d8
100
AcDbEntity
  8
cutting
 62
5
100
AcDbSpline
 70
8
 71
3
 72
8
 73
4
 74
0
 40
0
 40
0
 40
0
 40
0
 40
1
 40
1
 40
1
 40
1
 10
42628508.701354
 20
32434558.507747
 30
0.0
 10
42555446.069305
 20
32434558.497518
 30
0.0
 10
42496217.065051
 20
32375329.611721
 30
0.0
 10
42496216.908700
 20
32302266.979671
 30
0.0
  0
SPLINE
  5
1d9
100
AcDbEntity
  8
cutting
 62
5
100
AcDbSpline
 70
8
 71
3
 72
8
 73
4
 74
0
 40
0
 40
0
 40
0
 40
0
 40
1
 40
1
 40
1
 40
1
 10
46332678.895681
 20
30582473.675167
 30
0.0
 10
46405741.527731
 20
30582473.685395
 30
0.0
 10
46464970.531984
 20
30641702.571193
 30
0.0
 10
46464970.688336
 20
30714765.203242
 30
0.0
  0
SPLINE
  5
1da
100
AcDbEntity
  8
cutting
 62
5
100
AcDbSpline
 70
8
 71
3
 72
8
 73
4
 74
0
 40
0
 40
0
 40
0
 40
0
 40
1
 40
1
 40
1
 40
1
 10
46464970.688336
 20
32302266.979676
 30
0.0
 10
46464970.531984
 20
32375329.611721
 30
0.0
 10
46405741.527731
 20
32434558.497518
 30
0.0
 10
46332678.895681
 20
32434558.507747
 30
0.0
  0
LWPOLYLINE
  5
1db
100
AcDbEntity
  8
cutting
 62
5
100
AcDbPolyline
 90
2
 70
0
 10
46729575.440332
 20
30069903.568272
 30
0.0
 10
46729575.440332
 20
26629888.069262
 30
0.0
  0
LWPOLYLINE
  5
1dc
100
AcDbEntity
  8
cutting
 62
5
100
AcDbPolyline
 90
2
 70
0
 10
46332652.437323
 20
30582335.827119
 30
0.0
 10
42628508.701354
 20
30582335.827119
 30
0.0
  0
LWPOLYLINE
  5
1dd
100
AcDbEntity
  8
cutting
 62
5
100
AcDbPolyline
 90
2
 70
0
 10
46332652.437323
 20
32434652.434919
 30
0.0
 10
42628508.701354
 20
32434652.434919
 30
0.0
  0
LWPOLYLINE
  5
1de
100
AcDbEntity
  8
cutting
 62
5
100
AcDbPolyline
 90
2
 70
0
 10
42496201.033685
 20
32302343.973499
 30
0.0
 10
42496201.033685
 20
30714644.023956
 30
0.0
  0
SPLINE
  5
1df
100
AcDbEntity
  8
cutting
 62
5
100
AcDbSpline
 70
8
 71
3
 72
8
 73
4
 74
0
 40
0
 40
0
 40
0
 40
0
 40
1
 40
1
 40
1
 40
1
 10
42496216.908700
 20
24397567.255815
 30
0.0
 10
42496216.918913
 20
24324504.520458
 30
0.0
 10
42555445.965969
 20
24265275.473389
 30
0.0
 10
42628508.701354
 20
24265275.463161
 30
0.0
  0
SPLINE
  5
1e0
100
AcDbEntity
  8
cutting
 62
5
100
AcDbSpline
 70
8
 71
3
 72
8
 73
4
 74
0
 40
0
 40
0
 40
0
 40
0
 40
1
 40
1
 40
1
 40
1
 10
42628508.701354
 20
26117360.560324
 30
0.0
 10
42555445.965969
 20
26117360.550095
 30
0.0
 10
42496216.918913
 20
26058131.503026
 30
0.0
 10
42496216.908700
 20
25985068.767641
 30
0.0
  0
SPLINE
  5
1e1
100
AcDbEntity
  8
cutting
 62
5
100
AcDbSpline
 70
8
 71
3
 72
8
 73
4
 74
0
 40
0
 40
0
 40
0
 40
0
 40
1
 40
1
 40
1
 40
1
 10
46332678.895681
 20
24265275.463161
 30
0.0
 10
46405741.631066
 20
24265275.473389
 30
0.0
 10
46464970.678123
 20
24324504.520458
 30
0.0
 10
46464970.688336
 20
24397567.255843
 30
0.0
  0
SPLINE
  5
1e2
100
AcDbEntity
  8
cutting
 62
5
100
AcDbSpline
 70
8
 71
3
 72
8
 73
4
 74
0
 40
0
 40
0
 40
0
 40
0
 40
1
 40
1
 40
1
 40
1
 10
46464970.688336
 20
25985068.767669
 30
0.0
 10
46464970.678123
 20
26058131.503026
 30
0.0
 10
46405741.631066
 20
26117360.550095
 30
0.0
 10
46332678.895681
 20
26117360.560324
 30
0.0
  0
LWPOLYLINE
  5
1e3
100
AcDbEntity
  8
cutting
 62
5
100
AcDbPolyline
 90
2
 70
0
 10
46464960.104992
 20
32302343.973499
 30
0.0
 10
46464960.104992
 20
30714644.023956
 30
0.0
  0
LWPOLYLINE
  5
1e4
100
AcDbEntity
  8
cutting
 62
5
100
AcDbPolyline
 90
2
 70
0
 10
46332652.437323
 20
24265137.879696
 30
0.0
 10
42628508.701354
 20
24265137.879696
 30
0.0
  0
LWPOLYLINE
  5
1e5
100
AcDbEntity
  8
cutting
 62
5
100
AcDbPolyline
 90
2
 70
0
 10
46332652.437323
 20
26117455.810415
 30
0.0
 10
42628508.701354
 20
26117455.810415
 30
0.0
  0
LWPOLYLINE
  5
1e6
100
AcDbEntity
  8
cutting
 62
5
100
AcDbPolyline
 90
2
 70
0
 10
42496201.033685
 20
25985145.496909
 30
0.0
 10
42496201.033685
 20
24397445.547366
 30
0.0
  0
SPLINE
  5
1e7
100
AcDbEntity
  8
cutting
 62
5
100
AcDbSpline
 70
8
 71
3
 72
8
 73
4
 74
0
 40
0
 40
0
 40
0
 40
0
 40
1
 40
1
 40
1
 40
1
 10
51637579.781128
 20
29017990.406067
 30
0.0
 10
51672665.882031
 20
29017990.410979
 30
0.0
 10
51706314.934574
 20
29031928.366796
 30
0.0
 10
51731124.480019
 20
29056738.061098
 30
0.0
  0
SPLINE
  5
1e8
100
AcDbEntity
  8
cutting
 62
5
100
AcDbSpline
 70
8
 71
3
 72
8
 73
4
 74
0
 40
0
 40
0
 40
0
 40
0
 40
1
 40
1
 40
1
 40
1
 10
51731124.480019
 20
29056738.061098
 30
0.0
 10
51755934.025464
 20
29081547.755401
 30
0.0
 10
51769871.779387
 20
29115196.891571
 30
0.0
 10
51769871.573783
 20
29150282.992473
 30
0.0
  0
SPLINE
  5
1e9
100
AcDbEntity
  8
cutting
 62
5
100
AcDbSpline
 70
8
 71
3
 72
8
 73
4
 74
0
 40
0
 40
0
 40
0
 40
0
 40
1
 40
1
 40
1
 40
1
 10
48065701.379456
 20
29150282.992472
 30
0.0
 10
48065701.173851
 20
29115196.891571
 30
0.0
 10
48079638.927774
 20
29081547.755401
 30
0.0
 10
48104448.473219
 20
29056738.061098
 30
0.0
  0
SPLINE
  5
1ea
100
AcDbEntity
  8
cutting
 62
5
100
AcDbSpline
 70
8
 71
3
 72
8
 73
4
 74
0
 40
0
 40
0
 40
0
 40
0
 40
1
 40
1
 40
1
 40
1
 10
48104448.473219
 20
29056738.061098
 30
0.0
 10
48129258.018664
 20
29031928.366796
 30
0.0
 10
48162907.071207
 20
29017990.410979
 30
0.0
 10
48197993.172110
 20
29017990.406067
 30
0.0
  0
SPLINE
  5
1eb
100
AcDbEntity
  8
cutting
 62
5
100
AcDbSpline
 70
8
 71
3
 72
8
 73
4
 74
0
 40
0
 40
0
 40
0
 40
0
 40
1
 40
1
 40
1
 40
1
 10
51769871.573783
 20
32589869.601490
 30
0.0
 10
51769871.417431
 20
32662932.233535
 30
0.0
 10
51710642.413178
 20
32722161.119333
 30
0.0
 10
51637579.781128
 20
32722161.129561
 30
0.0
  0
SPLINE
  5
1ec
100
AcDbEntity
  8
cutting
 62
5
100
AcDbSpline
 70
8
 71
3
 72
8
 73
4
 74
0
 40
0
 40
0
 40
0
 40
0
 40
1
 40
1
 40
1
 40
1
 10
48197993.172110
 20
32722161.129561
 30
0.0
 10
48124930.540061
 20
32722161.119333
 30
0.0
 10
48065701.535807
 20
32662932.233535
 30
0.0
 10
48065701.379456
 20
32589869.601486
 30
0.0
  0
LWPOLYLINE
  5
1ed
100
AcDbEntity
  8
cutting
 62
5
100
AcDbPolyline
 90
2
 70
0
 10
46464960.104992
 20
25985145.496909
 30
0.0
 10
46464960.104992
 20
24397445.547366
 30
0.0
  0
LWPOLYLINE
  5
1ee
100
AcDbEntity
  8
cutting
 62
5
100
AcDbPolyline
 90
2
 70
0
 10
51769892.740469
 20
32590062.218340
 30
0.0
 10
51769892.740469
 20
29150045.660996
 30
0.0
  0
LWPOLYLINE
  5
1ef
100
AcDbEntity
  8
cutting
 62
5
100
AcDbPolyline
 90
2
 70
0
 10
48065680.212769
 20
32590062.218340
 30
0.0
 10
48065680.212769
 20
29150045.660996
 30
0.0
  0
LWPOLYLINE
  5
1f0
100
AcDbEntity
  8
cutting
 62
5
100
AcDbPolyline
 90
2
 70
0
 10
48197987.880439
 20
29017736.405825
 30
0.0
 10
51637585.072800
 20
29017736.405825
 30
0.0
  0
SPLINE
  5
1f1
100
AcDbEntity
  8
cutting
 62
5
100
AcDbSpline
 70
8
 71
3
 72
8
 73
4
 74
0
 40
0
 40
0
 40
0
 40
0
 40
1
 40
1
 40
1
 40
1
 10
31476310.580578
 20
23977673.105930
 30
0.0
 10
31549373.315963
 20
23977673.116158
 30
0.0
 10
31608602.363019
 20
24036902.163227
 30
0.0
 10
31608602.373232
 20
24109964.898613
 30
0.0
  0
SPLINE
  5
1f2
100
AcDbEntity
  8
cutting
 62
5
100
AcDbSpline
 70
8
 71
3
 72
8
 73
4
 74
0
 40
0
 40
0
 40
0
 40
0
 40
1
 40
1
 40
1
 40
1
 10
27904432.178905
 20
24109964.898584
 30
0.0
 10
27904432.189118
 20
24036902.163227
 30
0.0
 10
27963661.236175
 20
23977673.116158
 30
0.0
 10
28036723.971560
 20
23977673.105930
 30
0.0
  0
SPLINE
  5
1f3
100
AcDbEntity
  8
cutting
 62
5
100
AcDbSpline
 70
8
 71
3
 72
8
 73
4
 74
0
 40
0
 40
0
 40
0
 40
0
 40
1
 40
1
 40
1
 40
1
 10
31608602.373232
 20
27549551.507602
 30
0.0
 10
31608602.363019
 20
27622614.242959
 30
0.0
 10
31549373.315963
 20
27681843.290028
 30
0.0
 10
31476310.580578
 20
27681843.300256
 30
0.0
  0
SPLINE
  5
1f4
100
AcDbEntity
  8
cutting
 62
5
100
AcDbSpline
 70
8
 71
3
 72
8
 73
4
 74
0
 40
0
 40
0
 40
0
 40
0
 40
1
 40
1
 40
1
 40
1
 10
28036723.971560
 20
27681843.300256
 30
0.0
 10
27963661.236175
 20
27681843.290028
 30
0.0
 10
27904432.189118
 20
27622614.242959
 30
0.0
 10
27904432.178905
 20
27549551.507574
 30
0.0
  0
LWPOLYLINE
  5
1f5
100
AcDbEntity
  8
cutting
 62
5
100
AcDbPolyline
 90
2
 70
0
 10
48197987.880439
 20
32722370.415177
 30
0.0
 10
51637585.072800
 20
32722370.415177
 30
0.0
  0
LWPOLYLINE
  5
1f6
100
AcDbEntity
  8
cutting
 62
5
100
AcDbPolyline
 90
2
 70
0
 10
31608602.373232
 20
27549744.653619
 30
0.0
 10
31608602.373232
 20
24109729.419193
 30
0.0
  0
LWPOLYLINE
  5
1f7
100
AcDbEntity
  8
cutting
 62
5
100
AcDbPolyline
 90
2
 70
0
 10
27904432.178905
 20
27549744.653619
 30
0.0
 10
27904432.178905
 20
24109729.419193
 30
0.0
  0
LWPOLYLINE
  5
1f8
100
AcDbEntity
  8
cutting
 62
5
100
AcDbPolyline
 90
2
 70
0
 10
28036726.617396
 20
23977419.105688
 30
0.0
 10
31476307.934742
 20
23977419.105688
 30
0.0
  0
SPLINE
  5
1f9
100
AcDbEntity
  8
cutting
 62
5
100
AcDbSpline
 70
8
 71
3
 72
8
 73
4
 74
0
 40
0
 40
0
 40
0
 40
0
 40
1
 40
1
 40
1
 40
1
 10
36516627.880715
 20
23977673.105930
 30
0.0
 10
36589690.616100
 20
23977673.116158
 30
0.0
 10
36648919.663157
 20
24036902.163227
 30
0.0
 10
36648919.673370
 20
24109964.898613
 30
0.0
  0
SPLINE
  5
1fa
100
AcDbEntity
  8
cutting
 62
5
100
AcDbSpline
 70
8
 71
3
 72
8
 73
4
 74
0
 40
0
 40
0
 40
0
 40
0
 40
1
 40
1
 40
1
 40
1
 10
32944749.479043
 20
24109964.898584
 30
0.0
 10
32944749.489256
 20
24036902.163227
 30
0.0
 10
33003978.536312
 20
23977673.116158
 30
0.0
 10
33077041.271697
 20
23977673.105930
 30
0.0
  0
SPLINE
  5
1fb
100
AcDbEntity
  8
cutting
 62
5
100
AcDbSpline
 70
8
 71
3
 72
8
 73
4
 74
0
 40
0
 40
0
 40
0
 40
0
 40
1
 40
1
 40
1
 40
1
 10
36648919.673370
 20
27549551.507602
 30
0.0
 10
36648919.663157
 20
27622614.242959
 30
0.0
 10
36589690.616100
 20
27681843.290028
 30
0.0
 10
36516627.880715
 20
27681843.300256
 30
0.0
  0
SPLINE
  5
1fc
100
AcDbEntity
  8
cutting
 62
5
100
AcDbSpline
 70
8
 71
3
 72
8
 73
4
 74
0
 40
0
 40
0
 40
0
 40
0
 40
1
 40
1
 40
1
 40
1
 10
33077041.271697
 20
27681843.300256
 30
0.0
 10
33003978.536312
 20
27681843.290028
 30
0.0
 10
32944749.489256
 20
27622614.242959
 30
0.0
 10
32944749.479043
 20
27549551.507574
 30
0.0
  0
LWPOLYLINE
  5
1fd
100
AcDbEntity
  8
cutting
 62
5
100
AcDbPolyline
 90
2
 70
0
 10
28036726.617396
 20
27682052.321289
 30
0.0
 10
31476307.934742
 20
27682052.321289
 30
0.0
  0
LWPOLYLINE
  5
1fe
100
AcDbEntity
  8
cutting
 62
5
100
AcDbPolyline
 90
2
 70
0
 10
36648940.840057
 20
27549744.653619
 30
0.0
 10
36648940.840057
 20
24109729.419193
 30
0.0
  0
LWPOLYLINE
  5
1ff
100
AcDbEntity
  8
cutting
 62
5
100
AcDbPolyline
 90
2
 70
0
 10
32944749.479043
 20
27549744.653619
 30
0.0
 10
32944749.479043
 20
24109729.419193
 30
0.0
  0
LWPOLYLINE
  5
200
100
AcDbEntity
  8
cutting
 62
5
100
AcDbPolyline
 90
2
 70
0
 10
33077043.917533
 20
23977419.105688
 30
0.0
 10
36516633.172387
 20
23977419.105688
 30
0.0
  0
SPLINE
  5
201
100
AcDbEntity
  8
cutting
 62
5
100
AcDbSpline
 70
8
 71
3
 72
8
 73
4
 74
0
 40
0
 40
0
 40
0
 40
0
 40
1
 40
1
 40
1
 40
1
 10
41556945.180853
 20
23977673.105930
 30
0.0
 10
41630007.916238
 20
23977673.116158
 30
0.0
 10
41689236.963294
 20
24036902.163227
 30
0.0
 10
41689236.973507
 20
24109964.898613
 30
0.0
  0
SPLINE
  5
202
100
AcDbEntity
  8
cutting
 62
5
100
AcDbSpline
 70
8
 71
3
 72
8
 73
4
 74
0
 40
0
 40
0
 40
0
 40
0
 40
1
 40
1
 40
1
 40
1
 10
37985066.779180
 20
24109964.898584
 30
0.0
 10
37985066.789394
 20
24036902.163227
 30
0.0
 10
38044295.836450
 20
23977673.116158
 30
0.0
 10
38117358.571835
 20
23977673.105930
 30
0.0
  0
SPLINE
  5
203
100
AcDbEntity
  8
cutting
 62
5
100
AcDbSpline
 70
8
 71
3
 72
8
 73
4
 74
0
 40
0
 40
0
 40
0
 40
0
 40
1
 40
1
 40
1
 40
1
 10
41689236.973507
 20
27549551.507602
 30
0.0
 10
41689236.963294
 20
27622614.242959
 30
0.0
 10
41630007.916238
 20
27681843.290028
 30
0.0
 10
41556945.180853
 20
27681843.300256
 30
0.0
  0
SPLINE
  5
204
100
AcDbEntity
  8
cutting
 62
5
100
AcDbSpline
 70
8
 71
3
 72
8
 73
4
 74
0
 40
0
 40
0
 40
0
 40
0
 40
1
 40
1
 40
1
 40
1
 10
38117358.571835
 20
27681843.300256
 30
0.0
 10
38044295.836450
 20
27681843.290028
 30
0.0
 10
37985066.789394
 20
27622614.242959
 30
0.0
 10
37985066.779180
 20
27549551.507574
 30
0.0
  0
LWPOLYLINE
  5
205
100
AcDbEntity
  8
cutting
 62
5
100
AcDbPolyline
 90
2
 70
0
 10
33077043.917533
 20
27682052.321289
 30
0.0
 10
36516633.172387
 20
27682052.321289
 30
0.0
  0
LWPOLYLINE
  5
206
100
AcDbEntity
  8
cutting
 62
5
100
AcDbPolyline
 90
2
 70
0
 10
41689258.140194
 20
27549744.653619
 30
0.0
 10
41689258.140194
 20
24109729.419193
 30
0.0
  0
LWPOLYLINE
  5
207
100
AcDbEntity
  8
cutting
 62
5
100
AcDbPolyline
 90
2
 70
0
 10
37985045.612494
 20
27549744.653619
 30
0.0
 10
37985045.612494
 20
24109729.419193
 30
0.0
  0
LWPOLYLINE
  5
208
100
AcDbEntity
  8
cutting
 62
5
100
AcDbPolyline
 90
2
 70
0
 10
38117353.280163
 20
23977419.105688
 30
0.0
 10
41556950.472524
 20
23977419.105688
 30
0.0
  0
SPLINE
  5
209
100
AcDbEntity
  8
cutting
 62
5
100
AcDbSpline
 70
8
 71
3
 72
8
 73
4
 74
0
 40
0
 40
0
 40
0
 40
0
 40
1
 40
1
 40
1
 40
1
 10
51637579.781128
 20
23977673.105930
 30
0.0
 10
51710642.516513
 20
23977673.116158
 30
0.0
 10
51769871.563569
 20
24036902.163227
 30
0.0
 10
51769871.573783
 20
24109964.898613
 30
0.0
  0
SPLINE
  5
20a
100
AcDbEntity
  8
cutting
 62
5
100
AcDbSpline
 70
8
 71
3
 72
8
 73
4
 74
0
 40
0
 40
0
 40
0
 40
0
 40
1
 40
1
 40
1
 40
1
 10
48065701.379456
 20
24109964.898584
 30
0.0
 10
48065701.389669
 20
24036902.163227
 30
0.0
 10
48124930.436725
 20
23977673.116158
 30
0.0
 10
48197993.172110
 20
23977673.105930
 30
0.0
  0
SPLINE
  5
20b
100
AcDbEntity
  8
cutting
 62
5
100
AcDbSpline
 70
8
 71
3
 72
8
 73
4
 74
0
 40
0
 40
0
 40
0
 40
0
 40
1
 40
1
 40
1
 40
1
 10
51769871.573783
 20
27549551.507602
 30
0.0
 10
51769871.563569
 20
27622614.242959
 30
0.0
 10
51710642.516513
 20
27681843.290028
 30
0.0
 10
51637579.781128
 20
27681843.300256
 30
0.0
  0
SPLINE
  5
20c
100
AcDbEntity
  8
cutting
 62
5
100
AcDbSpline
 70
8
 71
3
 72
8
 73
4
 74
0
 40
0
 40
0
 40
0
 40
0
 40
1
 40
1
 40
1
 40
1
 10
48197993.172110
 20
27681843.300256
 30
0.0
 10
48124930.436725
 20
27681843.290028
 30
0.0
 10
48065701.389669
 20
27622614.242959
 30
0.0
 10
48065701.379456
 20
27549551.507574
 30
0.0
  0
LWPOLYLINE
  5
20d
100
AcDbEntity
  8
cutting
 62
5
100
AcDbPolyline
 90
2
 70
0
 10
38117353.280163
 20
27682052.321289
 30
0.0
 10
41556950.472524
 20
27682052.321289
 30
0.0
  0
LWPOLYLINE
  5
20e
100
AcDbEntity
  8
cutting
 62
5
100
AcDbPolyline
 90
2
 70
0
 10
51769892.740469
 20
27549744.653619
 30
0.0
 10
51769892.740469
 20
24109729.419193
 30
0.0
  0
LWPOLYLINE
  5
20f
100
AcDbEntity
  8
cutting
 62
5
100
AcDbPolyline
 90
2
 70
0
 10
48065680.212769
 20
27549744.653619
 30
0.0
 10
48065680.212769
 20
24109729.419193
 30
0.0
  0
LWPOLYLINE
  5
210
100
AcDbEntity
  8
cutting
 62
5
100
AcDbPolyline
 90
2
 70
0
 10
48197987.880439
 20
23977419.105688
 30
0.0
 10
51637585.072800
 20
23977419.105688
 30
0.0
  0
SPLINE
  5
211
100
AcDbEntity
  8
cutting
 62
5
100
AcDbSpline
 70
8
 71
3
 72
8
 73
4
 74
0
 40
0
 40
0
 40
0
 40
0
 40
1
 40
1
 40
1
 40
1
 10
31476310.580578
 20
18937355.805792
 30
0.0
 10
31549373.315963
 20
18937355.816021
 30
0.0
 10
31608602.363019
 20
18996584.863090
 30
0.0
 10
31608602.373232
 20
19069647.598475
 30
0.0
  0
SPLINE
  5
212
100
AcDbEntity
  8
cutting
 62
5
100
AcDbSpline
 70
8
 71
3
 72
8
 73
4
 74
0
 40
0
 40
0
 40
0
 40
0
 40
1
 40
1
 40
1
 40
1
 10
27904432.178905
 20
19069647.598446
 30
0.0
 10
27904432.189118
 20
18996584.863090
 30
0.0
 10
27963661.236175
 20
18937355.816021
 30
0.0
 10
28036723.971560
 20
18937355.805792
 30
0.0
  0
SPLINE
  5
213
100
AcDbEntity
  8
cutting
 62
5
100
AcDbSpline
 70
8
 71
3
 72
8
 73
4
 74
0
 40
0
 40
0
 40
0
 40
0
 40
1
 40
1
 40
1
 40
1
 10
31608602.373232
 20
22509234.207464
 30
0.0
 10
31608602.363019
 20
22582296.942821
 30
0.0
 10
31549373.315963
 20
22641525.989890
 30
0.0
 10
31476310.580578
 20
22641526.000119
 30
0.0
  0
SPLINE
  5
214
100
AcDbEntity
  8
cutting
 62
5
100
AcDbSpline
 70
8
 71
3
 72
8
 73
4
 74
0
 40
0
 40
0
 40
0
 40
0
 40
1
 40
1
 40
1
 40
1
 10
28036723.971560
 20
22641526.000119
 30
0.0
 10
27963661.236175
 20
22641525.989890
 30
0.0
 10
27904432.189118
 20
22582296.942821
 30
0.0
 10
27904432.178905
 20
22509234.207436
 30
0.0
  0
LWPOLYLINE
  5
215
100
AcDbEntity
  8
cutting
 62
5
100
AcDbPolyline
 90
2
 70
0
 10
48197987.880439
 20
27682052.321289
 30
0.0
 10
51637585.072800
 20
27682052.321289
 30
0.0
  0
LWPOLYLINE
  5
216
100
AcDbEntity
  8
cutting
 62
5
100
AcDbPolyline
 90
2
 70
0
 10
31608602.373232
 20
22509427.353482
 30
0.0
 10
31608602.373232
 20
19069412.119056
 30
0.0
  0
LWPOLYLINE
  5
217
100
AcDbEntity
  8
cutting
 62
5
100
AcDbPolyline
 90
2
 70
0
 10
27904432.178905
 20
22509427.353482
 30
0.0
 10
27904432.178905
 20
19069412.119056
 30
0.0
  0
LWPOLYLINE
  5
218
100
AcDbEntity
  8
cutting
 62
5
100
AcDbPolyline
 90
2
 70
0
 10
28036726.617396
 20
18937101.805550
 30
0.0
 10
31476307.934742
 20
18937101.805550
 30
0.0
  0
SPLINE
  5
219
100
AcDbEntity
  8
cutting
 62
5
100
AcDbSpline
 70
8
 71
3
 72
8
 73
4
 74
0
 40
0
 40
0
 40
0
 40
0
 40
1
 40
1
 40
1
 40
1
 10
36516627.880715
 20
18937355.805792
 30
0.0
 10
36589690.616100
 20
18937355.816021
 30
0.0
 10
36648919.663157
 20
18996584.863090
 30
0.0
 10
36648919.673370
 20
19069647.598475
 30
0.0
  0
SPLINE
  5
21a
100
AcDbEntity
  8
cutting
 62
5
100
AcDbSpline
 70
8
 71
3
 72
8
 73
4
 74
0
 40
0
 40
0
 40
0
 40
0
 40
1
 40
1
 40
1
 40
1
 10
32944749.479043
 20
19069647.598446
 30
0.0
 10
32944749.489256
 20
18996584.863090
 30
0.0
 10
33003978.536312
 20
18937355.816021
 30
0.0
 10
33077041.271697
 20
18937355.805792
 30
0.0
  0
SPLINE
  5
21b
100
AcDbEntity
  8
cutting
 62
5
100
AcDbSpline
 70
8
 71
3
 72
8
 73
4
 74
0
 40
0
 40
0
 40
0
 40
0
 40
1
 40
1
 40
1
 40
1
 10
36648919.673370
 20
22509234.207464
 30
0.0
 10
36648919.663157
 20
22582296.942821
 30
0.0
 10
36589690.616100
 20
22641525.989890
 30
0.0
 10
36516627.880715
 20
22641526.000119
 30
0.0
  0
SPLINE
  5
21c
100
AcDbEntity
  8
cutting
 62
5
100
AcDbSpline
 70
8
 71
3
 72
8
 73
4
 74
0
 40
0
 40
0
 40
0
 40
0
 40
1
 40
1
 40
1
 40
1
 10
33077041.271697
 20
22641526.000119
 30
0.0
 10
33003978.536312
 20
22641525.989890
 30
0.0
 10
32944749.489256
 20
22582296.942821
 30
0.0
 10
32944749.479043
 20
22509234.207436
 30
0.0
  0
LWPOLYLINE
  5
21d
100
AcDbEntity
  8
cutting
 62
5
100
AcDbPolyline
 90
2
 70
0
 10
28036726.617396
 20
22641735.021151
 30
0.0
 10
31476307.934742
 20
22641735.021151
 30
0.0
  0
LWPOLYLINE
  5
21e
100
AcDbEntity
  8
cutting
 62
5
100
AcDbPolyline
 90
2
 70
0
 10
36648940.840057
 20
22509427.353482
 30
0.0
 10
36648940.840057
 20
19069412.119056
 30
0.0
  0
LWPOLYLINE
  5
21f
100
AcDbEntity
  8
cutting
 62
5
100
AcDbPolyline
 90
2
 70
0
 10
32944749.479043
 20
22509427.353482
 30
0.0
 10
32944749.479043
 20
19069412.119056
 30
0.0
  0
LWPOLYLINE
  5
220
100
AcDbEntity
  8
cutting
 62
5
100
AcDbPolyline
 90
2
 70
0
 10
33077043.917533
 20
18937101.805550
 30
0.0
 10
36516633.172387
 20
18937101.805550
 30
0.0
  0
SPLINE
  5
221
100
AcDbEntity
  8
cutting
 62
5
100
AcDbSpline
 70
8
 71
3
 72
8
 73
4
 74
0
 40
0
 40
0
 40
0
 40
0
 40
1
 40
1
 40
1
 40
1
 10
41556945.180853
 20
18937355.805792
 30
0.0
 10
41630007.916238
 20
18937355.816021
 30
0.0
 10
41689236.963294
 20
18996584.863090
 30
0.0
 10
41689236.973507
 20
19069647.598475
 30
0.0
  0
SPLINE
  5
222
100
AcDbEntity
  8
cutting
 62
5
100
AcDbSpline
 70
8
 71
3
 72
8
 73
4
 74
0
 40
0
 40
0
 40
0
 40
0
 40
1
 40
1
 40
1
 40
1
 10
37985066.779180
 20
19069647.598446
 30
0.0
 10
37985066.789394
 20
18996584.863090
 30
0.0
 10
38044295.836450
 20
18937355.816021
 30
0.0
 10
38117358.571835
 20
18937355.805792
 30
0.0
  0
SPLINE
  5
223
100
AcDbEntity
  8
cutting
 62
5
100
AcDbSpline
 70
8
 71
3
 72
8
 73
4
 74
0
 40
0
 40
0
 40
0
 40
0
 40
1
 40
1
 40
1
 40
1
 10
41689236.973507
 20
22509234.207464
 30
0.0
 10
41689236.963294
 20
22582296.942821
 30
0.0
 10
41630007.916238
 20
22641525.989890
 30
0.0
 10
41556945.180853
 20
22641526.000119
 30
0.0
  0
SPLINE
  5
224
100
AcDbEntity
  8
cutting
 62
5
100
AcDbSpline
 70
8
 71
3
 72
8
 73
4
 74
0
 40
0
 40
0
 40
0
 40
0
 40
1
 40
1
 40
1
 40
1
 10
38117358.571835
 20
22641526.000119
 30
0.0
 10
38044295.836450
 20
22641525.989890
 30
0.0
 10
37985066.789394
 20
22582296.942821
 30
0.0
 10
37985066.779180
 20
22509234.207436
 30
0.0
  0
LWPOLYLINE
  5
225
100
AcDbEntity
  8
cutting
 62
5
100
AcDbPolyline
 90
2
 70
0
 10
33077043.917533
 20
22641735.021151
 30
0.0
 10
36516633.172387
 20
22641735.021151
 30
0.0
  0
LWPOLYLINE
  5
226
100
AcDbEntity
  8
cutting
 62
5
100
AcDbPolyline
 90
2
 70
0
 10
41689258.140194
 20
22509427.353482
 30
0.0
 10
41689258.140194
 20
19069412.119056
 30
0.0
  0
LWPOLYLINE
  5
227
100
AcDbEntity
  8
cutting
 62
5
100
AcDbPolyline
 90
2
 70
0
 10
37985045.612494
 20
22509427.353482
 30
0.0
 10
37985045.612494
 20
19069412.119056
 30
0.0
  0
LWPOLYLINE
  5
228
100
AcDbEntity
  8
cutting
 62
5
100
AcDbPolyline
 90
2
 70
0
 10
38117353.280163
 20
18937101.805550
 30
0.0
 10
41556950.472524
 20
18937101.805550
 30
0.0
  0
SPLINE
  5
229
100
AcDbEntity
  8
cutting
 62
5
100
AcDbSpline
 70
8
 71
3
 72
8
 73
4
 74
0
 40
0
 40
0
 40
0
 40
0
 40
1
 40
1
 40
1
 40
1
 10
43025384.079318
 20
16549488.948378
 30
0.0
 10
43025384.089531
 20
16476426.213021
 30
0.0
 10
43084613.136588
 20
16417197.165952
 30
0.0
 10
43157675.871973
 20
16417197.155723
 30
0.0
  0
SPLINE
  5
22a
100
AcDbEntity
  8
cutting
 62
5
100
AcDbSpline
 70
8
 71
3
 72
8
 73
4
 74
0
 40
0
 40
0
 40
0
 40
0
 40
1
 40
1
 40
1
 40
1
 10
43157675.871973
 20
20121367.350050
 30
0.0
 10
43084613.136588
 20
20121367.339821
 30
0.0
 10
43025384.089531
 20
20062138.292752
 30
0.0
 10
43025384.079318
 20
19989075.557367
 30
0.0
  0
SPLINE
  5
22b
100
AcDbEntity
  8
cutting
 62
5
100
AcDbSpline
 70
8
 71
3
 72
8
 73
4
 74
0
 40
0
 40
0
 40
0
 40
0
 40
1
 40
1
 40
1
 40
1
 10
46597262.480990
 20
16417197.155723
 30
0.0
 10
46670325.216375
 20
16417197.165952
 30
0.0
 10
46729554.263432
 20
16476426.213021
 30
0.0
 10
46729554.273645
 20
16549488.948406
 30
0.0
  0
SPLINE
  5
22c
100
AcDbEntity
  8
cutting
 62
5
100
AcDbSpline
 70
8
 71
3
 72
8
 73
4
 74
0
 40
0
 40
0
 40
0
 40
0
 40
1
 40
1
 40
1
 40
1
 10
46729554.273645
 20
19989075.557395
 30
0.0
 10
46729554.263432
 20
20062138.292752
 30
0.0
 10
46670325.216375
 20
20121367.339821
 30
0.0
 10
46597262.480990
 20
20121367.350050
 30
0.0
  0
LWPOLYLINE
  5
22d
100
AcDbEntity
  8
cutting
 62
5
100
AcDbPolyline
 90
2
 70
0
 10
38117353.280163
 20
22641735.021151
 30
0.0
 10
41556950.472524
 20
22641735.021151
 30
0.0
  0
LWPOLYLINE
  5
22e
100
AcDbEntity
  8
cutting
 62
5
100
AcDbPolyline
 90
2
 70
0
 10
46597267.772662
 20
16416943.155481
 30
0.0
 10
43157670.580301
 20
16416943.155481
 30
0.0
  0
LWPOLYLINE
  5
22f
100
AcDbEntity
  8
cutting
 62
5
100
AcDbPolyline
 90
2
 70
0
 10
46597267.772662
 20
20121576.371082
 30
0.0
 10
43157670.580301
 20
20121576.371082
 30
0.0
  0
LWPOLYLINE
  5
230
100
AcDbEntity
  8
cutting
 62
5
100
AcDbPolyline
 90
2
 70
0
 10
43025362.912631
 20
19989268.703413
 30
0.0
 10
43025362.912631
 20
16549253.468987
 30
0.0
  0
SPLINE
  5
231
100
AcDbEntity
  8
cutting
 62
5
100
AcDbSpline
 70
8
 71
3
 72
8
 73
4
 74
0
 40
0
 40
0
 40
0
 40
0
 40
1
 40
1
 40
1
 40
1
 10
42496216.908700
 20
20634130.338379
 30
0.0
 10
42496216.918913
 20
20561067.603022
 30
0.0
 10
42555445.965969
 20
20501838.555953
 30
0.0
 10
42628508.701354
 20
20501838.545724
 30
0.0
  0
SPLINE
  5
232
100
AcDbEntity
  8
cutting
 62
5
100
AcDbSpline
 70
8
 71
3
 72
8
 73
4
 74
0
 40
0
 40
0
 40
0
 40
0
 40
1
 40
1
 40
1
 40
1
 10
42628508.701354
 20
22353923.642888
 30
0.0
 10
42555445.965969
 20
22353923.632659
 30
0.0
 10
42496216.918913
 20
22294694.585590
 30
0.0
 10
42496216.908700
 20
22221631.850205
 30
0.0
  0
SPLINE
  5
233
100
AcDbEntity
  8
cutting
 62
5
100
AcDbSpline
 70
8
 71
3
 72
8
 73
4
 74
0
 40
0
 40
0
 40
0
 40
0
 40
1
 40
1
 40
1
 40
1
 10
46332678.895681
 20
20501838.545724
 30
0.0
 10
46405741.631066
 20
20501838.555953
 30
0.0
 10
46464970.678123
 20
20561067.603022
 30
0.0
 10
46464970.688336
 20
20634130.338407
 30
0.0
  0
SPLINE
  5
234
100
AcDbEntity
  8
cutting
 62
5
100
AcDbSpline
 70
8
 71
3
 72
8
 73
4
 74
0
 40
0
 40
0
 40
0
 40
0
 40
1
 40
1
 40
1
 40
1
 10
46464970.688336
 20
22221631.850233
 30
0.0
 10
46464970.678123
 20
22294694.585590
 30
0.0
 10
46405741.631066
 20
22353923.632659
 30
0.0
 10
46332678.895681
 20
22353923.642888
 30
0.0
  0
LWPOLYLINE
  5
235
100
AcDbEntity
  8
cutting
 62
5
100
AcDbPolyline
 90
2
 70
0
 10
46729575.440332
 20
19989268.703413
 30
0.0
 10
46729575.440332
 20
16549253.468987
 30
0.0
  0
LWPOLYLINE
  5
236
100
AcDbEntity
  8
cutting
 62
5
100
AcDbPolyline
 90
2
 70
0
 10
46332652.437323
 20
20501700.962260
 30
0.0
 10
42628508.701354
 20
20501700.962260
 30
0.0
  0
LWPOLYLINE
  5
237
100
AcDbEntity
  8
cutting
 62
5
100
AcDbPolyline
 90
2
 70
0
 10
46332652.437323
 20
22354018.892979
 30
0.0
 10
42628508.701354
 20
22354018.892979
 30
0.0
  0
LWPOLYLINE
  5
238
100
AcDbEntity
  8
cutting
 62
5
100
AcDbPolyline
 90
2
 70
0
 10
42496201.033685
 20
22221708.579473
 30
0.0
 10
42496201.033685
 20
20634008.629930
 30
0.0
  0
SPLINE
  5
239
100
AcDbEntity
  8
cutting
 62
5
100
AcDbSpline
 70
8
 71
3
 72
8
 73
4
 74
0
 40
0
 40
0
 40
0
 40
0
 40
1
 40
1
 40
1
 40
1
 10
42496216.908700
 20
14316932.655540
 30
0.0
 10
42496216.918913
 20
14243869.920183
 30
0.0
 10
42555445.965969
 20
14184640.873114
 30
0.0
 10
42628508.701354
 20
14184640.862885
 30
0.0
  0
SPLINE
  5
23a
100
AcDbEntity
  8
cutting
 62
5
100
AcDbSpline
 70
8
 71
3
 72
8
 73
4
 74
0
 40
0
 40
0
 40
0
 40
0
 40
1
 40
1
 40
1
 40
1
 10
42628508.701354
 20
16036725.960049
 30
0.0
 10
42555445.965969
 20
16036725.949820
 30
0.0
 10
42496216.918913
 20
15977496.902751
 30
0.0
 10
42496216.908700
 20
15904434.167366
 30
0.0
  0
SPLINE
  5
23b
100
AcDbEntity
  8
cutting
 62
5
100
AcDbSpline
 70
8
 71
3
 72
8
 73
4
 74
0
 40
0
 40
0
 40
0
 40
0
 40
1
 40
1
 40
1
 40
1
 10
46332678.895681
 20
14184640.862885
 30
0.0
 10
46405741.631066
 20
14184640.873114
 30
0.0
 10
46464970.678123
 20
14243869.920183
 30
0.0
 10
46464970.688336
 20
14316932.655568
 30
0.0
  0
SPLINE
  5
23c
100
AcDbEntity
  8
cutting
 62
5
100
AcDbSpline
 70
8
 71
3
 72
8
 73
4
 74
0
 40
0
 40
0
 40
0
 40
0
 40
1
 40
1
 40
1
 40
1
 10
46464970.688336
 20
15904434.167394
 30
0.0
 10
46464970.678123
 20
15977496.902751
 30
0.0
 10
46405741.631066
 20
16036725.949820
 30
0.0
 10
46332678.895681
 20
16036725.960049
 30
0.0
  0
LWPOLYLINE
  5
23d
100
AcDbEntity
  8
cutting
 62
5
100
AcDbPolyline
 90
2
 70
0
 10
46464960.104992
 20
22221708.579473
 30
0.0
 10
46464960.104992
 20
20634008.629930
 30
0.0
  0
LWPOLYLINE
  5
23e
100
AcDbEntity
  8
cutting
 62
5
100
AcDbPolyline
 90
2
 70
0
 10
46332652.437323
 20
14184503.279421
 30
0.0
 10
42628508.701354
 20
14184503.279421
 30
0.0
  0
LWPOLYLINE
  5
23f
100
AcDbEntity
  8
cutting
 62
5
100
AcDbPolyline
 90
2
 70
0
 10
46332652.437323
 20
16036821.210139
 30
0.0
 10
42628508.701354
 20
16036821.210139
 30
0.0
  0
LWPOLYLINE
  5
240
100
AcDbEntity
  8
cutting
 62
5
100
AcDbPolyline
 90
2
 70
0
 10
42496201.033685
 20
15904510.896634
 30
0.0
 10
42496201.033685
 20
14316810.947091
 30
0.0
  0
SPLINE
  5
241
100
AcDbEntity
  8
cutting
 62
5
100
AcDbSpline
 70
8
 71
3
 72
8
 73
4
 74
0
 40
0
 40
0
 40
0
 40
0
 40
1
 40
1
 40
1
 40
1
 10
51637579.781128
 20
18937355.805792
 30
0.0
 10
51710642.516513
 20
18937355.816021
 30
0.0
 10
51769871.563569
 20
18996584.863090
 30
0.0
 10
51769871.573783
 20
19069647.598475
 30
0.0
  0
SPLINE
  5
242
100
AcDbEntity
  8
cutting
 62
5
100
AcDbSpline
 70
8
 71
3
 72
8
 73
4
 74
0
 40
0
 40
0
 40
0
 40
0
 40
1
 40
1
 40
1
 40
1
 10
48065701.379456
 20
19069647.598446
 30
0.0
 10
48065701.389669
 20
18996584.863090
 30
0.0
 10
48124930.436725
 20
18937355.816021
 30
0.0
 10
48197993.172110
 20
18937355.805792
 30
0.0
  0
SPLINE
  5
243
100
AcDbEntity
  8
cutting
 62
5
100
AcDbSpline
 70
8
 71
3
 72
8
 73
4
 74
0
 40
0
 40
0
 40
0
 40
0
 40
1
 40
1
 40
1
 40
1
 10
51769871.573783
 20
22509234.207464
 30
0.0
 10
51769871.563569
 20
22582296.942821
 30
0.0
 10
51710642.516513
 20
22641525.989890
 30
0.0
 10
51637579.781128
 20
22641526.000119
 30
0.0
  0
SPLINE
  5
244
100
AcDbEntity
  8
cutting
 62
5
100
AcDbSpline
 70
8
 71
3
 72
8
 73
4
 74
0
 40
0
 40
0
 40
0
 40
0
 40
1
 40
1
 40
1
 40
1
 10
48197993.172110
 20
22641526.000119
 30
0.0
 10
48124930.436725
 20
22641525.989890
 30
0.0
 10
48065701.389669
 20
22582296.942821
 30
0.0
 10
48065701.379456
 20
22509234.207436
 30
0.0
  0
LWPOLYLINE
  5
245
100
AcDbEntity
  8
cutting
 62
5
100
AcDbPolyline
 90
2
 70
0
 10
46464960.104992
 20
15904510.896634
 30
0.0
 10
46464960.104992
 20
14316810.947091
 30
0.0
  0
LWPOLYLINE
  5
246
100
AcDbEntity
  8
cutting
 62
5
100
AcDbPolyline
 90
2
 70
0
 10
51769892.740469
 20
22509427.353482
 30
0.0
 10
51769892.740469
 20
19069412.119056
 30
0.0
  0
LWPOLYLINE
  5
247
100
AcDbEntity
  8
cutting
 62
5
100
AcDbPolyline
 90
2
 70
0
 10
48065680.212769
 20
22509427.353482
 30
0.0
 10
48065680.212769
 20
19069412.119056
 30
0.0
  0
LWPOLYLINE
  5
248
100
AcDbEntity
  8
cutting
 62
5
100
AcDbPolyline
 90
2
 70
0
 10
48197987.880439
 20
18937101.805550
 30
0.0
 10
51637585.072800
 20
18937101.805550
 30
0.0
  0
SPLINE
  5
249
100
AcDbEntity
  8
cutting
 62
5
100
AcDbSpline
 70
8
 71
3
 72
8
 73
4
 74
0
 40
0
 40
0
 40
0
 40
0
 40
1
 40
1
 40
1
 40
1
 10
33996469.230646
 20
13897038.505654
 30
0.0
 10
34069531.966031
 20
13897038.515883
 30
0.0
 10
34128761.013088
 20
13956267.562952
 30
0.0
 10
34128761.023301
 20
14029330.298337
 30
0.0
  0
SPLINE
  5
24a
100
AcDbEntity
  8
cutting
 62
5
100
AcDbSpline
 70
8
 71
3
 72
8
 73
4
 74
0
 40
0
 40
0
 40
0
 40
0
 40
1
 40
1
 40
1
 40
1
 10
30424590.828974
 20
14029330.298309
 30
0.0
 10
30424590.839187
 20
13956267.562952
 30
0.0
 10
30483819.886243
 20
13897038.515883
 30
0.0
 10
30556882.621629
 20
13897038.505654
 30
0.0
  0
SPLINE
  5
24b
100
AcDbEntity
  8
cutting
 62
5
100
AcDbSpline
 70
8
 71
3
 72
8
 73
4
 74
0
 40
0
 40
0
 40
0
 40
0
 40
1
 40
1
 40
1
 40
1
 10
34128761.023301
 20
17468916.907327
 30
0.0
 10
34128761.013088
 20
17541979.642683
 30
0.0
 10
34069531.966031
 20
17601208.689752
 30
0.0
 10
33996469.230646
 20
17601208.699981
 30
0.0
  0
SPLINE
  5
24c
100
AcDbEntity
  8
cutting
 62
5
100
AcDbSpline
 70
8
 71
3
 72
8
 73
4
 74
0
 40
0
 40
0
 40
0
 40
0
 40
1
 40
1
 40
1
 40
1
 10
30556882.621629
 20
17601208.699981
 30
0.0
 10
30483819.886243
 20
17601208.689752
 30
0.0
 10
30424590.839187
 20
17541979.642683
 30
0.0
 10
30424590.828974
 20
17468916.907298
 30
0.0
  0
LWPOLYLINE
  5
24d
100
AcDbEntity
  8
cutting
 62
5
100
AcDbPolyline
 90
2
 70
0
 10
48197987.880439
 20
22641735.021151
 30
0.0
 10
51637585.072800
 20
22641735.021151
 30
0.0
  0
LWPOLYLINE
  5
24e
100
AcDbEntity
  8
cutting
 62
5
100
AcDbPolyline
 90
2
 70
0
 10
34128761.023301
 20
17469110.053344
 30
0.0
 10
34128761.023301
 20
14029094.818918
 30
0.0
  0
LWPOLYLINE
  5
24f
100
AcDbEntity
  8
cutting
 62
5
100
AcDbPolyline
 90
2
 70
0
 10
30424590.828974
 20
17469110.053344
 30
0.0
 10
30424590.828974
 20
14029094.818918
 30
0.0
  0
LWPOLYLINE
  5
250
100
AcDbEntity
  8
cutting
 62
5
100
AcDbPolyline
 90
2
 70
0
 10
30556885.267464
 20
13896784.505412
 30
0.0
 10
33996466.584811
 20
13896784.505412
 30
0.0
  0
SPLINE
  5
251
100
AcDbEntity
  8
cutting
 62
5
100
AcDbSpline
 70
8
 71
3
 72
8
 73
4
 74
0
 40
0
 40
0
 40
0
 40
0
 40
1
 40
1
 40
1
 40
1
 10
29911827.840645
 20
13367871.335036
 30
0.0
 10
29984890.576030
 20
13367871.345265
 30
0.0
 10
30044119.623087
 20
13427100.392334
 30
0.0
 10
30044119.633300
 20
13500163.127719
 30
0.0
  0
SPLINE
  5
252
100
AcDbEntity
  8
cutting
 62
5
100
AcDbSpline
 70
8
 71
3
 72
8
 73
4
 74
0
 40
0
 40
0
 40
0
 40
0
 40
1
 40
1
 40
1
 40
1
 10
28192034.536136
 20
13500163.127691
 30
0.0
 10
28192034.546349
 20
13427100.392334
 30
0.0
 10
28251263.593406
 20
13367871.345265
 30
0.0
 10
28324326.328791
 20
13367871.335036
 30
0.0
  0
SPLINE
  5
253
100
AcDbEntity
  8
cutting
 62
5
100
AcDbSpline
 70
8
 71
3
 72
8
 73
4
 74
0
 40
0
 40
0
 40
0
 40
0
 40
1
 40
1
 40
1
 40
1
 10
30044119.633300
 20
17204333.322018
 30
0.0
 10
30044119.623087
 20
17277396.057374
 30
0.0
 10
29984890.576030
 20
17336625.104443
 30
0.0
 10
29911827.840645
 20
17336625.114672
 30
0.0
  0
SPLINE
  5
254
100
AcDbEntity
  8
cutting
 62
5
100
AcDbSpline
 70
8
 71
3
 72
8
 73
4
 74
0
 40
0
 40
0
 40
0
 40
0
 40
1
 40
1
 40
1
 40
1
 10
28324326.328791
 20
17336625.114672
 30
0.0
 10
28251263.593406
 20
17336625.104443
 30
0.0
 10
28192034.546349
 20
17277396.057374
 30
0.0
 10
28192034.536136
 20
17204333.321989
 30
0.0
  0
LWPOLYLINE
  5
255
100
AcDbEntity
  8
cutting
 62
5
100
AcDbPolyline
 90
2
 70
0
 10
30556885.267464
 20
17601417.721014
 30
0.0
 10
33996466.584811
 20
17601417.721014
 30
0.0
  0
LWPOLYLINE
  5
256
100
AcDbEntity
  8
cutting
 62
5
100
AcDbPolyline
 90
2
 70
0
 10
30044116.987464
 20
17204494.718005
 30
0.0
 10
30044116.987464
 20
13499861.502403
 30
0.0
  0
LWPOLYLINE
  5
257
100
AcDbEntity
  8
cutting
 62
5
100
AcDbPolyline
 90
2
 70
0
 10
28192037.181972
 20
17204494.718005
 30
0.0
 10
28192037.181972
 20
13499861.502403
 30
0.0
  0
LWPOLYLINE
  5
258
100
AcDbEntity
  8
cutting
 62
5
100
AcDbPolyline
 90
2
 70
0
 10
28324326.328791
 20
13367551.188898
 30
0.0
 10
29911830.486481
 20
13367551.188898
 30
0.0
  0
SPLINE
  5
259
100
AcDbEntity
  8
cutting
 62
5
100
AcDbSpline
 70
8
 71
3
 72
8
 73
4
 74
0
 40
0
 40
0
 40
0
 40
0
 40
1
 40
1
 40
1
 40
1
 10
36229025.523484
 20
13367871.335036
 30
0.0
 10
36302088.258869
 20
13367871.345265
 30
0.0
 10
36361317.305926
 20
13427100.392334
 30
0.0
 10
36361317.316139
 20
13500163.127719
 30
0.0
  0
SPLINE
  5
25a
100
AcDbEntity
  8
cutting
 62
5
100
AcDbSpline
 70
8
 71
3
 72
8
 73
4
 74
0
 40
0
 40
0
 40
0
 40
0
 40
1
 40
1
 40
1
 40
1
 10
34509232.218975
 20
13500163.127691
 30
0.0
 10
34509232.229188
 20
13427100.392334
 30
0.0
 10
34568461.276245
 20
13367871.345265
 30
0.0
 10
34641524.011630
 20
13367871.335036
 30
0.0
  0
SPLINE
  5
25b
100
AcDbEntity
  8
cutting
 62
5
100
AcDbSpline
 70
8
 71
3
 72
8
 73
4
 74
0
 40
0
 40
0
 40
0
 40
0
 40
1
 40
1
 40
1
 40
1
 10
36361317.316139
 20
17204333.322018
 30
0.0
 10
36361317.305926
 20
17277396.057374
 30
0.0
 10
36302088.258869
 20
17336625.104443
 30
0.0
 10
36229025.523484
 20
17336625.114672
 30
0.0
  0
SPLINE
  5
25c
100
AcDbEntity
  8
cutting
 62
5
100
AcDbSpline
 70
8
 71
3
 72
8
 73
4
 74
0
 40
0
 40
0
 40
0
 40
0
 40
1
 40
1
 40
1
 40
1
 10
34641524.011630
 20
17336625.114672
 30
0.0
 10
34568461.276245
 20
17336625.104443
 30
0.0
 10
34509232.229188
 20
17277396.057374
 30
0.0
 10
34509232.218975
 20
17204333.321989
 30
0.0
  0
LWPOLYLINE
  5
25d
100
AcDbEntity
  8
cutting
 62
5
100
AcDbPolyline
 90
2
 70
0
 10
28324326.328791
 20
17336802.385674
 30
0.0
 10
29911830.486481
 20
17336802.385674
 30
0.0
  0
LWPOLYLINE
  5
25e
100
AcDbEntity
  8
cutting
 62
5
100
AcDbPolyline
 90
2
 70
0
 10
36361293.503616
 20
17204494.718005
 30
0.0
 10
36361293.503616
 20
13499861.502403
 30
0.0
  0
LWPOLYLINE
  5
25f
100
AcDbEntity
  8
cutting
 62
5
100
AcDbPolyline
 90
2
 70
0
 10
34509256.031498
 20
17204494.718005
 30
0.0
 10
34509256.031498
 20
13499861.502403
 30
0.0
  0
LWPOLYLINE
  5
260
100
AcDbEntity
  8
cutting
 62
5
100
AcDbPolyline
 90
2
 70
0
 10
34641494.907435
 20
13367551.188898
 30
0.0
 10
36229054.627679
 20
13367551.188898
 30
0.0
  0
SPLINE
  5
261
100
AcDbEntity
  8
cutting
 62
5
100
AcDbSpline
 70
8
 71
3
 72
8
 73
4
 74
0
 40
0
 40
0
 40
0
 40
0
 40
1
 40
1
 40
1
 40
1
 10
41556945.180853
 20
13897038.505654
 30
0.0
 10
41630007.916238
 20
13897038.515883
 30
0.0
 10
41689236.963294
 20
13956267.562952
 30
0.0
 10
41689236.973507
 20
14029330.298337
 30
0.0
  0
SPLINE
  5
262
100
AcDbEntity
  8
cutting
 62
5
100
AcDbSpline
 70
8
 71
3
 72
8
 73
4
 74
0
 40
0
 40
0
 40
0
 40
0
 40
1
 40
1
 40
1
 40
1
 10
37985066.779180
 20
14029330.298309
 30
0.0
 10
37985066.789394
 20
13956267.562952
 30
0.0
 10
38044295.836450
 20
13897038.515883
 30
0.0
 10
38117358.571835
 20
13897038.505654
 30
0.0
  0
SPLINE
  5
263
100
AcDbEntity
  8
cutting
 62
5
100
AcDbSpline
 70
8
 71
3
 72
8
 73
4
 74
0
 40
0
 40
0
 40
0
 40
0
 40
1
 40
1
 40
1
 40
1
 10
41689236.973507
 20
17468916.907327
 30
0.0
 10
41689236.963294
 20
17541979.642683
 30
0.0
 10
41630007.916238
 20
17601208.689752
 30
0.0
 10
41556945.180853
 20
17601208.699981
 30
0.0
  0
SPLINE
  5
264
100
AcDbEntity
  8
cutting
 62
5
100
AcDbSpline
 70
8
 71
3
 72
8
 73
4
 74
0
 40
0
 40
0
 40
0
 40
0
 40
1
 40
1
 40
1
 40
1
 10
38117358.571835
 20
17601208.699981
 30
0.0
 10
38044295.836450
 20
17601208.689752
 30
0.0
 10
37985066.789394
 20
17541979.642683
 30
0.0
 10
37985066.779180
 20
17468916.907298
 30
0.0
  0
LWPOLYLINE
  5
265
100
AcDbEntity
  8
cutting
 62
5
100
AcDbPolyline
 90
2
 70
0
 10
34641494.907435
 20
17336802.385674
 30
0.0
 10
36229054.627679
 20
17336802.385674
 30
0.0
  0
LWPOLYLINE
  5
266
100
AcDbEntity
  8
cutting
 62
5
100
AcDbPolyline
 90
2
 70
0
 10
41689258.140194
 20
17469110.053344
 30
0.0
 10
41689258.140194
 20
14029094.818918
 30
0.0
  0
LWPOLYLINE
  5
267
100
AcDbEntity
  8
cutting
 62
5
100
AcDbPolyline
 90
2
 70
0
 10
37985045.612494
 20
17469110.053344
 30
0.0
 10
37985045.612494
 20
14029094.818918
 30
0.0
  0
LWPOLYLINE
  5
268
100
AcDbEntity
  8
cutting
 62
5
100
AcDbPolyline
 90
2
 70
0
 10
38117353.280163
 20
13896784.505412
 30
0.0
 10
41556950.472524
 20
13896784.505412
 30
0.0
  0
SPLINE
  5
269
100
AcDbEntity
  8
cutting
 62
5
100
AcDbSpline
 70
8
 71
3
 72
8
 73
4
 74
0
 40
0
 40
0
 40
0
 40
0
 40
1
 40
1
 40
1
 40
1
 10
51637579.781128
 20
13897038.505654
 30
0.0
 10
51710642.516513
 20
13897038.515883
 30
0.0
 10
51769871.563569
 20
13956267.562952
 30
0.0
 10
51769871.573783
 20
14029330.298337
 30
0.0
  0
SPLINE
  5
26a
100
AcDbEntity
  8
cutting
 62
5
100
AcDbSpline
 70
8
 71
3
 72
8
 73
4
 74
0
 40
0
 40
0
 40
0
 40
0
 40
1
 40
1
 40
1
 40
1
 10
48065701.379456
 20
14029330.298309
 30
0.0
 10
48065701.389669
 20
13956267.562952
 30
0.0
 10
48124930.436725
 20
13897038.515883
 30
0.0
 10
48197993.172110
 20
13897038.505654
 30
0.0
  0
SPLINE
  5
26b
100
AcDbEntity
  8
cutting
 62
5
100
AcDbSpline
 70
8
 71
3
 72
8
 73
4
 74
0
 40
0
 40
0
 40
0
 40
0
 40
1
 40
1
 40
1
 40
1
 10
51769871.573783
 20
17468916.907327
 30
0.0
 10
51769871.563569
 20
17541979.642683
 30
0.0
 10
51710642.516513
 20
17601208.689752
 30
0.0
 10
51637579.781128
 20
17601208.699981
 30
0.0
  0
SPLINE
  5
26c
100
AcDbEntity
  8
cutting
 62
5
100
AcDbSpline
 70
8
 71
3
 72
8
 73
4
 74
0
 40
0
 40
0
 40
0
 40
0
 40
1
 40
1
 40
1
 40
1
 10
48197993.172110
 20
17601208.699981
 30
0.0
 10
48124930.436725
 20
17601208.689752
 30
0.0
 10
48065701.389669
 20
17541979.642683
 30
0.0
 10
48065701.379456
 20
17468916.907298
 30
0.0
  0
LWPOLYLINE
  5
26d
100
AcDbEntity
  8
cutting
 62
5
100
AcDbPolyline
 90
2
 70
0
 10
38117353.280163
 20
17601417.721014
 30
0.0
 10
41556950.472524
 20
17601417.721014
 30
0.0
  0
LWPOLYLINE
  5
26e
100
AcDbEntity
  8
cutting
 62
5
100
AcDbPolyline
 90
2
 70
0
 10
51769892.740469
 20
17469110.053344
 30
0.0
 10
51769892.740469
 20
14029094.818918
 30
0.0
  0
LWPOLYLINE
  5
26f
100
AcDbEntity
  8
cutting
 62
5
100
AcDbPolyline
 90
2
 70
0
 10
48065680.212769
 20
17469110.053344
 30
0.0
 10
48065680.212769
 20
14029094.818918
 30
0.0
  0
LWPOLYLINE
  5
270
100
AcDbEntity
  8
cutting
 62
5
100
AcDbPolyline
 90
2
 70
0
 10
48197987.880439
 20
13896784.505412
 30
0.0
 10
51637585.072800
 20
13896784.505412
 30
0.0
  0
LWPOLYLINE
  5
271
100
AcDbEntity
  8
cutting
 62
5
100
AcDbPolyline
 90
2
 70
0
 10
48197987.880439
 20
17601417.721014
 30
0.0
 10
51637585.072800
 20
17601417.721014
 30
0.0
  0
ENDSEC
  0
SECTION
  2
OBJECTS
  0
DICTIONARY
  5
C
330
0
100
AcDbDictionary
  3
ACAD_GROUP
350
D
  3
ACAD_MLINESTYLE
350
17
  0
DICTIONARY
  5
D
330
C
100
AcDbDictionary
  0
DICTIONARY
  5
1A
330
C
100
AcDbDictionary
  0
DICTIONARY
  5
17
330
C
100
AcDbDictionary
  3
STANDARD
350
18
  0
DICTIONARY
  5
19
330
C
100
AcDbDictionary
  0
ENDSEC
  0
EOF
