<?xml version="1.0" encoding="UTF-8" standalone="no"?>
<!-- Created with Inkscape (http://www.inkscape.org/) -->

<svg
   xmlns:dc="http://purl.org/dc/elements/1.1/"
   xmlns:cc="http://creativecommons.org/ns#"
   xmlns:rdf="http://www.w3.org/1999/02/22-rdf-syntax-ns#"
   xmlns:svg="http://www.w3.org/2000/svg"
   xmlns="http://www.w3.org/2000/svg"
   xmlns:sodipodi="http://sodipodi.sourceforge.net/DTD/sodipodi-0.dtd"
   xmlns:inkscape="http://www.inkscape.org/namespaces/inkscape"
   id="svg3276"
   version="1.1"
   inkscape:version="0.48.2 r9819"
   width="4251.9625"
   height="2125.9875"
   xml:space="preserve"
   sodipodi:docname="inkscape example.dxf"><metadata
     id="metadata3282"><rdf:RDF><cc:Work
         rdf:about=""><dc:format>image/svg+xml</dc:format><dc:type
           rdf:resource="http://purl.org/dc/dcmitype/StillImage" /><dc:title></dc:title></cc:Work></rdf:RDF></metadata><defs
     id="defs3280"><clipPath
       clipPathUnits="userSpaceOnUse"
       id="clipPath3294"><path
         d="m 0,1700.787 3401.575,0 L 3401.575,0 0,0 0,1700.787 z"
         id="path3296" /></clipPath><clipPath
       clipPathUnits="userSpaceOnUse"
       id="clipPath3482"><path
         d="m 0,1700.787 3401.575,0 L 3401.575,0 0,0 0,1700.787 z"
         id="path3484" /></clipPath><clipPath
       clipPathUnits="userSpaceOnUse"
       id="clipPath3492"><path
         d="m 0,1700.787 3401.575,0 L 3401.575,0 0,0 0,1700.787 z"
         id="path3494" /></clipPath></defs><sodipodi:namedview
     pagecolor="#ffffff"
     bordercolor="#666666"
     borderopacity="1"
     objecttolerance="10"
     gridtolerance="10"
     guidetolerance="10"
     inkscape:pageopacity="0"
     inkscape:pageshadow="2"
     inkscape:window-width="1920"
     inkscape:window-height="1017"
     id="namedview3278"
     showgrid="false"
     inkscape:zoom="0.21354845"
     inkscape:cx="3437.8734"
     inkscape:cy="925.94649"
     inkscape:window-x="1276"
     inkscape:window-y="-4"
     inkscape:window-maximized="1"
     inkscape:current-layer="layer3" /><g
     inkscape:groupmode="layer"
     id="layer1"
     inkscape:label="cut"
     style="display:inline"><g
       transform="matrix(1.25,0,0,-1.25,0,2125.9875)"
       style="display:inline"
       clip-path="url(#clipPath3294)"
       id="g3292"><g
         transform="translate(368.2441,1108.026)"
         id="g3298"><path
           inkscape:connector-curvature="0"
           id="path3300"
           style="fill:none;stroke:#0000ff;stroke-width:0.5;stroke-linecap:round;stroke-linejoin:round;stroke-miterlimit:10;stroke-opacity:1;stroke-dasharray:none"
           d="M 0,0 C 0,2.74 -2.221,4.961 -4.961,4.961 -7.7,4.961 -9.921,2.74 -9.921,0 c 0,-2.74 2.221,-4.961 4.96,-4.961 C -2.221,-4.961 0,-2.74 0,0 z" /></g><g
         transform="translate(379.4012,1225.7587)"
         id="g3302"><path
           inkscape:connector-curvature="0"
           id="path3304"
           style="fill:none;stroke:#0000ff;stroke-width:0.5;stroke-linecap:round;stroke-linejoin:round;stroke-miterlimit:10;stroke-opacity:1;stroke-dasharray:none"
           d="m 0,0 -10.244,-44.882 -6.467,1.476 10.244,44.882" /></g><g
         transform="translate(461.5364,1119.5511)"
         id="g3306"><path
           inkscape:connector-curvature="0"
           id="path3308"
           style="fill:none;stroke:#0000ff;stroke-width:0.5;stroke-linecap:round;stroke-linejoin:round;stroke-miterlimit:10;stroke-opacity:1;stroke-dasharray:none"
           d="m 0,0 c 0,60.629 -49.149,109.778 -109.778,109.778 -60.629,0 -109.778,-49.149 -109.778,-109.778 0,-60.629 49.149,-109.778 109.778,-109.778 C -49.149,-109.778 0,-60.629 0,0 z" /></g><g
         transform="translate(425.8714,939.6911)"
         id="g3310"><path
           inkscape:connector-curvature="0"
           id="path3312"
           style="fill:none;stroke:#0000ff;stroke-width:0.5;stroke-linecap:round;stroke-linejoin:round;stroke-miterlimit:10;stroke-opacity:1;stroke-dasharray:none"
           d="m 0,0 -29.801,-14.351 -2.877,5.976 29.8,14.351" /></g><g
         transform="translate(345.1936,1131.0765)"
         id="g3314"><path
           inkscape:connector-curvature="0"
           id="path3316"
           style="fill:none;stroke:#0000ff;stroke-width:0.5;stroke-linecap:round;stroke-linejoin:round;stroke-miterlimit:10;stroke-opacity:1;stroke-dasharray:none"
           d="M 0,0 C 0,2.74 -2.221,4.961 -4.961,4.961 -7.7,4.961 -9.921,2.74 -9.921,0 c 0,-2.74 2.221,-4.961 4.96,-4.961 C -2.221,-4.961 0,-2.74 0,0 z" /></g><g
         transform="translate(368.5633,989.0739)"
         id="g3318"><path
           inkscape:connector-curvature="0"
           id="path3320"
           style="fill:none;stroke:#0000ff;stroke-width:0.5;stroke-linecap:round;stroke-linejoin:round;stroke-miterlimit:10;stroke-opacity:1;stroke-dasharray:none"
           d="m 0,0 -7.36,-32.247 -6.467,1.476 7.36,32.247" /></g><g
         transform="translate(373.0657,1129.7559)"
         id="g3322"><path
           inkscape:connector-curvature="0"
           id="path3324"
           style="fill:none;stroke:#0000ff;stroke-width:0.5;stroke-linecap:round;stroke-linejoin:round;stroke-miterlimit:10;stroke-opacity:1;stroke-dasharray:none"
           d="m 0,0 0,-0.567 0.164,-0.371 0.157,-0.373 0.151,-0.377 0.145,-0.379 0.138,-0.381 0.131,-0.384 0.124,-0.385 0.118,-0.388 0.111,-0.39 0.104,-0.392 0.098,-0.394 0.09,-0.395 0.084,-0.397 0.077,-0.398 0.07,-0.399 0.063,-0.401 0.056,-0.401 0.049,-0.403 0.042,-0.403 0.035,-0.404 0.028,-0.404 0.021,-0.405 0.014,-0.406 0.008,-0.405 0,-0.405 -0.008,-0.406 -0.014,-0.405 -0.021,-0.405 -0.028,-0.404 -0.035,-0.404 -0.042,-0.404 -0.049,-0.402 -0.056,-0.402 -0.063,-0.4 -0.07,-0.4 -0.077,-0.398 -0.084,-0.396 -0.09,-0.396 -0.098,-0.393 -0.104,-0.392 -0.111,-0.39 L 1.01,-17.192 0.886,-17.578 0.755,-17.961 0.617,-18.343 0.472,-18.722 0.321,-19.098 0.164,-19.472 0,-19.843 l 0,-0.566 -1.226,0 -0.094,0.45 -0.035,0.162 -0.019,0.081 -0.02,0.08 -0.02,0.08 -0.022,0.08 -0.021,0.08 -0.023,0.079 -0.023,0.079 -0.024,0.078 -0.025,0.078 -0.026,0.078 -0.026,0.078 -0.027,0.077 -0.027,0.076 -0.028,0.077 -0.029,0.076 -0.03,0.075 -0.03,0.075 -0.031,0.075 -0.031,0.074 -0.032,0.074 -0.033,0.073 -0.033,0.073 -0.034,0.073 -0.035,0.072 -0.035,0.071 -0.035,0.071 -0.037,0.071 -0.036,0.07 -0.038,0.069 -0.038,0.069 -0.038,0.069 -0.039,0.068 -0.039,0.067 -0.04,0.067 -0.041,0.067 -0.041,0.066 -0.041,0.065 -0.042,0.065 -0.043,0.064 -0.043,0.064 -0.043,0.063 -0.044,0.062 -0.044,0.063 -0.044,0.061 -0.045,0.061 -0.046,0.06 -0.092,0.119 -0.093,0.117 -0.095,0.114 -0.096,0.112 -0.098,0.11 -0.098,0.107 -0.1,0.105 -0.101,0.102 -0.068,0.068 -0.069,0.067 -0.07,0.066 -0.071,0.066 -0.073,0.065 -0.073,0.065 -0.074,0.064 -0.076,0.064 -0.076,0.063 -0.078,0.063 -0.078,0.061 -0.08,0.061 -0.08,0.061 -0.082,0.06 -0.083,0.059 -0.083,0.058 -0.085,0.057 -0.085,0.057 -0.087,0.056 -0.088,0.055 -0.088,0.054 -0.089,0.053 -0.091,0.052 -0.091,0.052 -0.092,0.05 -0.093,0.049 -0.094,0.049 -0.095,0.047 -0.095,0.047 -0.097,0.045 -0.097,0.044 -0.098,0.043 -0.099,0.043 -0.1,0.04 -0.1,0.04 -0.101,0.039 -0.102,0.037 -0.103,0.037 -0.103,0.035 -0.104,0.033 -0.104,0.033 -0.105,0.031 -0.106,0.03 -0.106,0.029 -0.107,0.027 -0.107,0.026 -0.107,0.025 -0.109,0.023 -0.108,0.022 -0.109,0.021 -0.11,0.019 -0.109,0.018 -0.11,0.016 -0.111,0.016 -0.11,0.013 -0.111,0.012 -0.111,0.011 -0.112,0.01 -0.111,0.008 -0.112,0.006 -0.112,0.005 -0.111,0.004 -0.112,0.002 -0.112,0.001 -0.112,-0.001 -0.112,-0.002 -0.112,-0.004 -0.111,-0.005 -0.112,-0.006 -0.112,-0.008 -0.111,-0.01 -0.111,-0.011 -0.111,-0.012 -0.111,-0.013 -0.11,-0.016 -0.11,-0.016 -0.11,-0.018 -0.109,-0.019 -0.109,-0.021 -0.109,-0.022 -0.108,-0.023 -0.108,-0.025 -0.107,-0.026 -0.106,-0.027 -0.107,-0.029 -0.105,-0.03 -0.105,-0.031 -0.105,-0.033 -0.104,-0.033 -0.103,-0.035 -0.102,-0.037 -0.102,-0.037 -0.101,-0.039 -0.1,-0.04 -0.1,-0.04 -0.099,-0.043 -0.098,-0.043 -0.097,-0.044 -0.097,-0.045 -0.095,-0.047 -0.095,-0.047 -0.094,-0.049 -0.093,-0.049 -0.093,-0.05 -0.091,-0.052 -0.09,-0.052 -0.089,-0.053 -0.089,-0.054 -0.087,-0.055 -0.087,-0.056 -0.085,-0.057 -0.085,-0.057 -0.084,-0.058 -0.082,-0.059 -0.082,-0.06 -0.08,-0.061 -0.08,-0.061 -0.079,-0.061 -0.077,-0.063 -0.077,-0.063 -0.075,-0.064 -0.074,-0.064 -0.074,-0.065 -0.072,-0.065 -0.071,-0.066 -0.07,-0.066 -0.069,-0.067 -0.069,-0.068 -0.1,-0.102 -0.1,-0.105 -0.099,-0.107 -0.097,-0.11 -0.096,-0.112 -0.095,-0.114 -0.094,-0.117 -0.092,-0.119 -0.045,-0.06 -0.045,-0.061 -0.045,-0.061 -0.044,-0.063 -0.044,-0.062 -0.043,-0.063 -0.043,-0.064 -0.042,-0.064 -0.042,-0.065 -0.041,-0.065 -0.042,-0.066 -0.04,-0.067 -0.04,-0.067 -0.039,-0.067 -0.039,-0.068 -0.039,-0.069 -0.038,-0.069 -0.037,-0.069 -0.037,-0.07 -0.036,-0.071 -0.036,-0.071 -0.035,-0.071 -0.034,-0.072 -0.034,-0.073 -0.034,-0.073 -0.032,-0.073 -0.032,-0.074 -0.032,-0.074 -0.031,-0.075 -0.03,-0.075 -0.029,-0.075 -0.029,-0.076 -0.028,-0.077 -0.028,-0.076 -0.027,-0.077 -0.026,-0.078 -0.025,-0.078 -0.025,-0.078 -0.024,-0.078 -0.023,-0.079 -0.023,-0.079 -0.022,-0.08 -0.021,-0.08 -0.02,-0.08 -0.02,-0.08 -0.019,-0.081 -0.018,-0.08 -0.018,-0.082 -0.094,-0.45 -24.276,0 0,0.566 -0.164,0.371 -0.157,0.374 -0.151,0.376 -0.145,0.379 -0.137,0.382 -0.132,0.383 -0.124,0.386 -0.118,0.388 -0.111,0.39 -0.104,0.392 -0.098,0.393 -0.09,0.396 -0.084,0.396 -0.077,0.398 -0.07,0.4 -0.063,0.4 -0.056,0.402 -0.049,0.402 -0.042,0.404 -0.035,0.404 -0.028,0.404 -0.021,0.405 -0.014,0.405 -0.007,0.406 0,0.405 0.007,0.405 0.014,0.406 0.021,0.405 0.028,0.404 0.035,0.404 0.042,0.403 0.049,0.403 0.056,0.401 0.063,0.401 0.07,0.399 0.077,0.398 0.084,0.397 0.09,0.395 0.098,0.394 0.104,0.392 0.111,0.39 0.118,0.388 0.124,0.385 0.132,0.384 0.137,0.381 0.145,0.379 0.151,0.377 0.157,0.373 0.164,0.371 0,0.567 1.226,0 0.094,-0.451 0.036,-0.162 0.018,-0.08 0.02,-0.081 0.02,-0.08 0.022,-0.08 0.021,-0.079 0.023,-0.079 0.023,-0.079 0.025,-0.079 0.024,-0.078 0.026,-0.078 0.026,-0.077 0.027,-0.077 0.027,-0.077 0.028,-0.076 0.029,-0.076 0.03,-0.076 0.03,-0.075 0.031,-0.074 0.031,-0.075 0.032,-0.073 0.033,-0.074 0.033,-0.073 0.034,-0.072 0.034,-0.072 0.036,-0.071 0.035,-0.071 0.037,-0.071 0.036,-0.07 0.038,-0.07 0.038,-0.069 0.038,-0.068 0.039,-0.068 0.04,-0.068 0.039,-0.067 0.041,-0.066 0.041,-0.066 0.041,-0.065 0.042,-0.065 0.043,-0.064 0.043,-0.064 0.043,-0.063 0.044,-0.063 0.044,-0.062 0.044,-0.061 0.045,-0.061 0.046,-0.061 0.092,-0.119 0.093,-0.116 0.095,-0.115 0.096,-0.112 0.098,-0.109 0.098,-0.107 0.1,-0.105 0.101,-0.103 0.068,-0.067 0.069,-0.067 0.07,-0.066 0.071,-0.066 0.073,-0.066 0.073,-0.064 0.074,-0.065 0.076,-0.063 0.076,-0.063 0.078,-0.063 0.078,-0.062 0.08,-0.061 0.081,-0.06 0.081,-0.06 0.083,-0.059 0.083,-0.058 0.085,-0.058 0.086,-0.056 0.086,-0.056 0.088,-0.055 0.088,-0.054 0.089,-0.053 0.091,-0.053 0.091,-0.051 0.092,-0.05 0.093,-0.05 0.094,-0.048 0.095,-0.048 0.095,-0.046 0.097,-0.045 0.097,-0.045 0.098,-0.043 0.099,-0.042 0.1,-0.041 0.1,-0.04 0.101,-0.038 0.102,-0.038 0.103,-0.036 0.103,-0.035 0.104,-0.034 0.104,-0.032 0.105,-0.032 0.106,-0.029 0.106,-0.029 0.107,-0.028 0.107,-0.026 0.108,-0.024 0.108,-0.024 0.108,-0.022 0.109,-0.02 0.11,-0.02 0.109,-0.017 0.11,-0.017 0.111,-0.015 0.111,-0.014 0.11,-0.012 0.111,-0.011 0.112,-0.009 0.111,-0.008 0.112,-0.007 0.112,-0.005 0.112,-0.003 0.111,-0.002 0.112,-0.001 0.112,0.001 0.112,0.002 0.112,0.003 0.112,0.005 0.111,0.007 0.112,0.008 0.111,0.009 0.111,0.011 0.111,0.012 0.111,0.014 0.11,0.015 0.11,0.017 0.11,0.017 0.109,0.02 0.109,0.02 0.109,0.022 0.108,0.024 0.108,0.024 0.107,0.026 0.107,0.028 0.106,0.029 0.105,0.029 0.105,0.032 0.105,0.032 0.104,0.034 0.103,0.035 0.102,0.036 0.102,0.038 0.101,0.038 0.101,0.04 0.099,0.041 0.099,0.042 0.098,0.043 0.098,0.045 0.096,0.045 0.096,0.046 0.094,0.048 0.094,0.048 0.093,0.05 0.092,0.05 0.092,0.051 0.09,0.053 0.09,0.053 0.088,0.054 0.088,0.055 0.086,0.056 0.086,0.056 0.084,0.058 0.084,0.058 0.082,0.059 0.082,0.06 0.081,0.06 0.079,0.061 0.079,0.062 0.077,0.063 0.077,0.063 0.075,0.063 0.074,0.065 0.074,0.064 0.072,0.066 0.071,0.066 0.07,0.066 0.07,0.067 0.068,0.067 0.101,0.103 0.099,0.105 0.099,0.107 0.097,0.109 0.096,0.112 0.095,0.115 0.094,0.116 0.092,0.119 0.045,0.061 0.045,0.061 0.045,0.061 0.044,0.062 0.044,0.063 0.043,0.063 0.043,0.064 0.042,0.064 0.042,0.065 0.041,0.065 0.042,0.066 0.04,0.066 0.04,0.067 0.04,0.068 0.038,0.068 0.039,0.068 0.038,0.069 0.037,0.07 0.037,0.07 0.036,0.071 0.036,0.071 0.035,0.071 0.034,0.072 0.034,0.072 0.034,0.073 0.032,0.074 0.032,0.073 0.032,0.075 0.031,0.074 0.03,0.075 0.029,0.076 0.029,0.076 0.028,0.076 0.028,0.077 0.027,0.077 0.026,0.077 0.025,0.078 0.025,0.078 0.024,0.079 0.023,0.079 0.023,0.079 0.022,0.079 0.021,0.08 0.02,0.08 0.02,0.081 0.019,0.08 0.018,0.081 0.018,0.081 L -24.276,0 0,0 z" /></g><g
         transform="translate(433.1631,904.8818)"
         id="g3326"><path
           inkscape:connector-curvature="0"
           id="path3328"
           style="fill:none;stroke:#0000ff;stroke-width:0.5;stroke-linecap:round;stroke-linejoin:round;stroke-miterlimit:10;stroke-opacity:1;stroke-dasharray:none"
           d="m 0,0 c 0,48.169 -39.049,87.218 -87.218,87.218 -48.169,0 -87.218,-39.049 -87.218,-87.218 0,-48.169 39.049,-87.218 87.218,-87.218 C -39.049,-87.218 0,-48.169 0,0 z" /></g><g
         transform="translate(280.771,1035.8553)"
         id="g3330"><path
           inkscape:connector-curvature="0"
           id="path3332"
           style="fill:none;stroke:#0000ff;stroke-width:0.5;stroke-linecap:round;stroke-linejoin:round;stroke-miterlimit:10;stroke-opacity:1;stroke-dasharray:none"
           d="M 0,0 28.703,35.993 33.889,31.857 5.186,-4.136" /></g><g
         transform="translate(449.1517,1068.9679)"
         id="g3334"><path
           inkscape:connector-curvature="0"
           id="path3336"
           style="fill:none;stroke:#0000ff;stroke-width:0.5;stroke-linecap:round;stroke-linejoin:round;stroke-miterlimit:10;stroke-opacity:1;stroke-dasharray:none"
           d="m 0,0 -41.477,19.974 2.878,5.977 L 2.878,5.976" /></g><g
         transform="translate(294.2233,975.0582)"
         id="g3338"><path
           inkscape:connector-curvature="0"
           id="path3340"
           style="fill:none;stroke:#0000ff;stroke-width:0.5;stroke-linecap:round;stroke-linejoin:round;stroke-miterlimit:10;stroke-opacity:1;stroke-dasharray:none"
           d="M 0,0 20.622,-25.86 15.437,-29.995 -5.186,-4.136" /></g><g
         transform="translate(422.9934,864.0961)"
         id="g3342"><path
           inkscape:connector-curvature="0"
           id="path3344"
           style="fill:none;stroke:#0000ff;stroke-width:0.5;stroke-linecap:round;stroke-linejoin:round;stroke-miterlimit:10;stroke-opacity:1;stroke-dasharray:none"
           d="m 0,0 -29.8,14.351 2.877,5.976 L 2.878,5.976" /></g><g
         transform="translate(285.957,1207.3826)"
         id="g3346"><path
           inkscape:connector-curvature="0"
           id="path3348"
           style="fill:none;stroke:#0000ff;stroke-width:0.5;stroke-linecap:round;stroke-linejoin:round;stroke-miterlimit:10;stroke-opacity:1;stroke-dasharray:none"
           d="M 0,0 28.703,-35.993 23.517,-40.128 -5.186,-4.136" /></g><g
         transform="translate(452.0297,1164.1583)"
         id="g3350"><path
           inkscape:connector-curvature="0"
           id="path3352"
           style="fill:none;stroke:#0000ff;stroke-width:0.5;stroke-linecap:round;stroke-linejoin:round;stroke-miterlimit:10;stroke-opacity:1;stroke-dasharray:none"
           d="m 0,0 -41.477,-19.974 -2.878,5.976 41.477,19.974" /></g><g
         transform="translate(289.0373,838.8409)"
         id="g3354"><path
           inkscape:connector-curvature="0"
           id="path3356"
           style="fill:none;stroke:#0000ff;stroke-width:0.5;stroke-linecap:round;stroke-linejoin:round;stroke-miterlimit:10;stroke-opacity:1;stroke-dasharray:none"
           d="M 0,0 20.623,25.86 25.808,21.724 5.186,-4.136" /></g><g
         transform="translate(362.0965,819.2136)"
         id="g3358"><path
           inkscape:connector-curvature="0"
           id="path3360"
           style="fill:none;stroke:#0000ff;stroke-width:0.5;stroke-linecap:round;stroke-linejoin:round;stroke-miterlimit:10;stroke-opacity:1;stroke-dasharray:none"
           d="m 0,0 -7.36,32.247 6.467,1.476 7.36,-32.247" /></g><g
         transform="translate(372.9345,1011.8677)"
         id="g3362"><path
           inkscape:connector-curvature="0"
           id="path3364"
           style="fill:none;stroke:#0000ff;stroke-width:0.5;stroke-linecap:round;stroke-linejoin:round;stroke-miterlimit:10;stroke-opacity:1;stroke-dasharray:none"
           d="M 0,0 -10.244,44.882 -3.777,46.358 6.467,1.476" /></g><g
         transform="translate(198.6641,1219.4008)"
         id="g3366"><path
           inkscape:connector-curvature="0"
           id="path3368"
           style="fill:none;stroke:#0000ff;stroke-width:0.5;stroke-linecap:round;stroke-linejoin:round;stroke-miterlimit:10;stroke-opacity:1;stroke-dasharray:none"
           d="m 0,0 32.756,-5.757 1.869,-27.658 -0.11,-0.664 -6.026,1.049 -1.24,-6.977 8.089,-1.408 -0.123,-0.738 27.756,-410.804 0.368,-67.367 -0.123,-0.698 -5.584,0.981 -1.226,-6.98 7.103,-1.248 -0.123,-0.698 0.764,-140.031 -0.11,-1.11 -0.123,-0.698 -5.583,0.981 -1.227,-6.98 6.211,-1.091 -0.122,-0.698 -11.9,-119.612 -0.122,-0.698 -5.584,0.982 -1.226,-6.98 6.211,-1.092 -0.123,-0.697 L 37.2,-939.906 0,-933.368 0,0 l -32.756,-5.757 -1.869,-27.658 0.11,-0.664 6.025,1.049 1.241,-6.977 -8.088,-1.408 0.122,-0.738 -27.756,-410.804 -0.368,-67.367 0.123,-0.698 5.584,0.981 1.226,-6.98 -7.103,-1.248 0.123,-0.698 -0.764,-140.031 0.11,-1.11 0.123,-0.698 5.583,0.981 1.227,-6.98 -6.212,-1.091 0.123,-0.698 11.9,-119.612 0.122,-0.698 5.584,0.982 1.227,-6.98 -6.212,-1.092 0.123,-0.697 13.252,-133.215 37.2,6.538" /></g><g
         transform="translate(258.8309,908.1983)"
         id="g3370"><path
           inkscape:connector-curvature="0"
           id="path3372"
           style="fill:none;stroke:#0000ff;stroke-width:0.5;stroke-linecap:round;stroke-linejoin:round;stroke-miterlimit:10;stroke-opacity:1;stroke-dasharray:none"
           d="m 0,0 33.076,0 0,-6.633 -33.076,0" /></g><g
         transform="translate(362.953,904.8818)"
         id="g3374"><path
           inkscape:connector-curvature="0"
           id="path3376"
           style="fill:none;stroke:#0000ff;stroke-width:0.5;stroke-linecap:round;stroke-linejoin:round;stroke-miterlimit:10;stroke-opacity:1;stroke-dasharray:none"
           d="m 0,0 c 0,9.393 -7.615,17.008 -17.008,17.008 -9.393,0 -17.008,-7.615 -17.008,-17.008 0,-9.393 7.615,-17.008 17.008,-17.008 C -7.615,-17.008 0,-9.393 0,0 z" /></g><g
         transform="translate(554.6154,411.7817)"
         id="g3378"><path
           inkscape:connector-curvature="0"
           id="path3380"
           style="fill:none;stroke:#0000ff;stroke-width:0.5;stroke-linecap:round;stroke-linejoin:round;stroke-miterlimit:10;stroke-opacity:1;stroke-dasharray:none"
           d="m 0,0 -13.253,-133.214 -37.199,6.537 0,933.368 32.756,-5.756 1.868,-27.658 -0.11,-0.664 -6.025,1.049 -1.24,-6.977 8.088,-1.408 -0.122,-0.738 27.756,-410.805 0.367,-67.367 -0.122,-0.698 -5.584,0.981 -1.227,-6.979 7.103,-1.249 -0.122,-0.698 0.764,-140.031 -0.11,-1.11 -0.123,-0.698 -5.584,0.982 -1.226,-6.98 6.211,-1.092 -0.122,-0.698 L 0.844,8.486 0.721,7.788 -4.862,8.769 -6.089,1.79 0.123,0.698 0,0 z" /></g><g
         transform="translate(504.1631,1218.4731)"
         id="g3382"><path
           inkscape:connector-curvature="0"
           id="path3384"
           style="fill:none;stroke:#0000ff;stroke-width:0.5;stroke-linecap:round;stroke-linejoin:round;stroke-miterlimit:10;stroke-opacity:1;stroke-dasharray:none"
           d="m 0,0 -32.756,-5.757 -1.869,-27.658 0.11,-0.664 6.026,1.049 1.24,-6.977 -8.089,-1.408 0.123,-0.738 -27.756,-410.804 -0.368,-67.367 0.123,-0.698 5.584,0.981 1.226,-6.98 -7.103,-1.248 0.123,-0.698 -0.765,-140.031 0.111,-1.11 0.123,-0.698 5.583,0.981 1.227,-6.98 -6.212,-1.091 0.123,-0.698 11.899,-119.612 0.123,-0.698 5.584,0.982 1.226,-6.98 -6.211,-1.092 0.123,-0.697 13.252,-133.215 37.2,6.538" /></g><g
         transform="translate(75.2832,1078.5107)"
         id="g3386"><path
           inkscape:connector-curvature="0"
           id="path3388"
           style="fill:none;stroke:#0000ff;stroke-width:0.5;stroke-linecap:round;stroke-linejoin:round;stroke-miterlimit:10;stroke-opacity:1;stroke-dasharray:none"
           d="M 0,0 14.414,-14.414" /></g><g
         transform="translate(89.6971,1092.9246)"
         id="g3390"><path
           inkscape:connector-curvature="0"
           id="path3392"
           style="fill:none;stroke:#0000ff;stroke-width:0.5;stroke-linecap:round;stroke-linejoin:round;stroke-miterlimit:10;stroke-opacity:1;stroke-dasharray:none"
           d="M 0,0 -14.414,-14.414" /></g><g
         transform="translate(104.111,1239.9657)"
         id="g3394"><path
           inkscape:connector-curvature="0"
           id="path3396"
           style="fill:none;stroke:#0000ff;stroke-width:0.5;stroke-linecap:round;stroke-linejoin:round;stroke-miterlimit:10;stroke-opacity:1;stroke-dasharray:none"
           d="M 0,0 -14.414,-14.414" /></g><g
         transform="translate(230.1059,1635.5413)"
         id="g3398"><path
           inkscape:connector-curvature="0"
           id="path3400"
           style="fill:none;stroke:#0000ff;stroke-width:0.5;stroke-linecap:round;stroke-linejoin:round;stroke-miterlimit:10;stroke-opacity:1;stroke-dasharray:none"
           d="M 0,0 13.341,-16.785 8.163,-20.93 -5.186,-4.136" /></g><g
         transform="translate(414.3887,1237.9292)"
         id="g3402"><path
           inkscape:connector-curvature="0"
           id="path3404"
           style="fill:none;stroke:#0000ff;stroke-width:0.5;stroke-linecap:round;stroke-linejoin:round;stroke-miterlimit:10;stroke-opacity:1;stroke-dasharray:none"
           d="M 0,0 -4.737,20.911 1.727,22.399 6.466,1.476" /></g><g
         transform="translate(438.5421,1457.7659)"
         id="g3406"><path
           inkscape:connector-curvature="0"
           id="path3408"
           style="fill:none;stroke:#0000ff;stroke-width:0.5;stroke-linecap:round;stroke-linejoin:round;stroke-miterlimit:10;stroke-opacity:1;stroke-dasharray:none"
           d="m 0,0 c 0,39.167 -31.751,70.919 -70.919,70.919 -39.167,0 -70.918,-31.752 -70.918,-70.919 0,-39.167 31.751,-70.919 70.918,-70.919 C -31.751,-70.919 0,-39.167 0,0 z" /></g><g
         transform="translate(142.8646,1457.7659)"
         id="g3410"><path
           inkscape:connector-curvature="0"
           id="path3412"
           style="fill:none;stroke:#0000ff;stroke-width:0.5;stroke-linecap:round;stroke-linejoin:round;stroke-miterlimit:10;stroke-opacity:1;stroke-dasharray:none"
           d="m 0,0 0.014,-2.489 0.041,-2.5 0.07,-2.51 0.099,-2.521 0.127,-2.53 0.156,-2.54 0.186,-2.549 0.216,-2.557 0.246,-2.565 0.277,-2.572 0.308,-2.58 0.339,-2.586 0.37,-2.592 0.403,-2.597 0.434,-2.603 0.466,-2.607 0.499,-2.611 0.532,-2.614 0.565,-2.617 0.599,-2.619 0.631,-2.62 0.666,-2.622 0.699,-2.622 0.733,-2.621 0.767,-2.621 0.802,-2.619 0.836,-2.618 0.871,-2.614 0.905,-2.611 0.94,-2.607 0.974,-2.602 1.01,-2.597 1.044,-2.59 1.079,-2.584 1.114,-2.577 1.149,-2.568 1.183,-2.559 1.219,-2.55 1.253,-2.541 1.287,-2.528 1.322,-2.518 1.356,-2.505 1.391,-2.493 1.424,-2.479 1.459,-2.464 1.492,-2.45 1.525,-2.434 1.559,-2.417 1.591,-2.401 1.625,-2.383 1.656,-2.365 1.689,-2.345 1.72,-2.327 1.752,-2.305 1.783,-2.285 1.814,-2.264 1.844,-2.242 1.873,-2.218 1.904,-2.196 1.932,-2.171 1.961,-2.148 1.989,-2.122 2.017,-2.096 2.043,-2.07 2.071,-2.044 2.096,-2.017 2.122,-1.989 2.147,-1.961 2.172,-1.932 2.196,-1.904 2.218,-1.873 2.242,-1.844 2.263,-1.814 2.285,-1.783 2.306,-1.752 2.327,-1.72 2.345,-1.689 2.365,-1.656 2.383,-1.625 2.401,-1.591 2.417,-1.559 2.434,-1.525 2.45,-1.492 2.464,-1.458 2.479,-1.425 2.493,-1.391 2.505,-1.356 2.517,-1.322 2.529,-1.287 2.54,-1.253 2.55,-1.219 2.56,-1.183 2.568,-1.149 2.577,-1.114 2.584,-1.079 2.59,-1.044 2.597,-1.01 2.602,-0.974 2.607,-0.94 2.611,-0.905 2.614,-0.871 2.618,-0.836 2.619,-0.802 2.621,-0.767 2.621,-0.733 2.622,-0.699 2.622,-0.666 2.62,-0.631 2.619,-0.599 2.617,-0.565 2.614,-0.532 2.611,-0.499 2.607,-0.466 2.603,-0.434 2.597,-0.403 2.592,-0.37 2.586,-0.339 2.58,-0.308 2.572,-0.277 2.565,-0.246 2.557,-0.216 2.549,-0.186 2.54,-0.156 2.53,-0.127 2.521,-0.099 2.51,-0.07 2.5,-0.041 2.489,-0.014 2.489,0.014 2.5,0.041 2.51,0.07 2.521,0.099 2.53,0.127 2.54,0.156 2.548,0.186 2.557,0.216 2.565,0.246 2.573,0.277 2.58,0.308 2.586,0.339 2.592,0.37 2.597,0.403 2.603,0.434 2.607,0.466 2.611,0.499 2.614,0.532 2.616,0.565 2.619,0.599 2.621,0.631 2.622,0.666 2.622,0.699 2.621,0.733 2.621,0.767 2.619,0.802 2.617,0.836 2.615,0.871 2.611,0.905 2.607,0.94 2.602,0.974 2.596,1.01 2.591,1.044 2.584,1.079 2.576,1.114 2.569,1.149 2.559,1.183 2.55,1.219 2.54,1.253 2.529,1.287 2.518,1.322 2.505,1.356 2.493,1.391 2.479,1.425 2.464,1.458 2.45,1.492 2.433,1.525 2.418,1.559 2.401,1.591 2.383,1.625 2.365,1.656 2.345,1.689 2.326,1.72 2.306,1.752 2.285,1.783 2.264,1.814 2.242,1.844 2.218,1.873 2.196,1.904 2.171,1.932 2.147,1.961 2.123,1.989 2.096,2.017 2.07,2.044 2.044,2.07 2.017,2.096 1.989,2.122 1.961,2.148 1.932,2.171 1.903,2.196 1.874,2.218 1.844,2.242 1.814,2.264 1.783,2.285 1.752,2.305 1.72,2.327 1.689,2.345 1.656,2.365 1.624,2.383 1.592,2.401 1.559,2.417 1.525,2.434 1.492,2.45 1.458,2.464 1.425,2.479 1.39,2.493 1.357,2.505 1.322,2.518 1.287,2.528 1.253,2.541 1.218,2.55 1.184,2.559 1.149,2.568 1.114,2.577 1.079,2.584 1.044,2.59 1.01,2.597 0.974,2.602 0.94,2.607 0.905,2.611 0.871,2.614 0.836,2.618 0.802,2.619 0.767,2.621 0.733,2.621 0.699,2.622 0.666,2.622 0.631,2.62 0.598,2.619 0.565,2.617 0.532,2.614 0.5,2.611 0.466,2.607 0.434,2.603 0.402,2.597 0.371,2.592 0.339,2.586 0.308,2.58 0.276,2.572 0.247,2.565 0.216,2.557 0.186,2.549 0.156,2.54 0.127,2.53 0.099,2.521 0.069,2.51 0.042,2.5 0.014,2.489 -0.014,2.489 -0.042,2.5 -0.069,2.51 -0.099,2.521 -0.127,2.53 -0.156,2.54 -0.186,2.549 -0.216,2.557 -0.247,2.565 -0.276,2.572 -0.308,2.58 -0.339,2.586 -0.371,2.592 -0.402,2.597 -0.434,2.603 -0.466,2.607 -0.5,2.611 -0.532,2.614 -0.565,2.617 -0.598,2.619 -0.631,2.62 -0.666,2.622 -0.699,2.622 -0.733,2.621 -0.767,2.621 -0.802,2.619 -0.836,2.618 -0.871,2.614 -0.905,2.611 -0.94,2.607 -0.974,2.602 -1.01,2.597 -1.044,2.59 -1.079,2.584 -1.114,2.577 -1.149,2.568 -1.184,2.559 -1.218,2.551 -1.253,2.54 -1.287,2.528 -1.322,2.518 -1.357,2.505 -1.39,2.493 -1.425,2.479 -1.458,2.464 -1.492,2.45 -1.525,2.434 -1.559,2.417 -1.592,2.401 -1.624,2.383 -1.656,2.365 -1.689,2.345 -1.72,2.327 -1.752,2.305 -1.783,2.285 -1.814,2.264 -1.844,2.242 -1.874,2.218 -1.903,2.196 -1.932,2.171 -1.961,2.148 -1.989,2.122 -2.017,2.096 -2.044,2.07 -2.07,2.044 -2.096,2.017 -2.123,1.989 -2.147,1.961 -2.171,1.932 -2.196,1.904 -2.218,1.873 -2.242,1.844 -2.264,1.814 -2.285,1.783 -2.306,1.752 -2.326,1.72 -2.345,1.689 -2.365,1.656 -2.383,1.625 -2.401,1.591 -2.418,1.559 -2.433,1.525 -2.45,1.492 -2.464,1.458 -2.479,1.425 -2.493,1.391 -2.505,1.356 -2.518,1.322 -2.529,1.287 -2.54,1.253 -2.55,1.218 -2.559,1.184 -2.569,1.149 -2.576,1.114 -2.584,1.079 -2.591,1.044 -2.596,1.01 -2.602,0.974 -2.607,0.94 -2.611,0.905 -2.615,0.871 -2.617,0.836 -2.619,0.802 -2.621,0.767 -2.621,0.733 -2.622,0.699 -2.622,0.666 -2.621,0.631 -2.619,0.599 -2.616,0.565 -2.614,0.531 -2.611,0.5 -2.607,0.466 -2.603,0.434 -2.597,0.403 -2.592,0.37 -2.586,0.339 -2.58,0.308 -2.573,0.277 -2.565,0.246 -2.557,0.216 -2.548,0.186 -2.54,0.156 -2.53,0.127 -2.521,0.099 -2.51,0.069 -2.5,0.042 -2.489,0.014 -2.489,-0.014 -2.5,-0.042 -2.51,-0.069 -2.521,-0.099 -2.53,-0.127 -2.54,-0.156 -2.549,-0.186 -2.557,-0.216 -2.565,-0.246 -2.572,-0.277 -2.58,-0.308 -2.586,-0.339 -2.592,-0.37 -2.597,-0.403 -2.603,-0.434 -2.607,-0.466 -2.611,-0.5 -2.614,-0.531 -2.617,-0.565 -2.619,-0.599 -2.62,-0.631 -2.622,-0.666 -2.622,-0.699 -2.621,-0.733 -2.621,-0.767 -2.619,-0.802 -2.618,-0.836 -2.614,-0.871 -2.611,-0.905 -2.607,-0.94 -2.602,-0.974 -2.597,-1.01 -2.59,-1.044 -2.584,-1.079 -2.577,-1.114 -2.568,-1.149 -2.56,-1.184 -2.55,-1.218 -2.54,-1.253 -2.529,-1.287 -2.517,-1.322 -2.505,-1.356 -2.493,-1.391 -2.479,-1.425 -2.464,-1.458 -2.45,-1.492 -2.434,-1.525 -2.417,-1.559 -2.401,-1.591 -2.383,-1.625 -2.365,-1.656 -2.345,-1.689 -2.327,-1.72 -2.306,-1.752 -2.285,-1.783 -2.263,-1.814 -2.242,-1.844 -2.218,-1.873 -2.196,-1.904 -2.172,-1.932 -2.147,-1.961 -2.122,-1.989 -2.096,-2.017 -2.071,-2.044 -2.043,-2.07 -2.017,-2.096 -1.989,-2.122 -1.961,-2.148 -1.932,-2.171 -1.904,-2.196 -1.873,-2.218 -1.844,-2.242 -1.814,-2.264 -1.783,-2.285 -1.752,-2.305 -1.72,-2.327 -1.689,-2.345 -1.656,-2.365 -1.625,-2.383 -1.591,-2.401 -1.559,-2.417 -1.525,-2.434 -1.492,-2.45 -1.459,-2.464 -1.424,-2.479 -1.391,-2.493 -1.356,-2.505 -1.322,-2.518 -1.287,-2.528 -1.253,-2.54 -1.219,-2.551 -1.183,-2.559 -1.149,-2.568 -1.114,-2.577 -1.079,-2.584 -1.044,-2.59 -1.01,-2.597 -0.974,-2.602 -0.94,-2.607 L 11.952,72.316 11.081,69.702 10.245,67.084 9.443,64.465 8.676,61.844 7.943,59.223 7.244,56.601 6.578,53.979 5.947,51.359 5.348,48.74 4.783,46.123 4.251,43.509 3.752,40.898 3.286,38.291 2.852,35.688 2.449,33.091 2.079,30.499 1.74,27.913 1.432,25.333 1.155,22.761 0.909,20.196 0.693,17.639 0.507,15.09 0.351,12.55 0.224,10.02 0.125,7.499 0.055,4.989 0.014,2.489 0,0 z" /></g><g
         transform="translate(563.214,1457.7659)"
         id="g3414"><path
           inkscape:connector-curvature="0"
           id="path3416"
           style="fill:none;stroke:#0000ff;stroke-width:0.5;stroke-linecap:round;stroke-linejoin:round;stroke-miterlimit:10;stroke-opacity:1;stroke-dasharray:none"
           d="m 0,0 c 0,108.022 -87.569,195.591 -195.591,195.591 -108.021,0 -195.59,-87.569 -195.59,-195.591 0,-108.022 87.569,-195.59 195.59,-195.59 C -87.569,-195.59 0,-108.022 0,0 z" /></g><g
         transform="translate(285.661,1565.8629)"
         id="g3418"><path
           inkscape:connector-curvature="0"
           id="path3420"
           style="fill:none;stroke:#0000ff;stroke-width:0.5;stroke-linecap:round;stroke-linejoin:round;stroke-miterlimit:10;stroke-opacity:1;stroke-dasharray:none"
           d="M 0,0 28.269,-35.448 23.083,-39.584 -5.186,-4.136" /></g><g
         transform="translate(401.0344,1589.2441)"
         id="g3422"><path
           inkscape:connector-curvature="0"
           id="path3424"
           style="fill:none;stroke:#0000ff;stroke-width:0.5;stroke-linecap:round;stroke-linejoin:round;stroke-miterlimit:10;stroke-opacity:1;stroke-dasharray:none"
           d="m 0,0 -10.089,-44.203 -6.467,1.476 10.089,44.203" /></g><g
         transform="translate(503.3066,1457.7659)"
         id="g3426"><path
           inkscape:connector-curvature="0"
           id="path3428"
           style="fill:none;stroke:#0000ff;stroke-width:0.5;stroke-linecap:round;stroke-linejoin:round;stroke-miterlimit:10;stroke-opacity:1;stroke-dasharray:none"
           d="m 0,0 c 0,74.936 -60.747,135.683 -135.683,135.683 -74.936,0 -135.683,-60.747 -135.683,-135.683 0,-74.936 60.747,-135.683 135.683,-135.683 C -60.747,-135.683 0,-74.936 0,0 z" /></g><g
         transform="translate(491.2487,1513.6196)"
         id="g3430"><path
           inkscape:connector-curvature="0"
           id="path3432"
           style="fill:none;stroke:#0000ff;stroke-width:0.5;stroke-linecap:round;stroke-linejoin:round;stroke-miterlimit:10;stroke-opacity:1;stroke-dasharray:none"
           d="m 0,0 -40.85,-19.672 -2.878,5.976 40.85,19.672" /></g><g
         transform="translate(488.3708,1395.9359)"
         id="g3434"><path
           inkscape:connector-curvature="0"
           id="path3436"
           style="fill:none;stroke:#0000ff;stroke-width:0.5;stroke-linecap:round;stroke-linejoin:round;stroke-miterlimit:10;stroke-opacity:1;stroke-dasharray:none"
           d="m 0,0 -40.85,19.672 2.878,5.976 40.85,-19.672" /></g><g
         transform="translate(280.475,1353.8044)"
         id="g3438"><path
           inkscape:connector-curvature="0"
           id="path3440"
           style="fill:none;stroke:#0000ff;stroke-width:0.5;stroke-linecap:round;stroke-linejoin:round;stroke-miterlimit:10;stroke-opacity:1;stroke-dasharray:none"
           d="M 0,0 28.269,35.448 33.455,31.312 5.186,-4.136" /></g><g
         transform="translate(224.9059,1284.1373)"
         id="g3442"><path
           inkscape:connector-curvature="0"
           id="path3444"
           style="fill:none;stroke:#0000ff;stroke-width:0.5;stroke-linecap:round;stroke-linejoin:round;stroke-miterlimit:10;stroke-opacity:1;stroke-dasharray:none"
           d="M 0,0 13.395,16.741 18.589,12.616 5.186,-4.135" /></g><g
         transform="translate(232.007,1461.0824)"
         id="g3446"><path
           inkscape:connector-curvature="0"
           id="path3448"
           style="fill:none;stroke:#0000ff;stroke-width:0.5;stroke-linecap:round;stroke-linejoin:round;stroke-miterlimit:10;stroke-opacity:1;stroke-dasharray:none"
           d="m 0,0 45.34,0 0,-6.633 -45.34,0" /></g><g
         transform="translate(394.5676,1324.8115)"
         id="g3450"><path
           inkscape:connector-curvature="0"
           id="path3452"
           style="fill:none;stroke:#0000ff;stroke-width:0.5;stroke-linecap:round;stroke-linejoin:round;stroke-miterlimit:10;stroke-opacity:1;stroke-dasharray:none"
           d="M 0,0 -10.089,44.203 -3.622,45.679 6.467,1.476" /></g><g
         transform="translate(571.5422,1552.2769)"
         id="g3454"><path
           inkscape:connector-curvature="0"
           id="path3456"
           style="fill:none;stroke:#0000ff;stroke-width:0.5;stroke-linecap:round;stroke-linejoin:round;stroke-miterlimit:10;stroke-opacity:1;stroke-dasharray:none"
           d="m 0,0 -19.333,-9.271 -2.889,5.97 19.344,9.277" /></g><g
         transform="translate(420.8731,1676.1226)"
         id="g3458"><path
           inkscape:connector-curvature="0"
           id="path3460"
           style="fill:none;stroke:#0000ff;stroke-width:0.5;stroke-linecap:round;stroke-linejoin:round;stroke-miterlimit:10;stroke-opacity:1;stroke-dasharray:none"
           d="m 0,0 -4.805,-20.895 -6.469,1.463 4.807,20.907" /></g><g
         transform="translate(142.8923,1461.0914)"
         id="g3462"><path
           inkscape:connector-curvature="0"
           id="path3464"
           style="fill:none;stroke:#0000ff;stroke-width:0.5;stroke-linecap:round;stroke-linejoin:round;stroke-miterlimit:10;stroke-opacity:1;stroke-dasharray:none"
           d="M 0,0 21.441,-0.035 21.454,-6.668 0,-6.633" /></g><g
         transform="translate(568.6564,1357.2625)"
         id="g3466"><path
           inkscape:connector-curvature="0"
           id="path3468"
           style="fill:none;stroke:#0000ff;stroke-width:0.5;stroke-linecap:round;stroke-linejoin:round;stroke-miterlimit:10;stroke-opacity:1;stroke-dasharray:none"
           d="m 0,0 -19.302,9.334 2.866,5.982 19.314,-9.34" /></g><g
         transform="translate(89.6971,1254.3796)"
         id="g3470"><path
           inkscape:connector-curvature="0"
           id="path3472"
           style="fill:none;stroke:#0000ff;stroke-width:0.5;stroke-linecap:round;stroke-linejoin:round;stroke-miterlimit:10;stroke-opacity:1;stroke-dasharray:none"
           d="M 0,0 14.414,-14.414" /></g><g
         transform="translate(89.6971,743.7912)"
         id="g3474"><path
           inkscape:connector-curvature="0"
           id="path3476"
           style="fill:none;stroke:#0000ff;stroke-width:0.5;stroke-linecap:round;stroke-linejoin:round;stroke-miterlimit:10;stroke-opacity:1;stroke-dasharray:none"
           d="m 0,0 -37.2,-6.538 -13.252,133.215 -0.123,0.697 6.212,1.092 -1.227,6.98 -5.584,-0.981 -0.122,0.698 -11.9,119.611 -0.122,0.698 6.211,1.092 -1.227,6.979 -5.583,-0.981 -0.123,0.698 -0.11,1.11 0.764,140.031 -0.123,0.698 7.103,1.248 -1.226,6.98 -5.584,-0.981 -0.123,0.698 0.368,67.367 27.756,410.804 -0.122,0.738 8.088,1.408 -1.24,6.977 -6.026,-1.048 -0.11,0.663 1.869,27.658 32.756,5.757 42.332,-73.752 0.012,-0.022 0.011,-0.021 0.012,-0.022 0.011,-0.022 0.01,-0.022 0.01,-0.023 0.01,-0.022 0.009,-0.023 0.009,-0.023 0.009,-0.023 0.008,-0.023 0.008,-0.024 0.007,-0.023 0.007,-0.024 0.007,-0.023 0.006,-0.024 0.006,-0.024 0.005,-0.024 0.005,-0.024 0.004,-0.025 0.004,-0.024 0.004,-0.024 0.003,-0.025 0.003,-0.024 0.002,-0.025 0.002,-0.024 0.002,-0.025 10e-4,-0.024 0.001,-0.025 0,-0.025 0,-11.94 0,-0.025 -0.001,-0.024 -10e-4,-0.025 -0.002,-0.024 -0.002,-0.024 -0.002,-0.025 -0.003,-0.024 -0.003,-0.024 -0.003,-0.024 -0.004,-0.024 -0.005,-0.025 -0.005,-0.024 -0.005,-0.023 -0.005,-0.024 -0.006,-0.024 -0.007,-0.024 -0.007,-0.023 -0.007,-0.023 -0.008,-0.024 -0.008,-0.023 -0.008,-0.023 -0.009,-0.022 -0.009,-0.023 -0.01,-0.023 -0.01,-0.022 -0.011,-0.022 -0.011,-0.022 -0.011,-0.022 -0.011,-0.021 -0.012,-0.022 -0.012,-0.021 -0.013,-0.021 -0.013,-0.02 -0.013,-0.021 -0.014,-0.02 -0.014,-0.02 -0.015,-0.02 -0.014,-0.019 -0.016,-0.02 -0.015,-0.019 -0.016,-0.018 -0.016,-0.019 -0.016,-0.018 -0.017,-0.018 -0.017,-0.018 -0.017,-0.017 -0.018,-0.017 -0.018,-0.017 -0.018,-0.016 -0.018,-0.016 -0.019,-0.016 -0.019,-0.015 -0.019,-0.015 -0.02,-0.015 -0.019,-0.014 -0.02,-0.014 -0.021,-0.014 -0.02,-0.014 -0.021,-0.013 -0.021,-0.012 -0.021,-0.013 -0.021,-0.011 -0.022,-0.012 -0.022,-0.011 -0.022,-0.011 -0.022,-0.011 -0.022,-0.01 -0.023,-0.009 -0.022,-0.009 -0.023,-0.009 -0.023,-0.009 -0.023,-0.008 -0.023,-0.008 -0.024,-0.007 -0.023,-0.007 -0.024,-0.006 -0.023,-0.006 -0.024,-0.006 -0.024,-0.005 -0.024,-0.005 -0.024,-0.004 -0.024,-0.004 -0.024,-0.004 -0.025,-0.003 -0.024,-0.003 -0.024,-0.002 -0.025,-0.002 -0.024,-0.001 -0.025,-0.002 -0.024,0 -0.025,0 -2.406,-1.226 -1.226,2.406 -2.406,-1.226 -1.226,2.406 -2.406,-1.226 -1.226,2.407 -2.406,-1.226 -1.226,2.406 -2.406,-1.226 -1.225,2.406 -2.407,-1.226 -1.225,2.406 -2.407,-1.225 -1.226,2.406 -2.406,-1.226 -1.225,2.406 -2.407,-1.226 -1.225,2.406 -2.406,-1.225 -1.226,2.406 -0.689,0.223 -0.044,0.022 -0.045,0.021 -0.045,0.019 -0.045,0.02 -0.046,0.018 -0.046,0.018 -0.046,0.016 -0.047,0.016 -0.046,0.015 -0.048,0.015 -0.047,0.013 -0.047,0.013 -0.048,0.012 -0.048,0.011 -0.048,0.01 -0.049,0.009 -0.048,0.009 -0.049,0.008 -0.048,0.006 -0.049,0.006 -0.049,0.006 -0.049,0.004 -0.049,0.003 -0.049,0.003 -0.05,0.002 -0.049,0 -0.049,0 -0.049,0 -0.049,-0.002 -0.05,-0.003 -0.049,-0.003 -0.049,-0.004 -0.049,-0.005 -0.048,-0.006 -0.049,-0.007 -0.049,-0.008 -0.048,-0.008 -0.049,-0.01 -0.048,-0.01 -0.048,-0.011 -0.047,-0.012 -0.048,-0.012 -0.047,-0.014 -0.047,-0.014 -0.047,-0.015 -0.047,-0.016 -0.046,-0.017 -0.046,-0.017 -0.046,-0.019 -0.045,-0.019 -0.045,-0.02 -0.045,-0.02 -0.044,-0.022 -0.044,-0.022 -0.043,-0.023 -0.044,-0.024 -0.042,-0.024 -0.043,-0.025 -0.041,-0.026 -0.042,-0.027 -0.041,-0.027 -0.04,-0.028 -0.04,-0.029 -0.039,-0.03 -0.039,-0.03 -0.039,-0.031 -0.037,-0.031 -0.038,-0.032 -0.036,-0.033 -0.037,-0.034 -0.035,-0.033 -0.035,-0.035 -0.034,-0.035 -0.034,-0.036 -0.033,-0.037 -0.033,-0.037 -0.032,-0.037 -0.031,-0.038 -0.03,-0.039 -0.03,-0.039 -0.029,-0.04 -0.029,-0.04 L 0.48,856.618 0.453,856.576 0.426,856.535 0.401,856.493 0.376,856.45 0.352,856.407 0.328,856.364 0.306,856.32 0.284,856.276 0.263,856.232 0.243,856.187 0.223,856.142 0.204,856.096 0.186,856.051 0.169,856.004 0.153,855.958 0.137,855.911 0.123,855.864 0.109,855.817 0.096,855.77 0.083,855.722 0.072,855.674 0.061,855.626 0.052,855.578 0.043,855.53 0.035,855.481 0.027,855.432 0.021,855.384 0.015,855.335 0.011,855.286 0.007,855.237 0.004,855.187 0.002,855.138 0,855.089 0,855.04 0,-27.026 l 0,-0.049 -0.002,-0.049 -0.002,-0.049 -0.003,-0.049 -0.004,-0.05 -0.004,-0.048 -0.006,-0.049 -0.006,-0.049 -0.008,-0.049 -0.008,-0.048 -0.008,-0.049 -0.01,-0.048 -0.011,-0.048 -0.011,-0.048 -0.012,-0.048 -0.014,-0.047 -0.013,-0.047 -0.015,-0.047 -0.016,-0.047 -0.016,-0.046 -0.017,-0.046 -0.018,-0.046 -0.019,-0.046 -0.019,-0.045 -0.021,-0.045 -0.021,-0.044 -0.022,-0.044 -0.022,-0.044 -0.024,-0.043 -0.024,-0.043 -0.025,-0.043 -0.025,-0.042 -0.027,-0.041 -0.027,-0.041 -0.027,-0.041 -0.029,-0.04 -0.029,-0.04 -0.03,-0.039 -0.03,-0.039 -0.031,-0.038 -0.032,-0.037 -0.033,-0.037 -0.033,-0.037 -0.033,-0.036 -0.035,-0.035 -0.035,-0.034 -0.035,-0.034 -0.036,-0.034 -0.037,-0.033 -0.037,-0.032 -0.038,-0.031 -0.039,-0.031 -0.039,-0.03 -0.039,-0.03 -0.04,-0.028 -0.04,-0.029 -0.041,-0.027 -0.042,-0.027 -0.041,-0.026 -0.043,-0.025 -0.042,-0.024 -0.043,-0.024 -0.044,-0.023 -0.044,-0.022 -0.044,-0.022 -0.045,-0.02 -0.045,-0.02 -0.045,-0.019 -0.046,-0.018 -0.046,-0.018 -0.046,-0.017 -0.047,-0.016 -0.046,-0.015 -0.048,-0.014 -0.047,-0.014 -0.047,-0.012 -0.048,-0.012 -0.048,-0.011 -0.048,-0.01 -0.049,-0.01 -0.048,-0.008 -0.049,-0.008 -0.048,-0.007 -0.049,-0.005 -0.049,-0.006 -0.049,-0.004 -0.049,-0.003 -0.049,-0.003 -0.05,-0.001 -0.049,-10e-4 -0.049,0 -0.049,10e-4 -0.049,0.001 -0.05,0.003 -0.049,0.003 -0.049,0.005 -0.049,0.005 -0.048,0.006 -0.049,0.007 -0.049,0.007 -0.048,0.009 -0.049,0.009 -0.048,0.01 -0.048,0.011 -0.047,0.012 -0.048,0.013 -0.047,0.013 -0.047,0.015 -0.047,0.015 -0.047,0.016 -0.046,0.017 -0.046,0.017 -0.046,0.018 -0.045,0.02 -0.045,0.019 -0.045,0.021 -0.044,0.022 -0.689,0.223 -1.225,2.407 -2.407,-1.226 -1.225,2.406 -2.406,-1.226 -1.226,2.406 -2.406,-1.226 -1.226,2.407 -2.406,-1.226 -1.226,2.406 -2.406,-1.226 -1.226,2.406 -2.406,-1.226 -1.226,2.406 -2.406,-1.225 -1.226,2.406 -2.406,-1.226 -1.226,2.406 -2.406,-1.226 -1.226,2.406 -2.406,-1.226 -0.025,0 -0.024,0 -0.025,-10e-4 -0.024,-0.002 -0.024,-0.002 -0.025,-0.002 -0.024,-0.003 -0.024,-0.003 -0.025,-0.004 -0.024,-0.004 -0.024,-0.004 -0.024,-0.005 -0.024,-0.005 -0.023,-0.006 -0.024,-0.006 -0.024,-0.006 -0.023,-0.007 -0.024,-0.007 -0.023,-0.008 -0.023,-0.008 -0.023,-0.009 -0.023,-0.008 -0.022,-0.01 -0.023,-0.009 -0.022,-0.01 -0.022,-0.011 -0.022,-0.011 -0.022,-0.011 -0.022,-0.011 -0.021,-0.012 -0.021,-0.013 -0.021,-0.012 -0.021,-0.013 -0.02,-0.014 -0.02,-0.013 -0.02,-0.014 -0.02,-0.015 -0.02,-0.015 -0.019,-0.015 -0.019,-0.015 -0.019,-0.016 -0.018,-0.016 -0.018,-0.016 -0.018,-0.017 -0.018,-0.017 -0.017,-0.017 -0.017,-0.018 -0.017,-0.018 -0.016,-0.018 -0.016,-0.018 -0.016,-0.019 -0.015,-0.019 -0.015,-0.019 -0.015,-0.02 -0.015,-0.02 -0.014,-0.02 -0.013,-0.02 -0.014,-0.02 -0.013,-0.021 -0.012,-0.021 -0.013,-0.021 -0.012,-0.022 -0.011,-0.021 -0.011,-0.022 -0.011,-0.022 -0.011,-0.022 -0.01,-0.022 -0.009,-0.023 -0.01,-0.022 -0.009,-0.023 -0.008,-0.023 -0.008,-0.023 -0.008,-0.024 -0.007,-0.023 -0.007,-0.023 -0.006,-0.024 -0.007,-0.024 -0.005,-0.023 -0.005,-0.024 -0.005,-0.024 -0.005,-0.024 -0.004,-0.025 -0.003,-0.024 -0.003,-0.024 -0.003,-0.024 -0.002,-0.025 -0.002,-0.024 -0.002,-0.024 -10e-4,-0.025 -0.001,-0.024 0,-0.025 0,-11.94 0,-0.025 0.001,-0.024 10e-4,-0.025 0.002,-0.025 0.002,-0.024 0.002,-0.025 0.003,-0.024 0.003,-0.025 0.004,-0.024 0.004,-0.024 0.004,-0.024 0.005,-0.025 0.005,-0.024 0.006,-0.024 0.006,-0.023 0.007,-0.024 0.007,-0.024 0.007,-0.023 0.008,-0.024 0.008,-0.023 0.009,-0.023 0.009,-0.023 0.009,-0.023 0.01,-0.022 0.01,-0.023 0.01,-0.022 0.011,-0.022 0.012,-0.022 0.011,-0.021 0.012,-0.022 42.332,-73.752 32.756,5.757 1.869,27.658 -0.11,0.664 -6.025,-1.049 -1.241,6.977 8.088,1.408 -0.122,0.738 27.756,410.804 0.368,67.367 -0.123,0.698 -5.584,-0.981 -1.226,6.98 7.103,1.248 -0.123,0.698 0.764,140.031 -0.11,1.11 -0.123,0.698 -5.583,-0.981 -1.227,6.98 6.212,1.091 -0.123,0.698 -11.9,119.612 -0.122,0.698 -5.584,-0.982 -1.227,6.98 6.212,1.092 -0.123,0.698 L 37.2,834.552 0,828.014" /></g></g><g
       style="display:inline"
       id="g3286"
       transform="matrix(1.25,0,0,-1.25,302.578,722.40275)"><path
         d="m 0,0 46.036,0 0,-6.633 -46.036,0"
         style="fill:none;stroke:#0000ff;stroke-width:0.5;stroke-linecap:round;stroke-linejoin:round;stroke-miterlimit:10;stroke-opacity:1;stroke-dasharray:none"
         id="path3288"
         inkscape:connector-curvature="0" /></g></g><g
     inkscape:groupmode="layer"
     id="layer2"
     inkscape:label="line-engrave"
     style="display:inline"><g
       transform="matrix(1.25,0,0,-1.25,0,2125.9875)"
       style="display:inline"
       id="g3488"><g
         id="g3490"
         clip-path="url(#clipPath3492)"><g
           id="g3496"
           transform="translate(347.1596,1559.0925)"><path
             d="M 0,0 C -0.804,0.436 -1.234,0.665 -1.291,0.686 -1.72,0.848 -2.207,0.867 -2.75,0.743 -3.393,0.597 -3.867,0.26 -4.174,-0.267 -4.481,-0.795 -4.559,-1.385 -4.41,-2.039 c 0.178,-0.781 0.788,-1.452 1.828,-2.012 0.951,-0.448 1.902,-0.896 2.852,-1.344 1.042,-0.566 1.653,-1.243 1.832,-2.029 0.196,-0.858 0.067,-1.607 -0.387,-2.249 -0.431,-0.613 -1.073,-1.017 -1.923,-1.211 -0.604,-0.138 -1.181,-0.064 -1.73,0.221 -0.244,0.129 -0.719,0.478 -1.426,1.046"
             style="fill:none;stroke:#ff0000;stroke-width:0.5;stroke-linecap:round;stroke-linejoin:round;stroke-miterlimit:10;stroke-opacity:1;stroke-dasharray:none"
             id="path3498"
             inkscape:connector-curvature="0" /></g><g
           id="g3500"
           transform="translate(421.3012,1533.5299)"><path
             d="M 0,0 C 2.334,2.973 4.668,5.945 7.002,8.918 6.897,4.182 6.792,-0.554 6.687,-5.29 c 2.335,2.974 4.671,5.949 7.007,8.924"
             style="fill:none;stroke:#ff0000;stroke-width:0.5;stroke-linecap:round;stroke-linejoin:round;stroke-miterlimit:10;stroke-opacity:1;stroke-dasharray:none"
             id="path3502"
             inkscape:connector-curvature="0" /></g><g
           id="g3504"
           transform="translate(464.0902,1457.7659)"><path
             d="M 0,0 C 3.752,0.07 7.504,0.141 11.256,0.211"
             style="fill:none;stroke:#ff0000;stroke-width:0.5;stroke-linecap:round;stroke-linejoin:round;stroke-miterlimit:10;stroke-opacity:1;stroke-dasharray:none"
             id="path3506"
             inkscape:connector-curvature="0" /></g><g
           id="g3508"
           transform="translate(431.4301,1374.0375)"><path
             d="m 0,0 c -1.997,2.392 -3.993,4.783 -5.99,7.175 -0.431,0.516 -0.588,1.113 -0.472,1.791 0.108,0.643 0.417,1.177 0.927,1.603 0.285,0.237 0.645,0.409 1.079,0.514 0.085,0.02 0.481,0.085 1.188,0.196"
             style="fill:none;stroke:#ff0000;stroke-width:0.5;stroke-linecap:round;stroke-linejoin:round;stroke-miterlimit:10;stroke-opacity:1;stroke-dasharray:none"
             id="path3510"
             inkscape:connector-curvature="0" /></g><g
           id="g3512"
           transform="translate(346.3069,1355.2517)"><path
             d="m 0,0 c 0.735,3.734 1.471,7.469 2.206,11.204 -1.561,0.304 -3.121,0.608 -4.681,0.912"
             style="fill:none;stroke:#ff0000;stroke-width:0.5;stroke-linecap:round;stroke-linejoin:round;stroke-miterlimit:10;stroke-opacity:1;stroke-dasharray:none"
             id="path3514"
             inkscape:connector-curvature="0" /></g><g
           id="g3516"
           transform="translate(282.2902,1414.2446)"><path
             d="M 0,0 C -0.994,1.887 -1.988,3.774 -2.983,5.661"
             style="fill:none;stroke:#ff0000;stroke-width:0.5;stroke-linecap:round;stroke-linejoin:round;stroke-miterlimit:10;stroke-opacity:1;stroke-dasharray:none"
             id="path3518"
             inkscape:connector-curvature="0" /></g><g
           id="g3520"
           transform="translate(286.8072,1414.502)"><path
             d="m 0,0 c -4.132,-0.271 -8.263,-0.542 -12.395,-0.813 2.551,3.261 5.102,6.523 7.653,9.784"
             style="fill:none;stroke:#ff0000;stroke-width:0.5;stroke-linecap:round;stroke-linejoin:round;stroke-miterlimit:10;stroke-opacity:1;stroke-dasharray:none"
             id="path3522"
             inkscape:connector-curvature="0" /></g><g
           id="g3524"
           transform="translate(277.2633,1501.1667)"><path
             d="M 0,0 C 1.407,2.194 2.873,2.964 4.399,2.312 5.445,1.865 5.974,1.015 5.986,-0.239 5.994,-1.148 5.738,-2.183 5.217,-3.343 5.03,-3.768 4.842,-4.193 4.655,-4.618 c -3.466,1.481 -6.931,2.962 -10.396,4.442 0.13,0.32 0.261,0.64 0.391,0.959 1.042,2.594 2.336,3.56 3.884,2.899 C -0.855,3.421 -0.389,2.914 -0.069,2.161 0.264,1.39 0.298,0.697 0.035,0.082 -0.293,-0.686 -0.622,-1.455 -0.95,-2.223"
             style="fill:none;stroke:#ff0000;stroke-width:0.5;stroke-linecap:round;stroke-linejoin:round;stroke-miterlimit:10;stroke-opacity:1;stroke-dasharray:none"
             id="path3526"
             inkscape:connector-curvature="0" /></g><g
           id="g3528"
           transform="translate(342.6302,1148.4141)"><path
             d="m 0,0 0,11.44 c 0.405,0.008 0.811,0.017 1.216,0.025 2.206,0.034 3.869,-0.194 4.989,-0.686 C 7.736,10.107 8.718,8.84 9.152,6.977 9.343,6.159 9.438,5.577 9.438,5.233 9.438,3.873 8.932,2.659 7.919,1.592 6.895,0.508 5.707,-0.034 4.356,-0.034 c -0.484,0 -1.21,0.006 -2.178,0.017 C 1.21,-0.006 0.484,0 0,0 z"
             style="fill:none;stroke:#ff0000;stroke-width:0.5;stroke-linecap:round;stroke-linejoin:round;stroke-miterlimit:10;stroke-opacity:1;stroke-dasharray:none"
             id="path3530"
             inkscape:connector-curvature="0" /></g><g
           id="g3532"
           transform="translate(339.4816,1154.7327)"><path
             d="M 0,0 -6.018,0"
             style="fill:none;stroke:#ff0000;stroke-width:0.5;stroke-linecap:round;stroke-linejoin:round;stroke-miterlimit:10;stroke-opacity:1;stroke-dasharray:none"
             id="path3534"
             inkscape:connector-curvature="0" /></g><g
           id="g3536"
           transform="translate(339.4816,1148.4606)"><path
             d="m 0,0 -6.018,0 0,11.418 6.018,0"
             style="fill:none;stroke:#ff0000;stroke-width:0.5;stroke-linecap:round;stroke-linejoin:round;stroke-miterlimit:10;stroke-opacity:1;stroke-dasharray:none"
             id="path3538"
             inkscape:connector-curvature="0" /></g><g
           id="g3540"
           transform="translate(325.5026,1159.879)"><path
             d="m 0,0 0,-11.418 c 1.59,0.002 3.18,0.005 4.769,0.008"
             style="fill:none;stroke:#ff0000;stroke-width:0.5;stroke-linecap:round;stroke-linejoin:round;stroke-miterlimit:10;stroke-opacity:1;stroke-dasharray:none"
             id="path3542"
             inkscape:connector-curvature="0" /></g><g
           id="g3544"
           transform="translate(361.2878,1152.6172)"><path
             d="m 0,0 c 0.585,-0.006 1.071,-0.218 1.46,-0.636 0.388,-0.418 0.582,-0.92 0.582,-1.504 0,-0.38 -0.09,-0.745 -0.271,-1.097 -1.228,0.241 -1.841,1.059 -1.841,2.457 0,0.256 0.023,0.516 0.07,0.78 z"
             style="fill:none;stroke:#ff0000;stroke-width:0.5;stroke-linecap:round;stroke-linejoin:round;stroke-miterlimit:10;stroke-opacity:1;stroke-dasharray:none"
             id="path3546"
             inkscape:connector-curvature="0" /></g><g
           id="g3548"
           transform="translate(366.058,1150.6178)"><path
             d="m 0,0 c -0.497,-0.492 -0.947,-0.816 -1.351,-0.974 -0.333,-0.122 -0.882,-0.21 -1.648,-0.263 -0.52,-0.947 -1.342,-1.42 -2.464,-1.42 -0.555,0 -1.038,0.234 -1.447,0.702 -0.392,0.45 -0.588,0.955 -0.588,1.517 0,0.748 0.278,1.338 0.833,1.771 0.474,0.368 1.106,0.59 1.895,0.666"
             style="fill:none;stroke:#ff0000;stroke-width:0.5;stroke-linecap:round;stroke-linejoin:round;stroke-miterlimit:10;stroke-opacity:1;stroke-dasharray:none"
             id="path3550"
             inkscape:connector-curvature="0" /></g><g
           id="g3552"
           transform="translate(366.0292,1150.5564)"><path
             d="M 0,0 C 0.187,0.52 0.459,0.982 0.816,1.385 1.254,1.876 1.707,2.122 2.174,2.122 2.35,2.122 2.499,1.973 2.622,1.674 2.721,1.429 2.771,1.204 2.771,1 2.771,0.941 2.385,-0.257 1.613,-2.596"
             style="fill:none;stroke:#ff0000;stroke-width:0.5;stroke-linecap:round;stroke-linejoin:round;stroke-miterlimit:10;stroke-opacity:1;stroke-dasharray:none"
             id="path3554"
             inkscape:connector-curvature="0" /></g><g
           id="g3556"
           transform="translate(368.783,1151.406)"><path
             d="m 0,0 c 0.813,0.93 1.672,1.395 2.578,1.395 0.718,0 1.078,-0.418 1.078,-1.254 0,-0.333 -0.105,-0.798 -0.316,-1.395 -0.21,-0.596 -0.315,-1.043 -0.315,-1.34 0,-0.574 0.333,-0.86 1,-0.86 0.543,0 1.092,0.327 1.648,0.982 0.059,0.065 0.447,0.617 1.166,1.658"
             style="fill:none;stroke:#ff0000;stroke-width:0.5;stroke-linecap:round;stroke-linejoin:round;stroke-miterlimit:10;stroke-opacity:1;stroke-dasharray:none"
             id="path3558"
             inkscape:connector-curvature="0" /></g><g
           id="g3560"
           transform="translate(375.6347,1150.5564)"><path
             d="m 0,0 c 0.632,0.854 1.374,2.055 2.228,3.603 1.022,1.86 1.533,3.093 1.533,3.7 0,0.369 -0.032,0.632 -0.096,0.79 C 3.56,8.338 3.353,8.493 3.042,8.557 2.651,8.458 2.341,8.269 2.113,7.989 1.962,7.801 1.789,7.477 1.596,7.015 0.9,5.319 0.552,2.277 0.552,-2.113 c 0,-0.322 0.31,-0.483 0.929,-0.483 0.854,0 1.783,0.866 2.789,2.596"
             style="fill:none;stroke:#ff0000;stroke-width:0.5;stroke-linecap:round;stroke-linejoin:round;stroke-miterlimit:10;stroke-opacity:1;stroke-dasharray:none"
             id="path3562"
             inkscape:connector-curvature="0" /></g><g
           id="g3564"
           transform="translate(379.8945,1150.7313)"><path
             d="M 0,0 C 0.313,0.64 0.626,1.281 0.938,1.921 0.435,0.909 0.184,-0.029 0.184,-0.894 c 0,-0.432 0.056,-0.886 0.167,-1.36 0.339,-0.251 0.519,-0.382 0.543,-0.394 0.152,-0.082 0.375,-0.123 0.667,-0.123 0.748,0 1.771,0.789 3.069,2.368"
             style="fill:none;stroke:#ff0000;stroke-width:0.5;stroke-linecap:round;stroke-linejoin:round;stroke-miterlimit:10;stroke-opacity:1;stroke-dasharray:none"
             id="path3566"
             inkscape:connector-curvature="0" /></g><g
           id="g3568"
           transform="translate(385.235,1152.6172)"><path
             d="m 0,0 c -0.538,-1.631 -1.076,-3.265 -1.614,-4.902 -0.643,-1.929 -1.234,-3.542 -1.771,-4.841 -0.07,-0.198 -0.19,-0.47 -0.359,-0.815 -0.246,-0.357 -0.535,-0.535 -0.868,-0.535 -0.211,0 -0.392,0.184 -0.544,0.553 -0.129,0.304 -0.194,0.578 -0.194,0.824 0,0.678 0.202,1.351 0.606,2.017 0.123,0.199 0.582,0.622 1.377,1.271 0.772,0.631 1.29,1.008 1.556,1.131 0.266,0.123 0.671,0.313 1.215,0.57 0.964,0.526 2.048,1.371 3.253,2.534"
             style="fill:none;stroke:#ff0000;stroke-width:0.5;stroke-linecap:round;stroke-linejoin:round;stroke-miterlimit:10;stroke-opacity:1;stroke-dasharray:none"
             id="path3570"
             inkscape:connector-curvature="0" /></g><g
           id="g3572"
           transform="translate(389.7375,1148.6445)"><path
             d="m 0,0 c 0,0.286 0.134,0.429 0.403,0.429 0.321,0 0.482,-0.14 0.482,-0.42 0,-0.117 -0.051,-0.22 -0.153,-0.307 C 0.629,-0.386 0.52,-0.429 0.403,-0.429 0.134,-0.429 0,-0.286 0,0 z"
             style="fill:none;stroke:#ff0000;stroke-width:0.5;stroke-linecap:round;stroke-linejoin:round;stroke-miterlimit:10;stroke-opacity:1;stroke-dasharray:none"
             id="path3574"
             inkscape:connector-curvature="0" /></g><g
           id="g3576"
           transform="translate(393.2534,1159.2104)"><path
             d="M 0,0 C -0.716,-2.519 -1.432,-5.038 -2.148,-7.558"
             style="fill:none;stroke:#ff0000;stroke-width:0.5;stroke-linecap:round;stroke-linejoin:round;stroke-miterlimit:10;stroke-opacity:1;stroke-dasharray:none"
             id="path3578"
             inkscape:connector-curvature="0" /></g></g></g></g><g
     inkscape:groupmode="layer"
     id="layer3"
     inkscape:label="ignore"
     style="display:inline" /></svg>