<?xml version="1.0" encoding="UTF-8" standalone="no"?>
<svg
   version="1.1"
   width="29.700220cm"
   height="21.000720cm"
   viewBox="0 0 297002200 210007200"
   id="svg2600"
   sodipodi:docname="Plate V4 (current).svg"
   inkscape:version="1.2.1 (9c6d41e410, 2022-07-14)"
   xmlns:inkscape="http://www.inkscape.org/namespaces/inkscape"
   xmlns:sodipodi="http://sodipodi.sourceforge.net/DTD/sodipodi-0.dtd"
   xmlns="http://www.w3.org/2000/svg"
   xmlns:svg="http://www.w3.org/2000/svg"
   xmlns:rdf="http://www.w3.org/1999/02/22-rdf-syntax-ns#"
   xmlns:cc="http://creativecommons.org/ns#"
   xmlns:dc="http://purl.org/dc/elements/1.1/">
  <defs
     id="defs2604" />
  <sodipodi:namedview
     id="namedview2602"
     pagecolor="#ffffff"
     bordercolor="#000000"
     borderopacity="0.25"
     inkscape:showpageshadow="2"
     inkscape:pageopacity="0.0"
     inkscape:pagecheckerboard="0"
     inkscape:deskcolor="#d1d1d1"
     inkscape:document-units="cm"
     showgrid="true"
     inkscape:zoom="1"
     inkscape:cx="659"
     inkscape:cy="368.5"
     inkscape:window-width="1920"
     inkscape:window-height="1051"
     inkscape:window-x="1911"
     inkscape:window-y="-9"
     inkscape:window-maximized="1"
     inkscape:current-layer="layer2">
    <inkscape:grid
       type="xygrid"
       id="grid996" />
  </sodipodi:namedview>
  <title
     id="title1304">SVG Picture created as Plate-Edge_Cuts.svg date 2022/11/02 15:26:49 </title>
  <desc
     id="desc1306">Picture generated by PCBNEW </desc>
  <metadata
     id="metadata244123">
    <rdf:RDF>
      <cc:Work
         rdf:about="">
        <dc:title>SVG Picture created as Plate-Edge_Cuts.svg date 2022/11/02 15:26:49 </dc:title>
      </cc:Work>
    </rdf:RDF>
  </metadata>
  <g
     inkscape:groupmode="layer"
     id="layer4"
     inkscape:label="cutting"
     style="display:inline">
    <g
       id="g1646">
      <path
         id="path167527"
         style="fill:none;stroke:#0000ff;stroke-width:200000.00785438;stroke-dasharray:none"
         d="m 101779540,34516592 a 1641589.9,1641590 0 0 1 -1641590,1641590 1641589.9,1641590 0 0 1 -1641588,-1641590 1641589.9,1641590 0 0 1 1641588,-1641590 1641589.9,1641590 0 0 1 1641590,1641590 z" />
      <path
         id="path167527-8"
         style="fill:none;stroke:#0000ff;stroke-width:200000.00785438;stroke-dasharray:none"
         d="m 201234390,34517000 a 1641590,1641589.9 0 0 1 -1641590,1641590 1641590,1641589.9 0 0 1 -1641590,-1641590 1641590,1641589.9 0 0 1 1641590,-1641590 1641590,1641589.9 0 0 1 1641590,1641590 z" />
      <path
         id="path167527-8-6"
         style="fill:none;stroke:#0000ff;stroke-width:200000.00785438;stroke-dasharray:none"
         d="m 201234600,168286020 a 1641589.9,1641590 0 0 1 -1641590,1641590 1641589.9,1641590 0 0 1 -1641590,-1641590 1641589.9,1641590 0 0 1 1641590,-1641590 1641589.9,1641590 0 0 1 1641590,1641590 z" />
      <path
         id="path167527-8-6-4"
         style="fill:none;stroke:#0000ff;stroke-width:200000.00785438;stroke-dasharray:none"
         d="m 101779590,168286000 a 1641589.9,1641590 0 0 1 -1641590,1641590 1641589.9,1641590 0 0 1 -1641590,-1641590 1641589.9,1641590 0 0 1 1641590,-1641590 1641589.9,1641590 0 0 1 1641590,1641590 z" />
      <path
         id="rect168576"
         style="fill:none;stroke:#0000ff;stroke-width:200000"
         d="m 105424460,46491536 h 7670640 v 7670636 h -7670640 z" />
      <path
         id="rect168578"
         style="fill:none;stroke:#0000ff;stroke-width:200000"
         d="m 128249280,45369000 h 40224060 v 14312283 h -40224060 z" />
      <path
         id="rect168580"
         style="fill:none;stroke:#0000ff;stroke-width:200000"
         d="m 169595870,40130520 h 11131780 v 6922281 h -11131780 z" />
      <path
         id="rect168582"
         style="fill:none;stroke:#0000ff;stroke-width:200000.00785438;stroke-dasharray:none"
         d="m 181851100,50589320 h 13704040 v 13704030 h -13704040 z" />
      <path
         id="path179730"
         style="display:inline;fill:none;stroke:#0000ff;stroke-width:200000;stroke-linecap:round;stroke-dasharray:none;stroke-opacity:1"
         d="m 207239720,23370133 511950,20726 m -113464682,-20726 h 112952732 m -112952732,0 v 0 m -511943,20726 511943,-20726 m -1021637,79944 509694,-59218 m -1012927,159889 503233,-100671 m -997193,239834 493960,-139163 m -978085,319778 484125,-180615 m -953640,396761 469515,-216146 m -921890,467823 452375,-251677 m -886768,538884 434393,-287207 m -846307,606985 411914,-319778 m -799664,672125 387750,-352347 m -749931,734304 362181,-381957 m -696546,790561 334365,-408604 m -638102,843857 303737,-435253 m -576848,891232 273111,-455979 m -512505,932685 239394,-476706 m -444227,971177 204833,-494471 m -373982,1003746 169149,-509275 m -301771,1030394 132622,-521119 m -227873,1054082 95251,-532963 m -152571,1068886 57320,-535923 m -76426,1074808 19106,-538885 m -19106,141773979 V 30588816 m 19106,141773984 -19106,-538890 m 76426,1074810 -57320,-535920 m 152571,1065920 -95251,-530000 m 227873,1054080 -132622,-524080 m 301771,1033360 -169149,-509280 m 373982,1003750 -204833,-494470 m 444227,971170 -239394,-476700 m 512505,932680 -273111,-455980 m 576848,891240 -303737,-435260 m 638102,843860 -334365,-408600 m 696546,790560 -362181,-381960 m 749931,734310 -387750,-352350 m 799664,672120 -411914,-319770 m 846307,606980 -434393,-287210 m 886768,538890 -452375,-251680 m 921890,467820 -469515,-216140 m 953640,393800 -484125,-177660 m 978085,319780 -493960,-142120 m 997193,242790 -503233,-100670 m 1012927,159890 -509694,-59220 m 1021637,79950 -511943,-20730 m 113464675,20730 H 94286988 m 113464682,-20730 -511950,20730 m 1021640,-79950 -509690,59220 m 1012920,-159890 -503230,100670 m 997190,-242790 -493960,142120 m 978090,-319780 -484130,177660 m 953640,-393800 -469510,216140 m 921890,-467820 -452380,251680 m 886770,-538890 -434390,287210 m 846310,-606980 -411920,319770 m 799670,-672120 -387750,352350 m 749930,-734310 -362180,381960 m 696540,-790560 -334360,408600 m 638100,-843860 -303740,435260 m 576570,-891240 -272830,455980 m 511940,-932680 -239110,476700 m 443940,-971170 -204830,494470 m 374830,-1003750 -170000,509280 m 302900,-1033360 -132900,524080 m 227310,-1054080 -94410,530000 m 151730,-1065920 -57320,535920 m 76420,-1074810 -19100,538890 m 19100,-141773984 v 141235094 m 0,-141235094 v 0 m -19100,-538885 19100,538885 m -76420,-1074808 57320,535923 m -152850,-1068886 95530,532963 m -227310,-1054082 131780,521119 m -301780,-1030394 170000,509275 m -374830,-1003746 204830,494471 m -443940,-971177 239110,476706 m -511940,-932685 272830,455979 m -576570,-891232 303740,435253 m -638100,-843857 334360,408604 m -696540,-790561 362180,381957 m -749930,-734304 387750,352347 m -799670,-672125 411920,319778 m -846310,-606985 434390,287207 m -886770,-538884 452380,251677 m -921890,-467823 469510,216146 m -953640,-396761 484130,180615 m -978090,-319778 493960,139163 m -997190,-239834 503230,100671 m -1012920,-159889 509690,59218" />
      <path
         id="path166362-1"
         style="fill:none;stroke:#0000ff;stroke-width:200000;stroke-dasharray:none;stroke-opacity:1"
         d="m 118965470,81283009 a 500000.07,500000.07 0 0 0 500000,-500002 m -14000000,0 a 500000.07,500000.07 0 0 0 500000,500002 m 13500000,-13500003 a 500000.07,500000.07 0 0 0 -500000,-499999 m -13000000,0 a 500000.07,500000.07 0 0 0 -500000,499999 m 14000000,-727 V 80783904 M 105465470,67782279 v 13001625 m 500010,500062 h 12999980 M 105965480,67282216 h 12999980" />
      <path
         id="path166378-8"
         style="fill:none;stroke:#0000ff;stroke-width:200000;stroke-dasharray:none;stroke-opacity:1"
         d="m 138015470,81283009 a 500000.07,500000.07 0 0 0 500000,-500002 m -14000000,0 a 500000.07,500000.07 0 0 0 500000,500002 m 13500000,-13500003 a 500000.07,500000.07 0 0 0 -500000,-499999 m -13000000,0 a 500000.07,500000.07 0 0 0 -500000,499999 m 14000080,-727 V 80783904 M 124515470,67782279 v 13001625 m 500010,500062 h 13000010 M 125015480,67282216 h 13000010" />
      <path
         id="path166394-2"
         style="fill:none;stroke:#0000ff;stroke-width:200000;stroke-dasharray:none;stroke-opacity:1"
         d="m 157065470,81283009 a 500000.07,500000.07 0 0 0 500000,-500002 m -14000000,0 a 500000.07,500000.07 0 0 0 500000,500002 m 13500000,-13500003 a 500000.07,500000.07 0 0 0 -500000,-499999 m -13000000,0 a 500000.07,500000.07 0 0 0 -500000,499999 m 14000080,-727 V 80783904 M 143565390,67782279 v 13001625 m 500060,500062 h 13000040 M 144065450,67282216 h 13000040" />
      <path
         id="path166410-3"
         style="fill:none;stroke:#0000ff;stroke-width:200000;stroke-dasharray:none;stroke-opacity:1"
         d="m 176115470,81283009 a 500000.07,500000.07 0 0 0 500000,-500002 m -14000000,0 a 500000.07,500000.07 0 0 0 500000,500002 m 13500000,-13500003 a 500000.07,500000.07 0 0 0 -500000,-499999 m -13000000,0 a 500000.07,500000.07 0 0 0 -500000,499999 m 14000080,-727 V 80783904 M 162615390,67782279 v 13001625 m 500060,500062 h 13000040 M 163115450,67282216 h 13000040" />
      <path
         id="path166426-6"
         style="fill:none;stroke:#0000ff;stroke-width:200000;stroke-dasharray:none;stroke-opacity:1"
         d="m 195165470,81283009 a 500000.07,500000.07 0 0 0 500000,-500002 m -14000000,0 a 500000.07,500000.07 0 0 0 500000,500002 m 13500000,-13500003 a 500000.07,500000.07 0 0 0 -500000,-499999 m -13000000,0 a 500000.07,500000.07 0 0 0 -500000,499999 m 14000080,-727 V 80783904 M 181665390,67782279 v 13001625 m 500060,500062 h 13000040 M 182165450,67282216 h 13000040" />
      <path
         id="path166442-5"
         style="fill:none;stroke:#0000ff;stroke-width:200000;stroke-dasharray:none;stroke-opacity:1"
         d="m 118965470,100333010 a 500000.07,500000.07 0 0 0 500000,-500003 m -14000000,0 a 500000.07,500000.07 0 0 0 500000,500003 m 13500000,-13500003 a 500000.07,500000.07 0 0 0 -500000,-499999 m -13000000,0 a 500000.07,500000.07 0 0 0 -500000,499999 m 14000000,-728 V 99833904 M 105465470,86832279 v 13001625 m 500010,500066 h 12999980 M 105965480,86332217 h 12999980" />
      <path
         id="path166458-8"
         style="fill:none;stroke:#0000ff;stroke-width:200000;stroke-dasharray:none;stroke-opacity:1"
         d="m 138015470,100333010 a 500000.07,500000.07 0 0 0 500000,-500003 m -14000000,0 a 500000.07,500000.07 0 0 0 500000,500003 m 13500000,-13500003 a 500000.07,500000.07 0 0 0 -500000,-499999 m -13000000,0 a 500000.07,500000.07 0 0 0 -500000,499999 m 14000080,-728 V 99833904 M 124515470,86832279 v 13001625 m 500010,500066 h 13000010 M 125015480,86332217 h 13000010" />
      <path
         id="path166474-7"
         style="fill:none;stroke:#0000ff;stroke-width:200000;stroke-dasharray:none;stroke-opacity:1"
         d="m 157065470,100333010 a 500000.07,500000.07 0 0 0 500000,-500003 m -14000000,0 a 500000.07,500000.07 0 0 0 500000,500003 m 13500000,-13500003 a 500000.07,500000.07 0 0 0 -500000,-499999 m -13000000,0 a 500000.07,500000.07 0 0 0 -500000,499999 m 14000080,-728 V 99833904 M 143565390,86832279 v 13001625 m 500060,500066 h 13000040 M 144065450,86332217 h 13000040" />
      <path
         id="path166490-6"
         style="fill:none;stroke:#0000ff;stroke-width:200000;stroke-dasharray:none;stroke-opacity:1"
         d="m 162615470,109358010 a 500000.07,500000.07 0 0 0 500000,500000 m 0,-14000002 a 500000.07,500000.07 0 0 0 -500000,499999 m 13500000,13500003 a 500000.07,500000.07 0 0 0 500000,-500000 m 0,-13000003 a 500000.07,500000.07 0 0 0 -500000,-499999 m 20,14000962 h -13000040 m 13000040,-14001753 h -13000040 m -500060,500062 v 13001621 m 14000160,-13001621 v 13001621" />
      <path
         id="path166506-6"
         style="fill:none;stroke:#0000ff;stroke-width:200000;stroke-dasharray:none;stroke-opacity:1"
         d="m 160615470,93920009 a 500000.07,500000.07 0 0 0 500000,499999 m 0,-6999999 a 500000.07,500000.07 0 0 0 -500000,499999 m 14500000,6500000 a 500000.07,500000.07 0 0 0 500000,-499999 m 0,-6000001 a 500000.07,500000.07 0 0 0 -500000,-499999 m -100,7000520 h -13999900 m 13999900,-7000875 h -13999900 m -500060,500063 v 6000750 m 15000020,-6000750 v 6000750" />
      <path
         id="path166522-8"
         style="fill:none;stroke:#0000ff;stroke-width:200000;stroke-dasharray:none;stroke-opacity:1"
         d="m 160615470,117796010 a 500000.07,500000.07 0 0 0 500000,500000 m 0,-7000000 a 500000.07,500000.07 0 0 0 -500000,500000 m 14500000,6500000 a 500000.07,500000.07 0 0 0 500000,-500000 m 0,-6000000 a 500000.07,500000.07 0 0 0 -500000,-500000 m -100,7000520 h -13999900 m 13999900,-7000880 h -13999900 m -500060,500070 v 6000750 m 15000020,-6000750 v 6000750" />
      <path
         id="path166538-4"
         style="fill:none;stroke:#0000ff;stroke-width:200000;stroke-dasharray:none;stroke-opacity:1"
         d="m 195165470,100333010 a 500000.07,500000.07 0 0 0 500000,-500003 m -14000000,0 a 500000.07,500000.07 0 0 0 500000,500003 m 13500000,-13500003 a 500000.07,500000.07 0 0 0 -500000,-499999 m -13000000,0 a 500000.07,500000.07 0 0 0 -500000,499999 m 14000080,-728 V 99833904 M 181665390,86832279 v 13001625 m 500060,500066 h 13000040 M 182165450,86332217 h 13000040" />
      <path
         id="path166554-5"
         style="fill:none;stroke:#0000ff;stroke-width:200000;stroke-dasharray:none;stroke-opacity:1"
         d="m 118965470,119383010 a 500000.07,500000.07 0 0 0 500000,-500000 m -14000000,0 a 500000.07,500000.07 0 0 0 500000,500000 m 13500000,-13500000 a 500000.07,500000.07 0 0 0 -500000,-500000 m -13000000,0 a 500000.07,500000.07 0 0 0 -500000,500000 m 14000000,-730 v 13001620 m -14000000,-13001620 v 13001620 m 500010,500070 h 12999980 m -12999980,-14001750 h 12999980" />
      <path
         id="path166570-8"
         style="fill:none;stroke:#0000ff;stroke-width:200000;stroke-dasharray:none;stroke-opacity:1"
         d="m 138015470,119383010 a 500000.07,500000.07 0 0 0 500000,-500000 m -14000000,0 a 500000.07,500000.07 0 0 0 500000,500000 m 13500000,-13500000 a 500000.07,500000.07 0 0 0 -500000,-500000 m -13000000,0 a 500000.07,500000.07 0 0 0 -500000,500000 m 14000080,-730 v 13001620 m -14000080,-13001620 v 13001620 m 500010,500070 h 13000010 m -13000010,-14001750 h 13000010" />
      <path
         id="path166586-1"
         style="fill:none;stroke:#0000ff;stroke-width:200000;stroke-dasharray:none;stroke-opacity:1"
         d="m 157065470,119383010 a 500000.07,500000.07 0 0 0 500000,-500000 m -14000000,0 a 500000.07,500000.07 0 0 0 500000,500000 m 13500000,-13500000 a 500000.07,500000.07 0 0 0 -500000,-500000 m -13000000,0 a 500000.07,500000.07 0 0 0 -500000,500000 m 14000080,-730 v 13001620 m -14000160,-13001620 v 13001620 m 500060,500070 h 13000040 m -13000040,-14001750 h 13000040" />
      <path
         id="path166602-4"
         style="fill:none;stroke:#0000ff;stroke-width:200000;stroke-dasharray:none;stroke-opacity:1"
         d="m 195165470,119383010 a 500000.07,500000.07 0 0 0 500000,-500000 m -14000000,0 a 500000.07,500000.07 0 0 0 500000,500000 m 13500000,-13500000 a 500000.07,500000.07 0 0 0 -500000,-500000 m -13000000,0 a 500000.07,500000.07 0 0 0 -500000,500000 m 14000080,-730 v 13001620 m -14000160,-13001620 v 13001620 m 500060,500070 h 13000040 m -13000040,-14001750 h 13000040" />
      <path
         id="path166618-5"
         style="fill:none;stroke:#0000ff;stroke-width:200000;stroke-dasharray:none;stroke-opacity:1"
         d="m 118965470,138433010 a 500000.07,500000.07 0 0 0 500000,-500000 m -14000000,0 a 500000.07,500000.07 0 0 0 500000,500000 m 13500000,-13500000 a 500000.07,500000.07 0 0 0 -500000,-500000 m -13000000,0 a 500000.07,500000.07 0 0 0 -500000,500000 m 14000000,-730 v 13001620 m -14000000,-13001620 v 13001620 m 500010,500070 h 12999980 m -12999980,-14001750 h 12999980" />
      <path
         id="path166634-0"
         style="fill:none;stroke:#0000ff;stroke-width:200000;stroke-dasharray:none;stroke-opacity:1"
         d="m 138015470,138433010 a 500000.07,500000.07 0 0 0 500000,-500000 m -14000000,0 a 500000.07,500000.07 0 0 0 500000,500000 m 13500000,-13500000 a 500000.07,500000.07 0 0 0 -500000,-500000 m -13000000,0 a 500000.07,500000.07 0 0 0 -500000,500000 m 14000080,-730 v 13001620 m -14000080,-13001620 v 13001620 m 500010,500070 h 13000010 m -13000010,-14001750 h 13000010" />
      <path
         id="path166650-6"
         style="fill:none;stroke:#0000ff;stroke-width:200000;stroke-dasharray:none;stroke-opacity:1"
         d="m 157065470,138433010 a 500000.07,500000.07 0 0 0 500000,-500000 m -14000000,0 a 500000.07,500000.07 0 0 0 500000,500000 m 13500000,-13500000 a 500000.07,500000.07 0 0 0 -500000,-500000 m -13000000,0 a 500000.07,500000.07 0 0 0 -500000,500000 m 14000080,-730 v 13001620 m -14000160,-13001620 v 13001620 m 500060,500070 h 13000040 m -13000040,-14001750 h 13000040" />
      <path
         id="path166666-9"
         style="fill:none;stroke:#0000ff;stroke-width:200000;stroke-dasharray:none;stroke-opacity:1"
         d="m 162615470,147458010 a 500000.07,500000.07 0 0 0 500000,500000 m 0,-14000000 a 500000.07,500000.07 0 0 0 -500000,500000 m 13500000,13500000 a 500000.07,500000.07 0 0 0 500000,-500000 m 0,-13000000 a 500000.07,500000.07 0 0 0 -500000,-500000 m 20,14000960 h -13000040 m 13000040,-14001750 h -13000040 m -500060,500060 v 13001620 m 14000160,-13001620 v 13001620" />
      <path
         id="path166682-5"
         style="fill:none;stroke:#0000ff;stroke-width:200000;stroke-dasharray:none;stroke-opacity:1"
         d="m 160615470,132020010 a 500000.07,500000.07 0 0 0 500000,500000 m 0,-7000000 a 500000.07,500000.07 0 0 0 -500000,500000 m 14500000,6500000 a 500000.07,500000.07 0 0 0 500000,-500000 m 0,-6000000 a 500000.07,500000.07 0 0 0 -500000,-500000 m -100,7000520 h -13999900 m 13999900,-7000880 h -13999900 m -500060,500070 v 6000750 m 15000020,-6000750 v 6000750" />
      <path
         id="path166698-0"
         style="fill:none;stroke:#0000ff;stroke-width:200000;stroke-dasharray:none;stroke-opacity:1"
         d="m 160615470,155896010 a 500000.07,500000.07 0 0 0 500000,500000 m 0,-7000000 a 500000.07,500000.07 0 0 0 -500000,500000 m 14500000,6500000 a 500000.07,500000.07 0 0 0 500000,-500000 m 0,-6000000 a 500000.07,500000.07 0 0 0 -500000,-500000 m -100,7000520 h -13999900 m 13999900,-7000880 h -13999900 m -500060,500070 v 6000750 m 15000020,-6000750 v 6000750" />
      <path
         id="path166714-7"
         style="fill:none;stroke:#0000ff;stroke-width:200000;stroke-dasharray:none;stroke-opacity:1"
         d="m 195165470,138433010 a 500000.07,500000.07 0 0 0 500000,-500000 m -14000000,0 a 500000.07,500000.07 0 0 0 500000,500000 m 13500000,-13500000 a 500000.07,500000.07 0 0 0 -500000,-500000 m -13000000,0 a 500000.07,500000.07 0 0 0 -500000,500000 m 14000080,-730 v 13001620 m -14000160,-13001620 v 13001620 m 500060,500070 h 13000040 m -13000040,-14001750 h 13000040" />
      <path
         id="path166730-4"
         style="fill:none;stroke:#0000ff;stroke-width:200000;stroke-dasharray:none;stroke-opacity:1"
         d="m 128490470,157483010 a 500000.07,500000.07 0 0 0 500000,-500000 m -14000000,0 a 500000.07,500000.07 0 0 0 500000,500000 m 13500000,-13500000 a 500000.07,500000.07 0 0 0 -500000,-500000 m -13000000,0 a 500000.07,500000.07 0 0 0 -500000,500000 m 14000000,-730 v 13001620 m -14000000,-13001620 v 13001620 m 500010,500070 h 12999980 m -12999980,-14001750 h 12999980" />
      <path
         id="path166746-3"
         style="fill:none;stroke:#0000ff;stroke-width:200000;stroke-dasharray:none;stroke-opacity:1"
         d="m 113052470,159483010 a 500000.07,500000.07 0 0 0 500000,-500000 m -7000000,0 a 500000.07,500000.07 0 0 0 500000,500000 m 6500000,-14500000 a 500000.07,500000.07 0 0 0 -500000,-500000 m -6000000,0 a 500000.07,500000.07 0 0 0 -500000,500000 m 6999990,-610 v 14001750 m -6999980,-14001750 v 14001750 m 499990,500070 h 6000010 m -6000010,-15001880 h 6000010" />
      <path
         id="path166762-1"
         style="fill:none;stroke:#0000ff;stroke-width:200000;stroke-dasharray:none;stroke-opacity:1"
         d="m 136928470,159483010 a 500000.07,500000.07 0 0 0 500000,-500000 m -7000000,0 a 500000.07,500000.07 0 0 0 500000,500000 m 6500000,-14500000 a 500000.07,500000.07 0 0 0 -500000,-500000 m -6000000,0 a 500000.07,500000.07 0 0 0 -500000,500000 m 6999910,-610 v 14001750 m -6999820,-14001750 v 14001750 m 499800,500070 h 6000220 m -6000220,-15001880 h 6000220" />
      <path
         id="path166778-9"
         style="fill:none;stroke:#0000ff;stroke-width:200000;stroke-dasharray:none;stroke-opacity:1"
         d="m 157065470,157483010 a 500000.07,500000.07 0 0 0 500000,-500000 m -14000000,0 a 500000.07,500000.07 0 0 0 500000,500000 m 13500000,-13500000 a 500000.07,500000.07 0 0 0 -500000,-500000 m -13000000,0 a 500000.07,500000.07 0 0 0 -500000,500000 m 14000080,-730 v 13001620 m -14000160,-13001620 v 13001620 m 500060,500070 h 13000040 m -13000040,-14001750 h 13000040" />
      <path
         id="path166794-5"
         style="fill:none;stroke:#0000ff;stroke-width:200000;stroke-dasharray:none;stroke-opacity:1"
         d="m 195165470,157483010 a 500000.07,500000.07 0 0 0 500000,-500000 m -14000000,0 a 500000.07,500000.07 0 0 0 500000,500000 m 13500000,-13500000 a 500000.07,500000.07 0 0 0 -500000,-500000 m -13000000,0 a 500000.07,500000.07 0 0 0 -500000,500000 m 14000080,-730 v 13001620 m -14000160,-13001620 v 13001620 m 500060,500070 h 13000040 m -13000040,-14001750 h 13000040" />
    </g>
  </g>
  <g
     inkscape:groupmode="layer"
     id="layer1"
     inkscape:label="ignore"
     style="fill:none" />
  <g
     inkscape:groupmode="layer"
     id="layer2"
     inkscape:label="line engraving"
     style="fill:none" />
</svg>
