<?xml version="1.0" encoding="UTF-8" standalone="no"?>
<svg
   version="1.1"
   width="29.700220cm"
   height="21.000720cm"
   viewBox="0 0 297002200 210007200"
   id="svg2600"
   sodipodi:docname="Sheet bottom 2 (current WIP).svg"
   inkscape:version="1.2.1 (9c6d41e410, 2022-07-14)"
   xmlns:inkscape="http://www.inkscape.org/namespaces/inkscape"
   xmlns:sodipodi="http://sodipodi.sourceforge.net/DTD/sodipodi-0.dtd"
   xmlns="http://www.w3.org/2000/svg"
   xmlns:svg="http://www.w3.org/2000/svg"
   xmlns:rdf="http://www.w3.org/1999/02/22-rdf-syntax-ns#"
   xmlns:cc="http://creativecommons.org/ns#"
   xmlns:dc="http://purl.org/dc/elements/1.1/">
  <defs
     id="defs2604" />
  <sodipodi:namedview
     id="namedview2602"
     pagecolor="#ffffff"
     bordercolor="#000000"
     borderopacity="0.25"
     inkscape:showpageshadow="2"
     inkscape:pageopacity="0.0"
     inkscape:pagecheckerboard="0"
     inkscape:deskcolor="#d1d1d1"
     inkscape:document-units="cm"
     showgrid="true"
     inkscape:zoom="0.70710682"
     inkscape:cx="116.67261"
     inkscape:cy="292.03509"
     inkscape:window-width="1920"
     inkscape:window-height="1051"
     inkscape:window-x="-9"
     inkscape:window-y="-9"
     inkscape:window-maximized="1"
     inkscape:current-layer="layer4">
    <inkscape:grid
       type="xygrid"
       id="grid996" />
  </sodipodi:namedview>
  <title
     id="title1304">SVG Picture created as Plate-Edge_Cuts.svg date 2022/11/02 15:26:49 </title>
  <desc
     id="desc1306">Picture generated by PCBNEW </desc>
  <metadata
     id="metadata244123">
    <rdf:RDF>
      <cc:Work
         rdf:about="">
        <dc:title>SVG Picture created as Plate-Edge_Cuts.svg date 2022/11/02 15:26:49 </dc:title>
      </cc:Work>
    </rdf:RDF>
  </metadata>
  <g
     inkscape:groupmode="layer"
     id="layer4"
     inkscape:label="cutting"
     style="display:inline">
    <g
       id="g437"
       transform="translate(1994063.9,-135535.31)">
      <path
         id="path167527-6-5"
         style="display:inline;fill:none;stroke:#0000ff;stroke-width:200000;stroke-dasharray:none"
         d="m 101564240,34381059 a 1641589.9,1641590 0 0 1 -1641588,1641590 1641589.9,1641590 0 0 1 -1641588,-1641590 1641589.9,1641590 0 0 1 1641588,-1641590 1641589.9,1641590 0 0 1 1641588,1641590 z"
         transform="translate(-1994063.9,135535.31)" />
      <path
         id="path167527-8-4-9"
         style="display:inline;fill:none;stroke:#0000ff;stroke-width:200000;stroke-dasharray:none"
         d="m 201019090,34381467 a 1641590,1641589.9 0 0 1 -1641590,1641590 1641590,1641589.9 0 0 1 -1641590,-1641590 1641590,1641589.9 0 0 1 1641590,-1641590 1641590,1641589.9 0 0 1 1641590,1641590 z"
         transform="translate(-1994063.9,135535.31)" />
      <path
         id="path167527-8-6-7-2"
         style="display:inline;fill:none;stroke:#0000ff;stroke-width:200000;stroke-dasharray:none"
         d="m 201019300,168150490 a 1641589.9,1641590 0 0 1 -1641590,1641590 1641589.9,1641590 0 0 1 -1641590,-1641590 1641589.9,1641590 0 0 1 1641590,-1641590 1641589.9,1641590 0 0 1 1641590,1641590 z"
         transform="translate(-1994063.9,135535.31)" />
      <path
         id="path167527-8-6-4-5-6"
         style="display:inline;fill:none;stroke:#0000ff;stroke-width:200000;stroke-dasharray:none"
         d="m 101564290,168150470 a 1641589.9,1641590 0 0 1 -1641588,1641590 1641589.9,1641590 0 0 1 -1641590,-1641590 1641589.9,1641590 0 0 1 1641590,-1641590 1641589.9,1641590 0 0 1 1641588,1641590 z"
         transform="translate(-1994063.9,135535.31)" />
      <path
         id="path25980-3-7"
         style="fill:none;stroke:#0000ff;stroke-width:200000;stroke-linecap:round;stroke-dasharray:none;stroke-opacity:1"
         d="m 202988330,162258480 -18680,303220 m 18680,-122407438 v 122104218 m -18680,-122407431 18680,303213 m -73610,-600961 54930,297748 m -146380,-587301 91450,289553 m -216150,-565448 124700,275895 m -282350,-535401 157650,259506 m -345520,-497159 187870,237653 m -403750,-453453 215880,215800 m -455660,-401550 239780,185750 m -500420,-344186 260640,158436 m -538880,-281359 278240,122923 m -568810,-213067 290570,90144 m -590770,-144777 300200,54633 m -604250,-73754 304050,19121 m -104123720,-19121 h 103819670 m -104123710,19121 304040,-19121 m -604240,73754 300200,-54633 m -590794,144777 290594,-90144 m -568822,213067 278228,-122923 m -538877,281359 260649,-158436 m -500424,344186 239775,-185750 m -455654,401550 215879,-215800 m -403745,453453 187866,-237653 m -345519,497159 157653,-259506 m -282347,535401 124694,-275895 m -216154,565448 91460,-289553 m -146393,587301 54933,-297748 m -73609,600961 18676,-303213 m -18676,122407431 V 62193621 h -4688311 v 105769509 m 4689410,-5704650 h -1099 m 18676,303220 -17577,-303220 m 72510,600970 -54933,-297750 m 146393,587290 -91460,-289540 m 216154,565440 -124694,-275900 m 282347,535410 -157653,-259510 m 345519,497170 -187866,-237660 m 403745,453450 -215879,-215790 m 455654,401540 -239775,-185750 m 500424,344180 -260649,-158430 m 538877,281360 -278228,-122930 m 568822,213080 -290594,-90150 m 590794,144780 -300200,-54630 m 604240,73740 -304040,-19110 m 104123710,19110 H 96644020 m 103819670,0 v 0 m 304050,-19110 -304050,19110 m 604250,-73740 -300200,54630 m 590770,-144780 -290570,90150 m 568810,-213080 -278240,122930 m 538880,-281360 -260640,158430 m 500420,-344180 -239780,185750 m 455660,-401540 -215880,215790 m 403750,-453450 -187870,237660 m 345520,-497170 -157650,259510 m 283450,-535410 -125800,275900 m 216150,-565440 -90350,289540 m 145280,-587290 -54930,297750 m -1633110,-135233874 477970,19592 m -105933228,-19592 h 105455258 m -105455258,0 v 0 m -477961,19592 477961,-19592 m -953823,75574 475862,-55982 m -945692,151149 469830,-95167 m -931002,226722 461172,-131555 m -913164,302295 451992,-170740 m -890341,375069 438349,-204329 m -860696,442245 422347,-237916 m -827906,509422 405559,-271506 m -790132,573801 384573,-302295 m -746585,635379 362012,-333084 m -700152,694159 338140,-361075 m -650312,747340 312172,-386265 m -595747,797721 283575,-411456 m -538557,842506 254982,-431050 m -478487,881694 223505,-450644 m -414742,918082 191237,-467438 m -349158,948870 157921,-481432 m -281741,974061 123820,-492629 m -212748,996454 88928,-503825 m -142441,1010448 53513,-506623 m -71353,1016046 17840,-509423 m -17840,509423 v 9212217 h 4688311 v -3507557 m -4670471,128318298 -17840,-509430 m 71353,1016040 -53513,-506610 m 142441,1007650 -88928,-501040 m 212748,996460 -123820,-495420 m 281741,976870 -157921,-481450 m 349158,948870 -191237,-467420 m 414742,918060 -223505,-450640 m 478487,881690 -254982,-431050 m 538557,842520 -283575,-411470 m 595747,797720 -312172,-386250 m 650312,747330 -338140,-361080 m 700152,694180 -362012,-333100 m 746585,635380 -384573,-302280 m 790132,573780 -405559,-271500 m 827906,509420 -422347,-237920 m 860696,442260 -438349,-204340 m 890341,372280 -451992,-167940 m 913164,302280 -461172,-134340 m 931002,229510 -469830,-95170 m 945692,151160 -475862,-55990 m 953823,75580 -477961,-19590 m 105933219,19590 H 95826352 m 105933228,-19590 -477970,19590 m 953830,-75580 -475860,55990 m 945690,-151160 -469830,95170 m 930990,-229510 -461160,134340 m 913170,-302280 -452010,167940 m 890350,-372280 -438340,204340 m 860680,-442260 -422340,237920 m 827910,-509420 -405570,271500 m 790150,-573780 -384580,302280 m 746600,-635380 -362020,333100 m 700140,-694180 -338120,361080 m 650300,-747330 -312180,386250 m 595750,-797720 -283570,411470 m 538300,-842520 -254730,431050 m 477960,-881690 -223230,450640 m 414450,-918060 -191220,467420 m 349960,-948870 -158740,481450 m 282810,-976870 -124070,495420 m 212220,-996460 -88150,501040 m 141670,-1007650 -53520,506610 m 71340,-1016040 -17820,509430 m 17820,-134022958 v 133513528 m 0,-133513528 v 0 m -17820,-509423 17820,509423 m -71340,-1016046 53520,506623 m -142710,-1010448 89190,503825 m -212220,-996454 123030,492629 m -281770,-974061 158740,481432 m -349960,-948870 191220,467438 m -414450,-918082 223230,450644 m -477960,-881694 254730,431050 m -538300,-842506 283570,411456 m -595750,-797721 312180,386265 m -650300,-747340 338120,361075 m -700140,-694159 362020,333084 m -746600,-635379 384580,302295 m -790150,-573801 405570,271506 m -827910,-509422 422340,237916 m -860680,-442245 438340,204329 m -890350,-375069 452010,170740 m -913170,-302295 461160,131555 m -930990,-226722 469830,95167 m -945690,-151149 475860,55982" />
    </g>
  </g>
  <g
     inkscape:groupmode="layer"
     id="layer1"
     inkscape:label="ignore"
     style="fill:none" />
  <g
     inkscape:groupmode="layer"
     id="layer2"
     inkscape:label="line engraving"
     style="fill:none" />
</svg>
