<?xml version="1.0" encoding="UTF-8" standalone="no"?>
<svg
   version="1.1"
   width="29.700220cm"
   height="21.000720cm"
   viewBox="0 0 297002200 210007200"
   id="svg2600"
   sodipodi:docname="Sheet bottom 3 clack cat (current WIP).svg"
   inkscape:version="1.2.1 (9c6d41e410, 2022-07-14)"
   xml:space="preserve"
   xmlns:inkscape="http://www.inkscape.org/namespaces/inkscape"
   xmlns:sodipodi="http://sodipodi.sourceforge.net/DTD/sodipodi-0.dtd"
   xmlns="http://www.w3.org/2000/svg"
   xmlns:svg="http://www.w3.org/2000/svg"
   xmlns:rdf="http://www.w3.org/1999/02/22-rdf-syntax-ns#"
   xmlns:cc="http://creativecommons.org/ns#"
   xmlns:dc="http://purl.org/dc/elements/1.1/"><defs
     id="defs2604"><inkscape:path-effect
       effect="fill_between_many"
       method="originald"
       linkedpaths="#path25980-3-7-8,0,1"
       id="path-effect33999" /></defs><sodipodi:namedview
     id="namedview2602"
     pagecolor="#ffffff"
     bordercolor="#000000"
     borderopacity="0.25"
     inkscape:showpageshadow="2"
     inkscape:pageopacity="0.0"
     inkscape:pagecheckerboard="0"
     inkscape:deskcolor="#d1d1d1"
     inkscape:document-units="cm"
     showgrid="true"
     inkscape:zoom="1"
     inkscape:cx="852.49998"
     inkscape:cy="344.49999"
     inkscape:window-width="1920"
     inkscape:window-height="1051"
     inkscape:window-x="-9"
     inkscape:window-y="-9"
     inkscape:window-maximized="1"
     inkscape:current-layer="layer2"
     inkscape:lockguides="false"><inkscape:grid
       type="xygrid"
       id="grid996" /></sodipodi:namedview><title
     id="title1304">SVG Picture created as Plate-Edge_Cuts.svg date 2022/11/02 15:26:49 </title><desc
     id="desc1306">Picture generated by PCBNEW </desc><metadata
     id="metadata244123"><rdf:RDF><cc:Work
         rdf:about=""><dc:title>SVG Picture created as Plate-Edge_Cuts.svg date 2022/11/02 15:26:49 </dc:title></cc:Work></rdf:RDF></metadata><g
     inkscape:groupmode="layer"
     id="layer4"
     inkscape:label="cutting"
     style="display:inline"><path
       id="path167527-1-4"
       style="display:inline;fill:none;stroke:#0000ff;stroke-width:200000;stroke-dasharray:none"
       d="m 106855910,32528975 a 1641589.9,1641590 0 0 1 -1641590,1641590 1641589.9,1641590 0 0 1 -1641590,-1641590 1641589.9,1641590 0 0 1 1641590,-1641590 1641589.9,1641590 0 0 1 1641590,1641590 z" /><path
       id="path167527-8-1-7"
       style="display:inline;fill:none;stroke:#0000ff;stroke-width:200000;stroke-dasharray:none"
       d="m 206310760,32529383 a 1641590,1641589.9 0 0 1 -1641590,1641590 1641590,1641589.9 0 0 1 -1641590,-1641590 1641590,1641589.9 0 0 1 1641590,-1641590 1641590,1641589.9 0 0 1 1641590,1641590 z" /><path
       id="path167527-8-6-5-4"
       style="display:inline;fill:none;stroke:#0000ff;stroke-width:200000;stroke-dasharray:none"
       d="m 206310970,166298400 a 1641589.9,1641590 0 0 1 -1641590,1641590 1641589.9,1641590 0 0 1 -1641590,-1641590 1641589.9,1641590 0 0 1 1641590,-1641590 1641589.9,1641590 0 0 1 1641590,1641590 z" /><path
       id="path167527-8-6-4-8-2"
       style="display:inline;fill:none;stroke:#0000ff;stroke-width:200000;stroke-dasharray:none"
       d="m 106855960,166298380 a 1641589.9,1641590 0 0 1 -1641590,1641590 1641589.9,1641590 0 0 1 -1641590,-1641590 1641589.9,1641590 0 0 1 1641590,-1641590 1641589.9,1641590 0 0 1 1641590,1641590 z" /><path
       id="path25980-3-7-8"
       style="display:inline;fill:none;stroke:#0000ff;stroke-width:193908;stroke-linecap:round;stroke-dasharray:none;stroke-opacity:1"
       d="m 206786580,27634703 461830,19060 m -102355580,-19060 h 101893750 m -101893750,0 v 0 m -461810,19060 461810,-19060 m -921600,73524 459790,-54464 m -913760,147048 453970,-92584 m -899560,220569 445590,-127985 m -882320,294091 436730,-166106 m -860270,364891 423540,-198785 m -831630,430244 408090,-231459 m -799950,495597 391860,-264138 m -763440,558230 371580,-294092 m -721370,618137 349790,-324045 m -676510,675322 326720,-351277 m -628350,727060 301630,-375783 m -575628,776073 273998,-400290 m -520368,819643 246370,-419353 m -462320,857768 215950,-438415 m -400730,893168 184780,-454753 m -337370,923121 152590,-468368 m -272230,947629 119640,-479261 m -205560,969413 85920,-490152 m -137630,983027 51710,-492875 m -68950,988474 17240,-495599 m 0,130881622 -17240,-495610 m 68950,988470 -51710,-492860 m 137630,980300 -85920,-487440 m 205560,969410 -119640,-481970 m 272230,950360 -152590,-468390 m 337370,923120 -184780,-454730 m 400730,893140 -215950,-438410 m 462320,857770 -246370,-419360 m 520368,819660 -273998,-400300 m 575628,776070 -301630,-375770 m 628350,727050 -326720,-351280 m 676510,675350 -349790,-324070 m 721370,618150 -371580,-294080 m 763440,558200 -391860,-264120 m 799950,495590 -408090,-231470 m 831630,430260 -423540,-198790 m 860270,362180 -436730,-163390 m 882320,294080 -445590,-130690 m 899560,223280 -453970,-92590 m 913760,147050 -459790,-54460 m 921600,73520 -461810,-19060 m 102355560,19060 H 104892830 m 102355580,-19060 -461830,19060 m 921620,-73520 -459790,54460 m 913750,-147050 -453960,92590 m 899550,-223280 -445590,130690 m 882330,-294080 -436740,163390 m 860280,-362180 -423540,198790 m 831610,-430260 -408070,231470 m 799950,-495590 -391880,264120 m 763470,-558200 -371590,294080 m 721390,-618150 -349800,324070 m 676490,-675350 -326690,351280 m 628330,-727050 -301640,375770 m 575630,-776070 -273990,400300 m 520120,-819660 -246130,419360 m 461820,-857770 -215690,438410 m 400450,-893140 -184760,454730 m 338140,-923120 -153380,468390 m 273260,-950360 -119880,481970 m 205050,-969410 -85170,487440 m 136880,-980300 -51710,492860 m 68930,-988470 -17220,495610 m 17220,-130386023 v 129890413 m 0,-129890413 v 0 m -17220,-495599 17220,495599 m -68930,-988474 51710,492875 m -137880,-983027 86170,490152 m -205050,-969413 118880,479261 m -272260,-947629 153380,468368 m -338140,-923121 184760,454753 m -400450,-893168 215690,438415 m -461820,-857768 246130,419353 m -520120,-819643 273990,400290 m -575630,-776073 301640,375783 m -628330,-727060 326690,351277 m -676490,-675322 349800,324045 m -721390,-618137 371590,294092 m -763470,-558230 391880,264138 m -799950,-495597 408070,231459 m -831610,-430244 423540,198785 m -860280,-364891 436740,166106 m -882330,-294091 445590,127985 m -899550,-220569 453960,92584 m -913750,-147048 459790,54464 m -921620,-73524 461830,19060 m -102355580,-19060 h 101893750 m -101893750,0 v 0 m -461810,19060 461810,-19060 m -921600,73524 459790,-54464 m -913750,147048 453960,-92584 m -899560,220569 445600,-127985 m -882330,294091 436730,-166106 m -860270,364891 423540,-198785 m -831630,430244 408090,-231459 m -799950,495597 391860,-264138 m -763440,558230 371580,-294092 m -721370,618137 349790,-324045 m -676510,675322 326720,-351277 m -628350,727060 301630,-375783 m -575628,776073 273998,-400290 m -520368,819643 246370,-419353 m -462320,857768 215950,-438415 m -400730,893168 184780,-454753 m -337370,923121 152590,-468368 m -272230,947629 119640,-479261 m -205560,969413 85920,-490152 m -137630,983027 51710,-492875 m -68950,988474 17240,-495599 m -17240,495599 v 7400652 h 9160918 v -3619168 h 55424130 v 27595579 h -55658880 v -5444609 h -8926168 v 103957959 m 17240,495610 -17240,-495610 m 68950,988470 -51710,-492860 m 137630,980300 -85920,-487440 m 205560,969410 -119640,-481970 m 272230,950360 -152590,-468390 m 337370,923120 -184780,-454730 m 400730,893140 -215950,-438410 m 462320,857770 -246370,-419360 m 520368,819660 -273998,-400300 m 575628,776070 -301630,-375770 m 628350,727050 -326720,-351280 m 676510,675350 -349790,-324070 m 721370,618150 -371580,-294080 m 763440,558200 -391860,-264120 m 799950,495590 -408090,-231470 m 831630,430260 -423540,-198790 m 860270,362180 -436730,-163390 m 882330,294080 -445600,-130690 m 899560,223280 -453960,-92590 m 913750,147050 -459790,-54460 m 921600,73520 -461810,-19060 m 102355560,19060 H 104892830 m 102355580,-19060 -461830,19060 m 921620,-73520 -459790,54460 m 913750,-147050 -453960,92590 m 899550,-223280 -445590,130690 m 882330,-294080 -436740,163390 m 860280,-362180 -423540,198790 m 831610,-430260 -408070,231470 m 799950,-495590 -391880,264120 m 763470,-558200 -371590,294080 m 721390,-618150 -349800,324070 m 676490,-675350 -326690,351280 m 628330,-727050 -301640,375770 m 575630,-776070 -273990,400300 m 520120,-819660 -246130,419360 m 461820,-857770 -215690,438410 m 400450,-893140 -184760,454730 m 338140,-923120 -153380,468390 m 273260,-950360 -119880,481970 m 205050,-969410 -85170,487440 m 136880,-980300 -51710,492860 m 68930,-988470 -17220,495610 m 17220,-130386023 v 129890413 m 0,-129890413 v 0 m -17220,-495599 17220,495599 m -68930,-988474 51710,492875 m -137880,-983027 86170,490152 m -205050,-969413 118880,479261 m -272260,-947629 153380,468368 m -338140,-923121 184760,454753 m -400450,-893168 215690,438415 m -461820,-857768 246130,419353 m -520120,-819643 273990,400290 m -575630,-776073 301640,375783 m -628330,-727060 326690,351277 m -676490,-675322 349800,324045 m -721390,-618137 371590,294092 m -763470,-558230 391880,264138 m -799950,-495597 408070,231459 m -831610,-430244 423540,198785 m -860280,-364891 436740,166106 m -882330,-294091 445590,127985 m -899550,-220569 453960,92584 m -913750,-147048 459790,54464" /></g><g
     inkscape:groupmode="layer"
     id="layer1"
     inkscape:label="ignore"
     style="fill:none" /><g
     inkscape:groupmode="layer"
     id="layer2"
     inkscape:label="line engraving"
     style="fill:none"><path
       style="fill:#ff00ff;stroke:#000000;stroke-width:80000;stroke-dasharray:none;stroke-opacity:1"
       d="m 180814330,125340290 -548150,40790 -423330,-70510 -423330,-70520 -2032000,-477250 -2032000,-477250 -677340,-162100 -677330,-162090 -2751670,-643640 -2751660,-643640 -7027340,-1649230 -7027330,-1649240 -2836330,-670340 -2836340,-670340 -3429000,-803500 -3429000,-803510 -3471330,-813420 -3471340,-813430 -1566330,-372030 -1566330,-372020 -1439340,-337120 -1439330,-337110 -7281330,-1706660 -7281340,-1706650 -352260,-166240 -352270,-166250 -49080,-127900 -49090,-127910 201910,-187130 201910,-187120 2019780,-1093100 2019770,-1093100 1947330,-1052740 1947340,-1052740 508000,-275120 508000,-275130 2455330,-1330220 2455330,-1330210 59220,-57400 59220,-57400 52740,-677330 52740,-677330 126710,-625512 126710,-625510 162210,-411510 162200,-411500 247440,-486993 247440,-486980 454690,-609410 454690,-609400 757930,-829930 757930,-829933 1314070,-1340760 1314060,-1340770 1515470,-1326230 1515470,-1326240 1610170,-1439330 1610180,-1439340 853690,-753730 853690,-753730 1032440,-827140 1032440,-827150 957230,-627410 957220,-627410 592670,-342720 592670,-342730 592660,-276070 592670,-276070 677330,-290880 677340,-290890 1354670,-510370 1354660,-510380 602090,-329270 602090,-329270 554310,-404120 554310,-404110 497420,-467010 497420,-467020 784180,-904550 784180,-904550 707270,-629270 707270,-629260 255700,-56160 255710,-56170 326440,166540 326450,166540 381360,410180 381370,410180 472590,592670 472580,592670 752630,1140830 752630,1140830 423340,426600 423330,426610 592670,305140 592660,305140 889000,228780 889000,228780 1100670,368040 1100670,368050 1058330,395190 1058330,395190 635000,235180 635000,235180 1524000,595340 1524000,595350 211670,60830 211670,60840 592660,253540 592670,253550 931330,468540 931340,468540 1227660,762620 1227670,762610 931330,549580 931340,549570 707720,327300 707720,327310 589450,179040 589440,179040 734830,-40380 734840,-40390 393270,-139360 393270,-139360 792070,-370970 792050,-370970 979740,-424960 979750,-424960 586580,-182360 586600,-182370 438770,-1080 438770,-1080 196230,101060 196230,101050 234820,219070 234830,219070 121930,410590 121930,410600 54170,608820 54170,608830 -96930,1130170 -96930,1130170 -169870,859500 -169860,859490 -171330,635000 -171310,635000 -499540,1608673 -499550,1608670 -226910,931330 -226910,931343 -7020,635000 -7030,635000 161780,423332 161780,423330 750270,1257810 750270,1257810 456170,858860 456160,858860 501850,1185330 501830,1185330 223210,654290 223210,654290 250670,912040 250680,912050 172700,931330 172700,931340 129430,1261370 129440,1261370 -23370,23370 -23370,23370 -1057700,-238400 -1057700,-238390 -2878670,-734870 -2878670,-734870 -3979330,-1006870 -3979330,-1006860 -2032000,-473620 -2032000,-473610 -2836340,-635180 -2836330,-635180 -2963330,-677040 -2963340,-677040 -3640660,-837760 -3640670,-837750 -1820330,-430860 -1820340,-430850 -1862660,-415800 -1862670,-415810 -3429000,-691690 -3429000,-691700 -778010,45400 -778010,45410 -143030,80050 -143030,80040 78450,48480 78450,48490 1011920,255070 1011920,255060 3471340,803500 3471330,803490 6561670,1535830 6561670,1535830 1227660,284950 1227670,284950 4910670,1152150 4910660,1152160 3979340,932530 3979330,932520 2836330,666180 2836340,666180 2921000,683350 2921000,683350 362570,169250 362590,169250 53760,140110 53760,140100 -215710,185550 -215720,185560 -1470630,789580 -1470620,789580 -296340,166360 -296330,166350 -2624670,1415500 -2624660,1415490 -465670,253170 -465670,253180 -2794000,1510710 -2794000,1510710 -467850,191150 -467840,191160 z m -1913980,-2157940 412170,9090 603830,-323770 603830,-323770 1121840,-615380 1121830,-615370 v -67790 -67800 l -140320,-53850 -140320,-53840 -1955180,-458590 -1955180,-458590 -624850,-140920 -624840,-140910 -264160,43140 -264150,43140 -1672170,905930 -1672160,905940 v 104070 104070 l 2518830,598050 2518830,598050 z m -7701940,-1773930 414880,5020 1109120,-581880 1109110,-581880 588450,-336810 588450,-336810 30860,-92570 30850,-92570 -322970,-86350 -322980,-86350 -2370660,-560940 -2370670,-560940 -273040,44220 -273050,44220 -1695450,913900 -1695460,913900 v 97180 97180 l 232830,49810 232840,49800 2286000,548420 2286000,548420 z m -7484560,-1745800 296330,-45700 804340,-430440 804330,-430440 592670,-324610 592660,-324610 275170,-140370 275170,-140370 v -108060 -108050 l -317500,-84500 -317500,-84500 -2408810,-558690 -2408800,-558680 -215860,51380 -215870,51370 -1270000,645840 -1270000,645840 -444500,283980 -444500,283970 v 74780 74780 l 1164170,271480 1164170,271490 1524000,364910 1524000,364900 z m 15640920,-34270 358590,7090 784410,-413020 784410,-413010 381000,-207960 381000,-207960 571500,-318130 571500,-318130 v -74530 -74530 l -444500,-126770 -444500,-126770 -2222130,-510600 -2222130,-510590 h -214290 -214300 l -1204240,622150 -1204240,622150 -508000,277760 -508000,277760 -120870,112980 -120860,112980 125920,48320 125920,48320 2492610,582700 2492610,582700 z m -23251340,-1775040 305910,-53560 1133420,-596330 1133420,-596330 537290,-314970 537280,-314970 -71620,-71520 -71610,-71510 -1439340,-348260 -1439330,-348270 -1259070,-292230 -1259080,-292220 -284730,78620 -284740,78620 -1588860,860960 -1588850,860960 -79030,76160 -79020,76160 44000,44000 44010,44000 1347350,329710 1347350,329710 1185340,258290 1185330,258300 169330,29120 169340,29120 z m 15519640,-1890 416220,6020 1107780,-583780 1107780,-583770 588450,-334920 588460,-334920 30850,-92560 30860,-92570 -322980,-86500 -322970,-86490 -2406820,-556680 -2406820,-556680 -260180,54090 -260180,54090 -1397000,744830 -1397000,744820 -274640,157020 -274630,157020 -500,91290 -510,91300 402160,97990 402170,98000 2116670,503190 2116660,503180 416220,6020 z m -23572560,-1693670 127000,5420 338670,-93190 338670,-93180 1270000,-683450 1270000,-683440 327230,-203770 327230,-203770 -77990,-77990 -77990,-77990 -2520690,-592140 -2520680,-592140 h -375720 -375720 l -1078170,582100 -1078170,582110 -483060,261490 -483060,261480 -173110,108110 -173100,108110 v 58590 58600 l 167800,53260 167800,53250 2478030,581560 2478030,581560 z m 16085300,-46610 294960,-46800 1271370,-686910 1271380,-686900 402160,-209800 402170,-209810 v -108470 -108480 l -317500,-83550 -317500,-83560 -973670,-220650 -973660,-220660 -1185340,-299110 -1185330,-299120 -560450,37630 -560450,37630 -1132890,637280 -1132880,637280 -539610,270310 -539610,270310 79110,79110 79110,79110 2661840,630980 2661830,630980 z m 10995250,-1055930 452870,8230 563130,-307460 563120,-307460 994840,-545150 994830,-545150 v -68850 -68850 l -190500,-53530 -190500,-53530 -3598330,-848910 -3598340,-848910 -1397000,-332150 -1397000,-332150 -7027330,-1647990 -7027330,-1648000 -3132670,-736170 -3132670,-736160 -1425810,-328120 -1425810,-328130 h -154660 -154650 l -578540,304790 -578530,304790 -1087010,593640 -1087000,593640 76140,76140 76140,76140 3381530,796830 3381530,796840 5418670,1272170 5418670,1272160 7069670,1656140 7069660,1656150 635000,160390 635000,160390 z m -34666160,-677290 330730,8190 981610,-521640 981610,-521650 508000,-273840 508000,-273840 274580,-157010 274590,-157020 -26630,-84670 -26620,-84660 -586630,-148440 -586630,-148430 -2015430,-465400 -2015430,-465400 h -293730 -293720 l -1119840,583730 -1119850,583740 -592660,337350 -592670,337350 v 115220 115230 l 2540000,606500 2540000,606510 330720,8190 z m 15925280,-32750 338670,-36900 1354670,-730660 1354660,-730660 338670,-181130 338670,-181140 36680,-24360 36690,-24370 -84650,-84650 -84660,-84660 -1603030,-382870 -1603030,-382870 -1117050,-251960 -1117050,-251960 -332860,114680 -332850,114670 -1513430,824780 -1513430,824780 -79020,76360 -79030,76370 49640,49640 49640,49640 2611720,627080 2611720,627090 z m 40015810,-1068010 137790,8280 83680,-105840 83660,-105830 47330,-254000 47320,-254000 -159690,-931330 -159690,-931340 -333920,-973660 -333920,-973670 -332380,-804330 -332380,-804340 -583350,-1185330 -583360,-1185330 -645560,-1058340 -645570,-1058330 -340650,-551770 -340670,-551770 -237930,-633560 -237930,-633570 1360,-973662 1350,-973670 438890,-1439333 438910,-1439340 420240,-1528853 420240,-1528860 178870,-1011140 178870,-1011150 12160,-1100660 12160,-1100670 -107240,-356020 -107260,-356030 -141090,-141080 -141090,-141090 -505760,45860 -505780,45860 -1817590,906410 -1817590,906410 -433150,115340 -433140,115330 -727290,1010 -727290,1010 -657360,-168130 -657370,-168130 -791760,-375060 -791750,-375050 -829260,-487860 -829250,-487860 -1270000,-797460 -1270000,-797460 -931340,-449590 -931330,-449590 -2159000,-849070 -2159000,-849070 -973670,-354460 -973660,-354470 -1729650,-584000 -1729650,-583990 -1445350,-430630 -1445350,-430630 -528850,-249250 -528850,-249260 -491200,-454760 -491200,-454770 -241030,-451230 -241040,-451220 -455530,-782060 -455540,-782060 -593590,-782930 -593600,-782920 -187450,-104190 -187460,-104180 -193870,-2990 -193870,-3000 -314130,162930 -314130,162930 -599120,620230 -599130,620240 -368550,465670 -368550,465660 -344660,367790 -344650,367780 -483620,375520 -483610,375520 -574720,324270 -574720,324260 -1185330,446090 -1185340,446090 -1016000,461540 -1016000,461550 -635000,344440 -635000,344440 -719660,425620 -719670,425610 -875080,582200 -875090,582190 -902910,688280 -902920,688290 -1100670,889750 -1100660,889750 -846670,719810 -846670,719810 -804330,722280 -804330,722270 -1185340,1115810 -1185330,1115810 -1028980,1045620 -1028980,1045620 -664350,762553 -664360,762560 -433050,549780 -433060,549770 -422790,635000 -422790,635003 -297730,804340 -297730,804330 -147490,592672 -147490,592660 46610,563230 46620,563220 208900,410440 208910,410450 198880,176800 198880,176800 298160,177990 298160,177980 633180,171480 633170,171470 744170,90370 744170,90360 822160,-86470 822160,-86480 719670,-173810 719670,-173810 2455330,-716800 2455330,-716800 719670,-216830 719670,-216840 621280,-121210 621280,-121200 648720,1760 648720,1760 550330,121890 550330,121880 2667000,548310 2667000,548310 1185340,262340 1185330,262340 2286000,545730 2286000,545730 2201330,544580 2201340,544580 2878660,722740 2878670,722750 1651000,388400 1651000,388400 533210,75770 533210,75760 241470,-84180 241480,-84180 34100,-142840 34110,-142840 -74110,-1227670 -74110,-1227660 40760,-1778000 40750,-1778000 141440,-672060 141440,-672050 208560,-555612 208560,-555620 328530,-554130 328530,-554140 547280,-588863 547290,-588870 468090,-281160 468090,-281160 620990,-221670 621000,-221670 1058330,-1290 1058330,-1300 522110,185150 522110,185150 536230,314250 536220,314250 410160,383620 410170,383630 507780,703393 507780,703380 584890,1128820 584890,1128812 v 206140 206130 l -101600,101600 -101600,101600 h -105820 -105830 l -386360,-260760 -386370,-260750 -338570,-395410 -338570,-395410 -739810,-1096982 -739800,-1096970 -478000,-384693 -478000,-384700 -622670,-251730 -622670,-251730 -804330,-2270 -804340,-2270 -568620,269370 -568630,269380 -574370,577293 -574320,577290 -267310,508000 -267300,508000 -217010,719672 -217000,719670 -144010,804330 -144010,804330 -760,1481670 -760,1481670 103740,635000 103730,635000 199130,435610 199120,435610 421880,333480 421880,333480 793370,260610 793370,260600 1439340,265270 1439330,265260 2624670,640210 2624660,640200 4995340,1252720 4995330,1252710 137800,8280 z m -16094250,-6437920 -130220,-11530 -184360,-35880 -184350,-35890 -366780,-322850 -366780,-322850 -208470,-412900 -208480,-412900 -33070,-619030 -33080,-619040 147100,-385170 147100,-385180 258160,-246710 258150,-246710 202040,-50710 202040,-50710 332120,44550 332120,44550 335620,265810 335610,265810 230700,471530 230700,471530 34450,646740 34450,646740 -239500,465670 -239490,465660 -377780,190500 -377770,190500 z m -2907500,-3290470 h -118680 l -287690,-192180 -287690,-192190 -148030,-294650 -148040,-294640 -170,-452970 -170,-452970 298100,-298090 298100,-298100 270340,54070 270340,54070 233940,224120 233940,224130 95090,288130 95090,288130 v 294930 294930 l -105060,253640 -105060,253630 -237870,123010 -237870,123000 h -118680 z m 4203810,-1018250 -71870,-2250 -233460,-144740 -233470,-144740 -135990,-356090 -135990,-356090 102320,-426530 102320,-426530 291250,-255720 291250,-255720 h 207380 207390 l 268350,239780 268360,239770 38570,465120 38570,465110 -174370,341790 -174360,341790 -292190,138650 -292190,138660 z m -10509410,-284590 -315120,35060 -258200,-116880 -258200,-116890 -221360,-263070 -221360,-263070 -102350,-310140 -102360,-310140 48070,-405890 48070,-405890 173230,-339552 173230,-339550 297650,-227030 297660,-227040 366430,-41300 366420,-41300 257950,133390 257950,133390 219520,260890 219530,260890 95620,355102 95620,355110 -51410,375020 -51400,375020 -210570,359320 -210580,359320 -299460,185080 -299460,185080 z m 8123610,-1237160 h -245560 l -233350,-183540 -233340,-183550 -116740,-279400 -116740,-279400 330,-362552 340,-362560 164490,-269760 164490,-269760 178820,-95710 178830,-95710 237140,52090 237140,52080 218170,228720 218180,228720 90060,238350 90050,238340 v 278190 278192 l -91000,261040 -91000,261050 -202360,132590 -202350,132580 h -245560 z m -16863070,-1633832 -804330,27220 -306300,-114200 -306300,-114200 -295380,-182550 -295380,-182560 -385300,-411910 -385300,-411910 -178910,-350703 -178910,-350690 h -69820 -69820 l -146160,161510 -146160,161500 -438460,191770 -438470,191773 -719660,35600 -719670,35600 -464220,-244380 -464220,-244383 -231660,-334990 -231660,-335000 -100520,-386000 -100530,-386000 56860,-226540 56860,-226550 204270,-51260 204260,-51270 154280,51900 154280,51900 280720,491110 280720,491100 240340,141970 240340,141970 410280,-1860 410270,-1860 338660,-155400 338670,-155390 395480,-432120 395480,-432120 224880,-56440 224870,-56440 196700,105270 196700,105260 133480,307720 133470,307710 114290,345950 114280,345960 247520,312210 247520,312210 321900,224243 321900,224230 459970,38140 459970,38150 388200,-97750 388200,-97750 326000,-215740 325990,-215733 188620,27940 188620,27940 84610,135063 84620,135070 -54780,218240 -54780,218250 -222340,264230 -222340,264240 -349180,181770 -349180,181760 z m -12361330,-3791593 -296330,-3970 -169340,-70820 -169330,-70830 -265130,-283640 -265120,-283650 -105120,-329150 -105120,-329163 48210,-407120 48220,-407130 124250,-237380 124250,-237390 266630,-270370 266640,-270370 296490,-97850 296500,-97850 292630,54900 292620,54890 289030,253770 289030,253770 144220,377640 144220,377630 -52010,439150 -52010,439153 -237880,384760 -237880,384750 -335670,190120 -335670,190120 z m -17145000,16993495 423330,-25060 1651000,-891170 1651000,-891180 v -115760 -115770 l -2413000,-571590 -2413000,-571590 -432150,-54510 -432160,-54510 -710840,355690 -710850,355690 -1081420,601240 -1081430,601230 29820,89480 29830,89470 1178600,286140 1178600,286150 1354670,325560 1354660,325550 z m 15738910,22200 329570,9070 1194430,-648860 1194420,-648860 550340,-295290 550330,-295290 36690,-30930 36690,-30930 -79890,-79890 -79890,-79890 -2518070,-596030 -2518070,-596030 -402070,1670 -402060,1680 -1690050,919830 -1690060,919830 -28040,84120 -28040,84120 532760,138910 532760,138920 2074340,497390 2074330,497400 329580,9070 z m -23528250,-1776480 423340,7040 1686290,-909910 1686290,-909910 32600,-97830 32590,-97810 -279550,-89930 -279560,-89930 -2359170,-553080 -2359180,-553090 h -265490 l -265490,10 -1724850,927570 -1724860,927570 -47500,47500 -47500,47500 79020,78270 79020,78280 2455340,590360 2455330,590360 z m 15832670,-1830 338670,6000 515540,-273480 515530,-273470 1241300,-667630 1241290,-667630 v -68210 -68200 l -64170,-39660 -64170,-39660 -2530200,-600340 -2530200,-600340 h -344620 -344630 l -1611840,856560 -1611830,856570 -123370,116500 -123380,116490 81040,78270 81040,78270 2074330,481470 2074340,481470 423330,110500 423330,110510 338670,6000 z m -7662330,-1800440 465660,-23550 1672170,-910900 1672170,-910890 v -72420 -72430 l -74990,-46340 -74980,-46340 -2561110,-593650 -2561100,-593660 h -250480 -250470 l -690600,346650 -690610,346650 -1079500,593210 -1079500,593210 v 70430 70440 l 190500,64410 190500,64420 2328340,572150 2328330,572160 z"
       id="path316" /></g></svg>
