<?xml version="1.0" encoding="UTF-8" standalone="no"?>
<svg
   version="1.1"
   width="29.700220cm"
   height="21.000720cm"
   viewBox="0 0 297002200 210007200"
   id="svg2600"
   sodipodi:docname="Sheet bottom 3 dick (current WIP).svg"
   inkscape:version="1.2.1 (9c6d41e410, 2022-07-14)"
   xml:space="preserve"
   xmlns:inkscape="http://www.inkscape.org/namespaces/inkscape"
   xmlns:sodipodi="http://sodipodi.sourceforge.net/DTD/sodipodi-0.dtd"
   xmlns="http://www.w3.org/2000/svg"
   xmlns:svg="http://www.w3.org/2000/svg"
   xmlns:rdf="http://www.w3.org/1999/02/22-rdf-syntax-ns#"
   xmlns:cc="http://creativecommons.org/ns#"
   xmlns:dc="http://purl.org/dc/elements/1.1/"><defs
     id="defs2604"><inkscape:path-effect
       effect="fill_between_many"
       method="originald"
       linkedpaths="#path25980-3-7-8,0,1|"
       id="path-effect33999" /></defs><sodipodi:namedview
     id="namedview2602"
     pagecolor="#ffffff"
     bordercolor="#000000"
     borderopacity="0.25"
     inkscape:showpageshadow="2"
     inkscape:pageopacity="0.0"
     inkscape:pagecheckerboard="0"
     inkscape:deskcolor="#d1d1d1"
     inkscape:document-units="cm"
     showgrid="true"
     inkscape:zoom="0.70710682"
     inkscape:cx="467.39756"
     inkscape:cy="471.6402"
     inkscape:window-width="1920"
     inkscape:window-height="1051"
     inkscape:window-x="-9"
     inkscape:window-y="-9"
     inkscape:window-maximized="1"
     inkscape:current-layer="layer2"
     inkscape:lockguides="false"><inkscape:grid
       type="xygrid"
       id="grid996" /></sodipodi:namedview><title
     id="title1304">SVG Picture created as Plate-Edge_Cuts.svg date 2022/11/02 15:26:49 </title><desc
     id="desc1306">Picture generated by PCBNEW </desc><metadata
     id="metadata244123"><rdf:RDF><cc:Work
         rdf:about=""><dc:title>SVG Picture created as Plate-Edge_Cuts.svg date 2022/11/02 15:26:49 </dc:title></cc:Work></rdf:RDF></metadata><g
     inkscape:groupmode="layer"
     id="layer4"
     inkscape:label="cutting"
     style="display:inline"><path
       id="path167527-1-4"
       style="display:inline;fill:none;stroke:#0000ff;stroke-width:200000;stroke-dasharray:none"
       d="m 101996890,34712286 a 1641589.9,1641590 0 0 1 -1641590,1641590 1641589.9,1641590 0 0 1 -1641592,-1641590 1641589.9,1641590 0 0 1 1641592,-1641590 1641589.9,1641590 0 0 1 1641590,1641590 z" /><path
       id="path167527-8-1-7"
       style="display:inline;fill:none;stroke:#0000ff;stroke-width:200000;stroke-dasharray:none"
       d="m 201451740,34712694 a 1641590,1641589.9 0 0 1 -1641590,1641590 1641590,1641589.9 0 0 1 -1641590,-1641590 1641590,1641589.9 0 0 1 1641590,-1641590 1641590,1641589.9 0 0 1 1641590,1641590 z" /><path
       id="path167527-8-6-5-4"
       style="display:inline;fill:none;stroke:#0000ff;stroke-width:200000;stroke-dasharray:none"
       d="m 201451950,168481710 a 1641589.9,1641590 0 0 1 -1641590,1641590 1641589.9,1641590 0 0 1 -1641590,-1641590 1641589.9,1641590 0 0 1 1641590,-1641590 1641589.9,1641590 0 0 1 1641590,1641590 z" /><path
       id="path167527-8-6-4-8-2"
       style="display:inline;fill:none;stroke:#0000ff;stroke-width:200000;stroke-dasharray:none"
       d="m 101996940,168481690 a 1641589.9,1641590 0 0 1 -1641590,1641590 1641589.9,1641590 0 0 1 -1641594,-1641590 1641589.9,1641590 0 0 1 1641594,-1641590 1641589.9,1641590 0 0 1 1641590,1641590 z" /><path
       id="path25980-3-7-8"
       style="display:inline;fill:none;stroke:#0000ff;stroke-width:193908;stroke-linecap:round;stroke-dasharray:none;stroke-opacity:1"
       d="m 201927560,29818014 461830,19060 m -102355580,-19060 h 101893750 m -101893750,0 v 0 m -461815,19060 461815,-19060 m -921606,73524 459791,-54464 m -913754,147048 453963,-92584 m -899559,220569 445596,-127985 m -882324,294091 436728,-166106 m -860273,364891 423545,-198785 m -831628,430244 408083,-231459 m -799945,495597 391862,-264138 m -763447,558230 371585,-294092 m -721370,618137 349785,-324045 m -676506,675322 326721,-351277 m -628350,727060 301629,-375783 m -575627,776073 273998,-400290 m -520368,819643 246370,-419353 m -462327,857768 215957,-438415 m -400736,893168 184779,-454753 m -337365,923121 152586,-468368 m -272225,947629 119639,-479261 m -205564,969413 85925,-490152 m -137630,983027 51705,-492875 m -68943,988474 17238,-495599 m 0,130881621 -17238,-495610 m 68943,988470 -51705,-492860 m 137630,980300 -85925,-487440 m 205564,969410 -119639,-481970 m 272225,950360 -152586,-468390 m 337365,923120 -184779,-454730 m 400736,893140 -215957,-438410 m 462327,857770 -246370,-419360 m 520368,819660 -273998,-400300 m 575627,776070 -301629,-375770 m 628350,727050 -326721,-351280 m 676506,675350 -349785,-324070 m 721370,618150 -371585,-294080 m 763447,558200 -391862,-264120 m 799945,495590 -408083,-231470 m 831628,430260 -423545,-198790 m 860273,362180 -436728,-163390 m 882324,294080 -445596,-130690 m 899559,223280 -453963,-92590 m 913754,147050 -459791,-54460 m 921606,73520 -461815,-19060 m 102355565,19060 H 100033810 m 102355580,-19060 -461830,19060 m 921620,-73520 -459790,54460 m 913750,-147050 -453960,92590 m 899550,-223280 -445590,130690 m 882330,-294080 -436740,163390 m 860280,-362180 -423540,198790 m 831610,-430260 -408070,231470 m 799950,-495590 -391880,264120 m 763470,-558200 -371590,294080 m 721390,-618150 -349800,324070 m 676490,-675350 -326690,351280 m 628330,-727050 -301640,375770 m 575630,-776070 -273990,400300 m 520120,-819660 -246130,419360 m 461820,-857770 -215690,438410 m 400450,-893140 -184760,454730 m 338140,-923120 -153380,468390 m 273260,-950360 -119880,481970 m 205050,-969410 -85170,487440 m 136880,-980300 -51710,492860 m 68930,-988470 -17220,495610 m 17220,-130386022 v 129890412 m 0,-129890412 v 0 m -17220,-495599 17220,495599 m -68930,-988474 51710,492875 m -137880,-983027 86170,490152 m -205050,-969413 118880,479261 m -272260,-947629 153380,468368 m -338140,-923121 184760,454753 m -400450,-893168 215690,438415 m -461820,-857768 246130,419353 m -520120,-819643 273990,400290 m -575630,-776073 301640,375783 m -628330,-727060 326690,351277 m -676490,-675322 349800,324045 m -721390,-618137 371590,294092 m -763470,-558230 391880,264138 m -799950,-495597 408070,231459 m -831610,-430244 423540,198785 m -860280,-364891 436740,166106 m -882330,-294091 445590,127985 m -899550,-220569 453960,92584 m -913750,-147048 459790,54464 m -921620,-73524 461830,19060 m -102355580,-19060 h 101893750 m -101893750,0 v 0 m -461814,19060 461814,-19060 m -921605,73524 459791,-54464 m -913754,147048 453963,-92584 m -899560,220569 445597,-127985 m -882324,294091 436727,-166106 m -860272,364891 423545,-198785 m -831628,430244 408083,-231459 m -799945,495597 391862,-264138 m -763447,558230 371585,-294092 m -721370,618137 349785,-324045 m -676506,675322 326721,-351277 m -628350,727060 301629,-375783 m -575627,776073 273998,-400290 m -520368,819643 246370,-419353 m -462327,857768 215957,-438415 m -400736,893168 184779,-454753 m -337366,923121 152587,-468368 m -272225,947629 119638,-479261 m -205563,969413 85925,-490152 m -137630,983027 51705,-492875 m -68943,988474 17238,-495599 m -17238,495599 v 7400652 h 9160919 v -3619168 h 55424130 v 27595579 h -55658880 v -5444609 h -8926169 v 103957958 m 17238,495610 -17238,-495610 m 68943,988470 -51705,-492860 m 137630,980300 -85925,-487440 m 205563,969410 -119638,-481970 m 272225,950360 -152587,-468390 m 337366,923120 -184779,-454730 m 400736,893140 -215957,-438410 m 462327,857770 -246370,-419360 m 520368,819660 -273998,-400300 m 575627,776070 -301629,-375770 m 628350,727050 -326721,-351280 m 676506,675350 -349785,-324070 m 721370,618150 -371585,-294080 m 763447,558200 -391862,-264120 m 799945,495590 -408083,-231470 m 831628,430260 -423545,-198790 m 860272,362180 -436727,-163390 m 882324,294080 -445597,-130690 m 899560,223280 -453963,-92590 m 913754,147050 -459791,-54460 m 921605,73520 -461814,-19060 m 102355564,19060 H 100033810 m 102355580,-19060 -461830,19060 m 921620,-73520 -459790,54460 m 913750,-147050 -453960,92590 m 899550,-223280 -445590,130690 m 882330,-294080 -436740,163390 m 860280,-362180 -423540,198790 m 831610,-430260 -408070,231470 m 799950,-495590 -391880,264120 m 763470,-558200 -371590,294080 m 721390,-618150 -349800,324070 m 676490,-675350 -326690,351280 m 628330,-727050 -301640,375770 m 575630,-776070 -273990,400300 m 520120,-819660 -246130,419360 m 461820,-857770 -215690,438410 m 400450,-893140 -184760,454730 m 338140,-923120 -153380,468390 m 273260,-950360 -119880,481970 m 205050,-969410 -85170,487440 m 136880,-980300 -51710,492860 m 68930,-988470 -17220,495610 m 17220,-130386022 v 129890412 m 0,-129890412 v 0 m -17220,-495599 17220,495599 m -68930,-988474 51710,492875 m -137880,-983027 86170,490152 m -205050,-969413 118880,479261 m -272260,-947629 153380,468368 m -338140,-923121 184760,454753 m -400450,-893168 215690,438415 m -461820,-857768 246130,419353 m -520120,-819643 273990,400290 m -575630,-776073 301640,375783 m -628330,-727060 326690,351277 m -676490,-675322 349800,324045 m -721390,-618137 371590,294092 m -763470,-558230 391880,264138 m -799950,-495597 408070,231459 m -831610,-430244 423540,198785 m -860280,-364891 436740,166106 m -882330,-294091 445590,127985 m -899550,-220569 453960,92584 m -913750,-147048 459790,54464" /></g><g
     inkscape:groupmode="layer"
     id="layer1"
     inkscape:label="ignore"
     style="fill:none" /><g
     inkscape:groupmode="layer"
     id="layer2"
     inkscape:label="line engraving"
     style="fill:none"><path
       style="fill:#ff00ff;stroke:#000000;stroke-width:352778;stroke-opacity:1"
       d="m 306192310,634860840 -1248790,-40570 -1321350,-256420 -1321350,-256420 -618930,-706630 -618930,-706620 -1305340,-615750 -1305350,-615740 -930150,-1219490 -930160,-1219500 -1159500,-2541000 -1159490,-2541010 -416620,-2822230 -416620,-2822220 319810,-4762500 319810,-4762500 757780,-1485250 757770,-1485250 v -512210 -512210 l -1499300,-249120 -1499310,-249110 -881940,-438720 -881950,-438710 -2011880,-197920 -2011880,-197930 -900590,-468170 -900590,-468170 -4319480,-2252320 -4319470,-2252310 -2469440,-1251140 -2469450,-1251140 -352770,-398980 -352780,-398980 -2103230,-1389240 -2103220,-1389230 -655740,-529160 -655730,-529170 -1175220,-1058330 -1175210,-1058340 -475550,-398750 -475550,-398760 -2048200,-2219510 -2048200,-2219510 -2577800,-3908120 -2577810,-3908120 -2466920,-4938890 -2466920,-4938890 -255280,-881950 -255270,-881940 -653060,-1763890 -653060,-1763890 -758060,-3527770 -758060,-3527780 -325680,-614150 -325690,-614140 -363480,-2384470 -363480,-2384460 -518150,-5115280 -518150,-5115280 -17780,-7639930 -17780,-7639920 205370,-3648970 205370,-3648960 558370,-3880550 558370,-3880560 469620,-1763880 469610,-1763890 200110,-1940280 200110,-1940280 387260,-2469440 387260,-2469450 1060560,-5468050 1060550,-5468060 311480,-1587500 311480,-1587500 527090,-2116660 527080,-2116670 742090,-1940280 742080,-1940280 1420,-1123410 1410,-1123410 -732470,-786210 -732460,-786210 -379240,-1149110 -379250,-1149120 -1128430,-829530 -1128430,-829530 -1411110,-486030 -1411110,-486030 -803090,-564590 -803080,-564590 -2110270,-2728380 -2110260,-2728370 -736760,-3445240 -736770,-3445230 -174260,-2041950 -174260,-2041950 336620,-427490 336640,-427500 234940,-1538230 234940,-1538220 831010,-1460390 831000,-1460390 2208190,-3880550 2208200,-3880560 742770,-929230 742770,-929240 1411110,-2364760 1411110,-2364740 1092690,-1646310 1092670,-1646320 1339080,-2468030 1339080,-2468030 1502090,-2293060 1502080,-2293050 1808960,-3334850 1808970,-3334850 476460,-545710 476450,-545700 620930,-1234730 620930,-1234720 227560,-176390 227560,-176390 1293540,-1974170 1293530,-1974170 1628130,-3141110 1628120,-3141100 619680,-705560 619680,-705550 2251400,-3527780 2251400,-3527780 669020,-705550 669030,-705560 1027780,-1763890 1027790,-1763890 1037810,-1411110 1037800,-1411110 1407650,-2293050 1407650,-2293060 1253490,-1342550 1253500,-1342550 v -293040 -293050 l 1675690,-1723410 1675690,-1723420 2016700,-1794220 2016690,-1794210 1628350,-1196770 1628340,-1196780 1117460,-884930 1117470,-884930 1700020,-1182930 1700020,-1182930 909130,-842560 909130,-842550 h 318210 318210 l 1930180,-1234720 1930180,-1234720 h 556060 556050 l 936400,-650150 936410,-650140 1940270,-899320 1940280,-899330 1610690,-743590 1610890,-743580 505980,-2190 505980,-2190 881940,-458480 881950,-458470 2822220,-910450 2822220,-910450 2469450,-717530 2469440,-717530 6064590,-764720 6064600,-764720 h 2456870 2456870 l 2113460,770600 2113460,770610 1358240,-644530 1358240,-644530 1412390,40090 1412390,40080 1763890,406540 1763890,406540 1940280,197110 1940280,197110 1434290,672430 1434300,672430 h 417600 417610 l 1849280,970130 1849280,970140 179370,196420 179380,196420 1203420,487310 1203420,487300 1698490,1168360 1698500,1168360 h 349980 349980 l 5153620,5185090 5153620,5185100 511190,988510 511180,988520 h 267650 267660 l 653960,1107060 653960,1107070 745020,742050 745020,742040 1570440,2119640 1570440,2119640 1516360,2251580 1516370,2251570 v 420960 420960 l 881950,828540 881940,828540 v 617000 616990 l 833480,997210 833490,997200 1122660,1940280 1122650,1940280 289530,529170 289520,529160 1017530,2088870 1017530,2088880 881940,1648310 881950,1648320 737530,1025310 737520,1025310 1519390,2822230 1519390,2822220 1411650,2645830 1411640,2645830 4175130,8290280 4175120,8290280 5610,582330 5610,582330 878490,1887110 878500,1887120 3530,816940 3530,816940 417790,770560 417790,770560 336080,1587500 336090,1587500 152260,4938880 152260,4938890 -612990,2116670 -613000,2116670 -293140,335140 -293140,335130 v 782140 782150 l -661250,1542620 -661240,1542620 -261460,1190420 -261460,1190420 -1037620,2146900 -1037610,2146900 -602260,1058330 -602260,1058340 -1101440,1592710 -1101440,1592710 -2610010,2464230 -2610010,2464240 -3014700,1674600 -3014710,1674610 -1470990,1358000 -1470990,1358020 v 1069440 1069440 l -529170,1266470 -529160,1266470 v 3863400 3863390 l 503310,2056970 503320,2056960 220140,3880560 220150,3880550 517330,2882140 517340,2882130 1016270,3115090 1016260,3115090 778470,3527770 778450,3527780 690960,2293060 690960,2293050 1294640,2569770 1294630,2569770 1141300,1134400 1141290,1134390 11180,397780 11190,397780 515950,428200 515950,428200 1046150,2712770 1046160,2712760 553430,3164030 553440,3164040 1050,1875270 1060,1875280 365190,682360 365190,682370 h 531190 531180 l 2298730,-742650 2298740,-742640 950030,174210 950030,174210 1817180,507700 1817170,507700 1181440,986480 1181430,986480 285440,491300 285430,491300 467590,1846150 467590,1846150 237990,2871780 237990,2871790 -494680,1185160 -494680,1185150 -254410,1358450 -254390,1358450 -477720,1111000 -477710,1110990 -1150890,2734030 -1150890,2734030 h -250780 -250780 l -206680,823480 -206680,823490 -1330870,1703450 -1330870,1703450 -2204860,2310400 -2204860,2310400 v 277940 277940 h -488120 -488120 l -1201370,1322920 -1201380,1322920 -1926480,1577000 -1926480,1577010 -1058330,1014490 -1058330,1014490 -1509340,1048320 -1509340,1048330 -1940300,858090 -1940310,858100 h -2160760 -2160760 l -1974320,-928050 -1974320,-928050 -936400,-659450 -936400,-659450 h -368830 -368830 l -1516990,-1024100 -1516990,-1024100 -1280680,-1357150 -1280680,-1357150 -1548410,-1276790 -1548420,-1276780 -2172290,-1096570 -2172290,-1096570 -198190,-320680 -198200,-320680 -1326810,-245600 -1326810,-245600 -1058340,-458590 -1058330,-458580 -1058330,-379330 -1058340,-379330 -2116660,-574840 -2116670,-574840 -4409720,-318100 -4409720,-318090 -1763890,-147090 -1763890,-147080 -3737430,-441620 -3737420,-441610 -1554240,390470 -1554250,390480 -2469440,225520 -2469450,225520 -2469440,522760 -2469450,522760 -1261900,269540 -1261910,269550 -390220,241160 -390210,241170 -1522880,322580 -1522880,322590 -2645830,584440 -2645830,584440 -631110,674220 -631100,674220 h -291060 -291060 l -1018110,1499310 -1018120,1499310 -373550,352770 -373550,352780 -810590,2469450 -810590,2469440 -705300,1574930 -705300,1574930 177940,1578620 177930,1578610 564720,412940 564730,412930 345700,1822880 345700,1822870 318100,607870 318100,607860 438610,2486700 438600,2486690 -228070,1570250 -228070,1570250 -304260,2469450 -304270,2469440 -584720,2469440 -584730,2469450 -537610,1763890 -537620,1763890 -589390,1411110 -589400,1411110 -635620,698530 -635630,698540 -200980,800770 -200980,800770 h -314530 -314540 v 402080 402080 l -617360,489340 -617360,489350 -1411110,663520 -1411110,663510 -881950,166470 -881940,166460 -2102590,571650 -2102590,571650 -1248800,-40570 z m -190460,-2802400 2469440,-3180 1411120,-681620 1411110,-681610 410990,-11960 410990,-11960 1359370,-1544330 1359370,-1544320 1523480,-3482760 1523490,-3482760 328550,-1411110 328560,-1411110 545260,-2822220 545250,-2822220 22790,-4634690 22790,-4634690 -264220,-427520 -264220,-427520 -1104000,1193280 -1104000,1193280 -934140,809800 -934140,809800 -1094330,-565900 -1094330,-565900 v -460140 -460130 l 1529450,-3146780 1529460,-3146780 458490,-1234720 458490,-1234720 1385010,-3175000 1385010,-3175000 331210,-612580 331210,-612570 v -533960 -533950 h 346060 346060 l 210740,-839680 210750,-839690 1648060,-1565140 1648050,-1565130 2116670,-1146640 2116670,-1146640 2116660,-893390 2116670,-893390 529170,-454290 529160,-454290 1940280,-431260 1940280,-431250 1587500,-333440 1587500,-333440 1763890,-323030 1763890,-323030 2293060,-496440 2293050,-496440 3175000,-294210 3175000,-294200 708890,74780 708880,74780 4406400,363770 4406390,363760 4586110,310800 4586110,310790 2038530,912900 2038530,912890 h 465950 465940 l 2610800,1394460 2610810,1394470 1494440,758760 1494450,758770 1447640,1404890 1447650,1404900 1028280,432360 1028280,432350 2074610,2006740 2074610,2006740 h 369440 369440 l 203740,641920 203740,641920 1243110,592800 1243120,592800 h 2263720 2263720 l 1791550,-384220 1791560,-384210 962630,-762310 962630,-762310 565090,-352780 565080,-352780 1019630,-696720 1019620,-696730 2293050,-2257480 2293060,-2257470 1243430,-832440 1243420,-832430 1331770,-1593220 1331770,-1593230 423420,-13370 423410,-13370 2499140,-3426230 2499140,-3426220 1225380,-2645840 1225380,-2645830 483310,-1587500 483300,-1587500 553370,-652950 553360,-652950 -71570,-2366780 -71560,-2366780 -1041750,-2095550 -1041740,-2095540 -910270,-851890 -910270,-851880 -2737610,-135350 -2737610,-135340 -783230,458060 -783230,458060 -2365000,1411110 -2364990,1411110 -1085110,1060670 -1085100,1060660 -1058340,1239940 -1058330,1239950 -1664650,1976060 -1664650,1976070 -577000,1720550 -577000,1720550 -448910,529160 -448910,529170 -745980,1713650 -745980,1713650 -547170,2872460 -547170,2872460 -383670,1499310 -383660,1499300 h -470910 -470910 l -411110,-768160 -411100,-768160 199180,-2375890 199190,-2375890 747510,-1883030 747510,-1883030 1429230,-2921270 1429230,-2921270 1200270,-1488450 1200270,-1488460 264080,-352770 264070,-352780 1786120,-2293060 1786120,-2293050 1334610,-1899560 1334600,-1899560 187250,-3398230 187260,-3398230 -429480,-3694280 -429490,-3694280 -467920,-885710 -467920,-885710 -440190,-1178620 -440180,-1178620 -1369970,-2119600 -1369960,-2119600 -1673910,-1640670 -1673900,-1640660 -2456290,-1871790 -2456290,-1871780 -1492860,-1036180 -1492860,-1036180 386490,-848250 386490,-848260 1106370,350560 1106370,350560 789360,182750 789360,182750 200370,-522140 200370,-522150 -772510,-2957720 -772510,-2957730 -676150,-3704160 -676140,-3704170 -498980,-4409720 -498980,-4409730 -344470,-1411110 -344470,-1411110 -414880,-5291660 -414880,-5291670 -5360,-1411110 -5370,-1411110 212900,-3351390 212890,-3351390 -2106250,-3142760 -2106250,-3142750 v -259080 -259090 l -537160,-206130 -537150,-206120 431370,-690740 431380,-690750 233230,144150 233230,144140 1283660,159210 1283660,159220 v -987180 -987170 l -1924400,-2825830 -1924410,-2825830 -901170,-1614150 -901170,-1614160 -1403280,-2748320 -1403270,-2748320 -4480,-289220 -4480,-289220 -993490,-1474670 -993500,-1474670 -972180,-1894160 -972180,-1894160 -336660,-398900 -336660,-398890 -1128730,-1763890 -1128720,-1763890 -491160,-507830 -491150,-507820 -353160,-1013090 -353170,-1013090 -414970,159240 -414970,159240 -52790,-700870 -52800,-700870 -1342270,-1185970 -1342280,-1185960 -264580,-14680 -264590,-14700 v 373090 373080 l 923970,1655390 923970,1655390 487140,695860 487140,695850 v 601460 601450 l 835390,657120 835390,657120 1043930,2102510 1043930,2102520 942900,1492290 942910,1492300 v 152600 152610 l 1220160,1852730 1220170,1852730 629180,1749710 629190,1749710 443700,170260 443710,170270 v 678880 678880 l 527480,202420 527480,202410 1223560,2612740 1223550,2612740 -262420,709400 -262420,709400 -1224030,-1172670 -1224040,-1172660 -1058330,-1847120 -1058330,-1847120 -1146530,-1781350 -1146530,-1781360 v -477550 -477560 l -358120,-221330 -358120,-221330 -533260,-1122410 -533270,-1122400 -462850,-791320 -462850,-791320 -586040,-647570 -586050,-647570 v -542010 -542000 l -628300,-841330 -628300,-841330 -1010540,-1940270 -1010550,-1940280 -477820,-556950 -477820,-556940 v -386130 -386120 l -802290,-997210 -802290,-997210 -773970,-1603640 -773980,-1603650 -893180,-839100 -893180,-839090 v -569470 -569470 l -689000,-1351440 -689010,-1351450 -494070,-575230 -494080,-575230 -580810,-1200730 -580810,-1200730 v -1420060 -1420060 l -423640,-1171570 -423650,-1171580 h -618090 -618080 l -810360,-386030 -810340,-386040 -853370,-1064660 -853360,-1064650 -298150,-1901240 -298140,-1901250 -1306960,-2557090 -1306950,-2557090 -981120,-1568370 -981120,-1568370 v -1694830 -1694820 h 500310 500320 l 558020,214130 558020,214140 v 491420 491420 l 264580,2120 264580,2120 1889900,2973380 1889900,2973380 439610,168700 439620,168690 759560,1457260 759570,1457270 -25360,1484080 -25370,1484080 502860,1362800 502860,1362790 873500,930260 873510,930260 240960,970140 240950,970140 h 514240 514240 l 1457750,1852080 1457740,1852080 323780,120740 323780,120740 670790,1290370 670790,1290380 3112140,3371240 3112140,3371240 1411110,2001010 1411120,2001010 423140,7620 423150,7620 1634260,2290210 1634270,2290220 785080,620200 785090,620200 1106990,1940280 1107000,1940280 1449930,2822220 1449940,2822220 1065850,2998620 1065860,2998610 592850,1940270 592850,1940280 591790,881950 591800,881940 421980,1763890 421980,1763890 505710,529160 505720,529170 682790,-832830 682800,-832830 v -948700 -948690 l 406820,-406830 406820,-406820 732430,391980 732430,391990 465100,465100 465110,465100 1300840,-697200 1300840,-697210 h 315240 315250 l 1453870,-1242110 1453860,-1242110 1587500,-1527320 1587500,-1527320 934470,-599160 934460,-599160 417880,-1129330 417880,-1129330 261360,-529160 261360,-529170 810520,-3351390 810510,-3351390 285370,-705550 285360,-705560 211060,-1940280 211050,-1940270 207160,-2659150 207160,-2659150 -762850,-4749190 -762840,-4749180 -123580,-705550 -123590,-705560 -653940,-1763890 -653950,-1763890 -881430,-1411110 -881430,-1411110 -791200,-1234720 -791200,-1234720 -757210,-1587500 -757200,-1587500 -707350,-1411110 -707350,-1411120 -530350,-1058330 -530350,-1058330 -433750,-529170 -433750,-529170 -2922160,-5644440 -2922160,-5644440 -1739750,-3527780 -1739750,-3527780 -785910,-1058330 -785910,-1058340 -1189750,-2116660 -1189750,-2116670 -285380,-117590 -285370,-117590 -19080,-411580 -19090,-411570 -1312490,-1937110 -1312480,-1937110 -652140,-125600 -652150,-125590 -1000610,739790 -1000620,739790 h -860220 -860220 l -1459160,-828820 -1459160,-828820 -1011780,-1376050 -1011780,-1376040 -70260,-1234720 -70250,-1234720 35740,-1295890 35740,-1295900 1261650,-1652850 1261640,-1652850 -418740,-1010940 -418750,-1010950 -779630,-802810 -779630,-802810 -1684140,-2384620 -1684140,-2384620 -611170,-437600 -611180,-437870 -325600,-544560 -325590,-544560 -3090890,-2889940 -3090880,-2889930 -1495230,-756550 -1495230,-756540 -282110,-483270 -282110,-483260 h -619490 -619490 l -1195410,-881950 -1195410,-881940 h -460630 -460620 v -269240 -269240 l -2381250,-1137410 -2381260,-1137410 -1587500,-359780 -1587500,-359770 -4080320,-224450 -4080330,-224450 -869720,569850 -869710,569860 -1223190,-743870 -1223200,-743870 -2293430,-91160 -2293430,-91170 -2645830,314640 -2645840,314640 -1763890,490570 -1763890,490570 -2293050,597310 -2293060,597300 -2469440,631660 -2469450,631660 -2955870,936040 -2955880,936040 -2688570,1284690 -2688570,1284680 -176390,207010 -176380,207000 -1411120,922680 -1411110,922680 -2074670,1193000 -2074670,1192990 -1889540,1058340 -1889540,1058330 -1114490,881940 -1114500,881950 -2502550,2293050 -2502560,2293060 -3354850,3396210 -3354850,3396210 -724030,837120 -724030,837130 -846040,1234720 -846050,1234720 -2134090,2469440 -2134100,2469450 -277080,204930 -277080,204940 -738620,1382560 -738620,1382570 -862180,1058330 -862180,1058330 -1385310,2216770 -1385310,2216760 v 401290 401300 l -498470,556940 -498470,556940 -1353620,2598140 -1353610,2598130 -384100,662630 -384100,662640 -526350,619780 -526350,619800 -1012420,1763880 -1012430,1763890 -867650,1587500 -867650,1587500 -815390,1411110 -815390,1411110 -938270,1763890 -938270,1763890 -292830,188760 -292830,188750 -567180,1222360 -567190,1222350 -557230,1039320 -557240,1039320 -1358710,2102180 -1358700,2102180 v 279910 279910 l -861940,930050 -861950,930050 -2401250,3598860 -2401250,3598870 -352780,570310 -352780,570320 -1058330,1645540 -1058330,1645550 -1146530,1566730 -1146530,1566730 v 300080 300080 l -1227810,1548950 -1227820,1548950 -394630,1763890 -394620,1763890 123130,3901330 123140,3901340 1191030,2344160 1191030,2344160 1719390,1627910 1719380,1627920 v 328670 328670 h 488600 488590 l 521300,793750 521300,793750 1704420,500130 1704410,500130 137310,-411930 137320,-411940 h 433740 433740 l 1772860,-855250 1772860,-855260 1330410,-249580 1330410,-249590 289530,468470 289530,468480 -304980,569860 -304980,569850 -2757210,1320490 -2757210,1320500 -529170,308060 -529160,308070 -617370,190770 -617360,190770 v 404990 405000 l 793750,-263340 793750,-263330 970140,-42400 970140,-42390 v -488550 -488550 l 705560,896970 705550,896970 v 569280 569280 l -842460,383850 -842460,383860 -890600,2871780 -890600,2871780 -241650,1763880 -241650,1763890 -680940,2737640 -680940,2737640 -384360,1848470 -384350,1848470 -281050,1587500 -281040,1587500 -570880,2998620 -570870,2998610 -349260,3306060 -349260,3306060 -359550,1456440 -359540,1456440 -512080,5820830 -512090,5820830 -235120,6628460 -235120,6628450 418860,5189600 418860,5189600 304110,2469450 304110,2469440 596610,3527780 596600,3527780 853360,2724600 853360,2724590 v 381570 381560 l 654440,1479940 654450,1479960 844450,2116660 844450,2116670 1542530,2822220 1542530,2822220 262420,176390 262420,176390 258290,881950 258280,881940 1376760,1996350 1376760,1996350 v 306500 306500 l 617360,549430 617360,549440 2526200,2968550 2526200,2968550 2941860,2726990 2941860,2726980 705550,657740 705560,657740 1940270,1346720 1940280,1346720 1058340,756370 1058330,756370 1940280,806160 1940280,806160 1411110,663970 1411110,663970 1940280,332490 1940270,332480 1411110,543390 1411120,543390 1126360,15480 1126360,15490 1343080,765100 1343090,765090 794280,708020 794290,708010 332090,1202750 332100,1202740 -323900,851930 -323900,851920 h -336310 -336310 l -529170,-529170 -529170,-529170 h -365560 -365560 l -320710,617360 -320700,617360 -254330,2822230 -254310,2822220 38840,2293050 38850,2293060 392050,1763890 392060,1763890 687080,1587500 687070,1587500 943940,1954660 943940,1954670 1411110,946970 1411110,946970 2469450,-3180 z m 68850470,-111457020 h -470370 l -235190,-235190 -235180,-235180 v -646770 -646750 h -296310 -296320 l -393250,-1322920 -393260,-1322920 -149820,-3030480 -149830,-3030490 -451320,-843320 -451330,-843310 -151650,-5875640 -151650,-5875650 423480,-261720 423480,-261720 231720,374930 231720,374940 85480,6039770 85480,6039780 696990,950620 697000,950630 217110,2998610 217110,2998610 493140,781340 493140,781330 v 1070750 1070750 z m -9956970,-8113890 h -46640 l -583840,-645140 -583850,-645140 v -568760 -568770 l 335080,-207090 335080,-207090 352790,659200 352790,659190 -57390,761800 -57380,761800 z m -103530410,-44320770 -1224210,190350 -440970,-189190 -440970,-189190 5470,-940740 5500,-940740 1670210,-775210 1670210,-775200 1847930,-574690 1847940,-574680 201350,-325800 201360,-325810 772930,-280 772930,-290 1659480,-630260 1659480,-630250 251400,-251400 251400,-251410 h 699710 699710 l 1975520,-935690 1975530,-935680 705550,-273640 705560,-273630 2353220,-907350 2353230,-907340 h 568260 568270 l 203050,-529170 203070,-529160 756000,-1770 756010,-1760 1411110,-869120 1411110,-869130 750560,-11010 750550,-11010 392910,-473430 392920,-473430 -232130,-232120 -232120,-232130 -1087740,2470 -1087730,2470 -1058330,700910 -1058330,700900 -949320,2470 -949320,2470 -254110,-411160 -254120,-411170 1027040,-824800 1027050,-824810 2116670,-1076790 2116660,-1076780 1058340,-566450 1058330,-566450 529170,-280370 529160,-280360 2645840,-1477190 2645830,-1477190 826000,-815430 825990,-815440 1643450,-786760 1643450,-786750 1715280,-1169390 1715280,-1169370 h 352430 352430 l 1685410,-1411110 1685420,-1411110 h 277960 277950 l 2495310,-1673530 2495310,-1673520 3151250,-2287510 3151240,-2287510 786460,-713270 786450,-713280 824800,-631400 824800,-631400 1852080,-1051430 1852090,-1051430 v -340900 -340910 l 1203800,-502980 1203800,-502980 649940,-648280 649930,-648280 2820570,-1919970 2820570,-1919970 1391260,-1255030 1391260,-1255030 1130760,-1058340 1130760,-1058330 3034230,-2819150 3034230,-2819150 v -267660 -267650 l 1411110,-1411110 1411110,-1411110 h 352780 352780 v -540240 -540240 l 485070,-186140 485070,-186140 8990,-772930 9000,-772920 364250,-930950 364240,-930950 1118510,-1273910 1118510,-1273920 h 449430 449420 l 421760,508190 421760,508190 -736140,1520290 -736150,1520280 -788940,1108190 -788950,1108180 -1146530,456970 -1146530,456960 -4790,904290 -4840,904300 -212720,793750 -212710,793750 h -499100 -499090 l -233770,617360 -233770,617360 -372520,378730 -372520,378740 -1234720,1641040 -1234720,1641050 -599320,203120 -599320,203130 -208260,656190 -208270,656190 -1220890,931220 -1220890,931220 v 463630 463640 l 705560,896970 705550,896970 v 518520 518520 l -535670,444580 -535680,444570 -568640,1198320 -568640,1198320 -700460,374880 -700460,374870 -1094400,1288620 -1094400,1288620 -3543640,3527780 -3543640,3527780 -1832450,1675690 -1832450,1675700 h -206290 -206290 l -557820,440970 -557820,440970 -1226460,1146530 -1226450,1146530 h -210350 -210340 l -1370900,950030 -1370890,950030 -567350,-357870 -567350,-357880 -127560,-382690 -127570,-382690 3566250,-3472660 3566240,-3472660 1636960,-1411110 1636960,-1411110 2183170,-2116670 2183160,-2116670 2018580,-1940270 2018580,-1940280 1029200,-1296640 1029200,-1296640 -380520,-235180 -380530,-235180 -1213390,826270 -1213400,826260 -2470,440970 -2470,440970 -264580,-41770 -264580,-41780 -432420,41780 -432420,41770 -1122690,1233760 -1122690,1233760 -1679660,1077820 -1679650,1077840 -565730,863410 -565730,863410 h -501030 -501030 l -485710,693450 -485710,693450 -687080,276690 -687080,276690 -1675040,1234720 -1675040,1234720 -3257590,2554180 -3257590,2554190 -1130070,908430 -1130060,908440 -199640,628980 -199630,628990 -806950,367670 -806940,367670 -1567530,1439070 -1567520,1439070 -1234720,881880 -1234720,881880 -2204860,1453490 -2204860,1453480 v 255810 255820 l -1234730,588800 -1234720,588790 v 358490 358480 h -481060 -481060 l -841860,810630 -841850,810620 -1763890,1084270 -1763890,1084270 -2645830,1330280 -2645840,1330280 -1304610,655380 -1304620,655380 h -857050 -857050 l -439170,529170 -439170,529170 h -535520 -535530 l -1449750,671830 -1449750,671830 -1675700,592070 -1675690,592070 v 323600 323600 h -853360 -853350 l -998730,502530 -998730,502530 -1587500,445620 -1587500,445620 -2469440,1129490 -2469450,1129500 -1598010,537630 -1598020,537630 -1224210,190350 z m 31451750,-15651450 h 355150 l 682370,-365190 682360,-365190 v -384460 -384470 l -1120800,224160 -1120810,224160 -149240,149250 -149240,149240 232530,376250 232530,376250 z m 2513630,-1769290 440970,-5400 529170,-341980 529170,-341970 -970140,-5400 -970140,-5410 v 352780 352780 z m 47692380,-32097380 h 155570 l 218030,-352770 218020,-352780 h -373590 -373600 v 352780 352770 z m 13742150,47182550 -469720,618840 -17390,-176390 -17400,-176390 -504560,-10167900 -504560,-10167910 325610,-856400 325620,-856400 h 370240 370240 l 296460,793750 296460,793750 250510,6366680 250510,6366680 -251150,3421430 -251150,3421430 z m 15285420,-682080 -567910,110190 -210550,-1168520 -210550,-1168530 -57500,-6173610 -57510,-6173610 292910,-5644440 292890,-5644450 -634380,-2645830 -634390,-2645830 -645290,-1528560 -645300,-1528550 v -1052280 -1052270 l -316300,-594170 -316300,-594170 -426340,-2822230 -426330,-2822220 -484040,-922740 -484040,-922750 729370,-660070 729370,-660070 448000,612680 448000,612670 h 381260 381270 l 257350,416410 257350,416400 -80910,1773040 -80900,1773040 504320,1250140 504320,1250140 603640,2293060 603640,2293050 893420,2998610 893410,2998610 137870,9172230 137880,9172220 -397560,2293050 -397560,2293060 -427350,2293050 -427360,2293060 z m -88449810,-11222690 h -705560 v -311630 -311640 l 705560,-184500 705550,-184510 v 496140 496140 z m 87136120,-49036110 h -470370 l 235180,-235190 235190,-235180 235180,235180 235190,235190 z m -3863840,-24341660 h -1675520 l -1728240,-905500 -1728240,-905500 -352770,-421720 -352780,-421720 -970140,-429110 -970140,-429100 v -360350 -360340 l -617360,11190 -617360,11210 -1214440,1220270 -1214430,1220250 -2330110,735400 -2330110,735390 -2749490,-704350 -2749490,-704350 -685630,-645140 -685630,-645150 -605060,-637050 -605060,-637050 -1060210,-1165140 -1060220,-1165140 -396860,-843640 -396850,-843640 -545120,-1411110 -545120,-1411110 -179440,-1316460 -179440,-1316450 329540,-203670 329550,-203670 v -1055820 -1055820 l 793750,-1393190 793750,-1393180 614210,-198780 614200,-198780 355940,219980 355930,219980 v 1055030 1055030 l -527790,1020640 -527790,1020640 -50100,1166700 -50110,1166710 743660,1906230 743660,1906230 776060,826070 776060,826080 1832500,1262090 1832500,1262100 2252760,31890 2252760,31890 1058330,-577980 1058340,-577990 1401640,-1419840 1401640,-1419830 h 719500 719500 l 2123830,2071820 2123830,2071820 1171510,257310 1171510,257310 1990260,-248670 1990260,-248670 1677290,-1677280 1677280,-1677290 -12380,-1902480 -12380,-1902480 -441330,-2116670 -441330,-2116660 60200,-352780 60210,-352780 258270,-793750 258280,-793750 h 629560 629570 l 683850,1159050 683860,1159050 628660,2565290 628650,2565290 -165260,1719990 -165270,1719990 -1014550,2005210 -1014540,2005220 -538830,197640 -538830,197640 -182000,265720 -182020,265720 -2058670,1082930 -2058670,1082930 h -1675530 z m -62399450,-6398050 -588110,-48040 -870640,-162950 -870640,-162970 -814170,-935520 -814170,-935530 -209600,-810040 -209610,-810050 154280,-1860380 154270,-1860380 681810,-923280 681810,-923280 1234720,-537300 1234720,-537300 1234720,-82400 1234730,-82400 1262150,272520 1262160,272520 942700,1453860 942710,1453860 v 768250 768250 l -508190,1189610 -508190,1189610 -945910,1001100 -945910,1001100 -1573760,674590 -1573760,674600 z m 1364580,-2774180 h 1045920 v -485970 -485970 l -511720,-424690 -511730,-424700 -105630,-1795630 -105640,-1795630 -1009150,-334720 -1009140,-334710 -1066230,1066230 -1066230,1066230 218800,871790 218810,871790 1076300,445820 1076300,445820 351710,657170 351710,657170 z m 49618870,-22577770 h -463160 l -947950,-989440 -947940,-989450 v -745050 -745040 l 440970,-152290 440970,-152280 803320,360260 803320,360260 386200,-386200 386190,-386190 486180,186560 486180,186570 v 1020590 1020590 l -705550,705550 -705560,705560 z m 22688170,80433330 h 352780 v -331960 -331960 l -352780,-218030 -352780,-218030 v 549990 549990 z m 14332860,-53269450 h 1238440 l -112730,-793740 -112730,-793750 -912150,-106040 -912130,-106030 -441150,531550 -441150,531550 227580,368240 227580,368220 z m -1424740,-2833440 737290,11220 475980,-1442250 475990,-1442260 -354900,-562640 -354910,-562640 -539180,-340100 -539180,-340110 -936550,235050 -936550,235060 v 1630080 1630080 l 617370,468650 617360,468640 z"
       id="path4018"
       class="UnoptimicedTransforms"
       transform="matrix(0.28537707,0,0,0.28537707,54949833,-18207959)" /></g></svg>
