<?xml version="1.0" encoding="UTF-8" standalone="no"?>
<svg
   version="1.1"
   width="29.700220cm"
   height="21.000720cm"
   viewBox="0 0 297002200 210007200"
   id="svg2600"
   sodipodi:docname="Sheet top 1 (current WIP).svg"
   inkscape:version="1.2.1 (9c6d41e410, 2022-07-14)"
   xmlns:inkscape="http://www.inkscape.org/namespaces/inkscape"
   xmlns:sodipodi="http://sodipodi.sourceforge.net/DTD/sodipodi-0.dtd"
   xmlns="http://www.w3.org/2000/svg"
   xmlns:svg="http://www.w3.org/2000/svg"
   xmlns:rdf="http://www.w3.org/1999/02/22-rdf-syntax-ns#"
   xmlns:cc="http://creativecommons.org/ns#"
   xmlns:dc="http://purl.org/dc/elements/1.1/">
  <defs
     id="defs2604" />
  <sodipodi:namedview
     id="namedview2602"
     pagecolor="#ffffff"
     bordercolor="#000000"
     borderopacity="0.25"
     inkscape:showpageshadow="2"
     inkscape:pageopacity="0.0"
     inkscape:pagecheckerboard="0"
     inkscape:deskcolor="#d1d1d1"
     inkscape:document-units="cm"
     showgrid="true"
     inkscape:zoom="1.4142136"
     inkscape:cx="522.90546"
     inkscape:cy="196.92924"
     inkscape:window-width="1920"
     inkscape:window-height="1051"
     inkscape:window-x="1911"
     inkscape:window-y="-9"
     inkscape:window-maximized="1"
     inkscape:current-layer="layer4">
    <inkscape:grid
       type="xygrid"
       id="grid996" />
  </sodipodi:namedview>
  <title
     id="title1304">SVG Picture created as Plate-Edge_Cuts.svg date 2022/11/02 15:26:49 </title>
  <desc
     id="desc1306">Picture generated by PCBNEW </desc>
  <metadata
     id="metadata244123">
    <rdf:RDF>
      <cc:Work
         rdf:about="">
        <dc:title>SVG Picture created as Plate-Edge_Cuts.svg date 2022/11/02 15:26:49 </dc:title>
      </cc:Work>
    </rdf:RDF>
  </metadata>
  <g
     inkscape:groupmode="layer"
     id="layer4"
     inkscape:label="cutting"
     style="display:inline">
    <path
       id="path167527"
       style="fill:none;stroke:#0000ff;stroke-width:200000;stroke-dasharray:none"
       d="m 101779540,34516592 a 1641589.9,1641590 0 0 1 -1641590,1641590 1641589.9,1641590 0 0 1 -1641588,-1641590 1641589.9,1641590 0 0 1 1641588,-1641590 1641589.9,1641590 0 0 1 1641590,1641590 z" />
    <path
       id="path167527-8"
       style="fill:none;stroke:#0000ff;stroke-width:200000;stroke-dasharray:none"
       d="m 201234390,34517000 a 1641590,1641589.9 0 0 1 -1641590,1641590 1641590,1641589.9 0 0 1 -1641590,-1641590 1641590,1641589.9 0 0 1 1641590,-1641590 1641590,1641589.9 0 0 1 1641590,1641590 z" />
    <path
       id="path167527-8-6"
       style="fill:none;stroke:#0000ff;stroke-width:200000;stroke-dasharray:none"
       d="m 201234600,168286020 a 1641589.9,1641590 0 0 1 -1641590,1641590 1641589.9,1641590 0 0 1 -1641590,-1641590 1641589.9,1641590 0 0 1 1641590,-1641590 1641589.9,1641590 0 0 1 1641590,1641590 z" />
    <path
       id="path167527-8-6-4"
       style="fill:none;stroke:#0000ff;stroke-width:200000;stroke-dasharray:none"
       d="m 101779590,168286000 a 1641589.9,1641590 0 0 1 -1641590,1641590 1641589.9,1641590 0 0 1 -1641590,-1641590 1641589.9,1641590 0 0 1 1641590,-1641590 1641589.9,1641590 0 0 1 1641590,1641590 z" />
    <path
       id="path179730-3-4"
       style="display:inline;fill:none;stroke:#0000ff;stroke-width:200000.00785438;stroke-linecap:round;stroke-dasharray:none;stroke-opacity:1"
       d="m 205458430,25367504 495810,20193 m -109885971,-20193 h 109390161 m -109390161,0 v 0 m -495796,20193 495796,-20193 m -989414,77893 493618,-57700 m -980978,155788 487360,-98088 m -965741,233680 478381,-135592 m -947237,311571 468856,-175979 m -923561,386579 454705,-210600 m -892812,455818 438107,-245218 m -858799,525056 420692,-279838 m -819614,591409 398922,-311571 m -774442,654877 375520,-343306 m -726278,715462 350758,-372156 m -674578,770275 323820,-398119 m -617976,822202 294156,-424083 m -558653,868361 264497,-444278 m -496341,908752 231844,-464474 m -430217,946256 198373,-481782 m -362186,977988 163813,-496206 m -292253,1003953 128440,-507747 m -220687,1027034 92247,-519287 m -147757,1041457 55510,-522170 m -74015,1047227 18505,-525057 m -18505,138135899 V 32400948 m 18505,138135902 -18505,-525060 m 74015,1047220 -55510,-522160 m 147757,1038580 -92247,-516420 m 220687,1027040 -128440,-510620 m 292253,1006840 -163813,-496220 m 362186,977990 -198373,-481770 m 430217,946240 -231844,-464470 m 496341,908750 -264497,-444280 m 558653,868370 -294156,-424090 m 617976,822200 -323820,-398110 m 674578,770270 -350758,-372160 m 726278,715480 -375520,-343320 m 774442,654870 -398922,-311550 m 819614,591390 -420692,-279840 m 858799,525060 -438107,-245220 m 892812,455830 -454705,-210610 m 923561,383700 -468856,-173090 m 947237,311560 -478381,-138470 m 965741,236560 -487360,-98090 m 980978,155790 -493618,-57700 m 989414,77890 -495796,-20190 m 109885957,20190 H 96068269 m 109885971,-20190 -495810,20190 m 989420,-77890 -493610,57700 m 980970,-155790 -487360,98090 m 965730,-236560 -478370,138470 m 947240,-311560 -468870,173090 m 923570,-383700 -454700,210610 m 892800,-455830 -438100,245220 m 858800,-525060 -420700,279840 m 819630,-591390 -398930,311550 m 774460,-654870 -375530,343320 m 726270,-715480 -350740,372160 m 674560,-770270 -323820,398110 m 617980,-822200 -294160,424090 m 558390,-868370 -264230,444280 m 495790,-908750 -231560,464470 m 429920,-946240 -198360,481770 m 363010,-977990 -164650,496220 m 293360,-1006840 -128710,510620 m 220150,-1027040 -91440,516420 m 146950,-1038580 -55510,522160 m 74000,-1047220 -18490,525060 m 18490,-138135902 v 137610842 m 0,-137610842 v 0 m -18490,-525057 18490,525057 m -74000,-1047227 55510,522170 m -148030,-1041457 92520,519287 m -220150,-1027034 127630,507747 m -292280,-1003953 164650,496206 m -363010,-977988 198360,481782 m -429920,-946256 231560,464474 m -495790,-908752 264230,444278 m -558390,-868361 294160,424083 m -617980,-822202 323820,398119 m -674560,-770275 350740,372156 m -726270,-715462 375530,343306 m -774460,-654877 398930,311571 m -819630,-591409 420700,279838 m -858800,-525056 438100,245218 m -892800,-455818 454700,210600 m -923570,-386579 468870,175979 m -947240,-311571 478370,135592 m -965730,-233680 487360,98088 m -980970,-155788 493610,57700" />
    <path
       id="path179730-6"
       style="display:inline;fill:none;stroke:#0000ff;stroke-width:200000.00785438;stroke-linecap:round;stroke-dasharray:none;stroke-opacity:1"
       d="m 198402740,38288936 431840,16753 m -95710650,-16753 h 95278810 m -95278810,0 v 0 m -431830,16753 431830,-16753 m -861780,64621 429950,-47868 m -854440,129244 424490,-81376 m -841170,193866 416680,-112490 m -825050,258488 408370,-145998 m -804410,320714 396040,-174716 m -777640,378154 381600,-203438 m -748017,435597 366417,-232159 m -713877,490644 347460,-258485 m -674543,543299 327083,-284814 m -632586,593562 305503,-308748 m -587555,639035 282052,-330287 m -538264,682116 256212,-351829 m -486584,720410 230372,-368581 m -432313,753917 201941,-385336 m -374720,785033 172779,-399697 m -315456,811359 142677,-411662 m -254552,832898 111875,-421236 m -192230,852048 80355,-430812 m -128704,864014 48349,-433202 m -64459,868801 16110,-435599 m -16110,114600287 V 44124022 m 16110,114600278 -16110,-435590 m 64459,868800 -48349,-433210 m 128704,861620 -80355,-428410 m 192230,852040 -111875,-423630 m 254552,835300 -142677,-411670 m 315456,811380 -172779,-399710 m 374720,785020 -201941,-385310 m 432313,753890 -230372,-368580 m 486584,720430 -256212,-351850 m 538264,682130 -282052,-330280 m 587555,639020 -305503,-308740 m 632586,593560 -327083,-284820 m 674543,543310 -347460,-258490 m 713877,490640 -366417,-232150 m 748017,435600 -381600,-203450 m 777640,378150 -396040,-174700 m 804410,318310 -408370,-143610 m 825050,258500 -416680,-114890 m 841170,196270 -424490,-81380 m 854440,129240 -429950,-47860 m 861780,64620 -431830,-16760 m 95710640,16760 h -95278810 m 95710650,-16760 -431840,16760 m 861780,-64620 -429940,47860 m 854420,-129240 -424480,81380 m 841150,-196270 -416670,114890 m 825040,-258500 -408370,143610 m 804420,-318310 -396050,174700 m 777660,-378150 -381610,203450 m 748020,-435600 -366410,232150 m 713870,-490640 -347460,258490 m 674540,-543310 -327080,284820 m 632590,-593560 -305510,308740 m 587560,-639020 -282050,330280 m 538260,-682130 -256210,351850 m 486360,-720430 -230150,368580 m 431840,-753890 -201690,385310 m 374460,-785020 -172770,399710 m 316170,-811380 -143400,411670 m 255510,-835300 -112110,423630 m 191740,-852040 -79630,428410 m 127990,-861620 -48360,433210 m 64470,-868800 -16110,435590 m 16110,-114600278 v 114164688 m 0,-114164688 v 0 m -16110,-435599 16110,435599 m -64470,-868801 48360,433202 m -128940,-864014 80580,430812 m -191740,-852048 111160,421236 m -254560,-832898 143400,411662 m -316170,-811359 172770,399697 m -374460,-785033 201690,385336 m -431840,-753917 230150,368581 m -486360,-720410 256210,351829 m -538260,-682116 282050,330287 m -587560,-639035 305510,308748 m -632590,-593562 327080,284814 m -674540,-543299 347460,258485 m -713870,-490644 366410,232159 m -748020,-435597 381610,203438 m -777660,-378154 396050,174716 m -804420,-320714 408370,145998 m -825040,-258488 416670,112490 m -841150,-193866 424480,81376 m -854420,-129244 429940,47868" />
  </g>
  <g
     inkscape:groupmode="layer"
     id="layer1"
     inkscape:label="ignore"
     style="fill:none" />
  <g
     inkscape:groupmode="layer"
     id="layer2"
     inkscape:label="line engraving"
     style="fill:none" />
</svg>
