<?xml version="1.0" encoding="UTF-8" standalone="no"?>
<svg
   version="1.1"
   width="29.700220cm"
   height="21.000720cm"
   viewBox="0 0 297002200 210007200"
   id="svg2600"
   sodipodi:docname="Sheet top 3 (current WIP).svg"
   inkscape:version="1.2.1 (9c6d41e410, 2022-07-14)"
   xmlns:inkscape="http://www.inkscape.org/namespaces/inkscape"
   xmlns:sodipodi="http://sodipodi.sourceforge.net/DTD/sodipodi-0.dtd"
   xmlns="http://www.w3.org/2000/svg"
   xmlns:svg="http://www.w3.org/2000/svg"
   xmlns:rdf="http://www.w3.org/1999/02/22-rdf-syntax-ns#"
   xmlns:cc="http://creativecommons.org/ns#"
   xmlns:dc="http://purl.org/dc/elements/1.1/">
  <defs
     id="defs2604" />
  <sodipodi:namedview
     id="namedview2602"
     pagecolor="#ffffff"
     bordercolor="#000000"
     borderopacity="0.25"
     inkscape:showpageshadow="2"
     inkscape:pageopacity="0.0"
     inkscape:pagecheckerboard="0"
     inkscape:deskcolor="#d1d1d1"
     inkscape:document-units="cm"
     showgrid="true"
     inkscape:zoom="2.8284271"
     inkscape:cx="638.34065"
     inkscape:cy="139.83037"
     inkscape:window-width="1920"
     inkscape:window-height="1051"
     inkscape:window-x="1911"
     inkscape:window-y="-9"
     inkscape:window-maximized="1"
     inkscape:current-layer="layer4">
    <inkscape:grid
       type="xygrid"
       id="grid996" />
  </sodipodi:namedview>
  <title
     id="title1304">SVG Picture created as Plate-Edge_Cuts.svg date 2022/11/02 15:26:49 </title>
  <desc
     id="desc1306">Picture generated by PCBNEW </desc>
  <metadata
     id="metadata244123">
    <rdf:RDF>
      <cc:Work
         rdf:about="">
        <dc:title>SVG Picture created as Plate-Edge_Cuts.svg date 2022/11/02 15:26:49 </dc:title>
      </cc:Work>
    </rdf:RDF>
  </metadata>
  <g
     inkscape:groupmode="layer"
     id="layer4"
     inkscape:label="cutting"
     style="display:inline">
    <path
       id="path167527"
       style="fill:none;stroke:#0000ff;stroke-width:200000;stroke-dasharray:none"
       d="m 101779540,34516592 a 1641589.9,1641590 0 0 1 -1641590,1641590 1641589.9,1641590 0 0 1 -1641588,-1641590 1641589.9,1641590 0 0 1 1641588,-1641590 1641589.9,1641590 0 0 1 1641590,1641590 z" />
    <path
       id="path167527-8"
       style="fill:none;stroke:#0000ff;stroke-width:200000;stroke-dasharray:none"
       d="m 201234390,34517000 a 1641590,1641589.9 0 0 1 -1641590,1641590 1641590,1641589.9 0 0 1 -1641590,-1641590 1641590,1641589.9 0 0 1 1641590,-1641590 1641590,1641589.9 0 0 1 1641590,1641590 z" />
    <path
       id="path167527-8-6"
       style="fill:none;stroke:#0000ff;stroke-width:200000;stroke-dasharray:none"
       d="m 201234600,168286020 a 1641589.9,1641590 0 0 1 -1641590,1641590 1641589.9,1641590 0 0 1 -1641590,-1641590 1641589.9,1641590 0 0 1 1641590,-1641590 1641589.9,1641590 0 0 1 1641590,1641590 z" />
    <path
       id="path167527-8-6-4"
       style="fill:none;stroke:#0000ff;stroke-width:200000;stroke-dasharray:none"
       d="m 101779590,168286000 a 1641589.9,1641590 0 0 1 -1641590,1641590 1641589.9,1641590 0 0 1 -1641590,-1641590 1641589.9,1641590 0 0 1 1641590,-1641590 1641589.9,1641590 0 0 1 1641590,1641590 z" />
    <path
       id="path179730-3-4-4-4"
       style="display:inline;fill:none;stroke:#0000ff;stroke-width:200000.00785438;stroke-linecap:round;stroke-dasharray:none;stroke-opacity:1"
       d="m 201707080,29625820 461810,19061 m -102349296,-19061 h 101887486 m -101887486,0 v 0 m -461791,19061 461791,-19061 m -921554,73521 459763,-54460 m -913697,147039 453934,-92579 m -899504,220559 445570,-127980 m -882269,294077 436699,-166097 m -860218,364872 423519,-198775 m -831578,430225 408059,-231450 m -799896,495575 391837,-264125 m -763400,558201 371563,-294076 m -721327,618106 349764,-324030 m -676464,675290 326700,-351260 m -628311,727025 301611,-375765 m -575592,776034 273981,-400269 m -520337,819600 246356,-419331 m -462299,857726 215943,-438395 m -400710,893126 184767,-454731 m -337346,923077 152579,-468346 m -272209,947581 119630,-479235 m -205550,969365 85920,-490130 m -137622,982981 51702,-492851 m -68939,988424 17237,-495573 m -17237,130379644 V 36264339 m 17237,130379641 -17237,-495570 m 68939,988410 -51702,-492840 m 137622,980260 -85920,-487420 m 205550,969360 -119630,-481940 m 272209,950310 -152579,-468370 m 337346,923090 -184767,-454720 m 400710,893120 -215943,-438400 m 462299,857730 -246356,-419330 m 520337,819600 -273981,-400270 m 575592,776020 -301611,-375750 m 628311,727020 -326700,-351270 m 676464,675310 -349764,-324040 m 721327,618110 -371563,-294070 m 763400,558190 -391837,-264120 m 799896,495570 -408059,-231450 m 831578,430220 -423519,-198770 m 860218,362160 -436699,-163390 m 882269,294080 -445570,-130690 m 899504,223280 -453934,-92590 m 913697,147040 -459763,-54450 m 921554,73500 -461791,-19050 m 102349277,19050 H 99819594 m 102349296,-19050 -461810,19050 m 921570,-73500 -459760,54450 m 913690,-147040 -453930,92590 m 899480,-223280 -445550,130690 m 882260,-294080 -436710,163390 m 860240,-362160 -423530,198770 m 831580,-430220 -408050,231450 m 799890,-495570 -391840,264120 m 763410,-558190 -371570,294070 m 721340,-618110 -349770,324040 m 676460,-675310 -326690,351270 m 628300,-727020 -301610,375750 m 575590,-776020 -273980,400270 m 520080,-819600 -246100,419330 m 461790,-857730 -215690,438400 m 400440,-893120 -184750,454720 m 338110,-923090 -153360,468370 m 273250,-950310 -119890,481940 m 205050,-969360 -85160,487420 m 136860,-980260 -51700,492840 m 68930,-988410 -17230,495570 m 17230,-130379641 v 129884071 m 0,-129884071 v 0 m -17230,-495573 17230,495573 m -68930,-988424 51700,492851 m -137870,-982981 86170,490130 m -205050,-969365 118880,479235 m -272240,-947581 153360,468346 m -338110,-923077 184750,454731 m -400440,-893126 215690,438395 m -461790,-857726 246100,419331 m -520080,-819600 273980,400269 m -575590,-776034 301610,375765 m -628300,-727025 326690,351260 m -676460,-675290 349770,324030 m -721340,-618106 371570,294076 m -763410,-558201 391840,264125 m -799890,-495575 408050,231450 m -831580,-430225 423530,198775 m -860240,-364872 436710,166097 m -882260,-294077 445550,127980 m -899480,-220559 453930,92579 m -913690,-147039 459760,54460" />
    <path
       id="path179730-6"
       style="display:inline;fill:none;stroke:#0000ff;stroke-width:200000.00785438;stroke-linecap:round;stroke-dasharray:none;stroke-opacity:1"
       d="m 198402740,38288936 431840,16753 m -95710650,-16753 h 95278810 m -95278810,0 v 0 m -431830,16753 431830,-16753 m -861780,64621 429950,-47868 m -854440,129244 424490,-81376 m -841170,193866 416680,-112490 m -825050,258488 408370,-145998 m -804410,320714 396040,-174716 m -777640,378154 381600,-203438 m -748017,435597 366417,-232159 m -713877,490644 347460,-258485 m -674543,543299 327083,-284814 m -632586,593562 305503,-308748 m -587555,639035 282052,-330287 m -538264,682116 256212,-351829 m -486584,720410 230372,-368581 m -432313,753917 201941,-385336 m -374720,785033 172779,-399697 m -315456,811359 142677,-411662 m -254552,832898 111875,-421236 m -192230,852048 80355,-430812 m -128704,864014 48349,-433202 m -64459,868801 16110,-435599 m -16110,114600287 V 44124022 m 16110,114600278 -16110,-435590 m 64459,868800 -48349,-433210 m 128704,861620 -80355,-428410 m 192230,852040 -111875,-423630 m 254552,835300 -142677,-411670 m 315456,811380 -172779,-399710 m 374720,785020 -201941,-385310 m 432313,753890 -230372,-368580 m 486584,720430 -256212,-351850 m 538264,682130 -282052,-330280 m 587555,639020 -305503,-308740 m 632586,593560 -327083,-284820 m 674543,543310 -347460,-258490 m 713877,490640 -366417,-232150 m 748017,435600 -381600,-203450 m 777640,378150 -396040,-174700 m 804410,318310 -408370,-143610 m 825050,258500 -416680,-114890 m 841170,196270 -424490,-81380 m 854440,129240 -429950,-47860 m 861780,64620 -431830,-16760 m 95710640,16760 h -95278810 m 95710650,-16760 -431840,16760 m 861780,-64620 -429940,47860 m 854420,-129240 -424480,81380 m 841150,-196270 -416670,114890 m 825040,-258500 -408370,143610 m 804420,-318310 -396050,174700 m 777660,-378150 -381610,203450 m 748020,-435600 -366410,232150 m 713870,-490640 -347460,258490 m 674540,-543310 -327080,284820 m 632590,-593560 -305510,308740 m 587560,-639020 -282050,330280 m 538260,-682130 -256210,351850 m 486360,-720430 -230150,368580 m 431840,-753890 -201690,385310 m 374460,-785020 -172770,399710 m 316170,-811380 -143400,411670 m 255510,-835300 -112110,423630 m 191740,-852040 -79630,428410 m 127990,-861620 -48360,433210 m 64470,-868800 -16110,435590 m 16110,-114600278 v 114164688 m 0,-114164688 v 0 m -16110,-435599 16110,435599 m -64470,-868801 48360,433202 m -128940,-864014 80580,430812 m -191740,-852048 111160,421236 m -254560,-832898 143400,411662 m -316170,-811359 172770,399697 m -374460,-785033 201690,385336 m -431840,-753917 230150,368581 m -486360,-720410 256210,351829 m -538260,-682116 282050,330287 m -587560,-639035 305510,308748 m -632590,-593562 327080,284814 m -674540,-543299 347460,258485 m -713870,-490644 366410,232159 m -748020,-435597 381610,203438 m -777660,-378154 396050,174716 m -804420,-320714 408370,145998 m -825040,-258488 416670,112490 m -841150,-193866 424480,81376 m -854420,-129244 429940,47868" />
  </g>
  <g
     inkscape:groupmode="layer"
     id="layer1"
     inkscape:label="ignore"
     style="fill:none" />
  <g
     inkscape:groupmode="layer"
     id="layer2"
     inkscape:label="line engraving"
     style="fill:none" />
</svg>
