<?xml version="1.0" encoding="UTF-8" standalone="no"?>
<svg
   version="1.1"
   width="29.700220cm"
   height="21.000720cm"
   viewBox="0 0 297002200 210007200"
   id="svg2600"
   sodipodi:docname="Sheet bottom 1 (current WIP).svg"
   inkscape:version="1.2.1 (9c6d41e410, 2022-07-14)"
   xmlns:inkscape="http://www.inkscape.org/namespaces/inkscape"
   xmlns:sodipodi="http://sodipodi.sourceforge.net/DTD/sodipodi-0.dtd"
   xmlns="http://www.w3.org/2000/svg"
   xmlns:svg="http://www.w3.org/2000/svg"
   xmlns:rdf="http://www.w3.org/1999/02/22-rdf-syntax-ns#"
   xmlns:cc="http://creativecommons.org/ns#"
   xmlns:dc="http://purl.org/dc/elements/1.1/">
  <defs
     id="defs2604" />
  <sodipodi:namedview
     id="namedview2602"
     pagecolor="#ffffff"
     bordercolor="#000000"
     borderopacity="0.25"
     inkscape:showpageshadow="2"
     inkscape:pageopacity="0.0"
     inkscape:pagecheckerboard="0"
     inkscape:deskcolor="#d1d1d1"
     inkscape:document-units="cm"
     showgrid="true"
     inkscape:zoom="0.70710678"
     inkscape:cx="458.20519"
     inkscape:cy="231.22392"
     inkscape:window-width="1920"
     inkscape:window-height="1051"
     inkscape:window-x="1911"
     inkscape:window-y="-9"
     inkscape:window-maximized="1"
     inkscape:current-layer="layer4">
    <inkscape:grid
       type="xygrid"
       id="grid996" />
  </sodipodi:namedview>
  <title
     id="title1304">SVG Picture created as Plate-Edge_Cuts.svg date 2022/11/02 15:26:49 </title>
  <desc
     id="desc1306">Picture generated by PCBNEW </desc>
  <metadata
     id="metadata244123">
    <rdf:RDF>
      <cc:Work
         rdf:about="">
        <dc:title>SVG Picture created as Plate-Edge_Cuts.svg date 2022/11/02 15:26:49 </dc:title>
      </cc:Work>
    </rdf:RDF>
  </metadata>
  <g
     inkscape:groupmode="layer"
     id="layer4"
     inkscape:label="cutting"
     style="display:inline">
    <path
       id="path167527"
       style="display:inline;fill:none;stroke:#0000ff;stroke-width:200000;stroke-dasharray:none"
       d="m 101779540,34516592 a 1641589.9,1641590 0 0 1 -1641590,1641590 1641589.9,1641590 0 0 1 -1641588,-1641590 1641589.9,1641590 0 0 1 1641588,-1641590 1641589.9,1641590 0 0 1 1641590,1641590 z" />
    <path
       id="path167527-8"
       style="display:inline;fill:none;stroke:#0000ff;stroke-width:200000;stroke-dasharray:none"
       d="m 201234390,34517000 a 1641590,1641589.9 0 0 1 -1641590,1641590 1641590,1641589.9 0 0 1 -1641590,-1641590 1641590,1641589.9 0 0 1 1641590,-1641590 1641590,1641589.9 0 0 1 1641590,1641590 z" />
    <path
       id="path167527-8-6"
       style="display:inline;fill:none;stroke:#0000ff;stroke-width:200000;stroke-dasharray:none"
       d="m 201234600,168286020 a 1641589.9,1641590 0 0 1 -1641590,1641590 1641589.9,1641590 0 0 1 -1641590,-1641590 1641589.9,1641590 0 0 1 1641590,-1641590 1641589.9,1641590 0 0 1 1641590,1641590 z" />
    <path
       id="path167527-8-6-4"
       style="display:inline;fill:none;stroke:#0000ff;stroke-width:200000;stroke-dasharray:none"
       d="m 101779590,168286000 a 1641589.9,1641590 0 0 1 -1641590,1641590 1641589.9,1641590 0 0 1 -1641590,-1641590 1641589.9,1641590 0 0 1 1641590,-1641590 1641589.9,1641590 0 0 1 1641590,1641590 z" />
    <path
       id="path25980-3-7"
       style="fill:none;stroke:#0000ff;stroke-width:200000;stroke-linecap:round;stroke-dasharray:none;stroke-opacity:1"
       d="m 205197690,162258480 -18680,303220 m 18680,-122407438 v 122104218 m -18680,-122407431 18680,303213 m -73610,-600961 54930,297748 m -146380,-587301 91450,289553 m -216150,-565448 124700,275895 m -282350,-535401 157650,259506 m -345520,-497159 187870,237653 m -403750,-453453 215880,215800 m -455660,-401550 239780,185750 m -500420,-344186 260640,158436 m -538880,-281359 278240,122923 m -568810,-213067 290570,90144 m -590770,-144777 300200,54633 m -604250,-73754 304050,19121 m -104123714,-19121 h 103819664 m -104123704,19121 304040,-19121 m -604240,73754 300200,-54633 m -590794,144777 290594,-90144 m -568822,213067 278228,-122923 m -538877,281359 260649,-158436 m -500424,344186 239775,-185750 m -455654,401550 215879,-215800 m -403745,453453 187866,-237653 m -345519,497159 157653,-259506 m -282347,535401 124694,-275895 m -216154,565448 91460,-289553 m -146393,587301 54933,-297748 m -73609,600961 18676,-303213 m -18676,122407431 V 62177084 H 89434349 V 170011790 M 96328739,40154262 v 3507557 H 89434349 V 32400948 m 6895489,129857532 h -1099 m 18676,303220 -17577,-303220 m 72510,600970 -54933,-297750 m 146393,587290 -91460,-289540 m 216154,565440 -124694,-275900 m 282347,535410 -157653,-259510 m 345519,497170 -187866,-237660 m 403745,453450 -215879,-215790 m 455654,401540 -239775,-185750 m 500424,344180 -260649,-158430 m 538877,281360 -278228,-122930 m 568822,213080 -290594,-90150 m 590794,144780 -300200,-54630 m 604240,73740 -304040,-19110 m 104123704,19110 H 98853386 m 103819664,0 v 0 m 304050,-19110 -304050,19110 m 604250,-73740 -300200,54630 m 590770,-144780 -290570,90150 m 568810,-213080 -278240,122930 m 538880,-281360 -260640,158430 m 500420,-344180 -239780,185750 m 455660,-401540 -215880,215790 m 403750,-453450 -187870,237660 m 345520,-497170 -157650,259510 m 283450,-535410 -125800,275900 m 216150,-565440 -90350,289540 m 145280,-587290 -54930,297750 m 334350,-137491946 495810,20193 m -109885971,-20193 h 109390161 m -109390161,0 v 0 m -495796,20193 495796,-20193 m -989414,77893 493618,-57700 m -980978,155788 487360,-98088 m -965741,233680 478381,-135592 m -947237,311571 468856,-175979 m -923561,386579 454705,-210600 m -892812,455818 438107,-245218 m -858799,525056 420692,-279838 m -819614,591409 398922,-311571 m -774442,654877 375520,-343306 m -726278,715462 350758,-372156 m -674578,770275 323820,-398119 m -617976,822202 294156,-424083 m -558653,868361 264497,-444278 m -496341,908752 231844,-464474 m -430217,946256 198373,-481782 m -362186,977988 163813,-496206 m -292253,1003953 128440,-507747 m -220687,1027034 92247,-519287 m -147757,1041457 55510,-522170 m -74015,1047227 18505,-525057 m 0,138660959 -18505,-525060 m 74015,1047220 -55510,-522160 m 147757,1038580 -92247,-516420 m 220687,1027040 -128440,-510620 m 292253,1006840 -163813,-496220 m 362186,977990 -198373,-481770 m 430217,946240 -231844,-464470 m 496341,908750 -264497,-444280 m 558653,868370 -294156,-424090 m 617976,822200 -323820,-398110 m 674578,770270 -350758,-372160 m 726278,715480 -375520,-343320 m 774442,654870 -398922,-311550 m 819614,591390 -420692,-279840 m 858799,525060 -438107,-245220 m 892812,455830 -454705,-210610 m 923561,383700 -468856,-173090 m 947237,311560 -478381,-138470 m 965741,236560 -487360,-98090 m 980978,155790 -493618,-57700 m 989414,77890 -495796,-20190 m 109885957,20190 H 96068269 m 109885971,-20190 -495810,20190 m 989420,-77890 -493610,57700 m 980970,-155790 -487360,98090 m 965730,-236560 -478370,138470 m 947240,-311560 -468870,173090 m 923570,-383700 -454700,210610 m 892800,-455830 -438100,245220 m 858800,-525060 -420700,279840 m 819630,-591390 -398930,311550 m 774460,-654870 -375530,343320 m 726270,-715480 -350740,372160 m 674560,-770270 -323820,398110 m 617980,-822200 -294160,424090 m 558390,-868370 -264230,444280 m 495790,-908750 -231560,464470 m 429920,-946240 -198360,481770 m 363010,-977990 -164650,496220 m 293360,-1006840 -128710,510620 m 220150,-1027040 -91440,516420 m 146950,-1038580 -55510,522160 m 74000,-1047220 -18490,525060 m 18490,-138135902 v 137610842 m 0,-137610842 v 0 m -18490,-525057 18490,525057 m -74000,-1047227 55510,522170 m -148030,-1041457 92520,519287 m -220150,-1027034 127630,507747 m -292280,-1003953 164650,496206 m -363010,-977988 198360,481782 m -429920,-946256 231560,464474 m -495790,-908752 264230,444278 m -558390,-868361 294160,424083 m -617980,-822202 323820,398119 m -674560,-770275 350740,372156 m -726270,-715462 375530,343306 m -774460,-654877 398930,311571 m -819630,-591409 420700,279838 m -858800,-525056 438100,245218 m -892800,-455818 454700,210600 m -923570,-386579 468870,175979 m -947240,-311571 478370,135592 m -965730,-233680 487360,98088 m -980970,-155788 493610,57700" />
  </g>
  <g
     inkscape:groupmode="layer"
     id="layer1"
     inkscape:label="ignore"
     style="fill:none" />
  <g
     inkscape:groupmode="layer"
     id="layer2"
     inkscape:label="line engraving"
     style="fill:none" />
</svg>
