<?xml version="1.0" encoding="UTF-8" standalone="no"?>
<svg
   version="1.1"
   width="29.700220cm"
   height="21.000720cm"
   viewBox="0 0 297002200 210007200"
   id="svg2600"
   sodipodi:docname="Sheet top 2 (current WIP).svg"
   inkscape:version="1.2.1 (9c6d41e410, 2022-07-14)"
   xmlns:inkscape="http://www.inkscape.org/namespaces/inkscape"
   xmlns:sodipodi="http://sodipodi.sourceforge.net/DTD/sodipodi-0.dtd"
   xmlns="http://www.w3.org/2000/svg"
   xmlns:svg="http://www.w3.org/2000/svg"
   xmlns:rdf="http://www.w3.org/1999/02/22-rdf-syntax-ns#"
   xmlns:cc="http://creativecommons.org/ns#"
   xmlns:dc="http://purl.org/dc/elements/1.1/">
  <defs
     id="defs2604" />
  <sodipodi:namedview
     id="namedview2602"
     pagecolor="#ffffff"
     bordercolor="#000000"
     borderopacity="0.25"
     inkscape:showpageshadow="2"
     inkscape:pageopacity="0.0"
     inkscape:pagecheckerboard="0"
     inkscape:deskcolor="#d1d1d1"
     inkscape:document-units="cm"
     showgrid="true"
     inkscape:zoom="1.4142136"
     inkscape:cx="708.87455"
     inkscape:cy="-66.114484"
     inkscape:window-width="1920"
     inkscape:window-height="1051"
     inkscape:window-x="1911"
     inkscape:window-y="-9"
     inkscape:window-maximized="1"
     inkscape:current-layer="layer4">
    <inkscape:grid
       type="xygrid"
       id="grid996" />
  </sodipodi:namedview>
  <title
     id="title1304">SVG Picture created as Plate-Edge_Cuts.svg date 2022/11/02 15:26:49 </title>
  <desc
     id="desc1306">Picture generated by PCBNEW </desc>
  <metadata
     id="metadata244123">
    <rdf:RDF>
      <cc:Work
         rdf:about="">
        <dc:title>SVG Picture created as Plate-Edge_Cuts.svg date 2022/11/02 15:26:49 </dc:title>
      </cc:Work>
    </rdf:RDF>
  </metadata>
  <g
     inkscape:groupmode="layer"
     id="layer4"
     inkscape:label="cutting"
     style="display:inline">
    <path
       id="path167527"
       style="fill:none;stroke:#0000ff;stroke-width:200000;stroke-dasharray:none"
       d="m 101779540,34516592 a 1641589.9,1641590 0 0 1 -1641590,1641590 1641589.9,1641590 0 0 1 -1641588,-1641590 1641589.9,1641590 0 0 1 1641588,-1641590 1641589.9,1641590 0 0 1 1641590,1641590 z" />
    <path
       id="path167527-8"
       style="fill:none;stroke:#0000ff;stroke-width:200000;stroke-dasharray:none"
       d="m 201234390,34517000 a 1641590,1641589.9 0 0 1 -1641590,1641590 1641590,1641589.9 0 0 1 -1641590,-1641590 1641590,1641589.9 0 0 1 1641590,-1641590 1641590,1641589.9 0 0 1 1641590,1641590 z" />
    <path
       id="path167527-8-6"
       style="fill:none;stroke:#0000ff;stroke-width:200000;stroke-dasharray:none"
       d="m 201234600,168286020 a 1641589.9,1641590 0 0 1 -1641590,1641590 1641589.9,1641590 0 0 1 -1641590,-1641590 1641589.9,1641590 0 0 1 1641590,-1641590 1641589.9,1641590 0 0 1 1641590,1641590 z" />
    <path
       id="path167527-8-6-4"
       style="fill:none;stroke:#0000ff;stroke-width:200000;stroke-dasharray:none"
       d="m 101779590,168286000 a 1641589.9,1641590 0 0 1 -1641590,1641590 1641589.9,1641590 0 0 1 -1641590,-1641590 1641589.9,1641590 0 0 1 1641590,-1641590 1641589.9,1641590 0 0 1 1641590,1641590 z" />
    <path
       id="path179730-3-4-4"
       style="display:inline;fill:none;stroke:#0000ff;stroke-width:200000.00785438;stroke-linecap:round;stroke-dasharray:none;stroke-opacity:1"
       d="m 203488150,27628652 477960,19592 m -105927581,-19592 h 105449621 m -105449621,0 v 0 m -477936,19592 477936,-19592 m -953773,75572 475837,-55980 m -945641,151143 469804,-95163 m -930952,226713 461148,-131550 m -913115,302282 451967,-170732 m -890292,375052 438325,-204320 m -860650,442227 422325,-237907 m -827862,509402 405537,-271495 m -790090,573776 384553,-302281 m -746545,635352 361992,-333071 m -700115,694131 338123,-361060 m -650278,747309 312155,-386249 m -595715,797687 283560,-411438 m -538529,842469 254969,-431031 m -478461,881657 223492,-450626 m -414720,918044 191228,-467418 m -349140,948831 157912,-481413 m -281725,974020 123813,-492607 m -212737,996412 88924,-503805 m -142433,1010406 53509,-506601 m -71349,1016002 17840,-509401 m -17840,134017359 V 34452392 m 17840,134017358 -17840,-509400 m 71349,1015990 -53509,-506590 m 142433,1007610 -88924,-501020 m 212737,996410 -123813,-495390 m 281725,976830 -157912,-481440 m 349140,948850 -191228,-467410 m 414720,918030 -223492,-450620 m 478461,881650 -254969,-431030 m 538529,842470 -283560,-411440 m 595715,797680 -312155,-386240 m 650278,747310 -338123,-361070 m 700115,694150 -361992,-333080 m 746545,635350 -384553,-302270 m 790090,573760 -405537,-271490 m 827862,509400 -422325,-237910 m 860650,442230 -438325,-204320 m 890292,372260 -451967,-167940 m 913115,302280 -461148,-134340 m 930952,229510 -469804,-95170 m 945641,151140 -475837,-55970 m 953773,75560 -477936,-19590 m 105927557,19590 H 98038529 m 105927581,-19590 -477960,19590 m 953790,-75560 -475830,55970 m 945630,-151140 -469800,95170 m 930930,-229510 -461130,134340 m 913110,-302280 -451980,167940 m 890310,-372260 -438330,204320 m 860650,-442230 -422320,237910 m 827860,-509400 -405540,271490 m 790100,-573760 -384560,302270 m 746550,-635350 -361990,333080 m 700110,-694150 -338120,361070 m 650280,-747310 -312160,386240 m 595710,-797680 -283550,411440 m 538260,-842470 -254710,431030 m 477940,-881650 -223230,450620 m 414440,-918030 -191210,467410 m 349930,-948850 -158720,481440 m 282800,-976830 -124080,495390 m 212220,-996410 -88140,501020 m 141650,-1007610 -53510,506590 m 71340,-1015990 -17830,509400 m 17830,-134017358 v 133507958 m 0,-133507958 v 0 m -17830,-509401 17830,509401 m -71340,-1016002 53510,506601 m -142700,-1010406 89190,503805 m -212220,-996412 123030,492607 m -281750,-974020 158720,481413 m -349930,-948831 191210,467418 m -414440,-918044 223230,450626 m -477940,-881657 254710,431031 m -538260,-842469 283550,411438 m -595710,-797687 312160,386249 m -650280,-747309 338120,361060 m -700110,-694131 361990,333071 m -746550,-635352 384560,302281 m -790100,-573776 405540,271495 m -827860,-509402 422320,237907 m -860650,-442227 438330,204320 m -890310,-375052 451980,170732 m -913110,-302282 461130,131550 m -930930,-226713 469800,95163 m -945630,-151143 475830,55980" />
    <path
       id="path179730-6"
       style="display:inline;fill:none;stroke:#0000ff;stroke-width:200000.00785438;stroke-linecap:round;stroke-dasharray:none;stroke-opacity:1"
       d="m 198402740,38288936 431840,16753 m -95710650,-16753 h 95278810 m -95278810,0 v 0 m -431830,16753 431830,-16753 m -861780,64621 429950,-47868 m -854440,129244 424490,-81376 m -841170,193866 416680,-112490 m -825050,258488 408370,-145998 m -804410,320714 396040,-174716 m -777640,378154 381600,-203438 m -748017,435597 366417,-232159 m -713877,490644 347460,-258485 m -674543,543299 327083,-284814 m -632586,593562 305503,-308748 m -587555,639035 282052,-330287 m -538264,682116 256212,-351829 m -486584,720410 230372,-368581 m -432313,753917 201941,-385336 m -374720,785033 172779,-399697 m -315456,811359 142677,-411662 m -254552,832898 111875,-421236 m -192230,852048 80355,-430812 m -128704,864014 48349,-433202 m -64459,868801 16110,-435599 m -16110,114600287 V 44124022 m 16110,114600278 -16110,-435590 m 64459,868800 -48349,-433210 m 128704,861620 -80355,-428410 m 192230,852040 -111875,-423630 m 254552,835300 -142677,-411670 m 315456,811380 -172779,-399710 m 374720,785020 -201941,-385310 m 432313,753890 -230372,-368580 m 486584,720430 -256212,-351850 m 538264,682130 -282052,-330280 m 587555,639020 -305503,-308740 m 632586,593560 -327083,-284820 m 674543,543310 -347460,-258490 m 713877,490640 -366417,-232150 m 748017,435600 -381600,-203450 m 777640,378150 -396040,-174700 m 804410,318310 -408370,-143610 m 825050,258500 -416680,-114890 m 841170,196270 -424490,-81380 m 854440,129240 -429950,-47860 m 861780,64620 -431830,-16760 m 95710640,16760 h -95278810 m 95710650,-16760 -431840,16760 m 861780,-64620 -429940,47860 m 854420,-129240 -424480,81380 m 841150,-196270 -416670,114890 m 825040,-258500 -408370,143610 m 804420,-318310 -396050,174700 m 777660,-378150 -381610,203450 m 748020,-435600 -366410,232150 m 713870,-490640 -347460,258490 m 674540,-543310 -327080,284820 m 632590,-593560 -305510,308740 m 587560,-639020 -282050,330280 m 538260,-682130 -256210,351850 m 486360,-720430 -230150,368580 m 431840,-753890 -201690,385310 m 374460,-785020 -172770,399710 m 316170,-811380 -143400,411670 m 255510,-835300 -112110,423630 m 191740,-852040 -79630,428410 m 127990,-861620 -48360,433210 m 64470,-868800 -16110,435590 m 16110,-114600278 v 114164688 m 0,-114164688 v 0 m -16110,-435599 16110,435599 m -64470,-868801 48360,433202 m -128940,-864014 80580,430812 m -191740,-852048 111160,421236 m -254560,-832898 143400,411662 m -316170,-811359 172770,399697 m -374460,-785033 201690,385336 m -431840,-753917 230150,368581 m -486360,-720410 256210,351829 m -538260,-682116 282050,330287 m -587560,-639035 305510,308748 m -632590,-593562 327080,284814 m -674540,-543299 347460,258485 m -713870,-490644 366410,232159 m -748020,-435597 381610,203438 m -777660,-378154 396050,174716 m -804420,-320714 408370,145998 m -825040,-258488 416670,112490 m -841150,-193866 424480,81376 m -854420,-129244 429940,47868" />
  </g>
  <g
     inkscape:groupmode="layer"
     id="layer1"
     inkscape:label="ignore"
     style="fill:none" />
  <g
     inkscape:groupmode="layer"
     id="layer2"
     inkscape:label="line engraving"
     style="fill:none" />
</svg>
