<?xml version="1.0" encoding="UTF-8" standalone="no"?>
<svg
   version="1.1"
   width="29.700220cm"
   height="21.000720cm"
   viewBox="0 0 297002200 210007200"
   id="svg2600"
   sodipodi:docname="Sheet bottom 3 (current WIP).svg"
   inkscape:version="1.2.1 (9c6d41e410, 2022-07-14)"
   xmlns:inkscape="http://www.inkscape.org/namespaces/inkscape"
   xmlns:sodipodi="http://sodipodi.sourceforge.net/DTD/sodipodi-0.dtd"
   xmlns="http://www.w3.org/2000/svg"
   xmlns:svg="http://www.w3.org/2000/svg"
   xmlns:rdf="http://www.w3.org/1999/02/22-rdf-syntax-ns#"
   xmlns:cc="http://creativecommons.org/ns#"
   xmlns:dc="http://purl.org/dc/elements/1.1/">
  <defs
     id="defs2604">
    <inkscape:path-effect
       effect="fill_between_many"
       method="originald"
       linkedpaths="#path25980-3-7-8,0,1|"
       id="path-effect33999" />
  </defs>
  <sodipodi:namedview
     id="namedview2602"
     pagecolor="#ffffff"
     bordercolor="#000000"
     borderopacity="0.25"
     inkscape:showpageshadow="2"
     inkscape:pageopacity="0.0"
     inkscape:pagecheckerboard="0"
     inkscape:deskcolor="#d1d1d1"
     inkscape:document-units="cm"
     showgrid="true"
     inkscape:zoom="2.0000001"
     inkscape:cx="512.24999"
     inkscape:cy="282.74999"
     inkscape:window-width="1920"
     inkscape:window-height="1051"
     inkscape:window-x="1911"
     inkscape:window-y="-9"
     inkscape:window-maximized="1"
     inkscape:current-layer="layer4"
     inkscape:lockguides="false">
    <inkscape:grid
       type="xygrid"
       id="grid996" />
  </sodipodi:namedview>
  <title
     id="title1304">SVG Picture created as Plate-Edge_Cuts.svg date 2022/11/02 15:26:49 </title>
  <desc
     id="desc1306">Picture generated by PCBNEW </desc>
  <metadata
     id="metadata244123">
    <rdf:RDF>
      <cc:Work
         rdf:about="">
        <dc:title>SVG Picture created as Plate-Edge_Cuts.svg date 2022/11/02 15:26:49 </dc:title>
      </cc:Work>
    </rdf:RDF>
  </metadata>
  <g
     inkscape:groupmode="layer"
     id="layer4"
     inkscape:label="cutting"
     style="display:inline">
    <path
       id="path167527-1-4"
       style="display:inline;fill:none;stroke:#0000ff;stroke-width:200000;stroke-dasharray:none"
       d="m 101996890,34712286 a 1641589.9,1641590 0 0 1 -1641590,1641590 1641589.9,1641590 0 0 1 -1641592,-1641590 1641589.9,1641590 0 0 1 1641592,-1641590 1641589.9,1641590 0 0 1 1641590,1641590 z" />
    <path
       id="path167527-8-1-7"
       style="display:inline;fill:none;stroke:#0000ff;stroke-width:200000;stroke-dasharray:none"
       d="m 201451740,34712694 a 1641590,1641589.9 0 0 1 -1641590,1641590 1641590,1641589.9 0 0 1 -1641590,-1641590 1641590,1641589.9 0 0 1 1641590,-1641590 1641590,1641589.9 0 0 1 1641590,1641590 z" />
    <path
       id="path167527-8-6-5-4"
       style="display:inline;fill:none;stroke:#0000ff;stroke-width:200000;stroke-dasharray:none"
       d="m 201451950,168481710 a 1641589.9,1641590 0 0 1 -1641590,1641590 1641589.9,1641590 0 0 1 -1641590,-1641590 1641589.9,1641590 0 0 1 1641590,-1641590 1641589.9,1641590 0 0 1 1641590,1641590 z" />
    <path
       id="path167527-8-6-4-8-2"
       style="display:inline;fill:none;stroke:#0000ff;stroke-width:200000;stroke-dasharray:none"
       d="m 101996940,168481690 a 1641589.9,1641590 0 0 1 -1641590,1641590 1641589.9,1641590 0 0 1 -1641594,-1641590 1641589.9,1641590 0 0 1 1641594,-1641590 1641589.9,1641590 0 0 1 1641590,1641590 z" />
    <path
       id="path25980-3-7-8"
       style="display:inline;fill:none;stroke:#0000ff;stroke-width:193908;stroke-linecap:round;stroke-dasharray:none;stroke-opacity:1"
       d="m 201927560,29818014 461830,19060 m -102355580,-19060 h 101893750 m -101893750,0 v 0 m -461815,19060 461815,-19060 m -921606,73524 459791,-54464 m -913754,147048 453963,-92584 m -899559,220569 445596,-127985 m -882324,294091 436728,-166106 m -860273,364891 423545,-198785 m -831628,430244 408083,-231459 m -799945,495597 391862,-264138 m -763447,558230 371585,-294092 m -721370,618137 349785,-324045 m -676506,675322 326721,-351277 m -628350,727060 301629,-375783 m -575627,776073 273998,-400290 m -520368,819643 246370,-419353 m -462327,857768 215957,-438415 m -400736,893168 184779,-454753 m -337365,923121 152586,-468368 m -272225,947629 119639,-479261 m -205564,969413 85925,-490152 m -137630,983027 51705,-492875 m -68943,988474 17238,-495599 m 0,130881621 -17238,-495610 m 68943,988470 -51705,-492860 m 137630,980300 -85925,-487440 m 205564,969410 -119639,-481970 m 272225,950360 -152586,-468390 m 337365,923120 -184779,-454730 m 400736,893140 -215957,-438410 m 462327,857770 -246370,-419360 m 520368,819660 -273998,-400300 m 575627,776070 -301629,-375770 m 628350,727050 -326721,-351280 m 676506,675350 -349785,-324070 m 721370,618150 -371585,-294080 m 763447,558200 -391862,-264120 m 799945,495590 -408083,-231470 m 831628,430260 -423545,-198790 m 860273,362180 -436728,-163390 m 882324,294080 -445596,-130690 m 899559,223280 -453963,-92590 m 913754,147050 -459791,-54460 m 921606,73520 -461815,-19060 m 102355565,19060 H 100033810 m 102355580,-19060 -461830,19060 m 921620,-73520 -459790,54460 m 913750,-147050 -453960,92590 m 899550,-223280 -445590,130690 m 882330,-294080 -436740,163390 m 860280,-362180 -423540,198790 m 831610,-430260 -408070,231470 m 799950,-495590 -391880,264120 m 763470,-558200 -371590,294080 m 721390,-618150 -349800,324070 m 676490,-675350 -326690,351280 m 628330,-727050 -301640,375770 m 575630,-776070 -273990,400300 m 520120,-819660 -246130,419360 m 461820,-857770 -215690,438410 m 400450,-893140 -184760,454730 m 338140,-923120 -153380,468390 m 273260,-950360 -119880,481970 m 205050,-969410 -85170,487440 m 136880,-980300 -51710,492860 m 68930,-988470 -17220,495610 m 17220,-130386022 v 129890412 m 0,-129890412 v 0 m -17220,-495599 17220,495599 m -68930,-988474 51710,492875 m -137880,-983027 86170,490152 m -205050,-969413 118880,479261 m -272260,-947629 153380,468368 m -338140,-923121 184760,454753 m -400450,-893168 215690,438415 m -461820,-857768 246130,419353 m -520120,-819643 273990,400290 m -575630,-776073 301640,375783 m -628330,-727060 326690,351277 m -676490,-675322 349800,324045 m -721390,-618137 371590,294092 m -763470,-558230 391880,264138 m -799950,-495597 408070,231459 m -831610,-430244 423540,198785 m -860280,-364891 436740,166106 m -882330,-294091 445590,127985 m -899550,-220569 453960,92584 m -913750,-147048 459790,54464 m -921620,-73524 461830,19060 m -102355580,-19060 h 101893750 m -101893750,0 v 0 m -461814,19060 461814,-19060 m -921605,73524 459791,-54464 m -913754,147048 453963,-92584 m -899560,220569 445597,-127985 m -882324,294091 436727,-166106 m -860272,364891 423545,-198785 m -831628,430244 408083,-231459 m -799945,495597 391862,-264138 m -763447,558230 371585,-294092 m -721370,618137 349785,-324045 m -676506,675322 326721,-351277 m -628350,727060 301629,-375783 m -575627,776073 273998,-400290 m -520368,819643 246370,-419353 m -462327,857768 215957,-438415 m -400736,893168 184779,-454753 m -337366,923121 152587,-468368 m -272225,947629 119638,-479261 m -205563,969413 85925,-490152 m -137630,983027 51705,-492875 m -68943,988474 17238,-495599 m -17238,495599 v 7400652 h 9160919 v -3619168 h 55424130 v 27595579 h -55658880 v -5444609 h -8926169 v 103957958 m 17238,495610 -17238,-495610 m 68943,988470 -51705,-492860 m 137630,980300 -85925,-487440 m 205563,969410 -119638,-481970 m 272225,950360 -152587,-468390 m 337366,923120 -184779,-454730 m 400736,893140 -215957,-438410 m 462327,857770 -246370,-419360 m 520368,819660 -273998,-400300 m 575627,776070 -301629,-375770 m 628350,727050 -326721,-351280 m 676506,675350 -349785,-324070 m 721370,618150 -371585,-294080 m 763447,558200 -391862,-264120 m 799945,495590 -408083,-231470 m 831628,430260 -423545,-198790 m 860272,362180 -436727,-163390 m 882324,294080 -445597,-130690 m 899560,223280 -453963,-92590 m 913754,147050 -459791,-54460 m 921605,73520 -461814,-19060 m 102355564,19060 H 100033810 m 102355580,-19060 -461830,19060 m 921620,-73520 -459790,54460 m 913750,-147050 -453960,92590 m 899550,-223280 -445590,130690 m 882330,-294080 -436740,163390 m 860280,-362180 -423540,198790 m 831610,-430260 -408070,231470 m 799950,-495590 -391880,264120 m 763470,-558200 -371590,294080 m 721390,-618150 -349800,324070 m 676490,-675350 -326690,351280 m 628330,-727050 -301640,375770 m 575630,-776070 -273990,400300 m 520120,-819660 -246130,419360 m 461820,-857770 -215690,438410 m 400450,-893140 -184760,454730 m 338140,-923120 -153380,468390 m 273260,-950360 -119880,481970 m 205050,-969410 -85170,487440 m 136880,-980300 -51710,492860 m 68930,-988470 -17220,495610 m 17220,-130386022 v 129890412 m 0,-129890412 v 0 m -17220,-495599 17220,495599 m -68930,-988474 51710,492875 m -137880,-983027 86170,490152 m -205050,-969413 118880,479261 m -272260,-947629 153380,468368 m -338140,-923121 184760,454753 m -400450,-893168 215690,438415 m -461820,-857768 246130,419353 m -520120,-819643 273990,400290 m -575630,-776073 301640,375783 m -628330,-727060 326690,351277 m -676490,-675322 349800,324045 m -721390,-618137 371590,294092 m -763470,-558230 391880,264138 m -799950,-495597 408070,231459 m -831610,-430244 423540,198785 m -860280,-364891 436740,166106 m -882330,-294091 445590,127985 m -899550,-220569 453960,92584 m -913750,-147048 459790,54464" />
  </g>
  <g
     inkscape:groupmode="layer"
     id="layer1"
     inkscape:label="ignore"
     style="fill:none" />
  <g
     inkscape:groupmode="layer"
     id="layer2"
     inkscape:label="line engraving"
     style="fill:none" />
</svg>
