M48
; DRILL file {KiCad (6.0.8)} date Sun Oct 30 18:55:49 2022
; FORMAT={-:-/ absolute / inch / decimal}
; #@! TF.CreationDate,2022-10-30T18:55:49+01:00
; #@! TF.GenerationSoftware,Kicad,Pcbnew,(6.0.8)
; #@! TF.FileFunction,Plated,1,2,PTH
FMAT,2
INCH
; #@! TA.AperFunction,Plated,PTH,ViaDrill
T1C0.0157
; #@! TA.AperFunction,Plated,PTH,ComponentDrill
T2C0.0315
; #@! TA.AperFunction,Plated,PTH,ComponentDrill
T3C0.0394
; #@! TA.AperFunction,Plated,PTH,ComponentDrill
T4C0.0579
; #@! TA.AperFunction,Plated,PTH,ComponentDrill
T5C0.0591
; #@! TA.AperFunction,Plated,PTH,ComponentDrill
T6C0.1024
%
G90
G05
T1
X4.975Y-1.315
X7.22Y-1.48
T2
X4.3187Y-2.625
X4.3187Y-3.375
X4.3187Y-4.125
X4.3187Y-4.8438
X4.3187Y-5.1875
X4.3187Y-5.4875
X4.6187Y-2.625
X4.6187Y-3.375
X4.6187Y-4.125
X4.6187Y-4.8438
X4.625Y-1.0105
X4.725Y-1.0105
X4.825Y-1.0105
X4.925Y-1.0105
X5.025Y-1.0105
X5.025Y-1.8105
X5.0687Y-2.625
X5.0687Y-3.375
X5.0687Y-4.125
X5.0687Y-4.875
X5.125Y-1.0105
X5.125Y-1.8105
X5.225Y-1.0105
X5.225Y-1.8105
X5.325Y-1.0105
X5.325Y-1.8105
X5.3687Y-2.625
X5.3687Y-3.375
X5.3687Y-4.125
X5.3687Y-4.875
X5.425Y-1.0105
X5.425Y-1.8105
X5.525Y-1.0105
X5.525Y-1.8105
X5.625Y-1.0105
X5.625Y-1.8105
X5.725Y-1.0105
X5.725Y-1.8105
X5.8187Y-2.625
X5.8187Y-3.375
X5.8187Y-4.125
X5.8187Y-5.625
X5.825Y-1.0105
X5.825Y-1.8105
X5.9125Y-4.875
X5.925Y-1.0105
X5.925Y-1.8105
X6.025Y-1.0105
X6.025Y-1.8105
X6.1187Y-2.625
X6.1187Y-3.375
X6.1187Y-4.125
X6.1187Y-5.625
X6.125Y-1.0105
X6.125Y-1.8105
X6.2125Y-4.875
X6.5687Y-2.625
X6.5687Y-4.125
X6.5687Y-5.625
X6.8687Y-2.625
X6.8687Y-4.125
X6.8687Y-5.625
X7.14Y-1.043
X7.2188Y-1.043
X7.2975Y-1.043
X7.3187Y-1.9062
X7.3187Y-5.625
X7.4125Y-2.625
X7.5062Y-3.375
X7.5062Y-4.125
X7.5062Y-4.875
X7.6187Y-1.9062
X7.6187Y-5.625
X7.7125Y-2.625
X7.8062Y-3.375
X7.8062Y-4.125
X7.8062Y-4.875
T3
X6.8535Y-1.2445
X6.8535Y-1.3445
X6.8535Y-1.4445
X6.8535Y-1.5445
X7.4554Y-1.4861
X7.4554Y-1.5846
X7.4554Y-1.683
X8.0263Y-1.4861
X8.0263Y-1.683
T4
X4.6Y-2.15
X4.6Y-2.9
X4.6Y-3.65
X4.6Y-4.4
X4.6516Y-2.0925
X4.6516Y-2.8425
X4.6516Y-3.5925
X4.6516Y-4.3425
X4.8484Y-2.0728
X4.8484Y-2.8228
X4.8484Y-3.5728
X4.8484Y-4.3228
X4.85Y-2.05
X4.85Y-2.8
X4.85Y-3.55
X4.85Y-4.3
X4.975Y-5.15
X5.0266Y-5.0925
X5.2234Y-5.0728
X5.225Y-5.05
X5.35Y-2.15
X5.35Y-2.9
X5.35Y-3.65
X5.35Y-4.4
X5.4016Y-2.0925
X5.4016Y-2.8425
X5.4016Y-3.5925
X5.4016Y-4.3425
X5.5984Y-2.0728
X5.5984Y-2.8228
X5.5984Y-3.5728
X5.5984Y-4.3228
X5.6Y-2.05
X5.6Y-2.8
X5.6Y-3.55
X5.6Y-4.3
X6.1Y-2.15
X6.1Y-2.9
X6.1Y-3.65
X6.1Y-4.4
X6.1Y-5.15
X6.1516Y-2.0925
X6.1516Y-2.8425
X6.1516Y-3.5925
X6.1516Y-4.3425
X6.1516Y-5.0925
X6.3484Y-2.0728
X6.3484Y-2.8228
X6.3484Y-3.5728
X6.3484Y-4.3228
X6.3484Y-5.0728
X6.35Y-2.05
X6.35Y-2.8
X6.35Y-3.55
X6.35Y-4.3
X6.35Y-5.05
X6.8Y-3.275
X6.8Y-4.775
X6.8228Y-3.2766
X6.8228Y-4.7766
X6.8425Y-3.4734
X6.8425Y-4.9734
X6.85Y-2.15
X6.9Y-3.525
X6.9Y-5.025
X6.9016Y-2.0925
X7.0984Y-2.0728
X7.1Y-2.05
X7.6Y-2.15
X7.6Y-2.9
X7.6Y-3.65
X7.6Y-4.4
X7.6Y-5.15
X7.6516Y-2.0925
X7.6516Y-2.8425
X7.6516Y-3.5925
X7.6516Y-4.3425
X7.6516Y-5.0925
X7.8484Y-2.0728
X7.8484Y-2.8228
X7.8484Y-3.5728
X7.8484Y-4.3228
X7.8484Y-5.0728
X7.85Y-2.05
X7.85Y-2.8
X7.85Y-3.55
X7.85Y-4.3
X7.85Y-5.05
T5
X7.0573Y-1.043
X7.3802Y-1.043
T6
X7.7507Y-1.3641
X7.7507Y-1.805
T0
M30
