G04 #@! TF.GenerationSoftware,KiCad,Pcbnew,(6.0.8)*
G04 #@! TF.CreationDate,2022-10-30T18:54:34+01:00*
G04 #@! TF.ProjectId,Project-macropad-V2,50726f6a-6563-4742-9d6d-6163726f7061,rev?*
G04 #@! TF.SameCoordinates,Original*
G04 #@! TF.FileFunction,Legend,Top*
G04 #@! TF.FilePolarity,Positive*
%FSLAX46Y46*%
G04 Gerber Fmt 4.6, Leading zero omitted, Abs format (unit mm)*
G04 Created by KiCad (PCBNEW (6.0.8)) date 2022-10-30 18:54:34*
%MOMM*%
%LPD*%
G01*
G04 APERTURE LIST*
%ADD10C,0.150000*%
%ADD11C,0.300000*%
%ADD12C,0.040000*%
%ADD13C,0.120000*%
%ADD14C,1.750000*%
%ADD15C,3.987800*%
%ADD16R,1.600000X1.600000*%
%ADD17O,1.600000X1.600000*%
%ADD18R,1.700000X1.700000*%
%ADD19O,1.700000X1.700000*%
%ADD20C,3.048000*%
%ADD21R,2.000000X2.000000*%
%ADD22C,2.000000*%
%ADD23C,3.200000*%
%ADD24O,1.500000X2.500000*%
%ADD25R,1.500000X2.500000*%
%ADD26O,2.200000X3.500000*%
%ADD27C,1.600000*%
%ADD28R,1.800000X1.100000*%
G04 APERTURE END LIST*
D10*
X191045147Y-26089428D02*
X191235647Y-24565428D01*
X191598504Y-24565428D01*
X191807147Y-24638000D01*
X191934147Y-24783142D01*
X191988576Y-24928285D01*
X192024861Y-25218571D01*
X191997647Y-25436285D01*
X191888790Y-25726571D01*
X191798076Y-25871714D01*
X191634790Y-26016857D01*
X191408004Y-26089428D01*
X191045147Y-26089428D01*
X192569147Y-26089428D02*
X192696147Y-25073428D01*
X192659861Y-25363714D02*
X192750576Y-25218571D01*
X192832218Y-25146000D01*
X192986433Y-25073428D01*
X193131576Y-25073428D01*
X193530718Y-25944285D02*
X193594218Y-26016857D01*
X193512576Y-26089428D01*
X193449076Y-26016857D01*
X193530718Y-25944285D01*
X193512576Y-26089428D01*
X194238290Y-26089428D02*
X194428790Y-24565428D01*
X195109147Y-26089428D02*
X194564861Y-25218571D01*
X195299647Y-24565428D02*
X194319933Y-25436285D01*
X195762290Y-26089428D02*
X195889290Y-25073428D01*
X195853004Y-25363714D02*
X195943718Y-25218571D01*
X196025361Y-25146000D01*
X196179576Y-25073428D01*
X196324718Y-25073428D01*
X197295361Y-26016857D02*
X197141147Y-26089428D01*
X196850861Y-26089428D01*
X196714790Y-26016857D01*
X196660361Y-25871714D01*
X196732933Y-25291142D01*
X196823647Y-25146000D01*
X196977861Y-25073428D01*
X197268147Y-25073428D01*
X197404218Y-25146000D01*
X197458647Y-25291142D01*
X197440504Y-25436285D01*
X196696647Y-25581428D01*
X198012004Y-26089428D02*
X198139004Y-25073428D01*
X198202504Y-24565428D02*
X198120861Y-24638000D01*
X198184361Y-24710571D01*
X198266004Y-24638000D01*
X198202504Y-24565428D01*
X198184361Y-24710571D01*
X198864718Y-25073428D02*
X198701433Y-26379714D01*
X198610718Y-26524857D01*
X198456504Y-26597428D01*
X198383933Y-26597428D01*
X198928218Y-24565428D02*
X198846576Y-24638000D01*
X198910076Y-24710571D01*
X198991718Y-24638000D01*
X198928218Y-24565428D01*
X198910076Y-24710571D01*
X200243576Y-25073428D02*
X200089361Y-26307142D01*
X199998647Y-26452285D01*
X199917004Y-26524857D01*
X199762790Y-26597428D01*
X199545076Y-26597428D01*
X199409004Y-26524857D01*
X200125647Y-26016857D02*
X199971433Y-26089428D01*
X199681147Y-26089428D01*
X199545076Y-26016857D01*
X199481576Y-25944285D01*
X199427147Y-25799142D01*
X199481576Y-25363714D01*
X199572290Y-25218571D01*
X199653933Y-25146000D01*
X199808147Y-25073428D01*
X200098433Y-25073428D01*
X200234504Y-25146000D01*
X201431933Y-26016857D02*
X201277718Y-26089428D01*
X200987433Y-26089428D01*
X200851361Y-26016857D01*
X200796933Y-25871714D01*
X200869504Y-25291142D01*
X200960218Y-25146000D01*
X201114433Y-25073428D01*
X201404718Y-25073428D01*
X201540790Y-25146000D01*
X201595218Y-25291142D01*
X201577076Y-25436285D01*
X200833218Y-25581428D01*
X202148576Y-26089428D02*
X202275576Y-25073428D01*
X202239290Y-25363714D02*
X202330004Y-25218571D01*
X202411647Y-25146000D01*
X202565861Y-25073428D01*
X202711004Y-25073428D01*
D11*
G04 #@! TO.C,G\u002A\u002A\u002A*
X204238678Y-28606750D02*
X204093535Y-28534178D01*
X203875821Y-28534178D01*
X203658107Y-28606750D01*
X203512964Y-28751892D01*
X203440392Y-28897035D01*
X203367821Y-29187321D01*
X203367821Y-29405035D01*
X203440392Y-29695321D01*
X203512964Y-29840464D01*
X203658107Y-29985607D01*
X203875821Y-30058178D01*
X204020964Y-30058178D01*
X204238678Y-29985607D01*
X204311250Y-29913035D01*
X204311250Y-29405035D01*
X204020964Y-29405035D01*
X205182107Y-28534178D02*
X205182107Y-28897035D01*
X204819250Y-28751892D02*
X205182107Y-28897035D01*
X205544964Y-28751892D01*
X204964392Y-29187321D02*
X205182107Y-28897035D01*
X205399821Y-29187321D01*
X206343250Y-28534178D02*
X206343250Y-28897035D01*
X205980392Y-28751892D02*
X206343250Y-28897035D01*
X206706107Y-28751892D01*
X206125535Y-29187321D02*
X206343250Y-28897035D01*
X206560964Y-29187321D01*
X207504392Y-28534178D02*
X207504392Y-28897035D01*
X207141535Y-28751892D02*
X207504392Y-28897035D01*
X207867250Y-28751892D01*
X207286678Y-29187321D02*
X207504392Y-28897035D01*
X207722107Y-29187321D01*
D10*
G04 #@! TO.C,J1*
X138931380Y-35664333D02*
X139645666Y-35664333D01*
X139788523Y-35711952D01*
X139883761Y-35807190D01*
X139931380Y-35950047D01*
X139931380Y-36045285D01*
X139931380Y-34664333D02*
X139931380Y-35235761D01*
X139931380Y-34950047D02*
X138931380Y-34950047D01*
X139074238Y-35045285D01*
X139169476Y-35140523D01*
X139217095Y-35235761D01*
X171704000Y-32182428D02*
X171668285Y-32253857D01*
X171668285Y-32361000D01*
X171704000Y-32468142D01*
X171775428Y-32539571D01*
X171846857Y-32575285D01*
X171989714Y-32611000D01*
X172096857Y-32611000D01*
X172239714Y-32575285D01*
X172311142Y-32539571D01*
X172382571Y-32468142D01*
X172418285Y-32361000D01*
X172418285Y-32289571D01*
X172382571Y-32182428D01*
X172346857Y-32146714D01*
X172096857Y-32146714D01*
X172096857Y-32289571D01*
X172418285Y-31825285D02*
X171668285Y-31825285D01*
X172418285Y-31396714D01*
X171668285Y-31396714D01*
X172418285Y-31039571D02*
X171668285Y-31039571D01*
X171668285Y-30861000D01*
X171704000Y-30753857D01*
X171775428Y-30682428D01*
X171846857Y-30646714D01*
X171989714Y-30611000D01*
X172096857Y-30611000D01*
X172239714Y-30646714D01*
X172311142Y-30682428D01*
X172382571Y-30753857D01*
X172418285Y-30861000D01*
X172418285Y-31039571D01*
X172382571Y-40141714D02*
X172418285Y-40034571D01*
X172418285Y-39856000D01*
X172382571Y-39784571D01*
X172346857Y-39748857D01*
X172275428Y-39713142D01*
X172204000Y-39713142D01*
X172132571Y-39748857D01*
X172096857Y-39784571D01*
X172061142Y-39856000D01*
X172025428Y-39998857D01*
X171989714Y-40070285D01*
X171954000Y-40106000D01*
X171882571Y-40141714D01*
X171811142Y-40141714D01*
X171739714Y-40106000D01*
X171704000Y-40070285D01*
X171668285Y-39998857D01*
X171668285Y-39820285D01*
X171704000Y-39713142D01*
X172418285Y-39391714D02*
X171668285Y-39391714D01*
X171668285Y-39213142D01*
X171704000Y-39106000D01*
X171775428Y-39034571D01*
X171846857Y-38998857D01*
X171989714Y-38963142D01*
X172096857Y-38963142D01*
X172239714Y-38998857D01*
X172311142Y-39034571D01*
X172382571Y-39106000D01*
X172418285Y-39213142D01*
X172418285Y-39391714D01*
X172204000Y-38677428D02*
X172204000Y-38320285D01*
X172418285Y-38748857D02*
X171668285Y-38498857D01*
X172418285Y-38248857D01*
X152650428Y-34873380D02*
X152840904Y-34873380D01*
X152936142Y-34921000D01*
X153031380Y-35016238D01*
X153079000Y-35206714D01*
X153079000Y-35540047D01*
X153031380Y-35730523D01*
X152936142Y-35825761D01*
X152840904Y-35873380D01*
X152650428Y-35873380D01*
X152555190Y-35825761D01*
X152459952Y-35730523D01*
X152412333Y-35540047D01*
X152412333Y-35206714D01*
X152459952Y-35016238D01*
X152555190Y-34921000D01*
X152650428Y-34873380D01*
X153983761Y-35873380D02*
X153507571Y-35873380D01*
X153507571Y-34873380D01*
X154317095Y-35349571D02*
X154650428Y-35349571D01*
X154793285Y-35873380D02*
X154317095Y-35873380D01*
X154317095Y-34873380D01*
X154793285Y-34873380D01*
X155221857Y-35873380D02*
X155221857Y-34873380D01*
X155459952Y-34873380D01*
X155602809Y-34921000D01*
X155698047Y-35016238D01*
X155745666Y-35111476D01*
X155793285Y-35301952D01*
X155793285Y-35444809D01*
X155745666Y-35635285D01*
X155698047Y-35730523D01*
X155602809Y-35825761D01*
X155459952Y-35873380D01*
X155221857Y-35873380D01*
X156983761Y-35873380D02*
X156983761Y-34873380D01*
X157364714Y-34873380D01*
X157459952Y-34921000D01*
X157507571Y-34968619D01*
X157555190Y-35063857D01*
X157555190Y-35206714D01*
X157507571Y-35301952D01*
X157459952Y-35349571D01*
X157364714Y-35397190D01*
X156983761Y-35397190D01*
X158412333Y-35873380D02*
X158412333Y-35349571D01*
X158364714Y-35254333D01*
X158269476Y-35206714D01*
X158079000Y-35206714D01*
X157983761Y-35254333D01*
X158412333Y-35825761D02*
X158317095Y-35873380D01*
X158079000Y-35873380D01*
X157983761Y-35825761D01*
X157936142Y-35730523D01*
X157936142Y-35635285D01*
X157983761Y-35540047D01*
X158079000Y-35492428D01*
X158317095Y-35492428D01*
X158412333Y-35444809D01*
X158888523Y-35206714D02*
X158888523Y-35873380D01*
X158888523Y-35301952D02*
X158936142Y-35254333D01*
X159031380Y-35206714D01*
X159174238Y-35206714D01*
X159269476Y-35254333D01*
X159317095Y-35349571D01*
X159317095Y-35873380D01*
X160174238Y-35825761D02*
X160079000Y-35873380D01*
X159888523Y-35873380D01*
X159793285Y-35825761D01*
X159745666Y-35730523D01*
X159745666Y-35349571D01*
X159793285Y-35254333D01*
X159888523Y-35206714D01*
X160079000Y-35206714D01*
X160174238Y-35254333D01*
X160221857Y-35349571D01*
X160221857Y-35444809D01*
X159745666Y-35540047D01*
X160793285Y-35873380D02*
X160698047Y-35825761D01*
X160650428Y-35730523D01*
X160650428Y-34873380D01*
X172382571Y-37583857D02*
X172418285Y-37476714D01*
X172418285Y-37298142D01*
X172382571Y-37226714D01*
X172346857Y-37191000D01*
X172275428Y-37155285D01*
X172204000Y-37155285D01*
X172132571Y-37191000D01*
X172096857Y-37226714D01*
X172061142Y-37298142D01*
X172025428Y-37441000D01*
X171989714Y-37512428D01*
X171954000Y-37548142D01*
X171882571Y-37583857D01*
X171811142Y-37583857D01*
X171739714Y-37548142D01*
X171704000Y-37512428D01*
X171668285Y-37441000D01*
X171668285Y-37262428D01*
X171704000Y-37155285D01*
X172346857Y-36405285D02*
X172382571Y-36441000D01*
X172418285Y-36548142D01*
X172418285Y-36619571D01*
X172382571Y-36726714D01*
X172311142Y-36798142D01*
X172239714Y-36833857D01*
X172096857Y-36869571D01*
X171989714Y-36869571D01*
X171846857Y-36833857D01*
X171775428Y-36798142D01*
X171704000Y-36726714D01*
X171668285Y-36619571D01*
X171668285Y-36548142D01*
X171704000Y-36441000D01*
X171739714Y-36405285D01*
X172418285Y-35726714D02*
X172418285Y-36083857D01*
X171668285Y-36083857D01*
X171668285Y-35151000D02*
X172418285Y-34901000D01*
X171668285Y-34651000D01*
X172346857Y-33972428D02*
X172382571Y-34008142D01*
X172418285Y-34115285D01*
X172418285Y-34186714D01*
X172382571Y-34293857D01*
X172311142Y-34365285D01*
X172239714Y-34401000D01*
X172096857Y-34436714D01*
X171989714Y-34436714D01*
X171846857Y-34401000D01*
X171775428Y-34365285D01*
X171704000Y-34293857D01*
X171668285Y-34186714D01*
X171668285Y-34115285D01*
X171704000Y-34008142D01*
X171739714Y-33972428D01*
X172346857Y-33222428D02*
X172382571Y-33258142D01*
X172418285Y-33365285D01*
X172418285Y-33436714D01*
X172382571Y-33543857D01*
X172311142Y-33615285D01*
X172239714Y-33651000D01*
X172096857Y-33686714D01*
X171989714Y-33686714D01*
X171846857Y-33651000D01*
X171775428Y-33615285D01*
X171704000Y-33543857D01*
X171668285Y-33436714D01*
X171668285Y-33365285D01*
X171704000Y-33258142D01*
X171739714Y-33222428D01*
G04 #@! TO.C,SW1*
X190833464Y-33452809D02*
X190976321Y-33500428D01*
X191214417Y-33500428D01*
X191309655Y-33452809D01*
X191357274Y-33405190D01*
X191404893Y-33309952D01*
X191404893Y-33214714D01*
X191357274Y-33119476D01*
X191309655Y-33071857D01*
X191214417Y-33024238D01*
X191023940Y-32976619D01*
X190928702Y-32929000D01*
X190881083Y-32881381D01*
X190833464Y-32786143D01*
X190833464Y-32690905D01*
X190881083Y-32595667D01*
X190928702Y-32548048D01*
X191023940Y-32500428D01*
X191262036Y-32500428D01*
X191404893Y-32548048D01*
X191738226Y-32500428D02*
X191976321Y-33500428D01*
X192166798Y-32786143D01*
X192357274Y-33500428D01*
X192595369Y-32500428D01*
X193500131Y-33500428D02*
X192928702Y-33500428D01*
X193214417Y-33500428D02*
X193214417Y-32500428D01*
X193119178Y-32643286D01*
X193023940Y-32738524D01*
X192928702Y-32786143D01*
G04 #@! TO.C,SW3*
X184012916Y-23906011D02*
X184155773Y-23953630D01*
X184393869Y-23953630D01*
X184489107Y-23906011D01*
X184536726Y-23858392D01*
X184584345Y-23763154D01*
X184584345Y-23667916D01*
X184536726Y-23572678D01*
X184489107Y-23525059D01*
X184393869Y-23477440D01*
X184203392Y-23429821D01*
X184108154Y-23382202D01*
X184060535Y-23334583D01*
X184012916Y-23239345D01*
X184012916Y-23144107D01*
X184060535Y-23048869D01*
X184108154Y-23001250D01*
X184203392Y-22953630D01*
X184441488Y-22953630D01*
X184584345Y-23001250D01*
X184917678Y-22953630D02*
X185155773Y-23953630D01*
X185346250Y-23239345D01*
X185536726Y-23953630D01*
X185774821Y-22953630D01*
X186060535Y-22953630D02*
X186679583Y-22953630D01*
X186346250Y-23334583D01*
X186489107Y-23334583D01*
X186584345Y-23382202D01*
X186631964Y-23429821D01*
X186679583Y-23525059D01*
X186679583Y-23763154D01*
X186631964Y-23858392D01*
X186584345Y-23906011D01*
X186489107Y-23953630D01*
X186203392Y-23953630D01*
X186108154Y-23906011D01*
X186060535Y-23858392D01*
G04 #@! TO.C,SW2*
X116141666Y-29614761D02*
X116284523Y-29662380D01*
X116522619Y-29662380D01*
X116617857Y-29614761D01*
X116665476Y-29567142D01*
X116713095Y-29471904D01*
X116713095Y-29376666D01*
X116665476Y-29281428D01*
X116617857Y-29233809D01*
X116522619Y-29186190D01*
X116332142Y-29138571D01*
X116236904Y-29090952D01*
X116189285Y-29043333D01*
X116141666Y-28948095D01*
X116141666Y-28852857D01*
X116189285Y-28757619D01*
X116236904Y-28710000D01*
X116332142Y-28662380D01*
X116570238Y-28662380D01*
X116713095Y-28710000D01*
X117046428Y-28662380D02*
X117284523Y-29662380D01*
X117475000Y-28948095D01*
X117665476Y-29662380D01*
X117903571Y-28662380D01*
X118236904Y-28757619D02*
X118284523Y-28710000D01*
X118379761Y-28662380D01*
X118617857Y-28662380D01*
X118713095Y-28710000D01*
X118760714Y-28757619D01*
X118808333Y-28852857D01*
X118808333Y-28948095D01*
X118760714Y-29090952D01*
X118189285Y-29662380D01*
X118808333Y-29662380D01*
G04 #@! TO.C,G\u002A\u002A\u002A*
G36*
X205228999Y-34643010D02*
G01*
X205234110Y-34645984D01*
X205217470Y-34647901D01*
X205193900Y-34648317D01*
X205165084Y-34647367D01*
X205156656Y-34645091D01*
X205165499Y-34642836D01*
X205203058Y-34640747D01*
X205228999Y-34643010D01*
G37*
G36*
X205075032Y-34620884D02*
G01*
X205085950Y-34626550D01*
X205098592Y-34636446D01*
X205089126Y-34638840D01*
X205085950Y-34638861D01*
X205058767Y-34632215D01*
X205047850Y-34626550D01*
X205035207Y-34616653D01*
X205044673Y-34614259D01*
X205047850Y-34614238D01*
X205075032Y-34620884D01*
G37*
G36*
X205311110Y-34631577D02*
G01*
X205307322Y-34637349D01*
X205294441Y-34638247D01*
X205280890Y-34635145D01*
X205286768Y-34630574D01*
X205306617Y-34629060D01*
X205311110Y-34631577D01*
G37*
G36*
X205386516Y-34605383D02*
G01*
X205384773Y-34612933D01*
X205378050Y-34613850D01*
X205367596Y-34609203D01*
X205369583Y-34605383D01*
X205384655Y-34603863D01*
X205386516Y-34605383D01*
G37*
G36*
X205022450Y-34594800D02*
G01*
X205016100Y-34601150D01*
X205009750Y-34594800D01*
X205016100Y-34588450D01*
X205022450Y-34594800D01*
G37*
G36*
X205589715Y-34503782D02*
G01*
X205587647Y-34516604D01*
X205567879Y-34535250D01*
X205536366Y-34556290D01*
X205499062Y-34576291D01*
X205461921Y-34591825D01*
X205430897Y-34599459D01*
X205423289Y-34599676D01*
X205404798Y-34598105D01*
X205411383Y-34595155D01*
X205422500Y-34592672D01*
X205490968Y-34566092D01*
X205546192Y-34526482D01*
X205570822Y-34508215D01*
X205587764Y-34502764D01*
X205589715Y-34503782D01*
G37*
G36*
X204857185Y-34436050D02*
G01*
X204892576Y-34474851D01*
X204930126Y-34514404D01*
X204937284Y-34521710D01*
X204958104Y-34545748D01*
X204965356Y-34560631D01*
X204962548Y-34562985D01*
X204945186Y-34554644D01*
X204918284Y-34533338D01*
X204902445Y-34518398D01*
X204870872Y-34482377D01*
X204844497Y-34444826D01*
X204837798Y-34432673D01*
X204817802Y-34391600D01*
X204857185Y-34436050D01*
G37*
G36*
X203040854Y-30410150D02*
G01*
X203047487Y-30346417D01*
X203052810Y-30288169D01*
X207588064Y-30288169D01*
X207589562Y-30332234D01*
X207593650Y-30372852D01*
X207600207Y-30402859D01*
X207603725Y-30410666D01*
X207612207Y-30421158D01*
X207617563Y-30416695D01*
X207620941Y-30393763D01*
X207623421Y-30350434D01*
X207624347Y-30301828D01*
X207622983Y-30259889D01*
X207620004Y-30235790D01*
X207609764Y-30213409D01*
X207600308Y-30206950D01*
X207593316Y-30218362D01*
X207589275Y-30247824D01*
X207588064Y-30288169D01*
X203052810Y-30288169D01*
X203054619Y-30268377D01*
X203061281Y-30187078D01*
X203065450Y-30129663D01*
X203070658Y-30066294D01*
X203076984Y-30010367D01*
X203080005Y-29991050D01*
X207549750Y-29991050D01*
X207554396Y-30001503D01*
X207558216Y-29999516D01*
X207559736Y-29984444D01*
X207558216Y-29982583D01*
X207550666Y-29984326D01*
X207549750Y-29991050D01*
X203080005Y-29991050D01*
X203083647Y-29967762D01*
X203089866Y-29944358D01*
X203090146Y-29943806D01*
X203096852Y-29921949D01*
X207537050Y-29921949D01*
X207540744Y-29943473D01*
X207548557Y-29947336D01*
X207555128Y-29930910D01*
X207553426Y-29914837D01*
X207545122Y-29892507D01*
X207539268Y-29895031D01*
X207537050Y-29921895D01*
X207537050Y-29921949D01*
X203096852Y-29921949D01*
X203097364Y-29920280D01*
X203105334Y-29878417D01*
X203112842Y-29825203D01*
X203114159Y-29813250D01*
X207539055Y-29813250D01*
X207541051Y-29831279D01*
X207545460Y-29829125D01*
X207547138Y-29803123D01*
X207545460Y-29797375D01*
X207540825Y-29795779D01*
X207539055Y-29813250D01*
X203114159Y-29813250D01*
X203116447Y-29792492D01*
X203122354Y-29741501D01*
X203131092Y-29677241D01*
X203141837Y-29604724D01*
X203153764Y-29528964D01*
X203166048Y-29454975D01*
X203177864Y-29387768D01*
X203188387Y-29332357D01*
X203196792Y-29293756D01*
X203200806Y-29279850D01*
X203208455Y-29254221D01*
X203219364Y-29210554D01*
X203232266Y-29154765D01*
X203245898Y-29092769D01*
X203258992Y-29030479D01*
X203270284Y-28973812D01*
X203278509Y-28928681D01*
X203282400Y-28901002D01*
X203282550Y-28897762D01*
X203286691Y-28860148D01*
X203294629Y-28827720D01*
X203305683Y-28791202D01*
X203317953Y-28746802D01*
X203320670Y-28736360D01*
X203338444Y-28692016D01*
X203365052Y-28667975D01*
X203366236Y-28667421D01*
X203388252Y-28650746D01*
X203394170Y-28634108D01*
X203380050Y-28619177D01*
X203351815Y-28612324D01*
X203319935Y-28615249D01*
X203307535Y-28620028D01*
X203284858Y-28622946D01*
X203252897Y-28618105D01*
X203221102Y-28608193D01*
X203205160Y-28599356D01*
X203539189Y-28599356D01*
X203547723Y-28621381D01*
X203572179Y-28632072D01*
X203574864Y-28632150D01*
X203602296Y-28626743D01*
X203639694Y-28613172D01*
X203653848Y-28606750D01*
X203688512Y-28591412D01*
X203714580Y-28582374D01*
X203720708Y-28581350D01*
X203739498Y-28576222D01*
X203772414Y-28563056D01*
X203797698Y-28551579D01*
X203848491Y-28529514D01*
X203905597Y-28507601D01*
X203930250Y-28499136D01*
X203978348Y-28483117D01*
X204024245Y-28467178D01*
X204044550Y-28459793D01*
X204082705Y-28446237D01*
X204115559Y-28435749D01*
X204117575Y-28435179D01*
X204139770Y-28425020D01*
X204146150Y-28416510D01*
X204157345Y-28407876D01*
X204185286Y-28399429D01*
X204196218Y-28397323D01*
X204232201Y-28387532D01*
X204258017Y-28373983D01*
X204261273Y-28370807D01*
X204283157Y-28355217D01*
X204294260Y-28352750D01*
X204316475Y-28347330D01*
X204349518Y-28333844D01*
X204359380Y-28329074D01*
X204400748Y-28311829D01*
X204451135Y-28295469D01*
X204473175Y-28289707D01*
X204510121Y-28279318D01*
X204534333Y-28269262D01*
X204539850Y-28263977D01*
X204550899Y-28255102D01*
X204579950Y-28241255D01*
X204620860Y-28225343D01*
X204623398Y-28224442D01*
X204667195Y-28206452D01*
X204701592Y-28187681D01*
X204719095Y-28172248D01*
X204740622Y-28153732D01*
X204758689Y-28149550D01*
X204788358Y-28141346D01*
X204826409Y-28120758D01*
X204863733Y-28093819D01*
X204891222Y-28066562D01*
X204896846Y-28058041D01*
X204911116Y-28041910D01*
X204920048Y-28041104D01*
X204935687Y-28038250D01*
X204946366Y-28028760D01*
X204963992Y-28012910D01*
X204971861Y-28009850D01*
X204986375Y-28001894D01*
X205011247Y-27981897D01*
X205022132Y-27972046D01*
X205054563Y-27945625D01*
X205099021Y-27914196D01*
X205118727Y-27901689D01*
X206987814Y-27901689D01*
X206988112Y-27957691D01*
X206988949Y-28024076D01*
X206990225Y-28096295D01*
X206991842Y-28169796D01*
X206993701Y-28240030D01*
X206995703Y-28302446D01*
X206997749Y-28352495D01*
X206999741Y-28385626D01*
X207001341Y-28397130D01*
X207009399Y-28399468D01*
X207015591Y-28377632D01*
X207019844Y-28332785D01*
X207022086Y-28266089D01*
X207022245Y-28178707D01*
X207020655Y-28087703D01*
X207018204Y-28012318D01*
X207014897Y-27945543D01*
X207011035Y-27891588D01*
X207006917Y-27854665D01*
X207002897Y-27839035D01*
X206991210Y-27834255D01*
X206989226Y-27839035D01*
X206988152Y-27860620D01*
X206987814Y-27901689D01*
X205118727Y-27901689D01*
X205140950Y-27887584D01*
X205186924Y-27858456D01*
X205229605Y-27828472D01*
X205257400Y-27806138D01*
X205288684Y-27781530D01*
X205317419Y-27765064D01*
X205322041Y-27763390D01*
X205347828Y-27746554D01*
X205365462Y-27723889D01*
X205380898Y-27700936D01*
X205392318Y-27692350D01*
X205407629Y-27684479D01*
X205431249Y-27665374D01*
X205432983Y-27663775D01*
X205465854Y-27633385D01*
X205484771Y-27616066D01*
X205806276Y-27616066D01*
X205810280Y-27621361D01*
X205831489Y-27615559D01*
X205846764Y-27610218D01*
X205880595Y-27592426D01*
X205921800Y-27562636D01*
X205956609Y-27531858D01*
X205996445Y-27495960D01*
X206037134Y-27464483D01*
X206065513Y-27446689D01*
X206099323Y-27424759D01*
X206124048Y-27400442D01*
X206127008Y-27395889D01*
X206144134Y-27375348D01*
X206175669Y-27345582D01*
X206215471Y-27312297D01*
X206224816Y-27305000D01*
X206266279Y-27270533D01*
X206301270Y-27236893D01*
X206323315Y-27210405D01*
X206325573Y-27206575D01*
X206344128Y-27181915D01*
X206363013Y-27171650D01*
X206363024Y-27171650D01*
X206383286Y-27161279D01*
X206390485Y-27149920D01*
X206402588Y-27132243D01*
X206424994Y-27105984D01*
X207451189Y-27105984D01*
X207454260Y-27130375D01*
X207460005Y-27163015D01*
X207465685Y-27211565D01*
X207470356Y-27266548D01*
X207473078Y-27318489D01*
X207473121Y-27319967D01*
X207481686Y-27341141D01*
X207490158Y-27351717D01*
X207506989Y-27380203D01*
X207523656Y-27428233D01*
X207539191Y-27489968D01*
X207552630Y-27559564D01*
X207563005Y-27631179D01*
X207569351Y-27698973D01*
X207570701Y-27757103D01*
X207566090Y-27799726D01*
X207564956Y-27803982D01*
X207560874Y-27829273D01*
X207556842Y-27874750D01*
X207552986Y-27936085D01*
X207549431Y-28008948D01*
X207546304Y-28089009D01*
X207543729Y-28171939D01*
X207541832Y-28253410D01*
X207540741Y-28329090D01*
X207540579Y-28394650D01*
X207541473Y-28445762D01*
X207543549Y-28478095D01*
X207545141Y-28486057D01*
X207554682Y-28499632D01*
X207563147Y-28487927D01*
X207570508Y-28451040D01*
X207576740Y-28389069D01*
X207578944Y-28356728D01*
X207583569Y-28302001D01*
X207589862Y-28254751D01*
X207596751Y-28222325D01*
X207599673Y-28214688D01*
X207604537Y-28192467D01*
X207608432Y-28147247D01*
X207611245Y-28081412D01*
X207612865Y-27997349D01*
X207613230Y-27924959D01*
X207612708Y-27824306D01*
X207610912Y-27743407D01*
X207607472Y-27676632D01*
X207602020Y-27618350D01*
X207595085Y-27569284D01*
X207905350Y-27569284D01*
X207914502Y-27601019D01*
X207930030Y-27621848D01*
X207951530Y-27651398D01*
X207962596Y-27680089D01*
X207974421Y-27711733D01*
X207988380Y-27730848D01*
X208002957Y-27753045D01*
X208013940Y-27786653D01*
X208014377Y-27788876D01*
X208022714Y-27818177D01*
X208032493Y-27833211D01*
X208033763Y-27833637D01*
X208056417Y-27836391D01*
X208060925Y-27836873D01*
X208073933Y-27848964D01*
X208076917Y-27863861D01*
X208088763Y-27908002D01*
X208123360Y-27959968D01*
X208140528Y-27979546D01*
X208161601Y-28007323D01*
X208171858Y-28030736D01*
X208172050Y-28033094D01*
X208178534Y-28060561D01*
X208195260Y-28100717D01*
X208218133Y-28145286D01*
X208243061Y-28185988D01*
X208256797Y-28204499D01*
X208276367Y-28231518D01*
X208286108Y-28251326D01*
X208286350Y-28253263D01*
X208294118Y-28268558D01*
X208311988Y-28286692D01*
X208331812Y-28300995D01*
X208345439Y-28304796D01*
X208347072Y-28302968D01*
X208344503Y-28286591D01*
X208333998Y-28255541D01*
X208325299Y-28234081D01*
X208308861Y-28200317D01*
X208294663Y-28178911D01*
X208289052Y-28174950D01*
X208277963Y-28164432D01*
X208261293Y-28137455D01*
X208249715Y-28114625D01*
X208231126Y-28076266D01*
X208215328Y-28045497D01*
X208209554Y-28035250D01*
X208196373Y-28010787D01*
X208180298Y-27977270D01*
X208179239Y-27974929D01*
X208158571Y-27936576D01*
X208132167Y-27896432D01*
X208128250Y-27891181D01*
X208107997Y-27861687D01*
X208096698Y-27839521D01*
X208095850Y-27835384D01*
X208085749Y-27819521D01*
X208077997Y-27815216D01*
X208062892Y-27798963D01*
X208051604Y-27769481D01*
X208051588Y-27769408D01*
X208042362Y-27742382D01*
X208031786Y-27730477D01*
X208031340Y-27730450D01*
X208021839Y-27719804D01*
X208019650Y-27705050D01*
X208011018Y-27676806D01*
X207996088Y-27656088D01*
X207974373Y-27624831D01*
X207964188Y-27599304D01*
X207948763Y-27569039D01*
X207930600Y-27552569D01*
X207911751Y-27545904D01*
X207905688Y-27558247D01*
X207905350Y-27569284D01*
X207595085Y-27569284D01*
X207594187Y-27562931D01*
X207586724Y-27520900D01*
X207575196Y-27463550D01*
X207564253Y-27415187D01*
X207555785Y-27383465D01*
X207805655Y-27383465D01*
X207806958Y-27405989D01*
X207823314Y-27437432D01*
X207835500Y-27453366D01*
X207856495Y-27483272D01*
X207867653Y-27508752D01*
X207868142Y-27512349D01*
X207870247Y-27525099D01*
X207876468Y-27514553D01*
X207878468Y-27509564D01*
X207879072Y-27479724D01*
X207865315Y-27436631D01*
X207862443Y-27430189D01*
X207844321Y-27397716D01*
X207827078Y-27377809D01*
X207820367Y-27374850D01*
X207805655Y-27383465D01*
X207555785Y-27383465D01*
X207555246Y-27381444D01*
X207550148Y-27368500D01*
X207541639Y-27348054D01*
X207534344Y-27315131D01*
X207533780Y-27311350D01*
X207526232Y-27275193D01*
X207514836Y-27235150D01*
X207702150Y-27235150D01*
X207706796Y-27245603D01*
X207710616Y-27243616D01*
X207712136Y-27228544D01*
X207710616Y-27226683D01*
X207703066Y-27228426D01*
X207702150Y-27235150D01*
X207514836Y-27235150D01*
X207513541Y-27230601D01*
X207498007Y-27183973D01*
X207482246Y-27142548D01*
X207656516Y-27142548D01*
X207658242Y-27147127D01*
X207670502Y-27158388D01*
X207676501Y-27145562D01*
X207676750Y-27139150D01*
X207670501Y-27126070D01*
X207663842Y-27127328D01*
X207656516Y-27142548D01*
X207482246Y-27142548D01*
X207481927Y-27141710D01*
X207469550Y-27114500D01*
X207765650Y-27114500D01*
X207772000Y-27120850D01*
X207778350Y-27114500D01*
X207772000Y-27108150D01*
X207765650Y-27114500D01*
X207469550Y-27114500D01*
X207467600Y-27110212D01*
X207457325Y-27095880D01*
X207456298Y-27095606D01*
X207451189Y-27105984D01*
X206424994Y-27105984D01*
X206428695Y-27101647D01*
X206452086Y-27076400D01*
X207740250Y-27076400D01*
X207746600Y-27082750D01*
X207752950Y-27076400D01*
X207746600Y-27070050D01*
X207740250Y-27076400D01*
X206452086Y-27076400D01*
X206464588Y-27062906D01*
X206494323Y-27032445D01*
X206510174Y-27016075D01*
X207422944Y-27016075D01*
X207426227Y-27044164D01*
X207434485Y-27057231D01*
X207435450Y-27057350D01*
X207446124Y-27046878D01*
X207447955Y-27035125D01*
X207445381Y-27023927D01*
X207651065Y-27023927D01*
X207662255Y-27041046D01*
X207676750Y-27044650D01*
X207697396Y-27039976D01*
X207702150Y-27033505D01*
X207693819Y-27016501D01*
X207676296Y-27003113D01*
X207660786Y-27001547D01*
X207659706Y-27002426D01*
X207651065Y-27023927D01*
X207445381Y-27023927D01*
X207440957Y-27004684D01*
X207435450Y-26993850D01*
X207427017Y-26986426D01*
X207423382Y-27000679D01*
X207422944Y-27016075D01*
X206510174Y-27016075D01*
X206535792Y-26989617D01*
X206571621Y-26950318D01*
X206572388Y-26949400D01*
X207625950Y-26949400D01*
X207632300Y-26955750D01*
X207638650Y-26949400D01*
X207632300Y-26943050D01*
X207625950Y-26949400D01*
X206572388Y-26949400D01*
X206597124Y-26919813D01*
X206606236Y-26906673D01*
X206617793Y-26877424D01*
X206622584Y-26849175D01*
X206621286Y-26841450D01*
X207537050Y-26841450D01*
X207541696Y-26851903D01*
X207545516Y-26849916D01*
X207547036Y-26834844D01*
X207545516Y-26832983D01*
X207537966Y-26834726D01*
X207537050Y-26841450D01*
X206621286Y-26841450D01*
X206619549Y-26831110D01*
X206615220Y-26828750D01*
X206604277Y-26837426D01*
X206579099Y-26861319D01*
X206542939Y-26897227D01*
X206499050Y-26941946D01*
X206476509Y-26965275D01*
X206428620Y-27014911D01*
X206385613Y-27059179D01*
X206351206Y-27094275D01*
X206329115Y-27116396D01*
X206324463Y-27120850D01*
X206305959Y-27138231D01*
X206274925Y-27167784D01*
X206237100Y-27204034D01*
X206224557Y-27216100D01*
X206176643Y-27261432D01*
X206120030Y-27313815D01*
X206065162Y-27363608D01*
X206052573Y-27374850D01*
X206010769Y-27412104D01*
X205974881Y-27444243D01*
X205950025Y-27466676D01*
X205942847Y-27473275D01*
X205923237Y-27486902D01*
X205915490Y-27489150D01*
X205899694Y-27498286D01*
X205875151Y-27521213D01*
X205848093Y-27551207D01*
X205824751Y-27581546D01*
X205814741Y-27597845D01*
X205806276Y-27616066D01*
X205484771Y-27616066D01*
X205493885Y-27607722D01*
X205521025Y-27582612D01*
X205541245Y-27563272D01*
X205585576Y-27520805D01*
X205622601Y-27488058D01*
X205648557Y-27468230D01*
X205658225Y-27463750D01*
X205672989Y-27456321D01*
X205701145Y-27436854D01*
X205736331Y-27409775D01*
X205783512Y-27372730D01*
X205834334Y-27334129D01*
X205865333Y-27311350D01*
X205904610Y-27281739D01*
X205939552Y-27253086D01*
X205955689Y-27238325D01*
X205977613Y-27218465D01*
X205991377Y-27209766D01*
X205991644Y-27209750D01*
X206007234Y-27202954D01*
X206034384Y-27186039D01*
X206065766Y-27164218D01*
X206094053Y-27142700D01*
X206111914Y-27126697D01*
X206114650Y-27122288D01*
X206124738Y-27111019D01*
X206150312Y-27093252D01*
X206166333Y-27083779D01*
X206209181Y-27054582D01*
X206250342Y-27018777D01*
X206258193Y-27010580D01*
X206293385Y-26977141D01*
X206337316Y-26942158D01*
X206358909Y-26927200D01*
X206391844Y-26904287D01*
X206413832Y-26885978D01*
X206419450Y-26878266D01*
X206429902Y-26867147D01*
X206445130Y-26860410D01*
X206460643Y-26849613D01*
X206490544Y-26823970D01*
X206514028Y-26802600D01*
X207537050Y-26802600D01*
X207546269Y-26815533D01*
X207549750Y-26816050D01*
X207562119Y-26811716D01*
X207562450Y-26810449D01*
X207553550Y-26799606D01*
X207549750Y-26797000D01*
X207538047Y-26798006D01*
X207537050Y-26802600D01*
X206514028Y-26802600D01*
X206531429Y-26786765D01*
X206579897Y-26741281D01*
X206632544Y-26690802D01*
X206685967Y-26638610D01*
X206736764Y-26587989D01*
X206781532Y-26542222D01*
X206816868Y-26504593D01*
X206833361Y-26485821D01*
X206855618Y-26451187D01*
X206868700Y-26418488D01*
X206877478Y-26382877D01*
X206838964Y-26411351D01*
X206813708Y-26433201D01*
X206800425Y-26450866D01*
X206799864Y-26453313D01*
X206790612Y-26468625D01*
X206767510Y-26493358D01*
X206747994Y-26511250D01*
X206712496Y-26542844D01*
X206668154Y-26583449D01*
X206624393Y-26624431D01*
X206623215Y-26625550D01*
X206541411Y-26702628D01*
X206474680Y-26763782D01*
X206420304Y-26811212D01*
X206375561Y-26847116D01*
X206337729Y-26873694D01*
X206304089Y-26893147D01*
X206276575Y-26905798D01*
X206251625Y-26920436D01*
X206241563Y-26934767D01*
X206231632Y-26950486D01*
X206207693Y-26971553D01*
X206178333Y-26991710D01*
X206152138Y-27004698D01*
X206143070Y-27006550D01*
X206123849Y-27015962D01*
X206118456Y-27022425D01*
X206101829Y-27039355D01*
X206072270Y-27062729D01*
X206037253Y-27087380D01*
X206004254Y-27108142D01*
X205980747Y-27119847D01*
X205976048Y-27120850D01*
X205962842Y-27129875D01*
X205962250Y-27133550D01*
X205952061Y-27145035D01*
X205944515Y-27146250D01*
X205925966Y-27155161D01*
X205899932Y-27177630D01*
X205888600Y-27189735D01*
X205856126Y-27221893D01*
X205822405Y-27248284D01*
X205814260Y-27253265D01*
X205783422Y-27272073D01*
X205743973Y-27298447D01*
X205701462Y-27328365D01*
X205661435Y-27357804D01*
X205629440Y-27382743D01*
X205611025Y-27399159D01*
X205608766Y-27402262D01*
X205594777Y-27412883D01*
X205593528Y-27412950D01*
X205577141Y-27419781D01*
X205548259Y-27436842D01*
X205514602Y-27458979D01*
X205483888Y-27481040D01*
X205463838Y-27497875D01*
X205460786Y-27501548D01*
X205444433Y-27512174D01*
X205419179Y-27520237D01*
X205389283Y-27533480D01*
X205353472Y-27558252D01*
X205337622Y-27572014D01*
X205308533Y-27597389D01*
X205286018Y-27613347D01*
X205278852Y-27616150D01*
X205261545Y-27624875D01*
X205251050Y-27635200D01*
X205226834Y-27651462D01*
X205212950Y-27654250D01*
X205186370Y-27663410D01*
X205174724Y-27673450D01*
X205155718Y-27689054D01*
X205121580Y-27711109D01*
X205082034Y-27733561D01*
X205034466Y-27761644D01*
X204989362Y-27792763D01*
X204962336Y-27814972D01*
X204926768Y-27843369D01*
X204890193Y-27865007D01*
X204880414Y-27869061D01*
X204847037Y-27883659D01*
X204804535Y-27906047D01*
X204779884Y-27920521D01*
X204739672Y-27943251D01*
X204703178Y-27960543D01*
X204686762Y-27966318D01*
X204654178Y-27980736D01*
X204634911Y-28001214D01*
X204634593Y-28021725D01*
X204634756Y-28021993D01*
X204655265Y-28034327D01*
X204684633Y-28030620D01*
X204713162Y-28012176D01*
X204713980Y-28011329D01*
X204742341Y-27991919D01*
X204779229Y-27978293D01*
X204780091Y-27978105D01*
X204822804Y-27964292D01*
X204862641Y-27944923D01*
X204897327Y-27928532D01*
X204928574Y-27921043D01*
X204930375Y-27920997D01*
X204952662Y-27915230D01*
X204958950Y-27905710D01*
X204963230Y-27897576D01*
X204974825Y-27906722D01*
X204979915Y-27918854D01*
X204971477Y-27935637D01*
X204946758Y-27961240D01*
X204927200Y-27978858D01*
X204887575Y-28009466D01*
X204848409Y-28032849D01*
X204822425Y-28042759D01*
X204794415Y-28050824D01*
X204781286Y-28059775D01*
X204781150Y-28060602D01*
X204770675Y-28070935D01*
X204743879Y-28087859D01*
X204707702Y-28107771D01*
X204669084Y-28127062D01*
X204634967Y-28142126D01*
X204612290Y-28149358D01*
X204609963Y-28149550D01*
X204591072Y-28159716D01*
X204586547Y-28167321D01*
X204570912Y-28182278D01*
X204540567Y-28197302D01*
X204531214Y-28200571D01*
X204488136Y-28215578D01*
X204447900Y-28231497D01*
X204444600Y-28232940D01*
X204412194Y-28245916D01*
X204366455Y-28262579D01*
X204325553Y-28276554D01*
X204281124Y-28293001D01*
X204244960Y-28309582D01*
X204226221Y-28321664D01*
X204198765Y-28337256D01*
X204182683Y-28340050D01*
X204155471Y-28345665D01*
X204119494Y-28359591D01*
X204110566Y-28363916D01*
X204069198Y-28382720D01*
X204019734Y-28402260D01*
X204000100Y-28409206D01*
X203885204Y-28448390D01*
X203783946Y-28483779D01*
X203698298Y-28514641D01*
X203630232Y-28540247D01*
X203581719Y-28559866D01*
X203554733Y-28572768D01*
X203550688Y-28575608D01*
X203539189Y-28599356D01*
X203205160Y-28599356D01*
X203198922Y-28595898D01*
X203194141Y-28587767D01*
X203205213Y-28575557D01*
X203233004Y-28558139D01*
X203270353Y-28538956D01*
X203310097Y-28521452D01*
X203345076Y-28509072D01*
X203365926Y-28505150D01*
X203393802Y-28498990D01*
X203405171Y-28491748D01*
X203424959Y-28477420D01*
X203456156Y-28459637D01*
X203461686Y-28456823D01*
X203492542Y-28436727D01*
X203500533Y-28419869D01*
X203485140Y-28408316D01*
X203474480Y-28405963D01*
X203451236Y-28409055D01*
X203415063Y-28420882D01*
X203372585Y-28438378D01*
X203330428Y-28458476D01*
X203295216Y-28478111D01*
X203273574Y-28494216D01*
X203269850Y-28500665D01*
X203260864Y-28511800D01*
X203240249Y-28509890D01*
X203217517Y-28495968D01*
X203216381Y-28494861D01*
X203190918Y-28481451D01*
X203178966Y-28479750D01*
X203157744Y-28470426D01*
X203124567Y-28445081D01*
X203083191Y-28407649D01*
X203037372Y-28362068D01*
X202990866Y-28312274D01*
X202947429Y-28262202D01*
X202910817Y-28215790D01*
X202884786Y-28176973D01*
X202878228Y-28164564D01*
X202864972Y-28134847D01*
X202855760Y-28108211D01*
X202855132Y-28105100D01*
X204438250Y-28105100D01*
X204444600Y-28111450D01*
X204450950Y-28105100D01*
X204444600Y-28098750D01*
X204438250Y-28105100D01*
X202855132Y-28105100D01*
X202849901Y-28079180D01*
X202849309Y-28072355D01*
X204508100Y-28072355D01*
X204561325Y-28072852D01*
X204595956Y-28070680D01*
X204618424Y-28064643D01*
X204621577Y-28061980D01*
X204621061Y-28048614D01*
X204602895Y-28043130D01*
X204573797Y-28046244D01*
X204549641Y-28054303D01*
X204508100Y-28072355D01*
X202849309Y-28072355D01*
X202846702Y-28042279D01*
X202845473Y-27992033D01*
X202845523Y-27922964D01*
X202845626Y-27906353D01*
X202846479Y-27831759D01*
X202848323Y-27777415D01*
X202851796Y-27738174D01*
X202857534Y-27708888D01*
X202866174Y-27684410D01*
X202875489Y-27665053D01*
X202897750Y-27626980D01*
X202920393Y-27595592D01*
X202928238Y-27587080D01*
X202946644Y-27563413D01*
X202952350Y-27546589D01*
X202960390Y-27526906D01*
X202980599Y-27498500D01*
X202990515Y-27487032D01*
X203016049Y-27455297D01*
X203033653Y-27426577D01*
X203036456Y-27419573D01*
X203048463Y-27394223D01*
X203069913Y-27359573D01*
X203081477Y-27343100D01*
X203118552Y-27290718D01*
X203158345Y-27231619D01*
X203194717Y-27175104D01*
X203219735Y-27133644D01*
X203238676Y-27104050D01*
X203264594Y-27067903D01*
X203292473Y-27031667D01*
X203317297Y-27001804D01*
X203334052Y-26984777D01*
X203336430Y-26983266D01*
X203345925Y-26968730D01*
X203346050Y-26966694D01*
X203352747Y-26950727D01*
X203370361Y-26920378D01*
X203395174Y-26882024D01*
X203396849Y-26879549D01*
X203422302Y-26838533D01*
X203440528Y-26802416D01*
X203447647Y-26778907D01*
X203447650Y-26778646D01*
X203455317Y-26757516D01*
X203466458Y-26752549D01*
X203482749Y-26741636D01*
X203493794Y-26717624D01*
X203508451Y-26680583D01*
X203525786Y-26652412D01*
X203542699Y-26625837D01*
X203549250Y-26606755D01*
X203557894Y-26587346D01*
X203574325Y-26568693D01*
X203597105Y-26540787D01*
X203607813Y-26519100D01*
X203621682Y-26491017D01*
X203644110Y-26458885D01*
X203646237Y-26456300D01*
X203666164Y-26428271D01*
X203676022Y-26406182D01*
X203676250Y-26403880D01*
X203685164Y-26382423D01*
X203694963Y-26371828D01*
X203710134Y-26349101D01*
X203721369Y-26315201D01*
X203721777Y-26313123D01*
X203729556Y-26284341D01*
X203738037Y-26270237D01*
X203739163Y-26269949D01*
X203750100Y-26259690D01*
X203766388Y-26233972D01*
X203768567Y-26229866D01*
X206981152Y-26229866D01*
X206983160Y-26239028D01*
X206996893Y-26254209D01*
X207013270Y-26248989D01*
X207021668Y-26233575D01*
X207195322Y-26233575D01*
X207196991Y-26268594D01*
X207211614Y-26310653D01*
X207228432Y-26339904D01*
X207271101Y-26408507D01*
X207308153Y-26479066D01*
X207336482Y-26544914D01*
X207352979Y-26599385D01*
X207355038Y-26611559D01*
X207366019Y-26660628D01*
X207383939Y-26703937D01*
X207405481Y-26735643D01*
X207427328Y-26749903D01*
X207433569Y-26749883D01*
X207453714Y-26735499D01*
X207458279Y-26724768D01*
X207455440Y-26701243D01*
X207443566Y-26666095D01*
X207435871Y-26648823D01*
X207421954Y-26614083D01*
X207419507Y-26593133D01*
X207422421Y-26589676D01*
X207435080Y-26573609D01*
X207435484Y-26542560D01*
X207424904Y-26503045D01*
X207404611Y-26461580D01*
X207394480Y-26446480D01*
X207364041Y-26404053D01*
X207328896Y-26353775D01*
X207306299Y-26320750D01*
X207270395Y-26268526D01*
X207245248Y-26234719D01*
X207228069Y-26216259D01*
X207216066Y-26210076D01*
X207207694Y-26212277D01*
X207195322Y-26233575D01*
X207021668Y-26233575D01*
X207025498Y-26226546D01*
X207027136Y-26218442D01*
X207039519Y-26188132D01*
X207062061Y-26159718D01*
X207082321Y-26133444D01*
X207091843Y-26106334D01*
X207089239Y-26085984D01*
X207076675Y-26079669D01*
X207052193Y-26091009D01*
X207025921Y-26119332D01*
X207002338Y-26157003D01*
X206985922Y-26196392D01*
X206981152Y-26229866D01*
X203768567Y-26229866D01*
X203772570Y-26222325D01*
X203794480Y-26183390D01*
X203823089Y-26137902D01*
X203838070Y-26115848D01*
X203860754Y-26081575D01*
X203875784Y-26055012D01*
X203879450Y-26044791D01*
X203887978Y-26027801D01*
X203903707Y-26010633D01*
X203925897Y-25981535D01*
X203935399Y-25959062D01*
X203946242Y-25932836D01*
X203966797Y-25894975D01*
X203987341Y-25861862D01*
X204010406Y-25825614D01*
X204026492Y-25797994D01*
X204031849Y-25785872D01*
X204038150Y-25770147D01*
X204054589Y-25739302D01*
X204077478Y-25699525D01*
X204103123Y-25657001D01*
X204127834Y-25617916D01*
X204147920Y-25588455D01*
X204155274Y-25579036D01*
X204175451Y-25552296D01*
X204200489Y-25514695D01*
X204212484Y-25495250D01*
X204241521Y-25452315D01*
X204278236Y-25405291D01*
X204299487Y-25380950D01*
X204334272Y-25341386D01*
X204375380Y-25291840D01*
X204414107Y-25242811D01*
X204415299Y-25241250D01*
X204484533Y-25154073D01*
X204524414Y-25107900D01*
X204971804Y-25107900D01*
X204982271Y-25154556D01*
X205009720Y-25201712D01*
X205042519Y-25234694D01*
X205079222Y-25249374D01*
X205128962Y-25252551D01*
X205182090Y-25244150D01*
X205206044Y-25235950D01*
X205240906Y-25215555D01*
X205279234Y-25184805D01*
X205294438Y-25169909D01*
X205334390Y-25112691D01*
X205351531Y-25052412D01*
X205345637Y-24993027D01*
X205340341Y-24983120D01*
X206371318Y-24983120D01*
X206373613Y-25066804D01*
X206389673Y-25133324D01*
X206408718Y-25179078D01*
X206434013Y-25226628D01*
X206461393Y-25269367D01*
X206486696Y-25300693D01*
X206503093Y-25313277D01*
X206521018Y-25329907D01*
X206527566Y-25343373D01*
X206545141Y-25366743D01*
X206559724Y-25374782D01*
X206589505Y-25390444D01*
X206604339Y-25402553D01*
X206626784Y-25415467D01*
X206665418Y-25429265D01*
X206706122Y-25439648D01*
X206758312Y-25448734D01*
X206800087Y-25449954D01*
X206845208Y-25443231D01*
X206865311Y-25438761D01*
X206925548Y-25420650D01*
X206970598Y-25395475D01*
X207010660Y-25357127D01*
X207020057Y-25346025D01*
X207045097Y-25323213D01*
X207070319Y-25320544D01*
X207101958Y-25338223D01*
X207115633Y-25349200D01*
X207145593Y-25369961D01*
X207171265Y-25380587D01*
X207174947Y-25380950D01*
X207196028Y-25391500D01*
X207202357Y-25403243D01*
X207219978Y-25425937D01*
X207256347Y-25446135D01*
X207304814Y-25461177D01*
X207358729Y-25468402D01*
X207365833Y-25468630D01*
X207407337Y-25466204D01*
X207448940Y-25455514D01*
X207499350Y-25433986D01*
X207523252Y-25422109D01*
X207571443Y-25396331D01*
X207603485Y-25374385D01*
X207626425Y-25349748D01*
X207647307Y-25315899D01*
X207656369Y-25298881D01*
X207679194Y-25250594D01*
X207690702Y-25209943D01*
X207694015Y-25163670D01*
X207693736Y-25140246D01*
X207685421Y-25064361D01*
X207665835Y-24982862D01*
X207659635Y-24963732D01*
X207641667Y-24912235D01*
X207629026Y-24880684D01*
X207618919Y-24864957D01*
X207608550Y-24860934D01*
X207595125Y-24864494D01*
X207592910Y-24865337D01*
X207582104Y-24872831D01*
X207576722Y-24888489D01*
X207576044Y-24917912D01*
X207579348Y-24966703D01*
X207579553Y-24969138D01*
X207585267Y-25019256D01*
X207592769Y-25061969D01*
X207600525Y-25088703D01*
X207601215Y-25090092D01*
X207608199Y-25118494D01*
X207604717Y-25161969D01*
X207600625Y-25183736D01*
X207587156Y-25230806D01*
X207565463Y-25267337D01*
X207531152Y-25302976D01*
X207463007Y-25350886D01*
X207390784Y-25374319D01*
X207316985Y-25373333D01*
X207244109Y-25347984D01*
X207174656Y-25298330D01*
X207170832Y-25294750D01*
X207118538Y-25250557D01*
X207073743Y-25223606D01*
X207043630Y-25215850D01*
X207030281Y-25223934D01*
X207004678Y-25244986D01*
X206976781Y-25270338D01*
X206910956Y-25320022D01*
X206841283Y-25346128D01*
X206762359Y-25350429D01*
X206739632Y-25348192D01*
X206695384Y-25339903D01*
X206657303Y-25324691D01*
X206615710Y-25298087D01*
X206591359Y-25279727D01*
X206550210Y-25246406D01*
X206521269Y-25217663D01*
X206498883Y-25185883D01*
X206477401Y-25143451D01*
X206459118Y-25101550D01*
X206442946Y-25034264D01*
X206446657Y-24963197D01*
X206467909Y-24902359D01*
X206482048Y-24864406D01*
X206482095Y-24834975D01*
X206470909Y-24818216D01*
X206451350Y-24818279D01*
X206426278Y-24839313D01*
X206425294Y-24840532D01*
X206388770Y-24905846D01*
X206371318Y-24983120D01*
X205340341Y-24983120D01*
X205316484Y-24938492D01*
X205308112Y-24928805D01*
X205288451Y-24910057D01*
X205267865Y-24899330D01*
X205238611Y-24894392D01*
X205192943Y-24893013D01*
X205183715Y-24892974D01*
X205125696Y-24895089D01*
X205085448Y-24902706D01*
X205056617Y-24916547D01*
X205035062Y-24936522D01*
X205036692Y-24950179D01*
X205059691Y-24955703D01*
X205092955Y-24952933D01*
X205137334Y-24955827D01*
X205168232Y-24978440D01*
X205182509Y-25017292D01*
X205181200Y-25050747D01*
X205177915Y-25084538D01*
X205184828Y-25103349D01*
X205199295Y-25113739D01*
X205222160Y-25134589D01*
X205221086Y-25155793D01*
X205196799Y-25171646D01*
X205191723Y-25173081D01*
X205161775Y-25174289D01*
X205136600Y-25156885D01*
X205131368Y-25151098D01*
X205100260Y-25123313D01*
X205070395Y-25105156D01*
X205039673Y-25079621D01*
X205025100Y-25043084D01*
X205029847Y-25005033D01*
X205034172Y-24996796D01*
X205043869Y-24972091D01*
X205034676Y-24962374D01*
X205017438Y-24965929D01*
X205001428Y-24983343D01*
X204986762Y-25018082D01*
X204976025Y-25062100D01*
X204971805Y-25107353D01*
X204971804Y-25107900D01*
X204524414Y-25107900D01*
X204558557Y-25068371D01*
X204641226Y-24980029D01*
X204736398Y-24884932D01*
X204847929Y-24778966D01*
X204853113Y-24774138D01*
X204931304Y-24703729D01*
X204999848Y-24647884D01*
X205065404Y-24601692D01*
X205134633Y-24560246D01*
X205167019Y-24542750D01*
X205206843Y-24519885D01*
X205240710Y-24497224D01*
X205252690Y-24487533D01*
X205277024Y-24469103D01*
X205293342Y-24461823D01*
X205316011Y-24452848D01*
X205350271Y-24433592D01*
X205387666Y-24409371D01*
X205419740Y-24385500D01*
X205431561Y-24374938D01*
X205456719Y-24357309D01*
X205474471Y-24352249D01*
X205498229Y-24344793D01*
X205526967Y-24326863D01*
X205526984Y-24326849D01*
X205555847Y-24308776D01*
X205579787Y-24301046D01*
X205606110Y-24293360D01*
X205623696Y-24282914D01*
X205651127Y-24269431D01*
X205665064Y-24265386D01*
X206889350Y-24265386D01*
X206899616Y-24286887D01*
X206924275Y-24306885D01*
X206950925Y-24321039D01*
X206965912Y-24324994D01*
X206980312Y-24319871D01*
X206991784Y-24313703D01*
X207011498Y-24291461D01*
X207016350Y-24271695D01*
X207013823Y-24254513D01*
X207001960Y-24245940D01*
X206974337Y-24243055D01*
X206952850Y-24242834D01*
X206914284Y-24244397D01*
X206895103Y-24250481D01*
X206889407Y-24263182D01*
X206889350Y-24265386D01*
X205665064Y-24265386D01*
X205689859Y-24258190D01*
X205699830Y-24256276D01*
X205746662Y-24244145D01*
X205791909Y-24226172D01*
X205796895Y-24223608D01*
X205838869Y-24207345D01*
X205882023Y-24199419D01*
X205885861Y-24199292D01*
X205927719Y-24194065D01*
X205973534Y-24181901D01*
X205981300Y-24179068D01*
X206039043Y-24159897D01*
X206117065Y-24138763D01*
X206210442Y-24116857D01*
X206314249Y-24095368D01*
X206375000Y-24083978D01*
X206431334Y-24072861D01*
X206477591Y-24061941D01*
X206508540Y-24052571D01*
X206518933Y-24046754D01*
X206531921Y-24036208D01*
X206550067Y-24036566D01*
X206559150Y-24047450D01*
X206570255Y-24056087D01*
X206597313Y-24060112D01*
X206600508Y-24060150D01*
X206642822Y-24063991D01*
X206686233Y-24073189D01*
X206713214Y-24077652D01*
X206760507Y-24081939D01*
X206823023Y-24085730D01*
X206895674Y-24088707D01*
X206960699Y-24090345D01*
X207046420Y-24092258D01*
X207110437Y-24094734D01*
X207156445Y-24098129D01*
X207188139Y-24102799D01*
X207209215Y-24109101D01*
X207220700Y-24115406D01*
X207252980Y-24131203D01*
X207278776Y-24136350D01*
X207304173Y-24140961D01*
X207314037Y-24147816D01*
X207328031Y-24158594D01*
X207358899Y-24177032D01*
X207400695Y-24199635D01*
X207413109Y-24206013D01*
X207457126Y-24229491D01*
X207492053Y-24250199D01*
X207511802Y-24264465D01*
X207513707Y-24266678D01*
X207532850Y-24280845D01*
X207542788Y-24283616D01*
X207566345Y-24292729D01*
X207604548Y-24313529D01*
X207651687Y-24342515D01*
X207702049Y-24376187D01*
X207746600Y-24408509D01*
X207802779Y-24456248D01*
X207868899Y-24520710D01*
X207940875Y-24597441D01*
X208014624Y-24681987D01*
X208086064Y-24769892D01*
X208126648Y-24823106D01*
X208166868Y-24879573D01*
X208191231Y-24921984D01*
X208200493Y-24955499D01*
X208195408Y-24985277D01*
X208176732Y-25016478D01*
X208158277Y-25039246D01*
X208127367Y-25090033D01*
X208119549Y-25126950D01*
X208117070Y-25173371D01*
X208114002Y-25215850D01*
X208120949Y-25262720D01*
X208145650Y-25312331D01*
X208182970Y-25356410D01*
X208216561Y-25381091D01*
X208267185Y-25402984D01*
X208315904Y-25413221D01*
X208355532Y-25410853D01*
X208373349Y-25401804D01*
X208411861Y-25378306D01*
X208450128Y-25373591D01*
X208480986Y-25388354D01*
X208483542Y-25391106D01*
X208507815Y-25418903D01*
X208534312Y-25448803D01*
X208557761Y-25483873D01*
X208571978Y-25520096D01*
X208580584Y-25546973D01*
X208589703Y-25558729D01*
X208590020Y-25558750D01*
X208601704Y-25568655D01*
X208620966Y-25593553D01*
X208643080Y-25626216D01*
X208663320Y-25659415D01*
X208676958Y-25685924D01*
X208680050Y-25696418D01*
X208689420Y-25714692D01*
X208695925Y-25720043D01*
X208714118Y-25740452D01*
X208740126Y-25782538D01*
X208772742Y-25844233D01*
X208794575Y-25888950D01*
X208812882Y-25926452D01*
X208828251Y-25956372D01*
X208833135Y-25965150D01*
X208844080Y-25985244D01*
X208862662Y-26020963D01*
X208885192Y-26065197D01*
X208889173Y-26073100D01*
X208912960Y-26119565D01*
X208944731Y-26180466D01*
X208980347Y-26247919D01*
X209015669Y-26314041D01*
X209015861Y-26314400D01*
X209049907Y-26377999D01*
X209083095Y-26440535D01*
X209111761Y-26495074D01*
X209132243Y-26534681D01*
X209133242Y-26536650D01*
X209154556Y-26575383D01*
X209173824Y-26604785D01*
X209184696Y-26616656D01*
X209198602Y-26636923D01*
X209200750Y-26649667D01*
X209206381Y-26670911D01*
X209220966Y-26705912D01*
X209241040Y-26747899D01*
X209263139Y-26790105D01*
X209283797Y-26825759D01*
X209299552Y-26848092D01*
X209304352Y-26852092D01*
X209314373Y-26864725D01*
X209332106Y-26895066D01*
X209354545Y-26937791D01*
X209367353Y-26963708D01*
X209403636Y-27049107D01*
X209427126Y-27132869D01*
X209437026Y-27188015D01*
X209446748Y-27250098D01*
X209456989Y-27312140D01*
X209465934Y-27363238D01*
X209468102Y-27374850D01*
X209479102Y-27450180D01*
X209485280Y-27531195D01*
X209486530Y-27610360D01*
X209482744Y-27680143D01*
X209473817Y-27733008D01*
X209473199Y-27735192D01*
X209464168Y-27772901D01*
X209461028Y-27800737D01*
X209462412Y-27808773D01*
X209462145Y-27827697D01*
X209457479Y-27835781D01*
X209448094Y-27856129D01*
X209436907Y-27892147D01*
X209429789Y-27920950D01*
X209415626Y-27975587D01*
X209397806Y-28032855D01*
X209390052Y-28054545D01*
X209376037Y-28097618D01*
X209367300Y-28136326D01*
X209365850Y-28151415D01*
X209358937Y-28182632D01*
X209346800Y-28200349D01*
X209330836Y-28218657D01*
X209327750Y-28227255D01*
X209318874Y-28241675D01*
X209294970Y-28268912D01*
X209260124Y-28305055D01*
X209218422Y-28346192D01*
X209173949Y-28388414D01*
X209130791Y-28427808D01*
X209093034Y-28460463D01*
X209064763Y-28482469D01*
X209054700Y-28488634D01*
X209014453Y-28508733D01*
X208978500Y-28527657D01*
X208943959Y-28541089D01*
X208905884Y-28548211D01*
X208871912Y-28548655D01*
X208849684Y-28542054D01*
X208845150Y-28534063D01*
X208836934Y-28519074D01*
X208831893Y-28517850D01*
X208821489Y-28527459D01*
X208821561Y-28533725D01*
X208816873Y-28557798D01*
X208800308Y-28589274D01*
X208777811Y-28619663D01*
X208755325Y-28640476D01*
X208743756Y-28644849D01*
X208717574Y-28633006D01*
X208694277Y-28600898D01*
X208677168Y-28553654D01*
X208673436Y-28535581D01*
X208661278Y-28492947D01*
X208642885Y-28454844D01*
X208640762Y-28451689D01*
X208623866Y-28423107D01*
X208616383Y-28401427D01*
X208616365Y-28400889D01*
X208611640Y-28376762D01*
X208599855Y-28338330D01*
X208584125Y-28294563D01*
X208567561Y-28254429D01*
X208560164Y-28238962D01*
X208542647Y-28198953D01*
X208527143Y-28153745D01*
X208517030Y-28114000D01*
X208514950Y-28096386D01*
X208507510Y-28072919D01*
X208490311Y-28045452D01*
X208471717Y-28015562D01*
X208451031Y-27973266D01*
X208439901Y-27946305D01*
X208424079Y-27908030D01*
X208410239Y-27880294D01*
X208403528Y-27871140D01*
X208391920Y-27856292D01*
X208374311Y-27826778D01*
X208364269Y-27807958D01*
X208334770Y-27759002D01*
X208291938Y-27698893D01*
X208240782Y-27634048D01*
X208186307Y-27570887D01*
X208146122Y-27528317D01*
X208107935Y-27486313D01*
X208065929Y-27434901D01*
X208033487Y-27391196D01*
X207994967Y-27340999D01*
X207957871Y-27301748D01*
X207926026Y-27276962D01*
X207903256Y-27270159D01*
X207902175Y-27270425D01*
X207894197Y-27262512D01*
X207892650Y-27250672D01*
X207883573Y-27224894D01*
X207869874Y-27208594D01*
X207838859Y-27184255D01*
X207822066Y-27177525D01*
X207816504Y-27187335D01*
X207816449Y-27189512D01*
X207818778Y-27200963D01*
X207827712Y-27216437D01*
X207846173Y-27239691D01*
X207877082Y-27274482D01*
X207912060Y-27312415D01*
X207927327Y-27335140D01*
X207930750Y-27347340D01*
X207939089Y-27361317D01*
X207943191Y-27362150D01*
X207956036Y-27372465D01*
X207973686Y-27398422D01*
X207980874Y-27411625D01*
X208000432Y-27446547D01*
X208018445Y-27473329D01*
X208022689Y-27478300D01*
X208041804Y-27502172D01*
X208069364Y-27541462D01*
X208101093Y-27589601D01*
X208132713Y-27640021D01*
X208159950Y-27686153D01*
X208170318Y-27705050D01*
X208190944Y-27742265D01*
X208209118Y-27772102D01*
X208215533Y-27781250D01*
X208227074Y-27800006D01*
X208246734Y-27836066D01*
X208271555Y-27883874D01*
X208293361Y-27927300D01*
X208319142Y-27978855D01*
X208341004Y-28021550D01*
X208356410Y-28050494D01*
X208362550Y-28060650D01*
X208371565Y-28074661D01*
X208387867Y-28103785D01*
X208400384Y-28127325D01*
X208419358Y-28160926D01*
X208434478Y-28182827D01*
X208440282Y-28187650D01*
X208449435Y-28198316D01*
X208456064Y-28217007D01*
X208469352Y-28246579D01*
X208491895Y-28279421D01*
X208494426Y-28282434D01*
X208520503Y-28316631D01*
X208541224Y-28350070D01*
X208541952Y-28351502D01*
X208561547Y-28386712D01*
X208582552Y-28420156D01*
X208596706Y-28446177D01*
X208599490Y-28462653D01*
X208598840Y-28463592D01*
X208599350Y-28478509D01*
X208610940Y-28501712D01*
X208624460Y-28532699D01*
X208626859Y-28556699D01*
X208623186Y-28570042D01*
X208614090Y-28573366D01*
X208593713Y-28566044D01*
X208560422Y-28549598D01*
X208509899Y-28526529D01*
X208478443Y-28518598D01*
X208464895Y-28525576D01*
X208464150Y-28530550D01*
X208474436Y-28541817D01*
X208483200Y-28543250D01*
X208499166Y-28553678D01*
X208502250Y-28566108D01*
X208509384Y-28587205D01*
X208528166Y-28621287D01*
X208554660Y-28661284D01*
X208556999Y-28664533D01*
X208585319Y-28705140D01*
X208608031Y-28740482D01*
X208620445Y-28763239D01*
X208620741Y-28763993D01*
X208624301Y-28779360D01*
X208626800Y-28805363D01*
X208628264Y-28844523D01*
X208628717Y-28899364D01*
X208628185Y-28972406D01*
X208626692Y-29066173D01*
X208624694Y-29163705D01*
X208623963Y-29231288D01*
X208624642Y-29293743D01*
X208626571Y-29344571D01*
X208629589Y-29377271D01*
X208630005Y-29379605D01*
X208639029Y-29425900D01*
X208642336Y-29381450D01*
X208644605Y-29373939D01*
X208648126Y-29388680D01*
X208652362Y-29422589D01*
X208655596Y-29457650D01*
X208663318Y-29546236D01*
X208670632Y-29617388D01*
X208678492Y-29679033D01*
X208687849Y-29739099D01*
X208692992Y-29768800D01*
X208712280Y-29879313D01*
X208727284Y-29969299D01*
X208737483Y-30035500D01*
X208770850Y-30219091D01*
X208805902Y-30365700D01*
X208814802Y-30410106D01*
X208819321Y-30452618D01*
X208819447Y-30457775D01*
X208816867Y-30486421D01*
X208804671Y-30497572D01*
X208788000Y-30499050D01*
X208764124Y-30495226D01*
X208756250Y-30487890D01*
X208745373Y-30473602D01*
X208719923Y-30461137D01*
X208690668Y-30454030D01*
X208668377Y-30455815D01*
X208665210Y-30458009D01*
X208657842Y-30477152D01*
X208674073Y-30497552D01*
X208709164Y-30517742D01*
X208749041Y-30540542D01*
X208783908Y-30565707D01*
X208815670Y-30591960D01*
X208853850Y-30622932D01*
X208865668Y-30632400D01*
X208924581Y-30681523D01*
X208964008Y-30719222D01*
X208983099Y-30744648D01*
X208984850Y-30751249D01*
X208995106Y-30764102D01*
X209003900Y-30765750D01*
X209020807Y-30772126D01*
X209022950Y-30777542D01*
X209031072Y-30794905D01*
X209044301Y-30810687D01*
X209062033Y-30832613D01*
X209085345Y-30866698D01*
X209109989Y-30905980D01*
X209131717Y-30943496D01*
X209146282Y-30972283D01*
X209149950Y-30983847D01*
X209155426Y-31001707D01*
X209169102Y-31031910D01*
X209174568Y-31042633D01*
X209190258Y-31083976D01*
X209203267Y-31140419D01*
X209213509Y-31207880D01*
X209220897Y-31282279D01*
X209225344Y-31359534D01*
X209226762Y-31435565D01*
X209225064Y-31506290D01*
X209220164Y-31567629D01*
X209211973Y-31615499D01*
X209200405Y-31645821D01*
X209187640Y-31654750D01*
X209178187Y-31665838D01*
X209169400Y-31693093D01*
X209168245Y-31698756D01*
X209159623Y-31727058D01*
X209149042Y-31739988D01*
X209147202Y-31740031D01*
X209133424Y-31747986D01*
X209112187Y-31770558D01*
X209088868Y-31800520D01*
X209068846Y-31830643D01*
X209057501Y-31853700D01*
X209057090Y-31861125D01*
X209052903Y-31870021D01*
X209048122Y-31870650D01*
X209029924Y-31879446D01*
X209004323Y-31900677D01*
X208979173Y-31926608D01*
X208962329Y-31949501D01*
X208959450Y-31957995D01*
X208951205Y-31975287D01*
X208931226Y-31999304D01*
X208929853Y-32000691D01*
X208908130Y-32028345D01*
X208879895Y-32072289D01*
X208848948Y-32125603D01*
X208819088Y-32181363D01*
X208794115Y-32232647D01*
X208777828Y-32272534D01*
X208774676Y-32283400D01*
X208761181Y-32323179D01*
X208746113Y-32353100D01*
X208735396Y-32382178D01*
X208727156Y-32426486D01*
X208721940Y-32477966D01*
X208720298Y-32528554D01*
X208722779Y-32570189D01*
X208729677Y-32594443D01*
X208745420Y-32606305D01*
X208759253Y-32594317D01*
X208770388Y-32560005D01*
X208778036Y-32504892D01*
X208778434Y-32500129D01*
X208783402Y-32456392D01*
X208789842Y-32423639D01*
X208796116Y-32409308D01*
X208804978Y-32392572D01*
X208807241Y-32374725D01*
X208812053Y-32339997D01*
X208826877Y-32294259D01*
X208852916Y-32234580D01*
X208891373Y-32158028D01*
X208912510Y-32118300D01*
X208929143Y-32081455D01*
X208939499Y-32048450D01*
X208952737Y-32016404D01*
X208974936Y-31984950D01*
X208998036Y-31958585D01*
X209029878Y-31920943D01*
X209060958Y-31883350D01*
X209092835Y-31845794D01*
X209121399Y-31814694D01*
X209140325Y-31796904D01*
X209158386Y-31776962D01*
X209162650Y-31764568D01*
X209172582Y-31751038D01*
X209199220Y-31727829D01*
X209237826Y-31698874D01*
X209261075Y-31682842D01*
X209308486Y-31650893D01*
X209351210Y-31621811D01*
X209382448Y-31600234D01*
X209390503Y-31594529D01*
X209411679Y-31583441D01*
X209441579Y-31576570D01*
X209485870Y-31573097D01*
X209545024Y-31572200D01*
X209603050Y-31572707D01*
X209641817Y-31575050D01*
X209667456Y-31580457D01*
X209686101Y-31590158D01*
X209702084Y-31603683D01*
X209742828Y-31654796D01*
X209777307Y-31722006D01*
X209801760Y-31796133D01*
X209812428Y-31867996D01*
X209812574Y-31873430D01*
X209810498Y-31949323D01*
X209801612Y-32003454D01*
X209786162Y-32034655D01*
X209777018Y-32040949D01*
X209764213Y-32053155D01*
X209765302Y-32060182D01*
X209763763Y-32076575D01*
X209759757Y-32080071D01*
X209748330Y-32098352D01*
X209746694Y-32109524D01*
X209741495Y-32131370D01*
X209728073Y-32168928D01*
X209709444Y-32215132D01*
X209688623Y-32262915D01*
X209668626Y-32305209D01*
X209652466Y-32334948D01*
X209647481Y-32342077D01*
X209594952Y-32408452D01*
X209561387Y-32458215D01*
X209556221Y-32467550D01*
X209535120Y-32497815D01*
X209516234Y-32515895D01*
X209497494Y-32536246D01*
X209492850Y-32549964D01*
X209482283Y-32567489D01*
X209467496Y-32575485D01*
X209446385Y-32589064D01*
X209416576Y-32616453D01*
X209388259Y-32647435D01*
X209355020Y-32683629D01*
X209322952Y-32713276D01*
X209302487Y-32727844D01*
X209280303Y-32743309D01*
X209245395Y-32772142D01*
X209203068Y-32809818D01*
X209169914Y-32840899D01*
X209127681Y-32880057D01*
X209091021Y-32911584D01*
X209064351Y-32931829D01*
X209053070Y-32937450D01*
X209032549Y-32947031D01*
X209026756Y-32954008D01*
X209001491Y-32979934D01*
X208958932Y-33008727D01*
X208906267Y-33036481D01*
X208850682Y-33059290D01*
X208812268Y-33070602D01*
X208718156Y-33086370D01*
X208639971Y-33085263D01*
X208574020Y-33066537D01*
X208516612Y-33029450D01*
X208492211Y-33006182D01*
X208468645Y-32985120D01*
X208450950Y-32975597D01*
X208450186Y-32975550D01*
X208443080Y-32967739D01*
X208445100Y-32962850D01*
X208445228Y-32951098D01*
X208441475Y-32950150D01*
X208426835Y-32942433D01*
X208398911Y-32922091D01*
X208363437Y-32893332D01*
X208359307Y-32889825D01*
X208315200Y-32854101D01*
X208269992Y-32820517D01*
X208236681Y-32798371D01*
X208206099Y-32777484D01*
X208187382Y-32759777D01*
X208184643Y-32753921D01*
X208174261Y-32741221D01*
X208147444Y-32721875D01*
X208117968Y-32704520D01*
X208032031Y-32658117D01*
X207965522Y-32622664D01*
X207915670Y-32596764D01*
X207879707Y-32579022D01*
X207854862Y-32568043D01*
X207838364Y-32562430D01*
X207834051Y-32561475D01*
X207807837Y-32553762D01*
X207768690Y-32539067D01*
X207738801Y-32526523D01*
X207699228Y-32511745D01*
X207654679Y-32501166D01*
X207598503Y-32493614D01*
X207524049Y-32487914D01*
X207518000Y-32487555D01*
X207439153Y-32481977D01*
X207351396Y-32474243D01*
X207267953Y-32465578D01*
X207225900Y-32460499D01*
X207156435Y-32452001D01*
X207095994Y-32446279D01*
X207040043Y-32443574D01*
X206984048Y-32444132D01*
X206923476Y-32448193D01*
X206853792Y-32456002D01*
X206770463Y-32467802D01*
X206668955Y-32483835D01*
X206609950Y-32493518D01*
X206528287Y-32508228D01*
X206445568Y-32525271D01*
X206366279Y-32543510D01*
X206294903Y-32561807D01*
X206235925Y-32579025D01*
X206193831Y-32594025D01*
X206175088Y-32603849D01*
X206151105Y-32616179D01*
X206124175Y-32624790D01*
X206097828Y-32637691D01*
X206089250Y-32653603D01*
X206094128Y-32666521D01*
X206112916Y-32669458D01*
X206136875Y-32666612D01*
X206163069Y-32664049D01*
X206168929Y-32667170D01*
X206165450Y-32669601D01*
X206141573Y-32677621D01*
X206104326Y-32685305D01*
X206089250Y-32687540D01*
X206057358Y-32690544D01*
X206050166Y-32687950D01*
X206057500Y-32683781D01*
X206071186Y-32676118D01*
X206063688Y-32672649D01*
X206042343Y-32671642D01*
X206009285Y-32676666D01*
X205986139Y-32698016D01*
X205979564Y-32708368D01*
X205961051Y-32732950D01*
X205945818Y-32735716D01*
X205941557Y-32732887D01*
X205920085Y-32728181D01*
X205894136Y-32736048D01*
X205875847Y-32751644D01*
X205873350Y-32760096D01*
X205863250Y-32771373D01*
X205856791Y-32772350D01*
X205838135Y-32781255D01*
X205811653Y-32803045D01*
X205784767Y-32830329D01*
X205764901Y-32855716D01*
X205759050Y-32869666D01*
X205751793Y-32888452D01*
X205734338Y-32914640D01*
X205734257Y-32914743D01*
X205714756Y-32946748D01*
X205693439Y-32992164D01*
X205675123Y-33039884D01*
X205665774Y-33072693D01*
X205655557Y-33095033D01*
X205648986Y-33104443D01*
X205635125Y-33127293D01*
X205617612Y-33163036D01*
X205600257Y-33202901D01*
X205586869Y-33238119D01*
X205581258Y-33259920D01*
X205581250Y-33260375D01*
X205575704Y-33276914D01*
X205560603Y-33310962D01*
X205538246Y-33357566D01*
X205510935Y-33411772D01*
X205510711Y-33412205D01*
X205480201Y-33472986D01*
X205461086Y-33515500D01*
X205452034Y-33543460D01*
X205451714Y-33560580D01*
X205455116Y-33567144D01*
X205480776Y-33583883D01*
X205512125Y-33577943D01*
X205550250Y-33548875D01*
X205581250Y-33514889D01*
X205617826Y-33473590D01*
X205643884Y-33452096D01*
X205662819Y-33448966D01*
X205678027Y-33462757D01*
X205683233Y-33471566D01*
X205693170Y-33507085D01*
X205697746Y-33562875D01*
X205697485Y-33634500D01*
X205692915Y-33717521D01*
X205684560Y-33807503D01*
X205672947Y-33900008D01*
X205658601Y-33990599D01*
X205642049Y-34074839D01*
X205623815Y-34148290D01*
X205604426Y-34206517D01*
X205593261Y-34230818D01*
X205577400Y-34265763D01*
X205568968Y-34294775D01*
X205568550Y-34299735D01*
X205559268Y-34322860D01*
X205549500Y-34329857D01*
X205533429Y-34347178D01*
X205530450Y-34361172D01*
X205519302Y-34395091D01*
X205489264Y-34433290D01*
X205445443Y-34471726D01*
X205392946Y-34506357D01*
X205336881Y-34533139D01*
X205298130Y-34545078D01*
X205258091Y-34551005D01*
X205207030Y-34554429D01*
X205153730Y-34555243D01*
X205106974Y-34553341D01*
X205075544Y-34548616D01*
X205073084Y-34547805D01*
X205027329Y-34519023D01*
X204982165Y-34469108D01*
X204939498Y-34402291D01*
X204901232Y-34322803D01*
X204869273Y-34234876D01*
X204845526Y-34142743D01*
X204831897Y-34050635D01*
X204829489Y-34006776D01*
X204830096Y-33929062D01*
X204834644Y-33853594D01*
X204842463Y-33785389D01*
X204852881Y-33729469D01*
X204865229Y-33690850D01*
X204873429Y-33677928D01*
X204889398Y-33665022D01*
X204903831Y-33667088D01*
X204926098Y-33685717D01*
X204927607Y-33687132D01*
X204950770Y-33706238D01*
X204964438Y-33707950D01*
X204972588Y-33699117D01*
X204980035Y-33668104D01*
X204974117Y-33626869D01*
X204957040Y-33585258D01*
X204942364Y-33564217D01*
X204891964Y-33523196D01*
X204823708Y-33493046D01*
X204752688Y-33477625D01*
X204705809Y-33469245D01*
X204663039Y-33457496D01*
X204647800Y-33451539D01*
X204613099Y-33440028D01*
X204566233Y-33430089D01*
X204537961Y-33426168D01*
X204479618Y-33414607D01*
X204444868Y-33394915D01*
X204443918Y-33393896D01*
X204416921Y-33374747D01*
X204395006Y-33368960D01*
X204355182Y-33359996D01*
X204300690Y-33335357D01*
X204234759Y-33297393D01*
X204160615Y-33248455D01*
X204081487Y-33190894D01*
X204000602Y-33127061D01*
X203921186Y-33059308D01*
X203846468Y-32989983D01*
X203779675Y-32921439D01*
X203777781Y-32919369D01*
X203740283Y-32878901D01*
X203694240Y-32830072D01*
X203648882Y-32782662D01*
X203643759Y-32777362D01*
X203606684Y-32737181D01*
X203575547Y-32700002D01*
X203555608Y-32672218D01*
X203552483Y-32666425D01*
X203536656Y-32638538D01*
X203511612Y-32601130D01*
X203494016Y-32577147D01*
X203467752Y-32538233D01*
X203448184Y-32501044D01*
X203441949Y-32483207D01*
X203427557Y-32450067D01*
X203409082Y-32429113D01*
X203389491Y-32406619D01*
X203384150Y-32389295D01*
X203378203Y-32366563D01*
X203372548Y-32360279D01*
X203360632Y-32345419D01*
X203343266Y-32315606D01*
X203333315Y-32296029D01*
X203315156Y-32263183D01*
X203299403Y-32242549D01*
X203293367Y-32238950D01*
X203286598Y-32231222D01*
X203288369Y-32227107D01*
X203287430Y-32210103D01*
X203277653Y-32177716D01*
X203263719Y-32142977D01*
X203246906Y-32103248D01*
X203235326Y-32072614D01*
X203231750Y-32059317D01*
X203225601Y-32042299D01*
X203210157Y-32013075D01*
X203202731Y-32000572D01*
X203183051Y-31959270D01*
X203171014Y-31916917D01*
X203169969Y-31908750D01*
X203162761Y-31870476D01*
X203150536Y-31839552D01*
X203150131Y-31838900D01*
X203141563Y-31815657D01*
X203131789Y-31774126D01*
X203122319Y-31721271D01*
X203117721Y-31689391D01*
X203109828Y-31636037D01*
X203101780Y-31592830D01*
X203094740Y-31565520D01*
X203091374Y-31559082D01*
X203085321Y-31544196D01*
X203078648Y-31510825D01*
X203072304Y-31465833D01*
X203067237Y-31416088D01*
X203064397Y-31368455D01*
X203064238Y-31362650D01*
X203061974Y-31335595D01*
X203056593Y-31291666D01*
X203049126Y-31239049D01*
X203046658Y-31222950D01*
X203040568Y-31168349D01*
X203035683Y-31093527D01*
X203032037Y-31003636D01*
X203029669Y-30903828D01*
X203028615Y-30799256D01*
X203028912Y-30695072D01*
X203030597Y-30596428D01*
X203033705Y-30508475D01*
X203034705Y-30492700D01*
X207651350Y-30492700D01*
X207657700Y-30499050D01*
X207664050Y-30492700D01*
X207657700Y-30486350D01*
X207651350Y-30492700D01*
X203034705Y-30492700D01*
X203038275Y-30436367D01*
X203040854Y-30410150D01*
G37*
G36*
X205624655Y-34447195D02*
G01*
X205623034Y-34461432D01*
X205614590Y-34483442D01*
X205608278Y-34483160D01*
X205606650Y-34468549D01*
X205613624Y-34447429D01*
X205618165Y-34443131D01*
X205624655Y-34447195D01*
G37*
G36*
X205653465Y-34406153D02*
G01*
X205651100Y-34410650D01*
X205639133Y-34422778D01*
X205636900Y-34423350D01*
X205636034Y-34415146D01*
X205638400Y-34410650D01*
X205650366Y-34398521D01*
X205652599Y-34397950D01*
X205653465Y-34406153D01*
G37*
G36*
X206760631Y-23920702D02*
G01*
X206823065Y-23921629D01*
X206866478Y-23923485D01*
X206894058Y-23926524D01*
X206908994Y-23931001D01*
X206914473Y-23937170D01*
X206914750Y-23939500D01*
X206919557Y-23949305D01*
X206936995Y-23955175D01*
X206971581Y-23957963D01*
X207015600Y-23958550D01*
X207063880Y-23960046D01*
X207101758Y-23964017D01*
X207122562Y-23969683D01*
X207124299Y-23971250D01*
X207142448Y-23982449D01*
X207153624Y-23984028D01*
X207179807Y-23989765D01*
X207211476Y-24003078D01*
X207248424Y-24014534D01*
X207301765Y-24021055D01*
X207334418Y-24022050D01*
X207380589Y-24022802D01*
X207407186Y-24026204D01*
X207420015Y-24033969D01*
X207424885Y-24047813D01*
X207425041Y-24048810D01*
X207437783Y-24070742D01*
X207471034Y-24089216D01*
X207486250Y-24094731D01*
X207521312Y-24107976D01*
X207544957Y-24119678D01*
X207549750Y-24123648D01*
X207566900Y-24138126D01*
X207597841Y-24156700D01*
X207632716Y-24174204D01*
X207661665Y-24185470D01*
X207670910Y-24187149D01*
X207692860Y-24196099D01*
X207711446Y-24212549D01*
X207733583Y-24231790D01*
X207749422Y-24237949D01*
X207764428Y-24245626D01*
X207765650Y-24250323D01*
X207775699Y-24264426D01*
X207799936Y-24281253D01*
X207800575Y-24281600D01*
X207825896Y-24299013D01*
X207862591Y-24328736D01*
X207903946Y-24365248D01*
X207916763Y-24377177D01*
X207955180Y-24411680D01*
X207988145Y-24438128D01*
X208010417Y-24452439D01*
X208015188Y-24453850D01*
X208030819Y-24462659D01*
X208032350Y-24468823D01*
X208040834Y-24486098D01*
X208062218Y-24512109D01*
X208073625Y-24523730D01*
X208104192Y-24557246D01*
X208138666Y-24600730D01*
X208159350Y-24629775D01*
X208189148Y-24672453D01*
X208218934Y-24712521D01*
X208235550Y-24733258D01*
X208292819Y-24801864D01*
X208336289Y-24856860D01*
X208369701Y-24903012D01*
X208375250Y-24911217D01*
X208399688Y-24946311D01*
X208432320Y-24991295D01*
X208463534Y-25033056D01*
X208497233Y-25079855D01*
X208529132Y-25128287D01*
X208550227Y-25164114D01*
X208575889Y-25208481D01*
X208606666Y-25252887D01*
X208648405Y-25305652D01*
X208657085Y-25316141D01*
X208669628Y-25335916D01*
X208688865Y-25371404D01*
X208710830Y-25415261D01*
X208712829Y-25419416D01*
X208734514Y-25462072D01*
X208753746Y-25495364D01*
X208766744Y-25512810D01*
X208767734Y-25513549D01*
X208779345Y-25532113D01*
X208781650Y-25547430D01*
X208787341Y-25574615D01*
X208801106Y-25609906D01*
X208817981Y-25642273D01*
X208832483Y-25660350D01*
X208842102Y-25674176D01*
X208858982Y-25704784D01*
X208879698Y-25745916D01*
X208882474Y-25751668D01*
X208904873Y-25795372D01*
X208925619Y-25830826D01*
X208940502Y-25850882D01*
X208941362Y-25851648D01*
X208956790Y-25869867D01*
X208959450Y-25877948D01*
X208966021Y-25893522D01*
X208983260Y-25923568D01*
X209007454Y-25961620D01*
X209007784Y-25962118D01*
X209046318Y-26023212D01*
X209078149Y-26081746D01*
X209109668Y-26149710D01*
X209117722Y-26168350D01*
X209139425Y-26213905D01*
X209161021Y-26250739D01*
X209176642Y-26269950D01*
X209184852Y-26283052D01*
X209201988Y-26314425D01*
X209225805Y-26359642D01*
X209254056Y-26414274D01*
X209284498Y-26473895D01*
X209314885Y-26534079D01*
X209342973Y-26590398D01*
X209366516Y-26638426D01*
X209383268Y-26673735D01*
X209390987Y-26691899D01*
X209391250Y-26693131D01*
X209397458Y-26708596D01*
X209413075Y-26736730D01*
X209420958Y-26749627D01*
X209439647Y-26784255D01*
X209462335Y-26833416D01*
X209486732Y-26891212D01*
X209510548Y-26951745D01*
X209531493Y-27009120D01*
X209547278Y-27057438D01*
X209555612Y-27090802D01*
X209556350Y-27098302D01*
X209561753Y-27127672D01*
X209570046Y-27142166D01*
X209578228Y-27161502D01*
X209587240Y-27200917D01*
X209596396Y-27255136D01*
X209605009Y-27318883D01*
X209612393Y-27386883D01*
X209617861Y-27453861D01*
X209620726Y-27514540D01*
X209620988Y-27533600D01*
X209615877Y-27641816D01*
X209600572Y-27736506D01*
X209580923Y-27800300D01*
X209568009Y-27839103D01*
X209556659Y-27883796D01*
X209555553Y-27889200D01*
X209545973Y-27927913D01*
X209530344Y-27980772D01*
X209510901Y-28041215D01*
X209489878Y-28102684D01*
X209469510Y-28158620D01*
X209452034Y-28202462D01*
X209440869Y-28225750D01*
X209428457Y-28247776D01*
X209409638Y-28282287D01*
X209399085Y-28301950D01*
X209375601Y-28340813D01*
X209351252Y-28373406D01*
X209341822Y-28383293D01*
X209322085Y-28405524D01*
X209314755Y-28421393D01*
X209304758Y-28442778D01*
X209278079Y-28475284D01*
X209238755Y-28515339D01*
X209190823Y-28559374D01*
X209138321Y-28603817D01*
X209085286Y-28645096D01*
X209035755Y-28679640D01*
X208997495Y-28702027D01*
X208957642Y-28723469D01*
X208924598Y-28743410D01*
X208911568Y-28752703D01*
X208888483Y-28770709D01*
X208854521Y-28795926D01*
X208835625Y-28809589D01*
X208802282Y-28836438D01*
X208786107Y-28859786D01*
X208781662Y-28887714D01*
X208781650Y-28889844D01*
X208777365Y-28924912D01*
X208766320Y-28971460D01*
X208755775Y-29005096D01*
X208737075Y-29087120D01*
X208732497Y-29179259D01*
X208742040Y-29270518D01*
X208755862Y-29324300D01*
X208766469Y-29368265D01*
X208775002Y-29426200D01*
X208779840Y-29486680D01*
X208780160Y-29495750D01*
X208785786Y-29590324D01*
X208796882Y-29691244D01*
X208812311Y-29791790D01*
X208830936Y-29885241D01*
X208851619Y-29964878D01*
X208867231Y-30010100D01*
X208880246Y-30048322D01*
X208896067Y-30103646D01*
X208912572Y-30168254D01*
X208925850Y-30226000D01*
X208942425Y-30295113D01*
X208963499Y-30371973D01*
X208987506Y-30451912D01*
X209012883Y-30530263D01*
X209038065Y-30602356D01*
X209061487Y-30663525D01*
X209081585Y-30709101D01*
X209095905Y-30733382D01*
X209117834Y-30759101D01*
X209147017Y-30792310D01*
X209157335Y-30803850D01*
X209198384Y-30858778D01*
X209242047Y-30935553D01*
X209288530Y-31034167D01*
X209305338Y-31087547D01*
X209317394Y-31156838D01*
X209321387Y-31199267D01*
X209326515Y-31272067D01*
X209331435Y-31323284D01*
X209337305Y-31356699D01*
X209345281Y-31376092D01*
X209356518Y-31385243D01*
X209372173Y-31387934D01*
X209379125Y-31388050D01*
X209407796Y-31382817D01*
X209416650Y-31370798D01*
X209424789Y-31360424D01*
X209451507Y-31354463D01*
X209496025Y-31352172D01*
X209552216Y-31352398D01*
X209588249Y-31356770D01*
X209609272Y-31367305D01*
X209620437Y-31386018D01*
X209624647Y-31402512D01*
X209632813Y-31429167D01*
X209647131Y-31436537D01*
X209664259Y-31433644D01*
X209687723Y-31431538D01*
X209696050Y-31437231D01*
X209706794Y-31448680D01*
X209726917Y-31456543D01*
X209763287Y-31474768D01*
X209804161Y-31508908D01*
X209842726Y-31552138D01*
X209872168Y-31597632D01*
X209876227Y-31606101D01*
X209896986Y-31668236D01*
X209912490Y-31745768D01*
X209921349Y-31828987D01*
X209922175Y-31908187D01*
X209921350Y-31921450D01*
X209915078Y-31968967D01*
X209903727Y-32024938D01*
X209889184Y-32082465D01*
X209873335Y-32134647D01*
X209858067Y-32174586D01*
X209846853Y-32193864D01*
X209837098Y-32216226D01*
X209835750Y-32228386D01*
X209829621Y-32253448D01*
X209813259Y-32294141D01*
X209789701Y-32344437D01*
X209761982Y-32398306D01*
X209733139Y-32449722D01*
X209706209Y-32492657D01*
X209694302Y-32509199D01*
X209659558Y-32552903D01*
X209621131Y-32599420D01*
X209607806Y-32615056D01*
X209574662Y-32653867D01*
X209542440Y-32692243D01*
X209530496Y-32706718D01*
X209507801Y-32730921D01*
X209470990Y-32766294D01*
X209425479Y-32807761D01*
X209384446Y-32843624D01*
X209326871Y-32893338D01*
X209264562Y-32947789D01*
X209206785Y-32998855D01*
X209177977Y-33024644D01*
X209130102Y-33066842D01*
X209090273Y-33098592D01*
X209051169Y-33124626D01*
X209005463Y-33149675D01*
X208945832Y-33178470D01*
X208924575Y-33188341D01*
X208847175Y-33217060D01*
X208775464Y-33226642D01*
X208701124Y-33217335D01*
X208635600Y-33196987D01*
X208567188Y-33171518D01*
X208518964Y-33153151D01*
X208487261Y-33140265D01*
X208468413Y-33131234D01*
X208458755Y-33124435D01*
X208454618Y-33118246D01*
X208454011Y-33116583D01*
X208439017Y-33103755D01*
X208431341Y-33102550D01*
X208415131Y-33095343D01*
X208413350Y-33089850D01*
X208404108Y-33077514D01*
X208401227Y-33077150D01*
X208383297Y-33068106D01*
X208358580Y-33046261D01*
X208334968Y-33019545D01*
X208320351Y-32995886D01*
X208320343Y-32995868D01*
X208302638Y-32978931D01*
X208287604Y-32975550D01*
X208263866Y-32964859D01*
X208254600Y-32950150D01*
X208240487Y-32929556D01*
X208228344Y-32924750D01*
X208213951Y-32913677D01*
X208210150Y-32892829D01*
X208210150Y-32860909D01*
X208257775Y-32880736D01*
X208289119Y-32896624D01*
X208308417Y-32911725D01*
X208310451Y-32915110D01*
X208322412Y-32933672D01*
X208344381Y-32958530D01*
X208345376Y-32959530D01*
X208365902Y-32983392D01*
X208375201Y-33000788D01*
X208375250Y-33001527D01*
X208385498Y-33012388D01*
X208393645Y-33013650D01*
X208414894Y-33021746D01*
X208442008Y-33041472D01*
X208444570Y-33043796D01*
X208479300Y-33065999D01*
X208521826Y-33080935D01*
X208527774Y-33082046D01*
X208559480Y-33089600D01*
X208577141Y-33098629D01*
X208578450Y-33101369D01*
X208588799Y-33112910D01*
X208615508Y-33130951D01*
X208641716Y-33145668D01*
X208707580Y-33171448D01*
X208772908Y-33178750D01*
X208834443Y-33171707D01*
X208902130Y-33153012D01*
X208965414Y-33126314D01*
X209013320Y-33095623D01*
X209041494Y-33073469D01*
X209079197Y-33045986D01*
X209096773Y-33033767D01*
X209129665Y-33009715D01*
X209153487Y-32989353D01*
X209160023Y-32981841D01*
X209178428Y-32963190D01*
X209190365Y-32955350D01*
X209207919Y-32942283D01*
X209239167Y-32915731D01*
X209279442Y-32879757D01*
X209317365Y-32844734D01*
X209360370Y-32804470D01*
X209396826Y-32770425D01*
X209422581Y-32746472D01*
X209433104Y-32736808D01*
X209461880Y-32709332D01*
X209499128Y-32670857D01*
X209540465Y-32626273D01*
X209581509Y-32580467D01*
X209617877Y-32538331D01*
X209645185Y-32504752D01*
X209658894Y-32484936D01*
X209676517Y-32451966D01*
X209700142Y-32410335D01*
X209711321Y-32391350D01*
X209732593Y-32351407D01*
X209757134Y-32298634D01*
X209782644Y-32238860D01*
X209806821Y-32177916D01*
X209827364Y-32121632D01*
X209841973Y-32075839D01*
X209848345Y-32046367D01*
X209848450Y-32043890D01*
X209852689Y-32012160D01*
X209863167Y-31972231D01*
X209866015Y-31963756D01*
X209876425Y-31919294D01*
X209875341Y-31870056D01*
X209871572Y-31844684D01*
X209861135Y-31770947D01*
X209852805Y-31680715D01*
X209849089Y-31625042D01*
X209840286Y-31611166D01*
X209818077Y-31585943D01*
X209793163Y-31560651D01*
X209751762Y-31525613D01*
X209708600Y-31502777D01*
X209655154Y-31486505D01*
X209588155Y-31474996D01*
X209527036Y-31477226D01*
X209462808Y-31494337D01*
X209406054Y-31518150D01*
X209370261Y-31532049D01*
X209344434Y-31533402D01*
X209326569Y-31519520D01*
X209314663Y-31487715D01*
X209306713Y-31435296D01*
X209301974Y-31378450D01*
X209296790Y-31321746D01*
X209289999Y-31272268D01*
X209282683Y-31237115D01*
X209278780Y-31226370D01*
X209268927Y-31195384D01*
X209264076Y-31155579D01*
X209263982Y-31150759D01*
X209255599Y-31090382D01*
X209232925Y-31018400D01*
X209198806Y-30941960D01*
X209156090Y-30868203D01*
X209144721Y-30851475D01*
X209115905Y-30812002D01*
X209092043Y-30782129D01*
X209077145Y-30766786D01*
X209074935Y-30765750D01*
X209064420Y-30754967D01*
X209047119Y-30726472D01*
X209025911Y-30686038D01*
X209003677Y-30639441D01*
X208983294Y-30592458D01*
X208967643Y-30550863D01*
X208967307Y-30549850D01*
X208955398Y-30510587D01*
X208940710Y-30457407D01*
X208924606Y-30395847D01*
X208908448Y-30331446D01*
X208893602Y-30269743D01*
X208881430Y-30216278D01*
X208873295Y-30176590D01*
X208870550Y-30156823D01*
X208861362Y-30129215D01*
X208852492Y-30118873D01*
X208839247Y-30097448D01*
X208828335Y-30062375D01*
X208826145Y-30050643D01*
X208816078Y-30001269D01*
X208802510Y-29951437D01*
X208800938Y-29946600D01*
X208792086Y-29911537D01*
X208782424Y-29859782D01*
X208773466Y-29799935D01*
X208769627Y-29768800D01*
X208761762Y-29704608D01*
X208752935Y-29640617D01*
X208744597Y-29587089D01*
X208741439Y-29569406D01*
X208734841Y-29523116D01*
X208732693Y-29481893D01*
X208734115Y-29463178D01*
X208734788Y-29431966D01*
X208729579Y-29388084D01*
X208723469Y-29357771D01*
X208712079Y-29287805D01*
X208706420Y-29203349D01*
X208706372Y-29113217D01*
X208711812Y-29026224D01*
X208722620Y-28951184D01*
X208729437Y-28922838D01*
X208743801Y-28875910D01*
X208757752Y-28835747D01*
X208767562Y-28812543D01*
X208782854Y-28795623D01*
X208812645Y-28770284D01*
X208850848Y-28740935D01*
X208891378Y-28711986D01*
X208928149Y-28687850D01*
X208955075Y-28672937D01*
X208963891Y-28670250D01*
X208978705Y-28663873D01*
X209008186Y-28647199D01*
X209043832Y-28625175D01*
X209090848Y-28590958D01*
X209142715Y-28546573D01*
X209194553Y-28496975D01*
X209241480Y-28447116D01*
X209278614Y-28401951D01*
X209301073Y-28366432D01*
X209302818Y-28362385D01*
X209321315Y-28325285D01*
X209342488Y-28294799D01*
X209366463Y-28261518D01*
X209393521Y-28214311D01*
X209420403Y-28160201D01*
X209443853Y-28106210D01*
X209460614Y-28059360D01*
X209467428Y-28026674D01*
X209467450Y-28025387D01*
X209475308Y-27983988D01*
X209492850Y-27949815D01*
X209511389Y-27913454D01*
X209518250Y-27877327D01*
X209521335Y-27845378D01*
X209528741Y-27825065D01*
X209546348Y-27790766D01*
X209559885Y-27736322D01*
X209569345Y-27666663D01*
X209574719Y-27586716D01*
X209575998Y-27501410D01*
X209573175Y-27415673D01*
X209566240Y-27334435D01*
X209555187Y-27262623D01*
X209540005Y-27205167D01*
X209529828Y-27181347D01*
X209520946Y-27151877D01*
X209518202Y-27124197D01*
X209511479Y-27089527D01*
X209495122Y-27051468D01*
X209492802Y-27047518D01*
X209476039Y-27014354D01*
X209467666Y-26986683D01*
X209467450Y-26983383D01*
X209462157Y-26957290D01*
X209457312Y-26948765D01*
X209447950Y-26930777D01*
X209434388Y-26896965D01*
X209423724Y-26866850D01*
X209408056Y-26825083D01*
X209392544Y-26791500D01*
X209384051Y-26777950D01*
X209368969Y-26751623D01*
X209358651Y-26722136D01*
X209343654Y-26686379D01*
X209325911Y-26661811D01*
X209307887Y-26636727D01*
X209302350Y-26618513D01*
X209296471Y-26597223D01*
X209281275Y-26562660D01*
X209265745Y-26532788D01*
X209241432Y-26488424D01*
X209211373Y-26432823D01*
X209181643Y-26377233D01*
X209178626Y-26371550D01*
X209128144Y-26276457D01*
X209088188Y-26201470D01*
X209057455Y-26144220D01*
X209034637Y-26102335D01*
X209018430Y-26073447D01*
X209007528Y-26055184D01*
X209000627Y-26045178D01*
X208996681Y-26041222D01*
X208986657Y-26025241D01*
X208978130Y-25999947D01*
X208968288Y-25974778D01*
X208958073Y-25965149D01*
X208947877Y-25954912D01*
X208946750Y-25947074D01*
X208939063Y-25925939D01*
X208920187Y-25897568D01*
X208916452Y-25892991D01*
X208891166Y-25856595D01*
X208868196Y-25813686D01*
X208865159Y-25806737D01*
X208849851Y-25774126D01*
X208836731Y-25752813D01*
X208833558Y-25749695D01*
X208823424Y-25735603D01*
X208806321Y-25704557D01*
X208785645Y-25662788D01*
X208781989Y-25655006D01*
X208759818Y-25610021D01*
X208739294Y-25572806D01*
X208724468Y-25550650D01*
X208723238Y-25549324D01*
X208708225Y-25526746D01*
X208705450Y-25515275D01*
X208698838Y-25497641D01*
X208681276Y-25465210D01*
X208656168Y-25424138D01*
X208648300Y-25412003D01*
X208621727Y-25369825D01*
X208601732Y-25334807D01*
X208591707Y-25313004D01*
X208591150Y-25310075D01*
X208582322Y-25289784D01*
X208573742Y-25280713D01*
X208560037Y-25263028D01*
X208539242Y-25229029D01*
X208515304Y-25185276D01*
X208509350Y-25173698D01*
X208477383Y-25117125D01*
X208438977Y-25058243D01*
X208402932Y-25010410D01*
X208371755Y-24972601D01*
X208330310Y-24921345D01*
X208283910Y-24863258D01*
X208237868Y-24804953D01*
X208236104Y-24802703D01*
X208185130Y-24739646D01*
X208128129Y-24672265D01*
X208072443Y-24609085D01*
X208029791Y-24563145D01*
X207989926Y-24521520D01*
X207957141Y-24486741D01*
X207935134Y-24462772D01*
X207927637Y-24453792D01*
X207913186Y-24436316D01*
X207884211Y-24408948D01*
X207846741Y-24376720D01*
X207806808Y-24344664D01*
X207770439Y-24317811D01*
X207746600Y-24302710D01*
X207704979Y-24279483D01*
X207665425Y-24256189D01*
X207657700Y-24251413D01*
X207619315Y-24229172D01*
X207566973Y-24201307D01*
X207506903Y-24170860D01*
X207445328Y-24140875D01*
X207388477Y-24114392D01*
X207342574Y-24094456D01*
X207317300Y-24085075D01*
X207277056Y-24077438D01*
X207240929Y-24077694D01*
X207236432Y-24078609D01*
X207198806Y-24077425D01*
X207182526Y-24067474D01*
X207158655Y-24055774D01*
X207119241Y-24045686D01*
X207085596Y-24040823D01*
X207043079Y-24034977D01*
X207010713Y-24027385D01*
X206997936Y-24021416D01*
X206969946Y-24010217D01*
X206929608Y-24015642D01*
X206895700Y-24029970D01*
X206839474Y-24046918D01*
X206767964Y-24045219D01*
X206680226Y-24024848D01*
X206678044Y-24024170D01*
X206616408Y-24009126D01*
X206554566Y-24004404D01*
X206506594Y-24006209D01*
X206458891Y-24010856D01*
X206420497Y-24017151D01*
X206399073Y-24023808D01*
X206398179Y-24024427D01*
X206379539Y-24030269D01*
X206342049Y-24036027D01*
X206292246Y-24040813D01*
X206264829Y-24042560D01*
X206194754Y-24048910D01*
X206114167Y-24060407D01*
X206029699Y-24075686D01*
X205947979Y-24093385D01*
X205875637Y-24112140D01*
X205819304Y-24130588D01*
X205802665Y-24137609D01*
X205768076Y-24152350D01*
X205742108Y-24160892D01*
X205736421Y-24161750D01*
X205715570Y-24166386D01*
X205684028Y-24177712D01*
X205680105Y-24179340D01*
X205645197Y-24193524D01*
X205598321Y-24211901D01*
X205562200Y-24225722D01*
X205505209Y-24249137D01*
X205434804Y-24280839D01*
X205359735Y-24316704D01*
X205288749Y-24352610D01*
X205257400Y-24369357D01*
X205224609Y-24383870D01*
X205197813Y-24390258D01*
X205197075Y-24390271D01*
X205178223Y-24396215D01*
X205174850Y-24402802D01*
X205164173Y-24413879D01*
X205136037Y-24431470D01*
X205096277Y-24451971D01*
X205091698Y-24454131D01*
X205049729Y-24475746D01*
X205017568Y-24496026D01*
X205001764Y-24510806D01*
X205001439Y-24511528D01*
X204988095Y-24528022D01*
X204981492Y-24530050D01*
X204964895Y-24537820D01*
X204937999Y-24557421D01*
X204925259Y-24568150D01*
X204895035Y-24591302D01*
X204869932Y-24604818D01*
X204863258Y-24606250D01*
X204846641Y-24613162D01*
X204844650Y-24618790D01*
X204834734Y-24632188D01*
X204809437Y-24652478D01*
X204790675Y-24664951D01*
X204754190Y-24689093D01*
X204724069Y-24711438D01*
X204715200Y-24719085D01*
X204696187Y-24736613D01*
X204663927Y-24765757D01*
X204624202Y-24801305D01*
X204607910Y-24815800D01*
X204558034Y-24861284D01*
X204508742Y-24908301D01*
X204463551Y-24953257D01*
X204425977Y-24992554D01*
X204399537Y-25022596D01*
X204387749Y-25039787D01*
X204387454Y-25041225D01*
X204379564Y-25056728D01*
X204365225Y-25073973D01*
X204306440Y-25143778D01*
X204261486Y-25216209D01*
X204208844Y-25300084D01*
X204152433Y-25369315D01*
X204136781Y-25395122D01*
X204133450Y-25410590D01*
X204127745Y-25428811D01*
X204121882Y-25431750D01*
X204110109Y-25442198D01*
X204093056Y-25468805D01*
X204083271Y-25487616D01*
X204056186Y-25532666D01*
X204022036Y-25576065D01*
X204012423Y-25586041D01*
X203986694Y-25613000D01*
X203970871Y-25633357D01*
X203968485Y-25638972D01*
X203961386Y-25654923D01*
X203943910Y-25681699D01*
X203937995Y-25689772D01*
X203914726Y-25724463D01*
X203887953Y-25769608D01*
X203872569Y-25798012D01*
X203851005Y-25835451D01*
X203831159Y-25862795D01*
X203820022Y-25872531D01*
X203806900Y-25886314D01*
X203786562Y-25917524D01*
X203762509Y-25960558D01*
X203751291Y-25982518D01*
X203722769Y-26039650D01*
X203701160Y-26081516D01*
X203682229Y-26115673D01*
X203661742Y-26149678D01*
X203635464Y-26191088D01*
X203627301Y-26203782D01*
X203603277Y-26238459D01*
X203583433Y-26262415D01*
X203573326Y-26269950D01*
X203562846Y-26280062D01*
X203561949Y-26286474D01*
X203555348Y-26304454D01*
X203537892Y-26336922D01*
X203513101Y-26377426D01*
X203508245Y-26384899D01*
X203469484Y-26445958D01*
X203433829Y-26506971D01*
X203395964Y-26577240D01*
X203374312Y-26619200D01*
X203355333Y-26651998D01*
X203328742Y-26692954D01*
X203313748Y-26714450D01*
X203286854Y-26753554D01*
X203259404Y-26797505D01*
X203228237Y-26851670D01*
X203190190Y-26921416D01*
X203174688Y-26950453D01*
X203151757Y-26990637D01*
X203129512Y-27024958D01*
X203119476Y-27038087D01*
X203097682Y-27068700D01*
X203079349Y-27101800D01*
X203059619Y-27137435D01*
X203039991Y-27165300D01*
X203019518Y-27193814D01*
X202997611Y-27230241D01*
X202994962Y-27235152D01*
X202971009Y-27275640D01*
X202942565Y-27317739D01*
X202937895Y-27324052D01*
X202911873Y-27362275D01*
X202883638Y-27409137D01*
X202871107Y-27432000D01*
X202850705Y-27470717D01*
X202833948Y-27502160D01*
X202827210Y-27514550D01*
X202812986Y-27540964D01*
X202801923Y-27562175D01*
X202774520Y-27613279D01*
X202754281Y-27645328D01*
X202741248Y-27660346D01*
X202725281Y-27686892D01*
X202710875Y-27732170D01*
X202698896Y-27789523D01*
X202690211Y-27852291D01*
X202685685Y-27913817D01*
X202686184Y-27967443D01*
X202692576Y-28006510D01*
X202695313Y-28013468D01*
X202703805Y-28039627D01*
X202713548Y-28082184D01*
X202722552Y-28132342D01*
X202723246Y-28136850D01*
X202734061Y-28194022D01*
X202747642Y-28233636D01*
X202766897Y-28263532D01*
X202772749Y-28270200D01*
X202801772Y-28305318D01*
X202832583Y-28347762D01*
X202842103Y-28362196D01*
X202895179Y-28422867D01*
X202967152Y-28470274D01*
X203019025Y-28491485D01*
X203049194Y-28503720D01*
X203065634Y-28514920D01*
X203066650Y-28517353D01*
X203077171Y-28528509D01*
X203091053Y-28533969D01*
X203111743Y-28548696D01*
X203134011Y-28577827D01*
X203140514Y-28589425D01*
X203163186Y-28633583D01*
X203187873Y-28681331D01*
X203193129Y-28691446D01*
X203209742Y-28727903D01*
X203214047Y-28756917D01*
X203207659Y-28792287D01*
X203205769Y-28799396D01*
X203193935Y-28839465D01*
X203182507Y-28872694D01*
X203179600Y-28879800D01*
X203170852Y-28905493D01*
X203158159Y-28950284D01*
X203142931Y-29008442D01*
X203126577Y-29074236D01*
X203110507Y-29141935D01*
X203096132Y-29205806D01*
X203084861Y-29260120D01*
X203081189Y-29279850D01*
X203069444Y-29347425D01*
X203056070Y-29425875D01*
X203042120Y-29508866D01*
X203028646Y-29590065D01*
X203016703Y-29663139D01*
X203007342Y-29721755D01*
X203003046Y-29749750D01*
X202988572Y-29844657D01*
X202976692Y-29916950D01*
X202966933Y-29969226D01*
X202958825Y-30004086D01*
X202954422Y-30018090D01*
X202947485Y-30046393D01*
X202939091Y-30096187D01*
X202929753Y-30163637D01*
X202919983Y-30244911D01*
X202910295Y-30336176D01*
X202906201Y-30378400D01*
X202901522Y-30443644D01*
X202897730Y-30527401D01*
X202894856Y-30624500D01*
X202892936Y-30729767D01*
X202892000Y-30838031D01*
X202892083Y-30944120D01*
X202893218Y-31042862D01*
X202895437Y-31129084D01*
X202898774Y-31197615D01*
X202900806Y-31222950D01*
X202912962Y-31344261D01*
X202923773Y-31442037D01*
X202933498Y-31518091D01*
X202942396Y-31574237D01*
X202950727Y-31612289D01*
X202958748Y-31634060D01*
X202959724Y-31635700D01*
X202970283Y-31661281D01*
X202981575Y-31702466D01*
X202989930Y-31743650D01*
X203031586Y-31937239D01*
X203087546Y-32112654D01*
X203147636Y-32249468D01*
X203175631Y-32305670D01*
X203205153Y-32366339D01*
X203226078Y-32410400D01*
X203249372Y-32456906D01*
X203277078Y-32507100D01*
X203306093Y-32555980D01*
X203333316Y-32598547D01*
X203355644Y-32629802D01*
X203369976Y-32644745D01*
X203371841Y-32645350D01*
X203381989Y-32656002D01*
X203388691Y-32673925D01*
X203401765Y-32700536D01*
X203429193Y-32740556D01*
X203467368Y-32789430D01*
X203512683Y-32842606D01*
X203561530Y-32895531D01*
X203575912Y-32910252D01*
X203623860Y-32957495D01*
X203672205Y-33003160D01*
X203717134Y-33043857D01*
X203754830Y-33076200D01*
X203781479Y-33096798D01*
X203792430Y-33102550D01*
X203809021Y-33109661D01*
X203838502Y-33127732D01*
X203873916Y-33151872D01*
X203908309Y-33177187D01*
X203934724Y-33198786D01*
X203945503Y-33210212D01*
X203962295Y-33222837D01*
X203994063Y-33237098D01*
X204009003Y-33242235D01*
X204048982Y-33257935D01*
X204082119Y-33276170D01*
X204089000Y-33281399D01*
X204113664Y-33298424D01*
X204152432Y-33320709D01*
X204190600Y-33340300D01*
X204234104Y-33361687D01*
X204271453Y-33380609D01*
X204292200Y-33391668D01*
X204358277Y-33425814D01*
X204430987Y-33457707D01*
X204502580Y-33484372D01*
X204565307Y-33502836D01*
X204598115Y-33509088D01*
X204644306Y-33516556D01*
X204683433Y-33525907D01*
X204702207Y-33532882D01*
X204735430Y-33543748D01*
X204764560Y-33547050D01*
X204800272Y-33554089D01*
X204817821Y-33576145D01*
X204817683Y-33614629D01*
X204803660Y-33662273D01*
X204780468Y-33746085D01*
X204765419Y-33846424D01*
X204758641Y-33955714D01*
X204760262Y-34066380D01*
X204770410Y-34170846D01*
X204789216Y-34261537D01*
X204793263Y-34274978D01*
X204807803Y-34325274D01*
X204814952Y-34360014D01*
X204814704Y-34376969D01*
X204807053Y-34373910D01*
X204793475Y-34351509D01*
X204778212Y-34324434D01*
X204767232Y-34309189D01*
X204767067Y-34309050D01*
X204756500Y-34294369D01*
X204740988Y-34266919D01*
X204739048Y-34263171D01*
X204731686Y-34245003D01*
X204725855Y-34220540D01*
X204721386Y-34186894D01*
X204718110Y-34141182D01*
X204715857Y-34080517D01*
X204714457Y-34002015D01*
X204713740Y-33902789D01*
X204713565Y-33829625D01*
X204712689Y-33770136D01*
X204710429Y-33721148D01*
X204707122Y-33687519D01*
X204703103Y-33674106D01*
X204702818Y-33674050D01*
X204695740Y-33662904D01*
X204692310Y-33635613D01*
X204692250Y-33631013D01*
X204689568Y-33601549D01*
X204676411Y-33587212D01*
X204647800Y-33579637D01*
X204618502Y-33571525D01*
X204603764Y-33562322D01*
X204603350Y-33560814D01*
X204591836Y-33554024D01*
X204561865Y-33546838D01*
X204526042Y-33541584D01*
X204483740Y-33533178D01*
X204433813Y-33517968D01*
X204382756Y-33498636D01*
X204337065Y-33477862D01*
X204303233Y-33458328D01*
X204287966Y-33443292D01*
X204273363Y-33433370D01*
X204267710Y-33432750D01*
X204247560Y-33424090D01*
X204230032Y-33408822D01*
X204204559Y-33390669D01*
X204166555Y-33373744D01*
X204151864Y-33369072D01*
X204118384Y-33357770D01*
X204098117Y-33347210D01*
X204095350Y-33343397D01*
X204084722Y-33333726D01*
X204056398Y-33316500D01*
X204015715Y-33294869D01*
X203999238Y-33286690D01*
X203954267Y-33263131D01*
X203918738Y-33241459D01*
X203898547Y-33225377D01*
X203896279Y-33221992D01*
X203881159Y-33205903D01*
X203873709Y-33204150D01*
X203854073Y-33195490D01*
X203835000Y-33178750D01*
X203813076Y-33159654D01*
X203798106Y-33153118D01*
X203778341Y-33144316D01*
X203744233Y-33120049D01*
X203699253Y-33082959D01*
X203660751Y-33048575D01*
X203633139Y-33026395D01*
X203611374Y-33014364D01*
X203607535Y-33013650D01*
X203591812Y-33004586D01*
X203566406Y-32981048D01*
X203542203Y-32954343D01*
X203505011Y-32910430D01*
X203462781Y-32860727D01*
X203437044Y-32830518D01*
X203402074Y-32785682D01*
X203369333Y-32737361D01*
X203351707Y-32706862D01*
X203332614Y-32672564D01*
X203316708Y-32649150D01*
X203310568Y-32643362D01*
X203298994Y-32631394D01*
X203277662Y-32603339D01*
X203250523Y-32564489D01*
X203240900Y-32550100D01*
X203209626Y-32503549D01*
X203180047Y-32460755D01*
X203157680Y-32429671D01*
X203154495Y-32425480D01*
X203134646Y-32391863D01*
X203115465Y-32346912D01*
X203107905Y-32323880D01*
X203095657Y-32284509D01*
X203084828Y-32254910D01*
X203080140Y-32245300D01*
X203072340Y-32227759D01*
X203059619Y-32192809D01*
X203044459Y-32147334D01*
X203041278Y-32137350D01*
X203024983Y-32089387D01*
X203009358Y-32049489D01*
X202997381Y-32025153D01*
X202995880Y-32023050D01*
X202982845Y-31997838D01*
X202971870Y-31962342D01*
X202971263Y-31959550D01*
X202958681Y-31916862D01*
X202940665Y-31873088D01*
X202939160Y-31870059D01*
X202917757Y-31816717D01*
X202903829Y-31753287D01*
X202895833Y-31672566D01*
X202895429Y-31665590D01*
X202889900Y-31615008D01*
X202879590Y-31555538D01*
X202870432Y-31515050D01*
X202860324Y-31464875D01*
X202850066Y-31394794D01*
X202840163Y-31310293D01*
X202831119Y-31216857D01*
X202823441Y-31119973D01*
X202817632Y-31025124D01*
X202814199Y-30937798D01*
X202813517Y-30896843D01*
X202811730Y-30828543D01*
X202807705Y-30757110D01*
X202802179Y-30694442D01*
X202799727Y-30674593D01*
X202793762Y-30615488D01*
X202794384Y-30561577D01*
X202802454Y-30504245D01*
X202818831Y-30434875D01*
X202826421Y-30407101D01*
X202835634Y-30370198D01*
X202836206Y-30349184D01*
X202827453Y-30335822D01*
X202819992Y-30329896D01*
X202804289Y-30312200D01*
X202809019Y-30290068D01*
X202811042Y-30286154D01*
X202819964Y-30256907D01*
X202824962Y-30216119D01*
X202825350Y-30202184D01*
X202827573Y-30166312D01*
X202833183Y-30142460D01*
X202836279Y-30138194D01*
X202847829Y-30119916D01*
X202860400Y-30081967D01*
X202872742Y-30029970D01*
X202883607Y-29969553D01*
X202891746Y-29906340D01*
X202894311Y-29876750D01*
X202905868Y-29764933D01*
X202925650Y-29634301D01*
X202952807Y-29489760D01*
X202986488Y-29336219D01*
X202992317Y-29311600D01*
X203000914Y-29268104D01*
X203008910Y-29215525D01*
X203011857Y-29190950D01*
X203017463Y-29151335D01*
X203024076Y-29123231D01*
X203028369Y-29114750D01*
X203039439Y-29097087D01*
X203054014Y-29059876D01*
X203070474Y-29008446D01*
X203087201Y-28948125D01*
X203102574Y-28884243D01*
X203111463Y-28841307D01*
X203133397Y-28726614D01*
X203098255Y-28657264D01*
X203067967Y-28604091D01*
X203040660Y-28572100D01*
X203013003Y-28557869D01*
X202999975Y-28556353D01*
X202981117Y-28549882D01*
X202977750Y-28542977D01*
X202967424Y-28528914D01*
X202944361Y-28514792D01*
X202912323Y-28495596D01*
X202878023Y-28468718D01*
X202874124Y-28465158D01*
X202839132Y-28437400D01*
X202802903Y-28415586D01*
X202799563Y-28414043D01*
X202771496Y-28394505D01*
X202761849Y-28373708D01*
X202754018Y-28348830D01*
X202734741Y-28318075D01*
X202730413Y-28312706D01*
X202707419Y-28275833D01*
X202685351Y-28225157D01*
X202668309Y-28171834D01*
X202660396Y-28127023D01*
X202660250Y-28121844D01*
X202655508Y-28102478D01*
X202649872Y-28098750D01*
X202641285Y-28086992D01*
X202630815Y-28055148D01*
X202619532Y-28008356D01*
X202608505Y-27951756D01*
X202598804Y-27890490D01*
X202591500Y-27829697D01*
X202589744Y-27809930D01*
X202586256Y-27757293D01*
X202586399Y-27724632D01*
X202590734Y-27706706D01*
X202599822Y-27698276D01*
X202601787Y-27697446D01*
X202619216Y-27679613D01*
X202622150Y-27666629D01*
X202627582Y-27630677D01*
X202641422Y-27607518D01*
X202652083Y-27603027D01*
X202673339Y-27594487D01*
X202698685Y-27575339D01*
X202718434Y-27553889D01*
X202723749Y-27541565D01*
X202727939Y-27523206D01*
X202738796Y-27489339D01*
X202750483Y-27456750D01*
X202769959Y-27412107D01*
X202789559Y-27386125D01*
X202813009Y-27372821D01*
X202843916Y-27350375D01*
X202873088Y-27308076D01*
X202897179Y-27251422D01*
X202906227Y-27219626D01*
X202921941Y-27184252D01*
X202939774Y-27161559D01*
X202958450Y-27132533D01*
X202968398Y-27095232D01*
X202968457Y-27094533D01*
X202974084Y-27064089D01*
X202988804Y-27050611D01*
X203006841Y-27046956D01*
X203028644Y-27040290D01*
X203047732Y-27022556D01*
X203068860Y-26988557D01*
X203080201Y-26966763D01*
X203098868Y-26924622D01*
X203110099Y-26888883D01*
X203111551Y-26868273D01*
X203115163Y-26846466D01*
X203139615Y-26818384D01*
X203155405Y-26804993D01*
X203192082Y-26768627D01*
X203206235Y-26737205D01*
X203206350Y-26734501D01*
X203213466Y-26700660D01*
X203232197Y-26657778D01*
X203258617Y-26611760D01*
X203288801Y-26568510D01*
X203318823Y-26533934D01*
X203344755Y-26513937D01*
X203354776Y-26511249D01*
X203366898Y-26499148D01*
X203371417Y-26462937D01*
X203371450Y-26458407D01*
X203376123Y-26416943D01*
X203393905Y-26386401D01*
X203407666Y-26372682D01*
X203434267Y-26341392D01*
X203451365Y-26308419D01*
X203452358Y-26304875D01*
X203463860Y-26279582D01*
X203478018Y-26269950D01*
X203491495Y-26258380D01*
X203501748Y-26228191D01*
X203502936Y-26221589D01*
X203517954Y-26177737D01*
X203542660Y-26143175D01*
X203564608Y-26116199D01*
X203574592Y-26091378D01*
X203574649Y-26089936D01*
X203580419Y-26070532D01*
X203587350Y-26066750D01*
X203597385Y-26056024D01*
X203600050Y-26039173D01*
X203609390Y-26014378D01*
X203634391Y-25980696D01*
X203657200Y-25956836D01*
X203687295Y-25925354D01*
X203708000Y-25898637D01*
X203714350Y-25884545D01*
X203722726Y-25864245D01*
X203743135Y-25838280D01*
X203745544Y-25835818D01*
X203785197Y-25779104D01*
X203802644Y-25712842D01*
X203803250Y-25697623D01*
X203807074Y-25670538D01*
X203822268Y-25660929D01*
X203831912Y-25660349D01*
X203858922Y-25650847D01*
X203891235Y-25626206D01*
X203901239Y-25616042D01*
X203939126Y-25570808D01*
X203960213Y-25534103D01*
X203968046Y-25499251D01*
X203968350Y-25489734D01*
X203974735Y-25463714D01*
X203987082Y-25457150D01*
X204002858Y-25446499D01*
X204021951Y-25419406D01*
X204031499Y-25400770D01*
X204048732Y-25366359D01*
X204063479Y-25342672D01*
X204068509Y-25337390D01*
X204079922Y-25320823D01*
X204087916Y-25298196D01*
X204103044Y-25263135D01*
X204117898Y-25242260D01*
X204162668Y-25191075D01*
X204188710Y-25154704D01*
X204196950Y-25132221D01*
X204203024Y-25116009D01*
X204207611Y-25114250D01*
X204220108Y-25104001D01*
X204232739Y-25082500D01*
X204249229Y-25059053D01*
X204264940Y-25050750D01*
X204279975Y-25039793D01*
X204289694Y-25015651D01*
X204312604Y-24964332D01*
X204359603Y-24919935D01*
X204387450Y-24902793D01*
X204437728Y-24874000D01*
X204468829Y-24852660D01*
X204484640Y-24835587D01*
X204489049Y-24819598D01*
X204489050Y-24819589D01*
X204498736Y-24794499D01*
X204521550Y-24767879D01*
X204548127Y-24749289D01*
X204561198Y-24745949D01*
X204587039Y-24735811D01*
X204617479Y-24710022D01*
X204645502Y-24675521D01*
X204661147Y-24647079D01*
X204684869Y-24602405D01*
X204713905Y-24576248D01*
X204754152Y-24562150D01*
X204784546Y-24550960D01*
X204801989Y-24536173D01*
X204802416Y-24535202D01*
X204819089Y-24521111D01*
X204838315Y-24517350D01*
X204865424Y-24508962D01*
X204898015Y-24487991D01*
X204908149Y-24479250D01*
X204938455Y-24455635D01*
X204965354Y-24442272D01*
X204972137Y-24441150D01*
X204994360Y-24430516D01*
X205003400Y-24415750D01*
X205019902Y-24395111D01*
X205035222Y-24390350D01*
X205058833Y-24382176D01*
X205089634Y-24361677D01*
X205100696Y-24352249D01*
X205129115Y-24329008D01*
X205151361Y-24315519D01*
X205156632Y-24314149D01*
X205175227Y-24308277D01*
X205206803Y-24293310D01*
X205226827Y-24282462D01*
X205267573Y-24260563D01*
X205305383Y-24242107D01*
X205317725Y-24236770D01*
X205342613Y-24223350D01*
X205352650Y-24211307D01*
X205363264Y-24201902D01*
X205377300Y-24199850D01*
X205401612Y-24194018D01*
X205409800Y-24187150D01*
X205427664Y-24176581D01*
X205442996Y-24174450D01*
X205459584Y-24172402D01*
X205483663Y-24165233D01*
X205519246Y-24151405D01*
X205570345Y-24129379D01*
X205627861Y-24103567D01*
X205670161Y-24087710D01*
X205709853Y-24076974D01*
X205750383Y-24065589D01*
X205783892Y-24051767D01*
X205818021Y-24040687D01*
X205860678Y-24035017D01*
X205868619Y-24034828D01*
X205907081Y-24030413D01*
X205933366Y-24019257D01*
X205936172Y-24016516D01*
X205961401Y-24001527D01*
X206011456Y-23987539D01*
X206086470Y-23974531D01*
X206186580Y-23962479D01*
X206311921Y-23951361D01*
X206330550Y-23949947D01*
X206374938Y-23945080D01*
X206409312Y-23938449D01*
X206425165Y-23932122D01*
X206441139Y-23928449D01*
X206478323Y-23925251D01*
X206532526Y-23922722D01*
X206599559Y-23921056D01*
X206675231Y-23920450D01*
X206675990Y-23920449D01*
X206760631Y-23920702D01*
G37*
G36*
X205745016Y-34187811D02*
G01*
X205741077Y-34204259D01*
X205730021Y-34237606D01*
X205720244Y-34265803D01*
X205705208Y-34309273D01*
X205692867Y-34345433D01*
X205687013Y-34363025D01*
X205675095Y-34381910D01*
X205662476Y-34382949D01*
X205657450Y-34367755D01*
X205666399Y-34345201D01*
X205675384Y-34335376D01*
X205688660Y-34314881D01*
X205702350Y-34279401D01*
X205708410Y-34257581D01*
X205719159Y-34220176D01*
X205729938Y-34194135D01*
X205734926Y-34187611D01*
X205742684Y-34183762D01*
X205745016Y-34187811D01*
G37*
G36*
X205759050Y-34163000D02*
G01*
X205752700Y-34169350D01*
X205746350Y-34163000D01*
X205752700Y-34156650D01*
X205759050Y-34163000D01*
G37*
G36*
X205784450Y-34048700D02*
G01*
X205778100Y-34055050D01*
X205771750Y-34048700D01*
X205778100Y-34042350D01*
X205784450Y-34048700D01*
G37*
G36*
X205808612Y-33845961D02*
G01*
X205809281Y-33869268D01*
X205807739Y-33902477D01*
X205804436Y-33937934D01*
X205799824Y-33967984D01*
X205797087Y-33978850D01*
X205792635Y-33985270D01*
X205791406Y-33968603D01*
X205793538Y-33930972D01*
X205793780Y-33928050D01*
X205797974Y-33885034D01*
X205802168Y-33853304D01*
X205805277Y-33840208D01*
X205808612Y-33845961D01*
G37*
G36*
X205834442Y-33629860D02*
G01*
X205835831Y-33653444D01*
X205835192Y-33687840D01*
X205832877Y-33725826D01*
X205829240Y-33760183D01*
X205824634Y-33783689D01*
X205822655Y-33788350D01*
X205816716Y-33788720D01*
X205815341Y-33764336D01*
X205818272Y-33718500D01*
X205822751Y-33673776D01*
X205827138Y-33640144D01*
X205830525Y-33624517D01*
X205830672Y-33624308D01*
X205834442Y-33629860D01*
G37*
G36*
X205822550Y-33591500D02*
G01*
X205816200Y-33597850D01*
X205809850Y-33591500D01*
X205816200Y-33585150D01*
X205822550Y-33591500D01*
G37*
G36*
X205809850Y-33502600D02*
G01*
X205803500Y-33508950D01*
X205797150Y-33502600D01*
X205803500Y-33496250D01*
X205809850Y-33502600D01*
G37*
G36*
X205797150Y-33477200D02*
G01*
X205790800Y-33483550D01*
X205784450Y-33477200D01*
X205790800Y-33470850D01*
X205797150Y-33477200D01*
G37*
G36*
X205759050Y-33324800D02*
G01*
X205752700Y-33331150D01*
X205746350Y-33324800D01*
X205752700Y-33318450D01*
X205759050Y-33324800D01*
G37*
G36*
X205733650Y-33312100D02*
G01*
X205727300Y-33318450D01*
X205720950Y-33312100D01*
X205727300Y-33305750D01*
X205733650Y-33312100D01*
G37*
G36*
X205847950Y-32867600D02*
G01*
X205841600Y-32873950D01*
X205835250Y-32867600D01*
X205841600Y-32861250D01*
X205847950Y-32867600D01*
G37*
G36*
X208095850Y-32778700D02*
G01*
X208089500Y-32785050D01*
X208083150Y-32778700D01*
X208089500Y-32772350D01*
X208095850Y-32778700D01*
G37*
G36*
X208070450Y-32766000D02*
G01*
X208064100Y-32772350D01*
X208057750Y-32766000D01*
X208064100Y-32759650D01*
X208070450Y-32766000D01*
G37*
G36*
X207943450Y-32702500D02*
G01*
X207937100Y-32708850D01*
X207930750Y-32702500D01*
X207937100Y-32696150D01*
X207943450Y-32702500D01*
G37*
G36*
X207892650Y-32689800D02*
G01*
X207886300Y-32696150D01*
X207879950Y-32689800D01*
X207886300Y-32683450D01*
X207892650Y-32689800D01*
G37*
G36*
X207799516Y-32649583D02*
G01*
X207797773Y-32657133D01*
X207791050Y-32658050D01*
X207780596Y-32653403D01*
X207782583Y-32649583D01*
X207797655Y-32648063D01*
X207799516Y-32649583D01*
G37*
G36*
X206292450Y-32639000D02*
G01*
X206286100Y-32645350D01*
X206279750Y-32639000D01*
X206286100Y-32632650D01*
X206292450Y-32639000D01*
G37*
G36*
X206317850Y-32626300D02*
G01*
X206311500Y-32632650D01*
X206305150Y-32626300D01*
X206311500Y-32619950D01*
X206317850Y-32626300D01*
G37*
G36*
X207714850Y-32626300D02*
G01*
X207708500Y-32632650D01*
X207702150Y-32626300D01*
X207708500Y-32619950D01*
X207714850Y-32626300D01*
G37*
G36*
X206394050Y-32613600D02*
G01*
X206387700Y-32619950D01*
X206381350Y-32613600D01*
X206387700Y-32607250D01*
X206394050Y-32613600D01*
G37*
G36*
X207664050Y-32613600D02*
G01*
X207657700Y-32619950D01*
X207651350Y-32613600D01*
X207657700Y-32607250D01*
X207664050Y-32613600D01*
G37*
G36*
X207613250Y-32600900D02*
G01*
X207606900Y-32607250D01*
X207600550Y-32600900D01*
X207606900Y-32594550D01*
X207613250Y-32600900D01*
G37*
G36*
X206542216Y-32573383D02*
G01*
X206540473Y-32580933D01*
X206533750Y-32581850D01*
X206523296Y-32577203D01*
X206525283Y-32573383D01*
X206540355Y-32571863D01*
X206542216Y-32573383D01*
G37*
G36*
X207337025Y-32573439D02*
G01*
X207338620Y-32578074D01*
X207321150Y-32579844D01*
X207303120Y-32577848D01*
X207305275Y-32573439D01*
X207331276Y-32571761D01*
X207337025Y-32573439D01*
G37*
G36*
X206676625Y-32560739D02*
G01*
X206678220Y-32565374D01*
X206660750Y-32567144D01*
X206642720Y-32565148D01*
X206644875Y-32560739D01*
X206670876Y-32559061D01*
X206676625Y-32560739D01*
G37*
G36*
X207216110Y-32561477D02*
G01*
X207212322Y-32567249D01*
X207199441Y-32568147D01*
X207185890Y-32565045D01*
X207191768Y-32560474D01*
X207211617Y-32558960D01*
X207216110Y-32561477D01*
G37*
G36*
X207278816Y-32560683D02*
G01*
X207277073Y-32568233D01*
X207270350Y-32569150D01*
X207259896Y-32564503D01*
X207261883Y-32560683D01*
X207276955Y-32559163D01*
X207278816Y-32560683D01*
G37*
G36*
X206775050Y-32550100D02*
G01*
X206768700Y-32556450D01*
X206762350Y-32550100D01*
X206768700Y-32543750D01*
X206775050Y-32550100D01*
G37*
G36*
X207114775Y-32547695D02*
G01*
X207118727Y-32551376D01*
X207101166Y-32553380D01*
X207092550Y-32553503D01*
X207069444Y-32552179D01*
X207066721Y-32548882D01*
X207070325Y-32547695D01*
X207102535Y-32545720D01*
X207114775Y-32547695D01*
G37*
G36*
X206978250Y-32537400D02*
G01*
X206971900Y-32543750D01*
X206965550Y-32537400D01*
X206971900Y-32531050D01*
X206978250Y-32537400D01*
G37*
G36*
X209073750Y-31851600D02*
G01*
X209067400Y-31857950D01*
X209061050Y-31851600D01*
X209067400Y-31845250D01*
X209073750Y-31851600D01*
G37*
G36*
X208261819Y-25067918D02*
G01*
X208285966Y-25084524D01*
X208293817Y-25095122D01*
X208306312Y-25118673D01*
X208307009Y-25140841D01*
X208296216Y-25173594D01*
X208295862Y-25174497D01*
X208283237Y-25219277D01*
X208287411Y-25245919D01*
X208306011Y-25253950D01*
X208325198Y-25264019D01*
X208337584Y-25280161D01*
X208343114Y-25309510D01*
X208328904Y-25331198D01*
X208300242Y-25341893D01*
X208262417Y-25338264D01*
X208251425Y-25334439D01*
X208237620Y-25317414D01*
X208238149Y-25291034D01*
X208250578Y-25269401D01*
X208260783Y-25254869D01*
X208260103Y-25250986D01*
X208246092Y-25243422D01*
X208219464Y-25229608D01*
X208217027Y-25228359D01*
X208184417Y-25201075D01*
X208169321Y-25159797D01*
X208169904Y-25105627D01*
X208175219Y-25078202D01*
X208187924Y-25066291D01*
X208216233Y-25063483D01*
X208223946Y-25063450D01*
X208261819Y-25067918D01*
G37*
D12*
G04 #@! TO.C,J1*
X141079000Y-29421000D02*
X141079000Y-41421000D01*
X175579000Y-41421000D02*
X175579000Y-29421000D01*
X170579000Y-29421000D02*
X170579000Y-41421000D01*
X137579000Y-29421000D02*
X137579000Y-41421000D01*
X175579000Y-29421000D02*
X137579000Y-29421000D01*
X137579000Y-41421000D02*
X175579000Y-41421000D01*
D13*
G04 #@! TO.C,SW1*
X202966798Y-34348048D02*
X202966798Y-36748048D01*
X202966798Y-46148048D02*
X198866798Y-46148048D01*
X196866798Y-39748048D02*
X196866798Y-40748048D01*
X189666798Y-36148048D02*
X189366798Y-36448048D01*
X198866798Y-34348048D02*
X202966798Y-34348048D01*
X194866798Y-46148048D02*
X190766798Y-46148048D01*
X190766798Y-34348048D02*
X190766798Y-46148048D01*
X189366798Y-36448048D02*
X189066798Y-36148048D01*
X196366798Y-40248048D02*
X197366798Y-40248048D01*
X202966798Y-38948048D02*
X202966798Y-41548048D01*
X194866798Y-34348048D02*
X190766798Y-34348048D01*
X189066798Y-36148048D02*
X189666798Y-36148048D01*
X202966798Y-43748048D02*
X202966798Y-46148048D01*
X199866798Y-40248048D02*
G75*
G03*
X199866798Y-40248048I-3000000J0D01*
G01*
G04 #@! TO.C,SW3*
X187766250Y-28751250D02*
X178946250Y-28751250D01*
X180856250Y-23531250D02*
X181356250Y-24031250D01*
X178946250Y-24231250D02*
X187766250Y-24231250D01*
X181856250Y-23531250D02*
X180856250Y-23531250D01*
X187766250Y-28751250D02*
X187766250Y-28441250D01*
X178946250Y-24541250D02*
X178946250Y-24231250D01*
X181356250Y-24031250D02*
X181856250Y-23531250D01*
X187766250Y-24231250D02*
X187766250Y-24541250D01*
X178946250Y-28751250D02*
X178946250Y-28441250D01*
D10*
G04 #@! TO.C,SW2*
X114875000Y-30674000D02*
X120075000Y-30674000D01*
X120075000Y-30674000D02*
X120075000Y-35874000D01*
X120075000Y-35874000D02*
X114875000Y-35874000D01*
X114875000Y-35874000D02*
X114875000Y-30674000D01*
X118475000Y-33274000D02*
G75*
G03*
X118475000Y-33274000I-1000000J0D01*
G01*
G04 #@! TD*
%LPC*%
D14*
G04 #@! TO.C,MX6*
X134620000Y-57150000D03*
D15*
X139700000Y-57150000D03*
D14*
X144780000Y-57150000D03*
G04 #@! TD*
D16*
G04 #@! TO.C,D13*
X150177500Y-123825000D03*
D17*
X157797500Y-123825000D03*
G04 #@! TD*
D18*
G04 #@! TO.C,J1*
X174079000Y-31611000D03*
D19*
X174079000Y-34151000D03*
X174079000Y-36691000D03*
X174079000Y-39231000D03*
G04 #@! TD*
D14*
G04 #@! TO.C,MX18*
X191770000Y-57150000D03*
X201930000Y-57150000D03*
D15*
X196850000Y-57150000D03*
G04 #@! TD*
D17*
G04 #@! TO.C,D4*
X117316250Y-123031250D03*
D16*
X109696250Y-123031250D03*
G04 #@! TD*
D20*
G04 #@! TO.C,MX16*
X170815000Y-97663000D03*
D14*
X177800000Y-80645000D03*
D20*
X170815000Y-73787000D03*
D15*
X177800000Y-85725000D03*
X186055000Y-73787000D03*
X186055000Y-97663000D03*
D14*
X177800000Y-90805000D03*
G04 #@! TD*
D15*
G04 #@! TO.C,MX20*
X196850000Y-95250000D03*
D14*
X191770000Y-95250000D03*
X201930000Y-95250000D03*
G04 #@! TD*
G04 #@! TO.C,MX1*
X125730000Y-57150000D03*
X115570000Y-57150000D03*
D15*
X120650000Y-57150000D03*
G04 #@! TD*
D14*
G04 #@! TO.C,MX13*
X153670000Y-114300000D03*
D15*
X158750000Y-114300000D03*
D14*
X163830000Y-114300000D03*
G04 #@! TD*
D16*
G04 #@! TO.C,D11*
X147796250Y-85725000D03*
D17*
X155416250Y-85725000D03*
G04 #@! TD*
D15*
G04 #@! TO.C,MX17*
X186055000Y-111887000D03*
X186055000Y-135763000D03*
X177800000Y-123825000D03*
D14*
X177800000Y-128905000D03*
X177800000Y-118745000D03*
D20*
X170815000Y-135763000D03*
X170815000Y-111887000D03*
G04 #@! TD*
D17*
G04 #@! TO.C,D3*
X117316250Y-104775000D03*
D16*
X109696250Y-104775000D03*
G04 #@! TD*
G04 #@! TO.C,D7*
X128746250Y-85725000D03*
D17*
X136366250Y-85725000D03*
G04 #@! TD*
D14*
G04 #@! TO.C,MX7*
X144780000Y-76200000D03*
D15*
X139700000Y-76200000D03*
D14*
X134620000Y-76200000D03*
G04 #@! TD*
D15*
G04 #@! TO.C,MX10*
X158750000Y-57150000D03*
D14*
X163830000Y-57150000D03*
X153670000Y-57150000D03*
G04 #@! TD*
G04 #@! TO.C,MX14*
X163830000Y-133350000D03*
D15*
X158750000Y-133350000D03*
D14*
X153670000Y-133350000D03*
G04 #@! TD*
D16*
G04 #@! TO.C,D14*
X147796250Y-142875000D03*
D17*
X155416250Y-142875000D03*
G04 #@! TD*
D16*
G04 #@! TO.C,D19*
X190658750Y-85725000D03*
D17*
X198278750Y-85725000D03*
G04 #@! TD*
D16*
G04 #@! TO.C,D9*
X128746250Y-123825000D03*
D17*
X136366250Y-123825000D03*
G04 #@! TD*
G04 #@! TO.C,D1*
X117316250Y-66675000D03*
D16*
X109696250Y-66675000D03*
G04 #@! TD*
G04 #@! TO.C,D5*
X109696250Y-131762500D03*
D17*
X109696250Y-139382500D03*
G04 #@! TD*
D14*
G04 #@! TO.C,MX11*
X163830000Y-76200000D03*
D15*
X158750000Y-76200000D03*
D14*
X153670000Y-76200000D03*
G04 #@! TD*
D21*
G04 #@! TO.C,SW1*
X189366798Y-37748048D03*
D22*
X189366798Y-42748048D03*
X189366798Y-40248048D03*
D23*
X196866798Y-45848048D03*
X196866798Y-34648048D03*
D22*
X203866798Y-42748048D03*
X203866798Y-37748048D03*
G04 #@! TD*
D16*
G04 #@! TO.C,D12*
X147796250Y-104775000D03*
D17*
X155416250Y-104775000D03*
G04 #@! TD*
D24*
G04 #@! TO.C,SW3*
X185356250Y-26491250D03*
X183356250Y-26491250D03*
D25*
X181356250Y-26491250D03*
D26*
X187456250Y-26491250D03*
X179256250Y-26491250D03*
G04 #@! TD*
D16*
G04 #@! TO.C,A1*
X117475000Y-25666250D03*
D27*
X120015000Y-25666250D03*
X122555000Y-25666250D03*
X125095000Y-25666250D03*
X127635000Y-25666250D03*
X130175000Y-25666250D03*
X132715000Y-25666250D03*
X135255000Y-25666250D03*
X137795000Y-25666250D03*
X140335000Y-25666250D03*
X142875000Y-25666250D03*
X145415000Y-25666250D03*
X147955000Y-25666250D03*
X150495000Y-25666250D03*
X153035000Y-25666250D03*
X155575000Y-25666250D03*
X155575000Y-45986250D03*
X153035000Y-45986250D03*
X150495000Y-45986250D03*
X147955000Y-45986250D03*
X145415000Y-45986250D03*
X142875000Y-45986250D03*
X140335000Y-45986250D03*
X137795000Y-45986250D03*
X135255000Y-45986250D03*
X132715000Y-45986250D03*
X130175000Y-45986250D03*
X127635000Y-45986250D03*
G04 #@! TD*
D14*
G04 #@! TO.C,MX3*
X115570000Y-95250000D03*
D15*
X120650000Y-95250000D03*
D14*
X125730000Y-95250000D03*
G04 #@! TD*
D28*
G04 #@! TO.C,SW2*
X114375000Y-31424000D03*
X120575000Y-35124000D03*
X114375000Y-35124000D03*
X120575000Y-31424000D03*
G04 #@! TD*
D17*
G04 #@! TO.C,D23*
X193516250Y-48418750D03*
D16*
X185896250Y-48418750D03*
G04 #@! TD*
G04 #@! TO.C,D10*
X147796250Y-66675000D03*
D17*
X155416250Y-66675000D03*
G04 #@! TD*
D15*
G04 #@! TO.C,MX9*
X139700000Y-114300000D03*
D14*
X134620000Y-114300000D03*
X144780000Y-114300000D03*
G04 #@! TD*
D16*
G04 #@! TO.C,D22*
X185896250Y-142875000D03*
D17*
X193516250Y-142875000D03*
G04 #@! TD*
D16*
G04 #@! TO.C,D20*
X190658750Y-104775000D03*
D17*
X198278750Y-104775000D03*
G04 #@! TD*
D14*
G04 #@! TO.C,MX19*
X201930000Y-76200000D03*
X191770000Y-76200000D03*
D15*
X196850000Y-76200000D03*
G04 #@! TD*
G04 #@! TO.C,MX22*
X196850000Y-133350000D03*
D14*
X201930000Y-133350000D03*
X191770000Y-133350000D03*
G04 #@! TD*
G04 #@! TO.C,MX2*
X115570000Y-76200000D03*
D15*
X120650000Y-76200000D03*
D14*
X125730000Y-76200000D03*
G04 #@! TD*
D15*
G04 #@! TO.C,MX15*
X177800000Y-57150000D03*
D14*
X182880000Y-57150000D03*
X172720000Y-57150000D03*
G04 #@! TD*
D16*
G04 #@! TO.C,D6*
X128746250Y-66675000D03*
D17*
X136366250Y-66675000D03*
G04 #@! TD*
D16*
G04 #@! TO.C,D8*
X128746250Y-104775000D03*
D17*
X136366250Y-104775000D03*
G04 #@! TD*
D14*
G04 #@! TO.C,MX4*
X115570000Y-114300000D03*
D15*
X120650000Y-114300000D03*
D14*
X125730000Y-114300000D03*
G04 #@! TD*
D16*
G04 #@! TO.C,D15*
X166846250Y-66675000D03*
D17*
X174466250Y-66675000D03*
G04 #@! TD*
D15*
G04 #@! TO.C,MX8*
X139700000Y-95250000D03*
D14*
X134620000Y-95250000D03*
X144780000Y-95250000D03*
G04 #@! TD*
D16*
G04 #@! TO.C,D16*
X166846250Y-104775000D03*
D17*
X174466250Y-104775000D03*
G04 #@! TD*
D20*
G04 #@! TO.C,MX5*
X142113000Y-126365000D03*
D15*
X118237000Y-141605000D03*
D14*
X125095000Y-133350000D03*
X135255000Y-133350000D03*
D15*
X130175000Y-133350000D03*
X142113000Y-141605000D03*
D20*
X118237000Y-126365000D03*
G04 #@! TD*
D14*
G04 #@! TO.C,MX21*
X201930000Y-114300000D03*
D15*
X196850000Y-114300000D03*
D14*
X191770000Y-114300000D03*
G04 #@! TD*
D16*
G04 #@! TO.C,D17*
X166846250Y-142875000D03*
D17*
X174466250Y-142875000D03*
G04 #@! TD*
G04 #@! TO.C,D2*
X117316250Y-85725000D03*
D16*
X109696250Y-85725000D03*
G04 #@! TD*
D14*
G04 #@! TO.C,MX12*
X163830000Y-95250000D03*
X153670000Y-95250000D03*
D15*
X158750000Y-95250000D03*
G04 #@! TD*
D16*
G04 #@! TO.C,D18*
X188277500Y-66675000D03*
D17*
X195897500Y-66675000D03*
G04 #@! TD*
G04 #@! TO.C,D21*
X198278750Y-123825000D03*
D16*
X190658750Y-123825000D03*
G04 #@! TD*
M02*
