G04 #@! TF.GenerationSoftware,KiCad,Pcbnew,(6.0.8)*
G04 #@! TF.CreationDate,2022-10-30T18:54:34+01:00*
G04 #@! TF.ProjectId,Project-macropad-V2,50726f6a-6563-4742-9d6d-6163726f7061,rev?*
G04 #@! TF.SameCoordinates,Original*
G04 #@! TF.FileFunction,Copper,L1,Top*
G04 #@! TF.FilePolarity,Positive*
%FSLAX46Y46*%
G04 Gerber Fmt 4.6, Leading zero omitted, Abs format (unit mm)*
G04 Created by KiCad (PCBNEW (6.0.8)) date 2022-10-30 18:54:34*
%MOMM*%
%LPD*%
G01*
G04 APERTURE LIST*
G04 Aperture macros list*
%AMHorizOval*
0 Thick line with rounded ends*
0 $1 width*
0 $2 $3 position (X,Y) of the first rounded end (center of the circle)*
0 $4 $5 position (X,Y) of the second rounded end (center of the circle)*
0 Add line between two ends*
20,1,$1,$2,$3,$4,$5,0*
0 Add two circle primitives to create the rounded ends*
1,1,$1,$2,$3*
1,1,$1,$4,$5*%
G04 Aperture macros list end*
G04 #@! TA.AperFunction,ComponentPad*
%ADD10C,2.250000*%
G04 #@! TD*
G04 #@! TA.AperFunction,ComponentPad*
%ADD11HorizOval,2.250000X0.655001X0.730000X-0.655001X-0.730000X0*%
G04 #@! TD*
G04 #@! TA.AperFunction,ComponentPad*
%ADD12HorizOval,2.250000X0.020000X0.290000X-0.020000X-0.290000X0*%
G04 #@! TD*
G04 #@! TA.AperFunction,ComponentPad*
%ADD13R,1.600000X1.600000*%
G04 #@! TD*
G04 #@! TA.AperFunction,ComponentPad*
%ADD14O,1.600000X1.600000*%
G04 #@! TD*
G04 #@! TA.AperFunction,ComponentPad*
%ADD15R,1.700000X1.700000*%
G04 #@! TD*
G04 #@! TA.AperFunction,ComponentPad*
%ADD16O,1.700000X1.700000*%
G04 #@! TD*
G04 #@! TA.AperFunction,ComponentPad*
%ADD17HorizOval,2.250000X-0.730000X0.655001X0.730000X-0.655001X0*%
G04 #@! TD*
G04 #@! TA.AperFunction,ComponentPad*
%ADD18HorizOval,2.250000X-0.290000X0.020000X0.290000X-0.020000X0*%
G04 #@! TD*
G04 #@! TA.AperFunction,ComponentPad*
%ADD19R,2.000000X2.000000*%
G04 #@! TD*
G04 #@! TA.AperFunction,ComponentPad*
%ADD20C,2.000000*%
G04 #@! TD*
G04 #@! TA.AperFunction,ComponentPad*
%ADD21C,3.200000*%
G04 #@! TD*
G04 #@! TA.AperFunction,ComponentPad*
%ADD22O,1.500000X2.500000*%
G04 #@! TD*
G04 #@! TA.AperFunction,ComponentPad*
%ADD23R,1.500000X2.500000*%
G04 #@! TD*
G04 #@! TA.AperFunction,ComponentPad*
%ADD24O,2.200000X3.500000*%
G04 #@! TD*
G04 #@! TA.AperFunction,ComponentPad*
%ADD25C,1.600000*%
G04 #@! TD*
G04 #@! TA.AperFunction,SMDPad,CuDef*
%ADD26R,1.800000X1.100000*%
G04 #@! TD*
G04 #@! TA.AperFunction,ViaPad*
%ADD27C,0.800000*%
G04 #@! TD*
G04 #@! TA.AperFunction,Conductor*
%ADD28C,0.254000*%
G04 #@! TD*
G04 #@! TA.AperFunction,Conductor*
%ADD29C,0.381000*%
G04 #@! TD*
G04 APERTURE END LIST*
D10*
G04 #@! TO.P,MX6,1,COL*
G04 #@! TO.N,Net-(D6-Pad2)*
X137200000Y-53150000D03*
D11*
X136545001Y-53880000D03*
D12*
G04 #@! TO.P,MX6,2,ROW*
G04 #@! TO.N,ROW1*
X142220000Y-52360000D03*
D10*
X142240000Y-52070000D03*
G04 #@! TD*
D13*
G04 #@! TO.P,D13,1,K*
G04 #@! TO.N,COL2*
X150177500Y-123825000D03*
D14*
G04 #@! TO.P,D13,2,A*
G04 #@! TO.N,Net-(D13-Pad2)*
X157797500Y-123825000D03*
G04 #@! TD*
D15*
G04 #@! TO.P,J1,1,Pin_1*
G04 #@! TO.N,GND*
X174079000Y-31611000D03*
D16*
G04 #@! TO.P,J1,2,Pin_2*
G04 #@! TO.N,+3V3*
X174079000Y-34151000D03*
G04 #@! TO.P,J1,3,Pin_3*
G04 #@! TO.N,SCL*
X174079000Y-36691000D03*
G04 #@! TO.P,J1,4,Pin_4*
G04 #@! TO.N,SDA*
X174079000Y-39231000D03*
G04 #@! TD*
D11*
G04 #@! TO.P,MX18,1,COL*
G04 #@! TO.N,Net-(D18-Pad2)*
X193695001Y-53880000D03*
D10*
X194350000Y-53150000D03*
D12*
G04 #@! TO.P,MX18,2,ROW*
G04 #@! TO.N,ROW1*
X199370000Y-52360000D03*
D10*
X199390000Y-52070000D03*
G04 #@! TD*
D14*
G04 #@! TO.P,D4,2,A*
G04 #@! TO.N,Net-(D4-Pad2)*
X117316250Y-123031250D03*
D13*
G04 #@! TO.P,D4,1,K*
G04 #@! TO.N,COL0*
X109696250Y-123031250D03*
G04 #@! TD*
D17*
G04 #@! TO.P,MX16,1,COL*
G04 #@! TO.N,Net-(D16-Pad2)*
X174530000Y-88879999D03*
D10*
X173800000Y-88225000D03*
D18*
G04 #@! TO.P,MX16,2,ROW*
G04 #@! TO.N,ROW2*
X173010000Y-83205000D03*
D10*
X172720000Y-83185000D03*
G04 #@! TD*
G04 #@! TO.P,MX20,1,COL*
G04 #@! TO.N,Net-(D20-Pad2)*
X194350000Y-91250000D03*
D11*
X193695001Y-91980000D03*
D10*
G04 #@! TO.P,MX20,2,ROW*
G04 #@! TO.N,ROW3*
X199390000Y-90170000D03*
D12*
X199370000Y-90460000D03*
G04 #@! TD*
D10*
G04 #@! TO.P,MX1,1,COL*
G04 #@! TO.N,Net-(D1-Pad2)*
X118150000Y-53150000D03*
D11*
X117495001Y-53880000D03*
D12*
G04 #@! TO.P,MX1,2,ROW*
G04 #@! TO.N,ROW1*
X123170000Y-52360000D03*
D10*
X123190000Y-52070000D03*
G04 #@! TD*
G04 #@! TO.P,MX13,1,COL*
G04 #@! TO.N,Net-(D13-Pad2)*
X156250000Y-110300000D03*
D11*
X155595001Y-111030000D03*
D10*
G04 #@! TO.P,MX13,2,ROW*
G04 #@! TO.N,ROW4*
X161290000Y-109220000D03*
D12*
X161270000Y-109510000D03*
G04 #@! TD*
D13*
G04 #@! TO.P,D11,1,K*
G04 #@! TO.N,COL2*
X147796250Y-85725000D03*
D14*
G04 #@! TO.P,D11,2,A*
G04 #@! TO.N,Net-(D11-Pad2)*
X155416250Y-85725000D03*
G04 #@! TD*
D17*
G04 #@! TO.P,MX17,1,COL*
G04 #@! TO.N,Net-(D17-Pad2)*
X174530000Y-126979999D03*
D10*
X173800000Y-126325000D03*
D18*
G04 #@! TO.P,MX17,2,ROW*
G04 #@! TO.N,ROW4*
X173010000Y-121305000D03*
D10*
X172720000Y-121285000D03*
G04 #@! TD*
D14*
G04 #@! TO.P,D3,2,A*
G04 #@! TO.N,Net-(D3-Pad2)*
X117316250Y-104775000D03*
D13*
G04 #@! TO.P,D3,1,K*
G04 #@! TO.N,COL0*
X109696250Y-104775000D03*
G04 #@! TD*
G04 #@! TO.P,D7,1,K*
G04 #@! TO.N,COL1*
X128746250Y-85725000D03*
D14*
G04 #@! TO.P,D7,2,A*
G04 #@! TO.N,Net-(D7-Pad2)*
X136366250Y-85725000D03*
G04 #@! TD*
D10*
G04 #@! TO.P,MX7,1,COL*
G04 #@! TO.N,Net-(D7-Pad2)*
X137200000Y-72200000D03*
D11*
X136545001Y-72930000D03*
D12*
G04 #@! TO.P,MX7,2,ROW*
G04 #@! TO.N,ROW2*
X142220000Y-71410000D03*
D10*
X142240000Y-71120000D03*
G04 #@! TD*
D11*
G04 #@! TO.P,MX10,1,COL*
G04 #@! TO.N,Net-(D10-Pad2)*
X155595001Y-53880000D03*
D10*
X156250000Y-53150000D03*
G04 #@! TO.P,MX10,2,ROW*
G04 #@! TO.N,ROW1*
X161290000Y-52070000D03*
D12*
X161270000Y-52360000D03*
G04 #@! TD*
D10*
G04 #@! TO.P,MX14,1,COL*
G04 #@! TO.N,Net-(D14-Pad2)*
X156250000Y-129350000D03*
D11*
X155595001Y-130080000D03*
D12*
G04 #@! TO.P,MX14,2,ROW*
G04 #@! TO.N,ROW5*
X161270000Y-128560000D03*
D10*
X161290000Y-128270000D03*
G04 #@! TD*
D13*
G04 #@! TO.P,D14,1,K*
G04 #@! TO.N,COL2*
X147796250Y-142875000D03*
D14*
G04 #@! TO.P,D14,2,A*
G04 #@! TO.N,Net-(D14-Pad2)*
X155416250Y-142875000D03*
G04 #@! TD*
D13*
G04 #@! TO.P,D19,1,K*
G04 #@! TO.N,COL4*
X190658750Y-85725000D03*
D14*
G04 #@! TO.P,D19,2,A*
G04 #@! TO.N,Net-(D19-Pad2)*
X198278750Y-85725000D03*
G04 #@! TD*
D13*
G04 #@! TO.P,D9,1,K*
G04 #@! TO.N,COL1*
X128746250Y-123825000D03*
D14*
G04 #@! TO.P,D9,2,A*
G04 #@! TO.N,Net-(D9-Pad2)*
X136366250Y-123825000D03*
G04 #@! TD*
G04 #@! TO.P,D1,2,A*
G04 #@! TO.N,Net-(D1-Pad2)*
X117316250Y-66675000D03*
D13*
G04 #@! TO.P,D1,1,K*
G04 #@! TO.N,COL0*
X109696250Y-66675000D03*
G04 #@! TD*
G04 #@! TO.P,D5,1,K*
G04 #@! TO.N,COL0*
X109696250Y-131762500D03*
D14*
G04 #@! TO.P,D5,2,A*
G04 #@! TO.N,Net-(D5-Pad2)*
X109696250Y-139382500D03*
G04 #@! TD*
D11*
G04 #@! TO.P,MX11,1,COL*
G04 #@! TO.N,Net-(D11-Pad2)*
X155595001Y-72930000D03*
D10*
X156250000Y-72200000D03*
D12*
G04 #@! TO.P,MX11,2,ROW*
G04 #@! TO.N,ROW2*
X161270000Y-71410000D03*
D10*
X161290000Y-71120000D03*
G04 #@! TD*
D19*
G04 #@! TO.P,SW1,A,A*
G04 #@! TO.N,ROT1*
X189366798Y-37748048D03*
D20*
G04 #@! TO.P,SW1,B,B*
G04 #@! TO.N,ROT2*
X189366798Y-42748048D03*
G04 #@! TO.P,SW1,C,C*
G04 #@! TO.N,GND*
X189366798Y-40248048D03*
D21*
G04 #@! TO.P,SW1,MP*
G04 #@! TO.N,N/C*
X196866798Y-45848048D03*
X196866798Y-34648048D03*
D20*
G04 #@! TO.P,SW1,S1,S1*
G04 #@! TO.N,Net-(D23-Pad2)*
X203866798Y-42748048D03*
G04 #@! TO.P,SW1,S2,S2*
G04 #@! TO.N,ROW0*
X203866798Y-37748048D03*
G04 #@! TD*
D13*
G04 #@! TO.P,D12,1,K*
G04 #@! TO.N,COL2*
X147796250Y-104775000D03*
D14*
G04 #@! TO.P,D12,2,A*
G04 #@! TO.N,Net-(D12-Pad2)*
X155416250Y-104775000D03*
G04 #@! TD*
D22*
G04 #@! TO.P,SW3,3,C*
G04 #@! TO.N,unconnected-(SW3-Pad3)*
X185356250Y-26491250D03*
G04 #@! TO.P,SW3,2,B*
G04 #@! TO.N,Net-(A1-Pad27)*
X183356250Y-26491250D03*
D23*
G04 #@! TO.P,SW3,1,A*
G04 #@! TO.N,GND*
X181356250Y-26491250D03*
D24*
G04 #@! TO.P,SW3,*
G04 #@! TO.N,*
X187456250Y-26491250D03*
X179256250Y-26491250D03*
G04 #@! TD*
D13*
G04 #@! TO.P,A1,1,~{RESET}*
G04 #@! TO.N,Net-(A1-Pad1)*
X117475000Y-25666250D03*
D25*
G04 #@! TO.P,A1,2,3V3*
G04 #@! TO.N,+3V3*
X120015000Y-25666250D03*
G04 #@! TO.P,A1,3,AREF*
G04 #@! TO.N,unconnected-(A1-Pad3)*
X122555000Y-25666250D03*
G04 #@! TO.P,A1,4,GND*
G04 #@! TO.N,GND*
X125095000Y-25666250D03*
G04 #@! TO.P,A1,5,A0*
G04 #@! TO.N,ROW5*
X127635000Y-25666250D03*
G04 #@! TO.P,A1,6,A1*
G04 #@! TO.N,ROW4*
X130175000Y-25666250D03*
G04 #@! TO.P,A1,7,A2*
G04 #@! TO.N,ROW3*
X132715000Y-25666250D03*
G04 #@! TO.P,A1,8,A3*
G04 #@! TO.N,ROW2*
X135255000Y-25666250D03*
G04 #@! TO.P,A1,9,A4*
G04 #@! TO.N,ROW1*
X137795000Y-25666250D03*
G04 #@! TO.P,A1,10,A5*
G04 #@! TO.N,ROW0*
X140335000Y-25666250D03*
G04 #@! TO.P,A1,11,SCK/D15*
G04 #@! TO.N,unconnected-(A1-Pad11)*
X142875000Y-25666250D03*
G04 #@! TO.P,A1,12,MOSI/D16*
G04 #@! TO.N,unconnected-(A1-Pad12)*
X145415000Y-25666250D03*
G04 #@! TO.P,A1,13,MISO/D14*
G04 #@! TO.N,unconnected-(A1-Pad13)*
X147955000Y-25666250D03*
G04 #@! TO.P,A1,14,RX/D0*
G04 #@! TO.N,unconnected-(A1-Pad14)*
X150495000Y-25666250D03*
G04 #@! TO.P,A1,15,TX/D1*
G04 #@! TO.N,unconnected-(A1-Pad15)*
X153035000Y-25666250D03*
G04 #@! TO.P,A1,16,~{DFU}*
G04 #@! TO.N,unconnected-(A1-Pad16)*
X155575000Y-25666250D03*
G04 #@! TO.P,A1,17,SDA/D2*
G04 #@! TO.N,SDA*
X155575000Y-45986250D03*
G04 #@! TO.P,A1,18,SCL/D3*
G04 #@! TO.N,SCL*
X153035000Y-45986250D03*
G04 #@! TO.P,A1,19,D5*
G04 #@! TO.N,ROT1*
X150495000Y-45986250D03*
G04 #@! TO.P,A1,20,D6*
G04 #@! TO.N,ROT2*
X147955000Y-45986250D03*
G04 #@! TO.P,A1,21,D9*
G04 #@! TO.N,COL4*
X145415000Y-45986250D03*
G04 #@! TO.P,A1,22,D10*
G04 #@! TO.N,COL3*
X142875000Y-45986250D03*
G04 #@! TO.P,A1,23,D11*
G04 #@! TO.N,COL2*
X140335000Y-45986250D03*
G04 #@! TO.P,A1,24,D12*
G04 #@! TO.N,COL1*
X137795000Y-45986250D03*
G04 #@! TO.P,A1,25,D13*
G04 #@! TO.N,COL0*
X135255000Y-45986250D03*
G04 #@! TO.P,A1,26,USB*
G04 #@! TO.N,unconnected-(A1-Pad26)*
X132715000Y-45986250D03*
G04 #@! TO.P,A1,27,EN*
G04 #@! TO.N,Net-(A1-Pad27)*
X130175000Y-45986250D03*
G04 #@! TO.P,A1,28,VBAT*
G04 #@! TO.N,unconnected-(A1-Pad28)*
X127635000Y-45986250D03*
G04 #@! TD*
D11*
G04 #@! TO.P,MX3,1,COL*
G04 #@! TO.N,Net-(D3-Pad2)*
X117495001Y-91980000D03*
D10*
X118150000Y-91250000D03*
D12*
G04 #@! TO.P,MX3,2,ROW*
G04 #@! TO.N,ROW3*
X123170000Y-90460000D03*
D10*
X123190000Y-90170000D03*
G04 #@! TD*
D26*
G04 #@! TO.P,SW2,1,1*
G04 #@! TO.N,Net-(A1-Pad1)*
X114375000Y-31424000D03*
G04 #@! TO.P,SW2,2,2*
G04 #@! TO.N,GND*
X120575000Y-35124000D03*
G04 #@! TO.P,SW2,3*
G04 #@! TO.N,N/C*
X114375000Y-35124000D03*
G04 #@! TO.P,SW2,4*
X120575000Y-31424000D03*
G04 #@! TD*
D14*
G04 #@! TO.P,D23,2,A*
G04 #@! TO.N,Net-(D23-Pad2)*
X193516250Y-48418750D03*
D13*
G04 #@! TO.P,D23,1,K*
G04 #@! TO.N,COL4*
X185896250Y-48418750D03*
G04 #@! TD*
G04 #@! TO.P,D10,1,K*
G04 #@! TO.N,COL2*
X147796250Y-66675000D03*
D14*
G04 #@! TO.P,D10,2,A*
G04 #@! TO.N,Net-(D10-Pad2)*
X155416250Y-66675000D03*
G04 #@! TD*
D11*
G04 #@! TO.P,MX9,1,COL*
G04 #@! TO.N,Net-(D9-Pad2)*
X136545001Y-111030000D03*
D10*
X137200000Y-110300000D03*
D12*
G04 #@! TO.P,MX9,2,ROW*
G04 #@! TO.N,ROW4*
X142220000Y-109510000D03*
D10*
X142240000Y-109220000D03*
G04 #@! TD*
D13*
G04 #@! TO.P,D22,1,K*
G04 #@! TO.N,COL4*
X185896250Y-142875000D03*
D14*
G04 #@! TO.P,D22,2,A*
G04 #@! TO.N,Net-(D22-Pad2)*
X193516250Y-142875000D03*
G04 #@! TD*
D13*
G04 #@! TO.P,D20,1,K*
G04 #@! TO.N,COL4*
X190658750Y-104775000D03*
D14*
G04 #@! TO.P,D20,2,A*
G04 #@! TO.N,Net-(D20-Pad2)*
X198278750Y-104775000D03*
G04 #@! TD*
D11*
G04 #@! TO.P,MX19,1,COL*
G04 #@! TO.N,Net-(D19-Pad2)*
X193695001Y-72930000D03*
D10*
X194350000Y-72200000D03*
D12*
G04 #@! TO.P,MX19,2,ROW*
G04 #@! TO.N,ROW2*
X199370000Y-71410000D03*
D10*
X199390000Y-71120000D03*
G04 #@! TD*
G04 #@! TO.P,MX22,1,COL*
G04 #@! TO.N,Net-(D22-Pad2)*
X194350000Y-129350000D03*
D11*
X193695001Y-130080000D03*
D10*
G04 #@! TO.P,MX22,2,ROW*
G04 #@! TO.N,ROW5*
X199390000Y-128270000D03*
D12*
X199370000Y-128560000D03*
G04 #@! TD*
D11*
G04 #@! TO.P,MX2,1,COL*
G04 #@! TO.N,Net-(D2-Pad2)*
X117495001Y-72930000D03*
D10*
X118150000Y-72200000D03*
D12*
G04 #@! TO.P,MX2,2,ROW*
G04 #@! TO.N,ROW2*
X123170000Y-71410000D03*
D10*
X123190000Y-71120000D03*
G04 #@! TD*
D11*
G04 #@! TO.P,MX15,1,COL*
G04 #@! TO.N,Net-(D15-Pad2)*
X174645001Y-53880000D03*
D10*
X175300000Y-53150000D03*
G04 #@! TO.P,MX15,2,ROW*
G04 #@! TO.N,ROW1*
X180340000Y-52070000D03*
D12*
X180320000Y-52360000D03*
G04 #@! TD*
D13*
G04 #@! TO.P,D6,1,K*
G04 #@! TO.N,COL1*
X128746250Y-66675000D03*
D14*
G04 #@! TO.P,D6,2,A*
G04 #@! TO.N,Net-(D6-Pad2)*
X136366250Y-66675000D03*
G04 #@! TD*
D13*
G04 #@! TO.P,D8,1,K*
G04 #@! TO.N,COL1*
X128746250Y-104775000D03*
D14*
G04 #@! TO.P,D8,2,A*
G04 #@! TO.N,Net-(D8-Pad2)*
X136366250Y-104775000D03*
G04 #@! TD*
D10*
G04 #@! TO.P,MX4,1,COL*
G04 #@! TO.N,Net-(D4-Pad2)*
X118150000Y-110300000D03*
D11*
X117495001Y-111030000D03*
D10*
G04 #@! TO.P,MX4,2,ROW*
G04 #@! TO.N,ROW4*
X123190000Y-109220000D03*
D12*
X123170000Y-109510000D03*
G04 #@! TD*
D13*
G04 #@! TO.P,D15,1,K*
G04 #@! TO.N,COL3*
X166846250Y-66675000D03*
D14*
G04 #@! TO.P,D15,2,A*
G04 #@! TO.N,Net-(D15-Pad2)*
X174466250Y-66675000D03*
G04 #@! TD*
D10*
G04 #@! TO.P,MX8,1,COL*
G04 #@! TO.N,Net-(D8-Pad2)*
X137200000Y-91250000D03*
D11*
X136545001Y-91980000D03*
D10*
G04 #@! TO.P,MX8,2,ROW*
G04 #@! TO.N,ROW3*
X142240000Y-90170000D03*
D12*
X142220000Y-90460000D03*
G04 #@! TD*
D13*
G04 #@! TO.P,D16,1,K*
G04 #@! TO.N,COL3*
X166846250Y-104775000D03*
D14*
G04 #@! TO.P,D16,2,A*
G04 #@! TO.N,Net-(D16-Pad2)*
X174466250Y-104775000D03*
G04 #@! TD*
D10*
G04 #@! TO.P,MX5,1,COL*
G04 #@! TO.N,Net-(D5-Pad2)*
X127675000Y-129350000D03*
D11*
X127020001Y-130080000D03*
D12*
G04 #@! TO.P,MX5,2,ROW*
G04 #@! TO.N,ROW5*
X132695000Y-128560000D03*
D10*
X132715000Y-128270000D03*
G04 #@! TD*
G04 #@! TO.P,MX21,1,COL*
G04 #@! TO.N,Net-(D21-Pad2)*
X194350000Y-110300000D03*
D11*
X193695001Y-111030000D03*
D10*
G04 #@! TO.P,MX21,2,ROW*
G04 #@! TO.N,ROW4*
X199390000Y-109220000D03*
D12*
X199370000Y-109510000D03*
G04 #@! TD*
D13*
G04 #@! TO.P,D17,1,K*
G04 #@! TO.N,COL3*
X166846250Y-142875000D03*
D14*
G04 #@! TO.P,D17,2,A*
G04 #@! TO.N,Net-(D17-Pad2)*
X174466250Y-142875000D03*
G04 #@! TD*
G04 #@! TO.P,D2,2,A*
G04 #@! TO.N,Net-(D2-Pad2)*
X117316250Y-85725000D03*
D13*
G04 #@! TO.P,D2,1,K*
G04 #@! TO.N,COL0*
X109696250Y-85725000D03*
G04 #@! TD*
D11*
G04 #@! TO.P,MX12,1,COL*
G04 #@! TO.N,Net-(D12-Pad2)*
X155595001Y-91980000D03*
D10*
X156250000Y-91250000D03*
D12*
G04 #@! TO.P,MX12,2,ROW*
G04 #@! TO.N,ROW3*
X161270000Y-90460000D03*
D10*
X161290000Y-90170000D03*
G04 #@! TD*
D13*
G04 #@! TO.P,D18,1,K*
G04 #@! TO.N,COL4*
X188277500Y-66675000D03*
D14*
G04 #@! TO.P,D18,2,A*
G04 #@! TO.N,Net-(D18-Pad2)*
X195897500Y-66675000D03*
G04 #@! TD*
G04 #@! TO.P,D21,2,A*
G04 #@! TO.N,Net-(D21-Pad2)*
X198278750Y-123825000D03*
D13*
G04 #@! TO.P,D21,1,K*
G04 #@! TO.N,COL4*
X190658750Y-123825000D03*
G04 #@! TD*
D27*
G04 #@! TO.N,Net-(A1-Pad27)*
X183388000Y-37592000D03*
G04 #@! TO.N,+3V3*
X126365000Y-33401000D03*
G04 #@! TD*
D28*
G04 #@! TO.N,COL2*
X147796250Y-104775000D02*
X147796250Y-85725000D01*
X147796250Y-85725000D02*
X147796250Y-66675000D01*
X147796250Y-66675000D02*
X147796250Y-50641250D01*
X147796250Y-121443750D02*
X150177500Y-123825000D01*
X147796250Y-104775000D02*
X147796250Y-121443750D01*
X147796250Y-126206250D02*
X150177500Y-123825000D01*
X147796250Y-142875000D02*
X147796250Y-126206250D01*
G04 #@! TO.N,Net-(D13-Pad2)*
X155575000Y-115579605D02*
X155575000Y-121602500D01*
X155575000Y-121602500D02*
X157797500Y-123825000D01*
X154940000Y-114944605D02*
X155575000Y-115579605D01*
X154940000Y-111760000D02*
X154940000Y-114944605D01*
G04 #@! TO.N,Net-(D23-Pad2)*
X202406250Y-48418750D02*
X193516250Y-48418750D01*
X203866798Y-46958202D02*
X202406250Y-48418750D01*
X203866798Y-42748048D02*
X203866798Y-46958202D01*
G04 #@! TO.N,COL4*
X185737500Y-48260000D02*
X145415000Y-48260000D01*
X185896250Y-64293750D02*
X185896250Y-48418750D01*
X185896250Y-48418750D02*
X185737500Y-48260000D01*
X188595000Y-66992500D02*
X185896250Y-64293750D01*
X145415000Y-48260000D02*
X145415000Y-45986250D01*
X188595000Y-80645000D02*
X188595000Y-66992500D01*
X190658750Y-82708750D02*
X188595000Y-80645000D01*
X190658750Y-85725000D02*
X190658750Y-82708750D01*
G04 #@! TO.N,Net-(D16-Pad2)*
X174466250Y-90328750D02*
X174466250Y-104775000D01*
X175260000Y-89535000D02*
X174466250Y-90328750D01*
G04 #@! TO.N,Net-(D18-Pad2)*
X193516250Y-64293750D02*
X195897500Y-66675000D01*
X193516250Y-55086250D02*
X193516250Y-64293750D01*
X193040000Y-54610000D02*
X193516250Y-55086250D01*
G04 #@! TO.N,Net-(D15-Pad2)*
X174466250Y-55086250D02*
X174466250Y-66675000D01*
X173990000Y-54610000D02*
X174466250Y-55086250D01*
G04 #@! TO.N,Net-(D10-Pad2)*
X155416250Y-55086250D02*
X155416250Y-66675000D01*
X154940000Y-54610000D02*
X155416250Y-55086250D01*
G04 #@! TO.N,Net-(D12-Pad2)*
X154940000Y-92710000D02*
X155416250Y-93186250D01*
X155416250Y-93186250D02*
X155416250Y-104775000D01*
G04 #@! TO.N,Net-(D7-Pad2)*
X136366250Y-74136250D02*
X136366250Y-85725000D01*
X135890000Y-73660000D02*
X136366250Y-74136250D01*
G04 #@! TO.N,Net-(D6-Pad2)*
X136366250Y-55086250D02*
X136366250Y-66675000D01*
X135890000Y-54610000D02*
X136366250Y-55086250D01*
G04 #@! TO.N,Net-(D1-Pad2)*
X117316250Y-55086250D02*
X117316250Y-66675000D01*
X116840000Y-54610000D02*
X117316250Y-55086250D01*
G04 #@! TO.N,Net-(D2-Pad2)*
X117316250Y-74136250D02*
X117316250Y-85725000D01*
X116840000Y-73660000D02*
X117316250Y-74136250D01*
G04 #@! TO.N,Net-(D3-Pad2)*
X116840000Y-92710000D02*
X117316250Y-93186250D01*
X117316250Y-93186250D02*
X117316250Y-104775000D01*
G04 #@! TO.N,Net-(D4-Pad2)*
X117316250Y-112236250D02*
X117316250Y-123031250D01*
X116840000Y-111760000D02*
X117316250Y-112236250D01*
G04 #@! TO.N,COL2*
X147320000Y-50165000D02*
X147796250Y-50641250D01*
X141605000Y-50165000D02*
X147320000Y-50165000D01*
X140335000Y-48895000D02*
X141605000Y-50165000D01*
X140335000Y-45986250D02*
X140335000Y-48895000D01*
G04 #@! TO.N,Net-(D14-Pad2)*
X155416250Y-131286250D02*
X155416250Y-142875000D01*
X154940000Y-130810000D02*
X155416250Y-131286250D01*
G04 #@! TO.N,COL3*
X164973000Y-49403000D02*
X166846250Y-51276250D01*
X166846250Y-51276250D02*
X166846250Y-142875000D01*
X143637000Y-49403000D02*
X164973000Y-49403000D01*
X142875000Y-48641000D02*
X143637000Y-49403000D01*
X142875000Y-45986250D02*
X142875000Y-48641000D01*
G04 #@! TO.N,Net-(D17-Pad2)*
X174466250Y-128428750D02*
X174466250Y-142875000D01*
X175260000Y-127635000D02*
X174466250Y-128428750D01*
G04 #@! TO.N,COL4*
X185896250Y-140493750D02*
X185896250Y-142875000D01*
G04 #@! TO.N,Net-(D22-Pad2)*
X193516250Y-131286250D02*
X193516250Y-142875000D01*
X193040000Y-130810000D02*
X193516250Y-131286250D01*
G04 #@! TO.N,COL4*
X190658750Y-120808750D02*
X190658750Y-123825000D01*
X188595000Y-118745000D02*
X190658750Y-120808750D01*
X188912500Y-123825000D02*
X188595000Y-124142500D01*
X190658750Y-123825000D02*
X188912500Y-123825000D01*
G04 #@! TO.N,Net-(D21-Pad2)*
X195897500Y-123825000D02*
X193516250Y-121443750D01*
X198278750Y-123825000D02*
X195897500Y-123825000D01*
G04 #@! TO.N,COL4*
X190658750Y-101758750D02*
X190658750Y-104775000D01*
X188595000Y-99695000D02*
X190658750Y-101758750D01*
X188912500Y-104775000D02*
X188595000Y-105092500D01*
X190658750Y-104775000D02*
X188912500Y-104775000D01*
G04 #@! TO.N,Net-(D20-Pad2)*
X195897500Y-104775000D02*
X198278750Y-104775000D01*
X193516250Y-102393750D02*
X195897500Y-104775000D01*
G04 #@! TO.N,Net-(D19-Pad2)*
X195897500Y-85725000D02*
X198278750Y-85725000D01*
X193516250Y-83343750D02*
X195897500Y-85725000D01*
G04 #@! TO.N,COL4*
X188912500Y-85725000D02*
X188595000Y-86042500D01*
X190658750Y-85725000D02*
X188912500Y-85725000D01*
G04 #@! TO.N,Net-(D11-Pad2)*
X155416250Y-74136250D02*
X155416250Y-85725000D01*
X154940000Y-73660000D02*
X155416250Y-74136250D01*
G04 #@! TO.N,Net-(D8-Pad2)*
X136366250Y-93186250D02*
X136366250Y-104775000D01*
X135890000Y-92710000D02*
X136366250Y-93186250D01*
G04 #@! TO.N,Net-(D9-Pad2)*
X136366250Y-112236250D02*
X136366250Y-123825000D01*
X135890000Y-111760000D02*
X136366250Y-112236250D01*
G04 #@! TO.N,COL1*
X133350000Y-50927000D02*
X128746250Y-55530750D01*
X137795000Y-50292000D02*
X137160000Y-50927000D01*
X137160000Y-50927000D02*
X133350000Y-50927000D01*
X137795000Y-45986250D02*
X137795000Y-50292000D01*
X128746250Y-55530750D02*
X128746250Y-123825000D01*
D29*
G04 #@! TO.N,GND*
X177867500Y-31611000D02*
X174079000Y-31611000D01*
X181356250Y-28122250D02*
X177867500Y-31611000D01*
X181356250Y-26491250D02*
X181356250Y-28122250D01*
D28*
G04 #@! TO.N,COL0*
X111125000Y-49530000D02*
X109696250Y-50958750D01*
X134620000Y-49530000D02*
X111125000Y-49530000D01*
X109696250Y-50958750D02*
X109696250Y-64293750D01*
X135255000Y-48895000D02*
X134620000Y-49530000D01*
X135255000Y-45986250D02*
X135255000Y-48895000D01*
D29*
G04 #@! TO.N,GND*
X173964000Y-31496000D02*
X174079000Y-31611000D01*
X127381000Y-31496000D02*
X173964000Y-31496000D01*
X126301500Y-30416500D02*
X127381000Y-31496000D01*
G04 #@! TO.N,+3V3*
X135509000Y-33401000D02*
X136271000Y-34163000D01*
X126365000Y-33401000D02*
X135509000Y-33401000D01*
X174079000Y-34151000D02*
X136283000Y-34151000D01*
D28*
G04 #@! TO.N,SCL*
X153035000Y-45986250D02*
X162330250Y-36691000D01*
X162330250Y-36691000D02*
X174079000Y-36691000D01*
G04 #@! TO.N,SDA*
X162330250Y-39231000D02*
X155575000Y-45986250D01*
X174079000Y-39231000D02*
X162330250Y-39231000D01*
G04 #@! TO.N,Net-(A1-Pad27)*
X183356250Y-37560250D02*
X183388000Y-37592000D01*
X183356250Y-26491250D02*
X183356250Y-37560250D01*
D29*
G04 #@! TO.N,GND*
X126301500Y-30416500D02*
X125095000Y-29210000D01*
X124841000Y-32639000D02*
X126301500Y-31178500D01*
X126301500Y-31178500D02*
X126301500Y-30416500D01*
X121666000Y-32639000D02*
X124841000Y-32639000D01*
X120575000Y-33730000D02*
X121666000Y-32639000D01*
X120575000Y-35124000D02*
X120575000Y-33730000D01*
D28*
G04 #@! TO.N,Net-(A1-Pad1)*
X114375000Y-31424000D02*
X114375000Y-28766250D01*
X114375000Y-28766250D02*
X117475000Y-25666250D01*
D29*
G04 #@! TO.N,GND*
X125095000Y-29210000D02*
X125095000Y-25666250D01*
X189366798Y-40248048D02*
X182565048Y-40248048D01*
X182565048Y-40248048D02*
X174079000Y-31762000D01*
D28*
G04 #@! TO.N,COL4*
X188595000Y-86042500D02*
X188595000Y-99695000D01*
X188595000Y-105092500D02*
X188595000Y-118745000D01*
X188595000Y-137795000D02*
X185896250Y-140493750D01*
X188595000Y-124142500D02*
X188595000Y-137795000D01*
G04 #@! TO.N,Net-(D19-Pad2)*
X193516250Y-74136250D02*
X193516250Y-83343750D01*
X193040000Y-73660000D02*
X193516250Y-74136250D01*
G04 #@! TO.N,Net-(D20-Pad2)*
X193516250Y-93186250D02*
X193516250Y-102393750D01*
X193040000Y-92710000D02*
X193516250Y-93186250D01*
G04 #@! TO.N,Net-(D21-Pad2)*
X193516250Y-112236250D02*
X193516250Y-121443750D01*
X193040000Y-111760000D02*
X193516250Y-112236250D01*
G04 #@! TO.N,COL0*
X109696250Y-83343750D02*
X109696250Y-64293750D01*
X109696250Y-102393750D02*
X109696250Y-83343750D01*
X109696250Y-121443750D02*
X109696250Y-102393750D01*
X109696250Y-131762500D02*
X109696250Y-121443750D01*
G04 #@! TD*
M02*
