G04 #@! TF.GenerationSoftware,KiCad,Pcbnew,(6.0.8)*
G04 #@! TF.CreationDate,2022-10-30T18:54:34+01:00*
G04 #@! TF.ProjectId,Project-macropad-V2,50726f6a-6563-4742-9d6d-6163726f7061,rev?*
G04 #@! TF.SameCoordinates,Original*
G04 #@! TF.FileFunction,Copper,L2,Bot*
G04 #@! TF.FilePolarity,Positive*
%FSLAX46Y46*%
G04 Gerber Fmt 4.6, Leading zero omitted, Abs format (unit mm)*
G04 Created by KiCad (PCBNEW (6.0.8)) date 2022-10-30 18:54:34*
%MOMM*%
%LPD*%
G01*
G04 APERTURE LIST*
G04 Aperture macros list*
%AMHorizOval*
0 Thick line with rounded ends*
0 $1 width*
0 $2 $3 position (X,Y) of the first rounded end (center of the circle)*
0 $4 $5 position (X,Y) of the second rounded end (center of the circle)*
0 Add line between two ends*
20,1,$1,$2,$3,$4,$5,0*
0 Add two circle primitives to create the rounded ends*
1,1,$1,$2,$3*
1,1,$1,$4,$5*%
G04 Aperture macros list end*
G04 #@! TA.AperFunction,ComponentPad*
%ADD10C,2.250000*%
G04 #@! TD*
G04 #@! TA.AperFunction,ComponentPad*
%ADD11HorizOval,2.250000X0.655001X0.730000X-0.655001X-0.730000X0*%
G04 #@! TD*
G04 #@! TA.AperFunction,ComponentPad*
%ADD12HorizOval,2.250000X0.020000X0.290000X-0.020000X-0.290000X0*%
G04 #@! TD*
G04 #@! TA.AperFunction,ComponentPad*
%ADD13R,1.600000X1.600000*%
G04 #@! TD*
G04 #@! TA.AperFunction,ComponentPad*
%ADD14O,1.600000X1.600000*%
G04 #@! TD*
G04 #@! TA.AperFunction,ComponentPad*
%ADD15R,1.700000X1.700000*%
G04 #@! TD*
G04 #@! TA.AperFunction,ComponentPad*
%ADD16O,1.700000X1.700000*%
G04 #@! TD*
G04 #@! TA.AperFunction,ComponentPad*
%ADD17HorizOval,2.250000X-0.730000X0.655001X0.730000X-0.655001X0*%
G04 #@! TD*
G04 #@! TA.AperFunction,ComponentPad*
%ADD18HorizOval,2.250000X-0.290000X0.020000X0.290000X-0.020000X0*%
G04 #@! TD*
G04 #@! TA.AperFunction,ComponentPad*
%ADD19R,2.000000X2.000000*%
G04 #@! TD*
G04 #@! TA.AperFunction,ComponentPad*
%ADD20C,2.000000*%
G04 #@! TD*
G04 #@! TA.AperFunction,ComponentPad*
%ADD21C,3.200000*%
G04 #@! TD*
G04 #@! TA.AperFunction,ComponentPad*
%ADD22O,1.500000X2.500000*%
G04 #@! TD*
G04 #@! TA.AperFunction,ComponentPad*
%ADD23R,1.500000X2.500000*%
G04 #@! TD*
G04 #@! TA.AperFunction,ComponentPad*
%ADD24O,2.200000X3.500000*%
G04 #@! TD*
G04 #@! TA.AperFunction,ComponentPad*
%ADD25C,1.600000*%
G04 #@! TD*
G04 #@! TA.AperFunction,ViaPad*
%ADD26C,0.800000*%
G04 #@! TD*
G04 #@! TA.AperFunction,Conductor*
%ADD27C,0.254000*%
G04 #@! TD*
G04 #@! TA.AperFunction,Conductor*
%ADD28C,0.381000*%
G04 #@! TD*
G04 APERTURE END LIST*
D10*
G04 #@! TO.P,MX6,1,COL*
G04 #@! TO.N,Net-(D6-Pad2)*
X137200000Y-53150000D03*
D11*
X136545001Y-53880000D03*
D12*
G04 #@! TO.P,MX6,2,ROW*
G04 #@! TO.N,ROW1*
X142220000Y-52360000D03*
D10*
X142240000Y-52070000D03*
G04 #@! TD*
D13*
G04 #@! TO.P,D13,1,K*
G04 #@! TO.N,COL2*
X150177500Y-123825000D03*
D14*
G04 #@! TO.P,D13,2,A*
G04 #@! TO.N,Net-(D13-Pad2)*
X157797500Y-123825000D03*
G04 #@! TD*
D15*
G04 #@! TO.P,J1,1,Pin_1*
G04 #@! TO.N,GND*
X174079000Y-31611000D03*
D16*
G04 #@! TO.P,J1,2,Pin_2*
G04 #@! TO.N,+3V3*
X174079000Y-34151000D03*
G04 #@! TO.P,J1,3,Pin_3*
G04 #@! TO.N,SCL*
X174079000Y-36691000D03*
G04 #@! TO.P,J1,4,Pin_4*
G04 #@! TO.N,SDA*
X174079000Y-39231000D03*
G04 #@! TD*
D11*
G04 #@! TO.P,MX18,1,COL*
G04 #@! TO.N,Net-(D18-Pad2)*
X193695001Y-53880000D03*
D10*
X194350000Y-53150000D03*
D12*
G04 #@! TO.P,MX18,2,ROW*
G04 #@! TO.N,ROW1*
X199370000Y-52360000D03*
D10*
X199390000Y-52070000D03*
G04 #@! TD*
D14*
G04 #@! TO.P,D4,2,A*
G04 #@! TO.N,Net-(D4-Pad2)*
X117316250Y-123031250D03*
D13*
G04 #@! TO.P,D4,1,K*
G04 #@! TO.N,COL0*
X109696250Y-123031250D03*
G04 #@! TD*
D17*
G04 #@! TO.P,MX16,1,COL*
G04 #@! TO.N,Net-(D16-Pad2)*
X174530000Y-88879999D03*
D10*
X173800000Y-88225000D03*
D18*
G04 #@! TO.P,MX16,2,ROW*
G04 #@! TO.N,ROW2*
X173010000Y-83205000D03*
D10*
X172720000Y-83185000D03*
G04 #@! TD*
G04 #@! TO.P,MX20,1,COL*
G04 #@! TO.N,Net-(D20-Pad2)*
X194350000Y-91250000D03*
D11*
X193695001Y-91980000D03*
D10*
G04 #@! TO.P,MX20,2,ROW*
G04 #@! TO.N,ROW3*
X199390000Y-90170000D03*
D12*
X199370000Y-90460000D03*
G04 #@! TD*
D10*
G04 #@! TO.P,MX1,1,COL*
G04 #@! TO.N,Net-(D1-Pad2)*
X118150000Y-53150000D03*
D11*
X117495001Y-53880000D03*
D12*
G04 #@! TO.P,MX1,2,ROW*
G04 #@! TO.N,ROW1*
X123170000Y-52360000D03*
D10*
X123190000Y-52070000D03*
G04 #@! TD*
G04 #@! TO.P,MX13,1,COL*
G04 #@! TO.N,Net-(D13-Pad2)*
X156250000Y-110300000D03*
D11*
X155595001Y-111030000D03*
D10*
G04 #@! TO.P,MX13,2,ROW*
G04 #@! TO.N,ROW4*
X161290000Y-109220000D03*
D12*
X161270000Y-109510000D03*
G04 #@! TD*
D13*
G04 #@! TO.P,D11,1,K*
G04 #@! TO.N,COL2*
X147796250Y-85725000D03*
D14*
G04 #@! TO.P,D11,2,A*
G04 #@! TO.N,Net-(D11-Pad2)*
X155416250Y-85725000D03*
G04 #@! TD*
D17*
G04 #@! TO.P,MX17,1,COL*
G04 #@! TO.N,Net-(D17-Pad2)*
X174530000Y-126979999D03*
D10*
X173800000Y-126325000D03*
D18*
G04 #@! TO.P,MX17,2,ROW*
G04 #@! TO.N,ROW4*
X173010000Y-121305000D03*
D10*
X172720000Y-121285000D03*
G04 #@! TD*
D14*
G04 #@! TO.P,D3,2,A*
G04 #@! TO.N,Net-(D3-Pad2)*
X117316250Y-104775000D03*
D13*
G04 #@! TO.P,D3,1,K*
G04 #@! TO.N,COL0*
X109696250Y-104775000D03*
G04 #@! TD*
G04 #@! TO.P,D7,1,K*
G04 #@! TO.N,COL1*
X128746250Y-85725000D03*
D14*
G04 #@! TO.P,D7,2,A*
G04 #@! TO.N,Net-(D7-Pad2)*
X136366250Y-85725000D03*
G04 #@! TD*
D10*
G04 #@! TO.P,MX7,1,COL*
G04 #@! TO.N,Net-(D7-Pad2)*
X137200000Y-72200000D03*
D11*
X136545001Y-72930000D03*
D12*
G04 #@! TO.P,MX7,2,ROW*
G04 #@! TO.N,ROW2*
X142220000Y-71410000D03*
D10*
X142240000Y-71120000D03*
G04 #@! TD*
D11*
G04 #@! TO.P,MX10,1,COL*
G04 #@! TO.N,Net-(D10-Pad2)*
X155595001Y-53880000D03*
D10*
X156250000Y-53150000D03*
G04 #@! TO.P,MX10,2,ROW*
G04 #@! TO.N,ROW1*
X161290000Y-52070000D03*
D12*
X161270000Y-52360000D03*
G04 #@! TD*
D10*
G04 #@! TO.P,MX14,1,COL*
G04 #@! TO.N,Net-(D14-Pad2)*
X156250000Y-129350000D03*
D11*
X155595001Y-130080000D03*
D12*
G04 #@! TO.P,MX14,2,ROW*
G04 #@! TO.N,ROW5*
X161270000Y-128560000D03*
D10*
X161290000Y-128270000D03*
G04 #@! TD*
D13*
G04 #@! TO.P,D14,1,K*
G04 #@! TO.N,COL2*
X147796250Y-142875000D03*
D14*
G04 #@! TO.P,D14,2,A*
G04 #@! TO.N,Net-(D14-Pad2)*
X155416250Y-142875000D03*
G04 #@! TD*
D13*
G04 #@! TO.P,D19,1,K*
G04 #@! TO.N,COL4*
X190658750Y-85725000D03*
D14*
G04 #@! TO.P,D19,2,A*
G04 #@! TO.N,Net-(D19-Pad2)*
X198278750Y-85725000D03*
G04 #@! TD*
D13*
G04 #@! TO.P,D9,1,K*
G04 #@! TO.N,COL1*
X128746250Y-123825000D03*
D14*
G04 #@! TO.P,D9,2,A*
G04 #@! TO.N,Net-(D9-Pad2)*
X136366250Y-123825000D03*
G04 #@! TD*
G04 #@! TO.P,D1,2,A*
G04 #@! TO.N,Net-(D1-Pad2)*
X117316250Y-66675000D03*
D13*
G04 #@! TO.P,D1,1,K*
G04 #@! TO.N,COL0*
X109696250Y-66675000D03*
G04 #@! TD*
G04 #@! TO.P,D5,1,K*
G04 #@! TO.N,COL0*
X109696250Y-131762500D03*
D14*
G04 #@! TO.P,D5,2,A*
G04 #@! TO.N,Net-(D5-Pad2)*
X109696250Y-139382500D03*
G04 #@! TD*
D11*
G04 #@! TO.P,MX11,1,COL*
G04 #@! TO.N,Net-(D11-Pad2)*
X155595001Y-72930000D03*
D10*
X156250000Y-72200000D03*
D12*
G04 #@! TO.P,MX11,2,ROW*
G04 #@! TO.N,ROW2*
X161270000Y-71410000D03*
D10*
X161290000Y-71120000D03*
G04 #@! TD*
D19*
G04 #@! TO.P,SW1,A,A*
G04 #@! TO.N,ROT1*
X189366798Y-37748048D03*
D20*
G04 #@! TO.P,SW1,B,B*
G04 #@! TO.N,ROT2*
X189366798Y-42748048D03*
G04 #@! TO.P,SW1,C,C*
G04 #@! TO.N,GND*
X189366798Y-40248048D03*
D21*
G04 #@! TO.P,SW1,MP*
G04 #@! TO.N,N/C*
X196866798Y-45848048D03*
X196866798Y-34648048D03*
D20*
G04 #@! TO.P,SW1,S1,S1*
G04 #@! TO.N,Net-(D23-Pad2)*
X203866798Y-42748048D03*
G04 #@! TO.P,SW1,S2,S2*
G04 #@! TO.N,ROW0*
X203866798Y-37748048D03*
G04 #@! TD*
D13*
G04 #@! TO.P,D12,1,K*
G04 #@! TO.N,COL2*
X147796250Y-104775000D03*
D14*
G04 #@! TO.P,D12,2,A*
G04 #@! TO.N,Net-(D12-Pad2)*
X155416250Y-104775000D03*
G04 #@! TD*
D22*
G04 #@! TO.P,SW3,3,C*
G04 #@! TO.N,unconnected-(SW3-Pad3)*
X185356250Y-26491250D03*
G04 #@! TO.P,SW3,2,B*
G04 #@! TO.N,Net-(A1-Pad27)*
X183356250Y-26491250D03*
D23*
G04 #@! TO.P,SW3,1,A*
G04 #@! TO.N,GND*
X181356250Y-26491250D03*
D24*
G04 #@! TO.P,SW3,*
G04 #@! TO.N,*
X187456250Y-26491250D03*
X179256250Y-26491250D03*
G04 #@! TD*
D13*
G04 #@! TO.P,A1,1,~{RESET}*
G04 #@! TO.N,Net-(A1-Pad1)*
X117475000Y-25666250D03*
D25*
G04 #@! TO.P,A1,2,3V3*
G04 #@! TO.N,+3V3*
X120015000Y-25666250D03*
G04 #@! TO.P,A1,3,AREF*
G04 #@! TO.N,unconnected-(A1-Pad3)*
X122555000Y-25666250D03*
G04 #@! TO.P,A1,4,GND*
G04 #@! TO.N,GND*
X125095000Y-25666250D03*
G04 #@! TO.P,A1,5,A0*
G04 #@! TO.N,ROW5*
X127635000Y-25666250D03*
G04 #@! TO.P,A1,6,A1*
G04 #@! TO.N,ROW4*
X130175000Y-25666250D03*
G04 #@! TO.P,A1,7,A2*
G04 #@! TO.N,ROW3*
X132715000Y-25666250D03*
G04 #@! TO.P,A1,8,A3*
G04 #@! TO.N,ROW2*
X135255000Y-25666250D03*
G04 #@! TO.P,A1,9,A4*
G04 #@! TO.N,ROW1*
X137795000Y-25666250D03*
G04 #@! TO.P,A1,10,A5*
G04 #@! TO.N,ROW0*
X140335000Y-25666250D03*
G04 #@! TO.P,A1,11,SCK/D15*
G04 #@! TO.N,unconnected-(A1-Pad11)*
X142875000Y-25666250D03*
G04 #@! TO.P,A1,12,MOSI/D16*
G04 #@! TO.N,unconnected-(A1-Pad12)*
X145415000Y-25666250D03*
G04 #@! TO.P,A1,13,MISO/D14*
G04 #@! TO.N,unconnected-(A1-Pad13)*
X147955000Y-25666250D03*
G04 #@! TO.P,A1,14,RX/D0*
G04 #@! TO.N,unconnected-(A1-Pad14)*
X150495000Y-25666250D03*
G04 #@! TO.P,A1,15,TX/D1*
G04 #@! TO.N,unconnected-(A1-Pad15)*
X153035000Y-25666250D03*
G04 #@! TO.P,A1,16,~{DFU}*
G04 #@! TO.N,unconnected-(A1-Pad16)*
X155575000Y-25666250D03*
G04 #@! TO.P,A1,17,SDA/D2*
G04 #@! TO.N,SDA*
X155575000Y-45986250D03*
G04 #@! TO.P,A1,18,SCL/D3*
G04 #@! TO.N,SCL*
X153035000Y-45986250D03*
G04 #@! TO.P,A1,19,D5*
G04 #@! TO.N,ROT1*
X150495000Y-45986250D03*
G04 #@! TO.P,A1,20,D6*
G04 #@! TO.N,ROT2*
X147955000Y-45986250D03*
G04 #@! TO.P,A1,21,D9*
G04 #@! TO.N,COL4*
X145415000Y-45986250D03*
G04 #@! TO.P,A1,22,D10*
G04 #@! TO.N,COL3*
X142875000Y-45986250D03*
G04 #@! TO.P,A1,23,D11*
G04 #@! TO.N,COL2*
X140335000Y-45986250D03*
G04 #@! TO.P,A1,24,D12*
G04 #@! TO.N,COL1*
X137795000Y-45986250D03*
G04 #@! TO.P,A1,25,D13*
G04 #@! TO.N,COL0*
X135255000Y-45986250D03*
G04 #@! TO.P,A1,26,USB*
G04 #@! TO.N,unconnected-(A1-Pad26)*
X132715000Y-45986250D03*
G04 #@! TO.P,A1,27,EN*
G04 #@! TO.N,Net-(A1-Pad27)*
X130175000Y-45986250D03*
G04 #@! TO.P,A1,28,VBAT*
G04 #@! TO.N,unconnected-(A1-Pad28)*
X127635000Y-45986250D03*
G04 #@! TD*
D11*
G04 #@! TO.P,MX3,1,COL*
G04 #@! TO.N,Net-(D3-Pad2)*
X117495001Y-91980000D03*
D10*
X118150000Y-91250000D03*
D12*
G04 #@! TO.P,MX3,2,ROW*
G04 #@! TO.N,ROW3*
X123170000Y-90460000D03*
D10*
X123190000Y-90170000D03*
G04 #@! TD*
D14*
G04 #@! TO.P,D23,2,A*
G04 #@! TO.N,Net-(D23-Pad2)*
X193516250Y-48418750D03*
D13*
G04 #@! TO.P,D23,1,K*
G04 #@! TO.N,COL4*
X185896250Y-48418750D03*
G04 #@! TD*
G04 #@! TO.P,D10,1,K*
G04 #@! TO.N,COL2*
X147796250Y-66675000D03*
D14*
G04 #@! TO.P,D10,2,A*
G04 #@! TO.N,Net-(D10-Pad2)*
X155416250Y-66675000D03*
G04 #@! TD*
D11*
G04 #@! TO.P,MX9,1,COL*
G04 #@! TO.N,Net-(D9-Pad2)*
X136545001Y-111030000D03*
D10*
X137200000Y-110300000D03*
D12*
G04 #@! TO.P,MX9,2,ROW*
G04 #@! TO.N,ROW4*
X142220000Y-109510000D03*
D10*
X142240000Y-109220000D03*
G04 #@! TD*
D13*
G04 #@! TO.P,D22,1,K*
G04 #@! TO.N,COL4*
X185896250Y-142875000D03*
D14*
G04 #@! TO.P,D22,2,A*
G04 #@! TO.N,Net-(D22-Pad2)*
X193516250Y-142875000D03*
G04 #@! TD*
D13*
G04 #@! TO.P,D20,1,K*
G04 #@! TO.N,COL4*
X190658750Y-104775000D03*
D14*
G04 #@! TO.P,D20,2,A*
G04 #@! TO.N,Net-(D20-Pad2)*
X198278750Y-104775000D03*
G04 #@! TD*
D11*
G04 #@! TO.P,MX19,1,COL*
G04 #@! TO.N,Net-(D19-Pad2)*
X193695001Y-72930000D03*
D10*
X194350000Y-72200000D03*
D12*
G04 #@! TO.P,MX19,2,ROW*
G04 #@! TO.N,ROW2*
X199370000Y-71410000D03*
D10*
X199390000Y-71120000D03*
G04 #@! TD*
G04 #@! TO.P,MX22,1,COL*
G04 #@! TO.N,Net-(D22-Pad2)*
X194350000Y-129350000D03*
D11*
X193695001Y-130080000D03*
D10*
G04 #@! TO.P,MX22,2,ROW*
G04 #@! TO.N,ROW5*
X199390000Y-128270000D03*
D12*
X199370000Y-128560000D03*
G04 #@! TD*
D11*
G04 #@! TO.P,MX2,1,COL*
G04 #@! TO.N,Net-(D2-Pad2)*
X117495001Y-72930000D03*
D10*
X118150000Y-72200000D03*
D12*
G04 #@! TO.P,MX2,2,ROW*
G04 #@! TO.N,ROW2*
X123170000Y-71410000D03*
D10*
X123190000Y-71120000D03*
G04 #@! TD*
D11*
G04 #@! TO.P,MX15,1,COL*
G04 #@! TO.N,Net-(D15-Pad2)*
X174645001Y-53880000D03*
D10*
X175300000Y-53150000D03*
G04 #@! TO.P,MX15,2,ROW*
G04 #@! TO.N,ROW1*
X180340000Y-52070000D03*
D12*
X180320000Y-52360000D03*
G04 #@! TD*
D13*
G04 #@! TO.P,D6,1,K*
G04 #@! TO.N,COL1*
X128746250Y-66675000D03*
D14*
G04 #@! TO.P,D6,2,A*
G04 #@! TO.N,Net-(D6-Pad2)*
X136366250Y-66675000D03*
G04 #@! TD*
D13*
G04 #@! TO.P,D8,1,K*
G04 #@! TO.N,COL1*
X128746250Y-104775000D03*
D14*
G04 #@! TO.P,D8,2,A*
G04 #@! TO.N,Net-(D8-Pad2)*
X136366250Y-104775000D03*
G04 #@! TD*
D10*
G04 #@! TO.P,MX4,1,COL*
G04 #@! TO.N,Net-(D4-Pad2)*
X118150000Y-110300000D03*
D11*
X117495001Y-111030000D03*
D10*
G04 #@! TO.P,MX4,2,ROW*
G04 #@! TO.N,ROW4*
X123190000Y-109220000D03*
D12*
X123170000Y-109510000D03*
G04 #@! TD*
D13*
G04 #@! TO.P,D15,1,K*
G04 #@! TO.N,COL3*
X166846250Y-66675000D03*
D14*
G04 #@! TO.P,D15,2,A*
G04 #@! TO.N,Net-(D15-Pad2)*
X174466250Y-66675000D03*
G04 #@! TD*
D10*
G04 #@! TO.P,MX8,1,COL*
G04 #@! TO.N,Net-(D8-Pad2)*
X137200000Y-91250000D03*
D11*
X136545001Y-91980000D03*
D10*
G04 #@! TO.P,MX8,2,ROW*
G04 #@! TO.N,ROW3*
X142240000Y-90170000D03*
D12*
X142220000Y-90460000D03*
G04 #@! TD*
D13*
G04 #@! TO.P,D16,1,K*
G04 #@! TO.N,COL3*
X166846250Y-104775000D03*
D14*
G04 #@! TO.P,D16,2,A*
G04 #@! TO.N,Net-(D16-Pad2)*
X174466250Y-104775000D03*
G04 #@! TD*
D10*
G04 #@! TO.P,MX5,1,COL*
G04 #@! TO.N,Net-(D5-Pad2)*
X127675000Y-129350000D03*
D11*
X127020001Y-130080000D03*
D12*
G04 #@! TO.P,MX5,2,ROW*
G04 #@! TO.N,ROW5*
X132695000Y-128560000D03*
D10*
X132715000Y-128270000D03*
G04 #@! TD*
G04 #@! TO.P,MX21,1,COL*
G04 #@! TO.N,Net-(D21-Pad2)*
X194350000Y-110300000D03*
D11*
X193695001Y-111030000D03*
D10*
G04 #@! TO.P,MX21,2,ROW*
G04 #@! TO.N,ROW4*
X199390000Y-109220000D03*
D12*
X199370000Y-109510000D03*
G04 #@! TD*
D13*
G04 #@! TO.P,D17,1,K*
G04 #@! TO.N,COL3*
X166846250Y-142875000D03*
D14*
G04 #@! TO.P,D17,2,A*
G04 #@! TO.N,Net-(D17-Pad2)*
X174466250Y-142875000D03*
G04 #@! TD*
G04 #@! TO.P,D2,2,A*
G04 #@! TO.N,Net-(D2-Pad2)*
X117316250Y-85725000D03*
D13*
G04 #@! TO.P,D2,1,K*
G04 #@! TO.N,COL0*
X109696250Y-85725000D03*
G04 #@! TD*
D11*
G04 #@! TO.P,MX12,1,COL*
G04 #@! TO.N,Net-(D12-Pad2)*
X155595001Y-91980000D03*
D10*
X156250000Y-91250000D03*
D12*
G04 #@! TO.P,MX12,2,ROW*
G04 #@! TO.N,ROW3*
X161270000Y-90460000D03*
D10*
X161290000Y-90170000D03*
G04 #@! TD*
D13*
G04 #@! TO.P,D18,1,K*
G04 #@! TO.N,COL4*
X188277500Y-66675000D03*
D14*
G04 #@! TO.P,D18,2,A*
G04 #@! TO.N,Net-(D18-Pad2)*
X195897500Y-66675000D03*
G04 #@! TD*
G04 #@! TO.P,D21,2,A*
G04 #@! TO.N,Net-(D21-Pad2)*
X198278750Y-123825000D03*
D13*
G04 #@! TO.P,D21,1,K*
G04 #@! TO.N,COL4*
X190658750Y-123825000D03*
G04 #@! TD*
D26*
G04 #@! TO.N,Net-(A1-Pad27)*
X183388000Y-37592000D03*
G04 #@! TO.N,+3V3*
X126365000Y-33401000D03*
G04 #@! TD*
D27*
G04 #@! TO.N,ROW5*
X127635000Y-34671000D02*
X127635000Y-25666250D01*
X110363000Y-51943000D02*
X127635000Y-34671000D01*
X110363000Y-60833000D02*
X110363000Y-51943000D01*
X112014000Y-62484000D02*
X110363000Y-60833000D01*
X112014000Y-78740000D02*
X112014000Y-62484000D01*
X114427000Y-81153000D02*
X112014000Y-78740000D01*
X119253000Y-81153000D02*
X114427000Y-81153000D01*
X120777000Y-82677000D02*
X119253000Y-81153000D01*
X120777000Y-84582000D02*
X120777000Y-82677000D01*
X112395000Y-92964000D02*
X120777000Y-84582000D01*
X112395000Y-97663000D02*
X112395000Y-92964000D01*
X113919000Y-99187000D02*
X112395000Y-97663000D01*
X120269000Y-99187000D02*
X113919000Y-99187000D01*
X121793000Y-100711000D02*
X120269000Y-99187000D01*
X113284000Y-111252000D02*
X119888000Y-104648000D01*
X114300000Y-116967000D02*
X113284000Y-115951000D01*
X119507000Y-116967000D02*
X114300000Y-116967000D01*
X119888000Y-104648000D02*
X121793000Y-104648000D01*
X132675000Y-128850000D02*
X131390000Y-128850000D01*
X131390000Y-128850000D02*
X119507000Y-116967000D01*
X113284000Y-115951000D02*
X113284000Y-111252000D01*
X121793000Y-104648000D02*
X121793000Y-100711000D01*
G04 #@! TO.N,ROW4*
X130175000Y-33655000D02*
X130175000Y-25666250D01*
X111760000Y-52070000D02*
X130175000Y-33655000D01*
X111760000Y-60325000D02*
X111760000Y-52070000D01*
X120396000Y-62103000D02*
X113538000Y-62103000D01*
X120904000Y-64897000D02*
X120904000Y-62611000D01*
X112776000Y-73025000D02*
X120904000Y-64897000D01*
X112776000Y-77851000D02*
X112776000Y-73025000D01*
X115189000Y-80264000D02*
X112776000Y-77851000D01*
X119888000Y-80264000D02*
X115189000Y-80264000D01*
X121920000Y-82296000D02*
X119888000Y-80264000D01*
X113538000Y-93091000D02*
X121920000Y-84709000D01*
X120904000Y-62611000D02*
X120396000Y-62103000D01*
X115316000Y-98298000D02*
X113538000Y-96520000D01*
X123190000Y-100330000D02*
X121158000Y-98298000D01*
X121920000Y-84709000D02*
X121920000Y-82296000D01*
X113538000Y-62103000D02*
X111760000Y-60325000D01*
X121158000Y-98298000D02*
X115316000Y-98298000D01*
X113538000Y-96520000D02*
X113538000Y-93091000D01*
X123190000Y-109220000D02*
X123190000Y-100330000D01*
G04 #@! TO.N,Net-(D5-Pad2)*
X118268750Y-130810000D02*
X109696250Y-139382500D01*
X126365000Y-130810000D02*
X118268750Y-130810000D01*
G04 #@! TO.N,Net-(A1-Pad27)*
X183388000Y-37592000D02*
X180421000Y-40559000D01*
X180421000Y-40559000D02*
X135602250Y-40559000D01*
X135602250Y-40559000D02*
X130175000Y-45986250D01*
D28*
G04 #@! TO.N,+3V3*
X120015000Y-27051000D02*
X120015000Y-25666250D01*
X126365000Y-33401000D02*
X120015000Y-27051000D01*
D27*
G04 #@! TO.N,ROT1*
X185585846Y-41529000D02*
X189366798Y-37748048D01*
X150495000Y-45986250D02*
X154952250Y-41529000D01*
X154952250Y-41529000D02*
X185585846Y-41529000D01*
G04 #@! TO.N,ROT2*
X150482750Y-48514000D02*
X147955000Y-45986250D01*
X183600846Y-48514000D02*
X150482750Y-48514000D01*
X189366798Y-42748048D02*
X183600846Y-48514000D01*
G04 #@! TO.N,ROW2*
X123190000Y-61341000D02*
X122047000Y-60198000D01*
X123190000Y-71120000D02*
X123190000Y-61341000D01*
X122047000Y-60198000D02*
X115697000Y-60198000D01*
X113792000Y-54229000D02*
X135255000Y-32766000D01*
X115697000Y-60198000D02*
X113792000Y-58293000D01*
X113792000Y-58293000D02*
X113792000Y-54229000D01*
X135255000Y-32766000D02*
X135255000Y-25666250D01*
G04 #@! TO.N,ROW0*
X140335000Y-29718000D02*
X140335000Y-25666250D01*
X140589000Y-29972000D02*
X140335000Y-29718000D01*
X191262000Y-29972000D02*
X140589000Y-29972000D01*
X193294000Y-32004000D02*
X191262000Y-29972000D01*
X198122750Y-32004000D02*
X193294000Y-32004000D01*
X203866798Y-37748048D02*
X198122750Y-32004000D01*
G04 #@! TO.N,ROW3*
X132715000Y-33147000D02*
X132715000Y-25666250D01*
X112776000Y-53086000D02*
X132715000Y-33147000D01*
X112776000Y-59309000D02*
X112776000Y-53086000D01*
X114681000Y-61214000D02*
X112776000Y-59309000D01*
X120904000Y-61214000D02*
X114681000Y-61214000D01*
X121920000Y-62230000D02*
X120904000Y-61214000D01*
X121920000Y-65278000D02*
X121920000Y-62230000D01*
X113665000Y-73533000D02*
X121920000Y-65278000D01*
X113665000Y-77470000D02*
X113665000Y-73533000D01*
X115570000Y-79375000D02*
X113665000Y-77470000D01*
X121285000Y-79375000D02*
X115570000Y-79375000D01*
X123190000Y-81280000D02*
X121285000Y-79375000D01*
X123190000Y-90170000D02*
X123190000Y-81280000D01*
G04 #@! TO.N,ROW1*
X137795000Y-31496000D02*
X137795000Y-25666250D01*
X123190000Y-46101000D02*
X137795000Y-31496000D01*
X123190000Y-52070000D02*
X123190000Y-46101000D01*
G04 #@! TO.N,ROW5*
X163177001Y-130157001D02*
X188485999Y-130157001D01*
X191498000Y-127145000D02*
X198265000Y-127145000D01*
X198265000Y-127145000D02*
X199390000Y-128270000D01*
X161290000Y-128270000D02*
X163177001Y-130157001D01*
X188485999Y-130157001D02*
X191498000Y-127145000D01*
X160147000Y-127127000D02*
X161290000Y-128270000D01*
X153670000Y-127127000D02*
X160147000Y-127127000D01*
X151947000Y-128850000D02*
X153670000Y-127127000D01*
X132675000Y-128850000D02*
X151947000Y-128850000D01*
G04 #@! TO.N,ROW4*
X198367604Y-108817604D02*
X199350000Y-109800000D01*
X185771435Y-108817604D02*
X198367604Y-108817604D01*
X173300000Y-121289039D02*
X185771435Y-108817604D01*
X173300000Y-121325000D02*
X173300000Y-121289039D01*
X161290000Y-109220000D02*
X173300000Y-121230000D01*
X173300000Y-121230000D02*
X173300000Y-121325000D01*
X160165000Y-108095000D02*
X161290000Y-109220000D01*
X143365000Y-108095000D02*
X160165000Y-108095000D01*
X142240000Y-109220000D02*
X143365000Y-108095000D01*
X141115000Y-108095000D02*
X142240000Y-109220000D01*
X123150000Y-109800000D02*
X124855000Y-108095000D01*
X124855000Y-108095000D02*
X141115000Y-108095000D01*
G04 #@! TO.N,ROW3*
X199350000Y-90130000D02*
X199350000Y-90750000D01*
X198265000Y-89045000D02*
X199350000Y-90130000D01*
X191498000Y-89045000D02*
X198265000Y-89045000D01*
X186690000Y-93853000D02*
X191498000Y-89045000D01*
X164973000Y-93853000D02*
X186690000Y-93853000D01*
X161290000Y-90170000D02*
X164973000Y-93853000D01*
X160165000Y-89045000D02*
X161290000Y-90170000D01*
X143365000Y-89045000D02*
X160165000Y-89045000D01*
X142240000Y-90170000D02*
X143365000Y-89045000D01*
X141115000Y-89045000D02*
X142240000Y-90170000D01*
X123150000Y-90750000D02*
X124855000Y-89045000D01*
X124855000Y-89045000D02*
X141115000Y-89045000D01*
G04 #@! TO.N,ROW2*
X198265000Y-69995000D02*
X199390000Y-71120000D01*
X172720000Y-83185000D02*
X185910000Y-69995000D01*
X185910000Y-69995000D02*
X198265000Y-69995000D01*
X172720000Y-82550000D02*
X172720000Y-83185000D01*
X161290000Y-71120000D02*
X172720000Y-82550000D01*
X160165000Y-69995000D02*
X161290000Y-71120000D01*
X143365000Y-69995000D02*
X160165000Y-69995000D01*
X142240000Y-71120000D02*
X143365000Y-69995000D01*
X141115000Y-69995000D02*
X142240000Y-71120000D01*
X124855000Y-69995000D02*
X141115000Y-69995000D01*
X123150000Y-71700000D02*
X124855000Y-69995000D01*
G04 #@! TO.N,ROW1*
X198265000Y-50945000D02*
X199390000Y-52070000D01*
X180340000Y-52070000D02*
X181465000Y-50945000D01*
X181465000Y-50945000D02*
X198265000Y-50945000D01*
X162415000Y-50945000D02*
X179215000Y-50945000D01*
X179215000Y-50945000D02*
X180340000Y-52070000D01*
X161290000Y-52070000D02*
X162415000Y-50945000D01*
X160165000Y-50945000D02*
X161290000Y-52070000D01*
X143365000Y-50945000D02*
X160165000Y-50945000D01*
X142240000Y-52070000D02*
X143365000Y-50945000D01*
X141115000Y-50945000D02*
X142240000Y-52070000D01*
X124855000Y-50945000D02*
X141115000Y-50945000D01*
X123150000Y-52650000D02*
X124855000Y-50945000D01*
G04 #@! TD*
M02*
