M48
; DRILL file {KiCad (6.0.8)} date Sun Oct 30 18:55:49 2022
; FORMAT={-:-/ absolute / inch / decimal}
; #@! TF.CreationDate,2022-10-30T18:55:49+01:00
; #@! TF.GenerationSoftware,Kicad,Pcbnew,(6.0.8)
; #@! TF.FileFunction,NonPlated,1,2,NPTH
FMAT,2
INCH
; #@! TA.AperFunction,NonPlated,NPTH,ComponentDrill
T1C0.0689
; #@! TA.AperFunction,NonPlated,NPTH,ComponentDrill
T2C0.1200
; #@! TA.AperFunction,NonPlated,NPTH,ComponentDrill
T3C0.1570
%
G90
G05
T1
X4.55Y-2.25
X4.55Y-3.0
X4.55Y-3.75
X4.55Y-4.5
X4.925Y-5.25
X4.95Y-2.25
X4.95Y-3.0
X4.95Y-3.75
X4.95Y-4.5
X5.3Y-2.25
X5.3Y-3.0
X5.3Y-3.75
X5.3Y-4.5
X5.325Y-5.25
X5.7Y-2.25
X5.7Y-3.0
X5.7Y-3.75
X5.7Y-4.5
X6.05Y-2.25
X6.05Y-3.0
X6.05Y-3.75
X6.05Y-4.5
X6.05Y-5.25
X6.45Y-2.25
X6.45Y-3.0
X6.45Y-3.75
X6.45Y-4.5
X6.45Y-5.25
X6.8Y-2.25
X7.0Y-3.175
X7.0Y-3.575
X7.0Y-4.675
X7.0Y-5.075
X7.2Y-2.25
X7.55Y-2.25
X7.55Y-3.0
X7.55Y-3.75
X7.55Y-4.5
X7.55Y-5.25
X7.95Y-2.25
X7.95Y-3.0
X7.95Y-3.75
X7.95Y-4.5
X7.95Y-5.25
T2
X4.655Y-4.975
X5.595Y-4.975
X6.725Y-2.905
X6.725Y-3.845
X6.725Y-4.405
X6.725Y-5.345
T3
X4.655Y-5.575
X4.75Y-2.25
X4.75Y-3.0
X4.75Y-3.75
X4.75Y-4.5
X5.125Y-5.25
X5.5Y-2.25
X5.5Y-3.0
X5.5Y-3.75
X5.5Y-4.5
X5.595Y-5.575
X6.25Y-2.25
X6.25Y-3.0
X6.25Y-3.75
X6.25Y-4.5
X6.25Y-5.25
X7.0Y-2.25
X7.0Y-3.375
X7.0Y-4.875
X7.325Y-2.905
X7.325Y-3.845
X7.325Y-4.405
X7.325Y-5.345
X7.75Y-2.25
X7.75Y-3.0
X7.75Y-3.75
X7.75Y-4.5
X7.75Y-5.25
T0
M30
