G04 #@! TF.GenerationSoftware,KiCad,Pcbnew,(6.0.8)*
G04 #@! TF.CreationDate,2022-10-30T18:54:34+01:00*
G04 #@! TF.ProjectId,Project-macropad-V2,50726f6a-6563-4742-9d6d-6163726f7061,rev?*
G04 #@! TF.SameCoordinates,Original*
G04 #@! TF.FileFunction,Legend,Bot*
G04 #@! TF.FilePolarity,Positive*
%FSLAX46Y46*%
G04 Gerber Fmt 4.6, Leading zero omitted, Abs format (unit mm)*
G04 Created by KiCad (PCBNEW (6.0.8)) date 2022-10-30 18:54:34*
%MOMM*%
%LPD*%
G01*
G04 APERTURE LIST*
G04 Aperture macros list*
%AMHorizOval*
0 Thick line with rounded ends*
0 $1 width*
0 $2 $3 position (X,Y) of the first rounded end (center of the circle)*
0 $4 $5 position (X,Y) of the second rounded end (center of the circle)*
0 Add line between two ends*
20,1,$1,$2,$3,$4,$5,0*
0 Add two circle primitives to create the rounded ends*
1,1,$1,$2,$3*
1,1,$1,$4,$5*%
G04 Aperture macros list end*
%ADD10C,0.150000*%
%ADD11C,0.120000*%
%ADD12C,1.750000*%
%ADD13C,3.987800*%
%ADD14C,2.250000*%
%ADD15HorizOval,2.250000X0.655001X0.730000X-0.655001X-0.730000X0*%
%ADD16HorizOval,2.250000X0.020000X0.290000X-0.020000X-0.290000X0*%
%ADD17R,1.600000X1.600000*%
%ADD18O,1.600000X1.600000*%
%ADD19R,1.700000X1.700000*%
%ADD20O,1.700000X1.700000*%
%ADD21C,3.048000*%
%ADD22HorizOval,2.250000X-0.730000X0.655001X0.730000X-0.655001X0*%
%ADD23HorizOval,2.250000X-0.290000X0.020000X0.290000X-0.020000X0*%
%ADD24R,2.000000X2.000000*%
%ADD25C,2.000000*%
%ADD26C,3.200000*%
%ADD27O,1.500000X2.500000*%
%ADD28R,1.500000X2.500000*%
%ADD29O,2.200000X3.500000*%
%ADD30C,1.600000*%
G04 APERTURE END LIST*
D10*
G04 #@! TO.C,D13*
X155201785Y-126397380D02*
X155201785Y-125397380D01*
X154963690Y-125397380D01*
X154820833Y-125445000D01*
X154725595Y-125540238D01*
X154677976Y-125635476D01*
X154630357Y-125825952D01*
X154630357Y-125968809D01*
X154677976Y-126159285D01*
X154725595Y-126254523D01*
X154820833Y-126349761D01*
X154963690Y-126397380D01*
X155201785Y-126397380D01*
X153677976Y-126397380D02*
X154249404Y-126397380D01*
X153963690Y-126397380D02*
X153963690Y-125397380D01*
X154058928Y-125540238D01*
X154154166Y-125635476D01*
X154249404Y-125683095D01*
X153344642Y-125397380D02*
X152725595Y-125397380D01*
X153058928Y-125778333D01*
X152916071Y-125778333D01*
X152820833Y-125825952D01*
X152773214Y-125873571D01*
X152725595Y-125968809D01*
X152725595Y-126206904D01*
X152773214Y-126302142D01*
X152820833Y-126349761D01*
X152916071Y-126397380D01*
X153201785Y-126397380D01*
X153297023Y-126349761D01*
X153344642Y-126302142D01*
X150439404Y-126077380D02*
X150439404Y-125077380D01*
X149867976Y-126077380D02*
X150296547Y-125505952D01*
X149867976Y-125077380D02*
X150439404Y-125648809D01*
G04 #@! TO.C,D4*
X114244345Y-125603630D02*
X114244345Y-124603630D01*
X114006250Y-124603630D01*
X113863392Y-124651250D01*
X113768154Y-124746488D01*
X113720535Y-124841726D01*
X113672916Y-125032202D01*
X113672916Y-125175059D01*
X113720535Y-125365535D01*
X113768154Y-125460773D01*
X113863392Y-125556011D01*
X114006250Y-125603630D01*
X114244345Y-125603630D01*
X112815773Y-124936964D02*
X112815773Y-125603630D01*
X113053869Y-124556011D02*
X113291964Y-125270297D01*
X112672916Y-125270297D01*
X109958154Y-125283630D02*
X109958154Y-124283630D01*
X109386726Y-125283630D02*
X109815297Y-124712202D01*
X109386726Y-124283630D02*
X109958154Y-124855059D01*
G04 #@! TO.C,D11*
X152820535Y-88297380D02*
X152820535Y-87297380D01*
X152582440Y-87297380D01*
X152439583Y-87345000D01*
X152344345Y-87440238D01*
X152296726Y-87535476D01*
X152249107Y-87725952D01*
X152249107Y-87868809D01*
X152296726Y-88059285D01*
X152344345Y-88154523D01*
X152439583Y-88249761D01*
X152582440Y-88297380D01*
X152820535Y-88297380D01*
X151296726Y-88297380D02*
X151868154Y-88297380D01*
X151582440Y-88297380D02*
X151582440Y-87297380D01*
X151677678Y-87440238D01*
X151772916Y-87535476D01*
X151868154Y-87583095D01*
X150344345Y-88297380D02*
X150915773Y-88297380D01*
X150630059Y-88297380D02*
X150630059Y-87297380D01*
X150725297Y-87440238D01*
X150820535Y-87535476D01*
X150915773Y-87583095D01*
X148058154Y-87977380D02*
X148058154Y-86977380D01*
X147486726Y-87977380D02*
X147915297Y-87405952D01*
X147486726Y-86977380D02*
X148058154Y-87548809D01*
G04 #@! TO.C,D3*
X114244345Y-107347380D02*
X114244345Y-106347380D01*
X114006250Y-106347380D01*
X113863392Y-106395000D01*
X113768154Y-106490238D01*
X113720535Y-106585476D01*
X113672916Y-106775952D01*
X113672916Y-106918809D01*
X113720535Y-107109285D01*
X113768154Y-107204523D01*
X113863392Y-107299761D01*
X114006250Y-107347380D01*
X114244345Y-107347380D01*
X113339583Y-106347380D02*
X112720535Y-106347380D01*
X113053869Y-106728333D01*
X112911011Y-106728333D01*
X112815773Y-106775952D01*
X112768154Y-106823571D01*
X112720535Y-106918809D01*
X112720535Y-107156904D01*
X112768154Y-107252142D01*
X112815773Y-107299761D01*
X112911011Y-107347380D01*
X113196726Y-107347380D01*
X113291964Y-107299761D01*
X113339583Y-107252142D01*
X109958154Y-107027380D02*
X109958154Y-106027380D01*
X109386726Y-107027380D02*
X109815297Y-106455952D01*
X109386726Y-106027380D02*
X109958154Y-106598809D01*
G04 #@! TO.C,D7*
X133294345Y-88297380D02*
X133294345Y-87297380D01*
X133056250Y-87297380D01*
X132913392Y-87345000D01*
X132818154Y-87440238D01*
X132770535Y-87535476D01*
X132722916Y-87725952D01*
X132722916Y-87868809D01*
X132770535Y-88059285D01*
X132818154Y-88154523D01*
X132913392Y-88249761D01*
X133056250Y-88297380D01*
X133294345Y-88297380D01*
X132389583Y-87297380D02*
X131722916Y-87297380D01*
X132151488Y-88297380D01*
X129008154Y-87977380D02*
X129008154Y-86977380D01*
X128436726Y-87977380D02*
X128865297Y-87405952D01*
X128436726Y-86977380D02*
X129008154Y-87548809D01*
G04 #@! TO.C,D14*
X152820535Y-145447380D02*
X152820535Y-144447380D01*
X152582440Y-144447380D01*
X152439583Y-144495000D01*
X152344345Y-144590238D01*
X152296726Y-144685476D01*
X152249107Y-144875952D01*
X152249107Y-145018809D01*
X152296726Y-145209285D01*
X152344345Y-145304523D01*
X152439583Y-145399761D01*
X152582440Y-145447380D01*
X152820535Y-145447380D01*
X151296726Y-145447380D02*
X151868154Y-145447380D01*
X151582440Y-145447380D02*
X151582440Y-144447380D01*
X151677678Y-144590238D01*
X151772916Y-144685476D01*
X151868154Y-144733095D01*
X150439583Y-144780714D02*
X150439583Y-145447380D01*
X150677678Y-144399761D02*
X150915773Y-145114047D01*
X150296726Y-145114047D01*
X148058154Y-145127380D02*
X148058154Y-144127380D01*
X147486726Y-145127380D02*
X147915297Y-144555952D01*
X147486726Y-144127380D02*
X148058154Y-144698809D01*
G04 #@! TO.C,D19*
X195683035Y-88297380D02*
X195683035Y-87297380D01*
X195444940Y-87297380D01*
X195302083Y-87345000D01*
X195206845Y-87440238D01*
X195159226Y-87535476D01*
X195111607Y-87725952D01*
X195111607Y-87868809D01*
X195159226Y-88059285D01*
X195206845Y-88154523D01*
X195302083Y-88249761D01*
X195444940Y-88297380D01*
X195683035Y-88297380D01*
X194159226Y-88297380D02*
X194730654Y-88297380D01*
X194444940Y-88297380D02*
X194444940Y-87297380D01*
X194540178Y-87440238D01*
X194635416Y-87535476D01*
X194730654Y-87583095D01*
X193683035Y-88297380D02*
X193492559Y-88297380D01*
X193397321Y-88249761D01*
X193349702Y-88202142D01*
X193254464Y-88059285D01*
X193206845Y-87868809D01*
X193206845Y-87487857D01*
X193254464Y-87392619D01*
X193302083Y-87345000D01*
X193397321Y-87297380D01*
X193587797Y-87297380D01*
X193683035Y-87345000D01*
X193730654Y-87392619D01*
X193778273Y-87487857D01*
X193778273Y-87725952D01*
X193730654Y-87821190D01*
X193683035Y-87868809D01*
X193587797Y-87916428D01*
X193397321Y-87916428D01*
X193302083Y-87868809D01*
X193254464Y-87821190D01*
X193206845Y-87725952D01*
X190920654Y-87977380D02*
X190920654Y-86977380D01*
X190349226Y-87977380D02*
X190777797Y-87405952D01*
X190349226Y-86977380D02*
X190920654Y-87548809D01*
G04 #@! TO.C,D9*
X133294345Y-126397380D02*
X133294345Y-125397380D01*
X133056250Y-125397380D01*
X132913392Y-125445000D01*
X132818154Y-125540238D01*
X132770535Y-125635476D01*
X132722916Y-125825952D01*
X132722916Y-125968809D01*
X132770535Y-126159285D01*
X132818154Y-126254523D01*
X132913392Y-126349761D01*
X133056250Y-126397380D01*
X133294345Y-126397380D01*
X132246726Y-126397380D02*
X132056250Y-126397380D01*
X131961011Y-126349761D01*
X131913392Y-126302142D01*
X131818154Y-126159285D01*
X131770535Y-125968809D01*
X131770535Y-125587857D01*
X131818154Y-125492619D01*
X131865773Y-125445000D01*
X131961011Y-125397380D01*
X132151488Y-125397380D01*
X132246726Y-125445000D01*
X132294345Y-125492619D01*
X132341964Y-125587857D01*
X132341964Y-125825952D01*
X132294345Y-125921190D01*
X132246726Y-125968809D01*
X132151488Y-126016428D01*
X131961011Y-126016428D01*
X131865773Y-125968809D01*
X131818154Y-125921190D01*
X131770535Y-125825952D01*
X129008154Y-126077380D02*
X129008154Y-125077380D01*
X128436726Y-126077380D02*
X128865297Y-125505952D01*
X128436726Y-125077380D02*
X129008154Y-125648809D01*
G04 #@! TO.C,D1*
X114244345Y-69247380D02*
X114244345Y-68247380D01*
X114006250Y-68247380D01*
X113863392Y-68295000D01*
X113768154Y-68390238D01*
X113720535Y-68485476D01*
X113672916Y-68675952D01*
X113672916Y-68818809D01*
X113720535Y-69009285D01*
X113768154Y-69104523D01*
X113863392Y-69199761D01*
X114006250Y-69247380D01*
X114244345Y-69247380D01*
X112720535Y-69247380D02*
X113291964Y-69247380D01*
X113006250Y-69247380D02*
X113006250Y-68247380D01*
X113101488Y-68390238D01*
X113196726Y-68485476D01*
X113291964Y-68533095D01*
X109958154Y-68927380D02*
X109958154Y-67927380D01*
X109386726Y-68927380D02*
X109815297Y-68355952D01*
X109386726Y-67927380D02*
X109958154Y-68498809D01*
G04 #@! TO.C,D5*
X108028630Y-134834404D02*
X107028630Y-134834404D01*
X107028630Y-135072500D01*
X107076250Y-135215357D01*
X107171488Y-135310595D01*
X107266726Y-135358214D01*
X107457202Y-135405833D01*
X107600059Y-135405833D01*
X107790535Y-135358214D01*
X107885773Y-135310595D01*
X107981011Y-135215357D01*
X108028630Y-135072500D01*
X108028630Y-134834404D01*
X107028630Y-136310595D02*
X107028630Y-135834404D01*
X107504821Y-135786785D01*
X107457202Y-135834404D01*
X107409583Y-135929642D01*
X107409583Y-136167738D01*
X107457202Y-136262976D01*
X107504821Y-136310595D01*
X107600059Y-136358214D01*
X107838154Y-136358214D01*
X107933392Y-136310595D01*
X107981011Y-136262976D01*
X108028630Y-136167738D01*
X108028630Y-135929642D01*
X107981011Y-135834404D01*
X107933392Y-135786785D01*
X108348630Y-131500595D02*
X107348630Y-131500595D01*
X108348630Y-132072023D02*
X107777202Y-131643452D01*
X107348630Y-132072023D02*
X107920059Y-131500595D01*
G04 #@! TO.C,D12*
X152820535Y-107347380D02*
X152820535Y-106347380D01*
X152582440Y-106347380D01*
X152439583Y-106395000D01*
X152344345Y-106490238D01*
X152296726Y-106585476D01*
X152249107Y-106775952D01*
X152249107Y-106918809D01*
X152296726Y-107109285D01*
X152344345Y-107204523D01*
X152439583Y-107299761D01*
X152582440Y-107347380D01*
X152820535Y-107347380D01*
X151296726Y-107347380D02*
X151868154Y-107347380D01*
X151582440Y-107347380D02*
X151582440Y-106347380D01*
X151677678Y-106490238D01*
X151772916Y-106585476D01*
X151868154Y-106633095D01*
X150915773Y-106442619D02*
X150868154Y-106395000D01*
X150772916Y-106347380D01*
X150534821Y-106347380D01*
X150439583Y-106395000D01*
X150391964Y-106442619D01*
X150344345Y-106537857D01*
X150344345Y-106633095D01*
X150391964Y-106775952D01*
X150963392Y-107347380D01*
X150344345Y-107347380D01*
X148058154Y-107027380D02*
X148058154Y-106027380D01*
X147486726Y-107027380D02*
X147915297Y-106455952D01*
X147486726Y-106027380D02*
X148058154Y-106598809D01*
G04 #@! TO.C,A1*
X110021666Y-35111964D02*
X110021666Y-35588154D01*
X110307380Y-35016726D02*
X109307380Y-35350059D01*
X110307380Y-35683392D01*
X110307380Y-36540535D02*
X110307380Y-35969107D01*
X110307380Y-36254821D02*
X109307380Y-36254821D01*
X109450238Y-36159583D01*
X109545476Y-36064345D01*
X109593095Y-35969107D01*
G04 #@! TO.C,D23*
X190920535Y-50991130D02*
X190920535Y-49991130D01*
X190682440Y-49991130D01*
X190539583Y-50038750D01*
X190444345Y-50133988D01*
X190396726Y-50229226D01*
X190349107Y-50419702D01*
X190349107Y-50562559D01*
X190396726Y-50753035D01*
X190444345Y-50848273D01*
X190539583Y-50943511D01*
X190682440Y-50991130D01*
X190920535Y-50991130D01*
X189968154Y-50086369D02*
X189920535Y-50038750D01*
X189825297Y-49991130D01*
X189587202Y-49991130D01*
X189491964Y-50038750D01*
X189444345Y-50086369D01*
X189396726Y-50181607D01*
X189396726Y-50276845D01*
X189444345Y-50419702D01*
X190015773Y-50991130D01*
X189396726Y-50991130D01*
X189063392Y-49991130D02*
X188444345Y-49991130D01*
X188777678Y-50372083D01*
X188634821Y-50372083D01*
X188539583Y-50419702D01*
X188491964Y-50467321D01*
X188444345Y-50562559D01*
X188444345Y-50800654D01*
X188491964Y-50895892D01*
X188539583Y-50943511D01*
X188634821Y-50991130D01*
X188920535Y-50991130D01*
X189015773Y-50943511D01*
X189063392Y-50895892D01*
X186158154Y-50671130D02*
X186158154Y-49671130D01*
X185586726Y-50671130D02*
X186015297Y-50099702D01*
X185586726Y-49671130D02*
X186158154Y-50242559D01*
G04 #@! TO.C,D10*
X152820535Y-69247380D02*
X152820535Y-68247380D01*
X152582440Y-68247380D01*
X152439583Y-68295000D01*
X152344345Y-68390238D01*
X152296726Y-68485476D01*
X152249107Y-68675952D01*
X152249107Y-68818809D01*
X152296726Y-69009285D01*
X152344345Y-69104523D01*
X152439583Y-69199761D01*
X152582440Y-69247380D01*
X152820535Y-69247380D01*
X151296726Y-69247380D02*
X151868154Y-69247380D01*
X151582440Y-69247380D02*
X151582440Y-68247380D01*
X151677678Y-68390238D01*
X151772916Y-68485476D01*
X151868154Y-68533095D01*
X150677678Y-68247380D02*
X150582440Y-68247380D01*
X150487202Y-68295000D01*
X150439583Y-68342619D01*
X150391964Y-68437857D01*
X150344345Y-68628333D01*
X150344345Y-68866428D01*
X150391964Y-69056904D01*
X150439583Y-69152142D01*
X150487202Y-69199761D01*
X150582440Y-69247380D01*
X150677678Y-69247380D01*
X150772916Y-69199761D01*
X150820535Y-69152142D01*
X150868154Y-69056904D01*
X150915773Y-68866428D01*
X150915773Y-68628333D01*
X150868154Y-68437857D01*
X150820535Y-68342619D01*
X150772916Y-68295000D01*
X150677678Y-68247380D01*
X148058154Y-68927380D02*
X148058154Y-67927380D01*
X147486726Y-68927380D02*
X147915297Y-68355952D01*
X147486726Y-67927380D02*
X148058154Y-68498809D01*
G04 #@! TO.C,D22*
X190920535Y-145447380D02*
X190920535Y-144447380D01*
X190682440Y-144447380D01*
X190539583Y-144495000D01*
X190444345Y-144590238D01*
X190396726Y-144685476D01*
X190349107Y-144875952D01*
X190349107Y-145018809D01*
X190396726Y-145209285D01*
X190444345Y-145304523D01*
X190539583Y-145399761D01*
X190682440Y-145447380D01*
X190920535Y-145447380D01*
X189968154Y-144542619D02*
X189920535Y-144495000D01*
X189825297Y-144447380D01*
X189587202Y-144447380D01*
X189491964Y-144495000D01*
X189444345Y-144542619D01*
X189396726Y-144637857D01*
X189396726Y-144733095D01*
X189444345Y-144875952D01*
X190015773Y-145447380D01*
X189396726Y-145447380D01*
X189015773Y-144542619D02*
X188968154Y-144495000D01*
X188872916Y-144447380D01*
X188634821Y-144447380D01*
X188539583Y-144495000D01*
X188491964Y-144542619D01*
X188444345Y-144637857D01*
X188444345Y-144733095D01*
X188491964Y-144875952D01*
X189063392Y-145447380D01*
X188444345Y-145447380D01*
X186158154Y-145127380D02*
X186158154Y-144127380D01*
X185586726Y-145127380D02*
X186015297Y-144555952D01*
X185586726Y-144127380D02*
X186158154Y-144698809D01*
G04 #@! TO.C,D20*
X195683035Y-107347380D02*
X195683035Y-106347380D01*
X195444940Y-106347380D01*
X195302083Y-106395000D01*
X195206845Y-106490238D01*
X195159226Y-106585476D01*
X195111607Y-106775952D01*
X195111607Y-106918809D01*
X195159226Y-107109285D01*
X195206845Y-107204523D01*
X195302083Y-107299761D01*
X195444940Y-107347380D01*
X195683035Y-107347380D01*
X194730654Y-106442619D02*
X194683035Y-106395000D01*
X194587797Y-106347380D01*
X194349702Y-106347380D01*
X194254464Y-106395000D01*
X194206845Y-106442619D01*
X194159226Y-106537857D01*
X194159226Y-106633095D01*
X194206845Y-106775952D01*
X194778273Y-107347380D01*
X194159226Y-107347380D01*
X193540178Y-106347380D02*
X193444940Y-106347380D01*
X193349702Y-106395000D01*
X193302083Y-106442619D01*
X193254464Y-106537857D01*
X193206845Y-106728333D01*
X193206845Y-106966428D01*
X193254464Y-107156904D01*
X193302083Y-107252142D01*
X193349702Y-107299761D01*
X193444940Y-107347380D01*
X193540178Y-107347380D01*
X193635416Y-107299761D01*
X193683035Y-107252142D01*
X193730654Y-107156904D01*
X193778273Y-106966428D01*
X193778273Y-106728333D01*
X193730654Y-106537857D01*
X193683035Y-106442619D01*
X193635416Y-106395000D01*
X193540178Y-106347380D01*
X190920654Y-107027380D02*
X190920654Y-106027380D01*
X190349226Y-107027380D02*
X190777797Y-106455952D01*
X190349226Y-106027380D02*
X190920654Y-106598809D01*
G04 #@! TO.C,D6*
X133294345Y-69247380D02*
X133294345Y-68247380D01*
X133056250Y-68247380D01*
X132913392Y-68295000D01*
X132818154Y-68390238D01*
X132770535Y-68485476D01*
X132722916Y-68675952D01*
X132722916Y-68818809D01*
X132770535Y-69009285D01*
X132818154Y-69104523D01*
X132913392Y-69199761D01*
X133056250Y-69247380D01*
X133294345Y-69247380D01*
X131865773Y-68247380D02*
X132056250Y-68247380D01*
X132151488Y-68295000D01*
X132199107Y-68342619D01*
X132294345Y-68485476D01*
X132341964Y-68675952D01*
X132341964Y-69056904D01*
X132294345Y-69152142D01*
X132246726Y-69199761D01*
X132151488Y-69247380D01*
X131961011Y-69247380D01*
X131865773Y-69199761D01*
X131818154Y-69152142D01*
X131770535Y-69056904D01*
X131770535Y-68818809D01*
X131818154Y-68723571D01*
X131865773Y-68675952D01*
X131961011Y-68628333D01*
X132151488Y-68628333D01*
X132246726Y-68675952D01*
X132294345Y-68723571D01*
X132341964Y-68818809D01*
X129008154Y-68927380D02*
X129008154Y-67927380D01*
X128436726Y-68927380D02*
X128865297Y-68355952D01*
X128436726Y-67927380D02*
X129008154Y-68498809D01*
G04 #@! TO.C,D8*
X133294345Y-107347380D02*
X133294345Y-106347380D01*
X133056250Y-106347380D01*
X132913392Y-106395000D01*
X132818154Y-106490238D01*
X132770535Y-106585476D01*
X132722916Y-106775952D01*
X132722916Y-106918809D01*
X132770535Y-107109285D01*
X132818154Y-107204523D01*
X132913392Y-107299761D01*
X133056250Y-107347380D01*
X133294345Y-107347380D01*
X132151488Y-106775952D02*
X132246726Y-106728333D01*
X132294345Y-106680714D01*
X132341964Y-106585476D01*
X132341964Y-106537857D01*
X132294345Y-106442619D01*
X132246726Y-106395000D01*
X132151488Y-106347380D01*
X131961011Y-106347380D01*
X131865773Y-106395000D01*
X131818154Y-106442619D01*
X131770535Y-106537857D01*
X131770535Y-106585476D01*
X131818154Y-106680714D01*
X131865773Y-106728333D01*
X131961011Y-106775952D01*
X132151488Y-106775952D01*
X132246726Y-106823571D01*
X132294345Y-106871190D01*
X132341964Y-106966428D01*
X132341964Y-107156904D01*
X132294345Y-107252142D01*
X132246726Y-107299761D01*
X132151488Y-107347380D01*
X131961011Y-107347380D01*
X131865773Y-107299761D01*
X131818154Y-107252142D01*
X131770535Y-107156904D01*
X131770535Y-106966428D01*
X131818154Y-106871190D01*
X131865773Y-106823571D01*
X131961011Y-106775952D01*
X129008154Y-107027380D02*
X129008154Y-106027380D01*
X128436726Y-107027380D02*
X128865297Y-106455952D01*
X128436726Y-106027380D02*
X129008154Y-106598809D01*
G04 #@! TO.C,D15*
X171870535Y-69247380D02*
X171870535Y-68247380D01*
X171632440Y-68247380D01*
X171489583Y-68295000D01*
X171394345Y-68390238D01*
X171346726Y-68485476D01*
X171299107Y-68675952D01*
X171299107Y-68818809D01*
X171346726Y-69009285D01*
X171394345Y-69104523D01*
X171489583Y-69199761D01*
X171632440Y-69247380D01*
X171870535Y-69247380D01*
X170346726Y-69247380D02*
X170918154Y-69247380D01*
X170632440Y-69247380D02*
X170632440Y-68247380D01*
X170727678Y-68390238D01*
X170822916Y-68485476D01*
X170918154Y-68533095D01*
X169441964Y-68247380D02*
X169918154Y-68247380D01*
X169965773Y-68723571D01*
X169918154Y-68675952D01*
X169822916Y-68628333D01*
X169584821Y-68628333D01*
X169489583Y-68675952D01*
X169441964Y-68723571D01*
X169394345Y-68818809D01*
X169394345Y-69056904D01*
X169441964Y-69152142D01*
X169489583Y-69199761D01*
X169584821Y-69247380D01*
X169822916Y-69247380D01*
X169918154Y-69199761D01*
X169965773Y-69152142D01*
X167108154Y-68927380D02*
X167108154Y-67927380D01*
X166536726Y-68927380D02*
X166965297Y-68355952D01*
X166536726Y-67927380D02*
X167108154Y-68498809D01*
G04 #@! TO.C,D16*
X171870535Y-107347380D02*
X171870535Y-106347380D01*
X171632440Y-106347380D01*
X171489583Y-106395000D01*
X171394345Y-106490238D01*
X171346726Y-106585476D01*
X171299107Y-106775952D01*
X171299107Y-106918809D01*
X171346726Y-107109285D01*
X171394345Y-107204523D01*
X171489583Y-107299761D01*
X171632440Y-107347380D01*
X171870535Y-107347380D01*
X170346726Y-107347380D02*
X170918154Y-107347380D01*
X170632440Y-107347380D02*
X170632440Y-106347380D01*
X170727678Y-106490238D01*
X170822916Y-106585476D01*
X170918154Y-106633095D01*
X169489583Y-106347380D02*
X169680059Y-106347380D01*
X169775297Y-106395000D01*
X169822916Y-106442619D01*
X169918154Y-106585476D01*
X169965773Y-106775952D01*
X169965773Y-107156904D01*
X169918154Y-107252142D01*
X169870535Y-107299761D01*
X169775297Y-107347380D01*
X169584821Y-107347380D01*
X169489583Y-107299761D01*
X169441964Y-107252142D01*
X169394345Y-107156904D01*
X169394345Y-106918809D01*
X169441964Y-106823571D01*
X169489583Y-106775952D01*
X169584821Y-106728333D01*
X169775297Y-106728333D01*
X169870535Y-106775952D01*
X169918154Y-106823571D01*
X169965773Y-106918809D01*
X167108154Y-107027380D02*
X167108154Y-106027380D01*
X166536726Y-107027380D02*
X166965297Y-106455952D01*
X166536726Y-106027380D02*
X167108154Y-106598809D01*
G04 #@! TO.C,D17*
X171870535Y-145447380D02*
X171870535Y-144447380D01*
X171632440Y-144447380D01*
X171489583Y-144495000D01*
X171394345Y-144590238D01*
X171346726Y-144685476D01*
X171299107Y-144875952D01*
X171299107Y-145018809D01*
X171346726Y-145209285D01*
X171394345Y-145304523D01*
X171489583Y-145399761D01*
X171632440Y-145447380D01*
X171870535Y-145447380D01*
X170346726Y-145447380D02*
X170918154Y-145447380D01*
X170632440Y-145447380D02*
X170632440Y-144447380D01*
X170727678Y-144590238D01*
X170822916Y-144685476D01*
X170918154Y-144733095D01*
X170013392Y-144447380D02*
X169346726Y-144447380D01*
X169775297Y-145447380D01*
X167108154Y-145127380D02*
X167108154Y-144127380D01*
X166536726Y-145127380D02*
X166965297Y-144555952D01*
X166536726Y-144127380D02*
X167108154Y-144698809D01*
G04 #@! TO.C,D2*
X114244345Y-88297380D02*
X114244345Y-87297380D01*
X114006250Y-87297380D01*
X113863392Y-87345000D01*
X113768154Y-87440238D01*
X113720535Y-87535476D01*
X113672916Y-87725952D01*
X113672916Y-87868809D01*
X113720535Y-88059285D01*
X113768154Y-88154523D01*
X113863392Y-88249761D01*
X114006250Y-88297380D01*
X114244345Y-88297380D01*
X113291964Y-87392619D02*
X113244345Y-87345000D01*
X113149107Y-87297380D01*
X112911011Y-87297380D01*
X112815773Y-87345000D01*
X112768154Y-87392619D01*
X112720535Y-87487857D01*
X112720535Y-87583095D01*
X112768154Y-87725952D01*
X113339583Y-88297380D01*
X112720535Y-88297380D01*
X109958154Y-87977380D02*
X109958154Y-86977380D01*
X109386726Y-87977380D02*
X109815297Y-87405952D01*
X109386726Y-86977380D02*
X109958154Y-87548809D01*
G04 #@! TO.C,D18*
X193301785Y-69247380D02*
X193301785Y-68247380D01*
X193063690Y-68247380D01*
X192920833Y-68295000D01*
X192825595Y-68390238D01*
X192777976Y-68485476D01*
X192730357Y-68675952D01*
X192730357Y-68818809D01*
X192777976Y-69009285D01*
X192825595Y-69104523D01*
X192920833Y-69199761D01*
X193063690Y-69247380D01*
X193301785Y-69247380D01*
X191777976Y-69247380D02*
X192349404Y-69247380D01*
X192063690Y-69247380D02*
X192063690Y-68247380D01*
X192158928Y-68390238D01*
X192254166Y-68485476D01*
X192349404Y-68533095D01*
X191206547Y-68675952D02*
X191301785Y-68628333D01*
X191349404Y-68580714D01*
X191397023Y-68485476D01*
X191397023Y-68437857D01*
X191349404Y-68342619D01*
X191301785Y-68295000D01*
X191206547Y-68247380D01*
X191016071Y-68247380D01*
X190920833Y-68295000D01*
X190873214Y-68342619D01*
X190825595Y-68437857D01*
X190825595Y-68485476D01*
X190873214Y-68580714D01*
X190920833Y-68628333D01*
X191016071Y-68675952D01*
X191206547Y-68675952D01*
X191301785Y-68723571D01*
X191349404Y-68771190D01*
X191397023Y-68866428D01*
X191397023Y-69056904D01*
X191349404Y-69152142D01*
X191301785Y-69199761D01*
X191206547Y-69247380D01*
X191016071Y-69247380D01*
X190920833Y-69199761D01*
X190873214Y-69152142D01*
X190825595Y-69056904D01*
X190825595Y-68866428D01*
X190873214Y-68771190D01*
X190920833Y-68723571D01*
X191016071Y-68675952D01*
X188539404Y-68927380D02*
X188539404Y-67927380D01*
X187967976Y-68927380D02*
X188396547Y-68355952D01*
X187967976Y-67927380D02*
X188539404Y-68498809D01*
G04 #@! TO.C,D21*
X195683035Y-126397380D02*
X195683035Y-125397380D01*
X195444940Y-125397380D01*
X195302083Y-125445000D01*
X195206845Y-125540238D01*
X195159226Y-125635476D01*
X195111607Y-125825952D01*
X195111607Y-125968809D01*
X195159226Y-126159285D01*
X195206845Y-126254523D01*
X195302083Y-126349761D01*
X195444940Y-126397380D01*
X195683035Y-126397380D01*
X194730654Y-125492619D02*
X194683035Y-125445000D01*
X194587797Y-125397380D01*
X194349702Y-125397380D01*
X194254464Y-125445000D01*
X194206845Y-125492619D01*
X194159226Y-125587857D01*
X194159226Y-125683095D01*
X194206845Y-125825952D01*
X194778273Y-126397380D01*
X194159226Y-126397380D01*
X193206845Y-126397380D02*
X193778273Y-126397380D01*
X193492559Y-126397380D02*
X193492559Y-125397380D01*
X193587797Y-125540238D01*
X193683035Y-125635476D01*
X193778273Y-125683095D01*
X190920654Y-126077380D02*
X190920654Y-125077380D01*
X190349226Y-126077380D02*
X190777797Y-125505952D01*
X190349226Y-125077380D02*
X190920654Y-125648809D01*
D11*
G04 #@! TO.C,D13*
X156757500Y-123825000D02*
X156107500Y-123825000D01*
X152707500Y-124945000D02*
X152707500Y-122705000D01*
X151217500Y-123825000D02*
X151867500Y-123825000D01*
X151867500Y-124945000D02*
X151867500Y-122705000D01*
X156107500Y-122705000D02*
X156107500Y-124945000D01*
X151867500Y-122705000D02*
X156107500Y-122705000D01*
X152587500Y-124945000D02*
X152587500Y-122705000D01*
X152467500Y-124945000D02*
X152467500Y-122705000D01*
X156107500Y-124945000D02*
X151867500Y-124945000D01*
G04 #@! TO.C,D4*
X115626250Y-121911250D02*
X115626250Y-124151250D01*
X110736250Y-123031250D02*
X111386250Y-123031250D01*
X116276250Y-123031250D02*
X115626250Y-123031250D01*
X111386250Y-124151250D02*
X111386250Y-121911250D01*
X111986250Y-124151250D02*
X111986250Y-121911250D01*
X112226250Y-124151250D02*
X112226250Y-121911250D01*
X112106250Y-124151250D02*
X112106250Y-121911250D01*
X115626250Y-124151250D02*
X111386250Y-124151250D01*
X111386250Y-121911250D02*
X115626250Y-121911250D01*
G04 #@! TO.C,D11*
X153726250Y-86845000D02*
X149486250Y-86845000D01*
X150086250Y-86845000D02*
X150086250Y-84605000D01*
X153726250Y-84605000D02*
X153726250Y-86845000D01*
X150206250Y-86845000D02*
X150206250Y-84605000D01*
X154376250Y-85725000D02*
X153726250Y-85725000D01*
X149486250Y-84605000D02*
X153726250Y-84605000D01*
X148836250Y-85725000D02*
X149486250Y-85725000D01*
X149486250Y-86845000D02*
X149486250Y-84605000D01*
X150326250Y-86845000D02*
X150326250Y-84605000D01*
G04 #@! TO.C,D3*
X115626250Y-105895000D02*
X111386250Y-105895000D01*
X111386250Y-103655000D02*
X115626250Y-103655000D01*
X116276250Y-104775000D02*
X115626250Y-104775000D01*
X115626250Y-103655000D02*
X115626250Y-105895000D01*
X111386250Y-105895000D02*
X111386250Y-103655000D01*
X111986250Y-105895000D02*
X111986250Y-103655000D01*
X112106250Y-105895000D02*
X112106250Y-103655000D01*
X110736250Y-104775000D02*
X111386250Y-104775000D01*
X112226250Y-105895000D02*
X112226250Y-103655000D01*
G04 #@! TO.C,D7*
X134676250Y-84605000D02*
X134676250Y-86845000D01*
X130436250Y-84605000D02*
X134676250Y-84605000D01*
X131156250Y-86845000D02*
X131156250Y-84605000D01*
X129786250Y-85725000D02*
X130436250Y-85725000D01*
X130436250Y-86845000D02*
X130436250Y-84605000D01*
X134676250Y-86845000D02*
X130436250Y-86845000D01*
X135326250Y-85725000D02*
X134676250Y-85725000D01*
X131036250Y-86845000D02*
X131036250Y-84605000D01*
X131276250Y-86845000D02*
X131276250Y-84605000D01*
G04 #@! TO.C,D14*
X150326250Y-143995000D02*
X150326250Y-141755000D01*
X154376250Y-142875000D02*
X153726250Y-142875000D01*
X153726250Y-141755000D02*
X153726250Y-143995000D01*
X150086250Y-143995000D02*
X150086250Y-141755000D01*
X153726250Y-143995000D02*
X149486250Y-143995000D01*
X148836250Y-142875000D02*
X149486250Y-142875000D01*
X149486250Y-143995000D02*
X149486250Y-141755000D01*
X150206250Y-143995000D02*
X150206250Y-141755000D01*
X149486250Y-141755000D02*
X153726250Y-141755000D01*
G04 #@! TO.C,D19*
X193068750Y-86845000D02*
X193068750Y-84605000D01*
X192948750Y-86845000D02*
X192948750Y-84605000D01*
X196588750Y-86845000D02*
X192348750Y-86845000D01*
X197238750Y-85725000D02*
X196588750Y-85725000D01*
X191698750Y-85725000D02*
X192348750Y-85725000D01*
X193188750Y-86845000D02*
X193188750Y-84605000D01*
X192348750Y-86845000D02*
X192348750Y-84605000D01*
X192348750Y-84605000D02*
X196588750Y-84605000D01*
X196588750Y-84605000D02*
X196588750Y-86845000D01*
G04 #@! TO.C,D9*
X129786250Y-123825000D02*
X130436250Y-123825000D01*
X135326250Y-123825000D02*
X134676250Y-123825000D01*
X134676250Y-124945000D02*
X130436250Y-124945000D01*
X131276250Y-124945000D02*
X131276250Y-122705000D01*
X130436250Y-122705000D02*
X134676250Y-122705000D01*
X131036250Y-124945000D02*
X131036250Y-122705000D01*
X134676250Y-122705000D02*
X134676250Y-124945000D01*
X131156250Y-124945000D02*
X131156250Y-122705000D01*
X130436250Y-124945000D02*
X130436250Y-122705000D01*
G04 #@! TO.C,D1*
X111986250Y-67795000D02*
X111986250Y-65555000D01*
X111386250Y-67795000D02*
X111386250Y-65555000D01*
X112226250Y-67795000D02*
X112226250Y-65555000D01*
X112106250Y-67795000D02*
X112106250Y-65555000D01*
X115626250Y-67795000D02*
X111386250Y-67795000D01*
X115626250Y-65555000D02*
X115626250Y-67795000D01*
X110736250Y-66675000D02*
X111386250Y-66675000D01*
X111386250Y-65555000D02*
X115626250Y-65555000D01*
X116276250Y-66675000D02*
X115626250Y-66675000D01*
G04 #@! TO.C,D5*
X109696250Y-132802500D02*
X109696250Y-133452500D01*
X108576250Y-134292500D02*
X110816250Y-134292500D01*
X109696250Y-138342500D02*
X109696250Y-137692500D01*
X108576250Y-134172500D02*
X110816250Y-134172500D01*
X110816250Y-137692500D02*
X108576250Y-137692500D01*
X110816250Y-133452500D02*
X110816250Y-137692500D01*
X108576250Y-137692500D02*
X108576250Y-133452500D01*
X108576250Y-133452500D02*
X110816250Y-133452500D01*
X108576250Y-134052500D02*
X110816250Y-134052500D01*
G04 #@! TO.C,D12*
X154376250Y-104775000D02*
X153726250Y-104775000D01*
X149486250Y-105895000D02*
X149486250Y-103655000D01*
X153726250Y-103655000D02*
X153726250Y-105895000D01*
X153726250Y-105895000D02*
X149486250Y-105895000D01*
X148836250Y-104775000D02*
X149486250Y-104775000D01*
X150206250Y-105895000D02*
X150206250Y-103655000D01*
X150326250Y-105895000D02*
X150326250Y-103655000D01*
X150086250Y-105895000D02*
X150086250Y-103655000D01*
X149486250Y-103655000D02*
X153726250Y-103655000D01*
G04 #@! TO.C,A1*
X113665000Y-24286250D02*
X159385000Y-24286250D01*
X113665000Y-47366250D02*
X159385000Y-47366250D01*
X162035000Y-44716250D02*
X162035000Y-26936250D01*
X111015000Y-44716250D02*
X111015000Y-26936250D01*
X118475000Y-23966250D02*
X116475000Y-23966250D01*
X113665000Y-24286250D02*
G75*
G03*
X111015000Y-26936250I0J-2650000D01*
G01*
X111015000Y-44716250D02*
G75*
G03*
X113665000Y-47366250I2650000J0D01*
G01*
X162035000Y-26936250D02*
G75*
G03*
X159385000Y-24286250I-2650000J0D01*
G01*
X159385000Y-47366250D02*
G75*
G03*
X162035000Y-44716250I0J2650000D01*
G01*
G04 #@! TO.C,D23*
X188186250Y-49538750D02*
X188186250Y-47298750D01*
X187586250Y-47298750D02*
X191826250Y-47298750D01*
X186936250Y-48418750D02*
X187586250Y-48418750D01*
X187586250Y-49538750D02*
X187586250Y-47298750D01*
X188426250Y-49538750D02*
X188426250Y-47298750D01*
X191826250Y-47298750D02*
X191826250Y-49538750D01*
X188306250Y-49538750D02*
X188306250Y-47298750D01*
X192476250Y-48418750D02*
X191826250Y-48418750D01*
X191826250Y-49538750D02*
X187586250Y-49538750D01*
G04 #@! TO.C,D10*
X149486250Y-65555000D02*
X153726250Y-65555000D01*
X153726250Y-67795000D02*
X149486250Y-67795000D01*
X150326250Y-67795000D02*
X150326250Y-65555000D01*
X150206250Y-67795000D02*
X150206250Y-65555000D01*
X149486250Y-67795000D02*
X149486250Y-65555000D01*
X148836250Y-66675000D02*
X149486250Y-66675000D01*
X150086250Y-67795000D02*
X150086250Y-65555000D01*
X154376250Y-66675000D02*
X153726250Y-66675000D01*
X153726250Y-65555000D02*
X153726250Y-67795000D01*
G04 #@! TO.C,D22*
X191826250Y-141755000D02*
X191826250Y-143995000D01*
X192476250Y-142875000D02*
X191826250Y-142875000D01*
X188186250Y-143995000D02*
X188186250Y-141755000D01*
X191826250Y-143995000D02*
X187586250Y-143995000D01*
X186936250Y-142875000D02*
X187586250Y-142875000D01*
X187586250Y-143995000D02*
X187586250Y-141755000D01*
X187586250Y-141755000D02*
X191826250Y-141755000D01*
X188426250Y-143995000D02*
X188426250Y-141755000D01*
X188306250Y-143995000D02*
X188306250Y-141755000D01*
G04 #@! TO.C,D20*
X197238750Y-104775000D02*
X196588750Y-104775000D01*
X193188750Y-105895000D02*
X193188750Y-103655000D01*
X192948750Y-105895000D02*
X192948750Y-103655000D01*
X192348750Y-105895000D02*
X192348750Y-103655000D01*
X196588750Y-105895000D02*
X192348750Y-105895000D01*
X192348750Y-103655000D02*
X196588750Y-103655000D01*
X196588750Y-103655000D02*
X196588750Y-105895000D01*
X193068750Y-105895000D02*
X193068750Y-103655000D01*
X191698750Y-104775000D02*
X192348750Y-104775000D01*
G04 #@! TO.C,D6*
X130436250Y-65555000D02*
X134676250Y-65555000D01*
X131276250Y-67795000D02*
X131276250Y-65555000D01*
X130436250Y-67795000D02*
X130436250Y-65555000D01*
X131036250Y-67795000D02*
X131036250Y-65555000D01*
X134676250Y-65555000D02*
X134676250Y-67795000D01*
X129786250Y-66675000D02*
X130436250Y-66675000D01*
X131156250Y-67795000D02*
X131156250Y-65555000D01*
X135326250Y-66675000D02*
X134676250Y-66675000D01*
X134676250Y-67795000D02*
X130436250Y-67795000D01*
G04 #@! TO.C,D8*
X135326250Y-104775000D02*
X134676250Y-104775000D01*
X134676250Y-103655000D02*
X134676250Y-105895000D01*
X130436250Y-103655000D02*
X134676250Y-103655000D01*
X131156250Y-105895000D02*
X131156250Y-103655000D01*
X129786250Y-104775000D02*
X130436250Y-104775000D01*
X130436250Y-105895000D02*
X130436250Y-103655000D01*
X134676250Y-105895000D02*
X130436250Y-105895000D01*
X131276250Y-105895000D02*
X131276250Y-103655000D01*
X131036250Y-105895000D02*
X131036250Y-103655000D01*
G04 #@! TO.C,D15*
X173426250Y-66675000D02*
X172776250Y-66675000D01*
X169376250Y-67795000D02*
X169376250Y-65555000D01*
X169256250Y-67795000D02*
X169256250Y-65555000D01*
X168536250Y-67795000D02*
X168536250Y-65555000D01*
X172776250Y-67795000D02*
X168536250Y-67795000D01*
X167886250Y-66675000D02*
X168536250Y-66675000D01*
X169136250Y-67795000D02*
X169136250Y-65555000D01*
X168536250Y-65555000D02*
X172776250Y-65555000D01*
X172776250Y-65555000D02*
X172776250Y-67795000D01*
G04 #@! TO.C,D16*
X172776250Y-103655000D02*
X172776250Y-105895000D01*
X168536250Y-105895000D02*
X168536250Y-103655000D01*
X169256250Y-105895000D02*
X169256250Y-103655000D01*
X169136250Y-105895000D02*
X169136250Y-103655000D01*
X169376250Y-105895000D02*
X169376250Y-103655000D01*
X167886250Y-104775000D02*
X168536250Y-104775000D01*
X173426250Y-104775000D02*
X172776250Y-104775000D01*
X168536250Y-103655000D02*
X172776250Y-103655000D01*
X172776250Y-105895000D02*
X168536250Y-105895000D01*
G04 #@! TO.C,D17*
X173426250Y-142875000D02*
X172776250Y-142875000D01*
X169136250Y-143995000D02*
X169136250Y-141755000D01*
X168536250Y-143995000D02*
X168536250Y-141755000D01*
X172776250Y-141755000D02*
X172776250Y-143995000D01*
X169256250Y-143995000D02*
X169256250Y-141755000D01*
X168536250Y-141755000D02*
X172776250Y-141755000D01*
X169376250Y-143995000D02*
X169376250Y-141755000D01*
X167886250Y-142875000D02*
X168536250Y-142875000D01*
X172776250Y-143995000D02*
X168536250Y-143995000D01*
G04 #@! TO.C,D2*
X115626250Y-86845000D02*
X111386250Y-86845000D01*
X115626250Y-84605000D02*
X115626250Y-86845000D01*
X111386250Y-86845000D02*
X111386250Y-84605000D01*
X116276250Y-85725000D02*
X115626250Y-85725000D01*
X112106250Y-86845000D02*
X112106250Y-84605000D01*
X112226250Y-86845000D02*
X112226250Y-84605000D01*
X111386250Y-84605000D02*
X115626250Y-84605000D01*
X110736250Y-85725000D02*
X111386250Y-85725000D01*
X111986250Y-86845000D02*
X111986250Y-84605000D01*
G04 #@! TO.C,D18*
X189967500Y-65555000D02*
X194207500Y-65555000D01*
X194857500Y-66675000D02*
X194207500Y-66675000D01*
X190807500Y-67795000D02*
X190807500Y-65555000D01*
X194207500Y-67795000D02*
X189967500Y-67795000D01*
X194207500Y-65555000D02*
X194207500Y-67795000D01*
X189967500Y-67795000D02*
X189967500Y-65555000D01*
X190687500Y-67795000D02*
X190687500Y-65555000D01*
X190567500Y-67795000D02*
X190567500Y-65555000D01*
X189317500Y-66675000D02*
X189967500Y-66675000D01*
G04 #@! TO.C,D21*
X196588750Y-124945000D02*
X192348750Y-124945000D01*
X192948750Y-124945000D02*
X192948750Y-122705000D01*
X192348750Y-122705000D02*
X196588750Y-122705000D01*
X192348750Y-124945000D02*
X192348750Y-122705000D01*
X193068750Y-124945000D02*
X193068750Y-122705000D01*
X196588750Y-122705000D02*
X196588750Y-124945000D01*
X191698750Y-123825000D02*
X192348750Y-123825000D01*
X197238750Y-123825000D02*
X196588750Y-123825000D01*
X193188750Y-124945000D02*
X193188750Y-122705000D01*
G04 #@! TD*
%LPC*%
D12*
G04 #@! TO.C,MX6*
X134620000Y-57150000D03*
D13*
X139700000Y-57150000D03*
D12*
X144780000Y-57150000D03*
D14*
X137200000Y-53150000D03*
D15*
X136545001Y-53880000D03*
D16*
X142220000Y-52360000D03*
D14*
X142240000Y-52070000D03*
G04 #@! TD*
D17*
G04 #@! TO.C,D13*
X150177500Y-123825000D03*
D18*
X157797500Y-123825000D03*
G04 #@! TD*
D19*
G04 #@! TO.C,J1*
X174079000Y-31611000D03*
D20*
X174079000Y-34151000D03*
X174079000Y-36691000D03*
X174079000Y-39231000D03*
G04 #@! TD*
D12*
G04 #@! TO.C,MX18*
X191770000Y-57150000D03*
X201930000Y-57150000D03*
D13*
X196850000Y-57150000D03*
D15*
X193695001Y-53880000D03*
D14*
X194350000Y-53150000D03*
D16*
X199370000Y-52360000D03*
D14*
X199390000Y-52070000D03*
G04 #@! TD*
D18*
G04 #@! TO.C,D4*
X117316250Y-123031250D03*
D17*
X109696250Y-123031250D03*
G04 #@! TD*
D21*
G04 #@! TO.C,MX16*
X170815000Y-97663000D03*
D12*
X177800000Y-80645000D03*
D21*
X170815000Y-73787000D03*
D13*
X177800000Y-85725000D03*
X186055000Y-73787000D03*
X186055000Y-97663000D03*
D12*
X177800000Y-90805000D03*
D22*
X174530000Y-88879999D03*
D14*
X173800000Y-88225000D03*
D23*
X173010000Y-83205000D03*
D14*
X172720000Y-83185000D03*
G04 #@! TD*
D13*
G04 #@! TO.C,MX20*
X196850000Y-95250000D03*
D12*
X191770000Y-95250000D03*
X201930000Y-95250000D03*
D14*
X194350000Y-91250000D03*
D15*
X193695001Y-91980000D03*
D14*
X199390000Y-90170000D03*
D16*
X199370000Y-90460000D03*
G04 #@! TD*
D12*
G04 #@! TO.C,MX1*
X125730000Y-57150000D03*
X115570000Y-57150000D03*
D13*
X120650000Y-57150000D03*
D14*
X118150000Y-53150000D03*
D15*
X117495001Y-53880000D03*
D16*
X123170000Y-52360000D03*
D14*
X123190000Y-52070000D03*
G04 #@! TD*
D12*
G04 #@! TO.C,MX13*
X153670000Y-114300000D03*
D13*
X158750000Y-114300000D03*
D12*
X163830000Y-114300000D03*
D14*
X156250000Y-110300000D03*
D15*
X155595001Y-111030000D03*
D14*
X161290000Y-109220000D03*
D16*
X161270000Y-109510000D03*
G04 #@! TD*
D17*
G04 #@! TO.C,D11*
X147796250Y-85725000D03*
D18*
X155416250Y-85725000D03*
G04 #@! TD*
D13*
G04 #@! TO.C,MX17*
X186055000Y-111887000D03*
X186055000Y-135763000D03*
X177800000Y-123825000D03*
D12*
X177800000Y-128905000D03*
X177800000Y-118745000D03*
D21*
X170815000Y-135763000D03*
X170815000Y-111887000D03*
D22*
X174530000Y-126979999D03*
D14*
X173800000Y-126325000D03*
D23*
X173010000Y-121305000D03*
D14*
X172720000Y-121285000D03*
G04 #@! TD*
D18*
G04 #@! TO.C,D3*
X117316250Y-104775000D03*
D17*
X109696250Y-104775000D03*
G04 #@! TD*
G04 #@! TO.C,D7*
X128746250Y-85725000D03*
D18*
X136366250Y-85725000D03*
G04 #@! TD*
D12*
G04 #@! TO.C,MX7*
X144780000Y-76200000D03*
D13*
X139700000Y-76200000D03*
D12*
X134620000Y-76200000D03*
D14*
X137200000Y-72200000D03*
D15*
X136545001Y-72930000D03*
D16*
X142220000Y-71410000D03*
D14*
X142240000Y-71120000D03*
G04 #@! TD*
D13*
G04 #@! TO.C,MX10*
X158750000Y-57150000D03*
D12*
X163830000Y-57150000D03*
X153670000Y-57150000D03*
D15*
X155595001Y-53880000D03*
D14*
X156250000Y-53150000D03*
X161290000Y-52070000D03*
D16*
X161270000Y-52360000D03*
G04 #@! TD*
D12*
G04 #@! TO.C,MX14*
X163830000Y-133350000D03*
D13*
X158750000Y-133350000D03*
D12*
X153670000Y-133350000D03*
D14*
X156250000Y-129350000D03*
D15*
X155595001Y-130080000D03*
D16*
X161270000Y-128560000D03*
D14*
X161290000Y-128270000D03*
G04 #@! TD*
D17*
G04 #@! TO.C,D14*
X147796250Y-142875000D03*
D18*
X155416250Y-142875000D03*
G04 #@! TD*
D17*
G04 #@! TO.C,D19*
X190658750Y-85725000D03*
D18*
X198278750Y-85725000D03*
G04 #@! TD*
D17*
G04 #@! TO.C,D9*
X128746250Y-123825000D03*
D18*
X136366250Y-123825000D03*
G04 #@! TD*
G04 #@! TO.C,D1*
X117316250Y-66675000D03*
D17*
X109696250Y-66675000D03*
G04 #@! TD*
G04 #@! TO.C,D5*
X109696250Y-131762500D03*
D18*
X109696250Y-139382500D03*
G04 #@! TD*
D12*
G04 #@! TO.C,MX11*
X163830000Y-76200000D03*
D13*
X158750000Y-76200000D03*
D12*
X153670000Y-76200000D03*
D15*
X155595001Y-72930000D03*
D14*
X156250000Y-72200000D03*
D16*
X161270000Y-71410000D03*
D14*
X161290000Y-71120000D03*
G04 #@! TD*
D24*
G04 #@! TO.C,SW1*
X189366798Y-37748048D03*
D25*
X189366798Y-42748048D03*
X189366798Y-40248048D03*
D26*
X196866798Y-45848048D03*
X196866798Y-34648048D03*
D25*
X203866798Y-42748048D03*
X203866798Y-37748048D03*
G04 #@! TD*
D17*
G04 #@! TO.C,D12*
X147796250Y-104775000D03*
D18*
X155416250Y-104775000D03*
G04 #@! TD*
D27*
G04 #@! TO.C,SW3*
X185356250Y-26491250D03*
X183356250Y-26491250D03*
D28*
X181356250Y-26491250D03*
D29*
X187456250Y-26491250D03*
X179256250Y-26491250D03*
G04 #@! TD*
D17*
G04 #@! TO.C,A1*
X117475000Y-25666250D03*
D30*
X120015000Y-25666250D03*
X122555000Y-25666250D03*
X125095000Y-25666250D03*
X127635000Y-25666250D03*
X130175000Y-25666250D03*
X132715000Y-25666250D03*
X135255000Y-25666250D03*
X137795000Y-25666250D03*
X140335000Y-25666250D03*
X142875000Y-25666250D03*
X145415000Y-25666250D03*
X147955000Y-25666250D03*
X150495000Y-25666250D03*
X153035000Y-25666250D03*
X155575000Y-25666250D03*
X155575000Y-45986250D03*
X153035000Y-45986250D03*
X150495000Y-45986250D03*
X147955000Y-45986250D03*
X145415000Y-45986250D03*
X142875000Y-45986250D03*
X140335000Y-45986250D03*
X137795000Y-45986250D03*
X135255000Y-45986250D03*
X132715000Y-45986250D03*
X130175000Y-45986250D03*
X127635000Y-45986250D03*
G04 #@! TD*
D12*
G04 #@! TO.C,MX3*
X115570000Y-95250000D03*
D13*
X120650000Y-95250000D03*
D12*
X125730000Y-95250000D03*
D15*
X117495001Y-91980000D03*
D14*
X118150000Y-91250000D03*
D16*
X123170000Y-90460000D03*
D14*
X123190000Y-90170000D03*
G04 #@! TD*
D18*
G04 #@! TO.C,D23*
X193516250Y-48418750D03*
D17*
X185896250Y-48418750D03*
G04 #@! TD*
G04 #@! TO.C,D10*
X147796250Y-66675000D03*
D18*
X155416250Y-66675000D03*
G04 #@! TD*
D13*
G04 #@! TO.C,MX9*
X139700000Y-114300000D03*
D12*
X134620000Y-114300000D03*
X144780000Y-114300000D03*
D15*
X136545001Y-111030000D03*
D14*
X137200000Y-110300000D03*
D16*
X142220000Y-109510000D03*
D14*
X142240000Y-109220000D03*
G04 #@! TD*
D17*
G04 #@! TO.C,D22*
X185896250Y-142875000D03*
D18*
X193516250Y-142875000D03*
G04 #@! TD*
D17*
G04 #@! TO.C,D20*
X190658750Y-104775000D03*
D18*
X198278750Y-104775000D03*
G04 #@! TD*
D12*
G04 #@! TO.C,MX19*
X201930000Y-76200000D03*
X191770000Y-76200000D03*
D13*
X196850000Y-76200000D03*
D15*
X193695001Y-72930000D03*
D14*
X194350000Y-72200000D03*
D16*
X199370000Y-71410000D03*
D14*
X199390000Y-71120000D03*
G04 #@! TD*
D13*
G04 #@! TO.C,MX22*
X196850000Y-133350000D03*
D12*
X201930000Y-133350000D03*
X191770000Y-133350000D03*
D14*
X194350000Y-129350000D03*
D15*
X193695001Y-130080000D03*
D14*
X199390000Y-128270000D03*
D16*
X199370000Y-128560000D03*
G04 #@! TD*
D12*
G04 #@! TO.C,MX2*
X115570000Y-76200000D03*
D13*
X120650000Y-76200000D03*
D12*
X125730000Y-76200000D03*
D15*
X117495001Y-72930000D03*
D14*
X118150000Y-72200000D03*
D16*
X123170000Y-71410000D03*
D14*
X123190000Y-71120000D03*
G04 #@! TD*
D13*
G04 #@! TO.C,MX15*
X177800000Y-57150000D03*
D12*
X182880000Y-57150000D03*
X172720000Y-57150000D03*
D15*
X174645001Y-53880000D03*
D14*
X175300000Y-53150000D03*
X180340000Y-52070000D03*
D16*
X180320000Y-52360000D03*
G04 #@! TD*
D17*
G04 #@! TO.C,D6*
X128746250Y-66675000D03*
D18*
X136366250Y-66675000D03*
G04 #@! TD*
D17*
G04 #@! TO.C,D8*
X128746250Y-104775000D03*
D18*
X136366250Y-104775000D03*
G04 #@! TD*
D12*
G04 #@! TO.C,MX4*
X115570000Y-114300000D03*
D13*
X120650000Y-114300000D03*
D12*
X125730000Y-114300000D03*
D14*
X118150000Y-110300000D03*
D15*
X117495001Y-111030000D03*
D14*
X123190000Y-109220000D03*
D16*
X123170000Y-109510000D03*
G04 #@! TD*
D17*
G04 #@! TO.C,D15*
X166846250Y-66675000D03*
D18*
X174466250Y-66675000D03*
G04 #@! TD*
D13*
G04 #@! TO.C,MX8*
X139700000Y-95250000D03*
D12*
X134620000Y-95250000D03*
X144780000Y-95250000D03*
D14*
X137200000Y-91250000D03*
D15*
X136545001Y-91980000D03*
D14*
X142240000Y-90170000D03*
D16*
X142220000Y-90460000D03*
G04 #@! TD*
D17*
G04 #@! TO.C,D16*
X166846250Y-104775000D03*
D18*
X174466250Y-104775000D03*
G04 #@! TD*
D21*
G04 #@! TO.C,MX5*
X142113000Y-126365000D03*
D13*
X118237000Y-141605000D03*
D12*
X125095000Y-133350000D03*
X135255000Y-133350000D03*
D13*
X130175000Y-133350000D03*
X142113000Y-141605000D03*
D21*
X118237000Y-126365000D03*
D14*
X127675000Y-129350000D03*
D15*
X127020001Y-130080000D03*
D16*
X132695000Y-128560000D03*
D14*
X132715000Y-128270000D03*
G04 #@! TD*
D12*
G04 #@! TO.C,MX21*
X201930000Y-114300000D03*
D13*
X196850000Y-114300000D03*
D12*
X191770000Y-114300000D03*
D14*
X194350000Y-110300000D03*
D15*
X193695001Y-111030000D03*
D14*
X199390000Y-109220000D03*
D16*
X199370000Y-109510000D03*
G04 #@! TD*
D17*
G04 #@! TO.C,D17*
X166846250Y-142875000D03*
D18*
X174466250Y-142875000D03*
G04 #@! TD*
G04 #@! TO.C,D2*
X117316250Y-85725000D03*
D17*
X109696250Y-85725000D03*
G04 #@! TD*
D12*
G04 #@! TO.C,MX12*
X163830000Y-95250000D03*
X153670000Y-95250000D03*
D13*
X158750000Y-95250000D03*
D15*
X155595001Y-91980000D03*
D14*
X156250000Y-91250000D03*
D16*
X161270000Y-90460000D03*
D14*
X161290000Y-90170000D03*
G04 #@! TD*
D17*
G04 #@! TO.C,D18*
X188277500Y-66675000D03*
D18*
X195897500Y-66675000D03*
G04 #@! TD*
G04 #@! TO.C,D21*
X198278750Y-123825000D03*
D17*
X190658750Y-123825000D03*
G04 #@! TD*
M02*
