G04 #@! TF.GenerationSoftware,KiCad,Pcbnew,(6.0.8)*
G04 #@! TF.CreationDate,2022-10-30T18:54:34+01:00*
G04 #@! TF.ProjectId,Project-macropad-V2,50726f6a-6563-4742-9d6d-6163726f7061,rev?*
G04 #@! TF.SameCoordinates,Original*
G04 #@! TF.FileFunction,Soldermask,Top*
G04 #@! TF.FilePolarity,Negative*
%FSLAX46Y46*%
G04 Gerber Fmt 4.6, Leading zero omitted, Abs format (unit mm)*
G04 Created by KiCad (PCBNEW (6.0.8)) date 2022-10-30 18:54:34*
%MOMM*%
%LPD*%
G01*
G04 APERTURE LIST*
%ADD10C,1.750000*%
%ADD11C,3.987800*%
%ADD12R,1.600000X1.600000*%
%ADD13O,1.600000X1.600000*%
%ADD14R,1.700000X1.700000*%
%ADD15O,1.700000X1.700000*%
%ADD16C,3.048000*%
%ADD17R,2.000000X2.000000*%
%ADD18C,2.000000*%
%ADD19C,3.200000*%
%ADD20O,1.500000X2.500000*%
%ADD21R,1.500000X2.500000*%
%ADD22O,2.200000X3.500000*%
%ADD23C,1.600000*%
%ADD24R,1.800000X1.100000*%
G04 APERTURE END LIST*
D10*
G04 #@! TO.C,MX6*
X134620000Y-57150000D03*
D11*
X139700000Y-57150000D03*
D10*
X144780000Y-57150000D03*
G04 #@! TD*
D12*
G04 #@! TO.C,D13*
X150177500Y-123825000D03*
D13*
X157797500Y-123825000D03*
G04 #@! TD*
D14*
G04 #@! TO.C,J1*
X174079000Y-31611000D03*
D15*
X174079000Y-34151000D03*
X174079000Y-36691000D03*
X174079000Y-39231000D03*
G04 #@! TD*
D10*
G04 #@! TO.C,MX18*
X191770000Y-57150000D03*
X201930000Y-57150000D03*
D11*
X196850000Y-57150000D03*
G04 #@! TD*
D13*
G04 #@! TO.C,D4*
X117316250Y-123031250D03*
D12*
X109696250Y-123031250D03*
G04 #@! TD*
D16*
G04 #@! TO.C,MX16*
X170815000Y-97663000D03*
D10*
X177800000Y-80645000D03*
D16*
X170815000Y-73787000D03*
D11*
X177800000Y-85725000D03*
X186055000Y-73787000D03*
X186055000Y-97663000D03*
D10*
X177800000Y-90805000D03*
G04 #@! TD*
D11*
G04 #@! TO.C,MX20*
X196850000Y-95250000D03*
D10*
X191770000Y-95250000D03*
X201930000Y-95250000D03*
G04 #@! TD*
G04 #@! TO.C,MX1*
X125730000Y-57150000D03*
X115570000Y-57150000D03*
D11*
X120650000Y-57150000D03*
G04 #@! TD*
D10*
G04 #@! TO.C,MX13*
X153670000Y-114300000D03*
D11*
X158750000Y-114300000D03*
D10*
X163830000Y-114300000D03*
G04 #@! TD*
D12*
G04 #@! TO.C,D11*
X147796250Y-85725000D03*
D13*
X155416250Y-85725000D03*
G04 #@! TD*
D11*
G04 #@! TO.C,MX17*
X186055000Y-111887000D03*
X186055000Y-135763000D03*
X177800000Y-123825000D03*
D10*
X177800000Y-128905000D03*
X177800000Y-118745000D03*
D16*
X170815000Y-135763000D03*
X170815000Y-111887000D03*
G04 #@! TD*
D13*
G04 #@! TO.C,D3*
X117316250Y-104775000D03*
D12*
X109696250Y-104775000D03*
G04 #@! TD*
G04 #@! TO.C,D7*
X128746250Y-85725000D03*
D13*
X136366250Y-85725000D03*
G04 #@! TD*
D10*
G04 #@! TO.C,MX7*
X144780000Y-76200000D03*
D11*
X139700000Y-76200000D03*
D10*
X134620000Y-76200000D03*
G04 #@! TD*
D11*
G04 #@! TO.C,MX10*
X158750000Y-57150000D03*
D10*
X163830000Y-57150000D03*
X153670000Y-57150000D03*
G04 #@! TD*
G04 #@! TO.C,MX14*
X163830000Y-133350000D03*
D11*
X158750000Y-133350000D03*
D10*
X153670000Y-133350000D03*
G04 #@! TD*
D12*
G04 #@! TO.C,D14*
X147796250Y-142875000D03*
D13*
X155416250Y-142875000D03*
G04 #@! TD*
D12*
G04 #@! TO.C,D19*
X190658750Y-85725000D03*
D13*
X198278750Y-85725000D03*
G04 #@! TD*
D12*
G04 #@! TO.C,D9*
X128746250Y-123825000D03*
D13*
X136366250Y-123825000D03*
G04 #@! TD*
G04 #@! TO.C,D1*
X117316250Y-66675000D03*
D12*
X109696250Y-66675000D03*
G04 #@! TD*
G04 #@! TO.C,D5*
X109696250Y-131762500D03*
D13*
X109696250Y-139382500D03*
G04 #@! TD*
D10*
G04 #@! TO.C,MX11*
X163830000Y-76200000D03*
D11*
X158750000Y-76200000D03*
D10*
X153670000Y-76200000D03*
G04 #@! TD*
D17*
G04 #@! TO.C,SW1*
X189366798Y-37748048D03*
D18*
X189366798Y-42748048D03*
X189366798Y-40248048D03*
D19*
X196866798Y-45848048D03*
X196866798Y-34648048D03*
D18*
X203866798Y-42748048D03*
X203866798Y-37748048D03*
G04 #@! TD*
D12*
G04 #@! TO.C,D12*
X147796250Y-104775000D03*
D13*
X155416250Y-104775000D03*
G04 #@! TD*
D20*
G04 #@! TO.C,SW3*
X185356250Y-26491250D03*
X183356250Y-26491250D03*
D21*
X181356250Y-26491250D03*
D22*
X187456250Y-26491250D03*
X179256250Y-26491250D03*
G04 #@! TD*
D12*
G04 #@! TO.C,A1*
X117475000Y-25666250D03*
D23*
X120015000Y-25666250D03*
X122555000Y-25666250D03*
X125095000Y-25666250D03*
X127635000Y-25666250D03*
X130175000Y-25666250D03*
X132715000Y-25666250D03*
X135255000Y-25666250D03*
X137795000Y-25666250D03*
X140335000Y-25666250D03*
X142875000Y-25666250D03*
X145415000Y-25666250D03*
X147955000Y-25666250D03*
X150495000Y-25666250D03*
X153035000Y-25666250D03*
X155575000Y-25666250D03*
X155575000Y-45986250D03*
X153035000Y-45986250D03*
X150495000Y-45986250D03*
X147955000Y-45986250D03*
X145415000Y-45986250D03*
X142875000Y-45986250D03*
X140335000Y-45986250D03*
X137795000Y-45986250D03*
X135255000Y-45986250D03*
X132715000Y-45986250D03*
X130175000Y-45986250D03*
X127635000Y-45986250D03*
G04 #@! TD*
D10*
G04 #@! TO.C,MX3*
X115570000Y-95250000D03*
D11*
X120650000Y-95250000D03*
D10*
X125730000Y-95250000D03*
G04 #@! TD*
D24*
G04 #@! TO.C,SW2*
X114375000Y-31424000D03*
X120575000Y-35124000D03*
X114375000Y-35124000D03*
X120575000Y-31424000D03*
G04 #@! TD*
D13*
G04 #@! TO.C,D23*
X193516250Y-48418750D03*
D12*
X185896250Y-48418750D03*
G04 #@! TD*
G04 #@! TO.C,D10*
X147796250Y-66675000D03*
D13*
X155416250Y-66675000D03*
G04 #@! TD*
D11*
G04 #@! TO.C,MX9*
X139700000Y-114300000D03*
D10*
X134620000Y-114300000D03*
X144780000Y-114300000D03*
G04 #@! TD*
D12*
G04 #@! TO.C,D22*
X185896250Y-142875000D03*
D13*
X193516250Y-142875000D03*
G04 #@! TD*
D12*
G04 #@! TO.C,D20*
X190658750Y-104775000D03*
D13*
X198278750Y-104775000D03*
G04 #@! TD*
D10*
G04 #@! TO.C,MX19*
X201930000Y-76200000D03*
X191770000Y-76200000D03*
D11*
X196850000Y-76200000D03*
G04 #@! TD*
G04 #@! TO.C,MX22*
X196850000Y-133350000D03*
D10*
X201930000Y-133350000D03*
X191770000Y-133350000D03*
G04 #@! TD*
G04 #@! TO.C,MX2*
X115570000Y-76200000D03*
D11*
X120650000Y-76200000D03*
D10*
X125730000Y-76200000D03*
G04 #@! TD*
D11*
G04 #@! TO.C,MX15*
X177800000Y-57150000D03*
D10*
X182880000Y-57150000D03*
X172720000Y-57150000D03*
G04 #@! TD*
D12*
G04 #@! TO.C,D6*
X128746250Y-66675000D03*
D13*
X136366250Y-66675000D03*
G04 #@! TD*
D12*
G04 #@! TO.C,D8*
X128746250Y-104775000D03*
D13*
X136366250Y-104775000D03*
G04 #@! TD*
D10*
G04 #@! TO.C,MX4*
X115570000Y-114300000D03*
D11*
X120650000Y-114300000D03*
D10*
X125730000Y-114300000D03*
G04 #@! TD*
D12*
G04 #@! TO.C,D15*
X166846250Y-66675000D03*
D13*
X174466250Y-66675000D03*
G04 #@! TD*
D11*
G04 #@! TO.C,MX8*
X139700000Y-95250000D03*
D10*
X134620000Y-95250000D03*
X144780000Y-95250000D03*
G04 #@! TD*
D12*
G04 #@! TO.C,D16*
X166846250Y-104775000D03*
D13*
X174466250Y-104775000D03*
G04 #@! TD*
D16*
G04 #@! TO.C,MX5*
X142113000Y-126365000D03*
D11*
X118237000Y-141605000D03*
D10*
X125095000Y-133350000D03*
X135255000Y-133350000D03*
D11*
X130175000Y-133350000D03*
X142113000Y-141605000D03*
D16*
X118237000Y-126365000D03*
G04 #@! TD*
D10*
G04 #@! TO.C,MX21*
X201930000Y-114300000D03*
D11*
X196850000Y-114300000D03*
D10*
X191770000Y-114300000D03*
G04 #@! TD*
D12*
G04 #@! TO.C,D17*
X166846250Y-142875000D03*
D13*
X174466250Y-142875000D03*
G04 #@! TD*
G04 #@! TO.C,D2*
X117316250Y-85725000D03*
D12*
X109696250Y-85725000D03*
G04 #@! TD*
D10*
G04 #@! TO.C,MX12*
X163830000Y-95250000D03*
X153670000Y-95250000D03*
D11*
X158750000Y-95250000D03*
G04 #@! TD*
D12*
G04 #@! TO.C,D18*
X188277500Y-66675000D03*
D13*
X195897500Y-66675000D03*
G04 #@! TD*
G04 #@! TO.C,D21*
X198278750Y-123825000D03*
D12*
X190658750Y-123825000D03*
G04 #@! TD*
M02*
