<?xml version="1.0" encoding="UTF-8" standalone="no"?>
<svg
   version="1.1"
   width="29.700220cm"
   height="21.000720cm"
   viewBox="0 0 297002200 210007200"
   id="svg2600"
   sodipodi:docname="Plate-Edge_Cuts.svg"
   inkscape:version="1.2.1 (9c6d41e410, 2022-07-14)"
   xmlns:inkscape="http://www.inkscape.org/namespaces/inkscape"
   xmlns:sodipodi="http://sodipodi.sourceforge.net/DTD/sodipodi-0.dtd"
   xmlns="http://www.w3.org/2000/svg"
   xmlns:svg="http://www.w3.org/2000/svg">
  <defs
     id="defs2604" />
  <sodipodi:namedview
     id="namedview2602"
     pagecolor="#ffffff"
     bordercolor="#000000"
     borderopacity="0.25"
     inkscape:showpageshadow="2"
     inkscape:pageopacity="0.0"
     inkscape:pagecheckerboard="0"
     inkscape:deskcolor="#d1d1d1"
     inkscape:document-units="cm"
     showgrid="false"
     inkscape:zoom="1.0885342"
     inkscape:cx="632.96131"
     inkscape:cy="353.22732"
     inkscape:window-width="1920"
     inkscape:window-height="1051"
     inkscape:window-x="1911"
     inkscape:window-y="-9"
     inkscape:window-maximized="1"
     inkscape:current-layer="svg2600" />
  <title
     id="title1304">SVG Picture created as Plate-Edge_Cuts.svg date 2022/11/02 15:26:49 </title>
  <desc
     id="desc1306">Picture generated by PCBNEW </desc>
  <g
     style="fill:#000000; fill-opacity:1.000000;stroke:#000000; stroke-opacity:1.000000; stroke-linecap:round; stroke-linejoin:round;"
     transform="translate(0 0) scale(1 1)"
     id="g1308" />
  <g
     style="fill:#000000; fill-opacity:0.0;  stroke:#000000; stroke-width:0.000000; stroke-opacity:1;  stroke-linecap:round; stroke-linejoin:round;"
     id="g1310" />
  <g
     style="fill:#000000; fill-opacity:0.0;  stroke:#000000; stroke-width:21200.000000; stroke-opacity:1;  stroke-linecap:round; stroke-linejoin:round;"
     id="g1312" />
  <g
     style="fill:#000000; fill-opacity:0.0;  stroke:#000000; stroke-width:21200.000000; stroke-opacity:1;  stroke-linecap:round; stroke-linejoin:round;"
     id="g1318" />
  <g
     style="fill:#000000; fill-opacity:0.0;  stroke:#000000; stroke-width:21200.000000; stroke-opacity:1;  stroke-linecap:round; stroke-linejoin:round;"
     id="g1324" />
  <g
     style="fill:#000000; fill-opacity:0.0;  stroke:#000000; stroke-width:21200.000000; stroke-opacity:1;  stroke-linecap:round; stroke-linejoin:round;"
     id="g1330" />
  <g
     style="fill:#000000; fill-opacity:0.0;  stroke:#000000; stroke-width:21200.000000; stroke-opacity:1;  stroke-linecap:round; stroke-linejoin:round;"
     id="g1336" />
  <g
     style="fill:#000000; fill-opacity:0.0;  stroke:#000000; stroke-width:21200.000000; stroke-opacity:1;  stroke-linecap:round; stroke-linejoin:round;"
     id="g1342" />
  <g
     style="fill:#000000; fill-opacity:0.0;  stroke:#000000; stroke-width:21200.000000; stroke-opacity:1;  stroke-linecap:round; stroke-linejoin:round;"
     id="g1348" />
  <g
     style="fill:#000000; fill-opacity:0.0;  stroke:#000000; stroke-width:21200.000000; stroke-opacity:1;  stroke-linecap:round; stroke-linejoin:round;"
     id="g1354" />
  <g
     style="fill:#000000; fill-opacity:0.0;  stroke:#000000; stroke-width:21200.000000; stroke-opacity:1;  stroke-linecap:round; stroke-linejoin:round;"
     id="g1360" />
  <g
     style="fill:#000000; fill-opacity:0.0;  stroke:#000000; stroke-width:21200.000000; stroke-opacity:1;  stroke-linecap:round; stroke-linejoin:round;"
     id="g1374" />
  <g
     style="fill:#000000; fill-opacity:0.0;  stroke:#000000; stroke-width:21200.000000; stroke-opacity:1;  stroke-linecap:round; stroke-linejoin:round;"
     id="g1386" />
  <g
     style="fill:#000000; fill-opacity:0.0;  stroke:#000000; stroke-width:21200.000000; stroke-opacity:1;  stroke-linecap:round; stroke-linejoin:round;"
     id="g1398" />
  <g
     style="fill:#000000; fill-opacity:0.0;  stroke:#000000; stroke-width:21200.000000; stroke-opacity:1;  stroke-linecap:round; stroke-linejoin:round;"
     id="g1412" />
  <g
     style="fill:#000000; fill-opacity:0.0;  stroke:#000000; stroke-width:21200.000000; stroke-opacity:1;  stroke-linecap:round; stroke-linejoin:round;"
     id="g1424" />
  <g
     style="fill:#000000; fill-opacity:0.0;  stroke:#000000; stroke-width:21200.000000; stroke-opacity:1;  stroke-linecap:round; stroke-linejoin:round;"
     id="g1436" />
  <g
     style="fill:#000000; fill-opacity:0.0;  stroke:#000000; stroke-width:21200.000000; stroke-opacity:1;  stroke-linecap:round; stroke-linejoin:round;"
     id="g1442" />
  <g
     style="fill:#000000; fill-opacity:0.0;  stroke:#000000; stroke-width:21200.000000; stroke-opacity:1;  stroke-linecap:round; stroke-linejoin:round;"
     id="g1448" />
  <g
     style="fill:#000000; fill-opacity:0.0;  stroke:#000000; stroke-width:21200.000000; stroke-opacity:1;  stroke-linecap:round; stroke-linejoin:round;"
     id="g1454" />
  <g
     style="fill:#000000; fill-opacity:0.0;  stroke:#000000; stroke-width:21200.000000; stroke-opacity:1;  stroke-linecap:round; stroke-linejoin:round;"
     id="g1460" />
  <g
     style="fill:#000000; fill-opacity:0.0;  stroke:#000000; stroke-width:21200.000000; stroke-opacity:1;  stroke-linecap:round; stroke-linejoin:round;"
     id="g1466" />
  <g
     style="fill:#000000; fill-opacity:0.0;  stroke:#000000; stroke-width:21200.000000; stroke-opacity:1;  stroke-linecap:round; stroke-linejoin:round;"
     id="g1480" />
  <g
     style="fill:#000000; fill-opacity:0.0;  stroke:#000000; stroke-width:21200.000000; stroke-opacity:1;  stroke-linecap:round; stroke-linejoin:round;"
     id="g1492" />
  <g
     style="fill:#000000; fill-opacity:0.0;  stroke:#000000; stroke-width:21200.000000; stroke-opacity:1;  stroke-linecap:round; stroke-linejoin:round;"
     id="g1504" />
  <g
     style="fill:#000000; fill-opacity:0.0;  stroke:#000000; stroke-width:21200.000000; stroke-opacity:1;  stroke-linecap:round; stroke-linejoin:round;"
     id="g1518" />
  <g
     style="fill:#000000; fill-opacity:0.0;  stroke:#000000; stroke-width:21200.000000; stroke-opacity:1;  stroke-linecap:round; stroke-linejoin:round;"
     id="g1530" />
  <g
     style="fill:#000000; fill-opacity:0.0;  stroke:#000000; stroke-width:21200.000000; stroke-opacity:1;  stroke-linecap:round; stroke-linejoin:round;"
     id="g1542" />
  <g
     style="fill:#000000; fill-opacity:0.0;  stroke:#000000; stroke-width:21200.000000; stroke-opacity:1;  stroke-linecap:round; stroke-linejoin:round;"
     id="g1548" />
  <g
     style="fill:#000000; fill-opacity:0.0;  stroke:#000000; stroke-width:21200.000000; stroke-opacity:1;  stroke-linecap:round; stroke-linejoin:round;"
     id="g1554" />
  <g
     style="fill:#000000; fill-opacity:0.0;  stroke:#000000; stroke-width:21200.000000; stroke-opacity:1;  stroke-linecap:round; stroke-linejoin:round;"
     id="g1560" />
  <g
     style="fill:#000000; fill-opacity:0.0;  stroke:#000000; stroke-width:21200.000000; stroke-opacity:1;  stroke-linecap:round; stroke-linejoin:round;"
     id="g1574" />
  <g
     style="fill:#000000; fill-opacity:0.0;  stroke:#000000; stroke-width:21200.000000; stroke-opacity:1;  stroke-linecap:round; stroke-linejoin:round;"
     id="g1586" />
  <g
     style="fill:#000000; fill-opacity:0.0;  stroke:#000000; stroke-width:21200.000000; stroke-opacity:1;  stroke-linecap:round; stroke-linejoin:round;"
     id="g1598" />
  <g
     style="fill:#000000; fill-opacity:0.0;  stroke:#000000; stroke-width:21200.000000; stroke-opacity:1;  stroke-linecap:round; stroke-linejoin:round;"
     id="g1610" />
  <g
     style="fill:#000000; fill-opacity:0.0;  stroke:#000000; stroke-width:21200.000000; stroke-opacity:1;  stroke-linecap:round; stroke-linejoin:round;"
     id="g1616" />
  <g
     style="fill:#000000; fill-opacity:0.0;  stroke:#000000; stroke-width:21200.000000; stroke-opacity:1;  stroke-linecap:round; stroke-linejoin:round;"
     id="g1622" />
  <g
     style="fill:#000000; fill-opacity:0.0;  stroke:#000000; stroke-width:21200.000000; stroke-opacity:1;  stroke-linecap:round; stroke-linejoin:round;"
     id="g1628" />
  <g
     style="fill:#000000; fill-opacity:0.0;  stroke:#000000; stroke-width:21200.000000; stroke-opacity:1;  stroke-linecap:round; stroke-linejoin:round;"
     id="g1642" />
  <g
     style="fill:#000000; fill-opacity:0.0;  stroke:#000000; stroke-width:21200.000000; stroke-opacity:1;  stroke-linecap:round; stroke-linejoin:round;"
     id="g1654" />
  <g
     style="fill:#000000; fill-opacity:0.0;  stroke:#000000; stroke-width:21200.000000; stroke-opacity:1;  stroke-linecap:round; stroke-linejoin:round;"
     id="g1666" />
  <g
     style="fill:#000000; fill-opacity:0.0;  stroke:#000000; stroke-width:21200.000000; stroke-opacity:1;  stroke-linecap:round; stroke-linejoin:round;"
     id="g1678" />
  <g
     style="fill:#000000; fill-opacity:0.0;  stroke:#000000; stroke-width:21200.000000; stroke-opacity:1;  stroke-linecap:round; stroke-linejoin:round;"
     id="g1704" />
  <g
     style="fill:#000000; fill-opacity:0.0;  stroke:#000000; stroke-width:21200.000000; stroke-opacity:1;  stroke-linecap:round; stroke-linejoin:round;"
     id="g1710" />
  <g
     style="fill:#000000; fill-opacity:0.0;  stroke:#000000; stroke-width:21200.000000; stroke-opacity:1;  stroke-linecap:round; stroke-linejoin:round;"
     id="g1788" />
  <g
     style="fill:#000000; fill-opacity:0.0;  stroke:#000000; stroke-width:21200.000000; stroke-opacity:1;  stroke-linecap:round; stroke-linejoin:round;"
     id="g1794" />
  <g
     style="fill:#000000; fill-opacity:0.0;  stroke:#000000; stroke-width:21200.000000; stroke-opacity:1;  stroke-linecap:round; stroke-linejoin:round;"
     id="g1816" />
  <g
     style="fill:#000000; fill-opacity:0.0;  stroke:#000000; stroke-width:21200.000000; stroke-opacity:1;  stroke-linecap:round; stroke-linejoin:round;"
     id="g1848" />
  <g
     style="fill:#000000; fill-opacity:0.0;  stroke:#000000; stroke-width:21200.000000; stroke-opacity:1;  stroke-linecap:round; stroke-linejoin:round;"
     id="g1878" />
  <g
     style="fill:#000000; fill-opacity:0.0;  stroke:#000000; stroke-width:21200.000000; stroke-opacity:1;  stroke-linecap:round; stroke-linejoin:round;"
     id="g1884" />
  <g
     style="fill:#000000; fill-opacity:0.0;  stroke:#000000; stroke-width:21200.000000; stroke-opacity:1;  stroke-linecap:round; stroke-linejoin:round;"
     id="g1914" />
  <g
     style="fill:#000000; fill-opacity:0.0;  stroke:#000000; stroke-width:21200.000000; stroke-opacity:1;  stroke-linecap:round; stroke-linejoin:round;"
     id="g1988" />
  <g
     style="fill:#000000; fill-opacity:0.0;  stroke:#000000; stroke-width:21200.000000; stroke-opacity:1;  stroke-linecap:round; stroke-linejoin:round;"
     id="g1994" />
  <g
     style="fill:#000000; fill-opacity:0.0;  stroke:#000000; stroke-width:21200.000000; stroke-opacity:1;  stroke-linecap:round; stroke-linejoin:round;"
     id="g2022" />
  <g
     style="fill:#000000; fill-opacity:0.0;  stroke:#000000; stroke-width:300000.000000; stroke-opacity:1;  stroke-linecap:round; stroke-linejoin:round;"
     id="g2030">
    <text
       x="178002200.000000"
       y="180757200.000000"
       textLength="150000.000000"
       font-size="2000000.000000"
       lengthAdjust="spacingAndGlyphs"
       text-anchor="start"
       opacity="0"
       id="text2024" />
    <g
       class="stroked-text"
       id="g2028">
      <desc
         id="desc2026" />
    </g>
  </g>
  <g
     style="fill:#000000; fill-opacity:0.0;  stroke:#000000; stroke-width:21200.000000; stroke-opacity:1;  stroke-linecap:round; stroke-linejoin:round;"
     id="g2032" />
  <g
     style="fill:#000000; fill-opacity:0.0;  stroke:#000000; stroke-width:150000.000000; stroke-opacity:1;  stroke-linecap:round; stroke-linejoin:round;"
     id="g2040">
    <text
       x="178002200.000000"
       y="177757200.000000"
       textLength="300000.000000"
       font-size="2000000.000000"
       lengthAdjust="spacingAndGlyphs"
       text-anchor="start"
       opacity="0"
       id="text2034" />
    <g
       class="stroked-text"
       id="g2038">
      <desc
         id="desc2036" />
    </g>
  </g>
  <g
     style="fill:#000000; fill-opacity:0.0;  stroke:#000000; stroke-width:21200.000000; stroke-opacity:1;  stroke-linecap:round; stroke-linejoin:round;"
     id="g2042" />
  <g
     style="fill:#000000; fill-opacity:0.0;  stroke:#000000; stroke-width:150000.000000; stroke-opacity:1;  stroke-linecap:round; stroke-linejoin:round;"
     id="g2050">
    <text
       x="178002200.000000"
       y="174757200.000000"
       textLength="150000.000000"
       font-size="2000000.000000"
       lengthAdjust="spacingAndGlyphs"
       text-anchor="start"
       opacity="0"
       id="text2044" />
    <g
       class="stroked-text"
       id="g2048">
      <desc
         id="desc2046" />
    </g>
  </g>
  <g
     style="fill:#000000; fill-opacity:0.0;  stroke:#000000; stroke-width:21200.000000; stroke-opacity:1;  stroke-linecap:round; stroke-linejoin:round;"
     id="g2052" />
  <g
     style="fill:#000000; fill-opacity:0.0;  stroke:#000000; stroke-width:150000.000000; stroke-opacity:1;  stroke-linecap:round; stroke-linejoin:round;"
     id="g2060">
    <text
       x="178002200.000000"
       y="171757200.000000"
       textLength="150000.000000"
       font-size="2000000.000000"
       lengthAdjust="spacingAndGlyphs"
       text-anchor="start"
       opacity="0"
       id="text2054" />
    <g
       class="stroked-text"
       id="g2058">
      <desc
         id="desc2056" />
    </g>
  </g>
  <g
     style="fill:#000000; fill-opacity:0.0;  stroke:#000000; stroke-width:21200.000000; stroke-opacity:1;  stroke-linecap:round; stroke-linejoin:round;"
     id="g2062" />
  <g
     style="fill:#000000; fill-opacity:0.0;  stroke:#000000; stroke-width:150000.000000; stroke-opacity:1;  stroke-linecap:round; stroke-linejoin:round;"
     id="g2070">
    <text
       x="178002200.000000"
       y="168757200.000000"
       textLength="150000.000000"
       font-size="2000000.000000"
       lengthAdjust="spacingAndGlyphs"
       text-anchor="start"
       opacity="0"
       id="text2064" />
    <g
       class="stroked-text"
       id="g2068">
      <desc
         id="desc2066" />
    </g>
  </g>
  <g
     style="fill:#000000; fill-opacity:0.0;  stroke:#000000; stroke-width:21200.000000; stroke-opacity:1;  stroke-linecap:round; stroke-linejoin:round;"
     id="g2072" />
  <g
     style="fill:#000000; fill-opacity:0.0;  stroke:#000000; stroke-width:21200.000000; stroke-opacity:1;  stroke-linecap:round; stroke-linejoin:round;"
     id="g2078" />
  <g
     style="fill:#000000; fill-opacity:0.0;  stroke:#000000; stroke-width:200000.000000; stroke-opacity:1;  stroke-linecap:round; stroke-linejoin:round;"
     id="g2598">
    <path
       d="M121324850.000000 70178575.000000 A500000.000000 500000.000000 0.0 0 0 121824850.000000 70678575.000000"
       id="path2084" />
    <path
       d="M102274850.000000 127328575.000000 A500000.000000 500000.000000 0.0 0 0 102774850.000000 127828575.000000"
       id="path2086" />
    <path
       d="M140374850 95278575 L140374850 108278575 "
       id="path2088" />
    <path
       d="M102774850 70678575 L115774850 70678575 "
       id="path2090" />
    <path
       d="M178474850 57178575 L178474850 70178575 "
       id="path2092" />
    <path
       d="M125148850 34861375 L125148850 48990375 "
       id="path2094" />
    <path
       d="M159424850.000000 136853575.000000 A500000.000000 500000.000000 0.0 0 0 159924850.000000 137353575.000000"
       id="path2096" />
    <path
       d="M173424850.000000 85753575.000000 A500000.000000 500000.000000 0.0 0 0 172924850.000000 85253575.000000"
       id="path2098" />
    <path
       d="M191974850.000000 127828575.000000 A500000.000000 500000.000000 0.0 0 0 192474850.000000 127328575.000000"
       id="path2100" />
    <path
       d="M102274850 57178575 L102274850 70178575 "
       id="path2102" />
    <path
       d="M192474850 95278575 L192474850 108278575 "
       id="path2104" />
    <circle
       cx="93414850.000000"
       cy="26349325.000000"
       r="1600000.000000"
       id="circle2106" />
    <path
       d="M178974850.000000 132878575.000000 A500000.000000 500000.000000 0.0 0 0 178474850.000000 133378575.000000"
       id="path2108" />
    <path
       d="M140374850.000000 89228575.000000 A500000.000000 500000.000000 0.0 0 0 140874850.000000 89728575.000000"
       id="path2110" />
    <path
       d="M102279450 35953575 L109940850 35953575 "
       id="path2112" />
    <path
       d="M157924850.000000 100691575.000000 A500000.000000 500000.000000 0.0 0 0 157424850.000000 101191575.000000"
       id="path2114" />
    <path
       d="M172424850.000000 101191575.000000 A500000.000000 500000.000000 0.0 0 0 171924850.000000 100691575.000000"
       id="path2116" />
    <path
       d="M178974850 75728575 L191974850 75728575 "
       id="path2118" />
    <path
       d="M157424850.000000 121415575.000000 A500000.000000 500000.000000 0.0 0 0 157924850.000000 121915575.000000"
       id="path2120" />
    <path
       d="M135324850.000000 76228575.000000 A500000.000000 500000.000000 0.0 0 0 134824850.000000 75728575.000000"
       id="path2122" />
    <path
       d="M171924850 107691575 L157924850 107691575 "
       id="path2124" />
    <path
       d="M159424850.000000 70178575.000000 A500000.000000 500000.000000 0.0 0 0 159924850.000000 70678575.000000"
       id="path2126" />
    <path
       d="M193744850 38712775 L193744850 54790975 "
       id="path2128" />
    <path
       d="M140874850.000000 75728575.000000 A500000.000000 500000.000000 0.0 0 0 140374850.000000 76228575.000000"
       id="path2130" />
    <path
       d="M125799850 133378575 L125799850 146378575 "
       id="path2132" />
    <path
       d="M159424850.000000 98753575.000000 A500000.000000 500000.000000 0.0 0 0 159924850.000000 99253575.000000"
       id="path2134" />
    <path
       d="M172924850.000000 70678575.000000 A500000.000000 500000.000000 0.0 0 0 173424850.000000 70178575.000000"
       id="path2136" />
    <path
       d="M112299850 132878575 L125299850 132878575 "
       id="path2138" />
    <path
       d="M135324850.000000 57178575.000000 A500000.000000 500000.000000 0.0 0 0 134824850.000000 56678575.000000"
       id="path2140" />
    <path
       d="M172924850.000000 137353575.000000 A500000.000000 500000.000000 0.0 0 0 173424850.000000 136853575.000000"
       id="path2142" />
    <path
       d="M121824850 127828575 L134824850 127828575 "
       id="path2144" />
    <path
       d="M177260250 38712775 L193744850 38712775 "
       id="path2146" />
    <path
       d="M191974850.000000 70678575.000000 A500000.000000 500000.000000 0.0 0 0 192474850.000000 70178575.000000"
       id="path2148" />
    <path
       d="M102774850 127828575 L115774850 127828575 "
       id="path2150" />
    <path
       d="M121824850.000000 113828575.000000 A500000.000000 500000.000000 0.0 0 0 121324850.000000 114328575.000000"
       id="path2152" />
    <path
       d="M171924850.000000 83815575.000000 A500000.000000 500000.000000 0.0 0 0 172424850.000000 83315575.000000"
       id="path2154" />
    <path
       d="M140874850.000000 113828575.000000 A500000.000000 500000.000000 0.0 0 0 140374850.000000 114328575.000000"
       id="path2156" />
    <path
       d="M103861850 148878575 L109861850 148878575 "
       id="path2158" />
    <path
       d="M171924850 76815575 L157924850 76815575 "
       id="path2160" />
    <path
       d="M111799850 133378575 L111799850 146378575 "
       id="path2162" />
    <path
       d="M178974850 146878575 L191974850 146878575 "
       id="path2164" />
    <path
       d="M192474850 133378575 L192474850 146378575 "
       id="path2166" />
    <path
       d="M154374850.000000 76228575.000000 A500000.000000 500000.000000 0.0 0 0 153874850.000000 75728575.000000"
       id="path2168" />
    <path
       d="M140874850.000000 132878575.000000 A500000.000000 500000.000000 0.0 0 0 140374850.000000 133378575.000000"
       id="path2170" />
    <path
       d="M103361850.000000 148378575.000000 A500000.000000 500000.000000 0.0 0 0 103861850.000000 148878575.000000"
       id="path2172" />
    <path
       d="M172424850 115415575 L172424850 121415575 "
       id="path2174" />
    <path
       d="M172924850 85253575 L159924850 85253575 "
       id="path2176" />
    <path
       d="M116274850.000000 95278575.000000 A500000.000000 500000.000000 0.0 0 0 115774850.000000 94778575.000000"
       id="path2178" />
    <path
       d="M121324850 76228575 L121324850 89228575 "
       id="path2180" />
    <path
       d="M206921050.000000 27143075.000000 A6350000.000000 6350000.000000 0.0 0 0 200571100.000000 20793075.000197"
       id="path2182" />
    <path
       d="M121324850 57178575 L121324850 70178575 "
       id="path2184" />
    <path
       d="M121324850 114328575 L121324850 127328575 "
       id="path2186" />
    <path
       d="M159924850.000000 85253575.000000 A500000.000000 500000.000000 0.0 0 0 159424850.000000 85753575.000000"
       id="path2188" />
    <path
       d="M87858600 27143075 L87858600 153349325 "
       id="path2190" />
    <path
       d="M102774850.000000 113828575.000000 A500000.000000 500000.000000 0.0 0 0 102274850.000000 114328575.000000"
       id="path2192" />
    <path
       d="M102279450 35953575 L102279450 43589575 "
       id="path2194" />
    <path
       d="M157924850.000000 138791575.000000 A500000.000000 500000.000000 0.0 0 0 157424850.000000 139291575.000000"
       id="path2196" />
    <path
       d="M121824850 94778575 L134824850 94778575 "
       id="path2198" />
    <path
       d="M192474850.000000 133378575.000000 A500000.000000 500000.000000 0.0 0 0 191974850.000000 132878575.000000"
       id="path2200" />
    <path
       d="M171924850 100691575 L157924850 100691575 "
       id="path2202" />
    <path
       d="M110361850 134378575 L110361850 148378575 "
       id="path2204" />
    <path
       d="M154374850 133378575 L154374850 146378575 "
       id="path2206" />
    <path
       d="M140374850.000000 108278575.000000 A500000.000000 500000.000000 0.0 0 0 140874850.000000 108778575.000000"
       id="path2208" />
    <path
       d="M154374850 57178575 L154374850 70178575 "
       id="path2210" />
    <path
       d="M154374850.000000 57178575.000000 A500000.000000 500000.000000 0.0 0 0 153874850.000000 56678575.000000"
       id="path2212" />
    <path
       d="M178474850.000000 70178575.000000 A500000.000000 500000.000000 0.0 0 0 178974850.000000 70678575.000000"
       id="path2214" />
    <path
       d="M153874850.000000 146878575.000000 A500000.000000 500000.000000 0.0 0 0 154374850.000000 146378575.000000"
       id="path2216" />
    <path
       d="M121824850 89728575 L134824850 89728575 "
       id="path2218" />
    <path
       d="M171924850.000000 107691575.000000 A500000.000000 500000.000000 0.0 0 0 172424850.000000 107191575.000000"
       id="path2220" />
    <path
       d="M115774850.000000 70678575.000000 A500000.000000 500000.000000 0.0 0 0 116274850.000000 70178575.000000"
       id="path2222" />
    <path
       d="M112299850.000000 132878575.000000 A500000.000000 500000.000000 0.0 0 0 111799850.000000 133378575.000000"
       id="path2224" />
    <circle
       cx="201364850.000000"
       cy="26349325.000000"
       r="1600000.000000"
       id="circle2226" />
    <path
       d="M140874850 127828575 L153874850 127828575 "
       id="path2228" />
    <path
       d="M192474850.000000 57178575.000000 A500000.000000 500000.000000 0.0 0 0 191974850.000000 56678575.000000"
       id="path2230" />
    <path
       d="M127737850 148878575 L133737850 148878575 "
       id="path2232" />
    <path
       d="M134824850.000000 127828575.000000 A500000.000000 500000.000000 0.0 0 0 135324850.000000 127328575.000000"
       id="path2234" />
    <path
       d="M103861850 133878575 L109861850 133878575 "
       id="path2236" />
    <path
       d="M159924850.000000 123353575.000000 A500000.000000 500000.000000 0.0 0 0 159424850.000000 123853575.000000"
       id="path2238" />
    <path
       d="M116274850.000000 57178575.000000 A500000.000000 500000.000000 0.0 0 0 115774850.000000 56678575.000000"
       id="path2240" />
    <path
       d="M102774850 113828575 L115774850 113828575 "
       id="path2242" />
    <path
       d="M159424850 85753575 L159424850 98753575 "
       id="path2244" />
    <path
       d="M178974850.000000 56678575.000000 A500000.000000 500000.000000 0.0 0 0 178474850.000000 57178575.000000"
       id="path2246" />
    <path
       d="M178974850 108778575 L191974850 108778575 "
       id="path2248" />
    <path
       d="M102774850 108778575 L115774850 108778575 "
       id="path2250" />
    <path
       d="M178474850 95278575 L178474850 108278575 "
       id="path2252" />
    <path
       d="M157424850 139291575 L157424850 145291575 "
       id="path2254" />
    <path
       d="M102274850.000000 70178575.000000 A500000.000000 500000.000000 0.0 0 0 102774850.000000 70678575.000000"
       id="path2256" />
    <path
       d="M172924850 123353575 L159924850 123353575 "
       id="path2258" />
    <path
       d="M173424850.000000 123853575.000000 A500000.000000 500000.000000 0.0 0 0 172924850.000000 123353575.000000"
       id="path2260" />
    <path
       d="M153874850.000000 70678575.000000 A500000.000000 500000.000000 0.0 0 0 154374850.000000 70178575.000000"
       id="path2262" />
    <path
       d="M172424850 101191575 L172424850 107191575 "
       id="path2264" />
    <path
       d="M140874850 132878575 L153874850 132878575 "
       id="path2266" />
    <path
       d="M173424850 85753575 L173424850 98753575 "
       id="path2268" />
    <path
       d="M172424850 77315575 L172424850 83315575 "
       id="path2270" />
    <path
       d="M121324850 95278575 L121324850 108278575 "
       id="path2272" />
    <path
       d="M159924850 70678575 L172924850 70678575 "
       id="path2274" />
    <path
       d="M127737850.000000 133878575.000000 A500000.000000 500000.000000 0.0 0 0 127237850.000000 134378575.000000"
       id="path2276" />
    <path
       d="M159924850 56678575 L172924850 56678575 "
       id="path2278" />
    <path
       d="M121324850.000000 127328575.000000 A500000.000000 500000.000000 0.0 0 0 121824850.000000 127828575.000000"
       id="path2280" />
    <path
       d="M167532050 36375975 L166439850 36375975 "
       id="path2282" />
    <path
       d="M178474850.000000 127328575.000000 A500000.000000 500000.000000 0.0 0 0 178974850.000000 127828575.000000"
       id="path2284" />
    <path
       d="M140874850.000000 94778575.000000 A500000.000000 500000.000000 0.0 0 0 140374850.000000 95278575.000000"
       id="path2286" />
    <path
       d="M177565050 29594175 L177565050 36375975 "
       id="path2288" />
    <path
       d="M134237850 134378575 L134237850 148378575 "
       id="path2290" />
    <path
       d="M157424850.000000 107191575.000000 A500000.000000 500000.000000 0.0 0 0 157924850.000000 107691575.000000"
       id="path2292" />
    <path
       d="M157924850.000000 114915575.000000 A500000.000000 500000.000000 0.0 0 0 157424850.000000 115415575.000000"
       id="path2294" />
    <path
       d="M192474850 114328575 L192474850 127328575 "
       id="path2296" />
    <path
       d="M154374850.000000 114328575.000000 A500000.000000 500000.000000 0.0 0 0 153874850.000000 113828575.000000"
       id="path2298" />
    <path
       d="M127237850 134378575 L127237850 148378575 "
       id="path2300" />
    <path
       d="M116274850 57178575 L116274850 70178575 "
       id="path2302" />
    <path
       d="M171924850.000000 121915575.000000 A500000.000000 500000.000000 0.0 0 0 172424850.000000 121415575.000000"
       id="path2304" />
    <path
       d="M192474850 76228575 L192474850 89228575 "
       id="path2306" />
    <path
       d="M135324850 57178575 L135324850 70178575 "
       id="path2308" />
    <path
       d="M171924850 138791575 L157924850 138791575 "
       id="path2310" />
    <path
       d="M121824850 108778575 L134824850 108778575 "
       id="path2312" />
    <path
       d="M172924850 99253575 L159924850 99253575 "
       id="path2314" />
    <path
       d="M140874850.000000 56678575.000000 A500000.000000 500000.000000 0.0 0 0 140374850.000000 57178575.000000"
       id="path2316" />
    <path
       d="M140874850 94778575 L153874850 94778575 "
       id="path2318" />
    <path
       d="M127737850 133878575 L133737850 133878575 "
       id="path2320" />
    <path
       d="M159924850.000000 56678575.000000 A500000.000000 500000.000000 0.0 0 0 159424850.000000 57178575.000000"
       id="path2322" />
    <path
       d="M159424850 57178575 L159424850 70178575 "
       id="path2324" />
    <path
       d="M172424850.000000 115415575.000000 A500000.000000 500000.000000 0.0 0 0 171924850.000000 114915575.000000"
       id="path2326" />
    <path
       d="M178974850 94778575 L191974850 94778575 "
       id="path2328" />
    <path
       d="M140374850 57178575 L140374850 70178575 "
       id="path2330" />
    <path
       d="M102774850.000000 56678575.000000 A500000.000000 500000.000000 0.0 0 0 102274850.000000 57178575.000000"
       id="path2332" />
    <path
       d="M140874850 113828575 L153874850 113828575 "
       id="path2334" />
    <path
       d="M192474850 57178575 L192474850 70178575 "
       id="path2336" />
    <path
       d="M116274850.000000 76228575.000000 A500000.000000 500000.000000 0.0 0 0 115774850.000000 75728575.000000"
       id="path2338" />
    <path
       d="M116274850 76228575 L116274850 89228575 "
       id="path2340" />
    <path
       d="M116274850.000000 114328575.000000 A500000.000000 500000.000000 0.0 0 0 115774850.000000 113828575.000000"
       id="path2342" />
    <path
       d="M173424850.000000 57178575.000000 A500000.000000 500000.000000 0.0 0 0 172924850.000000 56678575.000000"
       id="path2344" />
    <path
       d="M125799850.000000 133378575.000000 A500000.000000 500000.000000 0.0 0 0 125299850.000000 132878575.000000"
       id="path2346" />
    <path
       d="M121824850 113828575 L134824850 113828575 "
       id="path2348" />
    <path
       d="M177260250 38712775 L177260250 54790975 "
       id="path2350" />
    <path
       d="M157924850.000000 76815575.000000 A500000.000000 500000.000000 0.0 0 0 157424850.000000 77315575.000000"
       id="path2352" />
    <path
       d="M191974850.000000 108778575.000000 A500000.000000 500000.000000 0.0 0 0 192474850.000000 108278575.000000"
       id="path2354" />
    <path
       d="M206921100 153349325 L206921100 27143075 "
       id="path2356" />
    <path
       d="M178974850 56678575 L191974850 56678575 "
       id="path2358" />
    <path
       d="M154374850.000000 95278575.000000 A500000.000000 500000.000000 0.0 0 0 153874850.000000 94778575.000000"
       id="path2360" />
    <path
       d="M178474850.000000 108278575.000000 A500000.000000 500000.000000 0.0 0 0 178974850.000000 108778575.000000"
       id="path2362" />
    <path
       d="M154374850 95278575 L154374850 108278575 "
       id="path2364" />
    <path
       d="M172424850 139291575 L172424850 145291575 "
       id="path2366" />
    <path
       d="M193744850 54790975 L177260250 54790975 "
       id="path2368" />
    <path
       d="M140374850.000000 127328575.000000 A500000.000000 500000.000000 0.0 0 0 140874850.000000 127828575.000000"
       id="path2370" />
    <path
       d="M191974850.000000 146878575.000000 A500000.000000 500000.000000 0.0 0 0 192474850.000000 146378575.000000"
       id="path2372" />
    <path
       d="M134237850.000000 134378575.000000 A500000.000000 500000.000000 0.0 0 0 133737850.000000 133878575.000000"
       id="path2374" />
    <path
       d="M167532050 29594175 L177565050 29594175 "
       id="path2376" />
    <path
       d="M172424850.000000 139291575.000000 A500000.000000 500000.000000 0.0 0 0 171924850.000000 138791575.000000"
       id="path2378" />
    <path
       d="M110361850.000000 134378575.000000 A500000.000000 500000.000000 0.0 0 0 109861850.000000 133878575.000000"
       id="path2380" />
    <path
       d="M172924850.000000 99253575.000000 A500000.000000 500000.000000 0.0 0 0 173424850.000000 98753575.000000"
       id="path2382" />
    <path
       d="M165303450 48990375 L165303450 34861375 "
       id="path2384" />
    <path
       d="M192474850.000000 114328575.000000 A500000.000000 500000.000000 0.0 0 0 191974850.000000 113828575.000000"
       id="path2386" />
    <path
       d="M172924850 137353575 L159924850 137353575 "
       id="path2388" />
    <path
       d="M115774850.000000 127828575.000000 A500000.000000 500000.000000 0.0 0 0 116274850.000000 127328575.000000"
       id="path2390" />
    <path
       d="M121824850 70678575 L134824850 70678575 "
       id="path2392" />
    <path
       d="M159424850 123853575 L159424850 136853575 "
       id="path2394" />
    <path
       d="M135324850 95278575 L135324850 108278575 "
       id="path2396" />
    <path
       d="M87858600.000197 153349325.000000 A6350050.000000 6350050.000000 0.0 0 0 94208600.000000 159699324.999803"
       id="path2398" />
    <path
       d="M192474850.000000 76228575.000000 A500000.000000 500000.000000 0.0 0 0 191974850.000000 75728575.000000"
       id="path2400" />
    <path
       d="M140874850 89728575 L153874850 89728575 "
       id="path2402" />
    <path
       d="M178474850 133378575 L178474850 146378575 "
       id="path2404" />
    <path
       d="M192474850.000000 95278575.000000 A500000.000000 500000.000000 0.0 0 0 191974850.000000 94778575.000000"
       id="path2406" />
    <path
       d="M121324850.000000 108278575.000000 A500000.000000 500000.000000 0.0 0 0 121824850.000000 108778575.000000"
       id="path2408" />
    <path
       d="M103861850.000000 133878575.000000 A500000.000000 500000.000000 0.0 0 0 103361850.000000 134378575.000000"
       id="path2410" />
    <path
       d="M171924850 83815575 L157924850 83815575 "
       id="path2412" />
    <path
       d="M121824850 56678575 L134824850 56678575 "
       id="path2414" />
    <path
       d="M134824850.000000 89728575.000000 A500000.000000 500000.000000 0.0 0 0 135324850.000000 89228575.000000"
       id="path2416" />
    <path
       d="M135324850 114328575 L135324850 127328575 "
       id="path2418" />
    <path
       d="M153874850.000000 127828575.000000 A500000.000000 500000.000000 0.0 0 0 154374850.000000 127328575.000000"
       id="path2420" />
    <path
       d="M102774850 75728575 L115774850 75728575 "
       id="path2422" />
    <path
       d="M102274850 76228575 L102274850 89228575 "
       id="path2424" />
    <path
       d="M178974850.000000 94778575.000000 A500000.000000 500000.000000 0.0 0 0 178474850.000000 95278575.000000"
       id="path2426" />
    <path
       d="M178474850 76228575 L178474850 89228575 "
       id="path2428" />
    <path
       d="M171924850 121915575 L157924850 121915575 "
       id="path2430" />
    <path
       d="M200571100 20793075 L94208600 20793075 "
       id="path2432" />
    <path
       d="M102774850 56678575 L115774850 56678575 "
       id="path2434" />
    <path
       d="M200571100.000000 159699325.000000 A6350000.000000 6350000.000000 0.0 0 0 206921100.000000 153349325.000000"
       id="path2436" />
    <path
       d="M140874850 70678575 L153874850 70678575 "
       id="path2438" />
    <path
       d="M102774850 94778575 L115774850 94778575 "
       id="path2440" />
    <path
       d="M165303450 48990375 L125164850 48990375 "
       id="path2442" />
    <path
       d="M115774850.000000 89728575.000000 A500000.000000 500000.000000 0.0 0 0 116274850.000000 89228575.000000"
       id="path2444" />
    <path
       d="M165287450 34861375 L125148850 34861375 "
       id="path2446" />
    <path
       d="M171924850 114915575 L157924850 114915575 "
       id="path2448" />
    <path
       d="M154374850 114328575 L154374850 127328575 "
       id="path2450" />
    <path
       d="M102774850.000000 75728575.000000 A500000.000000 500000.000000 0.0 0 0 102274850.000000 76228575.000000"
       id="path2452" />
    <path
       d="M134824850.000000 70678575.000000 A500000.000000 500000.000000 0.0 0 0 135324850.000000 70178575.000000"
       id="path2454" />
    <path
       d="M178474850.000000 146378575.000000 A500000.000000 500000.000000 0.0 0 0 178974850.000000 146878575.000000"
       id="path2456" />
    <path
       d="M112299850 146878575 L125299850 146878575 "
       id="path2458" />
    <path
       d="M134824850.000000 108778575.000000 A500000.000000 500000.000000 0.0 0 0 135324850.000000 108278575.000000"
       id="path2460" />
    <path
       d="M102774850.000000 94778575.000000 A500000.000000 500000.000000 0.0 0 0 102274850.000000 95278575.000000"
       id="path2462" />
    <path
       d="M135324850.000000 114328575.000000 A500000.000000 500000.000000 0.0 0 0 134824850.000000 113828575.000000"
       id="path2464" />
    <path
       d="M191974850.000000 89728575.000000 A500000.000000 500000.000000 0.0 0 0 192474850.000000 89228575.000000"
       id="path2466" />
    <path
       d="M157424850.000000 145291575.000000 A500000.000000 500000.000000 0.0 0 0 157924850.000000 145791575.000000"
       id="path2468" />
    <path
       d="M121324850.000000 89228575.000000 A500000.000000 500000.000000 0.0 0 0 121824850.000000 89728575.000000"
       id="path2470" />
    <path
       d="M140874850 146878575 L153874850 146878575 "
       id="path2472" />
    <path
       d="M178974850 113828575 L191974850 113828575 "
       id="path2474" />
    <path
       d="M140374850.000000 70178575.000000 A500000.000000 500000.000000 0.0 0 0 140874850.000000 70678575.000000"
       id="path2476" />
    <path
       d="M102274850 114328575 L102274850 127328575 "
       id="path2478" />
    <path
       d="M178474850 114328575 L178474850 127328575 "
       id="path2480" />
    <path
       d="M178974850.000000 75728575.000000 A500000.000000 500000.000000 0.0 0 0 178474850.000000 76228575.000000"
       id="path2482" />
    <path
       d="M173424850 57178575 L173424850 70178575 "
       id="path2484" />
    <path
       d="M116274850 114328575 L116274850 127328575 "
       id="path2486" />
    <path
       d="M157424850 101191575 L157424850 107191575 "
       id="path2488" />
    <circle
       cx="93414850.000000"
       cy="154143075.000000"
       r="1600000.000000"
       id="circle2490" />
    <path
       d="M172424850.000000 77315575.000000 A500000.000000 500000.000000 0.0 0 0 171924850.000000 76815575.000000"
       id="path2492" />
    <path
       d="M109861850.000000 148878575.000000 A500000.000000 500000.000000 0.0 0 0 110361850.000000 148378575.000000"
       id="path2494" />
    <path
       d="M178974850 89728575 L191974850 89728575 "
       id="path2496" />
    <path
       d="M125299850.000000 146878575.000000 A500000.000000 500000.000000 0.0 0 0 125799850.000000 146378575.000000"
       id="path2498" />
    <path
       d="M157424850.000000 83315575.000000 A500000.000000 500000.000000 0.0 0 0 157924850.000000 83815575.000000"
       id="path2500" />
    <path
       d="M135324850 76228575 L135324850 89228575 "
       id="path2502" />
    <path
       d="M140874850 108778575 L153874850 108778575 "
       id="path2504" />
    <path
       d="M157424850 77315575 L157424850 83315575 "
       id="path2506" />
    <path
       d="M94208600 159699325 L200571100 159699325 "
       id="path2508" />
    <path
       d="M157424850 115415575 L157424850 121415575 "
       id="path2510" />
    <path
       d="M102274850 95278575 L102274850 108278575 "
       id="path2512" />
    <path
       d="M111799850.000000 146378575.000000 A500000.000000 500000.000000 0.0 0 0 112299850.000000 146878575.000000"
       id="path2514" />
    <path
       d="M127237850.000000 148378575.000000 A500000.000000 500000.000000 0.0 0 0 127737850.000000 148878575.000000"
       id="path2516" />
    <path
       d="M153874850.000000 108778575.000000 A500000.000000 500000.000000 0.0 0 0 154374850.000000 108278575.000000"
       id="path2518" />
    <path
       d="M115774850.000000 108778575.000000 A500000.000000 500000.000000 0.0 0 0 116274850.000000 108278575.000000"
       id="path2520" />
    <path
       d="M121824850.000000 94778575.000000 A500000.000000 500000.000000 0.0 0 0 121324850.000000 95278575.000000"
       id="path2522" />
    <path
       d="M94208599.999606 20793025.000197 A6350050.000000 6350050.000000 0.0 0 0 87858600.000000 27143075.000000"
       id="path2524" />
    <path
       d="M178474850.000000 89228575.000000 A500000.000000 500000.000000 0.0 0 0 178974850.000000 89728575.000000"
       id="path2526" />
    <path
       d="M109950250 43605575 L102279450 43605575 "
       id="path2528" />
    <path
       d="M140874850 75728575 L153874850 75728575 "
       id="path2530" />
    <path
       d="M171924850 145791575 L157924850 145791575 "
       id="path2532" />
    <path
       d="M166439850 36375975 L177565050 36375975 "
       id="path2534" />
    <path
       d="M103361850 134378575 L103361850 148378575 "
       id="path2536" />
    <path
       d="M154374850.000000 133378575.000000 A500000.000000 500000.000000 0.0 0 0 153874850.000000 132878575.000000"
       id="path2538" />
    <path
       d="M166439850 29594175 L166439850 36375975 "
       id="path2540" />
    <path
       d="M102274850.000000 108278575.000000 A500000.000000 500000.000000 0.0 0 0 102774850.000000 108778575.000000"
       id="path2542" />
    <path
       d="M140374850 114328575 L140374850 127328575 "
       id="path2544" />
    <path
       d="M178974850 70678575 L191974850 70678575 "
       id="path2546" />
    <path
       d="M173424850 123853575 L173424850 136853575 "
       id="path2548" />
    <path
       d="M140374850.000000 146378575.000000 A500000.000000 500000.000000 0.0 0 0 140874850.000000 146878575.000000"
       id="path2550" />
    <path
       d="M171924850.000000 145791575.000000 A500000.000000 500000.000000 0.0 0 0 172424850.000000 145291575.000000"
       id="path2552" />
    <path
       d="M116274850 95278575 L116274850 108278575 "
       id="path2554" />
    <path
       d="M140874850 56678575 L153874850 56678575 "
       id="path2556" />
    <path
       d="M133737850.000000 148878575.000000 A500000.000000 500000.000000 0.0 0 0 134237850.000000 148378575.000000"
       id="path2558" />
    <path
       d="M178974850.000000 113828575.000000 A500000.000000 500000.000000 0.0 0 0 178474850.000000 114328575.000000"
       id="path2560" />
    <path
       d="M135324850.000000 95278575.000000 A500000.000000 500000.000000 0.0 0 0 134824850.000000 94778575.000000"
       id="path2562" />
    <path
       d="M109940850 35953575 L109950250 43605575 "
       id="path2564" />
    <path
       d="M140374850 76228575 L140374850 89228575 "
       id="path2566" />
    <path
       d="M140374850 133378575 L140374850 146378575 "
       id="path2568" />
    <path
       d="M121824850.000000 56678575.000000 A500000.000000 500000.000000 0.0 0 0 121324850.000000 57178575.000000"
       id="path2570" />
    <path
       d="M154374850 76228575 L154374850 89228575 "
       id="path2572" />
    <path
       d="M121824850.000000 75728575.000000 A500000.000000 500000.000000 0.0 0 0 121324850.000000 76228575.000000"
       id="path2574" />
    <path
       d="M167532050 29594175 L166439850 29594175 "
       id="path2576" />
    <path
       d="M178974850 127828575 L191974850 127828575 "
       id="path2578" />
    <path
       d="M178974850 132878575 L191974850 132878575 "
       id="path2580" />
    <path
       d="M102274850.000000 89228575.000000 A500000.000000 500000.000000 0.0 0 0 102774850.000000 89728575.000000"
       id="path2582" />
    <circle
       cx="201364850.000000"
       cy="154143075.000000"
       r="1600000.000000"
       id="circle2584" />
    <path
       d="M153874850.000000 89728575.000000 A500000.000000 500000.000000 0.0 0 0 154374850.000000 89228575.000000"
       id="path2586" />
    <path
       d="M121824850 75728575 L134824850 75728575 "
       id="path2588" />
    <path
       d="M102774850 89728575 L115774850 89728575 "
       id="path2590" />
    <g
       id="g2592" />
    <g
       id="g2594" />
    <g
       id="g2596" />
  </g>
</svg>
