999
"DXF R12 Output" (www.mydxf.blogspot.com)
 0 
SECTION
 2 
HEADER
 9 
$ACADVER
 1 
AC1009
 9 
$EXTMIN
 10 
 0 
 20 
 0 
 9 
$EXTMAX
 10 
 8.5 
 20 
 11 
 0 
ENDSEC
 0 
SECTION
 2 
ENTITIES
0
LINE
8
Layer 1
10
0.793749
20
297.794000
11
-0.793749
21
296.206000
0
LINE
8
Layer 1
10
0.000000
20
298.323000
11
0.000000
21
295.677000
0
LINE
8
Layer 1
10
2.116660
20
295.942000
11
1.058330
21
294.883670
0
LINE
8
Layer 1
10
1.587500
20
296.471000
11
0.529170
21
295.412670
0
LINE
8
Layer 1
10
1.058330
20
297.000000
11
0.000000
21
295.941670
0
LINE
8
BLACK
10
161.882000
20
213.701000
11
162.361954
21
213.648083
0
LINE
8
BLACK
10
162.362000
20
213.648000
11
162.835868
21
213.558042
0
LINE
8
BLACK
10
162.835000
20
213.558000
11
163.300137
21
213.433646
0
LINE
8
BLACK
10
163.301000
20
213.434000
11
163.756877
21
213.272604
0
LINE
8
BLACK
10
163.756000
20
213.272000
11
164.198118
21
213.078854
0
LINE
8
BLACK
10
164.199000
20
213.079000
11
164.624979
21
212.854104
0
LINE
8
BLACK
10
164.625000
20
212.854000
11
165.034045
21
212.597354
0
LINE
8
BLACK
10
165.034000
20
212.597000
11
165.421879
21
212.311250
0
LINE
8
BLACK
10
165.421000
20
212.312000
11
165.786125
21
211.997146
0
LINE
8
BLACK
10
165.787000
20
211.997000
11
166.128047
21
211.655688
0
LINE
8
BLACK
10
166.128000
20
211.656000
11
166.442854
21
211.290875
0
LINE
8
BLACK
10
166.442000
20
211.290000
11
166.728014
21
210.901063
0
LINE
8
BLACK
10
166.728000
20
210.901000
11
166.984910
21
210.493542
0
LINE
8
BLACK
10
166.985000
20
210.494000
11
167.210160
21
210.068021
0
LINE
8
BLACK
10
167.211000
20
210.068000
11
167.403881
21
209.626146
0
LINE
8
BLACK
10
167.403000
20
209.626000
11
167.563073
21
209.170917
0
LINE
8
BLACK
10
167.564000
20
209.171000
11
167.688089
21
208.705334
0
LINE
8
BLACK
10
167.688000
20
208.705000
11
167.777958
21
208.228751
0
LINE
8
BLACK
10
167.778000
20
208.229000
11
167.831975
21
207.750105
0
LINE
8
BLACK
10
167.832000
20
207.750000
11
167.849992
21
207.268459
0
LINE
8
BLACK
10
167.850000
20
207.269000
11
167.850000
21
207.269000
0
LINE
8
BLACK
10
167.850000
20
207.269000
11
167.850000
21
81.062700
0
LINE
8
BLACK
10
167.850000
20
81.062700
11
167.832008
21
80.581159
0
LINE
8
BLACK
10
167.832000
20
80.581100
11
167.778025
21
80.102205
0
LINE
8
BLACK
10
167.778000
20
80.102200
11
167.689100
21
79.628596
0
LINE
8
BLACK
10
167.689000
20
79.628600
11
167.563852
21
79.160288
0
LINE
8
BLACK
10
167.564000
20
79.160300
11
167.403927
21
78.705217
0
LINE
8
BLACK
10
167.403000
20
78.705200
11
167.210119
21
78.263346
0
LINE
8
BLACK
10
167.211000
20
78.263400
11
166.985840
21
77.837421
0
LINE
8
BLACK
10
166.985000
20
77.837400
11
166.728090
21
77.429942
0
LINE
8
BLACK
10
166.728000
20
77.430000
11
166.441986
21
77.041063
0
LINE
8
BLACK
10
166.442000
20
77.041000
11
166.127146
21
76.675875
0
LINE
8
BLACK
10
166.128000
20
76.675900
11
165.786953
21
76.334588
0
LINE
8
BLACK
10
165.787000
20
76.334600
11
165.421875
21
76.019746
0
LINE
8
BLACK
10
165.421000
20
76.019700
11
165.033121
21
75.733950
0
LINE
8
BLACK
10
165.034000
20
75.734000
11
164.624955
21
75.477354
0
LINE
8
BLACK
10
164.625000
20
75.477300
11
164.199021
21
75.252404
0
LINE
8
BLACK
10
164.199000
20
75.252400
11
163.756882
21
75.059254
0
LINE
8
BLACK
10
163.756000
20
75.059300
11
163.300123
21
74.900550
0
LINE
8
BLACK
10
163.301000
20
74.900500
11
162.835863
21
74.773500
0
LINE
8
BLACK
10
162.835000
20
74.773500
11
162.361132
21
74.683542
0
LINE
8
BLACK
10
162.362000
20
74.683600
11
161.882046
21
74.630683
0
LINE
8
BLACK
10
161.882000
20
74.630700
11
161.399930
21
74.612179
0
LINE
8
BLACK
10
161.400000
20
74.612100
11
55.037700
21
74.612100
0
LINE
8
BLACK
10
55.037700
20
74.612100
11
54.555630
21
74.630621
0
LINE
8
BLACK
10
54.555600
20
74.630700
11
54.075646
21
74.683617
0
LINE
8
BLACK
10
54.075700
20
74.683600
11
53.601832
21
74.773558
0
LINE
8
BLACK
10
53.601800
20
74.773500
11
53.136663
21
74.900500
0
LINE
8
BLACK
10
53.136700
20
74.900500
11
52.680823
21
75.059250
0
LINE
8
BLACK
10
52.680800
20
75.059300
11
52.238682
21
75.252446
0
LINE
8
BLACK
10
52.238700
20
75.252400
11
51.812721
21
75.477296
0
LINE
8
BLACK
10
51.812700
20
75.477300
11
51.403655
21
75.733946
0
LINE
8
BLACK
10
51.403600
20
75.734000
11
51.015721
21
76.019750
0
LINE
8
BLACK
10
51.015800
20
76.019700
11
50.650675
21
76.334554
0
LINE
8
BLACK
10
50.650600
20
76.334600
11
50.309553
21
76.675912
0
LINE
8
BLACK
10
50.309600
20
76.675900
11
49.994746
21
77.041025
0
LINE
8
BLACK
10
49.994700
20
77.041000
11
49.708686
21
77.429937
0
LINE
8
BLACK
10
49.708700
20
77.430000
11
49.451525
21
77.837458
0
LINE
8
BLACK
10
49.451600
20
77.837400
11
49.226175
21
78.263379
0
LINE
8
BLACK
10
49.226100
20
78.263400
11
49.033219
21
78.705254
0
LINE
8
BLACK
10
49.033200
20
78.705200
11
48.873921
21
79.160283
0
LINE
8
BLACK
10
48.874000
20
79.160300
11
48.749117
21
79.628612
0
LINE
8
BLACK
10
48.749100
20
79.628600
11
48.659406
21
80.102204
0
LINE
8
BLACK
10
48.659400
20
80.102200
11
48.605425
21
80.581095
0
LINE
8
BLACK
10
48.605400
20
80.581100
11
48.587408
21
81.062641
0
LINE
8
BLACK
10
48.587400
20
81.062700
11
48.587400
21
207.269000
0
LINE
8
BLACK
10
48.587400
20
207.269000
11
48.605392
21
207.750541
0
LINE
8
BLACK
10
48.605400
20
207.750000
11
48.659375
21
208.228895
0
LINE
8
BLACK
10
48.659400
20
208.229000
11
48.749094
21
208.705249
0
LINE
8
BLACK
10
48.749100
20
208.705000
11
48.873983
21
209.170666
0
LINE
8
BLACK
10
48.874000
20
209.171000
11
49.033279
21
209.626083
0
LINE
8
BLACK
10
49.033200
20
209.626000
11
49.226081
21
210.067854
0
LINE
8
BLACK
10
49.226100
20
210.068000
11
49.451525
21
210.493979
0
LINE
8
BLACK
10
49.451600
20
210.494000
11
49.708775
21
210.901458
0
LINE
8
BLACK
10
49.708700
20
210.901000
11
49.994714
21
211.289937
0
LINE
8
BLACK
10
49.994700
20
211.290000
11
50.309554
21
211.655125
0
LINE
8
BLACK
10
50.309600
20
211.656000
11
50.650647
21
211.997312
0
LINE
8
BLACK
10
50.650600
20
211.997000
11
51.015725
21
212.311854
0
LINE
8
BLACK
10
51.015800
20
212.312000
11
51.403679
21
212.597750
0
LINE
8
BLACK
10
51.403600
20
212.597000
11
51.812645
21
212.853646
0
LINE
8
BLACK
10
51.812700
20
212.854000
11
52.238679
21
213.078896
0
LINE
8
BLACK
10
52.238700
20
213.079000
11
52.680818
21
213.272146
0
LINE
8
BLACK
10
52.680800
20
213.272000
11
53.136677
21
213.433396
0
LINE
8
BLACK
10
53.136700
20
213.434000
11
53.601837
21
213.558354
0
LINE
8
BLACK
10
53.601800
20
213.558000
11
54.075668
21
213.647958
0
LINE
8
BLACK
10
54.075700
20
213.648000
11
54.555654
21
213.700917
0
LINE
8
BLACK
10
54.555600
20
213.701000
11
55.037670
21
213.719521
0
LINE
8
BLACK
10
55.037700
20
213.719000
11
55.037700
21
213.719000
0
LINE
8
BLACK
10
55.037700
20
213.719000
11
161.400000
21
213.719000
0
LINE
8
BLACK
10
161.400000
20
213.719000
11
161.882070
21
213.700479
0
LINE
8
BLACK
10
161.868000
20
74.826500
11
162.332079
21
74.879417
0
LINE
8
BLACK
10
162.332000
20
74.879400
11
162.791845
21
74.966712
0
LINE
8
BLACK
10
162.792000
20
74.966700
11
163.244172
21
75.085762
0
LINE
8
BLACK
10
163.244000
20
75.085800
11
163.684795
21
75.239258
0
LINE
8
BLACK
10
163.684000
20
75.239200
11
164.113154
21
75.427054
0
LINE
8
BLACK
10
164.114000
20
75.427100
11
164.527014
21
75.646704
0
LINE
8
BLACK
10
164.527000
20
75.646700
11
164.922816
21
75.895408
0
LINE
8
BLACK
10
164.922000
20
75.895400
11
165.299031
21
76.173212
0
LINE
8
BLACK
10
165.299000
20
76.173200
11
165.653012
21
76.477470
0
LINE
8
BLACK
10
165.653000
20
76.477500
11
165.983993
21
76.808229
0
LINE
8
BLACK
10
165.984000
20
76.808200
11
166.289064
21
77.162741
0
LINE
8
BLACK
10
166.290000
20
77.162700
11
166.568077
21
77.538408
0
LINE
8
BLACK
10
166.568000
20
77.538400
11
166.816973
21
77.935274
0
LINE
8
BLACK
10
166.817000
20
77.935300
11
167.035016
21
78.350695
0
LINE
8
BLACK
10
167.035000
20
78.350700
11
167.221796
21
78.776679
0
LINE
8
BLACK
10
167.221000
20
78.776700
11
167.376046
21
79.218554
0
LINE
8
BLACK
10
167.376000
20
79.218500
11
167.497179
21
79.670937
0
LINE
8
BLACK
10
167.498000
20
79.671000
11
167.584783
21
80.131374
0
LINE
8
BLACK
10
167.584000
20
80.131400
11
167.636123
21
80.594420
0
LINE
8
BLACK
10
167.637000
20
80.594400
11
167.653933
21
81.049483
0
LINE
8
BLACK
10
167.653000
20
81.049500
11
167.649031
21
81.062729
0
LINE
8
BLACK
10
167.650000
20
81.062700
11
167.650000
21
207.269000
0
LINE
8
BLACK
10
167.650000
20
207.269000
11
167.653969
21
207.282229
0
LINE
8
BLACK
10
167.653000
20
207.282000
11
167.636067
21
207.737083
0
LINE
8
BLACK
10
167.637000
20
207.737000
11
167.584877
21
208.200020
0
LINE
8
BLACK
10
167.584000
20
208.200000
11
167.497217
21
208.660374
0
LINE
8
BLACK
10
167.498000
20
208.660000
11
167.376821
21
209.112437
0
LINE
8
BLACK
10
167.376000
20
209.113000
11
167.220954
21
209.554854
0
LINE
8
BLACK
10
167.221000
20
209.555000
11
167.034204
21
209.983624
0
LINE
8
BLACK
10
167.035000
20
209.983000
11
166.816984
21
210.395749
0
LINE
8
BLACK
10
166.817000
20
210.396000
11
166.568027
21
210.792874
0
LINE
8
BLACK
10
166.568000
20
210.793000
11
166.289923
21
211.168708
0
LINE
8
BLACK
10
166.290000
20
211.169000
11
165.984936
21
211.523541
0
LINE
8
BLACK
10
165.984000
20
211.523000
11
165.653007
21
211.853729
0
LINE
8
BLACK
10
165.653000
20
211.854000
11
165.298988
21
212.158270
0
LINE
8
BLACK
10
165.299000
20
212.158000
11
164.921969
21
212.435812
0
LINE
8
BLACK
10
164.922000
20
212.436000
11
164.526184
21
212.684708
0
LINE
8
BLACK
10
164.527000
20
212.685000
11
164.113986
21
212.904604
0
LINE
8
BLACK
10
164.114000
20
212.904000
11
163.684846
21
213.089208
0
LINE
8
BLACK
10
163.684000
20
213.090000
11
163.243205
21
213.246104
0
LINE
8
BLACK
10
163.244000
20
213.246000
11
162.791828
21
213.367708
0
LINE
8
BLACK
10
162.792000
20
213.367000
11
162.332155
21
213.451667
0
LINE
8
BLACK
10
162.332000
20
213.452000
11
161.867921
21
213.504917
0
LINE
8
BLACK
10
161.868000
20
213.505000
11
161.411859
21
213.523521
0
LINE
8
BLACK
10
161.411000
20
213.524000
11
161.399094
21
213.518708
0
LINE
8
BLACK
10
161.400000
20
213.518000
11
55.037700
21
213.518000
0
LINE
8
BLACK
10
55.037700
20
213.518000
11
55.025794
21
213.523292
0
LINE
8
BLACK
10
55.025800
20
213.524000
11
54.569659
21
213.505479
0
LINE
8
BLACK
10
54.569600
20
213.505000
11
54.105521
21
213.454729
0
LINE
8
BLACK
10
54.105600
20
213.455000
11
53.645755
21
213.367688
0
LINE
8
BLACK
10
53.645700
20
213.367000
11
53.193528
21
213.245292
0
LINE
8
BLACK
10
53.193600
20
213.246000
11
52.752805
21
213.092542
0
LINE
8
BLACK
10
52.752800
20
213.092000
11
52.323646
21
212.904146
0
LINE
8
BLACK
10
52.323600
20
212.904000
11
51.910586
21
212.684396
0
LINE
8
BLACK
10
51.910600
20
212.685000
11
51.514784
21
212.436292
0
LINE
8
BLACK
10
51.514800
20
212.436000
11
51.137769
21
212.158188
0
LINE
8
BLACK
10
51.137700
20
212.158000
11
50.783688
21
211.853730
0
LINE
8
BLACK
10
50.783700
20
211.854000
11
50.452707
21
211.523271
0
LINE
8
BLACK
10
50.452700
20
211.523000
11
50.147636
21
211.168459
0
LINE
8
BLACK
10
50.147700
20
211.169000
11
49.869623
21
210.793292
0
LINE
8
BLACK
10
49.869600
20
210.793000
11
49.620627
21
210.396126
0
LINE
8
BLACK
10
49.620600
20
210.396000
11
49.402584
21
209.983251
0
LINE
8
BLACK
10
49.402600
20
209.983000
11
49.215275
21
209.554376
0
LINE
8
BLACK
10
49.215300
20
209.555000
11
49.060784
21
209.113146
0
LINE
8
BLACK
10
49.060800
20
209.113000
11
48.939886
21
208.660563
0
LINE
8
BLACK
10
48.939900
20
208.660000
11
48.852852
21
208.199626
0
LINE
8
BLACK
10
48.852800
20
208.200000
11
48.800677
21
207.736980
0
LINE
8
BLACK
10
48.800700
20
207.737000
11
48.783502
21
207.281917
0
LINE
8
BLACK
10
48.783500
20
207.282000
11
48.787469
21
207.268771
0
LINE
8
BLACK
10
48.787500
20
207.269000
11
48.787500
21
81.062700
0
LINE
8
BLACK
10
48.787500
20
81.062700
11
48.783796
21
81.052117
0
LINE
8
BLACK
10
48.783700
20
81.052100
11
48.783435
21
81.049454
0
LINE
8
BLACK
10
48.783500
20
81.049500
11
48.800698
21
80.594417
0
LINE
8
BLACK
10
48.800700
20
80.594400
11
48.852823
21
80.131380
0
LINE
8
BLACK
10
48.852800
20
80.131400
11
48.939848
21
79.671026
0
LINE
8
BLACK
10
48.939900
20
79.671000
11
49.061079
21
79.218563
0
LINE
8
BLACK
10
49.061000
20
79.218500
11
49.215252
21
78.776646
0
LINE
8
BLACK
10
49.215300
20
78.776700
11
49.402625
21
78.350721
0
LINE
8
BLACK
10
49.402600
20
78.350700
11
49.620616
21
77.935305
0
LINE
8
BLACK
10
49.620600
20
77.935300
11
49.869573
21
77.538426
0
LINE
8
BLACK
10
49.869600
20
77.538400
11
50.147677
21
77.162692
0
LINE
8
BLACK
10
50.147700
20
77.162700
11
50.452764
21
76.808159
0
LINE
8
BLACK
10
50.452700
20
76.808200
11
50.783693
21
76.477471
0
LINE
8
BLACK
10
50.783700
20
76.477500
11
51.137712
21
76.173230
0
LINE
8
BLACK
10
51.137700
20
76.173200
11
51.514731
21
75.895388
0
LINE
8
BLACK
10
51.514800
20
75.895400
11
51.910616
21
75.646692
0
LINE
8
BLACK
10
51.910600
20
75.646700
11
52.323614
21
75.427096
0
LINE
8
BLACK
10
52.323600
20
75.427100
11
52.752754
21
75.239246
0
LINE
8
BLACK
10
52.752800
20
75.239200
11
53.193595
21
75.085742
0
LINE
8
BLACK
10
53.193600
20
75.085800
11
53.645772
21
74.966738
0
LINE
8
BLACK
10
53.645700
20
74.966700
11
54.105545
21
74.879388
0
LINE
8
BLACK
10
54.105600
20
74.879400
11
54.569679
21
74.826483
0
LINE
8
BLACK
10
54.569600
20
74.826500
11
55.025741
21
74.807979
0
LINE
8
BLACK
10
55.025800
20
74.807900
11
55.037706
21
74.813192
0
LINE
8
BLACK
10
55.037700
20
74.813200
11
161.400000
21
74.813200
0
LINE
8
BLACK
10
161.400000
20
74.813200
11
161.411906
21
74.807908
0
LINE
8
BLACK
10
161.411000
20
74.807900
11
161.867141
21
74.826421
0
LINE
8
BLACK
10
160.639000
20
84.737700
11
160.586083
21
84.449305
0
LINE
8
BLACK
10
160.586000
20
84.449300
11
160.498952
21
84.168842
0
LINE
8
BLACK
10
160.499000
20
84.168900
11
160.377821
21
83.901671
0
LINE
8
BLACK
10
160.377000
20
83.901700
11
160.225129
21
83.650346
0
LINE
8
BLACK
10
160.226000
20
83.650300
11
160.045025
21
83.420113
0
LINE
8
BLACK
10
160.045000
20
83.420100
11
159.837038
21
83.211079
0
LINE
8
BLACK
10
159.837000
20
83.211100
11
159.606019
21
83.031184
0
LINE
8
BLACK
10
159.606000
20
83.031200
11
159.354911
21
82.877742
0
LINE
8
BLACK
10
159.355000
20
82.877700
11
159.086977
21
82.758638
0
LINE
8
BLACK
10
159.087000
20
82.758700
11
158.807071
21
82.671388
0
LINE
8
BLACK
10
158.807000
20
82.671300
11
158.517811
21
82.618383
0
LINE
8
BLACK
10
158.517000
20
82.618400
11
158.224107
21
82.599879
0
LINE
8
BLACK
10
158.225000
20
82.599900
11
158.225000
21
82.599900
0
LINE
8
BLACK
10
158.225000
20
82.599900
11
58.212700
21
82.599900
0
LINE
8
BLACK
10
58.212700
20
82.599900
11
57.919807
21
82.618421
0
LINE
8
BLACK
10
57.919800
20
82.618400
11
57.630611
21
82.671317
0
LINE
8
BLACK
10
57.630600
20
82.671300
11
57.350671
21
82.758612
0
LINE
8
BLACK
10
57.350700
20
82.758700
11
57.082677
21
82.877762
0
LINE
8
BLACK
10
57.082700
20
82.877700
11
56.831611
21
83.031158
0
LINE
8
BLACK
10
56.831600
20
83.031200
11
56.600619
21
83.211116
0
LINE
8
BLACK
10
56.600600
20
83.211100
11
56.392638
21
83.420121
0
LINE
8
BLACK
10
56.392600
20
83.420100
11
56.211625
21
83.650287
0
LINE
8
BLACK
10
56.211700
20
83.650300
11
56.059829
21
83.901654
0
LINE
8
BLACK
10
56.059800
20
83.901700
11
55.939679
21
84.168929
0
LINE
8
BLACK
10
55.939700
20
84.168900
11
55.851594
21
84.449358
0
LINE
8
BLACK
10
55.851600
20
84.449300
11
55.798683
21
84.737695
0
LINE
8
BLACK
10
55.798600
20
84.737700
11
55.781667
21
85.031387
0
LINE
8
BLACK
10
55.781700
20
85.031400
11
55.780600
21
85.031400
0
LINE
8
BLACK
10
55.780600
20
85.031400
11
55.780600
21
203.300000
0
LINE
8
BLACK
10
55.780600
20
203.300000
11
55.798592
21
203.593687
0
LINE
8
BLACK
10
55.798600
20
203.594000
11
55.851517
21
203.882395
0
LINE
8
BLACK
10
55.851600
20
203.882000
11
55.939706
21
204.162458
0
LINE
8
BLACK
10
55.939700
20
204.163000
11
56.059821
21
204.430229
0
LINE
8
BLACK
10
56.059800
20
204.430000
11
56.211671
21
204.681354
0
LINE
8
BLACK
10
56.211700
20
204.681000
11
56.392675
21
204.911187
0
LINE
8
BLACK
10
56.392600
20
204.911000
11
56.600562
21
205.120021
0
LINE
8
BLACK
10
56.600600
20
205.120000
11
56.831581
21
205.299916
0
LINE
8
BLACK
10
56.831600
20
205.300000
11
57.082689
21
205.453458
0
LINE
8
BLACK
10
57.082700
20
205.454000
11
57.350723
21
205.573062
0
LINE
8
BLACK
10
57.350700
20
205.573000
11
57.630629
21
205.660312
0
LINE
8
BLACK
10
57.630600
20
205.660000
11
57.919789
21
205.712917
0
LINE
8
BLACK
10
57.919800
20
205.713000
11
58.212693
21
205.731521
0
LINE
8
BLACK
10
58.212700
20
205.732000
11
158.225000
21
205.732000
0
LINE
8
BLACK
10
158.225000
20
205.732000
11
158.517893
21
205.713479
0
LINE
8
BLACK
10
158.517000
20
205.713000
11
158.806189
21
205.660083
0
LINE
8
BLACK
10
158.807000
20
205.660000
11
159.086929
21
205.572688
0
LINE
8
BLACK
10
159.087000
20
205.573000
11
159.355023
21
205.453938
0
LINE
8
BLACK
10
159.355000
20
205.454000
11
159.606089
21
205.300542
0
LINE
8
BLACK
10
159.606000
20
205.300000
11
159.836981
21
205.120084
0
LINE
8
BLACK
10
159.837000
20
205.120000
11
160.044962
21
204.910979
0
LINE
8
BLACK
10
160.045000
20
204.911000
11
160.225975
21
204.680813
0
LINE
8
BLACK
10
160.226000
20
204.681000
11
160.377871
21
204.429646
0
LINE
8
BLACK
10
160.377000
20
204.430000
11
160.497121
21
204.162771
0
LINE
8
BLACK
10
160.498000
20
204.163000
11
160.586106
21
203.882542
0
LINE
8
BLACK
10
160.586000
20
203.882000
11
160.638917
21
203.593605
0
LINE
8
BLACK
10
160.639000
20
203.594000
11
160.656992
21
203.300313
0
LINE
8
BLACK
10
160.657000
20
203.300000
11
160.657000
21
85.031400
0
LINE
8
BLACK
10
160.657000
20
85.031400
11
160.639008
21
84.737713
0
LINE
8
BLACK
10
58.203700
20
205.636000
11
57.930650
21
205.617479
0
LINE
8
BLACK
10
57.930600
20
205.618000
11
57.653582
21
205.567729
0
LINE
8
BLACK
10
57.653600
20
205.568000
11
57.384519
21
205.483333
0
LINE
8
BLACK
10
57.384500
20
205.483000
11
57.126532
21
205.369229
0
LINE
8
BLACK
10
57.126600
20
205.369000
11
56.885829
21
205.220834
0
LINE
8
BLACK
10
56.885800
20
205.221000
11
56.663550
21
205.049021
0
LINE
8
BLACK
10
56.663600
20
205.049000
11
56.464634
21
204.847917
0
LINE
8
BLACK
10
56.464600
20
204.848000
11
56.290769
21
204.625750
0
LINE
8
BLACK
10
56.290800
20
204.626000
11
56.144750
21
204.385229
0
LINE
8
BLACK
10
56.144700
20
204.385000
11
56.028548
21
204.128354
0
LINE
8
BLACK
10
56.028600
20
204.128000
11
55.944727
21
203.858125
0
LINE
8
BLACK
10
55.944700
20
203.858000
11
55.893635
21
203.580188
0
LINE
8
BLACK
10
55.893600
20
203.580000
11
55.877725
21
203.307480
0
LINE
8
BLACK
10
55.877700
20
203.308000
11
55.880610
21
203.300063
0
LINE
8
BLACK
10
55.880700
20
203.300000
11
55.880700
21
85.031400
0
LINE
8
BLACK
10
55.880700
20
85.031400
11
55.877790
21
85.023463
0
LINE
8
BLACK
10
55.877700
20
85.023500
11
55.893575
21
84.748334
0
LINE
8
BLACK
10
55.893600
20
84.748300
11
55.944665
21
84.473134
0
LINE
8
BLACK
10
55.944700
20
84.473200
11
56.028573
21
84.203325
0
LINE
8
BLACK
10
56.028600
20
84.203300
11
56.144752
21
83.946654
0
LINE
8
BLACK
10
56.144700
20
83.946600
11
56.290750
21
83.703184
0
LINE
8
BLACK
10
56.290800
20
83.703200
11
56.464631
21
83.483596
0
LINE
8
BLACK
10
56.464600
20
83.483600
11
56.663566
21
83.282517
0
LINE
8
BLACK
10
56.663600
20
83.282500
11
56.885850
21
83.110521
0
LINE
8
BLACK
10
56.885800
20
83.110600
11
57.126571
21
82.962434
0
LINE
8
BLACK
10
57.126600
20
82.962400
11
57.384568
21
82.848629
0
LINE
8
BLACK
10
57.384500
20
82.848600
11
57.653581
21
82.763933
0
LINE
8
BLACK
10
57.653600
20
82.764000
11
57.930618
21
82.713729
0
LINE
8
BLACK
10
57.930600
20
82.713700
11
58.203650
21
82.697825
0
LINE
8
BLACK
10
58.203700
20
82.697800
11
58.212696
21
82.700446
0
LINE
8
BLACK
10
58.212700
20
82.700500
11
158.225000
21
82.700500
0
LINE
8
BLACK
10
158.225000
20
82.700500
11
158.233996
21
82.697854
0
LINE
8
BLACK
10
158.234000
20
82.697800
11
158.507050
21
82.713675
0
LINE
8
BLACK
10
158.507000
20
82.713700
11
158.784018
21
82.763971
0
LINE
8
BLACK
10
158.784000
20
82.764000
11
159.053081
21
82.848667
0
LINE
8
BLACK
10
159.053000
20
82.848600
11
159.310968
21
82.962371
0
LINE
8
BLACK
10
159.311000
20
82.962400
11
159.551771
21
83.110566
0
LINE
8
BLACK
10
159.551000
20
83.110600
11
159.773250
21
83.282579
0
LINE
8
BLACK
10
159.774000
20
83.282500
11
159.972966
21
83.483583
0
LINE
8
BLACK
10
159.973000
20
83.483600
11
160.146831
21
83.703204
0
LINE
8
BLACK
10
160.146000
20
83.703200
11
160.292050
21
83.946616
0
LINE
8
BLACK
10
160.293000
20
83.946600
11
160.409152
21
84.203246
0
LINE
8
BLACK
10
160.409000
20
84.203300
11
160.492873
21
84.473175
0
LINE
8
BLACK
10
160.493000
20
84.473200
11
160.544064
21
84.748366
0
LINE
8
BLACK
10
160.544000
20
84.748300
11
160.559875
21
85.023466
0
LINE
8
BLACK
10
160.559000
20
85.023500
11
160.555031
21
85.031437
0
LINE
8
BLACK
10
160.556000
20
85.031400
11
160.556000
21
203.300000
0
LINE
8
BLACK
10
160.556000
20
203.300000
11
160.559969
21
203.307937
0
LINE
8
BLACK
10
160.559000
20
203.308000
11
160.543125
21
203.580520
0
LINE
8
BLACK
10
160.544000
20
203.580000
11
160.492936
21
203.857812
0
LINE
8
BLACK
10
160.493000
20
203.858000
11
160.409127
21
204.127875
0
LINE
8
BLACK
10
160.409000
20
204.128000
11
160.292848
21
204.384646
0
LINE
8
BLACK
10
160.293000
20
204.385000
11
160.146950
21
204.625771
0
LINE
8
BLACK
10
160.146000
20
204.626000
11
159.972169
21
204.848250
0
LINE
8
BLACK
10
159.973000
20
204.848000
11
159.774034
21
205.049083
0
LINE
8
BLACK
10
159.774000
20
205.049000
11
159.551750
21
205.220979
0
LINE
8
BLACK
10
159.551000
20
205.221000
11
159.310229
21
205.369166
0
LINE
8
BLACK
10
159.311000
20
205.369000
11
159.053032
21
205.482771
0
LINE
8
BLACK
10
159.053000
20
205.483000
11
158.783919
21
205.567667
0
LINE
8
BLACK
10
158.784000
20
205.568000
11
158.506982
21
205.618271
0
LINE
8
BLACK
10
158.507000
20
205.618000
11
158.233950
21
205.636521
0
LINE
8
BLACK
10
158.234000
20
205.636000
11
158.225004
21
205.630708
0
LINE
8
BLACK
10
158.225000
20
205.631000
11
58.212700
21
205.631000
0
LINE
8
BLACK
10
58.212700
20
205.631000
11
58.203704
21
205.636292
0
LINE
8
BLACK
10
88.432600
20
85.449500
11
88.306658
21
85.491833
0
LINE
8
BLACK
10
88.306600
20
85.491800
11
88.192565
21
85.563237
0
LINE
8
BLACK
10
88.192600
20
85.563200
11
88.097615
21
85.658450
0
LINE
8
BLACK
10
88.097600
20
85.658500
11
88.025633
21
85.772271
0
LINE
8
BLACK
10
88.025600
20
85.772300
11
87.981679
21
85.899300
0
LINE
8
BLACK
10
87.981700
20
85.899300
11
87.966619
21
86.034237
0
LINE
8
BLACK
10
87.966600
20
86.034200
11
87.966600
21
100.033000
0
LINE
8
BLACK
10
87.966600
20
100.033000
11
87.981681
21
100.167937
0
LINE
8
BLACK
10
87.981700
20
100.168000
11
88.025621
21
100.292354
0
LINE
8
BLACK
10
88.025600
20
100.293000
11
88.097567
21
100.406771
0
LINE
8
BLACK
10
88.097600
20
100.406000
11
88.192585
21
100.501250
0
LINE
8
BLACK
10
88.192600
20
100.502000
11
88.306635
21
100.576083
0
LINE
8
BLACK
10
88.306600
20
100.576000
11
88.432542
21
100.618333
0
LINE
8
BLACK
10
88.432600
20
100.618000
11
88.566744
21
100.633875
0
LINE
8
BLACK
10
88.566700
20
100.634000
11
94.566700
21
100.634000
0
LINE
8
BLACK
10
94.566700
20
100.634000
11
94.700579
21
100.618125
0
LINE
8
BLACK
10
94.700500
20
100.618000
11
94.826706
21
100.575667
0
LINE
8
BLACK
10
94.826700
20
100.576000
11
94.940471
21
100.501917
0
LINE
8
BLACK
10
94.940500
20
100.502000
11
95.035485
21
100.406750
0
LINE
8
BLACK
10
95.035500
20
100.406000
11
95.107731
21
100.292229
0
LINE
8
BLACK
10
95.107700
20
100.293000
11
95.151621
21
100.168646
0
LINE
8
BLACK
10
95.151700
20
100.168000
11
95.166781
21
100.033063
0
LINE
8
BLACK
10
95.166700
20
100.033000
11
95.166700
21
86.034200
0
LINE
8
BLACK
10
95.166700
20
86.034200
11
95.151619
21
85.899263
0
LINE
8
BLACK
10
95.151700
20
85.899300
11
95.107779
21
85.772300
0
LINE
8
BLACK
10
95.107700
20
85.772300
11
95.035469
21
85.658529
0
LINE
8
BLACK
10
95.035500
20
85.658500
11
94.940515
21
85.563250
0
LINE
8
BLACK
10
94.940500
20
85.563200
11
94.826729
21
85.491763
0
LINE
8
BLACK
10
94.826700
20
85.491800
11
94.700494
21
85.449467
0
LINE
8
BLACK
10
94.700500
20
85.449500
11
94.566621
21
85.433625
0
LINE
8
BLACK
10
94.566700
20
85.433600
11
88.566700
21
85.433600
0
LINE
8
BLACK
10
88.566700
20
85.433600
11
88.432556
21
85.449475
0
LINE
8
BLACK
10
88.558500
20
100.435000
11
88.462721
21
100.421771
0
LINE
8
BLACK
10
88.462700
20
100.422000
11
88.364540
21
100.382312
0
LINE
8
BLACK
10
88.364600
20
100.383000
11
88.281785
21
100.319500
0
LINE
8
BLACK
10
88.281800
20
100.319000
11
88.217771
21
100.234333
0
LINE
8
BLACK
10
88.217700
20
100.234000
11
88.176690
21
100.136104
0
LINE
8
BLACK
10
88.176700
20
100.136000
11
88.164529
21
100.040750
0
LINE
8
BLACK
10
88.164500
20
100.041000
11
88.166617
21
100.033063
0
LINE
8
BLACK
10
88.166700
20
100.033000
11
88.166700
21
86.034200
0
LINE
8
BLACK
10
88.166700
20
86.034200
11
88.164583
21
86.026263
0
LINE
8
BLACK
10
88.164500
20
86.026300
11
88.176671
21
85.928404
0
LINE
8
BLACK
10
88.176700
20
85.928400
11
88.217710
21
85.830504
0
LINE
8
BLACK
10
88.217700
20
85.830500
11
88.281729
21
85.748479
0
LINE
8
BLACK
10
88.281800
20
85.748400
11
88.364615
21
85.684900
0
LINE
8
BLACK
10
88.364600
20
85.684900
11
88.462760
21
85.642567
0
LINE
8
BLACK
10
88.462700
20
85.642600
11
88.558479
21
85.632017
0
LINE
8
BLACK
10
88.558500
20
85.632000
11
88.566702
21
85.634646
0
LINE
8
BLACK
10
88.566700
20
85.634700
11
94.566700
21
85.634700
0
LINE
8
BLACK
10
94.566700
20
85.634700
11
94.574637
21
85.632054
0
LINE
8
BLACK
10
94.574600
20
85.632000
11
94.670644
21
85.642583
0
LINE
8
BLACK
10
94.670600
20
85.642600
11
94.768496
21
85.684933
0
LINE
8
BLACK
10
94.768500
20
85.684900
11
94.851579
21
85.748400
0
LINE
8
BLACK
10
94.851600
20
85.748400
11
94.915629
21
85.830421
0
LINE
8
BLACK
10
94.915600
20
85.830500
11
94.956610
21
85.928396
0
LINE
8
BLACK
10
94.956700
20
85.928400
11
94.968606
21
86.026296
0
LINE
8
BLACK
10
94.968600
20
86.026300
11
94.966748
21
86.034237
0
LINE
8
BLACK
10
94.966700
20
86.034200
11
94.966700
21
100.033000
0
LINE
8
BLACK
10
94.966700
20
100.033000
11
94.968552
21
100.040937
0
LINE
8
BLACK
10
94.968600
20
100.041000
11
94.956694
21
100.136250
0
LINE
8
BLACK
10
94.956700
20
100.136000
11
94.915690
21
100.233896
0
LINE
8
BLACK
10
94.915600
20
100.234000
11
94.851571
21
100.318667
0
LINE
8
BLACK
10
94.851600
20
100.319000
11
94.768521
21
100.382500
0
LINE
8
BLACK
10
94.768500
20
100.383000
11
94.670604
21
100.422687
0
LINE
8
BLACK
10
94.670600
20
100.422000
11
94.574556
21
100.435229
0
LINE
8
BLACK
10
94.574600
20
100.435000
11
94.566663
21
100.432354
0
LINE
8
BLACK
10
94.566700
20
100.433000
11
88.566700
21
100.433000
0
LINE
8
BLACK
10
88.566700
20
100.433000
11
88.558498
21
100.435646
0
LINE
8
BLACK
10
64.556600
20
85.449500
11
64.430658
21
85.491833
0
LINE
8
BLACK
10
64.430700
20
85.491800
11
64.316665
21
85.563237
0
LINE
8
BLACK
10
64.316600
20
85.563200
11
64.221615
21
85.658450
0
LINE
8
BLACK
10
64.221600
20
85.658500
11
64.149633
21
85.772271
0
LINE
8
BLACK
10
64.149700
20
85.772300
11
64.105779
21
85.899300
0
LINE
8
BLACK
10
64.105700
20
85.899300
11
64.090619
21
86.034237
0
LINE
8
BLACK
10
64.090700
20
86.034200
11
64.090700
21
100.033000
0
LINE
8
BLACK
10
64.090700
20
100.033000
11
64.105781
21
100.167937
0
LINE
8
BLACK
10
64.105700
20
100.168000
11
64.149621
21
100.292354
0
LINE
8
BLACK
10
64.149700
20
100.293000
11
64.221667
21
100.406771
0
LINE
8
BLACK
10
64.221600
20
100.406000
11
64.316585
21
100.501250
0
LINE
8
BLACK
10
64.316600
20
100.502000
11
64.430635
21
100.576083
0
LINE
8
BLACK
10
64.430700
20
100.576000
11
64.556642
21
100.618333
0
LINE
8
BLACK
10
64.556600
20
100.618000
11
64.690744
21
100.633875
0
LINE
8
BLACK
10
64.690700
20
100.634000
11
70.690700
21
100.634000
0
LINE
8
BLACK
10
70.690700
20
100.634000
11
70.824579
21
100.618125
0
LINE
8
BLACK
10
70.824600
20
100.618000
11
70.950806
21
100.575667
0
LINE
8
BLACK
10
70.950800
20
100.576000
11
71.064571
21
100.501917
0
LINE
8
BLACK
10
71.064500
20
100.502000
11
71.159485
21
100.406750
0
LINE
8
BLACK
10
71.159500
20
100.406000
11
71.231731
21
100.292229
0
LINE
8
BLACK
10
71.231800
20
100.293000
11
71.275721
21
100.168646
0
LINE
8
BLACK
10
71.275700
20
100.168000
11
71.290781
21
100.033063
0
LINE
8
BLACK
10
71.290800
20
100.033000
11
71.290800
21
86.034200
0
LINE
8
BLACK
10
71.290800
20
86.034200
11
71.275719
21
85.899263
0
LINE
8
BLACK
10
71.275700
20
85.899300
11
71.231779
21
85.772300
0
LINE
8
BLACK
10
71.231800
20
85.772300
11
71.159569
21
85.658529
0
LINE
8
BLACK
10
71.159500
20
85.658500
11
71.064515
21
85.563250
0
LINE
8
BLACK
10
71.064500
20
85.563200
11
70.950729
21
85.491763
0
LINE
8
BLACK
10
70.950800
20
85.491800
11
70.824594
21
85.449467
0
LINE
8
BLACK
10
70.824600
20
85.449500
11
70.690721
21
85.433625
0
LINE
8
BLACK
10
70.690700
20
85.433600
11
64.690700
21
85.433600
0
LINE
8
BLACK
10
64.690700
20
85.433600
11
64.556556
21
85.449475
0
LINE
8
BLACK
10
64.682500
20
100.435000
11
64.586721
21
100.421771
0
LINE
8
BLACK
10
64.586800
20
100.422000
11
64.488640
21
100.382312
0
LINE
8
BLACK
10
64.488600
20
100.383000
11
64.405786
21
100.319500
0
LINE
8
BLACK
10
64.405800
20
100.319000
11
64.341771
21
100.234333
0
LINE
8
BLACK
10
64.341800
20
100.234000
11
64.300790
21
100.136104
0
LINE
8
BLACK
10
64.300700
20
100.136000
11
64.288529
21
100.040750
0
LINE
8
BLACK
10
64.288600
20
100.041000
11
64.290717
21
100.033063
0
LINE
8
BLACK
10
64.290700
20
100.033000
11
64.290700
21
86.034200
0
LINE
8
BLACK
10
64.290700
20
86.034200
11
64.288583
21
86.026263
0
LINE
8
BLACK
10
64.288600
20
86.026300
11
64.300771
21
85.928404
0
LINE
8
BLACK
10
64.300700
20
85.928400
11
64.341710
21
85.830504
0
LINE
8
BLACK
10
64.341800
20
85.830500
11
64.405829
21
85.748479
0
LINE
8
BLACK
10
64.405800
20
85.748400
11
64.488614
21
85.684900
0
LINE
8
BLACK
10
64.488600
20
85.684900
11
64.586760
21
85.642567
0
LINE
8
BLACK
10
64.586800
20
85.642600
11
64.682579
21
85.632017
0
LINE
8
BLACK
10
64.682500
20
85.632000
11
64.690702
21
85.634646
0
LINE
8
BLACK
10
64.690700
20
85.634700
11
70.690700
21
85.634700
0
LINE
8
BLACK
10
70.690700
20
85.634700
11
70.698637
21
85.632054
0
LINE
8
BLACK
10
70.698600
20
85.632000
11
70.794644
21
85.642583
0
LINE
8
BLACK
10
70.794700
20
85.642600
11
70.892596
21
85.684933
0
LINE
8
BLACK
10
70.892600
20
85.684900
11
70.975679
21
85.748400
0
LINE
8
BLACK
10
70.975600
20
85.748400
11
71.039629
21
85.830421
0
LINE
8
BLACK
10
71.039700
20
85.830500
11
71.080710
21
85.928396
0
LINE
8
BLACK
10
71.080700
20
85.928400
11
71.092606
21
86.026296
0
LINE
8
BLACK
10
71.092600
20
86.026300
11
71.090748
21
86.034237
0
LINE
8
BLACK
10
71.090700
20
86.034200
11
71.090700
21
100.033000
0
LINE
8
BLACK
10
71.090700
20
100.033000
11
71.092552
21
100.040937
0
LINE
8
BLACK
10
71.092600
20
100.041000
11
71.080694
21
100.136250
0
LINE
8
BLACK
10
71.080700
20
100.136000
11
71.039690
21
100.233896
0
LINE
8
BLACK
10
71.039700
20
100.234000
11
70.975671
21
100.318667
0
LINE
8
BLACK
10
70.975600
20
100.319000
11
70.892521
21
100.382500
0
LINE
8
BLACK
10
70.892600
20
100.383000
11
70.794704
21
100.422687
0
LINE
8
BLACK
10
70.794700
20
100.422000
11
70.698656
21
100.435229
0
LINE
8
BLACK
10
70.698600
20
100.435000
11
70.690663
21
100.432354
0
LINE
8
BLACK
10
70.690700
20
100.433000
11
64.690700
21
100.433000
0
LINE
8
BLACK
10
64.690700
20
100.433000
11
64.682498
21
100.435646
0
LINE
8
BLACK
10
101.570000
20
87.449700
11
101.444058
21
87.492033
0
LINE
8
BLACK
10
101.444000
20
87.492000
11
101.329965
21
87.563437
0
LINE
8
BLACK
10
101.330000
20
87.563500
11
101.235015
21
87.658750
0
LINE
8
BLACK
10
101.235000
20
87.658700
11
101.163033
21
87.772471
0
LINE
8
BLACK
10
101.163000
20
87.772500
11
101.118815
21
87.899500
0
LINE
8
BLACK
10
101.119000
20
87.899500
11
101.104183
21
88.034437
0
LINE
8
BLACK
10
101.104000
20
88.034400
11
101.104000
21
101.033000
0
LINE
8
BLACK
10
101.104000
20
101.033000
11
101.118817
21
101.167937
0
LINE
8
BLACK
10
101.119000
20
101.168000
11
101.163185
21
101.292354
0
LINE
8
BLACK
10
101.163000
20
101.293000
11
101.234967
21
101.406771
0
LINE
8
BLACK
10
101.235000
20
101.406000
11
101.329985
21
101.501250
0
LINE
8
BLACK
10
101.330000
20
101.502000
11
101.444035
21
101.576083
0
LINE
8
BLACK
10
101.444000
20
101.576000
11
101.569942
21
101.618333
0
LINE
8
BLACK
10
101.570000
20
101.618000
11
101.703879
21
101.633875
0
LINE
8
BLACK
10
101.704000
20
101.634000
11
114.704000
21
101.634000
0
LINE
8
BLACK
10
114.704000
20
101.634000
11
114.838144
21
101.618125
0
LINE
8
BLACK
10
114.838000
20
101.618000
11
114.963942
21
101.575667
0
LINE
8
BLACK
10
114.964000
20
101.576000
11
115.078035
21
101.501917
0
LINE
8
BLACK
10
115.078000
20
101.502000
11
115.172985
21
101.406750
0
LINE
8
BLACK
10
115.173000
20
101.406000
11
115.244967
21
101.292229
0
LINE
8
BLACK
10
115.245000
20
101.293000
11
115.288921
21
101.168646
0
LINE
8
BLACK
10
115.289000
20
101.168000
11
115.304081
21
101.033063
0
LINE
8
BLACK
10
115.304000
20
101.033000
11
115.304000
21
88.034400
0
LINE
8
BLACK
10
115.304000
20
88.034400
11
115.288919
21
87.899463
0
LINE
8
BLACK
10
115.289000
20
87.899500
11
115.245079
21
87.772500
0
LINE
8
BLACK
10
115.245000
20
87.772500
11
115.173033
21
87.658729
0
LINE
8
BLACK
10
115.173000
20
87.658700
11
115.078015
21
87.563450
0
LINE
8
BLACK
10
115.078000
20
87.563500
11
114.963965
21
87.492063
0
LINE
8
BLACK
10
114.964000
20
87.492000
11
114.838058
21
87.449667
0
LINE
8
BLACK
10
114.838000
20
87.449700
11
114.703856
21
87.433825
0
LINE
8
BLACK
10
114.704000
20
87.433800
11
101.704000
21
87.433800
0
LINE
8
BLACK
10
101.704000
20
87.433800
11
101.570121
21
87.449675
0
LINE
8
BLACK
10
101.696000
20
101.436000
11
101.599956
21
101.422771
0
LINE
8
BLACK
10
101.600000
20
101.422000
11
101.502104
21
101.382312
0
LINE
8
BLACK
10
101.502000
20
101.383000
11
101.418921
21
101.319500
0
LINE
8
BLACK
10
101.419000
20
101.319000
11
101.354971
21
101.234333
0
LINE
8
BLACK
10
101.355000
20
101.234000
11
101.313990
21
101.136104
0
LINE
8
BLACK
10
101.314000
20
101.137000
11
101.302094
21
101.041750
0
LINE
8
BLACK
10
101.302000
20
101.041000
11
101.304117
21
101.033063
0
LINE
8
BLACK
10
101.304000
20
101.033000
11
101.304000
21
88.034400
0
LINE
8
BLACK
10
101.304000
20
88.034400
11
101.301883
21
88.026463
0
LINE
8
BLACK
10
101.302000
20
88.026500
11
101.313906
21
87.928604
0
LINE
8
BLACK
10
101.314000
20
87.928600
11
101.355010
21
87.830704
0
LINE
8
BLACK
10
101.355000
20
87.830700
11
101.419029
21
87.748679
0
LINE
8
BLACK
10
101.419000
20
87.748700
11
101.502079
21
87.685200
0
LINE
8
BLACK
10
101.502000
20
87.685200
11
101.599896
21
87.642867
0
LINE
8
BLACK
10
101.600000
20
87.642900
11
101.696044
21
87.632317
0
LINE
8
BLACK
10
101.696000
20
87.632300
11
101.704000
21
87.632300
0
LINE
8
BLACK
10
101.704000
20
87.632300
11
114.704000
21
87.632300
0
LINE
8
BLACK
10
114.704000
20
87.632300
11
114.711000
21
87.632300
0
LINE
8
BLACK
10
114.711000
20
87.632300
11
114.807044
21
87.642883
0
LINE
8
BLACK
10
114.808000
20
87.642900
11
114.906160
21
87.685233
0
LINE
8
BLACK
10
114.906000
20
87.685200
11
114.988815
21
87.748700
0
LINE
8
BLACK
10
114.988000
20
87.748700
11
115.052029
21
87.830721
0
LINE
8
BLACK
10
115.053000
20
87.830700
11
115.094010
21
87.928596
0
LINE
8
BLACK
10
115.094000
20
87.928600
11
115.106171
21
88.026496
0
LINE
8
BLACK
10
115.106000
20
88.026500
11
115.103883
21
88.034437
0
LINE
8
BLACK
10
115.104000
20
88.034400
11
115.104000
21
101.033000
0
LINE
8
BLACK
10
115.104000
20
101.033000
11
115.106117
21
101.040937
0
LINE
8
BLACK
10
115.106000
20
101.041000
11
115.093829
21
101.136250
0
LINE
8
BLACK
10
115.094000
20
101.137000
11
115.052990
21
101.234896
0
LINE
8
BLACK
10
115.053000
20
101.234000
11
114.988971
21
101.318667
0
LINE
8
BLACK
10
114.988000
20
101.319000
11
114.905186
21
101.382500
0
LINE
8
BLACK
10
114.906000
20
101.383000
11
114.807840
21
101.422687
0
LINE
8
BLACK
10
114.808000
20
101.422000
11
114.711956
21
101.435229
0
LINE
8
BLACK
10
114.711000
20
101.436000
11
114.703063
21
101.433354
0
LINE
8
BLACK
10
114.704000
20
101.433000
11
101.704000
21
101.433000
0
LINE
8
BLACK
10
101.704000
20
101.433000
11
101.696063
21
101.435646
0
LINE
8
BLACK
10
139.670000
20
87.449700
11
139.544058
21
87.492033
0
LINE
8
BLACK
10
139.544000
20
87.492000
11
139.429965
21
87.563437
0
LINE
8
BLACK
10
139.430000
20
87.563500
11
139.335015
21
87.658750
0
LINE
8
BLACK
10
139.335000
20
87.658700
11
139.263033
21
87.772471
0
LINE
8
BLACK
10
139.263000
20
87.772500
11
139.218815
21
87.899500
0
LINE
8
BLACK
10
139.218000
20
87.899500
11
139.203183
21
88.034437
0
LINE
8
BLACK
10
139.204000
20
88.034400
11
139.204000
21
101.033000
0
LINE
8
BLACK
10
139.204000
20
101.033000
11
139.218817
21
101.167937
0
LINE
8
BLACK
10
139.218000
20
101.168000
11
139.262185
21
101.292354
0
LINE
8
BLACK
10
139.263000
20
101.293000
11
139.334967
21
101.406771
0
LINE
8
BLACK
10
139.335000
20
101.406000
11
139.429985
21
101.501250
0
LINE
8
BLACK
10
139.430000
20
101.502000
11
139.544035
21
101.576083
0
LINE
8
BLACK
10
139.544000
20
101.576000
11
139.669942
21
101.618333
0
LINE
8
BLACK
10
139.670000
20
101.618000
11
139.803879
21
101.633875
0
LINE
8
BLACK
10
139.803000
20
101.634000
11
152.803000
21
101.634000
0
LINE
8
BLACK
10
152.803000
20
101.634000
11
152.937144
21
101.618125
0
LINE
8
BLACK
10
152.938000
20
101.618000
11
153.063942
21
101.575667
0
LINE
8
BLACK
10
153.064000
20
101.576000
11
153.178035
21
101.501917
0
LINE
8
BLACK
10
153.178000
20
101.502000
11
153.272985
21
101.406750
0
LINE
8
BLACK
10
153.273000
20
101.406000
11
153.344967
21
101.292229
0
LINE
8
BLACK
10
153.345000
20
101.293000
11
153.388921
21
101.168646
0
LINE
8
BLACK
10
153.388000
20
101.168000
11
153.403081
21
101.033063
0
LINE
8
BLACK
10
153.404000
20
101.033000
11
153.404000
21
88.034400
0
LINE
8
BLACK
10
153.404000
20
88.034400
11
153.388919
21
87.899463
0
LINE
8
BLACK
10
153.388000
20
87.899500
11
153.344079
21
87.772500
0
LINE
8
BLACK
10
153.345000
20
87.772500
11
153.273033
21
87.658729
0
LINE
8
BLACK
10
153.273000
20
87.658700
11
153.178015
21
87.563450
0
LINE
8
BLACK
10
153.178000
20
87.563500
11
153.063965
21
87.492063
0
LINE
8
BLACK
10
153.064000
20
87.492000
11
152.938058
21
87.449667
0
LINE
8
BLACK
10
152.938000
20
87.449700
11
152.803856
21
87.433825
0
LINE
8
BLACK
10
152.803000
20
87.433800
11
139.803000
21
87.433800
0
LINE
8
BLACK
10
139.803000
20
87.433800
11
139.669121
21
87.449675
0
LINE
8
BLACK
10
139.796000
20
101.436000
11
139.699956
21
101.422771
0
LINE
8
BLACK
10
139.699000
20
101.422000
11
139.601104
21
101.382312
0
LINE
8
BLACK
10
139.602000
20
101.383000
11
139.518921
21
101.319500
0
LINE
8
BLACK
10
139.519000
20
101.319000
11
139.454971
21
101.234333
0
LINE
8
BLACK
10
139.454000
20
101.234000
11
139.412990
21
101.136104
0
LINE
8
BLACK
10
139.413000
20
101.137000
11
139.401094
21
101.041750
0
LINE
8
BLACK
10
139.402000
20
101.041000
11
139.404117
21
101.033063
0
LINE
8
BLACK
10
139.404000
20
101.033000
11
139.404000
21
88.034400
0
LINE
8
BLACK
10
139.404000
20
88.034400
11
139.401883
21
88.026463
0
LINE
8
BLACK
10
139.402000
20
88.026500
11
139.413906
21
87.928604
0
LINE
8
BLACK
10
139.413000
20
87.928600
11
139.454010
21
87.830704
0
LINE
8
BLACK
10
139.454000
20
87.830700
11
139.518029
21
87.748679
0
LINE
8
BLACK
10
139.519000
20
87.748700
11
139.602079
21
87.685200
0
LINE
8
BLACK
10
139.602000
20
87.685200
11
139.699896
21
87.642867
0
LINE
8
BLACK
10
139.699000
20
87.642900
11
139.795044
21
87.632317
0
LINE
8
BLACK
10
139.796000
20
87.632300
11
139.803000
21
87.632300
0
LINE
8
BLACK
10
139.803000
20
87.632300
11
152.803000
21
87.632300
0
LINE
8
BLACK
10
152.803000
20
87.632300
11
152.811000
21
87.632300
0
LINE
8
BLACK
10
152.811000
20
87.632300
11
152.907044
21
87.642883
0
LINE
8
BLACK
10
152.907000
20
87.642900
11
153.005160
21
87.685233
0
LINE
8
BLACK
10
153.006000
20
87.685200
11
153.088815
21
87.748700
0
LINE
8
BLACK
10
153.088000
20
87.748700
11
153.152029
21
87.830721
0
LINE
8
BLACK
10
153.152000
20
87.830700
11
153.193010
21
87.928596
0
LINE
8
BLACK
10
153.193000
20
87.928600
11
153.205171
21
88.026496
0
LINE
8
BLACK
10
153.206000
20
88.026500
11
153.203883
21
88.034437
0
LINE
8
BLACK
10
153.204000
20
88.034400
11
153.204000
21
101.033000
0
LINE
8
BLACK
10
153.204000
20
101.033000
11
153.206117
21
101.040937
0
LINE
8
BLACK
10
153.206000
20
101.041000
11
153.193829
21
101.136250
0
LINE
8
BLACK
10
153.193000
20
101.137000
11
153.151990
21
101.234896
0
LINE
8
BLACK
10
153.152000
20
101.234000
11
153.087971
21
101.318667
0
LINE
8
BLACK
10
153.088000
20
101.319000
11
153.005185
21
101.382500
0
LINE
8
BLACK
10
153.006000
20
101.383000
11
152.907840
21
101.422687
0
LINE
8
BLACK
10
152.907000
20
101.422000
11
152.810956
21
101.435229
0
LINE
8
BLACK
10
152.811000
20
101.436000
11
152.803063
21
101.433354
0
LINE
8
BLACK
10
152.803000
20
101.433000
11
139.803000
21
101.433000
0
LINE
8
BLACK
10
139.803000
20
101.433000
11
139.795063
21
101.435646
0
LINE
8
BLACK
10
72.994700
20
87.449700
11
72.868758
21
87.492033
0
LINE
8
BLACK
10
72.868700
20
87.492000
11
72.754665
21
87.563437
0
LINE
8
BLACK
10
72.754700
20
87.563500
11
72.659715
21
87.658750
0
LINE
8
BLACK
10
72.659700
20
87.658700
11
72.587733
21
87.772471
0
LINE
8
BLACK
10
72.587800
20
87.772500
11
72.543615
21
87.899500
0
LINE
8
BLACK
10
72.543600
20
87.899500
11
72.528783
21
88.034437
0
LINE
8
BLACK
10
72.528700
20
88.034400
11
72.528700
21
101.033000
0
LINE
8
BLACK
10
72.528700
20
101.033000
11
72.543517
21
101.167937
0
LINE
8
BLACK
10
72.543600
20
101.168000
11
72.587785
21
101.292354
0
LINE
8
BLACK
10
72.587800
20
101.293000
11
72.659767
21
101.406771
0
LINE
8
BLACK
10
72.659700
20
101.406000
11
72.754685
21
101.501250
0
LINE
8
BLACK
10
72.754700
20
101.502000
11
72.868735
21
101.576083
0
LINE
8
BLACK
10
72.868700
20
101.576000
11
72.994642
21
101.618333
0
LINE
8
BLACK
10
72.994700
20
101.618000
11
73.128579
21
101.633875
0
LINE
8
BLACK
10
73.128600
20
101.634000
11
86.128600
21
101.634000
0
LINE
8
BLACK
10
86.128600
20
101.634000
11
86.262744
21
101.618125
0
LINE
8
BLACK
10
86.262700
20
101.618000
11
86.388642
21
101.575667
0
LINE
8
BLACK
10
86.388700
20
101.576000
11
86.502735
21
101.501917
0
LINE
8
BLACK
10
86.502700
20
101.502000
11
86.597685
21
101.406750
0
LINE
8
BLACK
10
86.597700
20
101.406000
11
86.669667
21
101.292229
0
LINE
8
BLACK
10
86.669700
20
101.293000
11
86.713621
21
101.168646
0
LINE
8
BLACK
10
86.713600
20
101.168000
11
86.728681
21
101.033063
0
LINE
8
BLACK
10
86.728700
20
101.033000
11
86.728700
21
88.034400
0
LINE
8
BLACK
10
86.728700
20
88.034400
11
86.713619
21
87.899463
0
LINE
8
BLACK
10
86.713600
20
87.899500
11
86.669679
21
87.772500
0
LINE
8
BLACK
10
86.669700
20
87.772500
11
86.597733
21
87.658729
0
LINE
8
BLACK
10
86.597700
20
87.658700
11
86.502715
21
87.563450
0
LINE
8
BLACK
10
86.502700
20
87.563500
11
86.388665
21
87.492063
0
LINE
8
BLACK
10
86.388700
20
87.492000
11
86.262758
21
87.449667
0
LINE
8
BLACK
10
86.262700
20
87.449700
11
86.128556
21
87.433825
0
LINE
8
BLACK
10
86.128600
20
87.433800
11
73.128600
21
87.433800
0
LINE
8
BLACK
10
73.128600
20
87.433800
11
72.994721
21
87.449675
0
LINE
8
BLACK
10
73.120600
20
101.436000
11
73.024556
21
101.422771
0
LINE
8
BLACK
10
73.024600
20
101.422000
11
72.926704
21
101.382312
0
LINE
8
BLACK
10
72.926700
20
101.383000
11
72.843621
21
101.319500
0
LINE
8
BLACK
10
72.843600
20
101.319000
11
72.779571
21
101.234333
0
LINE
8
BLACK
10
72.779600
20
101.234000
11
72.738590
21
101.136104
0
LINE
8
BLACK
10
72.738600
20
101.137000
11
72.726694
21
101.041750
0
LINE
8
BLACK
10
72.726700
20
101.041000
11
72.728817
21
101.033063
0
LINE
8
BLACK
10
72.728800
20
101.033000
11
72.728800
21
88.034400
0
LINE
8
BLACK
10
72.728800
20
88.034400
11
72.726683
21
88.026463
0
LINE
8
BLACK
10
72.726700
20
88.026500
11
72.738606
21
87.928604
0
LINE
8
BLACK
10
72.738600
20
87.928600
11
72.779610
21
87.830704
0
LINE
8
BLACK
10
72.779600
20
87.830700
11
72.843629
21
87.748679
0
LINE
8
BLACK
10
72.843600
20
87.748700
11
72.926679
21
87.685200
0
LINE
8
BLACK
10
72.926700
20
87.685200
11
73.024596
21
87.642867
0
LINE
8
BLACK
10
73.024600
20
87.642900
11
73.120644
21
87.632317
0
LINE
8
BLACK
10
73.120600
20
87.632300
11
73.128600
21
87.632300
0
LINE
8
BLACK
10
73.128600
20
87.632300
11
86.128600
21
87.632300
0
LINE
8
BLACK
10
86.128600
20
87.632300
11
86.136500
21
87.632300
0
LINE
8
BLACK
10
86.136500
20
87.632300
11
86.232544
21
87.642883
0
LINE
8
BLACK
10
86.232600
20
87.642900
11
86.330760
21
87.685233
0
LINE
8
BLACK
10
86.330700
20
87.685200
11
86.413514
21
87.748700
0
LINE
8
BLACK
10
86.413500
20
87.748700
11
86.477529
21
87.830721
0
LINE
8
BLACK
10
86.477600
20
87.830700
11
86.518610
21
87.928596
0
LINE
8
BLACK
10
86.518600
20
87.928600
11
86.530771
21
88.026496
0
LINE
8
BLACK
10
86.530700
20
88.026500
11
86.528583
21
88.034437
0
LINE
8
BLACK
10
86.528600
20
88.034400
11
86.528600
21
101.033000
0
LINE
8
BLACK
10
86.528600
20
101.033000
11
86.530717
21
101.040937
0
LINE
8
BLACK
10
86.530700
20
101.041000
11
86.518529
21
101.136250
0
LINE
8
BLACK
10
86.518600
20
101.137000
11
86.477590
21
101.234896
0
LINE
8
BLACK
10
86.477600
20
101.234000
11
86.413571
21
101.318667
0
LINE
8
BLACK
10
86.413500
20
101.319000
11
86.330686
21
101.382500
0
LINE
8
BLACK
10
86.330700
20
101.383000
11
86.232540
21
101.422687
0
LINE
8
BLACK
10
86.232600
20
101.422000
11
86.136556
21
101.435229
0
LINE
8
BLACK
10
86.136500
20
101.436000
11
86.128563
21
101.433354
0
LINE
8
BLACK
10
86.128600
20
101.433000
11
73.128600
21
101.433000
0
LINE
8
BLACK
10
73.128600
20
101.433000
11
73.120663
21
101.435646
0
LINE
8
BLACK
10
118.620000
20
88.534500
11
118.494058
21
88.579479
0
LINE
8
BLACK
10
118.494000
20
88.579500
11
118.379965
21
88.650937
0
LINE
8
BLACK
10
118.380000
20
88.650900
11
118.285015
21
88.746150
0
LINE
8
BLACK
10
118.285000
20
88.746200
11
118.213033
21
88.859971
0
LINE
8
BLACK
10
118.213000
20
88.859900
11
118.168815
21
88.986900
0
LINE
8
BLACK
10
118.169000
20
88.986900
11
118.154183
21
89.119192
0
LINE
8
BLACK
10
118.154000
20
89.119200
11
118.154000
21
95.120000
0
LINE
8
BLACK
10
118.154000
20
95.120000
11
118.168817
21
95.254937
0
LINE
8
BLACK
10
118.169000
20
95.254900
11
118.213185
21
95.379254
0
LINE
8
BLACK
10
118.213000
20
95.379300
11
118.284967
21
95.495717
0
LINE
8
BLACK
10
118.285000
20
95.495700
11
118.379985
21
95.588304
0
LINE
8
BLACK
10
118.380000
20
95.588300
11
118.494035
21
95.662383
0
LINE
8
BLACK
10
118.494000
20
95.662400
11
118.619942
21
95.704733
0
LINE
8
BLACK
10
118.620000
20
95.704700
11
118.753879
21
95.720575
0
LINE
8
BLACK
10
118.754000
20
95.720600
11
132.754000
21
95.720600
0
LINE
8
BLACK
10
132.754000
20
95.720600
11
132.887879
21
95.704725
0
LINE
8
BLACK
10
132.888000
20
95.704700
11
133.013942
21
95.662367
0
LINE
8
BLACK
10
133.013000
20
95.662400
11
133.127035
21
95.588317
0
LINE
8
BLACK
10
133.128000
20
95.588300
11
133.222985
21
95.495696
0
LINE
8
BLACK
10
133.223000
20
95.495700
11
133.294967
21
95.379283
0
LINE
8
BLACK
10
133.294000
20
95.379300
11
133.338185
21
95.254946
0
LINE
8
BLACK
10
133.339000
20
95.254900
11
133.353817
21
95.119963
0
LINE
8
BLACK
10
133.353000
20
95.120000
11
133.353000
21
89.119200
0
LINE
8
BLACK
10
133.353000
20
89.119200
11
133.338183
21
88.986908
0
LINE
8
BLACK
10
133.339000
20
88.986900
11
133.294815
21
88.859900
0
LINE
8
BLACK
10
133.294000
20
88.859900
11
133.222033
21
88.746129
0
LINE
8
BLACK
10
133.223000
20
88.746200
11
133.128015
21
88.650950
0
LINE
8
BLACK
10
133.128000
20
88.650900
11
133.013965
21
88.579463
0
LINE
8
BLACK
10
133.013000
20
88.579500
11
132.887058
21
88.534521
0
LINE
8
BLACK
10
132.888000
20
88.534500
11
132.754121
21
88.521271
0
LINE
8
BLACK
10
132.754000
20
88.521300
11
118.754000
21
88.521300
0
LINE
8
BLACK
10
118.754000
20
88.521300
11
118.620121
21
88.534529
0
LINE
8
BLACK
10
118.746000
20
95.522100
11
118.649956
21
95.511517
0
LINE
8
BLACK
10
118.650000
20
95.511600
11
118.552104
21
95.469267
0
LINE
8
BLACK
10
118.552000
20
95.469200
11
118.468921
21
95.405700
0
LINE
8
BLACK
10
118.469000
20
95.405700
11
118.404971
21
95.323679
0
LINE
8
BLACK
10
118.405000
20
95.323700
11
118.363990
21
95.225804
0
LINE
8
BLACK
10
118.364000
20
95.225800
11
118.352094
21
95.127904
0
LINE
8
BLACK
10
118.352000
20
95.127900
11
118.354117
21
95.119963
0
LINE
8
BLACK
10
118.354000
20
95.120000
11
118.354000
21
89.119200
0
LINE
8
BLACK
10
118.354000
20
89.119200
11
118.351883
21
89.111263
0
LINE
8
BLACK
10
118.352000
20
89.111300
11
118.363906
21
89.016050
0
LINE
8
BLACK
10
118.364000
20
89.016000
11
118.405010
21
88.918104
0
LINE
8
BLACK
10
118.405000
20
88.918200
11
118.469029
21
88.836179
0
LINE
8
BLACK
10
118.469000
20
88.836100
11
118.552079
21
88.772600
0
LINE
8
BLACK
10
118.552000
20
88.772600
11
118.649896
21
88.730267
0
LINE
8
BLACK
10
118.650000
20
88.730300
11
118.746044
21
88.719717
0
LINE
8
BLACK
10
118.746000
20
88.719700
11
118.754000
21
88.719700
0
LINE
8
BLACK
10
118.754000
20
88.719700
11
132.754000
21
88.719700
0
LINE
8
BLACK
10
132.754000
20
88.719700
11
132.762000
21
88.719700
0
LINE
8
BLACK
10
132.762000
20
88.719700
11
132.858044
21
88.730283
0
LINE
8
BLACK
10
132.858000
20
88.730300
11
132.955896
21
88.772633
0
LINE
8
BLACK
10
132.956000
20
88.772600
11
133.039079
21
88.836100
0
LINE
8
BLACK
10
133.039000
20
88.836100
11
133.103029
21
88.918121
0
LINE
8
BLACK
10
133.103000
20
88.918200
11
133.144010
21
89.016096
0
LINE
8
BLACK
10
133.144000
20
89.016000
11
133.155906
21
89.111250
0
LINE
8
BLACK
10
133.156000
20
89.111300
11
133.154148
21
89.119237
0
LINE
8
BLACK
10
133.154000
20
89.119200
11
133.154000
21
95.120000
0
LINE
8
BLACK
10
133.154000
20
95.120000
11
133.155852
21
95.127937
0
LINE
8
BLACK
10
133.156000
20
95.127900
11
133.144094
21
95.225796
0
LINE
8
BLACK
10
133.144000
20
95.225800
11
133.102990
21
95.323696
0
LINE
8
BLACK
10
133.103000
20
95.323700
11
133.038971
21
95.405721
0
LINE
8
BLACK
10
133.039000
20
95.405700
11
132.955921
21
95.469200
0
LINE
8
BLACK
10
132.956000
20
95.469200
11
132.858104
21
95.511533
0
LINE
8
BLACK
10
132.858000
20
95.511600
11
132.761956
21
95.522183
0
LINE
8
BLACK
10
132.762000
20
95.522100
11
132.754063
21
95.519454
0
LINE
8
BLACK
10
132.754000
20
95.519500
11
118.754000
21
95.519500
0
LINE
8
BLACK
10
118.754000
20
95.519500
11
118.746063
21
95.522146
0
LINE
8
BLACK
10
120.620000
20
96.974700
11
120.494058
21
97.017033
0
LINE
8
BLACK
10
120.494000
20
97.017000
11
120.379965
21
97.088437
0
LINE
8
BLACK
10
120.380000
20
97.088500
11
120.285015
21
97.183750
0
LINE
8
BLACK
10
120.285000
20
97.183700
11
120.213033
21
97.297471
0
LINE
8
BLACK
10
120.213000
20
97.297500
11
120.168815
21
97.424500
0
LINE
8
BLACK
10
120.169000
20
97.424500
11
120.154183
21
97.559437
0
LINE
8
BLACK
10
120.154000
20
97.559400
11
120.154000
21
110.558000
0
LINE
8
BLACK
10
120.154000
20
110.558000
11
120.168817
21
110.692937
0
LINE
8
BLACK
10
120.169000
20
110.693000
11
120.213185
21
110.817354
0
LINE
8
BLACK
10
120.213000
20
110.818000
11
120.284967
21
110.931771
0
LINE
8
BLACK
10
120.285000
20
110.931000
11
120.379985
21
111.026250
0
LINE
8
BLACK
10
120.380000
20
111.027000
11
120.494035
21
111.101083
0
LINE
8
BLACK
10
120.494000
20
111.101000
11
120.619942
21
111.143333
0
LINE
8
BLACK
10
120.620000
20
111.143000
11
120.753879
21
111.158875
0
LINE
8
BLACK
10
120.753000
20
111.159000
11
133.754000
21
111.159000
0
LINE
8
BLACK
10
133.754000
20
111.159000
11
133.888144
21
111.143125
0
LINE
8
BLACK
10
133.888000
20
111.143000
11
134.013942
21
111.100667
0
LINE
8
BLACK
10
134.014000
20
111.101000
11
134.128035
21
111.026917
0
LINE
8
BLACK
10
134.128000
20
111.027000
11
134.222985
21
110.931750
0
LINE
8
BLACK
10
134.223000
20
110.931000
11
134.294967
21
110.817229
0
LINE
8
BLACK
10
134.295000
20
110.818000
11
134.338921
21
110.693646
0
LINE
8
BLACK
10
134.339000
20
110.693000
11
134.354081
21
110.558063
0
LINE
8
BLACK
10
134.354000
20
110.558000
11
134.354000
21
97.559400
0
LINE
8
BLACK
10
134.354000
20
97.559400
11
134.338919
21
97.424463
0
LINE
8
BLACK
10
134.339000
20
97.424500
11
134.295079
21
97.297500
0
LINE
8
BLACK
10
134.295000
20
97.297500
11
134.223033
21
97.183729
0
LINE
8
BLACK
10
134.223000
20
97.183700
11
134.128015
21
97.088450
0
LINE
8
BLACK
10
134.128000
20
97.088500
11
134.013965
21
97.017063
0
LINE
8
BLACK
10
134.014000
20
97.017000
11
133.888058
21
96.974667
0
LINE
8
BLACK
10
133.888000
20
96.974700
11
133.753856
21
96.958825
0
LINE
8
BLACK
10
133.754000
20
96.958800
11
120.753000
21
96.958800
0
LINE
8
BLACK
10
120.753000
20
96.958800
11
120.619121
21
96.974675
0
LINE
8
BLACK
10
120.746000
20
110.961000
11
120.649956
21
110.947771
0
LINE
8
BLACK
10
120.650000
20
110.947000
11
120.552104
21
110.907313
0
LINE
8
BLACK
10
120.552000
20
110.908000
11
120.468921
21
110.844500
0
LINE
8
BLACK
10
120.469000
20
110.844000
11
120.404971
21
110.759333
0
LINE
8
BLACK
10
120.405000
20
110.759000
11
120.363990
21
110.661104
0
LINE
8
BLACK
10
120.364000
20
110.662000
11
120.352094
21
110.566750
0
LINE
8
BLACK
10
120.352000
20
110.566000
11
120.354117
21
110.558063
0
LINE
8
BLACK
10
120.354000
20
110.558000
11
120.354000
21
97.559400
0
LINE
8
BLACK
10
120.354000
20
97.559400
11
120.351883
21
97.551463
0
LINE
8
BLACK
10
120.352000
20
97.551500
11
120.363906
21
97.453604
0
LINE
8
BLACK
10
120.364000
20
97.453600
11
120.405010
21
97.355704
0
LINE
8
BLACK
10
120.405000
20
97.355700
11
120.469029
21
97.273679
0
LINE
8
BLACK
10
120.469000
20
97.273700
11
120.552079
21
97.210200
0
LINE
8
BLACK
10
120.552000
20
97.210200
11
120.649896
21
97.167867
0
LINE
8
BLACK
10
120.650000
20
97.167800
11
120.746044
21
97.157217
0
LINE
8
BLACK
10
120.746000
20
97.157300
11
120.753000
21
97.157300
0
LINE
8
BLACK
10
120.753000
20
97.157300
11
133.754000
21
97.157300
0
LINE
8
BLACK
10
133.754000
20
97.157300
11
133.761000
21
97.157300
0
LINE
8
BLACK
10
133.761000
20
97.157300
11
133.857044
21
97.167883
0
LINE
8
BLACK
10
133.858000
20
97.167800
11
133.956160
21
97.210133
0
LINE
8
BLACK
10
133.956000
20
97.210200
11
134.038815
21
97.273700
0
LINE
8
BLACK
10
134.038000
20
97.273700
11
134.102029
21
97.355721
0
LINE
8
BLACK
10
134.103000
20
97.355700
11
134.144010
21
97.453596
0
LINE
8
BLACK
10
134.144000
20
97.453600
11
134.156171
21
97.551496
0
LINE
8
BLACK
10
134.156000
20
97.551500
11
134.153883
21
97.559437
0
LINE
8
BLACK
10
134.154000
20
97.559400
11
134.154000
21
110.558000
0
LINE
8
BLACK
10
134.154000
20
110.558000
11
134.156117
21
110.565937
0
LINE
8
BLACK
10
134.156000
20
110.566000
11
134.143829
21
110.661250
0
LINE
8
BLACK
10
134.144000
20
110.662000
11
134.102990
21
110.759896
0
LINE
8
BLACK
10
134.103000
20
110.759000
11
134.038971
21
110.843667
0
LINE
8
BLACK
10
134.038000
20
110.844000
11
133.955185
21
110.907500
0
LINE
8
BLACK
10
133.956000
20
110.908000
11
133.857840
21
110.947688
0
LINE
8
BLACK
10
133.858000
20
110.947000
11
133.761956
21
110.960229
0
LINE
8
BLACK
10
133.761000
20
110.961000
11
133.753063
21
110.958354
0
LINE
8
BLACK
10
133.754000
20
110.958000
11
120.753000
21
110.958000
0
LINE
8
BLACK
10
120.753000
20
110.958000
11
120.745063
21
110.960646
0
LINE
8
BLACK
10
101.570000
20
106.500000
11
101.444058
21
106.542333
0
LINE
8
BLACK
10
101.444000
20
106.542000
11
101.329965
21
106.613437
0
LINE
8
BLACK
10
101.330000
20
106.613000
11
101.235015
21
106.708250
0
LINE
8
BLACK
10
101.235000
20
106.709000
11
101.163033
21
106.822771
0
LINE
8
BLACK
10
101.163000
20
106.822000
11
101.118815
21
106.949000
0
LINE
8
BLACK
10
101.119000
20
106.949000
11
101.104183
21
107.083937
0
LINE
8
BLACK
10
101.104000
20
107.084000
11
101.104000
21
120.083000
0
LINE
8
BLACK
10
101.104000
20
120.083000
11
101.118817
21
120.217937
0
LINE
8
BLACK
10
101.119000
20
120.218000
11
101.163185
21
120.342354
0
LINE
8
BLACK
10
101.163000
20
120.343000
11
101.234967
21
120.456771
0
LINE
8
BLACK
10
101.235000
20
120.456000
11
101.329985
21
120.551250
0
LINE
8
BLACK
10
101.330000
20
120.552000
11
101.444035
21
120.626083
0
LINE
8
BLACK
10
101.444000
20
120.626000
11
101.569942
21
120.668333
0
LINE
8
BLACK
10
101.570000
20
120.668000
11
101.703879
21
120.683875
0
LINE
8
BLACK
10
101.704000
20
120.684000
11
114.704000
21
120.684000
0
LINE
8
BLACK
10
114.704000
20
120.684000
11
114.838144
21
120.668125
0
LINE
8
BLACK
10
114.838000
20
120.668000
11
114.963942
21
120.625667
0
LINE
8
BLACK
10
114.964000
20
120.626000
11
115.078035
21
120.551917
0
LINE
8
BLACK
10
115.078000
20
120.552000
11
115.172985
21
120.456750
0
LINE
8
BLACK
10
115.173000
20
120.456000
11
115.244967
21
120.342229
0
LINE
8
BLACK
10
115.245000
20
120.343000
11
115.288921
21
120.218646
0
LINE
8
BLACK
10
115.289000
20
120.218000
11
115.304081
21
120.083063
0
LINE
8
BLACK
10
115.304000
20
120.083000
11
115.304000
21
107.084000
0
LINE
8
BLACK
10
115.304000
20
107.084000
11
115.288919
21
106.949063
0
LINE
8
BLACK
10
115.289000
20
106.949000
11
115.245079
21
106.822000
0
LINE
8
BLACK
10
115.245000
20
106.822000
11
115.173033
21
106.708229
0
LINE
8
BLACK
10
115.173000
20
106.709000
11
115.078015
21
106.613750
0
LINE
8
BLACK
10
115.078000
20
106.613000
11
114.963965
21
106.541563
0
LINE
8
BLACK
10
114.964000
20
106.542000
11
114.838058
21
106.499667
0
LINE
8
BLACK
10
114.838000
20
106.500000
11
114.703856
21
106.484125
0
LINE
8
BLACK
10
114.704000
20
106.484000
11
101.704000
21
106.484000
0
LINE
8
BLACK
10
101.704000
20
106.484000
11
101.570121
21
106.499875
0
LINE
8
BLACK
10
101.696000
20
120.486000
11
101.599956
21
120.472771
0
LINE
8
BLACK
10
101.600000
20
120.472000
11
101.502104
21
120.432313
0
LINE
8
BLACK
10
101.502000
20
120.433000
11
101.418921
21
120.369500
0
LINE
8
BLACK
10
101.419000
20
120.369000
11
101.354971
21
120.284333
0
LINE
8
BLACK
10
101.355000
20
120.284000
11
101.313990
21
120.186104
0
LINE
8
BLACK
10
101.314000
20
120.187000
11
101.302094
21
120.091750
0
LINE
8
BLACK
10
101.302000
20
120.091000
11
101.304117
21
120.083063
0
LINE
8
BLACK
10
101.304000
20
120.083000
11
101.304000
21
107.084000
0
LINE
8
BLACK
10
101.304000
20
107.084000
11
101.301883
21
107.076063
0
LINE
8
BLACK
10
101.302000
20
107.076000
11
101.313906
21
106.978104
0
LINE
8
BLACK
10
101.314000
20
106.979000
11
101.355010
21
106.881104
0
LINE
8
BLACK
10
101.355000
20
106.881000
11
101.419029
21
106.798979
0
LINE
8
BLACK
10
101.419000
20
106.799000
11
101.502079
21
106.735500
0
LINE
8
BLACK
10
101.502000
20
106.735000
11
101.599896
21
106.692667
0
LINE
8
BLACK
10
101.600000
20
106.693000
11
101.696044
21
106.682417
0
LINE
8
BLACK
10
101.696000
20
106.682000
11
101.704000
21
106.682000
0
LINE
8
BLACK
10
101.704000
20
106.682000
11
114.704000
21
106.682000
0
LINE
8
BLACK
10
114.704000
20
106.682000
11
114.711000
21
106.682000
0
LINE
8
BLACK
10
114.711000
20
106.682000
11
114.807044
21
106.692583
0
LINE
8
BLACK
10
114.808000
20
106.693000
11
114.906160
21
106.735333
0
LINE
8
BLACK
10
114.906000
20
106.735000
11
114.988815
21
106.798500
0
LINE
8
BLACK
10
114.988000
20
106.799000
11
115.052029
21
106.881021
0
LINE
8
BLACK
10
115.053000
20
106.881000
11
115.094010
21
106.978896
0
LINE
8
BLACK
10
115.094000
20
106.979000
11
115.106171
21
107.076896
0
LINE
8
BLACK
10
115.106000
20
107.076000
11
115.103883
21
107.083937
0
LINE
8
BLACK
10
115.104000
20
107.084000
11
115.104000
21
120.083000
0
LINE
8
BLACK
10
115.104000
20
120.083000
11
115.106117
21
120.090937
0
LINE
8
BLACK
10
115.106000
20
120.091000
11
115.093829
21
120.186250
0
LINE
8
BLACK
10
115.094000
20
120.187000
11
115.052990
21
120.284896
0
LINE
8
BLACK
10
115.053000
20
120.284000
11
114.988971
21
120.368667
0
LINE
8
BLACK
10
114.988000
20
120.369000
11
114.905186
21
120.432500
0
LINE
8
BLACK
10
114.906000
20
120.433000
11
114.807840
21
120.472687
0
LINE
8
BLACK
10
114.808000
20
120.472000
11
114.711956
21
120.485229
0
LINE
8
BLACK
10
114.711000
20
120.486000
11
114.703063
21
120.483354
0
LINE
8
BLACK
10
114.704000
20
120.483000
11
101.704000
21
120.483000
0
LINE
8
BLACK
10
101.704000
20
120.483000
11
101.696063
21
120.485646
0
LINE
8
BLACK
10
82.519700
20
106.500000
11
82.393758
21
106.542333
0
LINE
8
BLACK
10
82.393700
20
106.542000
11
82.279665
21
106.613437
0
LINE
8
BLACK
10
82.279700
20
106.613000
11
82.184715
21
106.708250
0
LINE
8
BLACK
10
82.184700
20
106.709000
11
82.112733
21
106.822771
0
LINE
8
BLACK
10
82.112700
20
106.822000
11
82.068515
21
106.949000
0
LINE
8
BLACK
10
82.068600
20
106.949000
11
82.053783
21
107.083937
0
LINE
8
BLACK
10
82.053700
20
107.084000
11
82.053700
21
120.083000
0
LINE
8
BLACK
10
82.053700
20
120.083000
11
82.068517
21
120.217937
0
LINE
8
BLACK
10
82.068600
20
120.218000
11
82.112785
21
120.342354
0
LINE
8
BLACK
10
82.112700
20
120.343000
11
82.184667
21
120.456771
0
LINE
8
BLACK
10
82.184700
20
120.456000
11
82.279685
21
120.551250
0
LINE
8
BLACK
10
82.279700
20
120.552000
11
82.393735
21
120.626083
0
LINE
8
BLACK
10
82.393700
20
120.626000
11
82.519642
21
120.668333
0
LINE
8
BLACK
10
82.519700
20
120.668000
11
82.653579
21
120.683875
0
LINE
8
BLACK
10
82.653500
20
120.684000
11
95.653600
21
120.684000
0
LINE
8
BLACK
10
95.653600
20
120.684000
11
95.787744
21
120.668125
0
LINE
8
BLACK
10
95.787700
20
120.668000
11
95.913642
21
120.625667
0
LINE
8
BLACK
10
95.913700
20
120.626000
11
96.027735
21
120.551917
0
LINE
8
BLACK
10
96.027700
20
120.552000
11
96.122685
21
120.456750
0
LINE
8
BLACK
10
96.122700
20
120.456000
11
96.194667
21
120.342229
0
LINE
8
BLACK
10
96.194600
20
120.343000
11
96.238521
21
120.218646
0
LINE
8
BLACK
10
96.238600
20
120.218000
11
96.253681
21
120.083063
0
LINE
8
BLACK
10
96.253600
20
120.083000
11
96.253600
21
107.084000
0
LINE
8
BLACK
10
96.253600
20
107.084000
11
96.238519
21
106.949063
0
LINE
8
BLACK
10
96.238600
20
106.949000
11
96.194679
21
106.822000
0
LINE
8
BLACK
10
96.194600
20
106.822000
11
96.122633
21
106.708229
0
LINE
8
BLACK
10
96.122700
20
106.709000
11
96.027715
21
106.613750
0
LINE
8
BLACK
10
96.027700
20
106.613000
11
95.913665
21
106.541563
0
LINE
8
BLACK
10
95.913700
20
106.542000
11
95.787758
21
106.499667
0
LINE
8
BLACK
10
95.787700
20
106.500000
11
95.653556
21
106.484125
0
LINE
8
BLACK
10
95.653600
20
106.484000
11
82.653500
21
106.484000
0
LINE
8
BLACK
10
82.653500
20
106.484000
11
82.519621
21
106.499875
0
LINE
8
BLACK
10
82.645600
20
120.486000
11
82.549556
21
120.472771
0
LINE
8
BLACK
10
82.549600
20
120.472000
11
82.451704
21
120.432313
0
LINE
8
BLACK
10
82.451700
20
120.433000
11
82.368621
21
120.369500
0
LINE
8
BLACK
10
82.368600
20
120.369000
11
82.304571
21
120.284333
0
LINE
8
BLACK
10
82.304600
20
120.284000
11
82.263590
21
120.186104
0
LINE
8
BLACK
10
82.263600
20
120.187000
11
82.251694
21
120.091750
0
LINE
8
BLACK
10
82.251600
20
120.091000
11
82.253717
21
120.083063
0
LINE
8
BLACK
10
82.253800
20
120.083000
11
82.253800
21
107.084000
0
LINE
8
BLACK
10
82.253800
20
107.084000
11
82.251683
21
107.076063
0
LINE
8
BLACK
10
82.251600
20
107.076000
11
82.263506
21
106.978104
0
LINE
8
BLACK
10
82.263600
20
106.979000
11
82.304610
21
106.881104
0
LINE
8
BLACK
10
82.304600
20
106.881000
11
82.368629
21
106.798979
0
LINE
8
BLACK
10
82.368600
20
106.799000
11
82.451679
21
106.735500
0
LINE
8
BLACK
10
82.451700
20
106.735000
11
82.549596
21
106.692667
0
LINE
8
BLACK
10
82.549600
20
106.693000
11
82.645644
21
106.682417
0
LINE
8
BLACK
10
82.645600
20
106.682000
11
82.653500
21
106.682000
0
LINE
8
BLACK
10
82.653500
20
106.682000
11
95.653600
21
106.682000
0
LINE
8
BLACK
10
95.653600
20
106.682000
11
95.661500
21
106.682000
0
LINE
8
BLACK
10
95.661500
20
106.682000
11
95.757544
21
106.692583
0
LINE
8
BLACK
10
95.757500
20
106.693000
11
95.855660
21
106.735333
0
LINE
8
BLACK
10
95.855700
20
106.735000
11
95.938514
21
106.798500
0
LINE
8
BLACK
10
95.938500
20
106.799000
11
96.002529
21
106.881021
0
LINE
8
BLACK
10
96.002600
20
106.881000
11
96.043610
21
106.978896
0
LINE
8
BLACK
10
96.043600
20
106.979000
11
96.055771
21
107.076896
0
LINE
8
BLACK
10
96.055700
20
107.076000
11
96.053583
21
107.083937
0
LINE
8
BLACK
10
96.053600
20
107.084000
11
96.053600
21
120.083000
0
LINE
8
BLACK
10
96.053600
20
120.083000
11
96.055717
21
120.090937
0
LINE
8
BLACK
10
96.055700
20
120.091000
11
96.043529
21
120.186250
0
LINE
8
BLACK
10
96.043600
20
120.187000
11
96.002590
21
120.284896
0
LINE
8
BLACK
10
96.002600
20
120.284000
11
95.938571
21
120.368667
0
LINE
8
BLACK
10
95.938500
20
120.369000
11
95.855686
21
120.432500
0
LINE
8
BLACK
10
95.855700
20
120.433000
11
95.757540
21
120.472687
0
LINE
8
BLACK
10
95.757500
20
120.472000
11
95.661456
21
120.485229
0
LINE
8
BLACK
10
95.661500
20
120.486000
11
95.653563
21
120.483354
0
LINE
8
BLACK
10
95.653600
20
120.483000
11
82.653500
21
120.483000
0
LINE
8
BLACK
10
82.653500
20
120.483000
11
82.645563
21
120.485646
0
LINE
8
BLACK
10
63.469700
20
106.500000
11
63.343758
21
106.542333
0
LINE
8
BLACK
10
63.343700
20
106.542000
11
63.229665
21
106.613437
0
LINE
8
BLACK
10
63.229700
20
106.613000
11
63.134715
21
106.708250
0
LINE
8
BLACK
10
63.134700
20
106.709000
11
63.062733
21
106.822771
0
LINE
8
BLACK
10
63.062800
20
106.822000
11
63.018615
21
106.949000
0
LINE
8
BLACK
10
63.018600
20
106.949000
11
63.003783
21
107.083937
0
LINE
8
BLACK
10
63.003800
20
107.084000
11
63.003800
21
120.083000
0
LINE
8
BLACK
10
63.003800
20
120.083000
11
63.018617
21
120.217937
0
LINE
8
BLACK
10
63.018600
20
120.218000
11
63.062785
21
120.342354
0
LINE
8
BLACK
10
63.062800
20
120.343000
11
63.134767
21
120.456771
0
LINE
8
BLACK
10
63.134700
20
120.456000
11
63.229685
21
120.551250
0
LINE
8
BLACK
10
63.229700
20
120.552000
11
63.343735
21
120.626083
0
LINE
8
BLACK
10
63.343700
20
120.626000
11
63.469642
21
120.668333
0
LINE
8
BLACK
10
63.469700
20
120.668000
11
63.603579
21
120.683875
0
LINE
8
BLACK
10
63.603600
20
120.684000
11
76.603600
21
120.684000
0
LINE
8
BLACK
10
76.603600
20
120.684000
11
76.737744
21
120.668125
0
LINE
8
BLACK
10
76.737700
20
120.668000
11
76.863642
21
120.625667
0
LINE
8
BLACK
10
76.863700
20
120.626000
11
76.977735
21
120.551917
0
LINE
8
BLACK
10
76.977700
20
120.552000
11
77.072685
21
120.456750
0
LINE
8
BLACK
10
77.072700
20
120.456000
11
77.144667
21
120.342229
0
LINE
8
BLACK
10
77.144700
20
120.343000
11
77.188621
21
120.218646
0
LINE
8
BLACK
10
77.188600
20
120.218000
11
77.203681
21
120.083063
0
LINE
8
BLACK
10
77.203700
20
120.083000
11
77.203700
21
107.084000
0
LINE
8
BLACK
10
77.203700
20
107.084000
11
77.188619
21
106.949063
0
LINE
8
BLACK
10
77.188600
20
106.949000
11
77.144679
21
106.822000
0
LINE
8
BLACK
10
77.144700
20
106.822000
11
77.072733
21
106.708229
0
LINE
8
BLACK
10
77.072700
20
106.709000
11
76.977715
21
106.613750
0
LINE
8
BLACK
10
76.977700
20
106.613000
11
76.863665
21
106.541563
0
LINE
8
BLACK
10
76.863700
20
106.542000
11
76.737758
21
106.499667
0
LINE
8
BLACK
10
76.737700
20
106.500000
11
76.603556
21
106.484125
0
LINE
8
BLACK
10
76.603600
20
106.484000
11
63.603600
21
106.484000
0
LINE
8
BLACK
10
63.603600
20
106.484000
11
63.469721
21
106.499875
0
LINE
8
BLACK
10
63.595600
20
120.486000
11
63.499556
21
120.472771
0
LINE
8
BLACK
10
63.499600
20
120.472000
11
63.401704
21
120.432313
0
LINE
8
BLACK
10
63.401700
20
120.433000
11
63.318621
21
120.369500
0
LINE
8
BLACK
10
63.318600
20
120.369000
11
63.254571
21
120.284333
0
LINE
8
BLACK
10
63.254600
20
120.284000
11
63.213590
21
120.186104
0
LINE
8
BLACK
10
63.213600
20
120.187000
11
63.201694
21
120.091750
0
LINE
8
BLACK
10
63.201700
20
120.091000
11
63.203817
21
120.083063
0
LINE
8
BLACK
10
63.203800
20
120.083000
11
63.203800
21
107.084000
0
LINE
8
BLACK
10
63.203800
20
107.084000
11
63.201683
21
107.076063
0
LINE
8
BLACK
10
63.201700
20
107.076000
11
63.213606
21
106.978104
0
LINE
8
BLACK
10
63.213600
20
106.979000
11
63.254610
21
106.881104
0
LINE
8
BLACK
10
63.254600
20
106.881000
11
63.318629
21
106.798979
0
LINE
8
BLACK
10
63.318600
20
106.799000
11
63.401679
21
106.735500
0
LINE
8
BLACK
10
63.401700
20
106.735000
11
63.499596
21
106.692667
0
LINE
8
BLACK
10
63.499600
20
106.693000
11
63.595644
21
106.682417
0
LINE
8
BLACK
10
63.595600
20
106.682000
11
63.603600
21
106.682000
0
LINE
8
BLACK
10
63.603600
20
106.682000
11
76.603600
21
106.682000
0
LINE
8
BLACK
10
76.603600
20
106.682000
11
76.611500
21
106.682000
0
LINE
8
BLACK
10
76.611500
20
106.682000
11
76.707544
21
106.692583
0
LINE
8
BLACK
10
76.707600
20
106.693000
11
76.805760
21
106.735333
0
LINE
8
BLACK
10
76.805700
20
106.735000
11
76.888514
21
106.798500
0
LINE
8
BLACK
10
76.888500
20
106.799000
11
76.952529
21
106.881021
0
LINE
8
BLACK
10
76.952600
20
106.881000
11
76.993610
21
106.978896
0
LINE
8
BLACK
10
76.993600
20
106.979000
11
77.005771
21
107.076896
0
LINE
8
BLACK
10
77.005800
20
107.076000
11
77.003683
21
107.083937
0
LINE
8
BLACK
10
77.003600
20
107.084000
11
77.003600
21
120.083000
0
LINE
8
BLACK
10
77.003600
20
120.083000
11
77.005717
21
120.090937
0
LINE
8
BLACK
10
77.005800
20
120.091000
11
76.993629
21
120.186250
0
LINE
8
BLACK
10
76.993600
20
120.187000
11
76.952590
21
120.284896
0
LINE
8
BLACK
10
76.952600
20
120.284000
11
76.888571
21
120.368667
0
LINE
8
BLACK
10
76.888500
20
120.369000
11
76.805685
21
120.432500
0
LINE
8
BLACK
10
76.805700
20
120.433000
11
76.707540
21
120.472687
0
LINE
8
BLACK
10
76.707600
20
120.472000
11
76.611556
21
120.485229
0
LINE
8
BLACK
10
76.611500
20
120.486000
11
76.603563
21
120.483354
0
LINE
8
BLACK
10
76.603600
20
120.483000
11
63.603600
21
120.483000
0
LINE
8
BLACK
10
63.603600
20
120.483000
11
63.595663
21
120.485646
0
LINE
8
BLACK
10
139.670000
20
106.500000
11
139.544058
21
106.542333
0
LINE
8
BLACK
10
139.544000
20
106.542000
11
139.429965
21
106.613437
0
LINE
8
BLACK
10
139.430000
20
106.613000
11
139.335015
21
106.708250
0
LINE
8
BLACK
10
139.335000
20
106.709000
11
139.263033
21
106.822771
0
LINE
8
BLACK
10
139.263000
20
106.822000
11
139.218815
21
106.949000
0
LINE
8
BLACK
10
139.218000
20
106.949000
11
139.203183
21
107.083937
0
LINE
8
BLACK
10
139.204000
20
107.084000
11
139.204000
21
120.083000
0
LINE
8
BLACK
10
139.204000
20
120.083000
11
139.218817
21
120.217937
0
LINE
8
BLACK
10
139.218000
20
120.218000
11
139.262185
21
120.342354
0
LINE
8
BLACK
10
139.263000
20
120.343000
11
139.334967
21
120.456771
0
LINE
8
BLACK
10
139.335000
20
120.456000
11
139.429985
21
120.551250
0
LINE
8
BLACK
10
139.430000
20
120.552000
11
139.544035
21
120.626083
0
LINE
8
BLACK
10
139.544000
20
120.626000
11
139.669942
21
120.668333
0
LINE
8
BLACK
10
139.670000
20
120.668000
11
139.803879
21
120.683875
0
LINE
8
BLACK
10
139.803000
20
120.684000
11
152.803000
21
120.684000
0
LINE
8
BLACK
10
152.803000
20
120.684000
11
152.937144
21
120.668125
0
LINE
8
BLACK
10
152.938000
20
120.668000
11
153.063942
21
120.625667
0
LINE
8
BLACK
10
153.064000
20
120.626000
11
153.178035
21
120.551917
0
LINE
8
BLACK
10
153.178000
20
120.552000
11
153.272985
21
120.456750
0
LINE
8
BLACK
10
153.273000
20
120.456000
11
153.344967
21
120.342229
0
LINE
8
BLACK
10
153.345000
20
120.343000
11
153.388921
21
120.218646
0
LINE
8
BLACK
10
153.388000
20
120.218000
11
153.403081
21
120.083063
0
LINE
8
BLACK
10
153.404000
20
120.083000
11
153.404000
21
107.084000
0
LINE
8
BLACK
10
153.404000
20
107.084000
11
153.388919
21
106.949063
0
LINE
8
BLACK
10
153.388000
20
106.949000
11
153.344079
21
106.822000
0
LINE
8
BLACK
10
153.345000
20
106.822000
11
153.273033
21
106.708229
0
LINE
8
BLACK
10
153.273000
20
106.709000
11
153.178015
21
106.613750
0
LINE
8
BLACK
10
153.178000
20
106.613000
11
153.063965
21
106.541563
0
LINE
8
BLACK
10
153.064000
20
106.542000
11
152.938058
21
106.499667
0
LINE
8
BLACK
10
152.938000
20
106.500000
11
152.803856
21
106.484125
0
LINE
8
BLACK
10
152.803000
20
106.484000
11
139.803000
21
106.484000
0
LINE
8
BLACK
10
139.803000
20
106.484000
11
139.669121
21
106.499875
0
LINE
8
BLACK
10
139.796000
20
120.486000
11
139.699956
21
120.472771
0
LINE
8
BLACK
10
139.699000
20
120.472000
11
139.601104
21
120.432313
0
LINE
8
BLACK
10
139.602000
20
120.433000
11
139.518921
21
120.369500
0
LINE
8
BLACK
10
139.519000
20
120.369000
11
139.454971
21
120.284333
0
LINE
8
BLACK
10
139.454000
20
120.284000
11
139.412990
21
120.186104
0
LINE
8
BLACK
10
139.413000
20
120.187000
11
139.401094
21
120.091750
0
LINE
8
BLACK
10
139.402000
20
120.091000
11
139.404117
21
120.083063
0
LINE
8
BLACK
10
139.404000
20
120.083000
11
139.404000
21
107.084000
0
LINE
8
BLACK
10
139.404000
20
107.084000
11
139.401883
21
107.076063
0
LINE
8
BLACK
10
139.402000
20
107.076000
11
139.413906
21
106.978104
0
LINE
8
BLACK
10
139.413000
20
106.979000
11
139.454010
21
106.881104
0
LINE
8
BLACK
10
139.454000
20
106.881000
11
139.518029
21
106.798979
0
LINE
8
BLACK
10
139.519000
20
106.799000
11
139.602079
21
106.735500
0
LINE
8
BLACK
10
139.602000
20
106.735000
11
139.699896
21
106.692667
0
LINE
8
BLACK
10
139.699000
20
106.693000
11
139.795044
21
106.682417
0
LINE
8
BLACK
10
139.796000
20
106.682000
11
139.803000
21
106.682000
0
LINE
8
BLACK
10
139.803000
20
106.682000
11
152.803000
21
106.682000
0
LINE
8
BLACK
10
152.803000
20
106.682000
11
152.811000
21
106.682000
0
LINE
8
BLACK
10
152.811000
20
106.682000
11
152.907044
21
106.692583
0
LINE
8
BLACK
10
152.907000
20
106.693000
11
153.005160
21
106.735333
0
LINE
8
BLACK
10
153.006000
20
106.735000
11
153.088815
21
106.798500
0
LINE
8
BLACK
10
153.088000
20
106.799000
11
153.152029
21
106.881021
0
LINE
8
BLACK
10
153.152000
20
106.881000
11
153.193010
21
106.978896
0
LINE
8
BLACK
10
153.193000
20
106.979000
11
153.205171
21
107.076896
0
LINE
8
BLACK
10
153.206000
20
107.076000
11
153.203883
21
107.083937
0
LINE
8
BLACK
10
153.204000
20
107.084000
11
153.204000
21
120.083000
0
LINE
8
BLACK
10
153.204000
20
120.083000
11
153.206117
21
120.090937
0
LINE
8
BLACK
10
153.206000
20
120.091000
11
153.193829
21
120.186250
0
LINE
8
BLACK
10
153.193000
20
120.187000
11
153.151990
21
120.284896
0
LINE
8
BLACK
10
153.152000
20
120.284000
11
153.087971
21
120.368667
0
LINE
8
BLACK
10
153.088000
20
120.369000
11
153.005185
21
120.432500
0
LINE
8
BLACK
10
153.006000
20
120.433000
11
152.907840
21
120.472687
0
LINE
8
BLACK
10
152.907000
20
120.472000
11
152.810956
21
120.485229
0
LINE
8
BLACK
10
152.811000
20
120.486000
11
152.803063
21
120.483354
0
LINE
8
BLACK
10
152.803000
20
120.483000
11
139.803000
21
120.483000
0
LINE
8
BLACK
10
139.803000
20
120.483000
11
139.795063
21
120.485646
0
LINE
8
BLACK
10
118.620000
20
112.410000
11
118.494058
21
112.454979
0
LINE
8
BLACK
10
118.494000
20
112.455000
11
118.379965
21
112.526437
0
LINE
8
BLACK
10
118.380000
20
112.527000
11
118.285015
21
112.622250
0
LINE
8
BLACK
10
118.285000
20
112.622000
11
118.213033
21
112.735771
0
LINE
8
BLACK
10
118.213000
20
112.736000
11
118.168815
21
112.863000
0
LINE
8
BLACK
10
118.169000
20
112.863000
11
118.154183
21
112.995292
0
LINE
8
BLACK
10
118.154000
20
112.995000
11
118.154000
21
118.996000
0
LINE
8
BLACK
10
118.154000
20
118.996000
11
118.168817
21
119.130937
0
LINE
8
BLACK
10
118.169000
20
119.131000
11
118.213185
21
119.255354
0
LINE
8
BLACK
10
118.213000
20
119.255000
11
118.284967
21
119.371417
0
LINE
8
BLACK
10
118.285000
20
119.372000
11
118.379985
21
119.464604
0
LINE
8
BLACK
10
118.380000
20
119.464000
11
118.494035
21
119.538083
0
LINE
8
BLACK
10
118.494000
20
119.538000
11
118.619942
21
119.580333
0
LINE
8
BLACK
10
118.620000
20
119.581000
11
118.753879
21
119.596875
0
LINE
8
BLACK
10
118.754000
20
119.597000
11
132.754000
21
119.597000
0
LINE
8
BLACK
10
132.754000
20
119.597000
11
132.887879
21
119.581125
0
LINE
8
BLACK
10
132.888000
20
119.581000
11
133.013942
21
119.538667
0
LINE
8
BLACK
10
133.013000
20
119.538000
11
133.127035
21
119.463917
0
LINE
8
BLACK
10
133.128000
20
119.464000
11
133.222985
21
119.371396
0
LINE
8
BLACK
10
133.223000
20
119.372000
11
133.294967
21
119.255583
0
LINE
8
BLACK
10
133.294000
20
119.255000
11
133.338185
21
119.130646
0
LINE
8
BLACK
10
133.339000
20
119.131000
11
133.353817
21
118.996063
0
LINE
8
BLACK
10
133.353000
20
118.996000
11
133.353000
21
112.995000
0
LINE
8
BLACK
10
133.353000
20
112.995000
11
133.338183
21
112.862708
0
LINE
8
BLACK
10
133.339000
20
112.863000
11
133.294815
21
112.736000
0
LINE
8
BLACK
10
133.294000
20
112.736000
11
133.222033
21
112.622229
0
LINE
8
BLACK
10
133.223000
20
112.622000
11
133.128015
21
112.526750
0
LINE
8
BLACK
10
133.128000
20
112.527000
11
133.013965
21
112.455563
0
LINE
8
BLACK
10
133.013000
20
112.455000
11
132.887058
21
112.410021
0
LINE
8
BLACK
10
132.888000
20
112.410000
11
132.754121
21
112.396771
0
LINE
8
BLACK
10
132.754000
20
112.397000
11
118.754000
21
112.397000
0
LINE
8
BLACK
10
118.754000
20
112.397000
11
118.620121
21
112.410229
0
LINE
8
BLACK
10
118.746000
20
119.398000
11
118.649956
21
119.387417
0
LINE
8
BLACK
10
118.650000
20
119.388000
11
118.552104
21
119.345667
0
LINE
8
BLACK
10
118.552000
20
119.345000
11
118.468921
21
119.281500
0
LINE
8
BLACK
10
118.469000
20
119.282000
11
118.404971
21
119.199979
0
LINE
8
BLACK
10
118.405000
20
119.200000
11
118.363990
21
119.102104
0
LINE
8
BLACK
10
118.364000
20
119.102000
11
118.352094
21
119.004104
0
LINE
8
BLACK
10
118.352000
20
119.004000
11
118.354117
21
118.996063
0
LINE
8
BLACK
10
118.354000
20
118.996000
11
118.354000
21
112.995000
0
LINE
8
BLACK
10
118.354000
20
112.995000
11
118.351883
21
112.987063
0
LINE
8
BLACK
10
118.352000
20
112.987000
11
118.363906
21
112.891750
0
LINE
8
BLACK
10
118.364000
20
112.892000
11
118.405010
21
112.794104
0
LINE
8
BLACK
10
118.405000
20
112.794000
11
118.469029
21
112.711979
0
LINE
8
BLACK
10
118.469000
20
112.712000
11
118.552079
21
112.648500
0
LINE
8
BLACK
10
118.552000
20
112.649000
11
118.649896
21
112.606667
0
LINE
8
BLACK
10
118.650000
20
112.606000
11
118.746044
21
112.595417
0
LINE
8
BLACK
10
118.746000
20
112.596000
11
118.754000
21
112.596000
0
LINE
8
BLACK
10
118.754000
20
112.596000
11
132.754000
21
112.596000
0
LINE
8
BLACK
10
132.754000
20
112.596000
11
132.762000
21
112.596000
0
LINE
8
BLACK
10
132.762000
20
112.596000
11
132.858044
21
112.606583
0
LINE
8
BLACK
10
132.858000
20
112.606000
11
132.955896
21
112.648333
0
LINE
8
BLACK
10
132.956000
20
112.649000
11
133.039079
21
112.712500
0
LINE
8
BLACK
10
133.039000
20
112.712000
11
133.103029
21
112.794021
0
LINE
8
BLACK
10
133.103000
20
112.794000
11
133.144010
21
112.891896
0
LINE
8
BLACK
10
133.144000
20
112.892000
11
133.155906
21
112.987250
0
LINE
8
BLACK
10
133.156000
20
112.987000
11
133.154148
21
112.994937
0
LINE
8
BLACK
10
133.154000
20
112.995000
11
133.154000
21
118.996000
0
LINE
8
BLACK
10
133.154000
20
118.996000
11
133.155852
21
119.003937
0
LINE
8
BLACK
10
133.156000
20
119.004000
11
133.144094
21
119.101896
0
LINE
8
BLACK
10
133.144000
20
119.102000
11
133.102990
21
119.199896
0
LINE
8
BLACK
10
133.103000
20
119.200000
11
133.038971
21
119.282021
0
LINE
8
BLACK
10
133.039000
20
119.282000
11
132.955921
21
119.345500
0
LINE
8
BLACK
10
132.956000
20
119.345000
11
132.858104
21
119.387333
0
LINE
8
BLACK
10
132.858000
20
119.388000
11
132.761956
21
119.398583
0
LINE
8
BLACK
10
132.762000
20
119.398000
11
132.754063
21
119.395354
0
LINE
8
BLACK
10
132.754000
20
119.395000
11
118.754000
21
119.395000
0
LINE
8
BLACK
10
118.754000
20
119.395000
11
118.746063
21
119.397646
0
LINE
8
BLACK
10
82.519700
20
125.550000
11
82.393758
21
125.592333
0
LINE
8
BLACK
10
82.393700
20
125.592000
11
82.279665
21
125.663437
0
LINE
8
BLACK
10
82.279700
20
125.663000
11
82.184715
21
125.758250
0
LINE
8
BLACK
10
82.184700
20
125.759000
11
82.112733
21
125.872771
0
LINE
8
BLACK
10
82.112700
20
125.872000
11
82.068515
21
125.999000
0
LINE
8
BLACK
10
82.068600
20
125.999000
11
82.053783
21
126.133937
0
LINE
8
BLACK
10
82.053700
20
126.134000
11
82.053700
21
139.133000
0
LINE
8
BLACK
10
82.053700
20
139.133000
11
82.068517
21
139.265292
0
LINE
8
BLACK
10
82.068600
20
139.266000
11
82.112785
21
139.393000
0
LINE
8
BLACK
10
82.112700
20
139.393000
11
82.184667
21
139.506771
0
LINE
8
BLACK
10
82.184700
20
139.506000
11
82.279685
21
139.601250
0
LINE
8
BLACK
10
82.279700
20
139.602000
11
82.393735
21
139.673437
0
LINE
8
BLACK
10
82.393700
20
139.673000
11
82.519642
21
139.717979
0
LINE
8
BLACK
10
82.519700
20
139.718000
11
82.653579
21
139.733875
0
LINE
8
BLACK
10
82.653500
20
139.734000
11
95.653600
21
139.734000
0
LINE
8
BLACK
10
95.653600
20
139.734000
11
95.787744
21
139.718125
0
LINE
8
BLACK
10
95.787700
20
139.718000
11
95.913642
21
139.673021
0
LINE
8
BLACK
10
95.913700
20
139.673000
11
96.027735
21
139.601563
0
LINE
8
BLACK
10
96.027700
20
139.602000
11
96.122685
21
139.506750
0
LINE
8
BLACK
10
96.122700
20
139.506000
11
96.194667
21
139.392229
0
LINE
8
BLACK
10
96.194600
20
139.393000
11
96.238521
21
139.266000
0
LINE
8
BLACK
10
96.238600
20
139.266000
11
96.253681
21
139.133708
0
LINE
8
BLACK
10
96.253600
20
139.133000
11
96.253600
21
126.134000
0
LINE
8
BLACK
10
96.253600
20
126.134000
11
96.238519
21
125.999063
0
LINE
8
BLACK
10
96.238600
20
125.999000
11
96.194679
21
125.872000
0
LINE
8
BLACK
10
96.194600
20
125.872000
11
96.122633
21
125.758229
0
LINE
8
BLACK
10
96.122700
20
125.759000
11
96.027715
21
125.663750
0
LINE
8
BLACK
10
96.027700
20
125.663000
11
95.913665
21
125.591563
0
LINE
8
BLACK
10
95.913700
20
125.592000
11
95.787758
21
125.549667
0
LINE
8
BLACK
10
95.787700
20
125.550000
11
95.653556
21
125.534125
0
LINE
8
BLACK
10
95.653600
20
125.534000
11
82.653500
21
125.534000
0
LINE
8
BLACK
10
82.653500
20
125.534000
11
82.519621
21
125.549875
0
LINE
8
BLACK
10
82.645600
20
139.536000
11
82.549556
21
139.522771
0
LINE
8
BLACK
10
82.549600
20
139.522000
11
82.451704
21
139.482312
0
LINE
8
BLACK
10
82.451700
20
139.483000
11
82.368621
21
139.419500
0
LINE
8
BLACK
10
82.368600
20
139.419000
11
82.304571
21
139.334333
0
LINE
8
BLACK
10
82.304600
20
139.334000
11
82.263590
21
139.236104
0
LINE
8
BLACK
10
82.263600
20
139.237000
11
82.251694
21
139.141750
0
LINE
8
BLACK
10
82.251600
20
139.141000
11
82.253717
21
139.133063
0
LINE
8
BLACK
10
82.253800
20
139.133000
11
82.253800
21
126.134000
0
LINE
8
BLACK
10
82.253800
20
126.134000
11
82.251683
21
126.126063
0
LINE
8
BLACK
10
82.251600
20
126.126000
11
82.263506
21
126.028104
0
LINE
8
BLACK
10
82.263600
20
126.029000
11
82.304610
21
125.931104
0
LINE
8
BLACK
10
82.304600
20
125.931000
11
82.368629
21
125.848979
0
LINE
8
BLACK
10
82.368600
20
125.849000
11
82.451679
21
125.785500
0
LINE
8
BLACK
10
82.451700
20
125.785000
11
82.549596
21
125.742667
0
LINE
8
BLACK
10
82.549600
20
125.743000
11
82.645644
21
125.732417
0
LINE
8
BLACK
10
82.645600
20
125.732000
11
82.653500
21
125.732000
0
LINE
8
BLACK
10
82.653500
20
125.732000
11
95.653600
21
125.732000
0
LINE
8
BLACK
10
95.653600
20
125.732000
11
95.661500
21
125.732000
0
LINE
8
BLACK
10
95.661500
20
125.732000
11
95.757544
21
125.742583
0
LINE
8
BLACK
10
95.757500
20
125.743000
11
95.855660
21
125.785333
0
LINE
8
BLACK
10
95.855700
20
125.785000
11
95.938514
21
125.848500
0
LINE
8
BLACK
10
95.938500
20
125.849000
11
96.002529
21
125.931021
0
LINE
8
BLACK
10
96.002600
20
125.931000
11
96.043610
21
126.028896
0
LINE
8
BLACK
10
96.043600
20
126.029000
11
96.055771
21
126.126896
0
LINE
8
BLACK
10
96.055700
20
126.126000
11
96.053583
21
126.133937
0
LINE
8
BLACK
10
96.053600
20
126.134000
11
96.053600
21
139.133000
0
LINE
8
BLACK
10
96.053600
20
139.133000
11
96.055717
21
139.140937
0
LINE
8
BLACK
10
96.055700
20
139.141000
11
96.043529
21
139.236250
0
LINE
8
BLACK
10
96.043600
20
139.237000
11
96.002590
21
139.334896
0
LINE
8
BLACK
10
96.002600
20
139.334000
11
95.938571
21
139.418667
0
LINE
8
BLACK
10
95.938500
20
139.419000
11
95.855686
21
139.482500
0
LINE
8
BLACK
10
95.855700
20
139.483000
11
95.757540
21
139.522688
0
LINE
8
BLACK
10
95.757500
20
139.522000
11
95.661456
21
139.535229
0
LINE
8
BLACK
10
95.661500
20
139.536000
11
95.653563
21
139.533354
0
LINE
8
BLACK
10
95.653600
20
139.533000
11
82.653500
21
139.533000
0
LINE
8
BLACK
10
82.653500
20
139.533000
11
82.645563
21
139.535646
0
LINE
8
BLACK
10
101.570000
20
125.550000
11
101.444058
21
125.592333
0
LINE
8
BLACK
10
101.444000
20
125.592000
11
101.329965
21
125.663437
0
LINE
8
BLACK
10
101.330000
20
125.663000
11
101.235015
21
125.758250
0
LINE
8
BLACK
10
101.235000
20
125.759000
11
101.163033
21
125.872771
0
LINE
8
BLACK
10
101.163000
20
125.872000
11
101.118815
21
125.999000
0
LINE
8
BLACK
10
101.119000
20
125.999000
11
101.104183
21
126.133937
0
LINE
8
BLACK
10
101.104000
20
126.134000
11
101.104000
21
139.133000
0
LINE
8
BLACK
10
101.104000
20
139.133000
11
101.118817
21
139.265292
0
LINE
8
BLACK
10
101.119000
20
139.266000
11
101.163185
21
139.393000
0
LINE
8
BLACK
10
101.163000
20
139.393000
11
101.234967
21
139.506771
0
LINE
8
BLACK
10
101.235000
20
139.506000
11
101.329985
21
139.601250
0
LINE
8
BLACK
10
101.330000
20
139.602000
11
101.444035
21
139.673437
0
LINE
8
BLACK
10
101.444000
20
139.673000
11
101.569942
21
139.717979
0
LINE
8
BLACK
10
101.570000
20
139.718000
11
101.703879
21
139.733875
0
LINE
8
BLACK
10
101.704000
20
139.734000
11
114.704000
21
139.734000
0
LINE
8
BLACK
10
114.704000
20
139.734000
11
114.838144
21
139.718125
0
LINE
8
BLACK
10
114.838000
20
139.718000
11
114.963942
21
139.673021
0
LINE
8
BLACK
10
114.964000
20
139.673000
11
115.078035
21
139.601563
0
LINE
8
BLACK
10
115.078000
20
139.602000
11
115.172985
21
139.506750
0
LINE
8
BLACK
10
115.173000
20
139.506000
11
115.244967
21
139.392229
0
LINE
8
BLACK
10
115.245000
20
139.393000
11
115.288921
21
139.266000
0
LINE
8
BLACK
10
115.289000
20
139.266000
11
115.304081
21
139.133708
0
LINE
8
BLACK
10
115.304000
20
139.133000
11
115.304000
21
126.134000
0
LINE
8
BLACK
10
115.304000
20
126.134000
11
115.288919
21
125.999063
0
LINE
8
BLACK
10
115.289000
20
125.999000
11
115.245079
21
125.872000
0
LINE
8
BLACK
10
115.245000
20
125.872000
11
115.173033
21
125.758229
0
LINE
8
BLACK
10
115.173000
20
125.759000
11
115.078015
21
125.663750
0
LINE
8
BLACK
10
115.078000
20
125.663000
11
114.963965
21
125.591563
0
LINE
8
BLACK
10
114.964000
20
125.592000
11
114.838058
21
125.549667
0
LINE
8
BLACK
10
114.838000
20
125.550000
11
114.703856
21
125.534125
0
LINE
8
BLACK
10
114.704000
20
125.534000
11
101.704000
21
125.534000
0
LINE
8
BLACK
10
101.704000
20
125.534000
11
101.570121
21
125.549875
0
LINE
8
BLACK
10
101.696000
20
139.536000
11
101.599956
21
139.522771
0
LINE
8
BLACK
10
101.600000
20
139.522000
11
101.502104
21
139.482312
0
LINE
8
BLACK
10
101.502000
20
139.483000
11
101.418921
21
139.419500
0
LINE
8
BLACK
10
101.419000
20
139.419000
11
101.354971
21
139.334333
0
LINE
8
BLACK
10
101.355000
20
139.334000
11
101.313990
21
139.236104
0
LINE
8
BLACK
10
101.314000
20
139.237000
11
101.302094
21
139.141750
0
LINE
8
BLACK
10
101.302000
20
139.141000
11
101.304117
21
139.133063
0
LINE
8
BLACK
10
101.304000
20
139.133000
11
101.304000
21
126.134000
0
LINE
8
BLACK
10
101.304000
20
126.134000
11
101.301883
21
126.126063
0
LINE
8
BLACK
10
101.302000
20
126.126000
11
101.313906
21
126.028104
0
LINE
8
BLACK
10
101.314000
20
126.029000
11
101.355010
21
125.931104
0
LINE
8
BLACK
10
101.355000
20
125.931000
11
101.419029
21
125.848979
0
LINE
8
BLACK
10
101.419000
20
125.849000
11
101.502079
21
125.785500
0
LINE
8
BLACK
10
101.502000
20
125.785000
11
101.599896
21
125.742667
0
LINE
8
BLACK
10
101.600000
20
125.743000
11
101.696044
21
125.732417
0
LINE
8
BLACK
10
101.696000
20
125.732000
11
101.704000
21
125.732000
0
LINE
8
BLACK
10
101.704000
20
125.732000
11
114.704000
21
125.732000
0
LINE
8
BLACK
10
114.704000
20
125.732000
11
114.711000
21
125.732000
0
LINE
8
BLACK
10
114.711000
20
125.732000
11
114.807044
21
125.742583
0
LINE
8
BLACK
10
114.808000
20
125.743000
11
114.906160
21
125.785333
0
LINE
8
BLACK
10
114.906000
20
125.785000
11
114.988815
21
125.848500
0
LINE
8
BLACK
10
114.988000
20
125.849000
11
115.052029
21
125.931021
0
LINE
8
BLACK
10
115.053000
20
125.931000
11
115.094010
21
126.028896
0
LINE
8
BLACK
10
115.094000
20
126.029000
11
115.106171
21
126.126896
0
LINE
8
BLACK
10
115.106000
20
126.126000
11
115.103883
21
126.133937
0
LINE
8
BLACK
10
115.104000
20
126.134000
11
115.104000
21
139.133000
0
LINE
8
BLACK
10
115.104000
20
139.133000
11
115.106117
21
139.140937
0
LINE
8
BLACK
10
115.106000
20
139.141000
11
115.093829
21
139.236250
0
LINE
8
BLACK
10
115.094000
20
139.237000
11
115.052990
21
139.334896
0
LINE
8
BLACK
10
115.053000
20
139.334000
11
114.988971
21
139.418667
0
LINE
8
BLACK
10
114.988000
20
139.419000
11
114.905186
21
139.482500
0
LINE
8
BLACK
10
114.906000
20
139.483000
11
114.807840
21
139.522688
0
LINE
8
BLACK
10
114.808000
20
139.522000
11
114.711956
21
139.535229
0
LINE
8
BLACK
10
114.711000
20
139.536000
11
114.703063
21
139.533354
0
LINE
8
BLACK
10
114.704000
20
139.533000
11
101.704000
21
139.533000
0
LINE
8
BLACK
10
101.704000
20
139.533000
11
101.696063
21
139.535646
0
LINE
8
BLACK
10
139.670000
20
125.550000
11
139.544058
21
125.592333
0
LINE
8
BLACK
10
139.544000
20
125.592000
11
139.429965
21
125.663437
0
LINE
8
BLACK
10
139.430000
20
125.663000
11
139.335015
21
125.758250
0
LINE
8
BLACK
10
139.335000
20
125.759000
11
139.263033
21
125.872771
0
LINE
8
BLACK
10
139.263000
20
125.872000
11
139.218815
21
125.999000
0
LINE
8
BLACK
10
139.218000
20
125.999000
11
139.203183
21
126.133937
0
LINE
8
BLACK
10
139.204000
20
126.134000
11
139.204000
21
139.133000
0
LINE
8
BLACK
10
139.204000
20
139.133000
11
139.218817
21
139.265292
0
LINE
8
BLACK
10
139.218000
20
139.266000
11
139.262185
21
139.393000
0
LINE
8
BLACK
10
139.263000
20
139.393000
11
139.334967
21
139.506771
0
LINE
8
BLACK
10
139.335000
20
139.506000
11
139.429985
21
139.601250
0
LINE
8
BLACK
10
139.430000
20
139.602000
11
139.544035
21
139.673437
0
LINE
8
BLACK
10
139.544000
20
139.673000
11
139.669942
21
139.717979
0
LINE
8
BLACK
10
139.670000
20
139.718000
11
139.803879
21
139.733875
0
LINE
8
BLACK
10
139.803000
20
139.734000
11
152.803000
21
139.734000
0
LINE
8
BLACK
10
152.803000
20
139.734000
11
152.937144
21
139.718125
0
LINE
8
BLACK
10
152.938000
20
139.718000
11
153.063942
21
139.673021
0
LINE
8
BLACK
10
153.064000
20
139.673000
11
153.178035
21
139.601563
0
LINE
8
BLACK
10
153.178000
20
139.602000
11
153.272985
21
139.506750
0
LINE
8
BLACK
10
153.273000
20
139.506000
11
153.344967
21
139.392229
0
LINE
8
BLACK
10
153.345000
20
139.393000
11
153.388921
21
139.266000
0
LINE
8
BLACK
10
153.388000
20
139.266000
11
153.403081
21
139.133708
0
LINE
8
BLACK
10
153.404000
20
139.133000
11
153.404000
21
126.134000
0
LINE
8
BLACK
10
153.404000
20
126.134000
11
153.388919
21
125.999063
0
LINE
8
BLACK
10
153.388000
20
125.999000
11
153.344079
21
125.872000
0
LINE
8
BLACK
10
153.345000
20
125.872000
11
153.273033
21
125.758229
0
LINE
8
BLACK
10
153.273000
20
125.759000
11
153.178015
21
125.663750
0
LINE
8
BLACK
10
153.178000
20
125.663000
11
153.063965
21
125.591563
0
LINE
8
BLACK
10
153.064000
20
125.592000
11
152.938058
21
125.549667
0
LINE
8
BLACK
10
152.938000
20
125.550000
11
152.803856
21
125.534125
0
LINE
8
BLACK
10
152.803000
20
125.534000
11
139.803000
21
125.534000
0
LINE
8
BLACK
10
139.803000
20
125.534000
11
139.669121
21
125.549875
0
LINE
8
BLACK
10
139.796000
20
139.536000
11
139.699956
21
139.522771
0
LINE
8
BLACK
10
139.699000
20
139.522000
11
139.601104
21
139.482312
0
LINE
8
BLACK
10
139.602000
20
139.483000
11
139.518921
21
139.419500
0
LINE
8
BLACK
10
139.519000
20
139.419000
11
139.454971
21
139.334333
0
LINE
8
BLACK
10
139.454000
20
139.334000
11
139.412990
21
139.236104
0
LINE
8
BLACK
10
139.413000
20
139.237000
11
139.401094
21
139.141750
0
LINE
8
BLACK
10
139.402000
20
139.141000
11
139.404117
21
139.133063
0
LINE
8
BLACK
10
139.404000
20
139.133000
11
139.404000
21
126.134000
0
LINE
8
BLACK
10
139.404000
20
126.134000
11
139.401883
21
126.126063
0
LINE
8
BLACK
10
139.402000
20
126.126000
11
139.413906
21
126.028104
0
LINE
8
BLACK
10
139.413000
20
126.029000
11
139.454010
21
125.931104
0
LINE
8
BLACK
10
139.454000
20
125.931000
11
139.518029
21
125.848979
0
LINE
8
BLACK
10
139.519000
20
125.849000
11
139.602079
21
125.785500
0
LINE
8
BLACK
10
139.602000
20
125.785000
11
139.699896
21
125.742667
0
LINE
8
BLACK
10
139.699000
20
125.743000
11
139.795044
21
125.732417
0
LINE
8
BLACK
10
139.796000
20
125.732000
11
139.803000
21
125.732000
0
LINE
8
BLACK
10
139.803000
20
125.732000
11
152.803000
21
125.732000
0
LINE
8
BLACK
10
152.803000
20
125.732000
11
152.811000
21
125.732000
0
LINE
8
BLACK
10
152.811000
20
125.732000
11
152.907044
21
125.742583
0
LINE
8
BLACK
10
152.907000
20
125.743000
11
153.005160
21
125.785333
0
LINE
8
BLACK
10
153.006000
20
125.785000
11
153.088815
21
125.848500
0
LINE
8
BLACK
10
153.088000
20
125.849000
11
153.152029
21
125.931021
0
LINE
8
BLACK
10
153.152000
20
125.931000
11
153.193010
21
126.028896
0
LINE
8
BLACK
10
153.193000
20
126.029000
11
153.205171
21
126.126896
0
LINE
8
BLACK
10
153.206000
20
126.126000
11
153.203883
21
126.133937
0
LINE
8
BLACK
10
153.204000
20
126.134000
11
153.204000
21
139.133000
0
LINE
8
BLACK
10
153.204000
20
139.133000
11
153.206117
21
139.140937
0
LINE
8
BLACK
10
153.206000
20
139.141000
11
153.193829
21
139.236250
0
LINE
8
BLACK
10
153.193000
20
139.237000
11
153.151990
21
139.334896
0
LINE
8
BLACK
10
153.152000
20
139.334000
11
153.087971
21
139.418667
0
LINE
8
BLACK
10
153.088000
20
139.419000
11
153.005185
21
139.482500
0
LINE
8
BLACK
10
153.006000
20
139.483000
11
152.907840
21
139.522688
0
LINE
8
BLACK
10
152.907000
20
139.522000
11
152.810956
21
139.535229
0
LINE
8
BLACK
10
152.811000
20
139.536000
11
152.803063
21
139.533354
0
LINE
8
BLACK
10
152.803000
20
139.533000
11
139.803000
21
139.533000
0
LINE
8
BLACK
10
139.803000
20
139.533000
11
139.795063
21
139.535646
0
LINE
8
BLACK
10
63.469700
20
125.550000
11
63.343758
21
125.592333
0
LINE
8
BLACK
10
63.343700
20
125.592000
11
63.229665
21
125.663437
0
LINE
8
BLACK
10
63.229700
20
125.663000
11
63.134715
21
125.758250
0
LINE
8
BLACK
10
63.134700
20
125.759000
11
63.062733
21
125.872771
0
LINE
8
BLACK
10
63.062800
20
125.872000
11
63.018615
21
125.999000
0
LINE
8
BLACK
10
63.018600
20
125.999000
11
63.003783
21
126.133937
0
LINE
8
BLACK
10
63.003800
20
126.134000
11
63.003800
21
139.133000
0
LINE
8
BLACK
10
63.003800
20
139.133000
11
63.018617
21
139.265292
0
LINE
8
BLACK
10
63.018600
20
139.266000
11
63.062785
21
139.393000
0
LINE
8
BLACK
10
63.062800
20
139.393000
11
63.134767
21
139.506771
0
LINE
8
BLACK
10
63.134700
20
139.506000
11
63.229685
21
139.601250
0
LINE
8
BLACK
10
63.229700
20
139.602000
11
63.343735
21
139.673437
0
LINE
8
BLACK
10
63.343700
20
139.673000
11
63.469642
21
139.717979
0
LINE
8
BLACK
10
63.469700
20
139.718000
11
63.603579
21
139.733875
0
LINE
8
BLACK
10
63.603600
20
139.734000
11
76.603600
21
139.734000
0
LINE
8
BLACK
10
76.603600
20
139.734000
11
76.737744
21
139.718125
0
LINE
8
BLACK
10
76.737700
20
139.718000
11
76.863642
21
139.673021
0
LINE
8
BLACK
10
76.863700
20
139.673000
11
76.977735
21
139.601563
0
LINE
8
BLACK
10
76.977700
20
139.602000
11
77.072685
21
139.506750
0
LINE
8
BLACK
10
77.072700
20
139.506000
11
77.144667
21
139.392229
0
LINE
8
BLACK
10
77.144700
20
139.393000
11
77.188621
21
139.266000
0
LINE
8
BLACK
10
77.188600
20
139.266000
11
77.203681
21
139.133708
0
LINE
8
BLACK
10
77.203700
20
139.133000
11
77.203700
21
126.134000
0
LINE
8
BLACK
10
77.203700
20
126.134000
11
77.188619
21
125.999063
0
LINE
8
BLACK
10
77.188600
20
125.999000
11
77.144679
21
125.872000
0
LINE
8
BLACK
10
77.144700
20
125.872000
11
77.072733
21
125.758229
0
LINE
8
BLACK
10
77.072700
20
125.759000
11
76.977715
21
125.663750
0
LINE
8
BLACK
10
76.977700
20
125.663000
11
76.863665
21
125.591563
0
LINE
8
BLACK
10
76.863700
20
125.592000
11
76.737758
21
125.549667
0
LINE
8
BLACK
10
76.737700
20
125.550000
11
76.603556
21
125.534125
0
LINE
8
BLACK
10
76.603600
20
125.534000
11
63.603600
21
125.534000
0
LINE
8
BLACK
10
63.603600
20
125.534000
11
63.469721
21
125.549875
0
LINE
8
BLACK
10
63.595600
20
139.536000
11
63.499556
21
139.522771
0
LINE
8
BLACK
10
63.499600
20
139.522000
11
63.401704
21
139.482312
0
LINE
8
BLACK
10
63.401700
20
139.483000
11
63.318621
21
139.419500
0
LINE
8
BLACK
10
63.318600
20
139.419000
11
63.254571
21
139.334333
0
LINE
8
BLACK
10
63.254600
20
139.334000
11
63.213590
21
139.236104
0
LINE
8
BLACK
10
63.213600
20
139.237000
11
63.201694
21
139.141750
0
LINE
8
BLACK
10
63.201700
20
139.141000
11
63.203817
21
139.133063
0
LINE
8
BLACK
10
63.203800
20
139.133000
11
63.203800
21
126.134000
0
LINE
8
BLACK
10
63.203800
20
126.134000
11
63.201683
21
126.126063
0
LINE
8
BLACK
10
63.201700
20
126.126000
11
63.213606
21
126.028104
0
LINE
8
BLACK
10
63.213600
20
126.029000
11
63.254610
21
125.931104
0
LINE
8
BLACK
10
63.254600
20
125.931000
11
63.318629
21
125.848979
0
LINE
8
BLACK
10
63.318600
20
125.849000
11
63.401679
21
125.785500
0
LINE
8
BLACK
10
63.401700
20
125.785000
11
63.499596
21
125.742667
0
LINE
8
BLACK
10
63.499600
20
125.743000
11
63.595644
21
125.732417
0
LINE
8
BLACK
10
63.595600
20
125.732000
11
63.603600
21
125.732000
0
LINE
8
BLACK
10
63.603600
20
125.732000
11
76.603600
21
125.732000
0
LINE
8
BLACK
10
76.603600
20
125.732000
11
76.611500
21
125.732000
0
LINE
8
BLACK
10
76.611500
20
125.732000
11
76.707544
21
125.742583
0
LINE
8
BLACK
10
76.707600
20
125.743000
11
76.805760
21
125.785333
0
LINE
8
BLACK
10
76.805700
20
125.785000
11
76.888514
21
125.848500
0
LINE
8
BLACK
10
76.888500
20
125.849000
11
76.952529
21
125.931021
0
LINE
8
BLACK
10
76.952600
20
125.931000
11
76.993610
21
126.028896
0
LINE
8
BLACK
10
76.993600
20
126.029000
11
77.005771
21
126.126896
0
LINE
8
BLACK
10
77.005800
20
126.126000
11
77.003683
21
126.133937
0
LINE
8
BLACK
10
77.003600
20
126.134000
11
77.003600
21
139.133000
0
LINE
8
BLACK
10
77.003600
20
139.133000
11
77.005717
21
139.140937
0
LINE
8
BLACK
10
77.005800
20
139.141000
11
76.993629
21
139.236250
0
LINE
8
BLACK
10
76.993600
20
139.237000
11
76.952590
21
139.334896
0
LINE
8
BLACK
10
76.952600
20
139.334000
11
76.888571
21
139.418667
0
LINE
8
BLACK
10
76.888500
20
139.419000
11
76.805685
21
139.482500
0
LINE
8
BLACK
10
76.805700
20
139.483000
11
76.707540
21
139.522688
0
LINE
8
BLACK
10
76.707600
20
139.522000
11
76.611556
21
139.535229
0
LINE
8
BLACK
10
76.611500
20
139.536000
11
76.603563
21
139.533354
0
LINE
8
BLACK
10
76.603600
20
139.533000
11
63.603600
21
139.533000
0
LINE
8
BLACK
10
63.603600
20
139.533000
11
63.595663
21
139.535646
0
LINE
8
BLACK
10
118.620000
20
126.634000
11
118.494058
21
126.678979
0
LINE
8
BLACK
10
118.494000
20
126.679000
11
118.379965
21
126.750437
0
LINE
8
BLACK
10
118.380000
20
126.751000
11
118.285015
21
126.846250
0
LINE
8
BLACK
10
118.285000
20
126.846000
11
118.213033
21
126.959771
0
LINE
8
BLACK
10
118.213000
20
126.960000
11
118.168815
21
127.087000
0
LINE
8
BLACK
10
118.169000
20
127.087000
11
118.154183
21
127.219292
0
LINE
8
BLACK
10
118.154000
20
127.219000
11
118.154000
21
133.220000
0
LINE
8
BLACK
10
118.154000
20
133.220000
11
118.168817
21
133.354937
0
LINE
8
BLACK
10
118.169000
20
133.355000
11
118.213185
21
133.482000
0
LINE
8
BLACK
10
118.213000
20
133.482000
11
118.284967
21
133.595771
0
LINE
8
BLACK
10
118.285000
20
133.596000
11
118.379985
21
133.688604
0
LINE
8
BLACK
10
118.380000
20
133.688000
11
118.494035
21
133.762083
0
LINE
8
BLACK
10
118.494000
20
133.762000
11
118.619942
21
133.804333
0
LINE
8
BLACK
10
118.620000
20
133.805000
11
118.753879
21
133.820875
0
LINE
8
BLACK
10
118.754000
20
133.821000
11
132.754000
21
133.821000
0
LINE
8
BLACK
10
132.754000
20
133.821000
11
132.887879
21
133.805125
0
LINE
8
BLACK
10
132.888000
20
133.805000
11
133.013942
21
133.762667
0
LINE
8
BLACK
10
133.013000
20
133.762000
11
133.127035
21
133.687917
0
LINE
8
BLACK
10
133.128000
20
133.688000
11
133.222985
21
133.595396
0
LINE
8
BLACK
10
133.223000
20
133.596000
11
133.294967
21
133.482229
0
LINE
8
BLACK
10
133.294000
20
133.482000
11
133.338185
21
133.355000
0
LINE
8
BLACK
10
133.339000
20
133.355000
11
133.353817
21
133.220063
0
LINE
8
BLACK
10
133.353000
20
133.220000
11
133.353000
21
127.219000
0
LINE
8
BLACK
10
133.353000
20
127.219000
11
133.338183
21
127.086708
0
LINE
8
BLACK
10
133.339000
20
127.087000
11
133.294815
21
126.960000
0
LINE
8
BLACK
10
133.294000
20
126.960000
11
133.222033
21
126.846229
0
LINE
8
BLACK
10
133.223000
20
126.846000
11
133.128015
21
126.750750
0
LINE
8
BLACK
10
133.128000
20
126.751000
11
133.013965
21
126.679563
0
LINE
8
BLACK
10
133.013000
20
126.679000
11
132.887058
21
126.634021
0
LINE
8
BLACK
10
132.888000
20
126.634000
11
132.754121
21
126.620771
0
LINE
8
BLACK
10
132.754000
20
126.621000
11
118.754000
21
126.621000
0
LINE
8
BLACK
10
118.754000
20
126.621000
11
118.620121
21
126.634229
0
LINE
8
BLACK
10
118.746000
20
133.622000
11
118.649956
21
133.608771
0
LINE
8
BLACK
10
118.650000
20
133.609000
11
118.552104
21
133.569313
0
LINE
8
BLACK
10
118.552000
20
133.569000
11
118.468921
21
133.505500
0
LINE
8
BLACK
10
118.469000
20
133.506000
11
118.404971
21
133.421333
0
LINE
8
BLACK
10
118.405000
20
133.421000
11
118.363990
21
133.325750
0
LINE
8
BLACK
10
118.364000
20
133.326000
11
118.352094
21
133.228104
0
LINE
8
BLACK
10
118.352000
20
133.228000
11
118.354117
21
133.220063
0
LINE
8
BLACK
10
118.354000
20
133.220000
11
118.354000
21
127.219000
0
LINE
8
BLACK
10
118.354000
20
127.219000
11
118.351883
21
127.211063
0
LINE
8
BLACK
10
118.352000
20
127.211000
11
118.363906
21
127.115750
0
LINE
8
BLACK
10
118.364000
20
127.116000
11
118.405010
21
127.018104
0
LINE
8
BLACK
10
118.405000
20
127.018000
11
118.469029
21
126.935979
0
LINE
8
BLACK
10
118.469000
20
126.936000
11
118.552079
21
126.872500
0
LINE
8
BLACK
10
118.552000
20
126.873000
11
118.649896
21
126.830667
0
LINE
8
BLACK
10
118.650000
20
126.830000
11
118.746044
21
126.819417
0
LINE
8
BLACK
10
118.746000
20
126.820000
11
118.754000
21
126.820000
0
LINE
8
BLACK
10
118.754000
20
126.820000
11
132.754000
21
126.820000
0
LINE
8
BLACK
10
132.754000
20
126.820000
11
132.762000
21
126.820000
0
LINE
8
BLACK
10
132.762000
20
126.820000
11
132.858044
21
126.830583
0
LINE
8
BLACK
10
132.858000
20
126.830000
11
132.955896
21
126.872333
0
LINE
8
BLACK
10
132.956000
20
126.873000
11
133.039079
21
126.936500
0
LINE
8
BLACK
10
133.039000
20
126.936000
11
133.103029
21
127.018021
0
LINE
8
BLACK
10
133.103000
20
127.018000
11
133.144010
21
127.115896
0
LINE
8
BLACK
10
133.144000
20
127.116000
11
133.155906
21
127.211250
0
LINE
8
BLACK
10
133.156000
20
127.211000
11
133.154148
21
127.218937
0
LINE
8
BLACK
10
133.154000
20
127.219000
11
133.154000
21
133.220000
0
LINE
8
BLACK
10
133.154000
20
133.220000
11
133.155852
21
133.227937
0
LINE
8
BLACK
10
133.156000
20
133.228000
11
133.144094
21
133.325896
0
LINE
8
BLACK
10
133.144000
20
133.326000
11
133.102990
21
133.421250
0
LINE
8
BLACK
10
133.103000
20
133.421000
11
133.038971
21
133.505667
0
LINE
8
BLACK
10
133.039000
20
133.506000
11
132.955921
21
133.569500
0
LINE
8
BLACK
10
132.956000
20
133.569000
11
132.858104
21
133.608687
0
LINE
8
BLACK
10
132.858000
20
133.609000
11
132.761956
21
133.622229
0
LINE
8
BLACK
10
132.762000
20
133.622000
11
132.754063
21
133.619354
0
LINE
8
BLACK
10
132.754000
20
133.619000
11
118.754000
21
133.619000
0
LINE
8
BLACK
10
118.754000
20
133.619000
11
118.746063
21
133.621646
0
LINE
8
BLACK
10
120.620000
20
135.075000
11
120.494058
21
135.117333
0
LINE
8
BLACK
10
120.494000
20
135.117000
11
120.379965
21
135.188437
0
LINE
8
BLACK
10
120.380000
20
135.188000
11
120.285015
21
135.283250
0
LINE
8
BLACK
10
120.285000
20
135.284000
11
120.213033
21
135.397771
0
LINE
8
BLACK
10
120.213000
20
135.397000
11
120.168815
21
135.524000
0
LINE
8
BLACK
10
120.169000
20
135.524000
11
120.154183
21
135.658937
0
LINE
8
BLACK
10
120.154000
20
135.659000
11
120.154000
21
148.658000
0
LINE
8
BLACK
10
120.154000
20
148.658000
11
120.168817
21
148.790291
0
LINE
8
BLACK
10
120.169000
20
148.791000
11
120.213185
21
148.918000
0
LINE
8
BLACK
10
120.213000
20
148.918000
11
120.284967
21
149.031771
0
LINE
8
BLACK
10
120.285000
20
149.031000
11
120.379985
21
149.126250
0
LINE
8
BLACK
10
120.380000
20
149.127000
11
120.494035
21
149.198437
0
LINE
8
BLACK
10
120.494000
20
149.198000
11
120.619942
21
149.242979
0
LINE
8
BLACK
10
120.620000
20
149.243000
11
120.753879
21
149.258875
0
LINE
8
BLACK
10
120.753000
20
149.259000
11
133.754000
21
149.259000
0
LINE
8
BLACK
10
133.754000
20
149.259000
11
133.888144
21
149.243125
0
LINE
8
BLACK
10
133.888000
20
149.243000
11
134.013942
21
149.198021
0
LINE
8
BLACK
10
134.014000
20
149.198000
11
134.128035
21
149.126563
0
LINE
8
BLACK
10
134.128000
20
149.127000
11
134.222985
21
149.031750
0
LINE
8
BLACK
10
134.223000
20
149.031000
11
134.294967
21
148.917229
0
LINE
8
BLACK
10
134.295000
20
148.918000
11
134.338921
21
148.791000
0
LINE
8
BLACK
10
134.339000
20
148.791000
11
134.354081
21
148.658709
0
LINE
8
BLACK
10
134.354000
20
148.658000
11
134.354000
21
135.659000
0
LINE
8
BLACK
10
134.354000
20
135.659000
11
134.338919
21
135.524063
0
LINE
8
BLACK
10
134.339000
20
135.524000
11
134.295079
21
135.397000
0
LINE
8
BLACK
10
134.295000
20
135.397000
11
134.223033
21
135.283229
0
LINE
8
BLACK
10
134.223000
20
135.284000
11
134.128015
21
135.188750
0
LINE
8
BLACK
10
134.128000
20
135.188000
11
134.013965
21
135.116563
0
LINE
8
BLACK
10
134.014000
20
135.117000
11
133.888058
21
135.074667
0
LINE
8
BLACK
10
133.888000
20
135.075000
11
133.753856
21
135.059125
0
LINE
8
BLACK
10
133.754000
20
135.059000
11
120.753000
21
135.059000
0
LINE
8
BLACK
10
120.753000
20
135.059000
11
120.619121
21
135.074875
0
LINE
8
BLACK
10
120.746000
20
149.061000
11
120.649956
21
149.047771
0
LINE
8
BLACK
10
120.650000
20
149.047000
11
120.552104
21
149.007312
0
LINE
8
BLACK
10
120.552000
20
149.008000
11
120.468921
21
148.944500
0
LINE
8
BLACK
10
120.469000
20
148.944000
11
120.404971
21
148.859333
0
LINE
8
BLACK
10
120.405000
20
148.859000
11
120.363990
21
148.761104
0
LINE
8
BLACK
10
120.364000
20
148.762000
11
120.352094
21
148.666750
0
LINE
8
BLACK
10
120.352000
20
148.666000
11
120.354117
21
148.658063
0
LINE
8
BLACK
10
120.354000
20
148.658000
11
120.354000
21
135.659000
0
LINE
8
BLACK
10
120.354000
20
135.659000
11
120.351883
21
135.651063
0
LINE
8
BLACK
10
120.352000
20
135.651000
11
120.363906
21
135.553104
0
LINE
8
BLACK
10
120.364000
20
135.554000
11
120.405010
21
135.456104
0
LINE
8
BLACK
10
120.405000
20
135.456000
11
120.469029
21
135.373979
0
LINE
8
BLACK
10
120.469000
20
135.374000
11
120.552079
21
135.310500
0
LINE
8
BLACK
10
120.552000
20
135.310000
11
120.649896
21
135.267667
0
LINE
8
BLACK
10
120.650000
20
135.268000
11
120.746044
21
135.257417
0
LINE
8
BLACK
10
120.746000
20
135.257000
11
120.753000
21
135.257000
0
LINE
8
BLACK
10
120.753000
20
135.257000
11
133.754000
21
135.257000
0
LINE
8
BLACK
10
133.754000
20
135.257000
11
133.761000
21
135.257000
0
LINE
8
BLACK
10
133.761000
20
135.257000
11
133.857044
21
135.267583
0
LINE
8
BLACK
10
133.858000
20
135.268000
11
133.956160
21
135.310333
0
LINE
8
BLACK
10
133.956000
20
135.310000
11
134.038815
21
135.373500
0
LINE
8
BLACK
10
134.038000
20
135.374000
11
134.102029
21
135.456021
0
LINE
8
BLACK
10
134.103000
20
135.456000
11
134.144010
21
135.553896
0
LINE
8
BLACK
10
134.144000
20
135.554000
11
134.156171
21
135.651896
0
LINE
8
BLACK
10
134.156000
20
135.651000
11
134.153883
21
135.658937
0
LINE
8
BLACK
10
134.154000
20
135.659000
11
134.154000
21
148.658000
0
LINE
8
BLACK
10
134.154000
20
148.658000
11
134.156117
21
148.665937
0
LINE
8
BLACK
10
134.156000
20
148.666000
11
134.143829
21
148.761250
0
LINE
8
BLACK
10
134.144000
20
148.762000
11
134.102990
21
148.859896
0
LINE
8
BLACK
10
134.103000
20
148.859000
11
134.038971
21
148.943667
0
LINE
8
BLACK
10
134.038000
20
148.944000
11
133.955185
21
149.007500
0
LINE
8
BLACK
10
133.956000
20
149.008000
11
133.857840
21
149.047688
0
LINE
8
BLACK
10
133.858000
20
149.047000
11
133.761956
21
149.060229
0
LINE
8
BLACK
10
133.761000
20
149.061000
11
133.753063
21
149.058354
0
LINE
8
BLACK
10
133.754000
20
149.058000
11
120.753000
21
149.058000
0
LINE
8
BLACK
10
120.753000
20
149.058000
11
120.745063
21
149.060646
0
LINE
8
BLACK
10
101.570000
20
144.600000
11
101.444058
21
144.642333
0
LINE
8
BLACK
10
101.444000
20
144.642000
11
101.329965
21
144.713437
0
LINE
8
BLACK
10
101.330000
20
144.713000
11
101.235015
21
144.808250
0
LINE
8
BLACK
10
101.235000
20
144.809000
11
101.163033
21
144.922771
0
LINE
8
BLACK
10
101.163000
20
144.922000
11
101.118815
21
145.049000
0
LINE
8
BLACK
10
101.119000
20
145.049000
11
101.104183
21
145.183937
0
LINE
8
BLACK
10
101.104000
20
145.184000
11
101.104000
21
158.183000
0
LINE
8
BLACK
10
101.104000
20
158.183000
11
101.118817
21
158.315292
0
LINE
8
BLACK
10
101.119000
20
158.316000
11
101.163185
21
158.443000
0
LINE
8
BLACK
10
101.163000
20
158.443000
11
101.234967
21
158.556771
0
LINE
8
BLACK
10
101.235000
20
158.556000
11
101.329985
21
158.651250
0
LINE
8
BLACK
10
101.330000
20
158.652000
11
101.444035
21
158.723437
0
LINE
8
BLACK
10
101.444000
20
158.723000
11
101.569942
21
158.767979
0
LINE
8
BLACK
10
101.570000
20
158.768000
11
101.703879
21
158.783875
0
LINE
8
BLACK
10
101.704000
20
158.784000
11
114.704000
21
158.784000
0
LINE
8
BLACK
10
114.704000
20
158.784000
11
114.838144
21
158.768125
0
LINE
8
BLACK
10
114.838000
20
158.768000
11
114.963942
21
158.723021
0
LINE
8
BLACK
10
114.964000
20
158.723000
11
115.078035
21
158.651563
0
LINE
8
BLACK
10
115.078000
20
158.652000
11
115.172985
21
158.556750
0
LINE
8
BLACK
10
115.173000
20
158.556000
11
115.244967
21
158.442229
0
LINE
8
BLACK
10
115.245000
20
158.443000
11
115.288921
21
158.316000
0
LINE
8
BLACK
10
115.289000
20
158.316000
11
115.304081
21
158.183708
0
LINE
8
BLACK
10
115.304000
20
158.183000
11
115.304000
21
145.184000
0
LINE
8
BLACK
10
115.304000
20
145.184000
11
115.288919
21
145.049063
0
LINE
8
BLACK
10
115.289000
20
145.049000
11
115.245079
21
144.922000
0
LINE
8
BLACK
10
115.245000
20
144.922000
11
115.173033
21
144.808229
0
LINE
8
BLACK
10
115.173000
20
144.809000
11
115.078015
21
144.713750
0
LINE
8
BLACK
10
115.078000
20
144.713000
11
114.963965
21
144.641563
0
LINE
8
BLACK
10
114.964000
20
144.642000
11
114.838058
21
144.599667
0
LINE
8
BLACK
10
114.838000
20
144.600000
11
114.703856
21
144.584125
0
LINE
8
BLACK
10
114.704000
20
144.584000
11
101.704000
21
144.584000
0
LINE
8
BLACK
10
101.704000
20
144.584000
11
101.570121
21
144.599875
0
LINE
8
BLACK
10
101.696000
20
158.586000
11
101.599956
21
158.572771
0
LINE
8
BLACK
10
101.600000
20
158.572000
11
101.502104
21
158.532313
0
LINE
8
BLACK
10
101.502000
20
158.533000
11
101.418921
21
158.469500
0
LINE
8
BLACK
10
101.419000
20
158.469000
11
101.354971
21
158.384333
0
LINE
8
BLACK
10
101.355000
20
158.384000
11
101.313990
21
158.286104
0
LINE
8
BLACK
10
101.314000
20
158.287000
11
101.302094
21
158.191750
0
LINE
8
BLACK
10
101.302000
20
158.191000
11
101.304117
21
158.183063
0
LINE
8
BLACK
10
101.304000
20
158.183000
11
101.304000
21
145.184000
0
LINE
8
BLACK
10
101.304000
20
145.184000
11
101.301883
21
145.176063
0
LINE
8
BLACK
10
101.302000
20
145.176000
11
101.313906
21
145.078104
0
LINE
8
BLACK
10
101.314000
20
145.079000
11
101.355010
21
144.981104
0
LINE
8
BLACK
10
101.355000
20
144.981000
11
101.419029
21
144.898979
0
LINE
8
BLACK
10
101.419000
20
144.899000
11
101.502079
21
144.835500
0
LINE
8
BLACK
10
101.502000
20
144.835000
11
101.599896
21
144.792667
0
LINE
8
BLACK
10
101.600000
20
144.793000
11
101.696044
21
144.782417
0
LINE
8
BLACK
10
101.696000
20
144.782000
11
101.704000
21
144.782000
0
LINE
8
BLACK
10
101.704000
20
144.782000
11
114.704000
21
144.782000
0
LINE
8
BLACK
10
114.704000
20
144.782000
11
114.711000
21
144.782000
0
LINE
8
BLACK
10
114.711000
20
144.782000
11
114.807044
21
144.792583
0
LINE
8
BLACK
10
114.808000
20
144.793000
11
114.906160
21
144.835333
0
LINE
8
BLACK
10
114.906000
20
144.835000
11
114.988815
21
144.898500
0
LINE
8
BLACK
10
114.988000
20
144.899000
11
115.052029
21
144.981021
0
LINE
8
BLACK
10
115.053000
20
144.981000
11
115.094010
21
145.078896
0
LINE
8
BLACK
10
115.094000
20
145.079000
11
115.106171
21
145.176896
0
LINE
8
BLACK
10
115.106000
20
145.176000
11
115.103883
21
145.183937
0
LINE
8
BLACK
10
115.104000
20
145.184000
11
115.104000
21
158.183000
0
LINE
8
BLACK
10
115.104000
20
158.183000
11
115.106117
21
158.190937
0
LINE
8
BLACK
10
115.106000
20
158.191000
11
115.093829
21
158.286250
0
LINE
8
BLACK
10
115.094000
20
158.287000
11
115.052990
21
158.384896
0
LINE
8
BLACK
10
115.053000
20
158.384000
11
114.988971
21
158.468667
0
LINE
8
BLACK
10
114.988000
20
158.469000
11
114.905186
21
158.532500
0
LINE
8
BLACK
10
114.906000
20
158.533000
11
114.807840
21
158.572687
0
LINE
8
BLACK
10
114.808000
20
158.572000
11
114.711956
21
158.585229
0
LINE
8
BLACK
10
114.711000
20
158.586000
11
114.703063
21
158.583354
0
LINE
8
BLACK
10
114.704000
20
158.583000
11
101.704000
21
158.583000
0
LINE
8
BLACK
10
101.704000
20
158.583000
11
101.696063
21
158.585646
0
LINE
8
BLACK
10
82.519700
20
144.600000
11
82.393758
21
144.642333
0
LINE
8
BLACK
10
82.393700
20
144.642000
11
82.279665
21
144.713437
0
LINE
8
BLACK
10
82.279700
20
144.713000
11
82.184715
21
144.808250
0
LINE
8
BLACK
10
82.184700
20
144.809000
11
82.112733
21
144.922771
0
LINE
8
BLACK
10
82.112700
20
144.922000
11
82.068515
21
145.049000
0
LINE
8
BLACK
10
82.068600
20
145.049000
11
82.053783
21
145.183937
0
LINE
8
BLACK
10
82.053700
20
145.184000
11
82.053700
21
158.183000
0
LINE
8
BLACK
10
82.053700
20
158.183000
11
82.068517
21
158.315292
0
LINE
8
BLACK
10
82.068600
20
158.316000
11
82.112785
21
158.443000
0
LINE
8
BLACK
10
82.112700
20
158.443000
11
82.184667
21
158.556771
0
LINE
8
BLACK
10
82.184700
20
158.556000
11
82.279685
21
158.651250
0
LINE
8
BLACK
10
82.279700
20
158.652000
11
82.393735
21
158.723437
0
LINE
8
BLACK
10
82.393700
20
158.723000
11
82.519642
21
158.767979
0
LINE
8
BLACK
10
82.519700
20
158.768000
11
82.653579
21
158.783875
0
LINE
8
BLACK
10
82.653500
20
158.784000
11
95.653600
21
158.784000
0
LINE
8
BLACK
10
95.653600
20
158.784000
11
95.787744
21
158.768125
0
LINE
8
BLACK
10
95.787700
20
158.768000
11
95.913642
21
158.723021
0
LINE
8
BLACK
10
95.913700
20
158.723000
11
96.027735
21
158.651563
0
LINE
8
BLACK
10
96.027700
20
158.652000
11
96.122685
21
158.556750
0
LINE
8
BLACK
10
96.122700
20
158.556000
11
96.194667
21
158.442229
0
LINE
8
BLACK
10
96.194600
20
158.443000
11
96.238521
21
158.316000
0
LINE
8
BLACK
10
96.238600
20
158.316000
11
96.253681
21
158.183708
0
LINE
8
BLACK
10
96.253600
20
158.183000
11
96.253600
21
145.184000
0
LINE
8
BLACK
10
96.253600
20
145.184000
11
96.238519
21
145.049063
0
LINE
8
BLACK
10
96.238600
20
145.049000
11
96.194679
21
144.922000
0
LINE
8
BLACK
10
96.194600
20
144.922000
11
96.122633
21
144.808229
0
LINE
8
BLACK
10
96.122700
20
144.809000
11
96.027715
21
144.713750
0
LINE
8
BLACK
10
96.027700
20
144.713000
11
95.913665
21
144.641563
0
LINE
8
BLACK
10
95.913700
20
144.642000
11
95.787758
21
144.599667
0
LINE
8
BLACK
10
95.787700
20
144.600000
11
95.653556
21
144.584125
0
LINE
8
BLACK
10
95.653600
20
144.584000
11
82.653500
21
144.584000
0
LINE
8
BLACK
10
82.653500
20
144.584000
11
82.519621
21
144.599875
0
LINE
8
BLACK
10
82.645600
20
158.586000
11
82.549556
21
158.572771
0
LINE
8
BLACK
10
82.549600
20
158.572000
11
82.451704
21
158.532313
0
LINE
8
BLACK
10
82.451700
20
158.533000
11
82.368621
21
158.469500
0
LINE
8
BLACK
10
82.368600
20
158.469000
11
82.304571
21
158.384333
0
LINE
8
BLACK
10
82.304600
20
158.384000
11
82.263590
21
158.286104
0
LINE
8
BLACK
10
82.263600
20
158.287000
11
82.251694
21
158.191750
0
LINE
8
BLACK
10
82.251600
20
158.191000
11
82.253717
21
158.183063
0
LINE
8
BLACK
10
82.253800
20
158.183000
11
82.253800
21
145.184000
0
LINE
8
BLACK
10
82.253800
20
145.184000
11
82.251683
21
145.176063
0
LINE
8
BLACK
10
82.251600
20
145.176000
11
82.263506
21
145.078104
0
LINE
8
BLACK
10
82.263600
20
145.079000
11
82.304610
21
144.981104
0
LINE
8
BLACK
10
82.304600
20
144.981000
11
82.368629
21
144.898979
0
LINE
8
BLACK
10
82.368600
20
144.899000
11
82.451679
21
144.835500
0
LINE
8
BLACK
10
82.451700
20
144.835000
11
82.549596
21
144.792667
0
LINE
8
BLACK
10
82.549600
20
144.793000
11
82.645644
21
144.782417
0
LINE
8
BLACK
10
82.645600
20
144.782000
11
82.653500
21
144.782000
0
LINE
8
BLACK
10
82.653500
20
144.782000
11
95.653600
21
144.782000
0
LINE
8
BLACK
10
95.653600
20
144.782000
11
95.661500
21
144.782000
0
LINE
8
BLACK
10
95.661500
20
144.782000
11
95.757544
21
144.792583
0
LINE
8
BLACK
10
95.757500
20
144.793000
11
95.855660
21
144.835333
0
LINE
8
BLACK
10
95.855700
20
144.835000
11
95.938514
21
144.898500
0
LINE
8
BLACK
10
95.938500
20
144.899000
11
96.002529
21
144.981021
0
LINE
8
BLACK
10
96.002600
20
144.981000
11
96.043610
21
145.078896
0
LINE
8
BLACK
10
96.043600
20
145.079000
11
96.055771
21
145.176896
0
LINE
8
BLACK
10
96.055700
20
145.176000
11
96.053583
21
145.183937
0
LINE
8
BLACK
10
96.053600
20
145.184000
11
96.053600
21
158.183000
0
LINE
8
BLACK
10
96.053600
20
158.183000
11
96.055717
21
158.190937
0
LINE
8
BLACK
10
96.055700
20
158.191000
11
96.043529
21
158.286250
0
LINE
8
BLACK
10
96.043600
20
158.287000
11
96.002590
21
158.384896
0
LINE
8
BLACK
10
96.002600
20
158.384000
11
95.938571
21
158.468667
0
LINE
8
BLACK
10
95.938500
20
158.469000
11
95.855686
21
158.532500
0
LINE
8
BLACK
10
95.855700
20
158.533000
11
95.757540
21
158.572687
0
LINE
8
BLACK
10
95.757500
20
158.572000
11
95.661456
21
158.585229
0
LINE
8
BLACK
10
95.661500
20
158.586000
11
95.653563
21
158.583354
0
LINE
8
BLACK
10
95.653600
20
158.583000
11
82.653500
21
158.583000
0
LINE
8
BLACK
10
82.653500
20
158.583000
11
82.645563
21
158.585646
0
LINE
8
BLACK
10
63.469700
20
144.600000
11
63.343758
21
144.642333
0
LINE
8
BLACK
10
63.343700
20
144.642000
11
63.229665
21
144.713437
0
LINE
8
BLACK
10
63.229700
20
144.713000
11
63.134715
21
144.808250
0
LINE
8
BLACK
10
63.134700
20
144.809000
11
63.062733
21
144.922771
0
LINE
8
BLACK
10
63.062800
20
144.922000
11
63.018615
21
145.049000
0
LINE
8
BLACK
10
63.018600
20
145.049000
11
63.003783
21
145.183937
0
LINE
8
BLACK
10
63.003800
20
145.184000
11
63.003800
21
158.183000
0
LINE
8
BLACK
10
63.003800
20
158.183000
11
63.018617
21
158.315292
0
LINE
8
BLACK
10
63.018600
20
158.316000
11
63.062785
21
158.443000
0
LINE
8
BLACK
10
63.062800
20
158.443000
11
63.134767
21
158.556771
0
LINE
8
BLACK
10
63.134700
20
158.556000
11
63.229685
21
158.651250
0
LINE
8
BLACK
10
63.229700
20
158.652000
11
63.343735
21
158.723437
0
LINE
8
BLACK
10
63.343700
20
158.723000
11
63.469642
21
158.767979
0
LINE
8
BLACK
10
63.469700
20
158.768000
11
63.603579
21
158.783875
0
LINE
8
BLACK
10
63.603600
20
158.784000
11
76.603600
21
158.784000
0
LINE
8
BLACK
10
76.603600
20
158.784000
11
76.737744
21
158.768125
0
LINE
8
BLACK
10
76.737700
20
158.768000
11
76.863642
21
158.723021
0
LINE
8
BLACK
10
76.863700
20
158.723000
11
76.977735
21
158.651563
0
LINE
8
BLACK
10
76.977700
20
158.652000
11
77.072685
21
158.556750
0
LINE
8
BLACK
10
77.072700
20
158.556000
11
77.144667
21
158.442229
0
LINE
8
BLACK
10
77.144700
20
158.443000
11
77.188621
21
158.316000
0
LINE
8
BLACK
10
77.188600
20
158.316000
11
77.203681
21
158.183708
0
LINE
8
BLACK
10
77.203700
20
158.183000
11
77.203700
21
145.184000
0
LINE
8
BLACK
10
77.203700
20
145.184000
11
77.188619
21
145.049063
0
LINE
8
BLACK
10
77.188600
20
145.049000
11
77.144679
21
144.922000
0
LINE
8
BLACK
10
77.144700
20
144.922000
11
77.072733
21
144.808229
0
LINE
8
BLACK
10
77.072700
20
144.809000
11
76.977715
21
144.713750
0
LINE
8
BLACK
10
76.977700
20
144.713000
11
76.863665
21
144.641563
0
LINE
8
BLACK
10
76.863700
20
144.642000
11
76.737758
21
144.599667
0
LINE
8
BLACK
10
76.737700
20
144.600000
11
76.603556
21
144.584125
0
LINE
8
BLACK
10
76.603600
20
144.584000
11
63.603600
21
144.584000
0
LINE
8
BLACK
10
63.603600
20
144.584000
11
63.469721
21
144.599875
0
LINE
8
BLACK
10
63.595600
20
158.586000
11
63.499556
21
158.572771
0
LINE
8
BLACK
10
63.499600
20
158.572000
11
63.401704
21
158.532313
0
LINE
8
BLACK
10
63.401700
20
158.533000
11
63.318621
21
158.469500
0
LINE
8
BLACK
10
63.318600
20
158.469000
11
63.254571
21
158.384333
0
LINE
8
BLACK
10
63.254600
20
158.384000
11
63.213590
21
158.286104
0
LINE
8
BLACK
10
63.213600
20
158.287000
11
63.201694
21
158.191750
0
LINE
8
BLACK
10
63.201700
20
158.191000
11
63.203817
21
158.183063
0
LINE
8
BLACK
10
63.203800
20
158.183000
11
63.203800
21
145.184000
0
LINE
8
BLACK
10
63.203800
20
145.184000
11
63.201683
21
145.176063
0
LINE
8
BLACK
10
63.201700
20
145.176000
11
63.213606
21
145.078104
0
LINE
8
BLACK
10
63.213600
20
145.079000
11
63.254610
21
144.981104
0
LINE
8
BLACK
10
63.254600
20
144.981000
11
63.318629
21
144.898979
0
LINE
8
BLACK
10
63.318600
20
144.899000
11
63.401679
21
144.835500
0
LINE
8
BLACK
10
63.401700
20
144.835000
11
63.499596
21
144.792667
0
LINE
8
BLACK
10
63.499600
20
144.793000
11
63.595644
21
144.782417
0
LINE
8
BLACK
10
63.595600
20
144.782000
11
63.603600
21
144.782000
0
LINE
8
BLACK
10
63.603600
20
144.782000
11
76.603600
21
144.782000
0
LINE
8
BLACK
10
76.603600
20
144.782000
11
76.611500
21
144.782000
0
LINE
8
BLACK
10
76.611500
20
144.782000
11
76.707544
21
144.792583
0
LINE
8
BLACK
10
76.707600
20
144.793000
11
76.805760
21
144.835333
0
LINE
8
BLACK
10
76.805700
20
144.835000
11
76.888514
21
144.898500
0
LINE
8
BLACK
10
76.888500
20
144.899000
11
76.952529
21
144.981021
0
LINE
8
BLACK
10
76.952600
20
144.981000
11
76.993610
21
145.078896
0
LINE
8
BLACK
10
76.993600
20
145.079000
11
77.005771
21
145.176896
0
LINE
8
BLACK
10
77.005800
20
145.176000
11
77.003683
21
145.183937
0
LINE
8
BLACK
10
77.003600
20
145.184000
11
77.003600
21
158.183000
0
LINE
8
BLACK
10
77.003600
20
158.183000
11
77.005717
21
158.190937
0
LINE
8
BLACK
10
77.005800
20
158.191000
11
76.993629
21
158.286250
0
LINE
8
BLACK
10
76.993600
20
158.287000
11
76.952590
21
158.384896
0
LINE
8
BLACK
10
76.952600
20
158.384000
11
76.888571
21
158.468667
0
LINE
8
BLACK
10
76.888500
20
158.469000
11
76.805685
21
158.532500
0
LINE
8
BLACK
10
76.805700
20
158.533000
11
76.707540
21
158.572687
0
LINE
8
BLACK
10
76.707600
20
158.572000
11
76.611556
21
158.585229
0
LINE
8
BLACK
10
76.611500
20
158.586000
11
76.603563
21
158.583354
0
LINE
8
BLACK
10
76.603600
20
158.583000
11
63.603600
21
158.583000
0
LINE
8
BLACK
10
63.603600
20
158.583000
11
63.595663
21
158.585646
0
LINE
8
BLACK
10
139.670000
20
144.600000
11
139.544058
21
144.642333
0
LINE
8
BLACK
10
139.544000
20
144.642000
11
139.429965
21
144.713437
0
LINE
8
BLACK
10
139.430000
20
144.713000
11
139.335015
21
144.808250
0
LINE
8
BLACK
10
139.335000
20
144.809000
11
139.263033
21
144.922771
0
LINE
8
BLACK
10
139.263000
20
144.922000
11
139.218815
21
145.049000
0
LINE
8
BLACK
10
139.218000
20
145.049000
11
139.203183
21
145.183937
0
LINE
8
BLACK
10
139.204000
20
145.184000
11
139.204000
21
158.183000
0
LINE
8
BLACK
10
139.204000
20
158.183000
11
139.218817
21
158.315292
0
LINE
8
BLACK
10
139.218000
20
158.316000
11
139.262185
21
158.443000
0
LINE
8
BLACK
10
139.263000
20
158.443000
11
139.334967
21
158.556771
0
LINE
8
BLACK
10
139.335000
20
158.556000
11
139.429985
21
158.651250
0
LINE
8
BLACK
10
139.430000
20
158.652000
11
139.544035
21
158.723437
0
LINE
8
BLACK
10
139.544000
20
158.723000
11
139.669942
21
158.767979
0
LINE
8
BLACK
10
139.670000
20
158.768000
11
139.803879
21
158.783875
0
LINE
8
BLACK
10
139.803000
20
158.784000
11
152.803000
21
158.784000
0
LINE
8
BLACK
10
152.803000
20
158.784000
11
152.937144
21
158.768125
0
LINE
8
BLACK
10
152.938000
20
158.768000
11
153.063942
21
158.723021
0
LINE
8
BLACK
10
153.064000
20
158.723000
11
153.178035
21
158.651563
0
LINE
8
BLACK
10
153.178000
20
158.652000
11
153.272985
21
158.556750
0
LINE
8
BLACK
10
153.273000
20
158.556000
11
153.344967
21
158.442229
0
LINE
8
BLACK
10
153.345000
20
158.443000
11
153.388921
21
158.316000
0
LINE
8
BLACK
10
153.388000
20
158.316000
11
153.403081
21
158.183708
0
LINE
8
BLACK
10
153.404000
20
158.183000
11
153.404000
21
145.184000
0
LINE
8
BLACK
10
153.404000
20
145.184000
11
153.388919
21
145.049063
0
LINE
8
BLACK
10
153.388000
20
145.049000
11
153.344079
21
144.922000
0
LINE
8
BLACK
10
153.345000
20
144.922000
11
153.273033
21
144.808229
0
LINE
8
BLACK
10
153.273000
20
144.809000
11
153.178015
21
144.713750
0
LINE
8
BLACK
10
153.178000
20
144.713000
11
153.063965
21
144.641563
0
LINE
8
BLACK
10
153.064000
20
144.642000
11
152.938058
21
144.599667
0
LINE
8
BLACK
10
152.938000
20
144.600000
11
152.803856
21
144.584125
0
LINE
8
BLACK
10
152.803000
20
144.584000
11
139.803000
21
144.584000
0
LINE
8
BLACK
10
139.803000
20
144.584000
11
139.669121
21
144.599875
0
LINE
8
BLACK
10
139.796000
20
158.586000
11
139.699956
21
158.572771
0
LINE
8
BLACK
10
139.699000
20
158.572000
11
139.601104
21
158.532313
0
LINE
8
BLACK
10
139.602000
20
158.533000
11
139.518921
21
158.469500
0
LINE
8
BLACK
10
139.519000
20
158.469000
11
139.454971
21
158.384333
0
LINE
8
BLACK
10
139.454000
20
158.384000
11
139.412990
21
158.286104
0
LINE
8
BLACK
10
139.413000
20
158.287000
11
139.401094
21
158.191750
0
LINE
8
BLACK
10
139.402000
20
158.191000
11
139.404117
21
158.183063
0
LINE
8
BLACK
10
139.404000
20
158.183000
11
139.404000
21
145.184000
0
LINE
8
BLACK
10
139.404000
20
145.184000
11
139.401883
21
145.176063
0
LINE
8
BLACK
10
139.402000
20
145.176000
11
139.413906
21
145.078104
0
LINE
8
BLACK
10
139.413000
20
145.079000
11
139.454010
21
144.981104
0
LINE
8
BLACK
10
139.454000
20
144.981000
11
139.518029
21
144.898979
0
LINE
8
BLACK
10
139.519000
20
144.899000
11
139.602079
21
144.835500
0
LINE
8
BLACK
10
139.602000
20
144.835000
11
139.699896
21
144.792667
0
LINE
8
BLACK
10
139.699000
20
144.793000
11
139.795044
21
144.782417
0
LINE
8
BLACK
10
139.796000
20
144.782000
11
139.803000
21
144.782000
0
LINE
8
BLACK
10
139.803000
20
144.782000
11
152.803000
21
144.782000
0
LINE
8
BLACK
10
152.803000
20
144.782000
11
152.811000
21
144.782000
0
LINE
8
BLACK
10
152.811000
20
144.782000
11
152.907044
21
144.792583
0
LINE
8
BLACK
10
152.907000
20
144.793000
11
153.005160
21
144.835333
0
LINE
8
BLACK
10
153.006000
20
144.835000
11
153.088815
21
144.898500
0
LINE
8
BLACK
10
153.088000
20
144.899000
11
153.152029
21
144.981021
0
LINE
8
BLACK
10
153.152000
20
144.981000
11
153.193010
21
145.078896
0
LINE
8
BLACK
10
153.193000
20
145.079000
11
153.205171
21
145.176896
0
LINE
8
BLACK
10
153.206000
20
145.176000
11
153.203883
21
145.183937
0
LINE
8
BLACK
10
153.204000
20
145.184000
11
153.204000
21
158.183000
0
LINE
8
BLACK
10
153.204000
20
158.183000
11
153.206117
21
158.190937
0
LINE
8
BLACK
10
153.206000
20
158.191000
11
153.193829
21
158.286250
0
LINE
8
BLACK
10
153.193000
20
158.287000
11
153.151990
21
158.384896
0
LINE
8
BLACK
10
153.152000
20
158.384000
11
153.087971
21
158.468667
0
LINE
8
BLACK
10
153.088000
20
158.469000
11
153.005185
21
158.532500
0
LINE
8
BLACK
10
153.006000
20
158.533000
11
152.907840
21
158.572687
0
LINE
8
BLACK
10
152.907000
20
158.572000
11
152.810956
21
158.585229
0
LINE
8
BLACK
10
152.811000
20
158.586000
11
152.803063
21
158.583354
0
LINE
8
BLACK
10
152.803000
20
158.583000
11
139.803000
21
158.583000
0
LINE
8
BLACK
10
139.803000
20
158.583000
11
139.795063
21
158.585646
0
LINE
8
BLACK
10
118.620000
20
150.510000
11
118.494058
21
150.554979
0
LINE
8
BLACK
10
118.494000
20
150.555000
11
118.379965
21
150.626437
0
LINE
8
BLACK
10
118.380000
20
150.627000
11
118.285015
21
150.722250
0
LINE
8
BLACK
10
118.285000
20
150.722000
11
118.213033
21
150.835771
0
LINE
8
BLACK
10
118.213000
20
150.836000
11
118.168815
21
150.963000
0
LINE
8
BLACK
10
118.169000
20
150.963000
11
118.154183
21
151.095292
0
LINE
8
BLACK
10
118.154000
20
151.095000
11
118.154000
21
157.096000
0
LINE
8
BLACK
10
118.154000
20
157.096000
11
118.168817
21
157.230937
0
LINE
8
BLACK
10
118.169000
20
157.231000
11
118.213185
21
157.358000
0
LINE
8
BLACK
10
118.213000
20
157.358000
11
118.284967
21
157.471771
0
LINE
8
BLACK
10
118.285000
20
157.472000
11
118.379985
21
157.564604
0
LINE
8
BLACK
10
118.380000
20
157.564000
11
118.494035
21
157.638083
0
LINE
8
BLACK
10
118.494000
20
157.638000
11
118.619942
21
157.680333
0
LINE
8
BLACK
10
118.620000
20
157.681000
11
118.753879
21
157.696875
0
LINE
8
BLACK
10
118.754000
20
157.697000
11
132.754000
21
157.697000
0
LINE
8
BLACK
10
132.754000
20
157.697000
11
132.887879
21
157.681125
0
LINE
8
BLACK
10
132.888000
20
157.681000
11
133.013942
21
157.638667
0
LINE
8
BLACK
10
133.013000
20
157.638000
11
133.127035
21
157.563917
0
LINE
8
BLACK
10
133.128000
20
157.564000
11
133.222985
21
157.471396
0
LINE
8
BLACK
10
133.223000
20
157.472000
11
133.294967
21
157.358229
0
LINE
8
BLACK
10
133.294000
20
157.358000
11
133.338185
21
157.231000
0
LINE
8
BLACK
10
133.339000
20
157.231000
11
133.353817
21
157.096063
0
LINE
8
BLACK
10
133.353000
20
157.096000
11
133.353000
21
151.095000
0
LINE
8
BLACK
10
133.353000
20
151.095000
11
133.338183
21
150.962708
0
LINE
8
BLACK
10
133.339000
20
150.963000
11
133.294815
21
150.836000
0
LINE
8
BLACK
10
133.294000
20
150.836000
11
133.222033
21
150.722229
0
LINE
8
BLACK
10
133.223000
20
150.722000
11
133.128015
21
150.626750
0
LINE
8
BLACK
10
133.128000
20
150.627000
11
133.013965
21
150.555563
0
LINE
8
BLACK
10
133.013000
20
150.555000
11
132.887058
21
150.510021
0
LINE
8
BLACK
10
132.888000
20
150.510000
11
132.754121
21
150.496771
0
LINE
8
BLACK
10
132.754000
20
150.497000
11
118.754000
21
150.497000
0
LINE
8
BLACK
10
118.754000
20
150.497000
11
118.620121
21
150.510229
0
LINE
8
BLACK
10
118.746000
20
157.498000
11
118.649956
21
157.484771
0
LINE
8
BLACK
10
118.650000
20
157.485000
11
118.552104
21
157.445312
0
LINE
8
BLACK
10
118.552000
20
157.445000
11
118.468921
21
157.381500
0
LINE
8
BLACK
10
118.469000
20
157.382000
11
118.404971
21
157.297333
0
LINE
8
BLACK
10
118.405000
20
157.297000
11
118.363990
21
157.201750
0
LINE
8
BLACK
10
118.364000
20
157.202000
11
118.352094
21
157.104104
0
LINE
8
BLACK
10
118.352000
20
157.104000
11
118.354117
21
157.096063
0
LINE
8
BLACK
10
118.354000
20
157.096000
11
118.354000
21
151.095000
0
LINE
8
BLACK
10
118.354000
20
151.095000
11
118.351883
21
151.089708
0
LINE
8
BLACK
10
118.352000
20
151.090000
11
118.363906
21
150.992104
0
LINE
8
BLACK
10
118.364000
20
150.992000
11
118.405010
21
150.894104
0
LINE
8
BLACK
10
118.405000
20
150.894000
11
118.469029
21
150.811979
0
LINE
8
BLACK
10
118.469000
20
150.812000
11
118.552079
21
150.745854
0
LINE
8
BLACK
10
118.552000
20
150.746000
11
118.649896
21
150.706313
0
LINE
8
BLACK
10
118.650000
20
150.706000
11
118.746044
21
150.692771
0
LINE
8
BLACK
10
118.746000
20
150.693000
11
118.753937
21
150.695646
0
LINE
8
BLACK
10
118.754000
20
150.696000
11
132.754000
21
150.696000
0
LINE
8
BLACK
10
132.754000
20
150.696000
11
132.761937
21
150.693354
0
LINE
8
BLACK
10
132.762000
20
150.693000
11
132.858044
21
150.706229
0
LINE
8
BLACK
10
132.858000
20
150.706000
11
132.955896
21
150.745687
0
LINE
8
BLACK
10
132.956000
20
150.746000
11
133.039079
21
150.812146
0
LINE
8
BLACK
10
133.039000
20
150.812000
11
133.103029
21
150.894021
0
LINE
8
BLACK
10
133.103000
20
150.894000
11
133.144010
21
150.991896
0
LINE
8
BLACK
10
133.144000
20
150.992000
11
133.155906
21
151.089896
0
LINE
8
BLACK
10
133.156000
20
151.090000
11
133.154148
21
151.095292
0
LINE
8
BLACK
10
133.154000
20
151.095000
11
133.154000
21
157.096000
0
LINE
8
BLACK
10
133.154000
20
157.096000
11
133.155852
21
157.103937
0
LINE
8
BLACK
10
133.156000
20
157.104000
11
133.144094
21
157.201896
0
LINE
8
BLACK
10
133.144000
20
157.202000
11
133.102990
21
157.297250
0
LINE
8
BLACK
10
133.103000
20
157.297000
11
133.038971
21
157.381667
0
LINE
8
BLACK
10
133.039000
20
157.382000
11
132.955921
21
157.445500
0
LINE
8
BLACK
10
132.956000
20
157.445000
11
132.858104
21
157.484688
0
LINE
8
BLACK
10
132.858000
20
157.485000
11
132.761956
21
157.498229
0
LINE
8
BLACK
10
132.762000
20
157.498000
11
132.754063
21
157.495354
0
LINE
8
BLACK
10
132.754000
20
157.495000
11
118.754000
21
157.495000
0
LINE
8
BLACK
10
118.754000
20
157.495000
11
118.746063
21
157.497646
0
LINE
8
BLACK
10
82.519700
20
163.650000
11
82.393758
21
163.692333
0
LINE
8
BLACK
10
82.393700
20
163.692000
11
82.279665
21
163.763437
0
LINE
8
BLACK
10
82.279700
20
163.763000
11
82.184715
21
163.858250
0
LINE
8
BLACK
10
82.184700
20
163.859000
11
82.112733
21
163.972771
0
LINE
8
BLACK
10
82.112700
20
163.972000
11
82.068515
21
164.099000
0
LINE
8
BLACK
10
82.068600
20
164.099000
11
82.053783
21
164.233937
0
LINE
8
BLACK
10
82.053700
20
164.234000
11
82.053700
21
177.233000
0
LINE
8
BLACK
10
82.053700
20
177.233000
11
82.068517
21
177.365292
0
LINE
8
BLACK
10
82.068600
20
177.366000
11
82.112785
21
177.493000
0
LINE
8
BLACK
10
82.112700
20
177.493000
11
82.184667
21
177.606771
0
LINE
8
BLACK
10
82.184700
20
177.606000
11
82.279685
21
177.701250
0
LINE
8
BLACK
10
82.279700
20
177.702000
11
82.393735
21
177.773437
0
LINE
8
BLACK
10
82.393700
20
177.773000
11
82.519642
21
177.817979
0
LINE
8
BLACK
10
82.519700
20
177.818000
11
82.653579
21
177.833875
0
LINE
8
BLACK
10
82.653500
20
177.834000
11
95.653600
21
177.834000
0
LINE
8
BLACK
10
95.653600
20
177.834000
11
95.787744
21
177.818125
0
LINE
8
BLACK
10
95.787700
20
177.818000
11
95.913642
21
177.773021
0
LINE
8
BLACK
10
95.913700
20
177.773000
11
96.027735
21
177.701563
0
LINE
8
BLACK
10
96.027700
20
177.702000
11
96.122685
21
177.606750
0
LINE
8
BLACK
10
96.122700
20
177.606000
11
96.194667
21
177.492229
0
LINE
8
BLACK
10
96.194600
20
177.493000
11
96.238521
21
177.366000
0
LINE
8
BLACK
10
96.238600
20
177.366000
11
96.253681
21
177.233708
0
LINE
8
BLACK
10
96.253600
20
177.233000
11
96.253600
21
164.234000
0
LINE
8
BLACK
10
96.253600
20
164.234000
11
96.238519
21
164.099063
0
LINE
8
BLACK
10
96.238600
20
164.099000
11
96.194679
21
163.972000
0
LINE
8
BLACK
10
96.194600
20
163.972000
11
96.122633
21
163.858229
0
LINE
8
BLACK
10
96.122700
20
163.859000
11
96.027715
21
163.763750
0
LINE
8
BLACK
10
96.027700
20
163.763000
11
95.913665
21
163.691563
0
LINE
8
BLACK
10
95.913700
20
163.692000
11
95.787758
21
163.649667
0
LINE
8
BLACK
10
95.787700
20
163.650000
11
95.653556
21
163.634125
0
LINE
8
BLACK
10
95.653600
20
163.634000
11
82.653500
21
163.634000
0
LINE
8
BLACK
10
82.653500
20
163.634000
11
82.519621
21
163.649875
0
LINE
8
BLACK
10
82.645600
20
177.635000
11
82.549556
21
177.621771
0
LINE
8
BLACK
10
82.549600
20
177.622000
11
82.451704
21
177.582313
0
LINE
8
BLACK
10
82.451700
20
177.583000
11
82.368621
21
177.519500
0
LINE
8
BLACK
10
82.368600
20
177.519000
11
82.304571
21
177.434333
0
LINE
8
BLACK
10
82.304600
20
177.434000
11
82.263590
21
177.336104
0
LINE
8
BLACK
10
82.263600
20
177.336000
11
82.251694
21
177.240750
0
LINE
8
BLACK
10
82.251600
20
177.241000
11
82.253717
21
177.233063
0
LINE
8
BLACK
10
82.253800
20
177.233000
11
82.253800
21
164.234000
0
LINE
8
BLACK
10
82.253800
20
164.234000
11
82.251683
21
164.226063
0
LINE
8
BLACK
10
82.251600
20
164.226000
11
82.263506
21
164.128104
0
LINE
8
BLACK
10
82.263600
20
164.129000
11
82.304610
21
164.031104
0
LINE
8
BLACK
10
82.304600
20
164.031000
11
82.368629
21
163.948979
0
LINE
8
BLACK
10
82.368600
20
163.949000
11
82.451679
21
163.885500
0
LINE
8
BLACK
10
82.451700
20
163.885000
11
82.549596
21
163.842667
0
LINE
8
BLACK
10
82.549600
20
163.843000
11
82.645644
21
163.832417
0
LINE
8
BLACK
10
82.645600
20
163.832000
11
82.653500
21
163.832000
0
LINE
8
BLACK
10
82.653500
20
163.832000
11
95.653600
21
163.832000
0
LINE
8
BLACK
10
95.653600
20
163.832000
11
95.661500
21
163.832000
0
LINE
8
BLACK
10
95.661500
20
163.832000
11
95.757544
21
163.842583
0
LINE
8
BLACK
10
95.757500
20
163.843000
11
95.855660
21
163.885333
0
LINE
8
BLACK
10
95.855700
20
163.885000
11
95.938514
21
163.948500
0
LINE
8
BLACK
10
95.938500
20
163.949000
11
96.002529
21
164.031021
0
LINE
8
BLACK
10
96.002600
20
164.031000
11
96.043610
21
164.128896
0
LINE
8
BLACK
10
96.043600
20
164.129000
11
96.055771
21
164.226896
0
LINE
8
BLACK
10
96.055700
20
164.226000
11
96.053583
21
164.233937
0
LINE
8
BLACK
10
96.053600
20
164.234000
11
96.053600
21
177.233000
0
LINE
8
BLACK
10
96.053600
20
177.233000
11
96.055717
21
177.240937
0
LINE
8
BLACK
10
96.055700
20
177.241000
11
96.043529
21
177.336250
0
LINE
8
BLACK
10
96.043600
20
177.336000
11
96.002590
21
177.433896
0
LINE
8
BLACK
10
96.002600
20
177.434000
11
95.938571
21
177.518667
0
LINE
8
BLACK
10
95.938500
20
177.519000
11
95.855686
21
177.582500
0
LINE
8
BLACK
10
95.855700
20
177.583000
11
95.757540
21
177.622687
0
LINE
8
BLACK
10
95.757500
20
177.622000
11
95.661456
21
177.635229
0
LINE
8
BLACK
10
95.661500
20
177.635000
11
95.653563
21
177.632354
0
LINE
8
BLACK
10
95.653600
20
177.633000
11
82.653500
21
177.633000
0
LINE
8
BLACK
10
82.653500
20
177.633000
11
82.645563
21
177.635646
0
LINE
8
BLACK
10
120.620000
20
163.650000
11
120.494058
21
163.692333
0
LINE
8
BLACK
10
120.494000
20
163.692000
11
120.379965
21
163.763437
0
LINE
8
BLACK
10
120.380000
20
163.763000
11
120.285015
21
163.858250
0
LINE
8
BLACK
10
120.285000
20
163.859000
11
120.213033
21
163.972771
0
LINE
8
BLACK
10
120.213000
20
163.972000
11
120.168815
21
164.099000
0
LINE
8
BLACK
10
120.169000
20
164.099000
11
120.154183
21
164.233937
0
LINE
8
BLACK
10
120.154000
20
164.234000
11
120.154000
21
177.233000
0
LINE
8
BLACK
10
120.154000
20
177.233000
11
120.168817
21
177.365292
0
LINE
8
BLACK
10
120.169000
20
177.366000
11
120.213185
21
177.493000
0
LINE
8
BLACK
10
120.213000
20
177.493000
11
120.284967
21
177.606771
0
LINE
8
BLACK
10
120.285000
20
177.606000
11
120.379985
21
177.701250
0
LINE
8
BLACK
10
120.380000
20
177.702000
11
120.494035
21
177.773437
0
LINE
8
BLACK
10
120.494000
20
177.773000
11
120.619942
21
177.817979
0
LINE
8
BLACK
10
120.620000
20
177.818000
11
120.753879
21
177.833875
0
LINE
8
BLACK
10
120.753000
20
177.834000
11
133.754000
21
177.834000
0
LINE
8
BLACK
10
133.754000
20
177.834000
11
133.888144
21
177.818125
0
LINE
8
BLACK
10
133.888000
20
177.818000
11
134.013942
21
177.773021
0
LINE
8
BLACK
10
134.014000
20
177.773000
11
134.128035
21
177.701563
0
LINE
8
BLACK
10
134.128000
20
177.702000
11
134.222985
21
177.606750
0
LINE
8
BLACK
10
134.223000
20
177.606000
11
134.294967
21
177.492229
0
LINE
8
BLACK
10
134.295000
20
177.493000
11
134.338921
21
177.366000
0
LINE
8
BLACK
10
134.339000
20
177.366000
11
134.354081
21
177.233708
0
LINE
8
BLACK
10
134.354000
20
177.233000
11
134.354000
21
164.234000
0
LINE
8
BLACK
10
134.354000
20
164.234000
11
134.338919
21
164.099063
0
LINE
8
BLACK
10
134.339000
20
164.099000
11
134.295079
21
163.972000
0
LINE
8
BLACK
10
134.295000
20
163.972000
11
134.223033
21
163.858229
0
LINE
8
BLACK
10
134.223000
20
163.859000
11
134.128015
21
163.763750
0
LINE
8
BLACK
10
134.128000
20
163.763000
11
134.013965
21
163.691563
0
LINE
8
BLACK
10
134.014000
20
163.692000
11
133.888058
21
163.649667
0
LINE
8
BLACK
10
133.888000
20
163.650000
11
133.753856
21
163.634125
0
LINE
8
BLACK
10
133.754000
20
163.634000
11
120.753000
21
163.634000
0
LINE
8
BLACK
10
120.753000
20
163.634000
11
120.619121
21
163.649875
0
LINE
8
BLACK
10
120.746000
20
177.635000
11
120.649956
21
177.621771
0
LINE
8
BLACK
10
120.650000
20
177.622000
11
120.552104
21
177.582313
0
LINE
8
BLACK
10
120.552000
20
177.583000
11
120.468921
21
177.519500
0
LINE
8
BLACK
10
120.469000
20
177.519000
11
120.404971
21
177.434333
0
LINE
8
BLACK
10
120.405000
20
177.434000
11
120.363990
21
177.336104
0
LINE
8
BLACK
10
120.364000
20
177.336000
11
120.352094
21
177.240750
0
LINE
8
BLACK
10
120.352000
20
177.241000
11
120.354117
21
177.233063
0
LINE
8
BLACK
10
120.354000
20
177.233000
11
120.354000
21
164.234000
0
LINE
8
BLACK
10
120.354000
20
164.234000
11
120.351883
21
164.226063
0
LINE
8
BLACK
10
120.352000
20
164.226000
11
120.363906
21
164.128104
0
LINE
8
BLACK
10
120.364000
20
164.129000
11
120.405010
21
164.031104
0
LINE
8
BLACK
10
120.405000
20
164.031000
11
120.469029
21
163.948979
0
LINE
8
BLACK
10
120.469000
20
163.949000
11
120.552079
21
163.885500
0
LINE
8
BLACK
10
120.552000
20
163.885000
11
120.649896
21
163.842667
0
LINE
8
BLACK
10
120.650000
20
163.843000
11
120.746044
21
163.832417
0
LINE
8
BLACK
10
120.746000
20
163.832000
11
120.753000
21
163.832000
0
LINE
8
BLACK
10
120.753000
20
163.832000
11
133.754000
21
163.832000
0
LINE
8
BLACK
10
133.754000
20
163.832000
11
133.761000
21
163.832000
0
LINE
8
BLACK
10
133.761000
20
163.832000
11
133.857044
21
163.842583
0
LINE
8
BLACK
10
133.858000
20
163.843000
11
133.956160
21
163.885333
0
LINE
8
BLACK
10
133.956000
20
163.885000
11
134.038815
21
163.948500
0
LINE
8
BLACK
10
134.038000
20
163.949000
11
134.102029
21
164.031021
0
LINE
8
BLACK
10
134.103000
20
164.031000
11
134.144010
21
164.128896
0
LINE
8
BLACK
10
134.144000
20
164.129000
11
134.156171
21
164.226896
0
LINE
8
BLACK
10
134.156000
20
164.226000
11
134.153883
21
164.233937
0
LINE
8
BLACK
10
134.154000
20
164.234000
11
134.154000
21
177.233000
0
LINE
8
BLACK
10
134.154000
20
177.233000
11
134.156117
21
177.240937
0
LINE
8
BLACK
10
134.156000
20
177.241000
11
134.143829
21
177.336250
0
LINE
8
BLACK
10
134.144000
20
177.336000
11
134.102990
21
177.433896
0
LINE
8
BLACK
10
134.103000
20
177.434000
11
134.038971
21
177.518667
0
LINE
8
BLACK
10
134.038000
20
177.519000
11
133.955185
21
177.582500
0
LINE
8
BLACK
10
133.956000
20
177.583000
11
133.857840
21
177.622687
0
LINE
8
BLACK
10
133.858000
20
177.622000
11
133.761956
21
177.635229
0
LINE
8
BLACK
10
133.761000
20
177.635000
11
133.753063
21
177.632354
0
LINE
8
BLACK
10
133.754000
20
177.633000
11
120.753000
21
177.633000
0
LINE
8
BLACK
10
120.753000
20
177.633000
11
120.745063
21
177.635646
0
LINE
8
BLACK
10
139.670000
20
163.650000
11
139.544058
21
163.692333
0
LINE
8
BLACK
10
139.544000
20
163.692000
11
139.429965
21
163.763437
0
LINE
8
BLACK
10
139.430000
20
163.763000
11
139.335015
21
163.858250
0
LINE
8
BLACK
10
139.335000
20
163.859000
11
139.263033
21
163.972771
0
LINE
8
BLACK
10
139.263000
20
163.972000
11
139.218815
21
164.099000
0
LINE
8
BLACK
10
139.218000
20
164.099000
11
139.203183
21
164.233937
0
LINE
8
BLACK
10
139.204000
20
164.234000
11
139.204000
21
177.233000
0
LINE
8
BLACK
10
139.204000
20
177.233000
11
139.218817
21
177.365292
0
LINE
8
BLACK
10
139.218000
20
177.366000
11
139.262185
21
177.493000
0
LINE
8
BLACK
10
139.263000
20
177.493000
11
139.334967
21
177.606771
0
LINE
8
BLACK
10
139.335000
20
177.606000
11
139.429985
21
177.701250
0
LINE
8
BLACK
10
139.430000
20
177.702000
11
139.544035
21
177.773437
0
LINE
8
BLACK
10
139.544000
20
177.773000
11
139.669942
21
177.817979
0
LINE
8
BLACK
10
139.670000
20
177.818000
11
139.803879
21
177.833875
0
LINE
8
BLACK
10
139.803000
20
177.834000
11
152.803000
21
177.834000
0
LINE
8
BLACK
10
152.803000
20
177.834000
11
152.937144
21
177.818125
0
LINE
8
BLACK
10
152.938000
20
177.818000
11
153.063942
21
177.773021
0
LINE
8
BLACK
10
153.064000
20
177.773000
11
153.178035
21
177.701563
0
LINE
8
BLACK
10
153.178000
20
177.702000
11
153.272985
21
177.606750
0
LINE
8
BLACK
10
153.273000
20
177.606000
11
153.344967
21
177.492229
0
LINE
8
BLACK
10
153.345000
20
177.493000
11
153.388921
21
177.366000
0
LINE
8
BLACK
10
153.388000
20
177.366000
11
153.403081
21
177.233708
0
LINE
8
BLACK
10
153.404000
20
177.233000
11
153.404000
21
164.234000
0
LINE
8
BLACK
10
153.404000
20
164.234000
11
153.388919
21
164.099063
0
LINE
8
BLACK
10
153.388000
20
164.099000
11
153.344079
21
163.972000
0
LINE
8
BLACK
10
153.345000
20
163.972000
11
153.273033
21
163.858229
0
LINE
8
BLACK
10
153.273000
20
163.859000
11
153.178015
21
163.763750
0
LINE
8
BLACK
10
153.178000
20
163.763000
11
153.063965
21
163.691563
0
LINE
8
BLACK
10
153.064000
20
163.692000
11
152.938058
21
163.649667
0
LINE
8
BLACK
10
152.938000
20
163.650000
11
152.803856
21
163.634125
0
LINE
8
BLACK
10
152.803000
20
163.634000
11
139.803000
21
163.634000
0
LINE
8
BLACK
10
139.803000
20
163.634000
11
139.669121
21
163.649875
0
LINE
8
BLACK
10
139.796000
20
177.635000
11
139.699956
21
177.621771
0
LINE
8
BLACK
10
139.699000
20
177.622000
11
139.601104
21
177.582313
0
LINE
8
BLACK
10
139.602000
20
177.583000
11
139.518921
21
177.519500
0
LINE
8
BLACK
10
139.519000
20
177.519000
11
139.454971
21
177.434333
0
LINE
8
BLACK
10
139.454000
20
177.434000
11
139.412990
21
177.336104
0
LINE
8
BLACK
10
139.413000
20
177.336000
11
139.401094
21
177.240750
0
LINE
8
BLACK
10
139.402000
20
177.241000
11
139.404117
21
177.233063
0
LINE
8
BLACK
10
139.404000
20
177.233000
11
139.404000
21
164.234000
0
LINE
8
BLACK
10
139.404000
20
164.234000
11
139.401883
21
164.226063
0
LINE
8
BLACK
10
139.402000
20
164.226000
11
139.413906
21
164.128104
0
LINE
8
BLACK
10
139.413000
20
164.129000
11
139.454010
21
164.031104
0
LINE
8
BLACK
10
139.454000
20
164.031000
11
139.518029
21
163.948979
0
LINE
8
BLACK
10
139.519000
20
163.949000
11
139.602079
21
163.885500
0
LINE
8
BLACK
10
139.602000
20
163.885000
11
139.699896
21
163.842667
0
LINE
8
BLACK
10
139.699000
20
163.843000
11
139.795044
21
163.832417
0
LINE
8
BLACK
10
139.796000
20
163.832000
11
139.803000
21
163.832000
0
LINE
8
BLACK
10
139.803000
20
163.832000
11
152.803000
21
163.832000
0
LINE
8
BLACK
10
152.803000
20
163.832000
11
152.811000
21
163.832000
0
LINE
8
BLACK
10
152.811000
20
163.832000
11
152.907044
21
163.842583
0
LINE
8
BLACK
10
152.907000
20
163.843000
11
153.005160
21
163.885333
0
LINE
8
BLACK
10
153.006000
20
163.885000
11
153.088815
21
163.948500
0
LINE
8
BLACK
10
153.088000
20
163.949000
11
153.152029
21
164.031021
0
LINE
8
BLACK
10
153.152000
20
164.031000
11
153.193010
21
164.128896
0
LINE
8
BLACK
10
153.193000
20
164.129000
11
153.205171
21
164.226896
0
LINE
8
BLACK
10
153.206000
20
164.226000
11
153.203883
21
164.233937
0
LINE
8
BLACK
10
153.204000
20
164.234000
11
153.204000
21
177.233000
0
LINE
8
BLACK
10
153.204000
20
177.233000
11
153.206117
21
177.240937
0
LINE
8
BLACK
10
153.206000
20
177.241000
11
153.193829
21
177.336250
0
LINE
8
BLACK
10
153.193000
20
177.336000
11
153.151990
21
177.433896
0
LINE
8
BLACK
10
153.152000
20
177.434000
11
153.087971
21
177.518667
0
LINE
8
BLACK
10
153.088000
20
177.519000
11
153.005185
21
177.582500
0
LINE
8
BLACK
10
153.006000
20
177.583000
11
152.907840
21
177.622687
0
LINE
8
BLACK
10
152.907000
20
177.622000
11
152.810956
21
177.635229
0
LINE
8
BLACK
10
152.811000
20
177.635000
11
152.803063
21
177.632354
0
LINE
8
BLACK
10
152.803000
20
177.633000
11
139.803000
21
177.633000
0
LINE
8
BLACK
10
139.803000
20
177.633000
11
139.795063
21
177.635646
0
LINE
8
BLACK
10
101.570000
20
163.650000
11
101.444058
21
163.692333
0
LINE
8
BLACK
10
101.444000
20
163.692000
11
101.329965
21
163.763437
0
LINE
8
BLACK
10
101.330000
20
163.763000
11
101.235015
21
163.858250
0
LINE
8
BLACK
10
101.235000
20
163.859000
11
101.163033
21
163.972771
0
LINE
8
BLACK
10
101.163000
20
163.972000
11
101.118815
21
164.099000
0
LINE
8
BLACK
10
101.119000
20
164.099000
11
101.104183
21
164.233937
0
LINE
8
BLACK
10
101.104000
20
164.234000
11
101.104000
21
177.233000
0
LINE
8
BLACK
10
101.104000
20
177.233000
11
101.118817
21
177.365292
0
LINE
8
BLACK
10
101.119000
20
177.366000
11
101.163185
21
177.493000
0
LINE
8
BLACK
10
101.163000
20
177.493000
11
101.234967
21
177.606771
0
LINE
8
BLACK
10
101.235000
20
177.606000
11
101.329985
21
177.701250
0
LINE
8
BLACK
10
101.330000
20
177.702000
11
101.444035
21
177.773437
0
LINE
8
BLACK
10
101.444000
20
177.773000
11
101.569942
21
177.817979
0
LINE
8
BLACK
10
101.570000
20
177.818000
11
101.703879
21
177.833875
0
LINE
8
BLACK
10
101.704000
20
177.834000
11
114.704000
21
177.834000
0
LINE
8
BLACK
10
114.704000
20
177.834000
11
114.838144
21
177.818125
0
LINE
8
BLACK
10
114.838000
20
177.818000
11
114.963942
21
177.773021
0
LINE
8
BLACK
10
114.964000
20
177.773000
11
115.078035
21
177.701563
0
LINE
8
BLACK
10
115.078000
20
177.702000
11
115.172985
21
177.606750
0
LINE
8
BLACK
10
115.173000
20
177.606000
11
115.244967
21
177.492229
0
LINE
8
BLACK
10
115.245000
20
177.493000
11
115.288921
21
177.366000
0
LINE
8
BLACK
10
115.289000
20
177.366000
11
115.304081
21
177.233708
0
LINE
8
BLACK
10
115.304000
20
177.233000
11
115.304000
21
164.234000
0
LINE
8
BLACK
10
115.304000
20
164.234000
11
115.288919
21
164.099063
0
LINE
8
BLACK
10
115.289000
20
164.099000
11
115.245079
21
163.972000
0
LINE
8
BLACK
10
115.245000
20
163.972000
11
115.173033
21
163.858229
0
LINE
8
BLACK
10
115.173000
20
163.859000
11
115.078015
21
163.763750
0
LINE
8
BLACK
10
115.078000
20
163.763000
11
114.963965
21
163.691563
0
LINE
8
BLACK
10
114.964000
20
163.692000
11
114.838058
21
163.649667
0
LINE
8
BLACK
10
114.838000
20
163.650000
11
114.703856
21
163.634125
0
LINE
8
BLACK
10
114.704000
20
163.634000
11
101.704000
21
163.634000
0
LINE
8
BLACK
10
101.704000
20
163.634000
11
101.570121
21
163.649875
0
LINE
8
BLACK
10
101.696000
20
177.635000
11
101.599956
21
177.621771
0
LINE
8
BLACK
10
101.600000
20
177.622000
11
101.502104
21
177.582313
0
LINE
8
BLACK
10
101.502000
20
177.583000
11
101.418921
21
177.519500
0
LINE
8
BLACK
10
101.419000
20
177.519000
11
101.354971
21
177.434333
0
LINE
8
BLACK
10
101.355000
20
177.434000
11
101.313990
21
177.336104
0
LINE
8
BLACK
10
101.314000
20
177.336000
11
101.302094
21
177.240750
0
LINE
8
BLACK
10
101.302000
20
177.241000
11
101.304117
21
177.233063
0
LINE
8
BLACK
10
101.304000
20
177.233000
11
101.304000
21
164.234000
0
LINE
8
BLACK
10
101.304000
20
164.234000
11
101.301883
21
164.226063
0
LINE
8
BLACK
10
101.302000
20
164.226000
11
101.313906
21
164.128104
0
LINE
8
BLACK
10
101.314000
20
164.129000
11
101.355010
21
164.031104
0
LINE
8
BLACK
10
101.355000
20
164.031000
11
101.419029
21
163.948979
0
LINE
8
BLACK
10
101.419000
20
163.949000
11
101.502079
21
163.885500
0
LINE
8
BLACK
10
101.502000
20
163.885000
11
101.599896
21
163.842667
0
LINE
8
BLACK
10
101.600000
20
163.843000
11
101.696044
21
163.832417
0
LINE
8
BLACK
10
101.696000
20
163.832000
11
101.704000
21
163.832000
0
LINE
8
BLACK
10
101.704000
20
163.832000
11
114.704000
21
163.832000
0
LINE
8
BLACK
10
114.704000
20
163.832000
11
114.711000
21
163.832000
0
LINE
8
BLACK
10
114.711000
20
163.832000
11
114.807044
21
163.842583
0
LINE
8
BLACK
10
114.808000
20
163.843000
11
114.906160
21
163.885333
0
LINE
8
BLACK
10
114.906000
20
163.885000
11
114.988815
21
163.948500
0
LINE
8
BLACK
10
114.988000
20
163.949000
11
115.052029
21
164.031021
0
LINE
8
BLACK
10
115.053000
20
164.031000
11
115.094010
21
164.128896
0
LINE
8
BLACK
10
115.094000
20
164.129000
11
115.106171
21
164.226896
0
LINE
8
BLACK
10
115.106000
20
164.226000
11
115.103883
21
164.233937
0
LINE
8
BLACK
10
115.104000
20
164.234000
11
115.104000
21
177.233000
0
LINE
8
BLACK
10
115.104000
20
177.233000
11
115.106117
21
177.240937
0
LINE
8
BLACK
10
115.106000
20
177.241000
11
115.093829
21
177.336250
0
LINE
8
BLACK
10
115.094000
20
177.336000
11
115.052990
21
177.433896
0
LINE
8
BLACK
10
115.053000
20
177.434000
11
114.988971
21
177.518667
0
LINE
8
BLACK
10
114.988000
20
177.519000
11
114.905186
21
177.582500
0
LINE
8
BLACK
10
114.906000
20
177.583000
11
114.807840
21
177.622687
0
LINE
8
BLACK
10
114.808000
20
177.622000
11
114.711956
21
177.635229
0
LINE
8
BLACK
10
114.711000
20
177.635000
11
114.703063
21
177.632354
0
LINE
8
BLACK
10
114.704000
20
177.633000
11
101.704000
21
177.633000
0
LINE
8
BLACK
10
101.704000
20
177.633000
11
101.696063
21
177.635646
0
LINE
8
BLACK
10
63.469700
20
163.650000
11
63.343758
21
163.692333
0
LINE
8
BLACK
10
63.343700
20
163.692000
11
63.229665
21
163.763437
0
LINE
8
BLACK
10
63.229700
20
163.763000
11
63.134715
21
163.858250
0
LINE
8
BLACK
10
63.134700
20
163.859000
11
63.062733
21
163.972771
0
LINE
8
BLACK
10
63.062800
20
163.972000
11
63.018615
21
164.099000
0
LINE
8
BLACK
10
63.018600
20
164.099000
11
63.003783
21
164.233937
0
LINE
8
BLACK
10
63.003800
20
164.234000
11
63.003800
21
177.233000
0
LINE
8
BLACK
10
63.003800
20
177.233000
11
63.018617
21
177.365292
0
LINE
8
BLACK
10
63.018600
20
177.366000
11
63.062785
21
177.493000
0
LINE
8
BLACK
10
63.062800
20
177.493000
11
63.134767
21
177.606771
0
LINE
8
BLACK
10
63.134700
20
177.606000
11
63.229685
21
177.701250
0
LINE
8
BLACK
10
63.229700
20
177.702000
11
63.343735
21
177.773437
0
LINE
8
BLACK
10
63.343700
20
177.773000
11
63.469642
21
177.817979
0
LINE
8
BLACK
10
63.469700
20
177.818000
11
63.603579
21
177.833875
0
LINE
8
BLACK
10
63.603600
20
177.834000
11
76.603600
21
177.834000
0
LINE
8
BLACK
10
76.603600
20
177.834000
11
76.737744
21
177.818125
0
LINE
8
BLACK
10
76.737700
20
177.818000
11
76.863642
21
177.773021
0
LINE
8
BLACK
10
76.863700
20
177.773000
11
76.977735
21
177.701563
0
LINE
8
BLACK
10
76.977700
20
177.702000
11
77.072685
21
177.606750
0
LINE
8
BLACK
10
77.072700
20
177.606000
11
77.144667
21
177.492229
0
LINE
8
BLACK
10
77.144700
20
177.493000
11
77.188621
21
177.366000
0
LINE
8
BLACK
10
77.188600
20
177.366000
11
77.203681
21
177.233708
0
LINE
8
BLACK
10
77.203700
20
177.233000
11
77.203700
21
164.234000
0
LINE
8
BLACK
10
77.203700
20
164.234000
11
77.188619
21
164.099063
0
LINE
8
BLACK
10
77.188600
20
164.099000
11
77.144679
21
163.972000
0
LINE
8
BLACK
10
77.144700
20
163.972000
11
77.072733
21
163.858229
0
LINE
8
BLACK
10
77.072700
20
163.859000
11
76.977715
21
163.763750
0
LINE
8
BLACK
10
76.977700
20
163.763000
11
76.863665
21
163.691563
0
LINE
8
BLACK
10
76.863700
20
163.692000
11
76.737758
21
163.649667
0
LINE
8
BLACK
10
76.737700
20
163.650000
11
76.603556
21
163.634125
0
LINE
8
BLACK
10
76.603600
20
163.634000
11
63.603600
21
163.634000
0
LINE
8
BLACK
10
63.603600
20
163.634000
11
63.469721
21
163.649875
0
LINE
8
BLACK
10
63.595600
20
177.635000
11
63.499556
21
177.621771
0
LINE
8
BLACK
10
63.499600
20
177.622000
11
63.401704
21
177.582313
0
LINE
8
BLACK
10
63.401700
20
177.583000
11
63.318621
21
177.519500
0
LINE
8
BLACK
10
63.318600
20
177.519000
11
63.254571
21
177.434333
0
LINE
8
BLACK
10
63.254600
20
177.434000
11
63.213590
21
177.336104
0
LINE
8
BLACK
10
63.213600
20
177.336000
11
63.201694
21
177.240750
0
LINE
8
BLACK
10
63.201700
20
177.241000
11
63.203817
21
177.233063
0
LINE
8
BLACK
10
63.203800
20
177.233000
11
63.203800
21
164.234000
0
LINE
8
BLACK
10
63.203800
20
164.234000
11
63.201683
21
164.226063
0
LINE
8
BLACK
10
63.201700
20
164.226000
11
63.213606
21
164.128104
0
LINE
8
BLACK
10
63.213600
20
164.129000
11
63.254610
21
164.031104
0
LINE
8
BLACK
10
63.254600
20
164.031000
11
63.318629
21
163.948979
0
LINE
8
BLACK
10
63.318600
20
163.949000
11
63.401679
21
163.885500
0
LINE
8
BLACK
10
63.401700
20
163.885000
11
63.499596
21
163.842667
0
LINE
8
BLACK
10
63.499600
20
163.843000
11
63.595644
21
163.832417
0
LINE
8
BLACK
10
63.595600
20
163.832000
11
63.603600
21
163.832000
0
LINE
8
BLACK
10
63.603600
20
163.832000
11
76.603600
21
163.832000
0
LINE
8
BLACK
10
76.603600
20
163.832000
11
76.611500
21
163.832000
0
LINE
8
BLACK
10
76.611500
20
163.832000
11
76.707544
21
163.842583
0
LINE
8
BLACK
10
76.707600
20
163.843000
11
76.805760
21
163.885333
0
LINE
8
BLACK
10
76.805700
20
163.885000
11
76.888514
21
163.948500
0
LINE
8
BLACK
10
76.888500
20
163.949000
11
76.952529
21
164.031021
0
LINE
8
BLACK
10
76.952600
20
164.031000
11
76.993610
21
164.128896
0
LINE
8
BLACK
10
76.993600
20
164.129000
11
77.005771
21
164.226896
0
LINE
8
BLACK
10
77.005800
20
164.226000
11
77.003683
21
164.233937
0
LINE
8
BLACK
10
77.003600
20
164.234000
11
77.003600
21
177.233000
0
LINE
8
BLACK
10
77.003600
20
177.233000
11
77.005717
21
177.240937
0
LINE
8
BLACK
10
77.005800
20
177.241000
11
76.993629
21
177.336250
0
LINE
8
BLACK
10
76.993600
20
177.336000
11
76.952590
21
177.433896
0
LINE
8
BLACK
10
76.952600
20
177.434000
11
76.888571
21
177.518667
0
LINE
8
BLACK
10
76.888500
20
177.519000
11
76.805685
21
177.582500
0
LINE
8
BLACK
10
76.805700
20
177.583000
11
76.707540
21
177.622687
0
LINE
8
BLACK
10
76.707600
20
177.622000
11
76.611556
21
177.635229
0
LINE
8
BLACK
10
76.611500
20
177.635000
11
76.603563
21
177.632354
0
LINE
8
BLACK
10
76.603600
20
177.633000
11
63.603600
21
177.633000
0
LINE
8
BLACK
10
63.603600
20
177.633000
11
63.595663
21
177.635646
0
LINE
8
BLACK
10
154.589000
20
195.794000
11
154.605000
21
195.794000
0
LINE
8
BLACK
10
154.605000
20
195.794000
11
154.617965
21
195.786063
0
LINE
8
BLACK
10
154.617000
20
195.786000
11
154.632081
21
195.780708
0
LINE
8
BLACK
10
154.633000
20
195.781000
11
154.641996
21
195.767771
0
LINE
8
BLACK
10
154.642000
20
195.767000
11
154.654965
21
195.756417
0
LINE
8
BLACK
10
154.655000
20
195.757000
11
154.660027
21
195.743771
0
LINE
8
BLACK
10
154.660000
20
195.744000
11
154.668996
21
195.730771
0
LINE
8
BLACK
10
154.669000
20
195.730000
11
154.669000
21
195.714000
0
LINE
8
BLACK
10
154.669000
20
195.714000
11
154.674027
21
195.698125
0
LINE
8
BLACK
10
154.674000
20
195.699000
11
154.674000
21
179.620000
0
LINE
8
BLACK
10
154.674000
20
179.620000
11
154.668973
21
179.606771
0
LINE
8
BLACK
10
154.669000
20
179.607000
11
154.669000
21
179.591000
0
LINE
8
BLACK
10
154.669000
20
179.591000
11
154.660004
21
179.577771
0
LINE
8
BLACK
10
154.660000
20
179.578000
11
154.654973
21
179.562125
0
LINE
8
BLACK
10
154.655000
20
179.562000
11
154.642035
21
179.554063
0
LINE
8
BLACK
10
154.642000
20
179.554000
11
154.633004
21
179.540771
0
LINE
8
BLACK
10
154.633000
20
179.540000
11
154.617919
21
179.534708
0
LINE
8
BLACK
10
154.617000
20
179.535000
11
154.604035
21
179.524417
0
LINE
8
BLACK
10
154.605000
20
179.525000
11
154.589000
21
179.525000
0
LINE
8
BLACK
10
154.589000
20
179.525000
11
154.573919
21
179.522354
0
LINE
8
BLACK
10
154.574000
20
179.522000
11
138.088000
21
179.522000
0
LINE
8
BLACK
10
138.088000
20
179.522000
11
138.073183
21
179.524646
0
LINE
8
BLACK
10
138.074000
20
179.525000
11
138.057000
21
179.525000
0
LINE
8
BLACK
10
138.057000
20
179.525000
11
138.045094
21
179.535583
0
LINE
8
BLACK
10
138.046000
20
179.535000
11
138.030919
21
179.540292
0
LINE
8
BLACK
10
138.031000
20
179.540000
11
138.020946
21
179.553229
0
LINE
8
BLACK
10
138.020000
20
179.554000
11
138.007035
21
179.561937
0
LINE
8
BLACK
10
138.007000
20
179.562000
11
138.003031
21
179.577875
0
LINE
8
BLACK
10
138.004000
20
179.578000
11
137.993946
21
179.591229
0
LINE
8
BLACK
10
137.993000
20
179.591000
11
137.993000
21
179.607000
0
LINE
8
BLACK
10
137.993000
20
179.607000
11
137.988238
21
179.620229
0
LINE
8
BLACK
10
137.989000
20
179.620000
11
137.989000
21
195.699000
0
LINE
8
BLACK
10
137.989000
20
195.699000
11
137.993762
21
195.714875
0
LINE
8
BLACK
10
137.993000
20
195.714000
11
137.993000
21
195.730000
0
LINE
8
BLACK
10
137.993000
20
195.730000
11
138.003054
21
195.743229
0
LINE
8
BLACK
10
138.004000
20
195.744000
11
138.007969
21
195.757229
0
LINE
8
BLACK
10
138.007000
20
195.757000
11
138.019965
21
195.767583
0
LINE
8
BLACK
10
138.020000
20
195.767000
11
138.030054
21
195.780229
0
LINE
8
BLACK
10
138.031000
20
195.781000
11
138.046081
21
195.786292
0
LINE
8
BLACK
10
138.046000
20
195.786000
11
138.057906
21
195.793937
0
LINE
8
BLACK
10
138.057000
20
195.794000
11
138.074000
21
195.794000
0
LINE
8
BLACK
10
138.074000
20
195.794000
11
138.088817
21
195.799292
0
LINE
8
BLACK
10
138.088000
20
195.799000
11
154.574000
21
195.799000
0
LINE
8
BLACK
10
154.574000
20
195.799000
11
154.589081
21
195.793708
0
LINE
8
BLACK
10
138.188000
20
195.598000
11
138.188000
21
179.720000
0
LINE
8
BLACK
10
138.188000
20
179.720000
11
154.474000
21
179.720000
0
LINE
8
BLACK
10
154.474000
20
179.720000
11
154.474000
21
195.598000
0
LINE
8
BLACK
10
154.474000
20
195.598000
11
138.188000
21
195.598000
0
LINE
8
BLACK
10
126.132000
20
199.646000
11
126.164000
21
199.646000
0
LINE
8
BLACK
10
126.164000
20
199.646000
11
126.214006
21
199.608958
0
LINE
8
BLACK
10
126.214000
20
199.609000
11
126.232785
21
199.550792
0
LINE
8
BLACK
10
126.232000
20
199.551000
11
126.232000
21
185.422000
0
LINE
8
BLACK
10
126.232000
20
185.422000
11
126.227238
21
185.406125
0
LINE
8
BLACK
10
126.228000
20
185.406000
11
126.228000
21
185.390000
0
LINE
8
BLACK
10
126.228000
20
185.390000
11
126.217946
21
185.376771
0
LINE
8
BLACK
10
126.218000
20
185.377000
11
126.214031
21
185.363771
0
LINE
8
BLACK
10
126.214000
20
185.364000
11
126.200771
21
185.353417
0
LINE
8
BLACK
10
126.200000
20
185.353000
11
126.190210
21
185.339771
0
LINE
8
BLACK
10
126.191000
20
185.340000
11
126.175919
21
185.334708
0
LINE
8
BLACK
10
126.176000
20
185.335000
11
126.164094
21
185.327063
0
LINE
8
BLACK
10
126.164000
20
185.327000
11
126.148000
21
185.327000
0
LINE
8
BLACK
10
126.148000
20
185.327000
11
126.132919
21
185.321708
0
LINE
8
BLACK
10
126.132000
20
185.322000
11
85.993600
21
185.322000
0
LINE
8
BLACK
10
85.993600
20
185.322000
11
85.978519
21
185.327292
0
LINE
8
BLACK
10
85.978600
20
185.327000
11
85.946500
21
185.327000
0
LINE
8
BLACK
10
85.946500
20
185.327000
11
85.896494
21
185.364042
0
LINE
8
BLACK
10
85.896500
20
185.364000
11
85.877715
21
185.422208
0
LINE
8
BLACK
10
85.877800
20
185.422000
11
85.877800
21
199.551000
0
LINE
8
BLACK
10
85.877800
20
199.551000
11
85.882562
21
199.566875
0
LINE
8
BLACK
10
85.882500
20
199.567000
11
85.882500
21
199.583000
0
LINE
8
BLACK
10
85.882500
20
199.583000
11
85.891496
21
199.593583
0
LINE
8
BLACK
10
85.891500
20
199.593000
11
85.896527
21
199.608875
0
LINE
8
BLACK
10
85.896500
20
199.609000
11
85.909729
21
199.619583
0
LINE
8
BLACK
10
85.909800
20
199.620000
11
85.918796
21
199.630583
0
LINE
8
BLACK
10
85.918800
20
199.630000
11
85.933617
21
199.635292
0
LINE
8
BLACK
10
85.933600
20
199.636000
11
85.946565
21
199.646583
0
LINE
8
BLACK
10
85.946500
20
199.646000
11
85.962700
21
199.646000
0
LINE
8
BLACK
10
85.962700
20
199.646000
11
85.977781
21
199.651292
0
LINE
8
BLACK
10
85.977800
20
199.651000
11
126.117000
21
199.651000
0
LINE
8
BLACK
10
126.117000
20
199.651000
11
126.132081
21
199.645708
0
LINE
8
BLACK
10
86.077500
20
199.450000
11
86.077500
21
185.523000
0
LINE
8
BLACK
10
86.077500
20
185.523000
11
126.033000
21
185.523000
0
LINE
8
BLACK
10
126.033000
20
185.523000
11
126.033000
21
199.450000
0
LINE
8
BLACK
10
126.033000
20
199.450000
11
86.077500
21
199.450000
0
LINE
8
BLACK
10
70.784600
20
198.553000
11
70.800800
21
198.553000
0
LINE
8
BLACK
10
70.800800
20
198.553000
11
70.813765
21
198.545063
0
LINE
8
BLACK
10
70.813700
20
198.545000
11
70.828517
21
198.539708
0
LINE
8
BLACK
10
70.828500
20
198.540000
11
70.837496
21
198.526771
0
LINE
8
BLACK
10
70.837500
20
198.527000
11
70.850729
21
198.516417
0
LINE
8
BLACK
10
70.850800
20
198.516000
11
70.855827
21
198.502771
0
LINE
8
BLACK
10
70.855800
20
198.503000
11
70.864796
21
198.489771
0
LINE
8
BLACK
10
70.864800
20
198.490000
11
70.864800
21
198.474000
0
LINE
8
BLACK
10
70.864800
20
198.474000
11
70.869562
21
198.458125
0
LINE
8
BLACK
10
70.869500
20
198.458000
11
70.878496
21
190.806260
0
LINE
8
BLACK
10
70.878500
20
190.806000
11
70.874531
21
190.790125
0
LINE
8
BLACK
10
70.874600
20
190.791000
11
70.874600
21
190.775000
0
LINE
8
BLACK
10
70.874600
20
190.775000
11
70.864810
21
190.761771
0
LINE
8
BLACK
10
70.864800
20
190.761000
11
70.859773
21
190.747771
0
LINE
8
BLACK
10
70.859800
20
190.748000
11
70.847629
21
190.737417
0
LINE
8
BLACK
10
70.847600
20
190.738000
11
70.837546
21
190.724771
0
LINE
8
BLACK
10
70.837500
20
190.724000
11
70.822683
21
190.721354
0
LINE
8
BLACK
10
70.822700
20
190.722000
11
70.809735
21
190.711417
0
LINE
8
BLACK
10
70.809800
20
190.711000
11
70.794700
21
190.711000
0
LINE
8
BLACK
10
70.794700
20
190.711000
11
70.778560
21
190.705708
0
LINE
8
BLACK
10
70.778500
20
190.706000
11
63.108800
21
190.706000
0
LINE
8
BLACK
10
63.108800
20
190.706000
11
63.049798
21
190.724521
0
LINE
8
BLACK
10
63.049800
20
190.724000
11
63.012758
21
190.774271
0
LINE
8
BLACK
10
63.012800
20
190.775000
11
63.012800
21
190.806000
0
LINE
8
BLACK
10
63.012800
20
190.806000
11
63.008831
21
190.821875
0
LINE
8
BLACK
10
63.008800
20
190.822000
11
63.008800
21
198.458000
0
LINE
8
BLACK
10
63.008800
20
198.458000
11
63.012769
21
198.473875
0
LINE
8
BLACK
10
63.012800
20
198.474000
11
63.012800
21
198.490000
0
LINE
8
BLACK
10
63.012800
20
198.490000
11
63.022590
21
198.503229
0
LINE
8
BLACK
10
63.022500
20
198.503000
11
63.027527
21
198.516229
0
LINE
8
BLACK
10
63.027600
20
198.516000
11
63.040829
21
198.526583
0
LINE
8
BLACK
10
63.040800
20
198.527000
11
63.049796
21
198.540229
0
LINE
8
BLACK
10
63.049800
20
198.540000
11
63.064617
21
198.545292
0
LINE
8
BLACK
10
63.064600
20
198.545000
11
63.077565
21
198.552937
0
LINE
8
BLACK
10
63.077600
20
198.553000
11
63.093700
21
198.553000
0
LINE
8
BLACK
10
63.093700
20
198.553000
11
63.108781
21
198.558292
0
LINE
8
BLACK
10
63.108800
20
198.559000
11
70.769500
21
198.559000
0
LINE
8
BLACK
10
70.769500
20
198.559000
11
70.784581
21
198.553708
0
LINE
8
BLACK
10
63.208500
20
198.358000
11
63.208500
21
190.907000
0
LINE
8
BLACK
10
63.208500
20
190.907000
11
70.678800
21
190.907000
0
LINE
8
BLACK
10
70.678800
20
190.907000
11
70.669804
21
198.357660
0
LINE
8
BLACK
10
70.669800
20
198.358000
11
63.208500
21
198.358000
0
LINE
8
BLACK
10
127.254000
20
197.940000
11
127.238000
21
197.940000
0
LINE
8
BLACK
10
127.238000
20
197.940000
11
127.225035
21
197.950583
0
LINE
8
BLACK
10
127.225000
20
197.950000
11
127.209919
21
197.955292
0
LINE
8
BLACK
10
127.210000
20
197.955000
11
127.201004
21
197.968229
0
LINE
8
BLACK
10
127.201000
20
197.969000
11
127.188035
21
197.976937
0
LINE
8
BLACK
10
127.188000
20
197.977000
11
127.182973
21
197.992875
0
LINE
8
BLACK
10
127.183000
20
197.992000
11
127.174004
21
198.005229
0
LINE
8
BLACK
10
127.174000
20
198.006000
11
127.174000
21
198.022000
0
LINE
8
BLACK
10
127.174000
20
198.022000
11
127.168973
21
198.035229
0
LINE
8
BLACK
10
127.169000
20
198.035000
11
127.169000
21
204.819000
0
LINE
8
BLACK
10
127.169000
20
204.819000
11
127.174027
21
204.832229
0
LINE
8
BLACK
10
127.174000
20
204.832000
11
127.174000
21
204.848000
0
LINE
8
BLACK
10
127.174000
20
204.848000
11
127.182996
21
204.861229
0
LINE
8
BLACK
10
127.183000
20
204.861000
11
127.188027
21
204.876875
0
LINE
8
BLACK
10
127.188000
20
204.877000
11
127.200965
21
204.884937
0
LINE
8
BLACK
10
127.201000
20
204.885000
11
127.209996
21
204.898229
0
LINE
8
BLACK
10
127.210000
20
204.898000
11
127.225081
21
204.903292
0
LINE
8
BLACK
10
127.225000
20
204.903000
11
127.237965
21
204.913583
0
LINE
8
BLACK
10
127.238000
20
204.914000
11
127.254000
21
204.914000
0
LINE
8
BLACK
10
127.254000
20
204.914000
11
127.269081
21
204.916646
0
LINE
8
BLACK
10
127.269000
20
204.917000
11
138.394000
21
204.917000
0
LINE
8
BLACK
10
138.394000
20
204.917000
11
138.409081
21
204.914354
0
LINE
8
BLACK
10
138.409000
20
204.914000
11
138.424000
21
204.914000
0
LINE
8
BLACK
10
138.424000
20
204.914000
11
138.437229
21
204.903417
0
LINE
8
BLACK
10
138.438000
20
204.903000
11
138.452817
21
204.897708
0
LINE
8
BLACK
10
138.453000
20
204.898000
11
138.461996
21
204.884771
0
LINE
8
BLACK
10
138.462000
20
204.885000
11
138.474965
21
204.877063
0
LINE
8
BLACK
10
138.474000
20
204.877000
11
138.479027
21
204.861125
0
LINE
8
BLACK
10
138.480000
20
204.861000
11
138.488996
21
204.847771
0
LINE
8
BLACK
10
138.488000
20
204.848000
11
138.488000
21
204.832000
0
LINE
8
BLACK
10
138.488000
20
204.832000
11
138.493027
21
204.818771
0
LINE
8
BLACK
10
138.494000
20
204.819000
11
138.494000
21
198.035000
0
LINE
8
BLACK
10
138.494000
20
198.035000
11
138.488973
21
198.021771
0
LINE
8
BLACK
10
138.488000
20
198.022000
11
138.488000
21
198.006000
0
LINE
8
BLACK
10
138.488000
20
198.006000
11
138.479004
21
197.992771
0
LINE
8
BLACK
10
138.480000
20
197.992000
11
138.474973
21
197.976125
0
LINE
8
BLACK
10
138.474000
20
197.977000
11
138.461035
21
197.969063
0
LINE
8
BLACK
10
138.462000
20
197.969000
11
138.453004
21
197.955771
0
LINE
8
BLACK
10
138.453000
20
197.955000
11
138.438183
21
197.949708
0
LINE
8
BLACK
10
138.438000
20
197.950000
11
138.424771
21
197.939417
0
LINE
8
BLACK
10
138.424000
20
197.940000
11
138.409000
21
197.940000
0
LINE
8
BLACK
10
138.409000
20
197.940000
11
138.393919
21
197.937354
0
LINE
8
BLACK
10
138.394000
20
197.937000
11
127.269000
21
197.937000
0
LINE
8
BLACK
10
127.269000
20
197.937000
11
127.253919
21
197.939646
0
LINE
8
BLACK
10
127.369000
20
198.135000
11
138.293000
21
198.135000
0
LINE
8
BLACK
10
138.293000
20
198.135000
11
138.293000
21
204.718000
0
LINE
8
BLACK
10
138.293000
20
204.718000
11
127.369000
21
204.718000
0
LINE
8
BLACK
10
127.369000
20
204.718000
11
127.369000
21
198.135000
0
LINE
8
BLACK
10
52.065600
20
78.620300
11
52.127512
21
78.863716
0
LINE
8
BLACK
10
52.127500
20
78.863800
11
52.224602
21
79.096633
0
LINE
8
BLACK
10
52.224600
20
79.096600
11
52.355569
21
79.310912
0
LINE
8
BLACK
10
52.355600
20
79.310900
11
52.516731
21
79.504046
0
LINE
8
BLACK
10
52.516700
20
79.504000
11
52.704554
21
79.673333
0
LINE
8
BLACK
10
52.704600
20
79.673400
11
52.915737
21
79.810983
0
LINE
8
BLACK
10
52.915700
20
79.811000
11
53.144564
21
79.916833
0
LINE
8
BLACK
10
53.144600
20
79.916800
11
53.386693
21
79.985592
0
LINE
8
BLACK
10
53.386700
20
79.985600
11
53.635673
21
80.019996
0
LINE
8
BLACK
10
53.635600
20
80.020000
11
53.887483
21
80.017354
0
LINE
8
BLACK
10
53.887500
20
80.017300
11
54.136473
21
79.977613
0
LINE
8
BLACK
10
54.136500
20
79.977600
11
54.376741
21
79.900871
0
LINE
8
BLACK
10
54.376700
20
79.900900
11
54.602654
21
79.789775
0
LINE
8
BLACK
10
54.602700
20
79.789800
11
54.809604
21
79.644279
0
LINE
8
BLACK
10
54.809600
20
79.644300
11
54.992691
21
79.472321
0
LINE
8
BLACK
10
54.992700
20
79.472300
11
55.148539
21
79.273863
0
LINE
8
BLACK
10
55.148500
20
79.273900
11
55.273648
21
79.056942
0
LINE
8
BLACK
10
55.273700
20
79.056900
11
55.365775
21
78.821421
0
LINE
8
BLACK
10
55.365700
20
78.821400
11
55.420469
21
78.575338
0
LINE
8
BLACK
10
55.420500
20
78.575400
11
55.439550
21
78.324046
0
LINE
8
BLACK
10
55.439600
20
78.324000
11
55.437748
21
78.236688
0
LINE
8
BLACK
10
55.437700
20
78.236700
11
55.405685
21
77.985346
0
LINE
8
BLACK
10
55.405700
20
77.985300
11
55.336644
21
77.741884
0
LINE
8
BLACK
10
55.336600
20
77.741900
11
55.233677
21
77.511713
0
LINE
8
BLACK
10
55.233700
20
77.511700
11
55.097704
21
77.300034
0
LINE
8
BLACK
10
55.097700
20
77.300100
11
54.931542
21
77.112246
0
LINE
8
BLACK
10
54.931600
20
77.112200
11
54.738719
21
76.948159
0
LINE
8
BLACK
10
54.738700
20
76.948200
11
54.524652
21
76.815908
0
LINE
8
BLACK
10
54.524600
20
76.815900
11
54.292561
21
76.715358
0
LINE
8
BLACK
10
54.292600
20
76.715300
11
54.049713
21
76.651800
0
LINE
8
BLACK
10
54.049700
20
76.651800
11
53.798611
21
76.625342
0
LINE
8
BLACK
10
53.798600
20
76.625400
11
53.547511
21
76.633337
0
LINE
8
BLACK
10
53.547500
20
76.633300
11
53.299586
21
76.680925
0
LINE
8
BLACK
10
53.299600
20
76.680900
11
53.061475
21
76.765567
0
LINE
8
BLACK
10
53.061500
20
76.765600
11
52.838721
21
76.882017
0
LINE
8
BLACK
10
52.838700
20
76.882000
11
52.635500
21
77.032812
0
LINE
8
BLACK
10
52.635500
20
77.032800
11
52.456642
21
77.207425
0
LINE
8
BLACK
10
52.456700
20
77.207500
11
52.305623
21
77.411229
0
LINE
8
BLACK
10
52.305600
20
77.411200
11
52.186538
21
77.633450
0
LINE
8
BLACK
10
52.186500
20
77.633400
11
52.101569
21
77.868879
0
LINE
8
BLACK
10
52.101600
20
77.868900
11
52.052652
21
78.117608
0
LINE
8
BLACK
10
52.052600
20
78.117600
11
52.040694
21
78.361016
0
LINE
8
BLACK
10
52.040700
20
78.361000
11
52.040700
21
78.369000
0
LINE
8
BLACK
10
52.040700
20
78.369000
11
52.065571
21
78.620354
0
LINE
8
BLACK
10
52.303700
20
77.874200
11
52.396569
21
77.646659
0
LINE
8
BLACK
10
52.396600
20
77.646700
11
52.524658
21
77.435034
0
LINE
8
BLACK
10
52.524600
20
77.435000
11
52.686525
21
77.249792
0
LINE
8
BLACK
10
52.686600
20
77.249800
11
52.876571
21
77.091050
0
LINE
8
BLACK
10
52.876500
20
77.091000
11
53.089489
21
76.966646
0
LINE
8
BLACK
10
53.089500
20
76.966700
11
53.319687
21
76.879388
0
LINE
8
BLACK
10
53.319700
20
76.879400
11
53.561529
21
76.829129
0
LINE
8
BLACK
10
53.561600
20
76.829100
11
53.807662
21
76.821163
0
LINE
8
BLACK
10
53.807600
20
76.821200
11
54.052604
21
76.850304
0
LINE
8
BLACK
10
54.052600
20
76.850300
11
54.288608
21
76.921737
0
LINE
8
BLACK
10
54.288600
20
76.921700
11
54.510585
21
77.032825
0
LINE
8
BLACK
10
54.510600
20
77.032800
11
54.711683
21
77.175675
0
LINE
8
BLACK
10
54.711700
20
77.175700
11
54.885531
21
77.347679
0
LINE
8
BLACK
10
54.885500
20
77.347700
11
55.029698
21
77.548783
0
LINE
8
BLACK
10
55.029700
20
77.548800
11
55.138708
21
77.768404
0
LINE
8
BLACK
10
55.138700
20
77.768400
11
55.210667
21
78.006525
0
LINE
8
BLACK
10
55.210700
20
78.006500
11
55.242715
21
78.249916
0
LINE
8
BLACK
10
55.242700
20
78.249900
11
55.244552
21
78.323983
0
LINE
8
BLACK
10
55.244600
20
78.324000
11
55.224756
21
78.570062
0
LINE
8
BLACK
10
55.224700
20
78.570100
11
55.164640
21
78.810871
0
LINE
8
BLACK
10
55.164700
20
78.810800
11
55.065746
21
79.035696
0
LINE
8
BLACK
10
55.065700
20
79.035700
11
54.932615
21
79.242075
0
LINE
8
BLACK
10
54.932600
20
79.242100
11
54.766706
21
79.424662
0
LINE
8
BLACK
10
54.766700
20
79.424700
11
54.572496
21
79.578158
0
LINE
8
BLACK
10
54.572500
20
79.578100
11
54.356600
21
79.697162
0
LINE
8
BLACK
10
54.356600
20
79.697200
11
54.123502
21
79.779221
0
LINE
8
BLACK
10
54.123500
20
79.779200
11
53.881671
21
79.821533
0
LINE
8
BLACK
10
53.881700
20
79.821500
11
53.634579
21
79.826792
0
LINE
8
BLACK
10
53.634600
20
79.826800
11
53.390654
21
79.789758
0
LINE
8
BLACK
10
53.390600
20
79.789800
11
53.156709
21
79.710425
0
LINE
8
BLACK
10
53.156700
20
79.710400
11
52.937625
21
79.596629
0
LINE
8
BLACK
10
52.937700
20
79.596600
11
52.740586
21
79.448434
0
LINE
8
BLACK
10
52.740500
20
79.448500
11
52.569579
21
79.271229
0
LINE
8
BLACK
10
52.569600
20
79.271200
11
52.430694
21
79.067471
0
LINE
8
BLACK
10
52.430700
20
79.067500
11
52.326719
21
78.842604
0
LINE
8
BLACK
10
52.326700
20
78.842600
11
52.261613
21
78.607121
0
LINE
8
BLACK
10
52.261700
20
78.607100
11
52.234713
21
78.361038
0
LINE
8
BLACK
10
52.234700
20
78.361000
11
52.249781
21
78.114938
0
LINE
8
BLACK
10
52.249700
20
78.115000
11
52.303675
21
77.874229
0
LINE
8
BLACK
10
159.965000
20
78.620700
11
160.026912
21
78.864116
0
LINE
8
BLACK
10
160.027000
20
78.864100
11
160.124102
21
79.096933
0
LINE
8
BLACK
10
160.124000
20
79.097000
11
160.254969
21
79.311312
0
LINE
8
BLACK
10
160.255000
20
79.311300
11
160.416131
21
79.504446
0
LINE
8
BLACK
10
160.417000
20
79.504400
11
160.604854
21
79.673733
0
LINE
8
BLACK
10
160.604000
20
79.673800
11
160.815137
21
79.811383
0
LINE
8
BLACK
10
160.816000
20
79.811300
11
161.044864
21
79.917133
0
LINE
8
BLACK
10
161.044000
20
79.917200
11
161.286093
21
79.985992
0
LINE
8
BLACK
10
161.287000
20
79.986000
11
161.535973
21
80.020396
0
LINE
8
BLACK
10
161.535000
20
80.020400
11
161.786883
21
80.017754
0
LINE
8
BLACK
10
161.787000
20
80.017700
11
162.035973
21
79.978013
0
LINE
8
BLACK
10
162.036000
20
79.978000
11
162.276241
21
79.901271
0
LINE
8
BLACK
10
162.277000
20
79.901300
11
162.502954
21
79.790175
0
LINE
8
BLACK
10
162.503000
20
79.790200
11
162.709904
21
79.644679
0
LINE
8
BLACK
10
162.709000
20
79.644700
11
162.892091
21
79.472721
0
LINE
8
BLACK
10
162.893000
20
79.472700
11
163.048839
21
79.274263
0
LINE
8
BLACK
10
163.048000
20
79.274200
11
163.173148
21
79.057242
0
LINE
8
BLACK
10
163.174000
20
79.057300
11
163.266075
21
78.821821
0
LINE
8
BLACK
10
163.266000
20
78.821800
11
163.320769
21
78.575738
0
LINE
8
BLACK
10
163.320000
20
78.575700
11
163.339050
21
78.324346
0
LINE
8
BLACK
10
163.339000
20
78.324400
11
163.337148
21
78.237088
0
LINE
8
BLACK
10
163.338000
20
78.237100
11
163.305985
21
77.985746
0
LINE
8
BLACK
10
163.306000
20
77.985700
11
163.236944
21
77.742284
0
LINE
8
BLACK
10
163.237000
20
77.742300
11
163.134077
21
77.512113
0
LINE
8
BLACK
10
163.134000
20
77.512100
11
162.998004
21
77.300434
0
LINE
8
BLACK
10
162.998000
20
77.300500
11
162.831842
21
77.112646
0
LINE
8
BLACK
10
162.831000
20
77.112600
11
162.638119
21
76.948559
0
LINE
8
BLACK
10
162.639000
20
76.948600
11
162.424952
21
76.816308
0
LINE
8
BLACK
10
162.424000
20
76.816300
11
162.191961
21
76.715758
0
LINE
8
BLACK
10
162.192000
20
76.715700
11
161.949113
21
76.652200
0
LINE
8
BLACK
10
161.950000
20
76.652200
11
161.698911
21
76.625742
0
LINE
8
BLACK
10
161.698000
20
76.625800
11
161.446911
21
76.633737
0
LINE
8
BLACK
10
161.447000
20
76.633700
11
161.199086
21
76.681325
0
LINE
8
BLACK
10
161.199000
20
76.681300
11
160.960875
21
76.765967
0
LINE
8
BLACK
10
160.961000
20
76.766000
11
160.738221
21
76.882417
0
LINE
8
BLACK
10
160.739000
20
76.882400
11
160.535800
21
77.033212
0
LINE
8
BLACK
10
160.535000
20
77.033200
11
160.356142
21
77.207825
0
LINE
8
BLACK
10
160.357000
20
77.207900
11
160.205923
21
77.411629
0
LINE
8
BLACK
10
160.205000
20
77.411600
11
160.085938
21
77.633850
0
LINE
8
BLACK
10
160.086000
20
77.633800
11
160.001069
21
77.869279
0
LINE
8
BLACK
10
160.001000
20
77.869300
11
159.952052
21
78.118008
0
LINE
8
BLACK
10
159.952000
20
78.118000
11
159.940094
21
78.361416
0
LINE
8
BLACK
10
159.941000
20
78.361400
11
159.941000
21
78.369400
0
LINE
8
BLACK
10
159.941000
20
78.369400
11
159.965871
21
78.620754
0
LINE
8
BLACK
10
160.204000
20
77.874600
11
160.296869
21
77.647059
0
LINE
8
BLACK
10
160.296000
20
77.647100
11
160.424058
21
77.435434
0
LINE
8
BLACK
10
160.425000
20
77.435400
11
160.586925
21
77.250192
0
LINE
8
BLACK
10
160.586000
20
77.250200
11
160.775971
21
77.091450
0
LINE
8
BLACK
10
160.776000
20
77.091400
11
160.988989
21
76.967046
0
LINE
8
BLACK
10
160.989000
20
76.967100
11
161.219187
21
76.879788
0
LINE
8
BLACK
10
161.220000
20
76.879800
11
161.461829
21
76.829529
0
LINE
8
BLACK
10
161.461000
20
76.829500
11
161.707062
21
76.821563
0
LINE
8
BLACK
10
161.707000
20
76.821600
11
161.952004
21
76.850704
0
LINE
8
BLACK
10
161.952000
20
76.850700
11
162.188008
21
76.922137
0
LINE
8
BLACK
10
162.188000
20
76.922100
11
162.409985
21
77.033225
0
LINE
8
BLACK
10
162.410000
20
77.033200
11
162.611083
21
77.176075
0
LINE
8
BLACK
10
162.612000
20
77.176100
11
162.785831
21
77.348079
0
LINE
8
BLACK
10
162.785000
20
77.348100
11
162.929198
21
77.549183
0
LINE
8
BLACK
10
162.930000
20
77.549200
11
163.039008
21
77.768804
0
LINE
8
BLACK
10
163.039000
20
77.768800
11
163.110967
21
78.006925
0
LINE
8
BLACK
10
163.111000
20
78.006900
11
163.143014
21
78.250316
0
LINE
8
BLACK
10
163.143000
20
78.250300
11
163.144852
21
78.324383
0
LINE
8
BLACK
10
163.144000
20
78.324400
11
163.124156
21
78.570462
0
LINE
8
BLACK
10
163.125000
20
78.570500
11
163.064940
21
78.811271
0
LINE
8
BLACK
10
163.065000
20
78.811200
11
162.966046
21
79.036096
0
LINE
8
BLACK
10
162.966000
20
79.036100
11
162.832915
21
79.242475
0
LINE
8
BLACK
10
162.832000
20
79.242500
11
162.666106
21
79.425062
0
LINE
8
BLACK
10
162.667000
20
79.425100
11
162.472796
21
79.578558
0
LINE
8
BLACK
10
162.472000
20
79.578500
11
162.256100
21
79.697562
0
LINE
8
BLACK
10
162.256000
20
79.697600
11
162.022902
21
79.779621
0
LINE
8
BLACK
10
162.023000
20
79.779600
11
161.781171
21
79.821933
0
LINE
8
BLACK
10
161.782000
20
79.821900
11
161.534879
21
79.827192
0
LINE
8
BLACK
10
161.534000
20
79.827200
11
161.290054
21
79.790158
0
LINE
8
BLACK
10
161.290000
20
79.790200
11
161.056109
21
79.710825
0
LINE
8
BLACK
10
161.057000
20
79.710800
11
160.837925
21
79.597029
0
LINE
8
BLACK
10
160.838000
20
79.597000
11
160.640886
21
79.448834
0
LINE
8
BLACK
10
160.640000
20
79.448900
11
160.469079
21
79.271629
0
LINE
8
BLACK
10
160.469000
20
79.271600
11
160.330094
21
79.067871
0
LINE
8
BLACK
10
160.331000
20
79.067900
11
160.227019
21
78.843004
0
LINE
8
BLACK
10
160.227000
20
78.843000
11
160.161913
21
78.607521
0
LINE
8
BLACK
10
160.162000
20
78.607500
11
160.135013
21
78.361438
0
LINE
8
BLACK
10
160.135000
20
78.361400
11
160.150081
21
78.115338
0
LINE
8
BLACK
10
160.150000
20
78.115400
11
160.203975
21
77.874629
0
LINE
8
BLACK
10
51.415100
20
209.817000
11
51.477012
21
210.060416
0
LINE
8
BLACK
10
51.477000
20
210.061000
11
51.574102
21
210.293833
0
LINE
8
BLACK
10
51.574100
20
210.294000
11
51.705069
21
210.508312
0
LINE
8
BLACK
10
51.705100
20
210.508000
11
51.866231
21
210.701146
0
LINE
8
BLACK
10
51.866200
20
210.701000
11
52.054054
21
210.870333
0
LINE
8
BLACK
10
52.054100
20
210.870000
11
52.265237
21
211.007583
0
LINE
8
BLACK
10
52.265200
20
211.008000
11
52.494064
21
211.113833
0
LINE
8
BLACK
10
52.494100
20
211.114000
11
52.736193
21
211.185437
0
LINE
8
BLACK
10
52.736200
20
211.185000
11
52.985173
21
211.216750
0
LINE
8
BLACK
10
52.985100
20
211.217000
11
53.236983
21
211.214354
0
LINE
8
BLACK
10
53.237000
20
211.214000
11
53.485973
21
211.174312
0
LINE
8
BLACK
10
53.486000
20
211.175000
11
53.726241
21
211.098271
0
LINE
8
BLACK
10
53.726200
20
211.098000
11
53.952154
21
210.986875
0
LINE
8
BLACK
10
53.952200
20
210.987000
11
54.159104
21
210.841479
0
LINE
8
BLACK
10
54.159100
20
210.841000
11
54.342191
21
210.669021
0
LINE
8
BLACK
10
54.342200
20
210.669000
11
54.498039
21
210.470563
0
LINE
8
BLACK
10
54.498000
20
210.471000
11
54.623148
21
210.254042
0
LINE
8
BLACK
10
54.623200
20
210.254000
11
54.715275
21
210.018521
0
LINE
8
BLACK
10
54.715200
20
210.018000
11
54.769969
21
209.771938
0
LINE
8
BLACK
10
54.770000
20
209.772000
11
54.789050
21
209.520646
0
LINE
8
BLACK
10
54.789100
20
209.521000
11
54.787248
21
209.431042
0
LINE
8
BLACK
10
54.787200
20
209.431000
11
54.755185
21
209.182292
0
LINE
8
BLACK
10
54.755200
20
209.182000
11
54.686144
21
208.938584
0
LINE
8
BLACK
10
54.686100
20
208.939000
11
54.583177
21
208.708813
0
LINE
8
BLACK
10
54.583200
20
208.709000
11
54.447204
21
208.497334
0
LINE
8
BLACK
10
54.447200
20
208.497000
11
54.281042
21
208.309146
0
LINE
8
BLACK
10
54.281100
20
208.309000
11
54.088219
21
208.144959
0
LINE
8
BLACK
10
54.088200
20
208.145000
11
53.874152
21
208.012708
0
LINE
8
BLACK
10
53.874100
20
208.013000
11
53.642061
21
207.915104
0
LINE
8
BLACK
10
53.642100
20
207.915000
11
53.399213
21
207.848854
0
LINE
8
BLACK
10
53.399200
20
207.849000
11
53.148111
21
207.822542
0
LINE
8
BLACK
10
53.148100
20
207.822000
11
52.897011
21
207.832583
0
LINE
8
BLACK
10
52.897000
20
207.833000
11
52.649086
21
207.877979
0
LINE
8
BLACK
10
52.649100
20
207.878000
11
52.410975
21
207.962667
0
LINE
8
BLACK
10
52.411000
20
207.963000
11
52.188221
21
208.079417
0
LINE
8
BLACK
10
52.188200
20
208.079000
11
51.985000
21
208.227166
0
LINE
8
BLACK
10
51.985000
20
208.227000
11
51.806142
21
208.406916
0
LINE
8
BLACK
10
51.806100
20
208.407000
11
51.655023
21
208.608083
0
LINE
8
BLACK
10
51.655100
20
208.608000
11
51.536038
21
208.830250
0
LINE
8
BLACK
10
51.536000
20
208.830000
11
51.451069
21
209.065479
0
LINE
8
BLACK
10
51.451100
20
209.066000
11
51.402152
21
209.314708
0
LINE
8
BLACK
10
51.402100
20
209.315000
11
51.390194
21
209.558416
0
LINE
8
BLACK
10
51.390200
20
209.558000
11
51.390200
21
209.566000
0
LINE
8
BLACK
10
51.390200
20
209.566000
11
51.415071
21
209.817354
0
LINE
8
BLACK
10
51.653200
20
209.071000
11
51.746069
21
208.843459
0
LINE
8
BLACK
10
51.746100
20
208.844000
11
51.874158
21
208.632334
0
LINE
8
BLACK
10
51.874100
20
208.632000
11
52.036025
21
208.446792
0
LINE
8
BLACK
10
52.036100
20
208.447000
11
52.226071
21
208.288250
0
LINE
8
BLACK
10
52.226000
20
208.288000
11
52.438989
21
208.163646
0
LINE
8
BLACK
10
52.439000
20
208.164000
11
52.669187
21
208.076688
0
LINE
8
BLACK
10
52.669200
20
208.076000
11
52.911029
21
208.025729
0
LINE
8
BLACK
10
52.911000
20
208.026000
11
53.157062
21
208.018063
0
LINE
8
BLACK
10
53.157100
20
208.018000
11
53.402104
21
208.049750
0
LINE
8
BLACK
10
53.402100
20
208.050000
11
53.638108
21
208.118792
0
LINE
8
BLACK
10
53.638100
20
208.119000
11
53.860085
21
208.227479
0
LINE
8
BLACK
10
53.860100
20
208.227000
11
54.061183
21
208.372521
0
LINE
8
BLACK
10
54.061200
20
208.373000
11
54.235031
21
208.544979
0
LINE
8
BLACK
10
54.235000
20
208.545000
11
54.379198
21
208.746083
0
LINE
8
BLACK
10
54.379200
20
208.746000
11
54.488208
21
208.968250
0
LINE
8
BLACK
10
54.488200
20
208.968000
11
54.560167
21
209.203479
0
LINE
8
BLACK
10
54.560200
20
209.203000
11
54.592215
21
209.446416
0
LINE
8
BLACK
10
54.592200
20
209.447000
11
54.594052
21
209.521083
0
LINE
8
BLACK
10
54.594100
20
209.521000
11
54.574256
21
209.767062
0
LINE
8
BLACK
10
54.574200
20
209.767000
11
54.514140
21
210.005125
0
LINE
8
BLACK
10
54.514200
20
210.005000
11
54.415246
21
210.232541
0
LINE
8
BLACK
10
54.415200
20
210.233000
11
54.282115
21
210.439375
0
LINE
8
BLACK
10
54.282100
20
210.439000
11
54.116206
21
210.621562
0
LINE
8
BLACK
10
54.116200
20
210.622000
11
53.921996
21
210.775458
0
LINE
8
BLACK
10
53.922000
20
210.775000
11
53.706100
21
210.894062
0
LINE
8
BLACK
10
53.706100
20
210.894000
11
53.473002
21
210.976021
0
LINE
8
BLACK
10
53.473000
20
210.976000
11
53.231171
21
211.018333
0
LINE
8
BLACK
10
53.231200
20
211.018000
11
52.984079
21
211.023292
0
LINE
8
BLACK
10
52.984100
20
211.024000
11
52.740154
21
210.984313
0
LINE
8
BLACK
10
52.740100
20
210.984000
11
52.506209
21
210.907271
0
LINE
8
BLACK
10
52.506200
20
210.907000
11
52.287125
21
210.793229
0
LINE
8
BLACK
10
52.287200
20
210.794000
11
52.090086
21
210.645834
0
LINE
8
BLACK
10
52.090000
20
210.645000
11
51.919079
21
210.467729
0
LINE
8
BLACK
10
51.919100
20
210.468000
11
51.780194
21
210.264271
0
LINE
8
BLACK
10
51.780200
20
210.264000
11
51.676219
21
210.039104
0
LINE
8
BLACK
10
51.676200
20
210.040000
11
51.611113
21
209.804521
0
LINE
8
BLACK
10
51.611200
20
209.804000
11
51.584212
21
209.557938
0
LINE
8
BLACK
10
51.584200
20
209.558000
11
51.599281
21
209.311938
0
LINE
8
BLACK
10
51.599200
20
209.312000
11
51.653175
21
209.071229
0
LINE
8
BLACK
10
161.553000
20
209.817000
11
161.614912
21
210.060416
0
LINE
8
BLACK
10
161.614000
20
210.061000
11
161.711102
21
210.293833
0
LINE
8
BLACK
10
161.712000
20
210.293000
11
161.842969
21
210.507312
0
LINE
8
BLACK
10
161.843000
20
210.508000
11
162.004131
21
210.701146
0
LINE
8
BLACK
10
162.004000
20
210.701000
11
162.191854
21
210.870333
0
LINE
8
BLACK
10
162.192000
20
210.870000
11
162.403137
21
211.007583
0
LINE
8
BLACK
10
162.403000
20
211.008000
11
162.631864
21
211.113833
0
LINE
8
BLACK
10
162.632000
20
211.114000
11
162.874093
21
211.185437
0
LINE
8
BLACK
10
162.874000
20
211.185000
11
163.122973
21
211.216750
0
LINE
8
BLACK
10
163.123000
20
211.217000
11
163.374883
21
211.214354
0
LINE
8
BLACK
10
163.374000
20
211.214000
11
163.622973
21
211.174312
0
LINE
8
BLACK
10
163.623000
20
211.174000
11
163.863241
21
211.097271
0
LINE
8
BLACK
10
163.864000
20
211.098000
11
164.089954
21
210.986875
0
LINE
8
BLACK
10
164.090000
20
210.987000
11
164.296904
21
210.841479
0
LINE
8
BLACK
10
164.297000
20
210.841000
11
164.480091
21
210.669021
0
LINE
8
BLACK
10
164.480000
20
210.669000
11
164.635839
21
210.470563
0
LINE
8
BLACK
10
164.635000
20
210.471000
11
164.760148
21
210.254042
0
LINE
8
BLACK
10
164.761000
20
210.254000
11
164.853075
21
210.018521
0
LINE
8
BLACK
10
164.853000
20
210.018000
11
164.907769
21
209.771938
0
LINE
8
BLACK
10
164.907000
20
209.772000
11
164.926050
21
209.520646
0
LINE
8
BLACK
10
164.927000
20
209.521000
11
164.925148
21
209.431042
0
LINE
8
BLACK
10
164.925000
20
209.431000
11
164.892986
21
209.182292
0
LINE
8
BLACK
10
164.893000
20
209.182000
11
164.823944
21
208.938584
0
LINE
8
BLACK
10
164.824000
20
208.939000
11
164.721077
21
208.708813
0
LINE
8
BLACK
10
164.721000
20
208.709000
11
164.585004
21
208.497334
0
LINE
8
BLACK
10
164.585000
20
208.497000
11
164.418842
21
208.309146
0
LINE
8
BLACK
10
164.419000
20
208.309000
11
164.226119
21
208.144959
0
LINE
8
BLACK
10
164.226000
20
208.145000
11
164.011952
21
208.012708
0
LINE
8
BLACK
10
164.012000
20
208.013000
11
163.779961
21
207.915104
0
LINE
8
BLACK
10
163.780000
20
207.915000
11
163.537113
21
207.848854
0
LINE
8
BLACK
10
163.537000
20
207.849000
11
163.285911
21
207.822542
0
LINE
8
BLACK
10
163.286000
20
207.822000
11
163.034911
21
207.832583
0
LINE
8
BLACK
10
163.034000
20
207.833000
11
162.786086
21
207.877979
0
LINE
8
BLACK
10
162.787000
20
207.878000
11
162.548875
21
207.962667
0
LINE
8
BLACK
10
162.548000
20
207.962000
11
162.325221
21
208.078417
0
LINE
8
BLACK
10
162.326000
20
208.079000
11
162.122800
21
208.227166
0
LINE
8
BLACK
10
162.122000
20
208.227000
11
161.943142
21
208.406916
0
LINE
8
BLACK
10
161.944000
20
208.407000
11
161.792923
21
208.608083
0
LINE
8
BLACK
10
161.793000
20
208.608000
11
161.673938
21
208.830250
0
LINE
8
BLACK
10
161.673000
20
208.830000
11
161.588069
21
209.065479
0
LINE
8
BLACK
10
161.589000
20
209.066000
11
161.540052
21
209.314708
0
LINE
8
BLACK
10
161.540000
20
209.314000
11
161.528094
21
209.557416
0
LINE
8
BLACK
10
161.528000
20
209.558000
11
161.528000
21
209.566000
0
LINE
8
BLACK
10
161.528000
20
209.566000
11
161.552871
21
209.817354
0
LINE
8
BLACK
10
161.791000
20
209.071000
11
161.883869
21
208.843459
0
LINE
8
BLACK
10
161.884000
20
208.844000
11
162.012058
21
208.632334
0
LINE
8
BLACK
10
162.012000
20
208.632000
11
162.173925
21
208.446792
0
LINE
8
BLACK
10
162.174000
20
208.447000
11
162.363971
21
208.288250
0
LINE
8
BLACK
10
162.364000
20
208.288000
11
162.576989
21
208.163646
0
LINE
8
BLACK
10
162.577000
20
208.164000
11
162.807187
21
208.076688
0
LINE
8
BLACK
10
162.807000
20
208.076000
11
163.048829
21
208.025729
0
LINE
8
BLACK
10
163.049000
20
208.026000
11
163.295062
21
208.018063
0
LINE
8
BLACK
10
163.295000
20
208.018000
11
163.540004
21
208.049750
0
LINE
8
BLACK
10
163.540000
20
208.050000
11
163.776008
21
208.118792
0
LINE
8
BLACK
10
163.776000
20
208.119000
11
163.997985
21
208.227479
0
LINE
8
BLACK
10
163.998000
20
208.227000
11
164.199083
21
208.372521
0
LINE
8
BLACK
10
164.199000
20
208.373000
11
164.372831
21
208.544979
0
LINE
8
BLACK
10
164.372000
20
208.545000
11
164.516198
21
208.746083
0
LINE
8
BLACK
10
164.517000
20
208.746000
11
164.626008
21
208.968250
0
LINE
8
BLACK
10
164.626000
20
208.968000
11
164.697967
21
209.203479
0
LINE
8
BLACK
10
164.698000
20
209.203000
11
164.730015
21
209.446416
0
LINE
8
BLACK
10
164.730000
20
209.447000
11
164.731852
21
209.521083
0
LINE
8
BLACK
10
164.732000
20
209.521000
11
164.712156
21
209.767062
0
LINE
8
BLACK
10
164.712000
20
209.767000
11
164.651940
21
210.005125
0
LINE
8
BLACK
10
164.652000
20
210.005000
11
164.553046
21
210.232541
0
LINE
8
BLACK
10
164.553000
20
210.233000
11
164.419915
21
210.439375
0
LINE
8
BLACK
10
164.420000
20
210.439000
11
164.254106
21
210.621562
0
LINE
8
BLACK
10
164.254000
20
210.622000
11
164.059796
21
210.775458
0
LINE
8
BLACK
10
164.059000
20
210.775000
11
163.843100
21
210.894062
0
LINE
8
BLACK
10
163.844000
20
210.894000
11
163.610902
21
210.976021
0
LINE
8
BLACK
10
163.610000
20
210.976000
11
163.368171
21
211.018333
0
LINE
8
BLACK
10
163.369000
20
211.018000
11
163.121879
21
211.023292
0
LINE
8
BLACK
10
163.122000
20
211.024000
11
162.878054
21
210.984313
0
LINE
8
BLACK
10
162.878000
20
210.984000
11
162.644109
21
210.907271
0
LINE
8
BLACK
10
162.644000
20
210.907000
11
162.424925
21
210.793229
0
LINE
8
BLACK
10
162.425000
20
210.793000
11
162.227886
21
210.644834
0
LINE
8
BLACK
10
162.228000
20
210.645000
11
162.057079
21
210.467729
0
LINE
8
BLACK
10
162.057000
20
210.468000
11
161.918094
21
210.264271
0
LINE
8
BLACK
10
161.918000
20
210.264000
11
161.814019
21
210.039104
0
LINE
8
BLACK
10
161.814000
20
210.039000
11
161.748913
21
209.803521
0
LINE
8
BLACK
10
161.749000
20
209.804000
11
161.722013
21
209.557938
0
LINE
8
BLACK
10
161.722000
20
209.558000
11
161.737081
21
209.311938
0
LINE
8
BLACK
10
161.737000
20
209.312000
11
161.790975
21
209.071229
 0 
ENDSEC
 0 
EOF